<?xml version="1.0" encoding="UTF-8"?>
<svg width="385px" height="416px" viewBox="0 0 385 416" version="1.1" xmlns="http://www.w3.org/2000/svg" xmlns:xlink="http://www.w3.org/1999/xlink">
    <!-- Generator: Sketch 48.2 (47327) - http://www.bohemiancoding.com/sketch -->
    <title>Group 2</title>
    <desc>Created with Sketch.</desc>
    <defs>
        <linearGradient x1="50%" y1="34.4587702%" x2="50%" y2="88.9872505%" id="linearGradient-1">
            <stop stop-color="#FFFFFF" offset="0%"></stop>
            <stop stop-color="#FFFFFF" stop-opacity="0.412477355" offset="100%"></stop>
        </linearGradient>
    </defs>
    <g id="All-Benefits" stroke="none" stroke-width="1" fill="none" fill-rule="evenodd" transform="translate(-107.000000, -106.000000)">
        <g id="Group-2" transform="translate(107.000000, 106.000000)">
            <rect id="Rectangle-2" fill="#FFFFFF" x="0" y="0" width="385" height="416" rx="3"></rect>
            <g id="Group-4" transform="translate(1.000000, 76.000000)">
                <g id="Group-3" transform="translate(132.000000, 299.000000)">
                    <g id="Group-12">
                        <path d="M22,0 L67,0 C69.7614237,-5.07265313e-16 72,2.23857625 72,5 L72,5 C72,7.76142375 69.7614237,10 67,10 L22,10 C19.2385763,10 17,7.76142375 17,5 L17,5 C17,2.23857625 19.2385763,5.07265313e-16 22,0 Z" id="Rectangle-7-Copy-3" fill="#F2F4F7" transform="translate(44.500000, 5.000000) scale(-1, 1) translate(-44.500000, -5.000000) "></path>
                        <g id="Group" fill="#00A7CF">
                            <circle id="Oval" cx="5.09376916" cy="4.81772652" r="4.72886542"></circle>
                        </g>
                    </g>
                </g>
                <g id="Group-30">
                    <path d="M0,55.4104478 L383,55.4104478" id="Line" stroke="#CDD6DF" stroke-width="0.5" stroke-linecap="square" stroke-dasharray="1"></path>
                    <path d="M0,2.05223881 L383,2.05223881" id="Line-Copy-5" stroke="#CDD6DF" stroke-width="0.5" stroke-linecap="square" stroke-dasharray="1"></path>
                    <path d="M0,110.136816 L383,110.136816" id="Line-Copy" stroke="#CDD6DF" stroke-width="0.5" stroke-linecap="square" stroke-dasharray="1"></path>
                    <path d="M0,164.863184 L383,164.863184" id="Line-Copy-2" stroke="#CDD6DF" stroke-width="0.5" stroke-linecap="square" stroke-dasharray="1"></path>
                    <path d="M0,219.589552 L383,219.589552" id="Line-Copy-3" stroke="#CDD6DF" stroke-width="0.5" stroke-linecap="square" stroke-dasharray="1"></path>
                    <path d="M0,272.947761 L383,272.947761" id="Line-Copy-4" stroke="#CDD6DF" stroke-width="0.5" stroke-linecap="square" stroke-dasharray="1"></path>
                    <polyline id="Path-17" stroke="#00A7CF" stroke-width="1.5" points="383 16.4179104 329.405511 101.174099 260.428281 159.971178 188.193378 132.806417 128.757072 203.541105 59.9885201 169.427811 0.11466494 240.79602"></polyline>
                </g>
            </g>
            <rect id="Rectangle-15" fill="url(#linearGradient-1)" x="9" y="4" width="375" height="335"></rect>
        </g>
    </g>
</svg>