<svg height="416" viewBox="0 0 385 416" width="385" xmlns="http://www.w3.org/2000/svg" xmlns:xlink="http://www.w3.org/1999/xlink"><linearGradient id="a" x1="50%" x2="50%" y1="34.45877%" y2="88.987251%"><stop offset="0" stop-color="#fff"/><stop offset="1" stop-color="#fff" stop-opacity=".412477"/></linearGradient><g fill="none" fill-rule="evenodd"><rect fill="#fff" height="416" rx="3" width="385"/><g transform="translate(133 375)"><path d="m22 0h45c2.7614237 0 5 2.23857625 5 5 0 2.76142375-2.2385763 5-5 5h-45c-2.7614237 0-5-2.23857625-5-5 0-2.76142375 2.2385763-5 5-5z" fill="#f2f4f7" transform="matrix(-1 0 0 1 89 0)"/><circle cx="5.093769" cy="4.817727" fill="#00a7cf" r="4.728865"/></g><g transform="translate(1 76)"><g stroke="#cdd6df" stroke-dasharray="1" stroke-linecap="square" stroke-width=".5"><path d="m0 55.4104478h383"/><path d="m0 2.05223881h383"/><path d="m0 110.136816h383"/><path d="m0 164.863184h383"/><path d="m0 219.589552h383"/><path d="m0 272.947761h383"/></g><path d="m383 16.4179104-53.594489 84.7561886-68.97723 58.797079-72.234903-27.164761-59.436306 70.734688-68.7685519-34.113294-59.87385516 71.368209" stroke="#00a7cf" stroke-width="1.5"/></g><path d="m9 4h375v335h-375z" fill="url(#a)"/></g></svg>