<svg height="170" viewBox="0 0 180 170" width="180" xmlns="http://www.w3.org/2000/svg" xmlns:xlink="http://www.w3.org/1999/xlink"><linearGradient id="a" x1="0%" x2="149.460671%" y1="0%" y2="71.875%"><stop offset="0" stop-color="#00eaf8"/><stop offset="1" stop-color="#6d42ef"/></linearGradient><path d="m923.48945 1114.43643c-2.002152-.73105-4.233523.2545-4.984462 2.19931l-5.158837 13.34927-15.61784-46.70585c5.413369-3.07522 9.060485-8.78052 9.060485-15.30091 0-9.76812-8.178413-17.71509-18.23136-17.71509-1.694183 0-3.332818.23059-4.890594.65248l-19.654136-14.17426c-1.717034-1.23835-4.141414-.88956-5.415478.77888-1.274065 1.6681-.915119 4.02388.801212 5.26223l11.295723 8.14613h-49.30075c-1.771878-7.97806-9.086149-13.97578-17.818625-13.97578-9.422595 0-17.198819 6.98225-18.136086 15.90215l-20.805154 10.93883c-1.880159.98863-2.57977 3.2713-1.562346 5.09825 1.017423 1.82695 3.366568 2.50608 5.246728 1.51813l14.043188-7.38365-16.27456 48.67048c-.609962-.06013-1.229064-.09087-1.854847-.09087-10.053298-.00034-18.231711 7.94697-18.231711 17.71509 0 7.70614 5.091689 14.27538 12.176388 16.70665l8.036733 22.15437c.560743 1.54546 2.055238 2.51189 3.650983 2.51189.426798 0 .861681-.06935 1.286721-.21522 2.016215-.69074 3.074771-2.83881 2.36391-4.79797l-4.411765-12.16079 38.90749 27.46819c-1.040627 2.22664-1.624925 4.69583-1.624925 7.29654 0 9.76812 8.178413 17.71509 18.23136 17.71509 5.223525 0 9.937634-2.14944 13.264476-5.58129l24.218128 1.47304c2.272856.00751 3.976882-1.52599 4.105554-3.51931.133594-2.07326-1.487815-3.85922-3.621451-3.98903l-14.963581-.91041 42.094761-29.71805c3.219263 2.77322 7.448919 4.46182 12.079005 4.46182 10.052596 0 18.231009-7.94697 18.231009-17.71509 0-3.41785-1.004065-6.6116-2.736919-9.32129l8.46353-21.90158c.752345-1.94344-.260508-4.11235-2.261957-4.84238zm-21.94878-46.32532c0 6.24898-5.09992 11.33333-11.368421 11.33333s-11.368421-5.08435-11.368421-11.33333 5.09992-11.33333 11.368421-11.33333 11.368421 5.08435 11.368421 11.33333zm-97.037061-24.55555c6.268225 0 11.368612 5.08426 11.368612 11.33314 0 6.24926-5.100006 11.33352-11.368612 11.33352s-11.36823-5.08426-11.36823-11.33352c.000381-6.24888 5.100005-11.33314 11.36823-11.33314zm-15.712179 26.27678 2.249915 10.53439c.380924 1.78171 2.015088 3.00987 3.839536 3.00953.260839 0 .526667-.0253.792138-.07762 2.122703-.41747 3.490683-2.40707 3.055951-4.44386l-1.709707-8.00627c2.254903.94232 4.740714 1.46818 7.353024 1.46818 8.834675 0 17.242682-6.63162 19.055728-14.59447h47.611701l-10.084954 8.6879c-1.739996 1.23944-2.103461 3.59728-.812094 5.26685.769689.99531 1.953799 1.52118 3.153587 1.52118.81245 0 1.632739-.24139 2.335436-.74161l6.399109-4.55704c0 9.78457 8.289479 17.73852 18.47895 17.73852.618602 0 1.230077-.03043 1.833-.08787l15.36848 45.38503-10.611018-7.78949c-1.72111-1.26303-4.183402-.94881-5.500426.70263-1.31631 1.65111-.989193 4.01442.732274 5.27779l6.071635 4.4572c-7.499836 2.25869-12.955719 8.98961-12.955719 16.92134 0 2.55992.572991 4.99332 1.595323 7.1932l-40.83699 28.46882 4.51444-11.63569c.756148-1.94857-.277231-4.11631-2.308711-4.84151-2.029698-.72554-4.289947.26601-5.045739 2.21492l-2.464074 6.35106c-3.338169-4.62644-8.90523-7.66538-15.200645-7.66538-4.64771 0-8.897034 1.65863-12.147545 4.38676l-40.602163-28.30606 14.777672-.63938c2.165107-.09369 3.840249-1.85352 3.742969-3.93031-.097636-2.07747-1.932062-3.68584-4.096099-3.59147l-7.304919.31593c1.834425-2.75275 2.902725-6.01872 2.902725-9.52129 0-6.51005-3.677759-12.20839-9.142195-15.29178zm-23.707085 48.33433c6.268225 0 11.36823 5.08435 11.36823 11.33333s-5.099624 11.33333-11.36823 11.33333-11.368612-5.08435-11.368612-11.33333 5.100006-11.33333 11.368612-11.33333zm60.611314 82.16666c-6.268225 0-11.368611-5.08435-11.368611-11.33333s5.100005-11.33333 11.368611-11.33333 11.368231 5.08435 11.368231 11.33333-5.100006 11.33333-11.368231 11.33333zm77.035745-38.72222c-6.268225 0-11.368612-5.08426-11.368612-11.33314 0-6.24926 5.100006-11.33353 11.368612-11.33353s11.36823 5.08427 11.36823 11.33353c-.000381 6.24888-5.100005 11.33314-11.36823 11.33314z" fill="url(#a)" fill-rule="evenodd" transform="translate(-746 -1036)"/></svg>