<svg height="142" viewBox="0 0 160 142" width="160" xmlns="http://www.w3.org/2000/svg" xmlns:xlink="http://www.w3.org/1999/xlink"><linearGradient id="a" x1="0%" x2="149.460671%" y1="0%" y2="71.875%"><stop offset="0" stop-color="#00eaf8"/><stop offset="1" stop-color="#6d42ef"/></linearGradient><path d="m617.645391 130.440835.23018.398443 21.089166 36.324358 2.108704-9.566164c.396056-1.796713 2.166562-2.9306 3.954536-2.532609 1.787975.397992 2.916347 2.17715 2.520292 3.973863l-3.363323 15.257758c.293503.633873.389046 1.364636.226439 2.098653-.367992 1.661131-1.928735 2.754997-3.590569 2.588083-.156307.015885-.314959.020642-.474953.013628-.668198.029522-1.332553-.148951-1.896255-.509744l-15.391459-3.369775c-1.80001-.39409-2.937846-2.164196-2.541429-3.953642s2.176973-2.920605 3.976982-2.526515l8.962467 1.962225-20.719949-35.688428c-7.525907 3.13883-15.938921 3.056791-23.27904.007057l-20.691185 35.672798 8.923309-1.953652c1.80001-.39409 3.580566.737069 3.976983 2.526515s-.74142 3.559552-2.54143 3.953642l-15.344227 3.359435c-.573186.369853-1.25075.551976-1.931748.519548-.163973.007776-.326563.003181-.486691-.013092-1.661834.166914-3.222578-.926952-3.590569-2.588083-.162607-.734017-.067065-1.46478.226439-2.098653l-3.363323-15.257758c-.396056-1.796713.732317-3.575871 2.520291-3.973863 1.787975-.397991 3.558481.735896 3.954537 2.532609l2.102897 9.539824 20.517012-35.372513c-1.305681-.918679-2.548616-1.950496-3.713691-3.093498-9.537454-9.356765-11.478939-23.831088-4.733494-35.2895519 2.01485-3.4226188 4.654672-6.3212232 7.713555-8.612174l-5.231788-9.1053633-14.835455-25.5137525-1.819036 8.2520851c-.396056 1.7967122-2.166562 2.9305996-3.954537 2.5326082-1.787974-.3979913-2.916347-2.17715-2.520291-3.9738622l3.363323-15.2577582c-.200872-.4338177-.30902-.9130174-.30515-1.4075833-.008909-1.135131.575729-2.2428952 1.62915-2.8536927.52709-.3056184 1.10421-.4477746 1.67245-.4420756.121707-.0012093.244415.0042349.36768.0166156.342719-.0348304.69672-.0161621 1.051407.062789.321149.0714857.621019.1875307.894596.3402329l15.816663 3.4628685c1.80001.3940905 2.937847 2.1641966 2.54143 3.9536426s-2.176973 2.9206051-3.976983 2.5265146l-10.101871-2.2116833 15.832842 27.2290447 5.208644 9.06512c6.161286-2.7811148 13.27086-3.4972244 20.177603-1.6807573 1.350764.3552498 2.658848.7864392 3.918579 1.2887491l20.651554-35.6352889-8.882953 1.9448157c-1.800009.3940905-3.580565-.7370686-3.976982-2.5265146s.741419-3.5595521 2.541429-3.9536426l15.296219-3.3489234c.582837-.3790906 1.273925-.5648982 1.967978-.5294799.167965-.008569.334508-.0041504.49847.0125129 1.661834-.1669146 3.222577.9269518 3.590569 2.588083.162607.7340168.067064 1.4647794-.226439 2.098653l3.363323 15.2577582c.396055 1.7967122-.732317 3.5758709-2.520292 3.9738622-1.787974.3979914-3.55848-.735896-3.954536-2.5326082l-2.097456-9.5151392-20.414271 35.2258335c6.391525 4.2732364 10.775232 10.7416232 11.988281 18.4172223.013093.082848.025817.165838.03817.248967h37.270222l-7.719658-7.7075967c-1.344013-1.3419133-1.344013-3.5175847 0-4.859498s3.523089-1.3419133 4.867103 0l12.986158 12.9658677c.749481.748309 1.081018 1.75589.994612 2.73358.086406.97769-.245131 1.98527-.994612 2.73358l-12.986158 12.965867c-1.344014 1.341913-3.52309 1.341913-4.867103 0s-1.344013-3.517585 0-4.859498l7.719658-7.707596h-39.922537c-1.786067 0-3.242222-1.334727-3.312295-3.006184-.325212-1.236955-.523573-2.196961-.811517-3.559918-1.71132-8.1003722-8.097825-14.170959-16.720454-16.4387024-10.133299-2.6650482-20.827946 1.6790021-26.074403 10.591141-5.246456 8.9121394-3.736413 20.1699454 3.681607 27.4474294s18.894183 8.759859 27.979801 3.614148c1.583734-.896961 3.608848-.364665 4.523217 1.188917.289929.49261.433371 1.028752.443585 1.559886zm-98.641405-24.667056c-.044915-.933819.28976-1.882446 1.004024-2.595594l12.986158-12.9658677c1.344014-1.3419133 3.52309-1.3419133 4.867103 0s1.344013 3.5175847 0 4.859498l-7.719658 7.7075967h26.505446c2.310211 0 4.183006 1.402402 4.183006 3.132353 0 1.72995-1.872795 3.132353-4.183006 3.132353h-26.505446l7.719658 7.707596c1.344013 1.341913 1.344013 3.517585 0 4.859498s-3.523089 1.341913-4.867103 0l-12.986158-12.965867c-.714264-.713149-1.048939-1.661775-1.004024-2.595595-.002648-.045747-.003986-.091749-.003986-.137985s.001338-.092238.003986-.137986z" fill="url(#a)" transform="translate(-519 -37)"/></svg>