<svg height="160" viewBox="0 0 160 160" width="160" xmlns="http://www.w3.org/2000/svg" xmlns:xlink="http://www.w3.org/1999/xlink"><linearGradient id="a" x1="0%" x2="149.460671%" y1="0%" y2="71.875%"><stop offset="0" stop-color="#00eaf8"/><stop offset="1" stop-color="#6d42ef"/></linearGradient><path d="m626.677822 149.762135 35.239469 35.237865 11.082709-11.088704-35.23878-35.233039c-.754338-.756988-1.108064-1.798019-.96878-2.855596.137215-1.045857.762613-1.982785 1.674162-2.508126l23.533398-13.314535-91-36 37 90 13.312641-23.531205c.526106-.912798 1.463858-1.538795 2.509175-1.67737.137905-.016546.29029-.028266.445432-.028266.89707 0 1.775523.364016 2.410574.998976zm32.546404 41.25357-34.580053-33.997916-14.811533 25.215342c-.608741 1.035242-1.740542 1.678532-2.953877 1.678532-1.549836-.101894-2.699602-.927234-3.179823-2.113279l-41.455158-102.1954973c-.506478-1.2485398-.209363-2.6702992.757298-3.6206296.645361-.6331007 1.504231-.9822571 2.416306-.9822571.434617 0 .859561.0801565 1.264466.2397903l103.94123 40.7595947c1.208498.473467 2.04733 1.601772 2.141302 2.877483.094662 1.294052-.556918 2.501835-1.701157 3.151238l-25.644489 14.566751 34.579362 33.997236c.646744.635139 1.0019 1.478141 1.0019 2.375487 0 .896666-.355156 1.739668-1.001209 2.373448l-15.941262 15.674677c-.646053.634459-1.503541.984295-2.415615.984295-.914838 0-1.773017-.349836-2.417688-.984295zm-109.635384-127.015705c-.910378 0-1.766961-.3551982-2.411122-.9993829l-12.176304-12.1774357c-.646231-.6448744-1.001416-1.5007986-1.001416-2.4118993 0-.9111006.355875-1.7684042 1.000726-2.4139683.644161-.6428053 1.501434-.9973138 2.412501-.9973138.911068 0 1.76834.3545085 2.413191.9986932l12.173546 12.176746c.644851.6455641 1.000036 1.502178 1.000036 2.4132787 0 .9111006-.354496 1.7670248-.999347 2.4112095-.644851.6448744-1.501433 1.0000726-2.411811 1.0000726zm-25.184269 23c-1.877507 0-3.404573-1.5712841-3.404573-3.5028311 0-1.9287159 1.527066-3.4971689 3.404573-3.4971689h17.190854c1.877507 0 3.404573 1.568453 3.404573 3.4971689 0 1.9294236-1.527755 3.5014155-3.40595 3.5028311zm12.007275 33c-.910378 0-1.766961-.355198-2.411812-1.000073-.644851-.644184-1.000036-1.500109-1.000036-2.410519 0-.911101.355185-1.767025.999347-2.41052l12.178373-12.178815c.644851-.645565 1.500054-1.000073 2.411122-1.000073.910378 0 1.766271.355198 2.409742.999383.646231.644874 1.001416 1.501488 1.001416 2.411899s-.355185 1.767025-.999347 2.41052l-12.177683 12.178815c-.644851.644185-1.501434.999383-2.411122.999383zm37.087798-64c-1.929936 0-3.499646-1.526891-3.499646-3.4041821v-17.1916358c0-1.8772911 1.56971-3.4041821 3.499646-3.4041821 1.930644 0 3.500354 1.526891 3.500354 3.4041821v17.1888822c0 1.8786679-1.56971 3.4069357-3.500354 3.4069357zm20.908895 7c-.911911 0-1.767947-.3545471-2.412217-.9974224-1.328547-1.3305863-1.328547-3.4958069.00069-4.8257034l12.179038-12.178762c.64427-.6435651 1.500307-.9981122 2.411527-.9981122.91191 0 1.767947.3545471 2.411527.9981122.644959.6449446 1.000894 1.5030314 1.000894 2.4142312 0 .9105101-.355245 1.7665275-1.000204 2.4100926l-12.176969 12.1808314c-.64358.6421855-1.500996.9967326-2.414286.9967326z" fill="url(#a)" fill-rule="evenodd" transform="translate(-521 -32)"/></svg>