<svg height="143" viewBox="0 0 162 143" width="162" xmlns="http://www.w3.org/2000/svg" xmlns:xlink="http://www.w3.org/1999/xlink"><linearGradient id="a" x1="0%" x2="149.460671%" y1="0%" y2="71.875%"><stop offset="0" stop-color="#00eaf8"/><stop offset="1" stop-color="#6d42ef"/></linearGradient><path d="m598.189189 112.845019v-41.4502373l-35.471199-20.5181083-34.907179 20.5030507v41.5804499l19.36079 12.801465c1.568283 1.036957 1.998052 3.147479.959917 4.713983-1.038134 1.566504-3.151053 1.995786-4.719335.958829l-22.412183-14.819064v-49.1273628l41.69174-24.4880242 40.664948 23.5224024 35.622309-21.0501856c1.058488-.6254893 2.370092-.629877 3.432701-.0114835l38.889478 22.6320401c1.051449.6118991 1.698824 1.7404258 1.698824 2.9614502v45.6291134c0 1.163666-.588417 2.247592-1.562061 2.87748l-21.476618 13.894065c-1.581387 1.023061-3.688638.564124-4.706677-1.025064-1.018039-1.589189-.561355-3.706836 1.020032-4.729897l19.914557-12.883506v-41.7893851l-35.470969-20.6426119-35.718264 21.106888v40.855129l18.457295 12.29846c1.585379 1.05637 2.019834 3.206402.970382 4.802231-1.049452 1.59583-3.185406 2.033148-4.770785.976778l-19.250219-12.826801-18.445501 11.861067c-1.581397 1.016891-3.688662.560722-4.706707-1.018882-1.018046-1.579603-.561359-3.684478 1.020039-4.701369l19.649917-12.635546c.084264-.091208.172686-.177027.264768-.257354zm39 45.150265v-41.823723l-19.362935-12.898422c-1.567498-1.044172-1.995671-3.167283-.956352-4.7421012 1.039319-1.5748177 3.152562-2.0049906 4.72006-.9608179l20.886486 13.9133201c.951491.633825 1.523552 1.704488 1.523552 2.851459v45.617442c0 1.212579-.638852 2.334572-1.679253 2.949212l-38.299459 22.626251c-1.058495.625329-2.370108.629716-3.432724.011481l-38.889729-22.626251c-1.051456-.611743-1.698835-1.739981-1.698835-2.960693v-45.617442c0-1.163368.588421-2.247017 1.562071-2.876744l21.476757-13.8905112c1.581397-1.0227994 3.688662-.5639799 4.706707 1.0248023 1.018046 1.5887819.561359 3.7058869-1.020039 4.7286869l-19.914685 12.880211v41.778695l35.471199 20.637332z" fill="url(#a)" transform="translate(-521 -43)"/></svg>