<?xml version="1.0" encoding="UTF-8"?>
<svg width="86px" height="87px" viewBox="0 0 86 87" version="1.1" xmlns="http://www.w3.org/2000/svg" xmlns:xlink="http://www.w3.org/1999/xlink">
    <!-- Generator: sketchtool 46.2 (44496) - http://www.bohemiancoding.com/sketch -->
    <title>5C40A774-1A5B-429C-B852-6144A492EDCD</title>
    <desc>Created with sketchtool.</desc>
    <defs>
        <linearGradient x1="-757.095493%" y1="-66.9453282%" x2="1051.41268%" y2="200.294318%" id="linearGradient-1">
            <stop stop-color="#00EAF8" offset="0%"></stop>
            <stop stop-color="#6D42EF" offset="100%"></stop>
        </linearGradient>
        <linearGradient x1="0%" y1="0%" x2="149.460671%" y2="71.875%" id="linearGradient-2">
            <stop stop-color="#00EAF8" offset="0%"></stop>
            <stop stop-color="#6D42EF" offset="100%"></stop>
        </linearGradient>
    </defs>
    <g id="Symbols" stroke="none" stroke-width="1" fill="none" fill-rule="evenodd">
        <g id="ic/advertisement">
            <g>
                <circle id="Oval-4" fill="#FFFFFF" cx="43" cy="43" r="43"></circle>
                <polygon id="Fill-7" fill="url(#linearGradient-1)" points="43 44 45 44 45 34 43 34"></polygon>
                <polygon id="Fill-8" fill="url(#linearGradient-1)" points="39 44 41 44 41 36 39 36"></polygon>
                <polygon id="Fill-9" fill="url(#linearGradient-1)" points="35 44 37 44 37 38 35 38"></polygon>
                <path d="M61.7978103,61.7853717 L51.0176864,50.6987501 C53.7673108,47.9717555 55.4707721,44.2123626 55.4707721,40.0662689 C55.4707721,31.7582978 48.6366132,25 40.235386,25 C31.8341589,25 25,31.7582978 25,40.0662689 C25,48.3742401 31.8341589,55.1325379 40.235386,55.1325379 C43.923075,55.1325379 47.3075071,53.8289469 49.9454054,51.6658611 L60.7516471,62.7797455 C60.893844,62.926821 61.0839236,63 61.2747287,63 C61.4561023,63 61.6367505,62.933278 61.7774964,62.7998339 C62.0662432,62.5250538 62.0749492,62.0709134 61.7978103,61.7853717 Z M40.235386,53.6976551 C32.6343794,53.6976551 26.4509891,47.5829022 26.4509891,40.0662689 C26.4509891,32.5496356 32.6343794,26.4348828 40.235386,26.4348828 C47.8363927,26.4348828 54.0197829,32.5496356 54.0197829,40.0662689 C54.0197829,47.5829022 47.8356672,53.6976551 40.235386,53.6976551 Z" id="Shape" stroke="url(#linearGradient-2)" fill="url(#linearGradient-2)" fill-rule="nonzero"></path>
            </g>
        </g>
    </g>
</svg>