<svg height="87" viewBox="0 0 86 87" width="86" xmlns="http://www.w3.org/2000/svg"><g fill="none" fill-rule="evenodd"><circle cx="43" cy="43" fill="#02afde" r="43"/><g fill="#fff"><path d="m44 45h2v-10h-2z"/><path d="m40 45h2v-8h-2z"/><path d="m36 45h2v-6h-2z"/><path d="m61.7978103 61.7853717-10.7801239-11.0866216c2.7496244-2.7269946 4.4530857-6.4863875 4.4530857-10.6324812 0-8.3079711-6.8341589-15.0662689-15.2353861-15.0662689-8.4012271 0-15.235386 6.7582978-15.235386 15.0662689 0 8.3079712 6.8341589 15.066269 15.235386 15.066269 3.687689 0 7.0721211-1.303591 9.7100194-3.4666768l10.8062417 11.1138844c.1421969.1470755.3322765.2202545.5230816.2202545.1813736 0 .3620218-.066722.5027677-.2001661.2887468-.2747801.2974528-.7289205.0203139-1.0144622zm-21.5624243-8.0877166c-7.6010066 0-13.7843969-6.1147529-13.7843969-13.6313862s6.1833903-13.6313861 13.7843969-13.6313861c7.6010067 0 13.7843969 6.1147528 13.7843969 13.6313861s-6.1841157 13.6313862-13.7843969 13.6313862z" fill-rule="nonzero" stroke="#fff"/></g></g></svg>