<?xml version="1.0" encoding="UTF-8"?>
<svg width="86px" height="87px" viewBox="0 0 86 87" version="1.1" xmlns="http://www.w3.org/2000/svg" xmlns:xlink="http://www.w3.org/1999/xlink">
    <!-- Generator: sketchtool 46.2 (44496) - http://www.bohemiancoding.com/sketch -->
    <title>A74163FA-E9EA-4359-AA2D-5F48A4FE508C</title>
    <desc>Created with sketchtool.</desc>
    <defs></defs>
    <g id="Symbols" stroke="none" stroke-width="1" fill="none" fill-rule="evenodd">
        <g id="ic/advertisement">
            <g>
                <circle id="Oval-4" fill="#02AFDE" cx="43" cy="43" r="43"></circle>
                <polygon id="Fill-7" fill="#FFFFFF" points="44 45 46 45 46 35 44 35"></polygon>
                <polygon id="Fill-8" fill="#FFFFFF" points="40 45 42 45 42 37 40 37"></polygon>
                <polygon id="Fill-9" fill="#FFFFFF" points="36 45 38 45 38 39 36 39"></polygon>
                <path d="M61.7978103,61.7853717 L51.0176864,50.6987501 C53.7673108,47.9717555 55.4707721,44.2123626 55.4707721,40.0662689 C55.4707721,31.7582978 48.6366132,25 40.235386,25 C31.8341589,25 25,31.7582978 25,40.0662689 C25,48.3742401 31.8341589,55.1325379 40.235386,55.1325379 C43.923075,55.1325379 47.3075071,53.8289469 49.9454054,51.6658611 L60.7516471,62.7797455 C60.893844,62.926821 61.0839236,63 61.2747287,63 C61.4561023,63 61.6367505,62.933278 61.7774964,62.7998339 C62.0662432,62.5250538 62.0749492,62.0709134 61.7978103,61.7853717 Z M40.235386,53.6976551 C32.6343794,53.6976551 26.4509891,47.5829022 26.4509891,40.0662689 C26.4509891,32.5496356 32.6343794,26.4348828 40.235386,26.4348828 C47.8363927,26.4348828 54.0197829,32.5496356 54.0197829,40.0662689 C54.0197829,47.5829022 47.8356672,53.6976551 40.235386,53.6976551 Z" id="Shape" stroke="#FFFFFF" fill="#FFFFFF" fill-rule="nonzero"></path>
            </g>
        </g>
    </g>
</svg>