<svg height="100" viewBox="0 0 100 100" width="100" xmlns="http://www.w3.org/2000/svg" xmlns:xlink="http://www.w3.org/1999/xlink"><defs><circle id="a" cx="35" cy="35" r="35"/><filter id="b" height="174.3%" width="174.3%" x="-37.1%" y="-31.4%"><feOffset dx="0" dy="4" in="SourceAlpha" result="shadowOffsetOuter1"/><feGaussianBlur in="shadowOffsetOuter1" result="shadowBlurOuter1" stdDeviation="8"/><feColorMatrix in="shadowBlurOuter1" type="matrix" values="0 0 0 0 0.254901961   0 0 0 0 0.458823529   0 0 0 0 0.647058824  0 0 0 0.24 0"/></filter><linearGradient id="c" x1="0%" x2="149.460671%" y1="0%" y2="71.875%"><stop offset="0" stop-color="#00eaf8"/><stop offset="1" stop-color="#6d42ef"/></linearGradient></defs><g fill="none" fill-rule="evenodd" transform="translate(15 15)"><g fill-rule="nonzero"><use fill="#000" filter="url(#b)" xlink:href="#a"/><use fill="#fff" fill-rule="evenodd" xlink:href="#a"/></g><path d="m25.5537165 13.9142814.2535696-.1177634c.8572294-.3985038 1.4064046-1.2837631 1.3990077-2.2555713 0-.9767269-.5491752-1.86435088-1.3989175-2.25963867l-.2536598-.11804718zm-20.68256444-6.99514659c-1.90993557 0-3.46373711 1.62948617-3.46373711 3.63250459v1.9669801c0 2.0030184 1.55380154 3.6325046 3.46373711 3.6325046h3.26889175v-9.23198929zm4.66925258 9.23198929h2.35979386c6.0369587 0 9.8312113 2.1821702 11.9510567 4.0127527l.2950644.2549176v-18.19761567l-.2781057.18775933c-5.9204124 3.9976185-9.5058376 4.51019675-11.9680154 4.51019675h-2.35979386zm3.18960056 11.365919c-.2822552 0-.5428609-.1837866-.6485825-.457149l-3.71216497-9.4333695h-3.49810567c-2.68597938 0-4.87113402-2.2914205-4.87113402-5.1079051v-1.9669801c0-2.81648455 2.18515464-5.10781055 4.87113402-5.10781055h7.03608244c2.4860825 0 6.1577449-.59297897 12.5365851-5.21715557.1199742-.08626524.2606057-.13214095.4058376-.13214095.1131186 0 .2252449.02884967.324201.08333299.2385052.12807362.3798583.37060003.3798583.64982701v6.83302091l.1406314.03329536c1.7006573.40361162 2.9252964 2.02146333 2.9119459 3.8470327 0 1.8522434-1.2008247 3.4350026-2.9200644 3.8504379l-.1399098.0338628v6.8249809c0 .3146033-.1943943.5953437-.4836856.6984458-.0659407.0229851-.1409922.0353763-.216134.0353763-.2203737 0-.4255026-.1102909-.5627062-.3025905-.1021134-.1409377-1.0475644-1.4033236-3.0170361-2.6214419-2.6109278-1.6148248-5.7621907-2.433588-9.3665592-2.433588h-2.00898201l3.49440721 8.8731183c.1449614.3828967-.0239046.8071287-.385451.9632007-.0920103.0363222-.1795103.0541995-.2701675.0541995zm18.0916172-15.2325789c-.3899613 0-.7072165-.332859-.7072165-.7419568 0-.4089086.3172552-.741673.7072165-.741673h3.4567011c.3966366 0 .7072164.3258594.7072164.741673 0 .4090978-.3171649.7419568-.7072164.7419568zm-.4041688-3.22378521c-.2853222 0-.5485438-.18908358-.6550773-.47067529-.1371134-.37816716.0398711-.80523688.3956443-.94948523l3.3489949-1.37778461c.0838917-.03480879.1709407-.05240236.2592525-.05240236.2901031 0 .5471006.18388119.6548067.46849974.1428866.37750504-.0350902.80703408-.396817.95752531l-3.3478221 1.37674413c-.0884923.03102522-.1759923.04757831-.258982.04757831zm3.3485528 7.79398931c-.0992268 0-.1814046-.0148505-.2584407-.0469162l-3.3487242-1.3777846c-.175-.0726445-.3129253-.2123525-.3878866-.3930177-.0748711-.1805706-.0779381-.3808157-.0085696-.5640347.1077062-.2844294.3647036-.468216.6548969-.468216.0883119 0 .1752706.0175936.2584407.0522132l3.3492655 1.3773117c.1763531.0734011.3149098.214528.3895103.3970849.0727964.1780167.075232.3740053.0070361.5517382-.1067139.2825376-.3699356.4716212-.6555284.4716212z" fill="url(#c)" transform="matrix(-1 0 0 1 53 21)"/></g></svg>