<svg enable-background="new 0 0 350 350" viewBox="0 0 350 350" xmlns="http://www.w3.org/2000/svg" xmlns:xlink="http://www.w3.org/1999/xlink"><linearGradient id="a"><stop offset=".002483974" stop-color="#57c8e1"/><stop offset=".1396" stop-color="#58c1de"/><stop offset=".3628" stop-color="#58b2d7"/><stop offset=".6444" stop-color="#579acb"/><stop offset=".9705" stop-color="#577abc"/><stop offset="1" stop-color="#5777bb"/></linearGradient><linearGradient id="b" gradientUnits="userSpaceOnUse" x1="105.5388" x2="161.9765" xlink:href="#a" y1="31.6854" y2="31.6854"/><linearGradient id="c" gradientUnits="userSpaceOnUse" x1="119.7867" x2="146.3821" xlink:href="#a" y1="34.1" y2="34.1"/><linearGradient id="d" gradientUnits="userSpaceOnUse" x1="133.0019" x2="139.6218" xlink:href="#a" y1="18.1191" y2="18.1191"/><linearGradient id="e" gradientUnits="userSpaceOnUse" x1="21" x2="77.4377" xlink:href="#a" y1="31.6854" y2="31.6854"/><linearGradient id="f" gradientUnits="userSpaceOnUse" x1="35.851" x2="62.6109" xlink:href="#a" y1="31.2754" y2="31.2754"/><linearGradient id="g" gradientUnits="userSpaceOnUse" x1="186.0776" x2="242.5153" xlink:href="#a" y1="31.6854" y2="31.6854"/><linearGradient id="h" gradientUnits="userSpaceOnUse" x1="198.9911" x2="229.6018" xlink:href="#a" y1="31.6854" y2="31.6854"/><linearGradient id="i" gradientUnits="userSpaceOnUse" x1="274.6704" x2="331" xlink:href="#a" y1="31.6854" y2="31.6854"/><linearGradient id="j" gradientUnits="userSpaceOnUse" x1="290.3255" x2="315.345" xlink:href="#a" y1="23.8343" y2="23.8343"/><linearGradient id="k" gradientUnits="userSpaceOnUse" x1="290.3579" x2="315.3125" xlink:href="#a" y1="33.6914" y2="33.6914"/><linearGradient id="l" gradientUnits="userSpaceOnUse" x1="290.3579" x2="315.3125" xlink:href="#a" y1="41.3025" y2="41.3025"/><linearGradient id="m" gradientUnits="userSpaceOnUse" x1="123.1098" x2="219.1975" xlink:href="#a" y1="321.7494" y2="321.7494"/><linearGradient id="n" gradientUnits="userSpaceOnUse" x1="123.1098" x2="219.1975" xlink:href="#a" y1="285.9577" y2="285.9577"/><linearGradient id="o" gradientUnits="userSpaceOnUse" x1="122.4964" x2="219.8109" xlink:href="#a" y1="250.166" y2="250.166"/><linearGradient id="p" gradientTransform="matrix(-1 .00955904 .00955904 1 435.9964 23.3106)" gradientUnits="userSpaceOnUse" x1="330.1205" x2="330.1205" xlink:href="#a" y1="251.2642" y2="313.367"/><linearGradient id="q" gradientUnits="userSpaceOnUse" x1="121.3193" x2="184.7877" xlink:href="#a" y1="152.7586" y2="152.7586"/><linearGradient id="r" gradientUnits="userSpaceOnUse" x1="166.9206" x2="210.9976" xlink:href="#a" y1="137.1308" y2="137.1308"/><linearGradient id="s" gradientUnits="userSpaceOnUse" x1="219.0636" x2="209.4467" xlink:href="#a" y1="136.5558" y2="126.9389"/><linearGradient id="t" gradientTransform="matrix(1 0 0 -1 0 328.5)" gradientUnits="userSpaceOnUse" x1="167.4873" x2="211.5643" xlink:href="#a" y1="160.2017" y2="160.2017"/><linearGradient id="u" gradientTransform="matrix(1 0 0 -1 0 328.5)" gradientUnits="userSpaceOnUse" x1="219.6303" x2="210.0134" xlink:href="#a" y1="159.6266" y2="150.0097"/><linearGradient id="v" gradientUnits="userSpaceOnUse" x1="166.9206" x2="217.3885" xlink:href="#a" y1="153.1479" y2="153.1479"/><linearGradient id="w" gradientUnits="userSpaceOnUse" x1="219.0636" x2="209.4467" xlink:href="#a" y1="157.9564" y2="148.3394"/><linearGradient id="x" gradientUnits="userSpaceOnUse" x1="77.2343" x2="77.2343" xlink:href="#a" y1="67.6312" y2="150.3576"/><linearGradient id="y" gradientTransform="matrix(-1 0 0 1 561 0)" gradientUnits="userSpaceOnUse" x1="293.6691" x2="293.6691" xlink:href="#a" y1="67.6312" y2="151.4863"/><linearGradient id="z" gradientUnits="userSpaceOnUse" x1="171.4707" x2="171.4707" xlink:href="#a" y1="192.3871" y2="225.5"/><linearGradient id="A" gradientUnits="userSpaceOnUse" x1="134" x2="134" xlink:href="#a" y1="68" y2="109"/><linearGradient id="B" gradientUnits="userSpaceOnUse" x1="214" x2="214" xlink:href="#a" y1="68" y2="109"/><path d="m133.8 7.5c13.4 0 24.2 10.9 24.2 24.2s-10.9 24.2-24.2 24.2-24.3-10.9-24.3-24.2 10.9-24.2 24.3-24.2m0-4c-15.6 0-28.2 12.6-28.2 28.2s12.6 28.2 28.2 28.2 28.2-12.6 28.2-28.2-12.7-28.2-28.2-28.2z" fill="url(#b)"/><path d="m142 31.3c0 4.8 4.3 6.4 4.4 6.4 0 .1-.7 2.3-2.3 4.5-1.4 1.9-2.8 3.8-5 3.9-2.2 0-2.9-1.3-5.4-1.3s-3.3 1.2-5.4 1.3-3.8-2.1-5.2-4c-2.8-3.9-4.9-11.1-2.1-15.9 1.4-2.4 4-3.9 6.8-4 2.1 0 4.1 1.4 5.4 1.4s3.7-1.7 6.3-1.5c1.1 0 4.1.4 6 3.1-.1.1-3.5 2.1-3.5 6.1" fill="url(#c)"/><path d="m137.9 19.5c1.1-1.3 1.9-3.2 1.7-5.1-1.6.1-3.6 1.1-4.8 2.4-1.1 1.2-2 3.1-1.7 4.9 1.8.2 3.6-.8 4.8-2.2" fill="url(#d)"/><path d="m49.2 7.5c13.4 0 24.2 10.9 24.2 24.2s-10.8 24.2-24.2 24.2-24.2-10.9-24.2-24.2 10.9-24.2 24.2-24.2m0-4c-15.6 0-28.2 12.6-28.2 28.2s12.6 28.2 28.2 28.2 28.2-12.6 28.2-28.2-12.6-28.2-28.2-28.2z" fill="url(#e)"/><path d="m60.8 25.8c-1 0-1.8.8-1.8 1.8v7.3c0 1 .8 1.8 1.8 1.8s1.8-.8 1.8-1.8v-7.3c0-1-.8-1.8-1.8-1.8zm-23.1 0c-1 0-1.8.8-1.8 1.8v7.3c0 1 .8 1.8 1.8 1.8s1.8-.8 1.8-1.8v-7.3c0-1-.8-1.8-1.8-1.8zm3.3 11.8c0 1.5 1.2 2.7 2.7 2.7h.9v3.7c0 1 .8 1.8 1.8 1.8s1.8-.8 1.8-1.8v-3.6h1.8v3.6c0 1 .8 1.8 1.8 1.8s1.8-.8 1.8-1.8v-3.6h.9c1.5 0 2.7-1.2 2.7-2.7v-10h-16.2zm11.6-18.3 1.2-2.2c.1-.1 0-.2-.1-.3s-.2 0-.3.1l-1.2 2.2c-.9-.4-1.9-.5-3-.5-1 0-2 .2-3 .5l-1.2-2.2c-.1-.1-.2-.2-.3-.1s-.2.2-.1.3l1.2 2.2c-2.6 1.2-4.4 3.6-4.8 6.6h16.3c-.3-3-2.1-5.5-4.7-6.6zm-7 5.1c-.7 0-1.3-.6-1.3-1.3s.6-1.3 1.3-1.3 1.3.6 1.3 1.3-.6 1.3-1.3 1.3zm7.3 0c-.7 0-1.3-.6-1.3-1.3s.6-1.3 1.3-1.3 1.3.6 1.3 1.3-.6 1.3-1.3 1.3z" fill="url(#f)"/><path d="m214.3 7.5c13.4 0 24.2 10.9 24.2 24.2s-10.9 24.2-24.2 24.2-24.2-10.9-24.2-24.2 10.8-24.2 24.2-24.2m0-4c-15.6 0-28.2 12.6-28.2 28.2s12.6 28.2 28.2 28.2 28.2-12.6 28.2-28.2-12.6-28.2-28.2-28.2z" fill="url(#g)"/><path d="m207.7 40.2c.4 2.2 1.2 4.3 2.4 6.2-2.9-.8-5.4-2.5-7.3-4.7 1.5-.7 3.2-1.2 4.9-1.5zm-.5-2.2c-.7-4.2-.7-8.5 0-12.7-2-.4-4-1-5.9-1.8-3.2 5-3.2 11.4 0 16.4 2-.9 3.9-1.5 5.9-1.9zm2.9-21c-2.9.8-5.4 2.5-7.3 4.7 1.6.7 3.2 1.2 4.9 1.5.4-2.2 1.2-4.3 2.4-6.2zm8.4 0c1.1 1.9 2 4 2.4 6.2 1.7-.3 3.4-.8 4.9-1.5-1.9-2.2-4.4-3.9-7.3-4.7zm.3 6.6c-1-4.4-2.8-7.2-4.5-7.2s-3.4 2.8-4.5 7.2c1.5.2 3 .3 4.5.3 1.5-.1 3-.2 4.5-.3zm-9.9 8.1c0 2 .2 4 .5 6 1.6-.2 3.3-.3 4.9-.3s3.3.1 4.9.3c.3-2 .5-4 .5-6s-.2-4-.5-6c-1.6.2-3.3.3-4.9.3s-3.3-.1-4.9-.3c-.3 2-.5 4-.5 6zm5.4 15.3c1.7 0 3.4-2.8 4.5-7.2-3-.4-6-.4-9 0 1.1 4.4 2.8 7.2 4.5 7.2zm7.6-15.3c0 2.1-.2 4.3-.5 6.4 2 .4 4 1 5.8 1.8 3.2-5 3.2-11.4 0-16.4-1.9.9-3.8 1.5-5.9 1.8.4 2.1.6 4.3.6 6.4zm4 10c-1.6-.7-3.2-1.2-4.9-1.5-.4 2.2-1.2 4.3-2.4 6.2 2.8-.8 5.3-2.5 7.3-4.7z" fill="url(#h)"/><path d="m302.8 7.5c13.3 0 24.2 10.8 24.2 24.2s-10.8 24.2-24.2 24.2-24.1-10.9-24.1-24.2 10.8-24.2 24.1-24.2m0-4c-15.6 0-28.2 12.6-28.2 28.2s12.6 28.2 28.2 28.2 28.2-12.6 28.2-28.2-12.6-28.2-28.2-28.2z" fill="url(#i)"/><path d="m290.9 28.8h24c.4 0 .6-.4.5-.7l-4.5-9c-.1-.1-.4-.2-.5-.2h-15c-.1 0-.4.1-.4.2l-4.6 9c-.2.4.1.7.5.7z" fill="url(#j)"/><path d="m290.9 31.3c-.1 0-.4 0-.5-.1v3.7c0 .7.5 1.2 1.2 1.2h22.5c.7 0 1.2-.5 1.2-1.2v-3.7c-.1 0-.2 0-.5 0h-24v.1zm20.7 3.8c-.7 0-1.2-.5-1.2-1.2s.5-1.2 1.2-1.2 1.2.5 1.2 1.2c0 .5-.5 1.2-1.2 1.2z" fill="url(#k)"/><path d="m290.9 38.8c-.1 0-.4 0-.5 0v3.7c0 .7.5 1.2 1.2 1.2h22.5c.7 0 1.2-.5 1.2-1.2v-3.7c-.1 0-.2 0-.5 0zm20.7 3.8c-.7 0-1.2-.5-1.2-1.2s.5-1.2 1.2-1.2 1.2.5 1.2 1.2c0 .5-.5 1.2-1.2 1.2z" fill="url(#l)"/><ellipse cx="171.2" cy="321.7" fill="url(#m)" rx="48" ry="22.8"/><path d="m123.1 250.2h96.1v71.6h-96.1z" fill="url(#n)"/><ellipse cx="171.2" cy="250.2" fill="#fff" rx="46.7" ry="22.2" stroke="url(#o)" stroke-miterlimit="10" stroke-width="4"/><path d="m221.7 273c0 12.6-24 22.8-50.6 22.8s-48.9-10.2-48.9-22.8" fill="none" stroke="#fff" stroke-miterlimit="10" stroke-width="4"/><path d="m221.2 298.6c0 12.6-23.5 22.8-50 22.8s-48.9-10.2-48.9-22.8" fill="none" stroke="#fff" stroke-miterlimit="10" stroke-width="4"/><circle cx="207" cy="276.1" fill="#fff" r="3.2"/><circle cx="207" cy="300.5" fill="#fff" r="3.2"/><circle cx="207" cy="324.9" fill="#fff" r="3.2"/><ellipse cx="120" cy="296.5" fill="#fafbfb" rx="25.2" ry="25.2" transform="matrix(1 -.00955904 .00955904 1 -2.8292 1.1603)"/><path d="m75.6 340.9 1.4 1.3c3.9 3.8 10.2 3.8 14-.1l13.1-13.3c3.8-3.9 3.8-10.2-.1-14l-1.4-1.3c-3.9-3.8-10.2-3.8-14 .1l-13.1 13.3c-3.9 3.9-3.8 10.2.1 14z" fill="#fafbfb"/><path d="m89.5 338 11.1-11.3c1.3-1.3 2-3 2-4.8 0-1.4-.4-2.6-1.2-3.7l6-6.1c7.7 6.6 19.4 6.2 26.6-1.2 3.6-3.7 5.6-8.6 5.6-13.8s-2.1-10.1-5.8-13.7c-7.7-7.5-20.1-7.4-27.6.3-3.6 3.7-5.6 8.6-5.6 13.8 0 4.7 1.8 9.2 4.9 12.7l-6 6.1c-1.1-.7-2.4-1.1-3.8-1.1-1.8 0-3.5.7-4.8 2l-11.1 11.3c-1.3 1.3-2 3-2 4.8s.7 3.5 2 4.8 3 2 4.8 2c1.9-.1 3.6-.8 4.9-2.1zm18.8-28.9c-3.2-3.1-5-7.3-5-11.8s1.7-8.7 4.8-11.9c6.5-6.6 17.1-6.7 23.7-.2 3.2 3.1 5 7.3 5 11.8s-1.7 8.7-4.8 11.9c-6.5 6.5-17.1 6.6-23.7.2zm-23.7 28.2c-1.1 0-2.1-.4-2.9-1.2s-1.2-1.8-1.2-2.9.4-2.1 1.2-2.9l11.1-11.3c.8-.8 1.8-1.2 2.9-1.2s2.1.4 2.9 1.2 1.2 1.8 1.2 2.9-.4 2.1-1.2 2.9l-11.1 11.3c-.8.7-1.8 1.2-2.9 1.2z" fill="url(#p)"/><path d="m124.8 283.2 8.8 19.1s-3.3 6.2-8.6 7.8l-11.6-25.5c.1.1 6.7-3.1 11.4-1.4z" fill="#bae5f1" opacity=".35"/><path d="m111.2 285.6s-3 2.2-4.3 4.5l10.4 21.4s2.9.4 5.6-.3z" fill="#bae5f1" opacity=".35"/><path d="m165.9 137.3 1-1.5h14.1l3.9-3.9-8.2-7.8-5.8 3.4-7.3-2.4-1-7.3h-12.6l-1.5 7.3-6.8 2.4-6.3-3.4-8.2 8.2 3.9 5.8-2.9 7.3-6.8 1.5v11.6l6.3 1.9 3.4 7.3-3.9 5.8 8.2 8.2 6.3-3.9 7.8 2.9 1 6.8h11.5l1.5-6.8 7.3-2.9 5.3 3.9 8.7-7.8-3.9-3.9h-14.1l-2.4-1.9s-27.1 8.2-26.2-17c3.5-24.5 27.7-13.8 27.7-13.8z" fill="url(#q)"/><path d="m168.9 142.5h18.6l11.3-10.8h10.2" fill="none" stroke="url(#r)" stroke-linecap="round" stroke-miterlimit="10" stroke-width="4"/><circle cx="214.3" cy="131.7" fill="url(#s)" r="6.8"/><path d="m169.5 162.9h18.5l11.4 10.8h10.2" fill="none" stroke="url(#t)" stroke-linecap="round" stroke-miterlimit="10" stroke-width="4"/><circle cx="214.8" cy="173.7" fill="url(#u)" r="6.8"/><path d="m168.9 153.1h46.5" fill="none" stroke="url(#v)" stroke-linecap="round" stroke-miterlimit="10" stroke-width="4"/><circle cx="214.3" cy="153.1" fill="url(#w)" r="6.8"/><g stroke-miterlimit="10" stroke-width="4"><path d="m48 67.6v17.6l59 63.8" fill="none" stroke="url(#x)" stroke-dasharray="8 4" stroke-linejoin="round"/><path d="m303 67.6v17.6l-72 64.8" fill="none" stroke="url(#y)" stroke-dasharray="8 4" stroke-linejoin="round"/><path d="m171.5 192.4v33.1" fill="none" stroke="url(#z)" stroke-dasharray="8 4" stroke-linejoin="round"/><path d="m134 68v41" fill="none" stroke="url(#A)" stroke-dasharray="8 4" stroke-linejoin="round"/><path d="m214 68v41" fill="none" stroke="url(#B)" stroke-dasharray="8 4" stroke-linejoin="round"/></g></svg>