<?xml version="1.0" encoding="utf-8"?>
<!-- Generator: Adobe Illustrator 21.0.0, SVG Export Plug-In . SVG Version: 6.00 Build 0)  -->
<svg version="1.1" xmlns="http://www.w3.org/2000/svg" xmlns:xlink="http://www.w3.org/1999/xlink" x="0px" y="0px"
	 viewBox="0 0 350 350" style="enable-background:new 0 0 350 350;" xml:space="preserve">
<style type="text/css">
	.st0{fill:none;stroke:url(#SVGID_1_);stroke-width:4;stroke-linejoin:round;stroke-miterlimit:10;stroke-dasharray:8,4;}
	.st1{fill:none;stroke:url(#SVGID_2_);stroke-width:4;stroke-linejoin:round;stroke-miterlimit:10;stroke-dasharray:8,4;}
	.st2{fill:none;stroke:url(#SVGID_3_);stroke-width:4;stroke-linejoin:round;stroke-miterlimit:10;stroke-dasharray:8,4;}
	.st3{fill:none;stroke:url(#SVGID_4_);stroke-width:4;stroke-linejoin:round;stroke-miterlimit:10;stroke-dasharray:8,4;}
	.st4{fill:url(#SVGID_5_);}
	.st5{fill:none;stroke:url(#SVGID_6_);stroke-width:4;stroke-miterlimit:10;stroke-dasharray:8,4;}
	.st6{fill:none;stroke:url(#SVGID_7_);stroke-width:4;stroke-miterlimit:10;stroke-dasharray:8,4;}
	.st7{fill:url(#SVGID_8_);}
	.st8{fill:#FFFFFF;}
	.st9{fill:url(#SVGID_9_);}
	.st10{opacity:0.8;}
	.st11{fill:#CEECF6;}
	.st12{fill:url(#SVGID_10_);}
	.st13{fill:none;stroke:url(#SVGID_11_);stroke-width:4;stroke-miterlimit:10;}
	.st14{fill:url(#SVGID_12_);}
	.st15{fill:url(#SVGID_13_);}
	.st16{fill:url(#SVGID_14_);}
	.st17{opacity:0.6;}
	.st18{fill:none;stroke:url(#SVGID_15_);stroke-width:4;stroke-miterlimit:10;}
	.st19{fill:none;stroke:url(#SVGID_16_);stroke-width:4;stroke-miterlimit:10;}
	.st20{fill:url(#SVGID_17_);}
	.st21{fill:url(#SVGID_18_);}
	.st22{fill:url(#SVGID_19_);}
	.st23{fill:url(#SVGID_20_);}
	.st24{fill:url(#SVGID_21_);}
	.st25{fill:url(#SVGID_22_);}
	.st26{fill:url(#SVGID_23_);}
	.st27{fill:url(#SVGID_24_);}
	.st28{fill:url(#SVGID_25_);}
	.st29{fill:url(#SVGID_26_);}
	.st30{fill:url(#SVGID_27_);}
	.st31{fill:url(#SVGID_28_);}
	.st32{fill:none;stroke:url(#SVGID_29_);stroke-width:4;stroke-miterlimit:10;}
	.st33{fill:url(#SVGID_30_);}
	.st34{fill:#BAE5F1;}
	.st35{fill:url(#SVGID_31_);}
	.st36{fill:url(#SVGID_32_);}
	.st37{fill:#FFFFFF;stroke:url(#SVGID_33_);stroke-width:4;stroke-miterlimit:10;}
	.st38{fill:none;stroke:#FFFFFF;stroke-width:4;stroke-miterlimit:10;}
	.st39{fill:url(#SVGID_34_);}
	.st40{fill:url(#SVGID_35_);}
	.st41{fill:url(#SVGID_36_);}
	.st42{fill:url(#SVGID_37_);}
	.st43{fill:url(#SVGID_38_);}
	.st44{fill:url(#SVGID_39_);}
	.st45{fill:url(#SVGID_40_);}
	.st46{fill:url(#SVGID_41_);}
	.st47{fill:url(#SVGID_42_);}
	.st48{fill:url(#SVGID_43_);}
	.st49{fill:url(#SVGID_44_);}
	.st50{fill:#5777BB;}
	.st51{fill:none;stroke:url(#SVGID_45_);stroke-width:4;stroke-miterlimit:10;}
	.st52{fill:none;stroke:url(#SVGID_46_);stroke-width:4;stroke-miterlimit:10;}
	.st53{fill:none;stroke:url(#SVGID_47_);stroke-width:4;stroke-miterlimit:10;}
	.st54{fill:none;stroke:url(#SVGID_48_);stroke-width:4;stroke-miterlimit:10;}
	.st55{fill:url(#SVGID_49_);}
	.st56{fill:url(#SVGID_50_);}
	.st57{fill:#FFFFFF;stroke:url(#SVGID_51_);stroke-width:4;stroke-miterlimit:10;}
	.st58{fill:#FAFBFB;}
	.st59{fill:url(#SVGID_52_);}
	.st60{opacity:0.35;}
	.st61{fill:url(#SVGID_53_);}
	.st62{fill:url(#SVGID_54_);}
	.st63{fill:url(#SVGID_55_);}
	.st64{fill:url(#SVGID_56_);}
	.st65{fill:url(#SVGID_57_);}
	.st66{fill:url(#SVGID_58_);}
	.st67{fill:url(#SVGID_59_);}
	.st68{fill:url(#SVGID_60_);}
	.st69{fill:url(#SVGID_61_);}
	.st70{fill:url(#SVGID_62_);}
	.st71{fill:url(#SVGID_63_);}
	.st72{fill:url(#SVGID_64_);}
	.st73{fill:url(#SVGID_65_);}
	.st74{fill:url(#SVGID_66_);}
	.st75{fill:#FFFFFF;stroke:url(#SVGID_67_);stroke-width:4;stroke-miterlimit:10;}
	.st76{fill:url(#SVGID_68_);}
	.st77{fill:none;stroke:url(#SVGID_69_);stroke-width:4;stroke-miterlimit:10;}
	.st78{fill:url(#SVGID_70_);}
	.st79{fill:none;stroke:url(#SVGID_71_);stroke-width:4;stroke-linecap:round;stroke-miterlimit:10;}
	.st80{fill:url(#SVGID_72_);}
	.st81{fill:none;stroke:url(#SVGID_73_);stroke-width:4;stroke-linecap:round;stroke-miterlimit:10;}
	.st82{fill:url(#SVGID_74_);}
	.st83{fill:none;stroke:url(#SVGID_75_);stroke-width:4;stroke-linecap:round;stroke-miterlimit:10;}
	.st84{fill:url(#SVGID_76_);}
	.st85{fill:none;stroke:url(#SVGID_77_);stroke-width:4;stroke-linejoin:round;stroke-miterlimit:10;stroke-dasharray:8,4;}
	.st86{fill:none;stroke:url(#SVGID_78_);stroke-width:4;stroke-linejoin:round;stroke-miterlimit:10;stroke-dasharray:8,4;}
	.st87{fill:none;stroke:url(#SVGID_79_);stroke-width:4;stroke-linejoin:round;stroke-miterlimit:10;stroke-dasharray:8,4;}
	.st88{fill:none;stroke:url(#SVGID_80_);stroke-width:4;stroke-linejoin:round;stroke-miterlimit:10;stroke-dasharray:8,4;}
	.st89{fill:none;stroke:url(#SVGID_81_);stroke-width:4;stroke-linejoin:round;stroke-miterlimit:10;stroke-dasharray:8,4;}
	.st90{fill:none;stroke:url(#SVGID_82_);stroke-width:4;stroke-miterlimit:10;}
	.st91{fill:none;stroke:url(#SVGID_83_);stroke-width:4;stroke-miterlimit:10;}
	.st92{clip-path:url(#SVGID_85_);fill:#5796C9;}
	.st93{clip-path:url(#SVGID_85_);fill:#5795C8;}
	.st94{clip-path:url(#SVGID_85_);fill:#5794C8;}
	.st95{clip-path:url(#SVGID_85_);fill:#5793C8;}
	.st96{clip-path:url(#SVGID_85_);fill:#5793C7;}
	.st97{clip-path:url(#SVGID_85_);fill:#5792C7;}
	.st98{clip-path:url(#SVGID_85_);fill:#5791C7;}
	.st99{clip-path:url(#SVGID_85_);fill:#5790C6;}
	.st100{clip-path:url(#SVGID_85_);fill:#578FC5;}
	.st101{clip-path:url(#SVGID_85_);fill:#578EC5;}
	.st102{clip-path:url(#SVGID_85_);fill:#578DC5;}
	.st103{clip-path:url(#SVGID_85_);fill:#578DC4;}
	.st104{clip-path:url(#SVGID_85_);fill:#578CC4;}
	.st105{clip-path:url(#SVGID_85_);fill:#578BC4;}
	.st106{clip-path:url(#SVGID_85_);fill:#578BC3;}
	.st107{clip-path:url(#SVGID_85_);fill:#578AC3;}
	.st108{clip-path:url(#SVGID_85_);fill:#5789C2;}
	.st109{clip-path:url(#SVGID_85_);fill:#5788C2;}
	.st110{clip-path:url(#SVGID_85_);fill:#5787C1;}
	.st111{clip-path:url(#SVGID_85_);fill:#5786C1;}
	.st112{clip-path:url(#SVGID_85_);fill:#5785C1;}
	.st113{clip-path:url(#SVGID_85_);fill:#5785C0;}
	.st114{clip-path:url(#SVGID_85_);fill:#5784C0;}
	.st115{clip-path:url(#SVGID_85_);fill:#5783C0;}
	.st116{clip-path:url(#SVGID_85_);fill:#5782BF;}
	.st117{clip-path:url(#SVGID_85_);fill:#5781BE;}
	.st118{clip-path:url(#SVGID_85_);fill:#5780BE;}
	.st119{clip-path:url(#SVGID_85_);fill:#577FBE;}
	.st120{clip-path:url(#SVGID_85_);fill:#577FBD;}
	.st121{clip-path:url(#SVGID_85_);fill:#577EBD;}
	.st122{clip-path:url(#SVGID_85_);fill:#577DBD;}
	.st123{clip-path:url(#SVGID_85_);fill:#577CBD;}
	.st124{clip-path:url(#SVGID_85_);fill:#58C6E0;}
	.st125{clip-path:url(#SVGID_85_);fill:#58C5E0;}
	.st126{clip-path:url(#SVGID_85_);fill:#58C4E0;}
	.st127{clip-path:url(#SVGID_85_);fill:#58C4DF;}
	.st128{clip-path:url(#SVGID_85_);fill:#58C3DF;}
	.st129{clip-path:url(#SVGID_85_);fill:#58C2DF;}
	.st130{clip-path:url(#SVGID_85_);fill:#58C2DE;}
	.st131{clip-path:url(#SVGID_85_);fill:#58C1DE;}
	.st132{clip-path:url(#SVGID_85_);fill:#58C0DE;}
	.st133{clip-path:url(#SVGID_85_);fill:#58C0DD;}
	.st134{clip-path:url(#SVGID_85_);fill:#58BFDD;}
	.st135{clip-path:url(#SVGID_85_);fill:#58BEDD;}
	.st136{clip-path:url(#SVGID_85_);fill:#58BDDC;}
	.st137{clip-path:url(#SVGID_85_);fill:#58BCDC;}
	.st138{clip-path:url(#SVGID_85_);fill:#58BBDB;}
	.st139{clip-path:url(#SVGID_85_);fill:#58BADB;}
	.st140{clip-path:url(#SVGID_85_);fill:#58B9DB;}
	.st141{clip-path:url(#SVGID_85_);fill:#58B9DA;}
	.st142{clip-path:url(#SVGID_85_);fill:#58B8DA;}
	.st143{clip-path:url(#SVGID_85_);fill:#58B7DA;}
	.st144{clip-path:url(#SVGID_85_);fill:#58B7D9;}
	.st145{clip-path:url(#SVGID_85_);fill:#58B6D9;}
	.st146{clip-path:url(#SVGID_85_);fill:#58B5D8;}
	.st147{clip-path:url(#SVGID_85_);fill:#57C8E1;}
	.st148{clip-path:url(#SVGID_85_);fill:#57C7E1;}
	.st149{clip-path:url(#SVGID_85_);fill:#58C6E1;}
	.st150{clip-path:url(#SVGID_85_);fill:#58B4D8;}
	.st151{clip-path:url(#SVGID_85_);fill:#58B3D8;}
	.st152{clip-path:url(#SVGID_85_);fill:#58B3D7;}
	.st153{clip-path:url(#SVGID_85_);fill:#58B2D7;}
	.st154{clip-path:url(#SVGID_85_);fill:#58B1D7;}
	.st155{clip-path:url(#SVGID_85_);fill:#58B1D6;}
	.st156{clip-path:url(#SVGID_85_);fill:#58B0D6;}
	.st157{clip-path:url(#SVGID_85_);fill:#58AFD6;}
	.st158{clip-path:url(#SVGID_85_);fill:#58AFD5;}
	.st159{clip-path:url(#SVGID_85_);fill:#58AED5;}
	.st160{clip-path:url(#SVGID_85_);fill:#58ADD5;}
	.st161{clip-path:url(#SVGID_85_);fill:#58ACD4;}
	.st162{clip-path:url(#SVGID_85_);fill:#57ABD4;}
	.st163{clip-path:url(#SVGID_85_);fill:#57ABD3;}
	.st164{clip-path:url(#SVGID_85_);fill:#57AAD3;}
	.st165{clip-path:url(#SVGID_85_);fill:#57A9D3;}
	.st166{clip-path:url(#SVGID_85_);fill:#57A9D2;}
	.st167{clip-path:url(#SVGID_85_);fill:#57A8D2;}
	.st168{clip-path:url(#SVGID_85_);fill:#57A7D2;}
	.st169{clip-path:url(#SVGID_85_);fill:#57A6D1;}
	.st170{clip-path:url(#SVGID_85_);fill:#57A5D1;}
	.st171{clip-path:url(#SVGID_85_);fill:#57A4D0;}
	.st172{clip-path:url(#SVGID_85_);fill:#57A3D0;}
	.st173{clip-path:url(#SVGID_85_);fill:#57A2CF;}
	.st174{clip-path:url(#SVGID_85_);fill:#57A1CF;}
	.st175{clip-path:url(#SVGID_85_);fill:#57A0CE;}
	.st176{clip-path:url(#SVGID_85_);fill:#579FCE;}
	.st177{clip-path:url(#SVGID_85_);fill:#579ECD;}
	.st178{clip-path:url(#SVGID_85_);fill:#579DCD;}
	.st179{clip-path:url(#SVGID_85_);fill:#579DCC;}
	.st180{clip-path:url(#SVGID_85_);fill:#579CCC;}
	.st181{clip-path:url(#SVGID_85_);fill:#579BCC;}
	.st182{clip-path:url(#SVGID_85_);fill:#579BCB;}
	.st183{clip-path:url(#SVGID_85_);fill:#579ACB;}
	.st184{clip-path:url(#SVGID_85_);fill:#5799CB;}
	.st185{clip-path:url(#SVGID_85_);fill:#5798CA;}
	.st186{clip-path:url(#SVGID_85_);fill:#5797CA;}
	.st187{clip-path:url(#SVGID_85_);fill:#577CBC;}
	.st188{clip-path:url(#SVGID_85_);fill:#577BBC;}
	.st189{clip-path:url(#SVGID_85_);fill:#577ABC;}
	.st190{clip-path:url(#SVGID_85_);fill:#5779BB;}
	.st191{clip-path:url(#SVGID_85_);fill:#5778BB;}
	.st192{clip-path:url(#SVGID_85_);fill:#5777BB;}
	.st193{fill:url(#SVGID_86_);}
	.st194{fill:none;stroke:url(#SVGID_87_);stroke-width:4;stroke-miterlimit:10;}
	.st195{fill:url(#SVGID_88_);}
	.st196{fill:url(#SVGID_89_);stroke:url(#SVGID_90_);stroke-miterlimit:10;}
	.st197{fill:url(#SVGID_91_);stroke:url(#SVGID_92_);stroke-miterlimit:10;}
	.st198{fill:none;stroke:url(#SVGID_93_);stroke-width:4;stroke-linejoin:round;stroke-miterlimit:10;stroke-dasharray:8,4;}
	.st199{fill:none;stroke:url(#SVGID_94_);stroke-width:4;stroke-linejoin:round;stroke-miterlimit:10;stroke-dasharray:8,4;}
</style>
<g id="Layer_2">
</g>
<g id="Layer_1">
	<g>
		<g>
			<g>
				<linearGradient id="SVGID_1_" gradientUnits="userSpaceOnUse" x1="105.5388" y1="31.6854" x2="161.9765" y2="31.6854">
					<stop  offset="2.483974e-03" style="stop-color:#57C8E1"/>
					<stop  offset="0.1396" style="stop-color:#58C1DE"/>
					<stop  offset="0.3628" style="stop-color:#58B2D7"/>
					<stop  offset="0.6444" style="stop-color:#579ACB"/>
					<stop  offset="0.9705" style="stop-color:#577ABC"/>
					<stop  offset="1" style="stop-color:#5777BB"/>
				</linearGradient>
				<path style="fill:url(#SVGID_1_);" d="M133.8,7.5c13.4,0,24.2,10.9,24.2,24.2s-10.9,24.2-24.2,24.2S109.5,45,109.5,31.7
					S120.4,7.5,133.8,7.5 M133.8,3.5c-15.6,0-28.2,12.6-28.2,28.2s12.6,28.2,28.2,28.2S162,47.3,162,31.7S149.3,3.5,133.8,3.5
					L133.8,3.5z"/>
			</g>
			<g>
				<linearGradient id="SVGID_2_" gradientUnits="userSpaceOnUse" x1="119.7867" y1="34.1" x2="146.3821" y2="34.1">
					<stop  offset="2.483974e-03" style="stop-color:#57C8E1"/>
					<stop  offset="0.1396" style="stop-color:#58C1DE"/>
					<stop  offset="0.3628" style="stop-color:#58B2D7"/>
					<stop  offset="0.6444" style="stop-color:#579ACB"/>
					<stop  offset="0.9705" style="stop-color:#577ABC"/>
					<stop  offset="1" style="stop-color:#5777BB"/>
				</linearGradient>
				<path style="fill:url(#SVGID_2_);" d="M142,31.3c0,4.8,4.3,6.4,4.4,6.4c0,0.1-0.7,2.3-2.3,4.5c-1.4,1.9-2.8,3.8-5,3.9
					c-2.2,0-2.9-1.3-5.4-1.3c-2.5,0-3.3,1.2-5.4,1.3c-2.1,0.1-3.8-2.1-5.2-4c-2.8-3.9-4.9-11.1-2.1-15.9c1.4-2.4,4-3.9,6.8-4
					c2.1,0,4.1,1.4,5.4,1.4c1.3,0,3.7-1.7,6.3-1.5c1.1,0,4.1,0.4,6,3.1C145.4,25.3,142,27.3,142,31.3"/>
				<linearGradient id="SVGID_3_" gradientUnits="userSpaceOnUse" x1="133.0019" y1="18.1191" x2="139.6218" y2="18.1191">
					<stop  offset="2.483974e-03" style="stop-color:#57C8E1"/>
					<stop  offset="0.1396" style="stop-color:#58C1DE"/>
					<stop  offset="0.3628" style="stop-color:#58B2D7"/>
					<stop  offset="0.6444" style="stop-color:#579ACB"/>
					<stop  offset="0.9705" style="stop-color:#577ABC"/>
					<stop  offset="1" style="stop-color:#5777BB"/>
				</linearGradient>
				<path style="fill:url(#SVGID_3_);" d="M137.9,19.5c1.1-1.3,1.9-3.2,1.7-5.1c-1.6,0.1-3.6,1.1-4.8,2.4c-1.1,1.2-2,3.1-1.7,4.9
					C134.9,21.9,136.7,20.9,137.9,19.5"/>
			</g>
		</g>
		<g>
			<g>
				<g>
					<linearGradient id="SVGID_4_" gradientUnits="userSpaceOnUse" x1="21" y1="31.6854" x2="77.4377" y2="31.6854">
						<stop  offset="2.483974e-03" style="stop-color:#57C8E1"/>
						<stop  offset="0.1396" style="stop-color:#58C1DE"/>
						<stop  offset="0.3628" style="stop-color:#58B2D7"/>
						<stop  offset="0.6444" style="stop-color:#579ACB"/>
						<stop  offset="0.9705" style="stop-color:#577ABC"/>
						<stop  offset="1" style="stop-color:#5777BB"/>
					</linearGradient>
					<path style="fill:url(#SVGID_4_);" d="M49.2,7.5c13.4,0,24.2,10.9,24.2,24.2S62.6,55.9,49.2,55.9S25,45,25,31.7
						S35.9,7.5,49.2,7.5 M49.2,3.5C33.6,3.5,21,16.1,21,31.7s12.6,28.2,28.2,28.2s28.2-12.6,28.2-28.2S64.8,3.5,49.2,3.5L49.2,3.5z"
						/>
				</g>
			</g>
			<g>
				<g>
					<linearGradient id="SVGID_5_" gradientUnits="userSpaceOnUse" x1="35.851" y1="31.2754" x2="62.6109" y2="31.2754">
						<stop  offset="2.483974e-03" style="stop-color:#57C8E1"/>
						<stop  offset="0.1396" style="stop-color:#58C1DE"/>
						<stop  offset="0.3628" style="stop-color:#58B2D7"/>
						<stop  offset="0.6444" style="stop-color:#579ACB"/>
						<stop  offset="0.9705" style="stop-color:#577ABC"/>
						<stop  offset="1" style="stop-color:#5777BB"/>
					</linearGradient>
					<path class="st4" d="M60.8,25.8c-1,0-1.8,0.8-1.8,1.8v7.3c0,1,0.8,1.8,1.8,1.8s1.8-0.8,1.8-1.8v-7.3
						C62.6,26.6,61.8,25.8,60.8,25.8z M37.7,25.8c-1,0-1.8,0.8-1.8,1.8v7.3c0,1,0.8,1.8,1.8,1.8s1.8-0.8,1.8-1.8v-7.3
						C39.5,26.6,38.7,25.8,37.7,25.8z M41,37.6c0,1.5,1.2,2.7,2.7,2.7h0.9V44c0,1,0.8,1.8,1.8,1.8s1.8-0.8,1.8-1.8v-3.6h1.8V44
						c0,1,0.8,1.8,1.8,1.8s1.8-0.8,1.8-1.8v-3.6h0.9c1.5,0,2.7-1.2,2.7-2.7v-10H41V37.6z M52.6,19.3l1.2-2.2c0.1-0.1,0-0.2-0.1-0.3
						c-0.1-0.1-0.2,0-0.3,0.1l-1.2,2.2c-0.9-0.4-1.9-0.5-3-0.5c-1,0-2,0.2-3,0.5l-1.2-2.2c-0.1-0.1-0.2-0.2-0.3-0.1
						c-0.1,0.1-0.2,0.2-0.1,0.3l1.2,2.2c-2.6,1.2-4.4,3.6-4.8,6.6h16.3C57,22.9,55.2,20.4,52.6,19.3z M45.6,24.4
						c-0.7,0-1.3-0.6-1.3-1.3s0.6-1.3,1.3-1.3s1.3,0.6,1.3,1.3C46.9,23.8,46.3,24.4,45.6,24.4z M52.9,24.4c-0.7,0-1.3-0.6-1.3-1.3
						s0.6-1.3,1.3-1.3s1.3,0.6,1.3,1.3S53.6,24.4,52.9,24.4z"/>
				</g>
			</g>
		</g>
		<g>
			<g>
				<linearGradient id="SVGID_6_" gradientUnits="userSpaceOnUse" x1="186.0776" y1="31.6854" x2="242.5153" y2="31.6854">
					<stop  offset="2.483974e-03" style="stop-color:#57C8E1"/>
					<stop  offset="0.1396" style="stop-color:#58C1DE"/>
					<stop  offset="0.3628" style="stop-color:#58B2D7"/>
					<stop  offset="0.6444" style="stop-color:#579ACB"/>
					<stop  offset="0.9705" style="stop-color:#577ABC"/>
					<stop  offset="1" style="stop-color:#5777BB"/>
				</linearGradient>
				<path style="fill:url(#SVGID_6_);" d="M214.3,7.5c13.4,0,24.2,10.9,24.2,24.2s-10.9,24.2-24.2,24.2S190.1,45,190.1,31.7
					S200.9,7.5,214.3,7.5 M214.3,3.5c-15.6,0-28.2,12.6-28.2,28.2s12.6,28.2,28.2,28.2s28.2-12.6,28.2-28.2S229.9,3.5,214.3,3.5
					L214.3,3.5z"/>
			</g>
			<g>
				<linearGradient id="SVGID_7_" gradientUnits="userSpaceOnUse" x1="198.9911" y1="31.6854" x2="229.6018" y2="31.6854">
					<stop  offset="2.483974e-03" style="stop-color:#57C8E1"/>
					<stop  offset="0.1396" style="stop-color:#58C1DE"/>
					<stop  offset="0.3628" style="stop-color:#58B2D7"/>
					<stop  offset="0.6444" style="stop-color:#579ACB"/>
					<stop  offset="0.9705" style="stop-color:#577ABC"/>
					<stop  offset="1" style="stop-color:#5777BB"/>
				</linearGradient>
				<path style="fill:url(#SVGID_7_);" d="M207.7,40.2c0.4,2.2,1.2,4.3,2.4,6.2c-2.9-0.8-5.4-2.5-7.3-4.7
					C204.3,41,206,40.5,207.7,40.2z M207.2,38c-0.7-4.2-0.7-8.5,0-12.7c-2-0.4-4-1-5.9-1.8c-3.2,5-3.2,11.4,0,16.4
					C203.3,39,205.2,38.4,207.2,38z M210.1,17c-2.9,0.8-5.4,2.5-7.3,4.7c1.6,0.7,3.2,1.2,4.9,1.5C208.1,21,208.9,18.9,210.1,17
					L210.1,17z M218.5,17c1.1,1.9,2,4,2.4,6.2c1.7-0.3,3.4-0.8,4.9-1.5C223.9,19.5,221.4,17.8,218.5,17L218.5,17z M218.8,23.6
					c-1-4.4-2.8-7.2-4.5-7.2c-1.7,0-3.4,2.8-4.5,7.2c1.5,0.2,3,0.3,4.5,0.3C215.8,23.8,217.3,23.7,218.8,23.6z M208.9,31.7
					c0,2,0.2,4,0.5,6c1.6-0.2,3.3-0.3,4.9-0.3c1.6,0,3.3,0.1,4.9,0.3c0.3-2,0.5-4,0.5-6c0-2-0.2-4-0.5-6c-1.6,0.2-3.3,0.3-4.9,0.3
					c-1.6,0-3.3-0.1-4.9-0.3C209.1,27.7,208.9,29.7,208.9,31.7z M214.3,47c1.7,0,3.4-2.8,4.5-7.2c-3-0.4-6-0.4-9,0
					C210.9,44.2,212.6,47,214.3,47z M221.9,31.7c0,2.1-0.2,4.3-0.5,6.4c2,0.4,4,1,5.8,1.8c3.2-5,3.2-11.4,0-16.4
					c-1.9,0.9-3.8,1.5-5.9,1.8C221.7,27.4,221.9,29.6,221.9,31.7z M225.9,41.7c-1.6-0.7-3.2-1.2-4.9-1.5c-0.4,2.2-1.2,4.3-2.4,6.2
					C221.4,45.6,223.9,43.9,225.9,41.7z"/>
			</g>
		</g>
		<g>
			<g>
				<linearGradient id="SVGID_8_" gradientUnits="userSpaceOnUse" x1="274.6704" y1="31.6854" x2="331" y2="31.6854">
					<stop  offset="2.483974e-03" style="stop-color:#57C8E1"/>
					<stop  offset="0.1396" style="stop-color:#58C1DE"/>
					<stop  offset="0.3628" style="stop-color:#58B2D7"/>
					<stop  offset="0.6444" style="stop-color:#579ACB"/>
					<stop  offset="0.9705" style="stop-color:#577ABC"/>
					<stop  offset="1" style="stop-color:#5777BB"/>
				</linearGradient>
				<path class="st7" d="M302.8,7.5c13.3,0,24.2,10.8,24.2,24.2s-10.8,24.2-24.2,24.2S278.7,45,278.7,31.7S289.5,7.5,302.8,7.5
					 M302.8,3.5c-15.6,0-28.2,12.6-28.2,28.2s12.6,28.2,28.2,28.2c15.6,0,28.2-12.6,28.2-28.2S318.4,3.5,302.8,3.5L302.8,3.5z"/>
			</g>
			<g>
				<linearGradient id="SVGID_9_" gradientUnits="userSpaceOnUse" x1="290.3255" y1="23.8343" x2="315.345" y2="23.8343">
					<stop  offset="2.483974e-03" style="stop-color:#57C8E1"/>
					<stop  offset="0.1396" style="stop-color:#58C1DE"/>
					<stop  offset="0.3628" style="stop-color:#58B2D7"/>
					<stop  offset="0.6444" style="stop-color:#579ACB"/>
					<stop  offset="0.9705" style="stop-color:#577ABC"/>
					<stop  offset="1" style="stop-color:#5777BB"/>
				</linearGradient>
				<path class="st9" d="M290.9,28.8h24c0.4,0,0.6-0.4,0.5-0.7l-4.5-9c-0.1-0.1-0.4-0.2-0.5-0.2h-15c-0.1,0-0.4,0.1-0.4,0.2l-4.6,9
					C290.2,28.5,290.5,28.8,290.9,28.8z"/>
				<linearGradient id="SVGID_10_" gradientUnits="userSpaceOnUse" x1="290.3579" y1="33.6914" x2="315.3125" y2="33.6914">
					<stop  offset="2.483974e-03" style="stop-color:#57C8E1"/>
					<stop  offset="0.1396" style="stop-color:#58C1DE"/>
					<stop  offset="0.3628" style="stop-color:#58B2D7"/>
					<stop  offset="0.6444" style="stop-color:#579ACB"/>
					<stop  offset="0.9705" style="stop-color:#577ABC"/>
					<stop  offset="1" style="stop-color:#5777BB"/>
				</linearGradient>
				<path class="st12" d="M290.9,31.3c-0.1,0-0.4,0-0.5-0.1v3.7c0,0.7,0.5,1.2,1.2,1.2h22.5c0.7,0,1.2-0.5,1.2-1.2v-3.7
					c-0.1,0-0.2,0-0.5,0h-24V31.3z M311.6,35.1c-0.7,0-1.2-0.5-1.2-1.2c0-0.7,0.5-1.2,1.2-1.2c0.7,0,1.2,0.5,1.2,1.2
					C312.8,34.4,312.3,35.1,311.6,35.1z"/>
				<linearGradient id="SVGID_11_" gradientUnits="userSpaceOnUse" x1="290.3579" y1="41.3025" x2="315.3125" y2="41.3025">
					<stop  offset="2.483974e-03" style="stop-color:#57C8E1"/>
					<stop  offset="0.1396" style="stop-color:#58C1DE"/>
					<stop  offset="0.3628" style="stop-color:#58B2D7"/>
					<stop  offset="0.6444" style="stop-color:#579ACB"/>
					<stop  offset="0.9705" style="stop-color:#577ABC"/>
					<stop  offset="1" style="stop-color:#5777BB"/>
				</linearGradient>
				<path style="fill:url(#SVGID_11_);" d="M290.9,38.8c-0.1,0-0.4,0-0.5,0v3.7c0,0.7,0.5,1.2,1.2,1.2h22.5c0.7,0,1.2-0.5,1.2-1.2
					v-3.7c-0.1,0-0.2,0-0.5,0H290.9z M311.6,42.6c-0.7,0-1.2-0.5-1.2-1.2c0-0.7,0.5-1.2,1.2-1.2c0.7,0,1.2,0.5,1.2,1.2
					C312.8,41.9,312.3,42.6,311.6,42.6z"/>
			</g>
		</g>
	</g>
	<g>
		<g>
			<linearGradient id="SVGID_12_" gradientUnits="userSpaceOnUse" x1="123.1098" y1="321.7494" x2="219.1975" y2="321.7494">
				<stop  offset="2.483974e-03" style="stop-color:#57C8E1"/>
				<stop  offset="0.1396" style="stop-color:#58C1DE"/>
				<stop  offset="0.3628" style="stop-color:#58B2D7"/>
				<stop  offset="0.6444" style="stop-color:#579ACB"/>
				<stop  offset="0.9705" style="stop-color:#577ABC"/>
				<stop  offset="1" style="stop-color:#5777BB"/>
			</linearGradient>
			<ellipse class="st14" cx="171.2" cy="321.7" rx="48" ry="22.8"/>
		</g>
		<g>
			<linearGradient id="SVGID_13_" gradientUnits="userSpaceOnUse" x1="123.1098" y1="285.9577" x2="219.1975" y2="285.9577">
				<stop  offset="2.483974e-03" style="stop-color:#57C8E1"/>
				<stop  offset="0.1396" style="stop-color:#58C1DE"/>
				<stop  offset="0.3628" style="stop-color:#58B2D7"/>
				<stop  offset="0.6444" style="stop-color:#579ACB"/>
				<stop  offset="0.9705" style="stop-color:#577ABC"/>
				<stop  offset="1" style="stop-color:#5777BB"/>
			</linearGradient>
			<rect x="123.1" y="250.2" class="st15" width="96.1" height="71.6"/>
		</g>
		<linearGradient id="SVGID_14_" gradientUnits="userSpaceOnUse" x1="122.4964" y1="250.166" x2="219.8109" y2="250.166">
			<stop  offset="2.483974e-03" style="stop-color:#57C8E1"/>
			<stop  offset="0.1396" style="stop-color:#58C1DE"/>
			<stop  offset="0.3628" style="stop-color:#58B2D7"/>
			<stop  offset="0.6444" style="stop-color:#579ACB"/>
			<stop  offset="0.9705" style="stop-color:#577ABC"/>
			<stop  offset="1" style="stop-color:#5777BB"/>
		</linearGradient>
		
			<ellipse style="fill:#FFFFFF;stroke:url(#SVGID_14_);stroke-width:4;stroke-miterlimit:10;" cx="171.2" cy="250.2" rx="46.7" ry="22.2"/>
		<path class="st38" d="M221.7,273c0,12.6-24,22.8-50.6,22.8s-48.9-10.2-48.9-22.8"/>
		<path class="st38" d="M221.2,298.6c0,12.6-23.5,22.8-50,22.8s-48.9-10.2-48.9-22.8"/>
		<circle class="st8" cx="207" cy="276.1" r="3.2"/>
		<circle class="st8" cx="207" cy="300.5" r="3.2"/>
		<circle class="st8" cx="207" cy="324.9" r="3.2"/>
	</g>
	<g>
		
			<ellipse transform="matrix(1 -9.559041e-03 9.559041e-03 1 -2.8292 1.1603)" class="st58" cx="120" cy="296.5" rx="25.2" ry="25.2"/>
		<path class="st58" d="M75.6,340.9l1.4,1.3c3.9,3.8,10.2,3.8,14-0.1l13.1-13.3c3.8-3.9,3.8-10.2-0.1-14l-1.4-1.3
			c-3.9-3.8-10.2-3.8-14,0.1l-13.1,13.3C71.6,330.8,71.7,337.1,75.6,340.9z"/>
		<g>
			<g>
				
					<linearGradient id="SVGID_15_" gradientUnits="userSpaceOnUse" x1="330.1205" y1="251.2642" x2="330.1205" y2="313.367" gradientTransform="matrix(-1 9.559041e-03 9.559041e-03 1 435.9964 23.3106)">
					<stop  offset="2.483974e-03" style="stop-color:#57C8E1"/>
					<stop  offset="0.1396" style="stop-color:#58C1DE"/>
					<stop  offset="0.3628" style="stop-color:#58B2D7"/>
					<stop  offset="0.6444" style="stop-color:#579ACB"/>
					<stop  offset="0.9705" style="stop-color:#577ABC"/>
					<stop  offset="1" style="stop-color:#5777BB"/>
				</linearGradient>
				<path style="fill:url(#SVGID_15_);" d="M89.5,338l11.1-11.3c1.3-1.3,2-3,2-4.8c0-1.4-0.4-2.6-1.2-3.7l6-6.1
					c7.7,6.6,19.4,6.2,26.6-1.2c3.6-3.7,5.6-8.6,5.6-13.8c0-5.2-2.1-10.1-5.8-13.7c-7.7-7.5-20.1-7.4-27.6,0.3
					c-3.6,3.7-5.6,8.6-5.6,13.8c0,4.7,1.8,9.2,4.9,12.7l-6,6.1c-1.1-0.7-2.4-1.1-3.8-1.1c-1.8,0-3.5,0.7-4.8,2l-11.1,11.3
					c-1.3,1.3-2,3-2,4.8s0.7,3.5,2,4.8c1.3,1.3,3,2,4.8,2C86.5,340,88.2,339.3,89.5,338z M108.3,309.1c-3.2-3.1-5-7.3-5-11.8
					s1.7-8.7,4.8-11.9c6.5-6.6,17.1-6.7,23.7-0.2c3.2,3.1,5,7.3,5,11.8c0,4.5-1.7,8.7-4.8,11.9C125.5,315.4,114.9,315.5,108.3,309.1
					z M84.6,337.3c-1.1,0-2.1-0.4-2.9-1.2c-0.8-0.8-1.2-1.8-1.2-2.9c0-1.1,0.4-2.1,1.2-2.9L92.8,319c0.8-0.8,1.8-1.2,2.9-1.2
					c1.1,0,2.1,0.4,2.9,1.2c0.8,0.8,1.2,1.8,1.2,2.9c0,1.1-0.4,2.1-1.2,2.9l-11.1,11.3C86.7,336.8,85.7,337.3,84.6,337.3z"/>
			</g>
		</g>
		<g class="st60">
			<path class="st34" d="M124.8,283.2l8.8,19.1c0,0-3.3,6.2-8.6,7.8l-11.6-25.5C113.5,284.7,120.1,281.5,124.8,283.2z"/>
		</g>
		<g class="st60">
			<path class="st34" d="M111.2,285.6c0,0-3,2.2-4.3,4.5l10.4,21.4c0,0,2.9,0.4,5.6-0.3L111.2,285.6z"/>
		</g>
	</g>
	<g>
		<linearGradient id="SVGID_16_" gradientUnits="userSpaceOnUse" x1="121.3193" y1="152.7586" x2="184.7877" y2="152.7586">
			<stop  offset="2.483974e-03" style="stop-color:#57C8E1"/>
			<stop  offset="0.1396" style="stop-color:#58C1DE"/>
			<stop  offset="0.3628" style="stop-color:#58B2D7"/>
			<stop  offset="0.6444" style="stop-color:#579ACB"/>
			<stop  offset="0.9705" style="stop-color:#577ABC"/>
			<stop  offset="1" style="stop-color:#5777BB"/>
		</linearGradient>
		<path style="fill:url(#SVGID_16_);" d="M165.9,137.3l1-1.5h14.1l3.9-3.9l-8.2-7.8l-5.8,3.4l-7.3-2.4l-1-7.3h-12.6l-1.5,7.3
			l-6.8,2.4l-6.3-3.4l-8.2,8.2l3.9,5.8l-2.9,7.3l-6.8,1.5v11.6l6.3,1.9l3.4,7.3l-3.9,5.8l8.2,8.2l6.3-3.9l7.8,2.9l1,6.8H162l1.5-6.8
			l7.3-2.9l5.3,3.9l8.7-7.8l-3.9-3.9h-14.1l-2.4-1.9c0,0-27.1,8.2-26.2-17C141.7,126.6,165.9,137.3,165.9,137.3z"/>
		<linearGradient id="SVGID_17_" gradientUnits="userSpaceOnUse" x1="166.9206" y1="137.1308" x2="210.9976" y2="137.1308">
			<stop  offset="2.483974e-03" style="stop-color:#57C8E1"/>
			<stop  offset="0.1396" style="stop-color:#58C1DE"/>
			<stop  offset="0.3628" style="stop-color:#58B2D7"/>
			<stop  offset="0.6444" style="stop-color:#579ACB"/>
			<stop  offset="0.9705" style="stop-color:#577ABC"/>
			<stop  offset="1" style="stop-color:#5777BB"/>
		</linearGradient>
		<polyline style="fill:none;stroke:url(#SVGID_17_);stroke-width:4;stroke-linecap:round;stroke-miterlimit:10;" points="
			168.9,142.5 187.5,142.5 198.8,131.7 209,131.7 		"/>
		<linearGradient id="SVGID_18_" gradientUnits="userSpaceOnUse" x1="219.0636" y1="136.5558" x2="209.4467" y2="126.9389">
			<stop  offset="2.483974e-03" style="stop-color:#57C8E1"/>
			<stop  offset="0.1396" style="stop-color:#58C1DE"/>
			<stop  offset="0.3628" style="stop-color:#58B2D7"/>
			<stop  offset="0.6444" style="stop-color:#579ACB"/>
			<stop  offset="0.9705" style="stop-color:#577ABC"/>
			<stop  offset="1" style="stop-color:#5777BB"/>
		</linearGradient>
		<circle class="st21" cx="214.3" cy="131.7" r="6.8"/>
		
			<linearGradient id="SVGID_19_" gradientUnits="userSpaceOnUse" x1="167.4873" y1="160.2017" x2="211.5643" y2="160.2017" gradientTransform="matrix(1 0 0 -1 0 328.5)">
			<stop  offset="2.483974e-03" style="stop-color:#57C8E1"/>
			<stop  offset="0.1396" style="stop-color:#58C1DE"/>
			<stop  offset="0.3628" style="stop-color:#58B2D7"/>
			<stop  offset="0.6444" style="stop-color:#579ACB"/>
			<stop  offset="0.9705" style="stop-color:#577ABC"/>
			<stop  offset="1" style="stop-color:#5777BB"/>
		</linearGradient>
		<polyline style="fill:none;stroke:url(#SVGID_19_);stroke-width:4;stroke-linecap:round;stroke-miterlimit:10;" points="
			169.5,162.9 188,162.9 199.4,173.7 209.6,173.7 		"/>
		
			<linearGradient id="SVGID_20_" gradientUnits="userSpaceOnUse" x1="219.6303" y1="159.6266" x2="210.0134" y2="150.0097" gradientTransform="matrix(1 0 0 -1 0 328.5)">
			<stop  offset="2.483974e-03" style="stop-color:#57C8E1"/>
			<stop  offset="0.1396" style="stop-color:#58C1DE"/>
			<stop  offset="0.3628" style="stop-color:#58B2D7"/>
			<stop  offset="0.6444" style="stop-color:#579ACB"/>
			<stop  offset="0.9705" style="stop-color:#577ABC"/>
			<stop  offset="1" style="stop-color:#5777BB"/>
		</linearGradient>
		<circle class="st23" cx="214.8" cy="173.7" r="6.8"/>
		<linearGradient id="SVGID_21_" gradientUnits="userSpaceOnUse" x1="166.9206" y1="153.1479" x2="217.3885" y2="153.1479">
			<stop  offset="2.483974e-03" style="stop-color:#57C8E1"/>
			<stop  offset="0.1396" style="stop-color:#58C1DE"/>
			<stop  offset="0.3628" style="stop-color:#58B2D7"/>
			<stop  offset="0.6444" style="stop-color:#579ACB"/>
			<stop  offset="0.9705" style="stop-color:#577ABC"/>
			<stop  offset="1" style="stop-color:#5777BB"/>
		</linearGradient>
		
			<line style="fill:none;stroke:url(#SVGID_21_);stroke-width:4;stroke-linecap:round;stroke-miterlimit:10;" x1="168.9" y1="153.1" x2="215.4" y2="153.1"/>
		<linearGradient id="SVGID_22_" gradientUnits="userSpaceOnUse" x1="219.0636" y1="157.9564" x2="209.4467" y2="148.3394">
			<stop  offset="2.483974e-03" style="stop-color:#57C8E1"/>
			<stop  offset="0.1396" style="stop-color:#58C1DE"/>
			<stop  offset="0.3628" style="stop-color:#58B2D7"/>
			<stop  offset="0.6444" style="stop-color:#579ACB"/>
			<stop  offset="0.9705" style="stop-color:#577ABC"/>
			<stop  offset="1" style="stop-color:#5777BB"/>
		</linearGradient>
		<circle class="st25" cx="214.3" cy="153.1" r="6.8"/>
	</g>
	<linearGradient id="SVGID_23_" gradientUnits="userSpaceOnUse" x1="77.2343" y1="67.6312" x2="77.2343" y2="150.3576">
		<stop  offset="2.483974e-03" style="stop-color:#57C8E1"/>
		<stop  offset="0.1396" style="stop-color:#58C1DE"/>
		<stop  offset="0.3628" style="stop-color:#58B2D7"/>
		<stop  offset="0.6444" style="stop-color:#579ACB"/>
		<stop  offset="0.9705" style="stop-color:#577ABC"/>
		<stop  offset="1" style="stop-color:#5777BB"/>
	</linearGradient>
	
		<polyline style="fill:none;stroke:url(#SVGID_23_);stroke-width:4;stroke-linejoin:round;stroke-miterlimit:10;stroke-dasharray:8,4;" points="
		48,67.6 48,85.2 107,149 	"/>
	
		<linearGradient id="SVGID_24_" gradientUnits="userSpaceOnUse" x1="293.6691" y1="67.6312" x2="293.6691" y2="151.4863" gradientTransform="matrix(-1 0 0 1 561 0)">
		<stop  offset="2.483974e-03" style="stop-color:#57C8E1"/>
		<stop  offset="0.1396" style="stop-color:#58C1DE"/>
		<stop  offset="0.3628" style="stop-color:#58B2D7"/>
		<stop  offset="0.6444" style="stop-color:#579ACB"/>
		<stop  offset="0.9705" style="stop-color:#577ABC"/>
		<stop  offset="1" style="stop-color:#5777BB"/>
	</linearGradient>
	
		<polyline style="fill:none;stroke:url(#SVGID_24_);stroke-width:4;stroke-linejoin:round;stroke-miterlimit:10;stroke-dasharray:8,4;" points="
		303,67.6 303,85.2 231,150 	"/>
	<linearGradient id="SVGID_25_" gradientUnits="userSpaceOnUse" x1="171.4707" y1="192.3871" x2="171.4707" y2="225.5">
		<stop  offset="2.483974e-03" style="stop-color:#57C8E1"/>
		<stop  offset="0.1396" style="stop-color:#58C1DE"/>
		<stop  offset="0.3628" style="stop-color:#58B2D7"/>
		<stop  offset="0.6444" style="stop-color:#579ACB"/>
		<stop  offset="0.9705" style="stop-color:#577ABC"/>
		<stop  offset="1" style="stop-color:#5777BB"/>
	</linearGradient>
	
		<line style="fill:none;stroke:url(#SVGID_25_);stroke-width:4;stroke-linejoin:round;stroke-miterlimit:10;stroke-dasharray:8,4;" x1="171.5" y1="192.4" x2="171.5" y2="225.5"/>
	<linearGradient id="SVGID_26_" gradientUnits="userSpaceOnUse" x1="134" y1="68" x2="134" y2="109">
		<stop  offset="2.483974e-03" style="stop-color:#57C8E1"/>
		<stop  offset="0.1396" style="stop-color:#58C1DE"/>
		<stop  offset="0.3628" style="stop-color:#58B2D7"/>
		<stop  offset="0.6444" style="stop-color:#579ACB"/>
		<stop  offset="0.9705" style="stop-color:#577ABC"/>
		<stop  offset="1" style="stop-color:#5777BB"/>
	</linearGradient>
	
		<line style="fill:none;stroke:url(#SVGID_26_);stroke-width:4;stroke-linejoin:round;stroke-miterlimit:10;stroke-dasharray:8,4;" x1="134" y1="68" x2="134" y2="109"/>
	<linearGradient id="SVGID_27_" gradientUnits="userSpaceOnUse" x1="214" y1="68" x2="214" y2="109">
		<stop  offset="2.483974e-03" style="stop-color:#57C8E1"/>
		<stop  offset="0.1396" style="stop-color:#58C1DE"/>
		<stop  offset="0.3628" style="stop-color:#58B2D7"/>
		<stop  offset="0.6444" style="stop-color:#579ACB"/>
		<stop  offset="0.9705" style="stop-color:#577ABC"/>
		<stop  offset="1" style="stop-color:#5777BB"/>
	</linearGradient>
	
		<line style="fill:none;stroke:url(#SVGID_27_);stroke-width:4;stroke-linejoin:round;stroke-miterlimit:10;stroke-dasharray:8,4;" x1="214" y1="68" x2="214" y2="109"/>
</g>
</svg>
