<?xml version="1.0" encoding="UTF-8"?>
<svg width="2012px" height="727px" viewBox="0 0 2012 727" version="1.1" xmlns="http://www.w3.org/2000/svg" xmlns:xlink="http://www.w3.org/1999/xlink">
    <!-- Generator: sketchtool 46.2 (44496) - http://www.bohemiancoding.com/sketch -->
    <title>31F5F69F-416F-4B2C-9D1A-C2EC2EBB470A</title>
    <desc>Created with sketchtool.</desc>
    <defs>
        <linearGradient x1="0%" y1="87.6746272%" x2="70.7128246%" y2="20.7637198%" id="linearGradient-1">
            <stop stop-color="#17EAD9" offset="0%"></stop>
            <stop stop-color="#02AFDE" offset="100%"></stop>
        </linearGradient>
    </defs>
    <g id="Page-1" stroke="none" stroke-width="1" fill="none" fill-rule="evenodd">
        <g id="Home-Page-10/04/2017-screen-Install-Rakam" transform="translate(-1926.000000, 0.000000)" fill="url(#linearGradient-1)">
            <g id="Group-7" transform="translate(0.000000, -734.000000)">
                <path d="M2069.99868,631.562537 L3087.23578,368.121039 L3087.23578,368.121039 C3121.49117,359.249663 3157.8844,369.142268 3182.93481,394.134471 L3904.33153,1113.85487 L3864.19603,1327.3512 L3700.44246,1788.29227 L3700.44246,1788.29227 C3681.95407,1840.33421 3624.77795,1867.53475 3572.736,1849.04637 C3563.96821,1845.93153 3555.67804,1841.60824 3548.10541,1836.20161 L2045.55196,763.424496 L2045.55196,763.424496 C2012.29045,739.676799 2004.57798,693.461707 2028.32568,660.2002 C2038.42325,646.057332 2053.17605,635.91922 2069.99868,631.562537 Z" id="bg-menu" transform="translate(2959.438370, 1109.884254) rotate(-29.000000) translate(-2959.438370, -1109.884254) "></path>
            </g>
        </g>
    </g>
</svg>