<svg height="638" viewBox="0 0 1200 638" width="1200" xmlns="http://www.w3.org/2000/svg" xmlns:xlink="http://www.w3.org/1999/xlink"><defs><linearGradient id="a" x1="-72.292969%" x2="35.692708%" y1="-18.816995%" y2="60.566089%"><stop offset="0" stop-color="#17ead9"/><stop offset="1" stop-color="#02afde"/></linearGradient><path id="b" d="m75.7881785 3.40579866 1054.8810915 339.90486534c41.32056 13.314351 69.33073 51.768187 69.33073 95.180858v127.916573l-1093.486496 71.375859c-55.1111948 3.597309-102.70384078-38.162946-106.30114984-93.274141-.14153184-2.168285-.21235416-4.340606-.21235416-6.513505v-479.3856119c0-32.0325155 25.9674845-57.99999997 58-57.99999997 6.0387456 0 12.0404487.94306315 17.7881785 2.79510253z"/><mask id="c" fill="#fff"><use fill="#fff" fill-rule="evenodd" xlink:href="#b"/></mask></defs><g fill="none" fill-rule="evenodd"><use fill="url(#a)" xlink:href="#b"/><g mask="url(#c)" opacity=".768059" stroke="#fff"><g stroke-width="1.2"><rect height="298" opacity=".171586" rx="18.000001" transform="matrix(-.61290705 -.79015501 .79015501 -.61290705 1491.023186 1498.343671)" width="298" x="885" y="62"/><rect height="298" opacity=".265035" rx="18.000001" transform="matrix(-.66131187 -.75011107 .75011107 -.66131187 1499.683677 1444.648317)" width="298" x="855" y="62"/><rect height="298" opacity=".689213" rx="18.000001" transform="matrix(-.70710678 -.70710678 .70710678 -.70710678 1505.229581 1390.628642)" width="298" x="826" y="62"/><rect height="298" opacity=".042827" rx="18.000001" transform="matrix(-.75011107 -.66131187 .66131187 -.75011107 1504.318157 1335.213148)" width="298" x="796" y="62"/><rect height="298" opacity=".222976" rx="18.000001" transform="matrix(-.79015501 -.61290705 .61290705 -.79015501 1498.668448 1279.532662)" width="298" x="766" y="62"/><rect height="298" opacity=".661485" rx="18.000001" transform="matrix(-.82708057 -.56208338 .56208338 -.82708057 1488.366716 1223.957791)" width="298" x="736" y="62"/><rect height="298" opacity=".17958" rx="18.000001" transform="matrix(-.86074203 -.50904142 .50904142 -.86074203 1473.526694 1168.846978)" width="298" x="706" y="62"/><rect height="298" opacity=".795666" rx="18.000001" transform="matrix(-.89100652 -.4539905 .4539905 -.89100652 1456.179394 1114.998529)" width="298" x="677" y="62"/><rect height="298" opacity=".045495" rx="18.000001" transform="matrix(-.91775463 -.39714789 .39714789 -.91775463 1430.816722 1061.378799)" width="298" x="646" y="62"/><rect height="298" opacity=".126288" rx="18.000001" transform="matrix(-.96029369 -.27899111 .27899111 -.96029369 1373.909029 959.959422)" width="298" x="587" y="62"/><rect height="298" opacity=".335327" rx="18.000001" transform="matrix(-.97591676 -.21814324 .21814324 -.97591676 1338.96901 911.927565)" width="298" x="557" y="62"/><rect height="298" opacity=".252807" rx="18.000001" transform="matrix(-.98768834 -.15643447 .15643447 -.98768834 1302.657334 866.308373)" width="298" x="528" y="62"/><rect height="298" opacity=".280735" rx="18.000001" transform="matrix(-.99556196 -.09410831 .09410831 -.99556196 1259.276175 822.857545)" width="298" x="497" y="62"/></g><rect height="297" rx="18.000001" transform="matrix(-.94088077 -.33873792 .33873792 -.94088077 1405.240968 1009.999089)" width="297" x="617.5" y="62.5"/><rect height="298.591549" opacity=".171586" rx="18.000001" stroke-width="1.2" transform="matrix(-.61290705 -.79015501 .79015501 -.61290705 653.715787 1188.608655)" width="298.431373" x="390.261805" y="111.933049"/><rect height="298.591549" opacity=".265035" rx="18.000001" stroke-width="1.2" transform="matrix(-.66131187 -.75011107 .75011107 -.66131187 636.768085 1169.924052)" width="298.431373" x="361.305136" y="119.152757"/><rect height="298.591549" opacity=".689213" rx="18.000001" stroke-width="1.2" transform="matrix(-.70710678 -.70710678 .70710678 -.70710678 617.154551 1152.112401)" width="298.431373" x="332.348468" y="126.372465"/><rect height="298.591549" opacity=".042827" rx="18.000001" stroke-width="1.2" transform="matrix(-.75011107 -.66131187 .66131187 -.75011107 595.036213 1135.400029)" width="298.431373" x="303.391799" y="133.592174"/><rect height="298.591549" opacity=".222976" rx="18.000001" stroke-width="1.2" transform="matrix(-.79015501 -.61290705 .61290705 -.79015501 570.591604 1119.99625)" width="298.431373" x="274.435131" y="140.811882"/><rect height="298.591549" opacity=".661485" rx="18.000001" stroke-width="1.2" transform="matrix(-.82708057 -.56208338 .56208338 -.82708057 544.015241 1106.092073)" width="298.431373" x="245.478462" y="148.03159"/><rect height="298.591549" opacity=".17958" rx="18.000001" stroke-width="1.2" transform="matrix(-.86074203 -.50904142 .50904142 -.86074203 515.516027 1093.859063)" width="298.431373" x="216.521794" y="155.251299"/><rect height="298.591549" opacity=".795666" rx="18.000001" stroke-width="1.2" transform="matrix(-.89100652 -.4539905 .4539905 -.89100652 485.315554 1083.448307)" width="298.431373" x="187.565125" y="162.471007"/><rect height="298.591549" opacity=".045495" rx="18.000001" stroke-width="1.2" transform="matrix(-.91775463 -.39714789 .39714789 -.91775463 453.646362 1074.989526)" width="298.431373" x="158.608457" y="169.690715"/><rect height="298.591549" opacity=".126288" rx="18.000001" stroke-width="1.2" transform="matrix(-.96029369 -.27899111 .27899111 -.96029369 386.875712 1064.335592)" width="298.431373" x="100.695119" y="184.130132"/><rect height="298.591549" opacity=".335327" rx="18.000001" stroke-width="1.2" transform="matrix(-.97591676 -.21814324 .21814324 -.97591676 352.277444 1062.287032)" width="298.431373" x="71.738451" y="191.34984"/><rect height="298.591549" opacity=".252807" rx="18.000001" stroke-width="1.2" transform="matrix(-.98768834 -.15643447 .15643447 -.98768834 317.213005 1062.482868)" width="298.431373" x="42.781782" y="198.569549"/><rect height="298.591549" opacity=".280735" rx="18.000001" stroke-width="1.2" transform="matrix(-.99556196 -.09410831 .09410831 -.99556196 281.941566 1064.937679)" width="298.431373" x="13.825114" y="205.789257"/><rect height="297.591549" rx="18.000001" transform="matrix(-.94088077 -.33873792 .33873792 -.94088077 420.750108 1068.590325)" width="297.431373" x="130.151788" y="177.410424"/></g></g></svg>