<svg height="86" viewBox="0 0 86 86" width="86" xmlns="http://www.w3.org/2000/svg" xmlns:xlink="http://www.w3.org/1999/xlink"><linearGradient id="a" x1="0%" x2="149.460671%" y1="0%" y2="71.875%"><stop offset="0" stop-color="#00eaf8"/><stop offset="1" stop-color="#6d42ef"/></linearGradient><g fill="none" fill-rule="evenodd"><circle cx="43" cy="43" fill="#fff" r="43"/><path d="m45.3970806 46.0082915c-.3920034.2970847-.6293632.6398746-.686905.9978997-.0971018.2818496-.1402581.9369593-.1402581 1.9310502h-4.3839645c0-1.4130564.0575418-2.4833229.169029-3.184138.1114872-.7122413.4351597-1.3521159.9566321-1.9462852.5322615-.5979781 1.3774064-1.146442 2.528242-1.6682445.546647-.2209091 1.024963-.4151568 1.4169664-.5789342.3955998-.1637774.7444468-.3275549 1.024963-.5065674.298498-.1790125.5214724-.3884953.7048868-.6398746.4639306-.6094044.686905-1.5158934.686905-2.6928057 0-1.5158934-.2229744-2.5290282-.686905-3.0051253-.2805162-.3580251-.6617305-.5941693-1.193992-.68558-.5214723-.102837-1.2803046-.1637774-2.2908821-.1637774-1.1220648.0457053-1.9528242.1218809-2.4707003.239953-.5358578.102837-.9278612.3275548-1.1939919.6855799-.2697271.3999216-.4387561 1.1273981-.5214724 2.155768-.0297125.7707928-.0464457 1.4046627-.0501996 1.9016097h-4.265434c0-2.1443417.1870108-4.0307163.5394542-5.1619231.3452507-1.1159718.8811085-1.9158151 1.6111699-2.4071474.8451449-.5675078 1.7873916-.9255329 2.8123545-1.0588401 1.024963-.1485423 2.3016713-.2209091 3.8193358-.2209091 3.3733869 0 5.6067273.6665361 6.728792 2.0072257.985403 1.1921473 1.4888936 3.1079624 1.4888936 5.7893417 0 1.8434483-.2229744 3.1955643-.6581341 4.0601567-.4351597.8493574-1.0968902 1.5311286-1.9672097 2.0681662-.2805162.1790125-.7732177.4151567-1.4601227.7122414-.6905013.2856583-1.2083774.5218025-1.5464353.6855799-.338058.1637774-.6617305.3884953-.9710176.6855799zm-5.3970806 10.9917085v-5.0380654h5v5.0380654z" fill="url(#a)"/></g></svg>