<svg height="101" viewBox="0 0 100 101" width="100" xmlns="http://www.w3.org/2000/svg" xmlns:xlink="http://www.w3.org/1999/xlink"><defs><circle id="a" cx="50.833333" cy="50.833333" r="35.833333"/><filter id="b" height="172.6%" width="172.6%" x="-36.3%" y="-30.7%"><feOffset dx="0" dy="4" in="SourceAlpha" result="shadowOffsetOuter1"/><feGaussianBlur in="shadowOffsetOuter1" result="shadowBlurOuter1" stdDeviation="8"/><feColorMatrix in="shadowBlurOuter1" type="matrix" values="0 0 0 0 0.254901961   0 0 0 0 0.458823529   0 0 0 0 0.647058824  0 0 0 0.24 0"/></filter><linearGradient id="c" x1="0%" x2="149.460671%" y1="0%" y2="71.875%"><stop offset="0" stop-color="#00eaf8"/><stop offset="1" stop-color="#6d42ef"/></linearGradient></defs><g fill="none" transform="translate(0 -3)"><use fill="#000" filter="url(#b)" xlink:href="#a"/><use fill="#fff" fill-rule="evenodd" xlink:href="#a"/><path d="m62.2960737 55.2018652h4.1933607c.2043467 0 .3893479.0828268.5232624.2167396.1339146.1339127.2167424.3189115.2167424.5232555v6.3898544c.0431538.7377638-.2309836 1.4593873-.7541823 1.982579-.5231987.5231918-1.2448316.7973256-1.9826052.7541724h-27.5691588c-.7457143.0636895-1.4824682-.2047429-2.0126628-.7349305s-.7986306-1.2669318-.7349402-2.0126363v-6.379039c0-.204344.0828278-.3893428.2167424-.5232555.1339145-.1339128.3189157-.2167396.5232624-.2167396h4.1933607v-12.8265811h-2.2200145c-.8839704 0-1.2333414.370194-1.2333414 1.1839921v8.4359438c0 .408688-.3313114.739995-.7400048.739995s-.7400048-.331307-.7400048-.739995v-8.4359438c0-1.6126267.9922179-2.6639822 2.713351-2.6639822h27.5981236c.7416906-.0531433 1.4706677.2182273 1.9972562.7448087.5265884.5265815.7979626 1.255549.7448185 1.9972298v8.3578875c0 .408688-.3313114.739995-.7400048.739995s-.7400048-.331307-.7400048-.739995v-8.3866108l.0026574-.062657c.0270844-.31872-.0878069-.6331571-.3139912-.8593384s-.5406256-.3410711-.9220076-.3113297h-2.2200145zm-1.4800097 0v-12.8265811h-20.2267989v12.8265811h2.7133511c.4086934 0 .7400048.3313071.7400048.7399951s-.3313114.7399951-.7400048.7399951h-2.7133511v3.6999753c0 .408688-.3313114.7399951-.7400048.7399951s-.7400049-.3313071-.7400049-.7399951v-3.6999753h-3.4533559v5.6732955l-.0037844.0747427c-.0321892.3170575.0798909.631785.3052398.857131.2253489.2253459.5400806.3374245.931886.3014514l27.6779474.0017664c.3203022.0221707.6345139-.0954329.8615437-.3224597.2270299-.2270268.344635-.5412344.322464-.8615324l-.0017664-.0510994v-5.6732955h-3.4533559v3.6999753c0 .408688-.3313115.7399951-.7400049.7399951s-.7400048-.3313071-.7400048-.7399951v-3.6999753h-2.7133511c-.4086934 0-.7400048-.3313071-.7400048-.7399951s.3313114-.7399951.7400048-.7399951zm-6.6600435 0c.4086933 0 .7400048.3313071.7400048.7399951s-.3313115.7399951-.7400048.7399951h-6.9067119c-.4086933 0-.7400048-.3313071-.7400048-.7399951s.3313115-.7399951.7400048-.7399951zm-2.468564-4.8862506c-.7078777.4086934-1.613033.1661641-2.021721-.5417042-.408688-.7078684-.1661468-1.6130205.5417309-2.0217139s1.613033-.1661642 2.021721.5417042.1661468 1.6130205-.5417309 2.0217139zm-6.574353-12.6177159c-.0051086.408656-.3405356.7357959-.749197.7306873-.4086615-.0051086-.7358057-.3405311-.730697-.7491872.0185674-1.4852607 1.2279547-2.6795148 2.7132932-2.6793988h9.8667312c1.4985424 0 2.7133511 1.2147926 2.7133511 2.7133152 0 .408688-.3313115.7399951-.7400049.7399951s-.7400048-.3313071-.7400048-.7399951c0-.6811466-.5521858-1.2333251-1.2333414-1.2333251h-9.866789c-.6751801-.0000527-1.2249016.5427901-1.2333414 1.2179086z" fill="url(#c)"/></g></svg>