<svg height="86" viewBox="0 0 86 86" width="86" xmlns="http://www.w3.org/2000/svg"><g fill="none" fill-rule="evenodd"><circle cx="43" cy="43" fill="#02afde" fill-rule="nonzero" r="43"/><path d="m25.7296276 29.0178022c.224718 0 .4447724.0899064.6038541.2467317l8.8275669 8.7032078 2.7762437-2.7387383-8.8273942-8.7020159c-.1889635-.1869644-.2775726-.4440829-.2426817-.7052882.0343727-.2583105.1910363-.4897172.4193816-.6194684l5.8506143-3.3318138-22.5006488-8.8481137 8.9740395 22.1843937 3.3788887-5.7676291c.1317908-.225447.3666998-.3800587.6285541-.4142844.0345455-.0040867.0727182-.0069814.1115818-.0069814m9.4312483 10.9821978c-.2286907 0-.4432179-.0876928-.6043723-.2467317l-8.6443034-8.5222031-3.7025794 6.3206893c-.1521726.2595025-.4350997.420755-.7384086.420755-.0207272 0-.0418-.0008514-.0625272-.0023839-.3248998-.0231577-.6123178-.2300445-.7323632-.5273485l-10.3629386-25.6171818c-.126609-.3129695-.0523363-.6693597.189309-.9075774.1613271-.1586984.376027-.2462209.6040268-.2462209.1086454 0 .2148726.0200927.3160907.0601079l25.9831738 10.2171423c.3020998.1186832.5117906.4015136.5352815.7212942.0236636.3243781-.1392181.6271309-.4252543.7899159l-6.4105957 3.6514241 8.6441306 8.5220329c.1616726.1592092.2504544.3705232.2504544.5954593 0 .2247659-.0887818.4360799-.2502817.5949485l-3.9849882 3.9291462c-.1614999.1590389-.3758543.2467317-.6038542.2467317zm-27.57568363-31.67974558c-.22799985 0-.44252698-.08769275-.60385414-.24673165l-3.04949799-3.0064141c-.16184535-.15920917-.25079984-.37052317-.25079984-.59545934s.08912722-.43659072.25062711-.59597017c.16132717-.15869834.37602702-.24622082.6041996-.24622082s.44287244.08752248.60437233.24656138l3.04880708 3.00624382c.16149989.15937945.25045438.37086372.25045438.59579989s-.08878176.43625017-.25028165.59528907c-.1614999.15920917-.37602703.24690192-.60402688.24690192zm-6.73105647 5.39034588c-.47102696 0-.8541358-.3780154-.8541358-.8427018 0-.4640054.38310884-.8413396.8541358-.8413396h4.31282443c.47102696 0 .8541358.3773342.8541358.8413396 0 .4641756-.38328156.8423612-.85448125.8427018zm3.04989526 8.13879c-.22799985 0-.44252698-.0876927-.60402687-.2469019-.16149989-.1590389-.25045438-.3703529-.25045438-.5951188 0-.2249362.08895449-.4362502.25028165-.5951188l3.05001617-3.0067546c.1614999-.1593795.37568157-.246902.60385415-.246902.22799985 0 .44235425.0876928.60350869.2467317.16184535.1592092.25079984.3706934.25079984.5954593s-.08895449.4362502-.25028165.5951188l-3.04984345 3.0067547c-.16149989.1590389-.37602702.2467316-.60385415.2467316zm9.14828674-15.91301656c-.471027 0-.8541358-.37767481-.8541358-.84202072v-4.25233231c0-.4643459.3831088-.84202071.8541358-.84202071.4711997 0 .8543085.37767481.8543085.84202071v4.25165121c0 .46468645-.3831088.84270182-.8543085.84270182zm5.2055129 1.76071724c-.2283453 0-.4426997-.08752247-.6040269-.24622081-.3326725-.32846471-.3326725-.86296481.0001727-1.19125924l3.0496708-3.0064141c.1613271-.15886862.3756815-.24639109.6038541-.24639109.2283453 0 .4426997.08752247.6038542.24639109.1614999.15920918.2506271.371034.2506271.59597017 0 .2247659-.0889545.43607989-.2504544.59494851l-3.0491526 3.00692493c-.1611544.15852807-.3758542.24605054-.604545.24605054z" fill="#fff" transform="translate(23 23)"/></g></svg>