<svg height="100" viewBox="0 0 100 100" width="100" xmlns="http://www.w3.org/2000/svg" xmlns:xlink="http://www.w3.org/1999/xlink"><defs><circle id="a" cx="58" cy="45" r="35"/><filter id="b" height="174.3%" width="174.3%" x="-37.1%" y="-31.4%"><feOffset dx="0" dy="4" in="SourceAlpha" result="shadowOffsetOuter1"/><feGaussianBlur in="shadowOffsetOuter1" result="shadowBlurOuter1" stdDeviation="8"/><feColorMatrix in="shadowBlurOuter1" type="matrix" values="0 0 0 0 0.254901961   0 0 0 0 0.458823529   0 0 0 0 0.647058824  0 0 0 0.24 0"/></filter><linearGradient id="c" x1="0%" x2="149.460671%" y1="0%" y2="71.875%"><stop offset="0" stop-color="#00eaf8"/><stop offset="1" stop-color="#6d42ef"/></linearGradient></defs><g fill="none" fill-rule="evenodd"><g fill-rule="nonzero"><use fill="#000" filter="url(#b)" xlink:href="#a"/><use fill="#fff" fill-rule="evenodd" xlink:href="#a"/></g><path d="m44.9450991 51.418375c.3925431 0 .7769397.1593103 1.0548276.4371983l15.4202155 15.4217241 4.8496121-4.852931-15.4199138-15.4196121c-.3300862-.3312931-.4848707-.7868965-.4239224-1.2497414.0600431-.4577155.3337069-.8677586.7325862-1.0976724l10.22-5.9038362-39.3046983-15.6784914 15.6760776 39.3098276 5.9023276-10.22c.2302155-.3994827.6405604-.6734483 1.0979741-.7340948.0603449-.0072414.1270259-.0123707.1949138-.0123707m16.4747414 19.46c-.3994827 0-.7742241-.1553879-1.0557327-.4371983l-15.1000862-15.1009914-6.4677587 11.2c-.2658189.4598276-.7600431.7455604-1.2898707.7455604-.0362069 0-.0730172-.0015086-.1092241-.0042241-.5675431-.0410345-1.0696121-.4076294-1.2793103-.9344397l-18.1022414-45.3925862c-.2211638-.554569-.0914224-1.1860776.3306896-1.6081897.2818104-.2812069.6568535-.4362931 1.0551293-.4362931.1897845 0 .3753449.0356035.5521552.1065087l45.3880604 18.1043534c.5277155.2103017.8940086.7114655.9350431 1.2781034.0413362.5747845-.2431897 1.11125-.7428449 1.3996983l-11.1981896 6.4701724 15.0997845 15.1006897c.2824138.2821121.4375.6565517.4375 1.0551293 0 .3982759-.1550862.7727155-.4371983 1.0542241l-6.9610776 6.9622845c-.2821121.2818104-.6565517.4371983-1.0548276.4371983zm-48.1698965-56.1351983c-.3982759 0-.7730173-.1553879-1.0548276-.4371983l-5.32693968-5.32724133c-.28271551-.28211207-.43810344-.65655173-.43810344-1.05512931 0-.39857759.15568965-.77362069.43780172-1.05603448.28181034-.2812069.65685345-.43629311 1.05543103-.43629311.39857759 0 .77362069.15508621 1.05573276.43689655l5.32573281 5.32693968c.282112.2824138.4375.6571552.4375 1.0557327 0 .3985776-.1550863.7730173-.4371983 1.0548276-.2821121.2821121-.6568535.4375-1.0551293.4375zm-11.75797848 9.5514699c-.82280173 0-1.49202586-.6698276-1.49202586-1.4932328 0-.8221983.66922413-1.490819 1.49202586-1.490819h7.53375c.82280172 0 1.49202588.6686207 1.49202588 1.490819 0 .8225-.66952588 1.4926293-1.49262933 1.4932328zm5.32763362 14.4215991c-.39827586 0-.77301724-.1553879-1.05512931-.4375-.28211207-.2818104-.4375-.65625-.4375-1.0545259 0-.3985776.15538793-.7730172.43719827-1.0545258l5.3278448-5.3278449c.2821121-.2824138.65625-.4375 1.0548276-.4375.3982759 0 .7727155.155388 1.0542242.4371983.2827155.2821121.4381034.6568535.4381034 1.0551293 0 .3982759-.1553879.7730173-.4371983 1.0545259l-5.32754308 5.3278448c-.28211206.2818104-.65685344.4371983-1.05482758.4371983zm15.98045686-28.1972069c-.8228017 0-1.4920258-.66922414-1.4920258-1.49202587v-7.5349569c0-.82280172.6692241-1.49202586 1.4920258-1.49202586.8231035 0 1.4923276.66922414 1.4923276 1.49202586v7.53375c0 .82340518-.6692241 1.49323277-1.4923276 1.49323277zm9.0931207 3.1199181c-.3988793 0-.7733189-.1550862-1.0551293-.4362931-.5811207-.5820259-.5811207-1.5291379.0003017-2.1108621l5.3272414-5.32724136c.2818104-.28150862.65625-.43659482 1.0548276-.43659482.3988793 0 .773319.1550862 1.0548276.43659482.2821121.28211207.4378017.6574569.4378017 1.05603449 0 .39827586-.1553879.77271551-.4375 1.05422414l-5.3263362 5.32814653c-.2815086.2809052-.6565517.4359914-1.0560345.4359914z" fill="url(#c)" transform="translate(10 17)"/></g></svg>