<svg height="475" viewBox="0 0 359 475" width="359" xmlns="http://www.w3.org/2000/svg"><g fill="none" fill-rule="evenodd"><path d="m0 0h359v475h-359z" fill="#fff"/><text fill="#02afde" font-family="Menlo-Bold, Menlo" font-size="14" font-weight="bold"><tspan x="45" y="37">Scheduled task</tspan></text><path d="m28.6928135 32.1139433h-3.6957834c-.5506445 0-.9970301-.4438648-.9970301-1 0-.5522847.4530363-1 .9970301-1h3.836424l-1.563032-1.3587229c-.4165096-.3620663-.4629558-.990568-.0980983-1.4102886.3623314-.4168146.9914112-.4631923 1.4102164-.0991305l3.6027646 3.1318355c.2359546.2051122.3531457.4957308.3440755.7854583.0211132.3238931-.1160779.6515301-.39638.8627528l-3.8124542 2.8728904c-.4407515.33213-1.0651757.2468884-1.3998662-.1972609-.3323733-.4410742-.2469445-1.0660496.1962361-1.4000101z" fill="#02afde" transform="matrix(-1 0 0 1 56.531496 0)"/><g transform="translate(24 66)"><text fill="#646782" font-family="Menlo-Regular, Menlo" font-size="12"><tspan x="0" y="11">Name</tspan></text><path d="m.5 22.5h310v23h-310z" stroke="#e0e0e0"/><rect height="33" rx="2" stroke="#44c56e" width="155" x=".5" y="56.5"/><g font-family="Menlo-Regular, Menlo" font-size="12"><text fill="#646782"><tspan x="10" y="39">Facebook Ads</tspan></text><text fill="#44c56e"><tspan x="9" y="78">Login with Facebook</tspan></text></g></g><g transform="translate(14 200)"><path d="m0 0h331v75h-331z" fill="#fafafa"/><text fill="#646782" font-family="Menlo-Bold, Menlo" font-size="10" font-weight="bold"><tspan x="10" y="17">collection</tspan></text><path d="m10.5 28.5h310v23h-310z" stroke="#e0e0e0"/><g font-family="Menlo-Regular, Menlo"><text fill="#646782" font-size="12"><tspan x="20" y="45">facebook_ads</tspan></text><text fill="#9092a7" font-size="8"><tspan x="20" y="62">The collection name for result data</tspan></text></g></g><g transform="translate(14 285)"><path d="m0 0h331v75h-331z" fill="#fafafa"/><text fill="#646782" font-family="Menlo-Bold, Menlo" font-size="10" font-weight="bold"><tspan x="10" y="17">start_date</tspan></text><path d="m10.5 28.5h310v23h-310z" stroke="#e0e0e0"/><g font-family="Menlo-Regular, Menlo"><text fill="#646782" font-size="12"><tspan x="20" y="45">2016-12-01</tspan></text><text fill="#9092a7" font-size="8"><tspan x="20" y="62">The start date for facebook ads data</tspan></text></g></g><text fill="#646782" font-family="Menlo-Regular, Menlo" font-size="12"><tspan x="24" y="380">customize integration</tspan></text><g transform="translate(24 405)"><text fill="#646782" font-family="Menlo-Regular, Menlo" font-size="12"><tspan x="0" y="11">Interval</tspan></text><path d="m.5 22.5h310v23h-310z" stroke="#e0e0e0"/><path d="m246.5 22.5v23" stroke="#e0e0e0" stroke-linecap="square"/><text fill="#646782" font-family="Menlo-Regular, Menlo" font-size="12"><tspan x="10" y="39">24</tspan></text><text fill="#646782" font-family="Menlo-Regular, Menlo" font-size="12"><tspan x="256" y="39">hours</tspan></text><path d="m297 33h6l-3 3z" fill="#d8d8d8"/></g><text fill="#646782" font-family="Menlo-Bold, Menlo" font-size="12" font-weight="bold"><tspan x="24" y="191">Parameters</tspan></text></g></svg>