<svg height="86" viewBox="0 0 86 86" width="86" xmlns="http://www.w3.org/2000/svg"><g fill="none" fill-rule="evenodd"><circle cx="43" cy="43" fill="#02afde" r="43"/><path d="m47 35h6v-5h-6zm-2 2v-9h10v9zm-12-2h6v-5h-6zm-2 2v-9h10v9zm16.0736171 4v4.7139456c0 2.3122433-1.8264312 4.1907029-4.0723165 4.1907029-2.2482002 0-4.0746313-1.8784596-4.0746313-4.1907029v-4.7139456h-5.9265261v4.7139456c0 5.6715672 4.4862149 10.2860544 10.0011574 10.2860544 5.5135536 0 9.9988426-4.6144872 9.9988426-10.2860544v-4.7139456zm-2-2h9.9265261v6.7139456c0 6.7637736-5.3679553 12.2860544-11.9988426 12.2860544-6.6321341 0-12.0011574-5.5221439-12.0011574-12.2860544v-6.7139456h9.9265261v6.7139456c0 1.2200505.9437679 2.1907029 2.0746313 2.1907029 1.1287258 0 2.0723165-.970851 2.0723165-2.1907029z" fill="#fff" fill-rule="nonzero"/></g></svg>