<svg height="86" viewBox="0 0 86 86" width="86" xmlns="http://www.w3.org/2000/svg" xmlns:xlink="http://www.w3.org/1999/xlink"><linearGradient id="a" x1="-4.374895%" x2="139.902138%" y1="-22.663476%" y2="157.338322%"><stop offset="0" stop-color="#00eaf8"/><stop offset="1" stop-color="#6d42ef"/></linearGradient><g fill="none" fill-rule="evenodd"><circle cx="43" cy="43" fill="#fff" r="43"/><g fill="url(#a)" transform="translate(22 23)"><g fill-rule="nonzero"><path d="m9.07939818 18.6273825c2.40971432 5.6808515 7.34331092 9.3726175 12.87139542 9.3726175 5.6136804 0 10.609503-3.8070235 12.9754965-9.6231888.2081071-.5115759-.037903-1.0949942-.5494789-1.3031013s-1.0949942.037903-1.3031013.5494789c-2.0752804 5.1015247-6.3733234 8.3768112-11.1229163 8.3768112-4.6761779 0-8.9179645-3.1740908-11.0301918-8.1536227-.2156686-.5084343-.8026701-.7457678-1.31110442-.5300992-.50843434.2156686-.74576784.8026701-.5300992 1.3111044z"/><path d="m34.9601118 9.65504619c-1.6531803-5.67648661-6.9094218-9.65504619-12.9506963-9.65504619-6.0682817 0-11.342096 4.01396003-12.97107107 9.72573997-.15146963.53110773.15628783 1.08444593.68739554 1.23591563.53110773.1514696 1.08444593-.1562879 1.23591563-.6873956 1.3848837-4.85590694 5.876149-8.27426 11.0477599-8.27426 5.1486347 0 9.6249681 3.38823082 11.0304727 8.2142787.1544278.5302552.709473.8349234 1.2397281.6804956s.8349233-.709473.6804955-1.23972811z"/><path d="m29.5 40c-7.4558441 0-13.5-6.0441559-13.5-13.5s6.0441559-13.5 13.5-13.5 13.5 6.0441559 13.5 13.5-6.0441559 13.5-13.5 13.5zm0-2c6.3512746 0 11.5-5.1487254 11.5-11.5s-5.1487254-11.5-11.5-11.5-11.5 5.1487254-11.5 11.5 5.1487254 11.5 11.5 11.5z"/><path d="m13.5 40c-7.45584412 0-13.5-6.0441559-13.5-13.5s6.04415588-13.5 13.5-13.5c7.4558441 0 13.5 6.0441559 13.5 13.5s-6.0441559 13.5-13.5 13.5zm0-2c6.3512746 0 11.5-5.1487254 11.5-11.5s-5.1487254-11.5-11.5-11.5c-6.35127462 0-11.5 5.1487254-11.5 11.5s5.14872538 11.5 11.5 11.5z"/></g><rect height="2" rx="1" width="10" x="17" y="6"/><rect height="2" rx="1" width="10" x="4" y="27"/><rect height="2" rx="1" width="10" x="29" y="27"/><rect height="2" rx="1" width="4" x="20" y="9"/><rect height="2" rx="1" width="4" x="7" y="30"/><rect height="2" rx="1" width="4" x="32" y="30"/><rect height="2" rx="1" width="3" x="20" y="22"/></g></g></svg>