<svg height="86" viewBox="0 0 86 86" width="86" xmlns="http://www.w3.org/2000/svg" xmlns:xlink="http://www.w3.org/1999/xlink"><linearGradient id="a" x1="0%" x2="149.460671%" y1="0%" y2="71.875%"><stop offset="0" stop-color="#00eaf8"/><stop offset="1" stop-color="#6d42ef"/></linearGradient><g fill="none" fill-rule="evenodd"><circle cx="43" cy="43" fill="#fff" r="43"/><path d="m48.1093925 28.4045343c.180973.0576566.3159034.1716289.4070294.3392352.0901668.1676063.1074328.3456043.0514782.5356698l-7.7725672 28.2061344c-.0562743.1900655-.1637071.3315253-.3235772.4257201-.1598702.0955356-.3232575.1139723-.4895224.0549748l-1.2927101-.3717508c-.180973-.0576566-.3159034-.170288-.4057505-.3378944-.0901667-.1676063-.1074327-.3469451-.0524374-.5356698l7.7735265-28.2061343c.0549953-.1900656.163707-.3328662.3235772-.427061.1585912-.0941947.3222982-.1126314.4895224-.0549749zm-13.1093925 5.3420489c0 .1830523-.0680129.344474-.2065693.4842653l-8.1023884 8.2689901 8.1023884 8.2706043c.1385564.1397912.2065693.301213.2065693.4842652 0 .1814381-.0680129.3428598-.2065693.4842653l-1.0306322 1.0505326c-.1369747.1410827-.2951442.210494-.4745083.210494-.1790478 0-.3359519-.0694113-.4745084-.210494l-9.6075288-9.8054022c-.1369748-.1394684-.206253-.3008901-.206253-.4842652 0-.1814381.0692782-.3428598.206253-.4842652l9.6075288-9.8050794c.1385565-.1397913.2967259-.210494.4745084-.210494.1793641 0 .3375336.0707027.4745083.210494l1.0306322 1.051824c.1385564.1414055.2065693.3028272.2065693.4842652zm27.7949854 8.2691441c.1373092.1401163.2050146.3015405.2050146.4842727 0 .1830551-.0677054.3444793-.2050146.4842727l-9.6100609 9.805553c-.1373092.1410847-.2954995.2101743-.4733054.2101743-.1790714 0-.3375781-.0690896-.4745709-.2101743l-1.030768-1.0505489c-.1382584-.1414076-.2062802-.3028318-.2062802-.4842726 0-.1830551.0680218-.3444793.2062802-.4842727l8.1034564-8.2707315-8.1034564-8.2691172c-.1382584-.1397934-.2062802-.3012176-.2062802-.4842727 0-.1827322.0680218-.3441565.2062802-.4842727l1.030768-1.0518402c.1369928-.1397934.2954995-.2104972.4745709-.2104972.1778059 0 .3359962.0707038.4733054.2104972z" fill="url(#a)"/></g></svg>