<svg height="102" viewBox="0 0 102 102" width="102" xmlns="http://www.w3.org/2000/svg" xmlns:xlink="http://www.w3.org/1999/xlink"><defs><circle id="a" cx="58" cy="45" r="35"/><filter id="b" height="174.3%" width="174.3%" x="-37.1%" y="-31.4%"><feOffset dy="4" in="SourceAlpha" result="shadowOffsetOuter1"/><feGaussianBlur in="shadowOffsetOuter1" result="shadowBlurOuter1" stdDeviation="8"/><feColorMatrix in="shadowBlurOuter1" values="0 0 0 0 0.254901961 0 0 0 0 0.458823529 0 0 0 0 0.647058824 0 0 0 0.24 0"/></filter><linearGradient id="c" x1="0%" x2="149.461%" y1="0%" y2="71.875%"><stop offset="0" stop-color="#00eaf8"/><stop offset="1" stop-color="#6d42ef"/></linearGradient></defs><g fill="none" fill-rule="evenodd" transform="translate(-7 2)"><g fill-rule="nonzero"><use fill="#000" filter="url(#b)" xlink:href="#a"/><use fill="#fff" fill-rule="evenodd" xlink:href="#a"/></g><path d="m78.9818326 52.2973543c-.8119839-.3010225-1.7169288.1047953-2.0214762.9055995l-2.0921951 5.4967552-6.3339016-19.2318209c2.1954217-1.2662638 3.6745298-3.6155053 3.6745298-6.3003727 0-4.022167-3.3168007-7.2944503-7.3938293-7.2944503-.6870852 0-1.351643.0949487-1.9834078.2686696l-7.9708439-5.8364605c-.6963528-.5099096-1.6795733-.3662909-2.1962773.3207156-.516704.6868658-.3711315 1.6568897.3249361 2.1667993l4.5810432 3.3542909h-19.9941931c-.718595-3.2850839-3.6849381-5.7547343-7.2264423-5.7547343-3.8213856 0-6.9750766 2.8750462-7.3551906 6.5479426l-8.4376455 4.5042249c-.7625092.4070837-1.0462401 1.3470054-.6336183 2.0992803s1.3653305 1.0319164 2.1278396.625114l5.6952932-3.0403272-6.6002381 20.0407837c-.2473735-.024757-.498454-.0374168-.7522435-.0374168-4.0771712-.0001407-7.3939719 3.2722833-7.3939719 7.2944502 0 3.1731147 2.06496259 5.8780973 4.938202 6.8792081l3.2593416 9.1223882c.2274125.6363672.8335132 1.0343077 1.4806764 1.0343077.1730901 0 .3494596-.0285549.5218369-.0886188.8176869-.284424 1.2469904-1.1689238.9586969-1.9756359l-1.789216-5.0073827 15.7791486 11.310428c-.422032.9168526-.6589972 1.9335772-.6589972 3.0044577 0 4.022167 3.3168007 7.2944503 7.3938293 7.2944503 2.1184295 0 4.0302629-.8850624 5.379482-2.2981802l9.8217965.6065463c.9217691.0030946 1.6128465-.6283493 1.6650302-1.4491279.0541798-.8536942-.6033917-1.5890893-1.4686998-1.6425419l-6.0685633-.3748715 17.0717641-12.2368458c1.3055902 1.1419162 3.0209506 1.8372219 4.8987078 1.8372219 4.076886 0 7.3936867-3.2722834 7.3936867-7.2944503 0-1.4073505-.4072038-2.7224249-1.1099727-3.8381775l3.4324318-9.0182964c.3051177-.8002416-.1056506-1.6933219-.9173492-1.9939224zm-9.912904-19.1301203c0 2.3140753-1.9084116 4.1968726-4.254111 4.1968726s-4.2541109-1.8827973-4.2541109-4.1968726c0-2.3140752 1.9084115-4.1968725 4.2541109-4.1968725s4.254111 1.8827973 4.254111 4.1968725zm-38.7192961-9.6773105c2.3455568 0 4.2541109 1.8827972 4.2541109 4.1968725 0 2.3142159-1.9084115 4.1970132-4.2541109 4.1970132s-4.2539683-1.8827973-4.2539683-4.1970132c.0001425-2.3140753 1.9084115-4.1968725 4.2539683-4.1968725zm-6.2342394 10.4693936.9002399 4.3338799c.1524163.7330039.8062807 1.2382715 1.536282 1.2381309.1043673 0 .2107308-.0104092.3169517-.0319309.8493394-.1717516 1.3966977-.9902796 1.2227521-1.8282194l-.684091-3.293805c.9022359.387672 1.8968627.6040143 2.9421047.6040143 3.5349456 0 6.8991719-2.7282734 7.6246107-6.004214h19.050476l-4.0352093 3.574231c-.6962102.5099096-.8416402 1.4799335-.3249361 2.1667993.3079693.409475.7817572.6258174 1.2618186.6258174.3250787 0 .6532941-.0993093.9344586-.3051018l2.5604225-1.8747794c0 4.0254023 3.3168007 7.2976856 7.3938293 7.2976856.247516 0 .4921805-.0125192.7334231-.0361508l6.1492627 18.6715533-4.2456988-3.2046236c-.6886535-.5196155-1.6738701-.3903446-2.2008398.289066-.5266845.6792699-.3957975 1.6515444.2929986 2.1713005l2.4293929 1.8337053c-3.000847.9292311-5.1838645 3.6983568-5.1838645 6.9614969 0 1.0531567.229266 2.0542675.6383234 2.9593043l-16.3397668 11.7121664 1.8063254-4.786961c.3025513-.8016482-.110926-1.6934625-.9237653-1.9918124-.8121264-.2984905-1.716501.1094372-2.0189098.9112261l-.9859294 2.6128471c-1.3356742-1.9033343-3.5631761-3.1535623-6.0821083-3.1535623-1.8596497 0-3.5598968.6823645-4.8604967 1.8047283l-16.2458077-11.64521 5.9128678-.263043c.8663062-.0385421 1.5365671-.7625434 1.4976432-1.6169409-.0390665-.8546789-.7730599-1.5163657-1.6389384-1.4775422l-2.9228567.1299742c.7339935-1.1324917 1.1614435-2.4761211 1.1614435-3.9170904 0-2.6782563-1.4715514-5.0225745-3.6579908-6.2910889zm-9.7215638 20.2702078c2.3455568 0 4.2539684 1.8827973 4.2539684 4.1968725 0 2.3140753-1.908269 4.1968726-4.2539684 4.1968726s-4.2541109-1.8827973-4.2541109-4.1968726c0-2.3140752 1.9084115-4.1968725 4.2541109-4.1968725zm24.4901169 32.6728973c-2.3455568 0-4.2541109-1.8827972-4.2541109-4.1968725 0-2.3140752 1.9084115-4.1968725 4.2541109-4.1968725s4.2539684 1.8827973 4.2539684 4.1968725c0 2.3140753-1.9084115 4.1968725-4.2539684 4.1968725zm31.2995175-15.5575177c-2.3455568 0-4.2541109-1.8827973-4.2541109-4.1968726 0-2.3142159 1.9084115-4.1970132 4.2541109-4.1970132s4.2539684 1.8827973 4.2539684 4.1970132c-.0001426 2.3140753-1.9084116 4.1968726-4.2539684 4.1968726z" fill="url(#c)"/></g></svg>