<svg height="86" viewBox="0 0 86 86" width="86" xmlns="http://www.w3.org/2000/svg"><g fill="none" fill-rule="evenodd"><circle cx="43" cy="43" fill="#02afde" fill-rule="nonzero" r="43"/><path d="m69.246835 40.9923204c-.6006455-.2236167-1.2700569.0778478-1.4953385.672731l-1.5476511 4.0833038-4.685352-14.2864955c1.6240107-.9406531 2.7181454-2.6858039 2.7181454-4.6802769 0-2.9878954-2.4535238-5.4187344-5.469408-5.4187344-.5082548 0-.9998455.0705333-1.4671783.1995831l-5.8962408-4.3356564c-.5151102-.3787899-1.242424-.2721018-1.6246434.2382459-.3822194.5102432-.2745357 1.2308323.2403637 1.6096223l3.3887168 2.491759h-14.790225c-.5315634-2.440348-2.7258446-4.2749455-5.3455874-4.2749455-2.8267784 0-5.1596457 2.1357486-5.4408259 4.8641859l-6.2415461 3.3459957c-.5640478.302405-.773931 1.0006325-.4687039 1.5594653s1.0099705.7665665 1.5740184.4643704l4.2129565-2.2585287-4.8823679 14.8874393c-.1829886-.0183909-.3687194-.0277954-.5564541-.0277954-3.0159896-.0001045-5.4695134 2.4308391-5.4695134 5.4187345 0 2.3571709 1.5275066 4.3665865 3.6529165 5.1102688l2.4110199 6.7766313c.1682229.4727299.6165713.7683429 1.0952948.7683429.1280393 0 .2585044-.0212123.3860163-.0658311.6048644-.2112865.9224313-.8683434.7091731-1.4676153l-1.3235296-3.71977 11.6722469 8.4020322c-.312188.6810906-.4874774 1.4363717-.4874774 2.2318829 0 2.9878955 2.4535238 5.4187345 5.469408 5.4187345 1.5670574 0 2.9812903-.6574749 3.9793428-1.7072195l7.2654385.4505772c.6818567.0022988 1.1930646-.4667738 1.2316662-1.0764951.0400782-.6341728-.4463445-1.1804663-1.0864355-1.2201739l-4.4890742-.278476 12.6284283-9.0902283c.965779.8482806 2.2346757 1.3647934 3.6237016 1.3647934 3.0157787 0 5.4693025-2.4308391 5.4693025-5.4187345 0-1.0454604-.3012193-2.0223728-.8210757-2.8512176l2.5390592-6.6993059c.2257035-.5944651-.0781525-1.2578962-.6785872-1.4811994zm-7.4841231-14.413373c0 1.7605495-1.4370538 3.1929824-3.2033899 3.1929824-1.766336 0-3.2033898-1.4324329-3.2033898-3.1929824s1.4370538-3.1929825 3.2033898-3.1929825c1.7663361 0 3.2033899 1.432433 3.2033899 3.1929825zm-28.8305622-6.8421053c1.7662583 0 3.2034435 1.432409 3.2034435 3.192929 0 1.7606269-1.4370778 3.1930359-3.2034435 3.1930359s-3.2033361-1.432409-3.2033361-3.1930359c.0001073-1.76052 1.4370778-3.192929 3.2033361-3.192929zm-3.9614033 7.3476612.6723596 3.2172936c.1138347.5441519.6021845.9192417 1.1473985.9191373.0779486 0 .1573879-.0077273.2367208-.0237042.6343437-.1275013 1.0431477-.7351427.9132334-1.3571946l-.5109251-2.445185c.6738504.2877917 1.4167044.4483953 2.1973614.4483953 2.6401348 0 5.1527649-2.0253576 5.6945712-4.4572808h14.2281748l-3.0137653 2.6533617c-.5199765.3785359-.6285933 1.0986416-.2426841 1.6085424.2300122.3039774.5838688.464581.9424109.464581.2427906 0 .4879239-.0737231.6979165-.226495l1.9122954-1.3917588c0 2.9882925 2.4772095 5.4175007 5.5222082 5.4175007.1848616 0 .3675935-.0092937.5477697-.0268369l4.5926823 13.8609909-3.170973-2.3789803c-.5143327-.3857411-1.2501586-.2897758-1.6437349.2145906-.3933634.504262-.2956082 1.2260385.218831 1.611884l1.8144337 1.3612671c-2.2412341.6898229-3.8716581 2.7455075-3.8716581 5.1679282 0 .7818201.1712313 1.5250034.4767428 2.1968654l-12.2036351 8.6946292 1.3490851-3.5536424c.2259656-.5951106-.082847-1.2571567-.6899299-1.4786394-.6065506-.221587-1.2819983.0812417-1.5078574.6764567l-.7363583 1.9396699c-.9975712-1.4129569-2.6612193-2.3410746-4.5425269-2.3410746-1.3889113 0-2.65877.5065593-3.6301454 1.3397559l-12.1334601-8.6449235 4.4161267-.1952723c.6470157-.0286121 1.1476115-.5660808 1.1185406-1.2003502-.0291775-.6344783-.5773731-1.1256874-1.2240693-1.0968664l-2.1829856.0964875c.5481956-.8407151.8674439-1.8381701.8674439-2.9078864 0-1.9882269-1.0990534-3.728552-2.7320331-4.6702448zm-7.0215402 15.4593563c1.7662583 0 3.2033362 1.432433 3.2033362 3.1929825s-1.4369705 3.1929825-3.2033362 3.1929825-3.2034435-1.432433-3.2034435-3.1929825 1.4370778-3.1929825 3.2034435-3.1929825zm17.3898305 24.631579c-1.7662583 0-3.2034435-1.432433-3.2034435-3.1929825 0-1.7605494 1.4370779-3.1929824 3.2034435-3.1929824 1.7663657 0 3.2033362 1.432433 3.2033362 3.1929824 0 1.7605495-1.4370779 3.1929825-3.2033362 3.1929825zm23.7966102-11.8596491c-1.7662583 0-3.2034435-1.432409-3.2034435-3.192929 0-1.760627 1.4370778-3.1930359 3.2034435-3.1930359s3.2033362 1.4324089 3.2033362 3.1930359c-.0001074 1.76052-1.4370779 3.192929-3.2033362 3.192929z" fill="#fff"/></g></svg>