<?xml version="1.0" encoding="UTF-8"?>
<svg width="86px" height="86px" viewBox="0 0 86 86" version="1.1" xmlns="http://www.w3.org/2000/svg" xmlns:xlink="http://www.w3.org/1999/xlink">
    <!-- Generator: Sketch 46.2 (44496) - http://www.bohemiancoding.com/sketch -->
    <title>ic/explorer2</title>
    <desc>Created with Sketch.</desc>
    <defs></defs>
    <g id="Page-1" stroke="none" stroke-width="1" fill="none" fill-rule="evenodd">
        <g id="Temp-Screen" transform="translate(-105.000000, -2608.000000)">
            <g id="1-copy" transform="translate(93.000000, 2608.000000)">
                <g id="ic/explorer2" transform="translate(12.000000, 0.000000)">
                    <circle id="Oval-4" fill="#02AFDE" cx="43" cy="43" r="43"></circle>
                    <path d="M58.1537403,53.069114 C59.2820759,54.1974496 59.2820759,56.0272339 58.1537403,57.1537642 C57.0271348,58.2820998 55.1974257,58.2820998 54.0690901,57.1537642 L46.999992,50.0846662 C48.6381097,49.0315529 50.0314538,47.6381336 51.0845671,46.0000159 L58.1537403,53.069114 Z M52,39.0001172 C52,45.6270138 46.6270919,51 40.0001953,51 C33.3729081,51 28,45.6270138 28,39.0001172 C28,32.3729081 33.3729081,27 40.0001953,27 C46.6270919,27 52,32.3729081 52,39.0001172 Z M40.0001953,48.0000684 C44.9629458,48.0000684 49.0001465,43.9629458 49.0001465,39.0001172 C49.0001465,34.0370542 44.9629458,29.9998535 40.0001953,29.9998535 C35.0370542,29.9998535 30.9998535,34.0370542 30.9998535,39.0001172 C30.9998535,43.9629458 35.0370542,48.0000684 40.0001953,48.0000684 Z M32.999992,39.0000159 C32.999992,35.1405278 36.1404688,32.0000159 39.999992,32.0000159 L39.999992,34.0000717 C37.2430223,34.0000717 35.0001036,36.2430936 35.0001036,39.0000159 L32.999992,39.0000159 Z" id="Combined-Shape" fill="#FFFFFF"></path>
                </g>
            </g>
        </g>
    </g>
</svg>