<svg height="86" viewBox="0 0 86 86" width="86" xmlns="http://www.w3.org/2000/svg"><g fill="none" fill-rule="evenodd"><circle cx="43" cy="43" fill="#02afde" r="43"/><path d="m58.1537403 53.069114c1.1283356 1.1283356 1.1283356 2.9581199 0 4.0846502-1.1266055 1.1283356-2.9563146 1.1283356-4.0846502 0l-7.0690981-7.069098c1.6381177-1.0531133 3.0314618-2.4465326 4.0845751-4.0846503zm-6.1537403-14.0689968c0 6.6268966-5.3729081 11.9998828-11.9998047 11.9998828-6.6272872 0-12.0001953-5.3729862-12.0001953-11.9998828 0-6.6272091 5.3729081-12.0001172 12.0001953-12.0001172 6.6268966 0 11.9998047 5.3729081 11.9998047 12.0001172zm-11.9998047 8.9999512c4.9627505 0 8.9999512-4.0371226 8.9999512-8.9999512 0-4.963063-4.0372007-9.0002637-8.9999512-9.0002637-4.9631411 0-9.0003418 4.0372007-9.0003418 9.0002637 0 4.9628286 4.0372007 8.9999512 9.0003418 8.9999512zm-7.0002033-9.0000525c0-3.8594881 3.1404768-7 7-7v2.0000558c-2.7569697 0-4.9998884 2.2430219-4.9998884 4.9999442z" fill="#fff"/></g></svg>