<svg height="101" viewBox="0 0 100 101" width="100" xmlns="http://www.w3.org/2000/svg" xmlns:xlink="http://www.w3.org/1999/xlink"><defs><circle id="a" cx="35.833333" cy="35.833333" r="35.833333"/><filter id="b" height="172.6%" width="172.6%" x="-36.3%" y="-30.7%"><feOffset dx="0" dy="4" in="SourceAlpha" result="shadowOffsetOuter1"/><feGaussianBlur in="shadowOffsetOuter1" result="shadowBlurOuter1" stdDeviation="8"/><feColorMatrix in="shadowBlurOuter1" type="matrix" values="0 0 0 0 0.254901961   0 0 0 0 0.458823529   0 0 0 0 0.647058824  0 0 0 0.24 0"/></filter><linearGradient id="c" x1="0%" x2="149.460671%" y1="0%" y2="71.875%"><stop offset="0" stop-color="#00eaf8"/><stop offset="1" stop-color="#6d42ef"/></linearGradient></defs><g fill="none" fill-rule="nonzero" transform="translate(15 12)"><g><use fill="#000" filter="url(#b)" xlink:href="#a"/><use fill="#fff" fill-rule="evenodd" xlink:href="#a"/></g><path d="m12.9995718 21.1151667.0460421-.0813673c.5677703-1.2417763 1.767527-2.0682427 3.1219618-2.1470957 1.3683824-.079665 2.6667693.6170268 3.367219 1.8067912.7004498 1.1897644.686317 2.6744707-.0229791 3.8273351-.805393 1.4122052-1.0085098 3.0941078-.5628174 4.6603923.4456924 1.5662846 1.5019979 2.88272 2.9391189 3.6544022 1.5429792.8631452 3.3724878 1.0374402 5.0480911.4809252.422418-.140297.8774794.0917799 1.0164081.5183581s-.0908848.8861213-.5133028 1.0264182c-2.1016041.6980019-4.3962421.4793947-6.3193076-.5965097-1.8103865-.97194-3.1524375-2.6444896-3.7186959-4.634476s-.3081956-4.1268672.7287399-5.9441761c.4058772-.6601807.4138113-1.4937001.0205764-2.161638-.393235-.6679379-1.1221539-1.0590631-1.8903686-1.0143389s-1.4477949.51785-1.7624143 1.226998l-.0357094.0709597-.065881.1164162c-2.0985662 3.6773185-6.80747045 4.7731245-10.62256595 2.632734-1.5686727-.8668156-2.78955673-2.2581179-3.45300779-3.9349992-.16498618-.4170047.03601843-.8901188.44895636-1.0567298.41293793-.1666111.88143799.0363731 1.04642416.4533779.52465377 1.3260693 1.49012273 2.4263042 2.73514452 3.1142961 3.07695232 1.7262532 6.8069002.8582594 8.4483675-2.0180735zm18.579952 10.4689796c-.2309723.3837291-.7262525.5057189-1.1062393.2724718s-.5007868-.7334051-.2698145-1.1171341l.1558158-.2583433c.8042611-1.417499 1.0066012-3.1032298.5609921-4.6737217s-1.5012788-2.8922114-2.9354227-3.6691966c-.9511612-.5303383-2.0218602-.8035469-3.0965183-.7933464-2.0616609.0502743-3.775948-1.5914059-3.8358451-3.6875097-.0109797-.9905464.3681772-1.9449209 1.0540482-2.6531405.6858709-.7082195 1.6222634-1.1122607 2.6086232-1.1232682 1.1095408-.0047875 2.1984392-.3033276 3.1638211-.8691868 1.4040707-.8074202 2.4256142-2.1533805 2.8327789-3.73239909.4071646-1.57901856.1654186-3.25717776-.6653424-4.6453101-1.7967753-2.92251301-5.5681079-3.87409944-8.5204994-2.14526941-1.4041281.80719917-2.4254329 2.15340043-2.8317483 3.73258103-.4063155 1.57918059-.1631204 3.25717144.6750197 4.65372567.5085958.8507537.6565956 1.8724624.4106187 2.8346834-.245977.9622211-.8652143 1.7839152-1.71561 2.2783308-1.6475482.9656414-3.8695502.3574855-4.9976207-1.1130218-.0653989-.0801321-.1878925-.2255112-.3533573-.4140025-.2763194-.314773-.5679985-.6293545-.8600034-.920999-.2072241-.2069683-.4068287-.3944149-.5951077-.557442-.2691384-.2330417-.507005-.4088327-.7015869-.5173939-2.96061782-1.6767217-6.70552769-.6523087-8.41288079 2.2856378-.24624586.450501-.43354478.9313744-.5572026 1.4305683-.10791294.4356334-.54510025.7004418-.97648519.5914661-.43138495-.1089757-.69361082-.5504687-.58569788-.9861021.15747491-.63571.39599504-1.2480893.72003909-1.8403405 2.16168813-3.7204494 6.87427497-5.0095687 10.59537817-2.9021329.3001925.1674537.6211737.4046692.966625.7037886.2194237.1899947.44647.4032116.6792869.6357411.3194902.3190958.6345359.6588787.9326421.9984703.1042684.1187787.1991457.2292485.2829696.3287332.0510599.0605995.087636.104748.1231217.1488032.6765171.8815224 2.0279128 1.2513956 2.9339797.7203482.4776854-.277727.8245309-.7379721.9623068-1.2769287.137776-.5389567.0548787-1.1112334-.2292762-1.5865559-1.0627369-1.77078667-1.3713656-3.90025488-.8557277-5.90432711.515638-2.00407223 1.8117334-3.71248011 3.5880906-4.73363509 3.6998508-2.16655676 8.4348971-.97180515 10.6958428 2.70580615 1.0604641 1.77180365 1.3671956 3.90108091.8505781 5.90456682-.5166176 2.00348593-1.8127695 3.71126353-3.5884982 4.73237603-1.2031551.7052704-2.5684237 1.079582-3.9541017 1.0855422-.5537958.0061907-1.0824702.2343069-1.4697036.634158s-.6013002.9386779-.5953872 1.4835249c.0339903 1.1869876 1.0114778 2.1230746 2.1988425 2.0942077 1.3638573-.0130564 2.7079263.3299076 3.8933796.9909479 1.8088085.9798845 3.1482604 2.6569048 3.7136569 4.649572s.3086638 4.1315514-.7223804 5.9482058z" fill="url(#c)" transform="translate(16.922969 18.428571)"/></g></svg>