<?xml version="1.0" encoding="UTF-8"?>
<svg width="86px" height="86px" viewBox="0 0 86 86" version="1.1" xmlns="http://www.w3.org/2000/svg" xmlns:xlink="http://www.w3.org/1999/xlink">
    <!-- Generator: Sketch 46.2 (44496) - http://www.bohemiancoding.com/sketch -->
    <title>ic/funnels1</title>
    <desc>Created with Sketch.</desc>
    <defs>
        <linearGradient x1="0%" y1="0%" x2="149.460671%" y2="71.875%" id="linearGradient-1">
            <stop stop-color="#00EAF8" offset="0%"></stop>
            <stop stop-color="#6D42EF" offset="100%"></stop>
        </linearGradient>
    </defs>
    <g id="Page-1" stroke="none" stroke-width="1" fill="none" fill-rule="evenodd">
        <g id="Temp-Screen" transform="translate(-142.000000, -806.000000)">
            <g id="1" transform="translate(142.000000, 806.000000)">
                <g id="ic/funnels1">
                    <circle id="Oval-4" fill="#FFFFFF" cx="43" cy="43" r="43"></circle>
                    <path d="M43,27.7696362 C51.8496552,27.7696362 57.2652217,29.6951805 57.2652217,30.7431394 C57.2652217,30.8202898 57.2100493,31.0316496 56.7253202,31.3627532 L56.4423645,31.5371452 C54.5507389,32.60841 49.6585222,33.7166426 43,33.7166426 C36.3753695,33.7166426 31.4989163,32.6204647 29.5844335,31.5532181 L29.595468,31.5387525 L29.1233498,31.2518496 C28.773399,30.9778051 28.7355665,30.8050204 28.7355665,30.7431394 C28.7355665,29.6951805 34.151133,27.7696362 43,27.7696362 L43,27.7696362 Z M40.2870936,46.5758385 L31.3649261,34.1240929 C34.3008867,34.9912308 38.4837438,35.4822606 43,35.4822606 C47.5162562,35.4822606 51.6983251,34.9912308 54.6350739,34.1240929 L45.7121182,46.5758385 L40.2870936,46.5758385 Z M45.2849261,48.3406528 L45.2849261,52.2351384 L40.7150739,56.8946983 L40.7150739,48.3406528 L45.2849261,48.3406528 Z M43,26 C35.2939901,26 27,27.4843407 27,30.7431394 C27,31.4688349 27.4145813,32.1366677 28.1791133,32.6751129 L38.9795074,47.7451486 L38.9795074,58.9335571 C38.9795074,59.3072541 39.1986207,59.642376 39.5493596,59.7910511 L40.1215764,60 L47.0204926,52.9648522 L47.0204926,47.7451486 L57.8011823,32.7016333 C58.5964532,32.1165765 59,31.4575839 59,30.7431394 C59,27.4843407 50.7060099,26 43,26 L43,26 Z" id="Fill-1" fill="url(#linearGradient-1)"></path>
                </g>
            </g>
        </g>
    </g>
</svg>