<svg height="86" viewBox="0 0 86 86" width="86" xmlns="http://www.w3.org/2000/svg"><g fill="none" fill-rule="evenodd"><circle cx="43" cy="43" fill="#02afde" r="43"/><path d="m43 27.7696362c8.8496552 0 14.2652217 1.9255443 14.2652217 2.9735032 0 .0771504-.0551724.2885102-.5399015.6196138l-.2829557.174392c-1.8916256 1.0712648-6.7838423 2.1794974-13.4423645 2.1794974-6.6246305 0-11.5010837-1.0961779-13.4155665-2.1634245l.0110345-.0144656-.4721182-.2869029c-.3499508-.2740445-.3877833-.4468292-.3877833-.5087102 0-1.0479589 5.4155665-2.9735032 14.2644335-2.9735032zm-2.7129064 18.8062023-8.9221675-12.4517456c2.9359606.8671379 7.1188177 1.3581677 11.6350739 1.3581677s8.6983251-.4910298 11.6350739-1.3581677l-8.9229557 12.4517456zm4.9978325 1.7648143v3.8944856l-4.5698522 4.6595599v-8.5540455zm-2.2849261-22.3406528c-7.7060099 0-16 1.4843407-16 4.7431394 0 .7256955.4145813 1.3935283 1.1791133 1.9319735l10.8003941 15.0700357v11.1884085c0 .373697.2191133.7088189.5698522.857494l.5722168.2089489 6.8989162-7.0351478v-5.2197036l10.7806897-15.0435153c.7952709-.5850568 1.1988177-1.2440494 1.1988177-1.9584939 0-3.2587987-8.2939901-4.7431394-16-4.7431394z" fill="#fff"/></g></svg>