<svg height="100" viewBox="0 0 100 100" width="100" xmlns="http://www.w3.org/2000/svg" xmlns:xlink="http://www.w3.org/1999/xlink"><defs><circle id="a" cx="35" cy="35" r="35"/><filter id="b" height="174.3%" width="174.3%" x="-37.1%" y="-31.4%"><feOffset dx="0" dy="4" in="SourceAlpha" result="shadowOffsetOuter1"/><feGaussianBlur in="shadowOffsetOuter1" result="shadowBlurOuter1" stdDeviation="8"/><feColorMatrix in="shadowBlurOuter1" type="matrix" values="0 0 0 0 0.254901961   0 0 0 0 0.458823529   0 0 0 0 0.647058824  0 0 0 0.24 0"/></filter><linearGradient id="c" x1="0%" x2="149.460671%" y1="0%" y2="71.875%"><stop offset="0" stop-color="#00eaf8"/><stop offset="1" stop-color="#6d42ef"/></linearGradient></defs><g fill="none" fill-rule="evenodd" transform="translate(15 15)"><g fill-rule="nonzero"><use fill="#000" filter="url(#b)" xlink:href="#a"/><use fill="#fff" fill-rule="evenodd" xlink:href="#a"/></g><path d="m37.9109643 17.4768842c-.4639854.9250663-1.2484404 1.6351-2.208677 1.9994387-.9603928.3638647-2.0132859.350593-2.9643818-.037761-.9510179-.3882751-1.7176603-1.1177424-2.1594582-2.0554483l-1.7113321-3.6133673c-.1884379-.3979128-.5919545-.6388566-1.0281274-.6165792-.434376.0232254-.8089081.3059592-.9540647.7200666-.3413289.974361-1.2581279 1.6289382-2.2811772 1.6289382-1.1540651 0-2.1525831-.8294788-2.374068-1.9723424-.0987502-.5093-.542345-.8790105-1.0548462-.8790105h-2.3137554c-.5125011 0-.9560959.3697105-1.0548462.8791685-.2214848 1.1427846-1.2203934 1.9723424-2.3750836 1.9723424-1.0227367 0-1.9393795-.6544192-2.2810209-1.6284643-.1452347-.4142653-.5199231-.6967621-.9545335-.7199085-.4355479-.0236204-.8397676.2192194-1.027893.6174482l-1.70750396 3.6132093c-.88945519 1.8879725-3.45946116 2.8654144-5.5000909 2.0917873-1.86594184-.7079008-2.73836574-2.7566343-2.12180181-4.9822442l2.55149031-9.21298059c.37421961-1.35205031 1.26203418-2.44656722 2.50008393-3.08186892.70125163-.35991477 1.45390962-.54121512 2.21086451-.54121512.57953259 0 1.16187772.10625228 1.72555092.3198628.9375021.35580687 1.7326602.98012785 2.2993803 1.80557767.3085945.44926147.8179706.71745959 1.3625032.71745959h11.0630725c.5444544 0 1.0535962-.26796112 1.3620344-.7169066.5676576-.82584482 1.3632063-1.45040279 2.3003179-1.80605167 1.2999249-.49278935 2.697975-.41426537 3.9364154.22119433 1.2381279.6353807 2.1260987 1.72989761 2.5003183 3.08202692l2.5514122 9.21266459c.2765631.9988504.1731254 2.0581342-.290782 2.9829635m1.8760981-3.431514c.3876572 1.4011871.242735 2.887139-.4079696 4.1845227-.6508609 1.2976207-1.7513322 2.2937061-3.0986791 2.804902-1.3476594.5108009-2.8244597.4920784-4.1587597-.0527706-1.3341437-.5446911-2.409615-1.5680308-3.0283664-2.8814511l-1.2272685-2.5912125c-.7542205 1.0226287-1.9567233 1.6573775-3.262195 1.6573775-1.7789104 0-3.3378203-1.1737519-3.8708684-2.8514319h-1.4299252c-.5331262 1.67768-2.0924267 2.8514319-3.8718059 2.8514319-1.3046124 0-2.5067245-.6340378-3.2611013-1.6559556l-1.2241435 2.5906596c-.9612522 2.0404386-3.21414805 3.3063811-5.49259084 3.3064601-.70039226 0-1.40289389-.1196029-2.07133294-.3730284-2.65586554-1.0076981-3.97164985-3.9471337-3.12875727-6.9895037l2.55141218-9.21290157c.49257927-1.77998233 1.7100821-3.28070683 3.34016401-4.11729536 1.63023816-.83674653 3.54735199-.94426278 5.25938726-.29561042 1.252581.47533081 2.3152397 1.31033938 3.0736008 2.41481004l-.0000781-.00007899c.0003125 0 .0038281.00244893.0104688.00244893h11.0631507c.0073438 0 .0109375-.00292292.0109375-.00292292.7585955-1.10407567 1.8215667-1.93900525 3.0732884-2.41402006 1.7119571-.64920535 3.6289928-.54137311 5.2593872.29529442s2.8479754 2.33739203 3.3405546 4.11753235zm-8.8010737-10.10171941c-.6223017 0-1.1267631.50447922-1.1267631 1.12680289 0 .62223901.5044614 1.12671824 1.1267631 1.12671824.6223018 0 1.1267632-.50447923 1.1267632-1.12671824 0-.62232367-.5044614-1.12680289-1.1267632-1.12680289zm0 5.07042253c-.6223396 0-1.1267631.50442238-1.1267631 1.12676058 0 .6222535.5044235 1.1267606 1.1267631 1.1267606.6223397 0 1.1267632-.5045071 1.1267632-1.1267606 0-.6223382-.5044235-1.12676058-1.1267632-1.12676058zm-2.8169092-2.25350994c-.6223396 0-1.1267632.50442237-1.1267632 1.12676056 0 .62225355.5044236 1.12676057 1.1267632 1.12676057s1.1267632-.50450702 1.1267632-1.12676057c0-.62233819-.5044236-1.12676056-1.1267632-1.12676056zm5.6337749-.00001118c-.6222316 0-1.1267209.50442237-1.1267209 1.12676056 0 .62225354.5044893 1.12676056 1.1267209 1.12676056.6223162 0 1.1268055-.50450702 1.1268055-1.12676056 0-.62233819-.5044893-1.12676056-1.1268055-1.12676056zm-22.2302424.02328803h-1.4550302v-1.45502677c0-.45391094-.36795028-.82178239-.82178427-.82178239s-.8217843.36787145-.8217843.82178239v1.45502677h-1.45503015c-.45383399 0-.8217843.36787145-.8217843.82178239 0 .45383293.36795031.82170439.8217843.82170439h1.45503015v1.45510477c0 .45383292.36795031.82178242.8217843.82178242s.82178427-.3679495.82178427-.82178242v-1.45510477h1.4550302c.453834 0 .8217843-.36787146.8217843-.82170439 0-.45391094-.3679503-.82178239-.8217843-.82178239zm6.6718852.54009225h-.9959516c-.5028156 0-.9104782.37831431-.9104782.84511053 0 .466716.4076626.84503031.9104782.84503031h.9959516c.5028156 0 .9104782-.37831431.9104782-.84503031 0-.46679622-.4076626-.84511053-.9104782-.84511053zm5.4175309.84507042c0-.46669385-.4076626-.84507042-.9104782-.84507042h-.9959516c-.5028156 0-.9104782.37837657-.9104782.84507042s.4076626.84507042.9104782.84507042h.9959516c.5028156 0 .9104782-.37837657.9104782-.84507042z" fill="url(#c)" transform="translate(15 24)"/></g></svg>