<svg height="198" viewBox="0 0 2065 198" width="2065" xmlns="http://www.w3.org/2000/svg"><path d="m49.1289062 154.222656 55.0781248 7.839844 49.527344-33.785156 53.808594 10.355468 54.171875 5.867188 51.355468-18.621094 54.953125 43.800782 51.257813 2.90625 53.53125-43.058594 52.300781-12.808594 52.5625 64.230469 55.125-34.300781 51.734375 21.910156 52.316406-13.820313 54.882813 29.953125 54.367187-13.25 50.171876-40.511718 52.820312-77.6093755 54.44141-20.8320313 52.97656 101.2890628 53.54687 24.21875 51.03907-15.015625 53.98047 32.980469 49.9414-36.15625 55.97266 15.210937 51.88672-80.515625 51.67187-74.5 52.25 110.109375 57.56641-29.46875 94.26172 63.230469 36.86328-31.429688 41.39843 47.34375 49.40625-33.9375 40.27344 25.410156 75.32813-50.042968 76.14062-26.589844 49.16406 36.675781 68.80079 88.824219-2073.1679725 3" fill="#edf2f5" fill-rule="evenodd"/></svg>