<svg height="198" viewBox="0 0 3404 198" width="3404" xmlns="http://www.w3.org/2000/svg"><path d="m92.8252611 154.222656 90.7981429 7.839844 81.647492-33.785156 88.705278 10.355468 89.304159 5.867188 84.661218-18.621094 90.592076 43.800782 84.500229 2.90625 88.248067-43.058594 86.219598-12.808594 86.65105 64.230469 90.875419-34.300781 85.28586 21.910156 86.24535-13.820313 90.47617 29.953125 89.62613-13.25 82.71003-40.511718 87.07606-77.6093755 89.74849-20.8320313 87.33365 101.2890628 88.27382 24.21875 84.13961-15.015625 88.98862 32.980469 82.33009-36.15625 92.27281 15.210937 85.537-80.515625 85.18283-74.5 86.13588 110.109375 94.90016-29.46875 155.39361 63.230469 60.77036-31.429688 68.24672 47.34375 81.44787-33.9375 66.39211 25.410156 124.18095-50.042968 125.52038-26.589844 81.04862 36.675781 113.4204 88.824219-3417.68716227 3" fill="#edf2f5" fill-rule="evenodd" transform="translate(-11)"/></svg>