<svg height="464" viewBox="0 0 534 464" width="534" xmlns="http://www.w3.org/2000/svg" xmlns:xlink="http://www.w3.org/1999/xlink"><defs><path id="a" d="m384 207c0-94.637645-77.229818-171-173-171-94.770182 0-172 76.362355-172 171 0 57.820388 29.5759091 109.239237 75 140h195c45.424091-30.760763 75-82.179612 75-140"/><filter id="b" height="116.7%" width="115.1%" x="-7.5%" y="-7.1%"><feOffset dx="0" dy="4" in="SourceAlpha" result="shadowOffsetOuter1"/><feGaussianBlur in="shadowOffsetOuter1" result="shadowBlurOuter1" stdDeviation="8"/><feColorMatrix in="shadowBlurOuter1" type="matrix" values="0 0 0 0 0.254901961   0 0 0 0 0.458823529   0 0 0 0 0.647058824  0 0 0 0.24 0"/></filter><mask id="c" fill="#fff"><ellipse cx="43.265537" cy="43.730758" fill="#fff" fill-rule="evenodd" rx="43.265537" ry="43.730758"/></mask></defs><g fill="none" fill-rule="evenodd"><path d="m423 209.484117c0-115.6885559-94.690473-209.484117-211.5-209.484117-116.8095273 0-211.5 93.7955611-211.5 209.484117 0 71.575009 36.2626364 134.732566 91.5525818 172.515883h239.8871452c55.297637-37.783317 91.560273-100.940874 91.560273-172.515883" fill="#fff"/><use fill="#000" filter="url(#b)" xlink:href="#a"/><use fill="#fff" fill-rule="evenodd" xlink:href="#a"/><path d="m276.245638 128.617225c0 2.789418-2.239444 5.058555-5.003814 5.058555-2.765253 0-5.006908-2.269137-5.006908-5.058555s2.241655-5.053196 5.006908-5.053196c2.76437 0 5.003814 2.263778 5.003814 5.053196" fill="#646782"/><g transform="translate(60 398)"><path d="m296.654952 12.789206h-290.12381364c-3.37495459 0-6.11404816-2.7513935-6.11404816-6.14150335 0-3.39829851 2.73909357-6.14150334 6.11404816-6.14150334h290.12381364c3.374954 0 6.114048 2.74320483 6.114048 6.14150334 0 3.39010985-2.739094 6.14150335-6.114048 6.14150335" fill="#eee"/><path d="m246.356715 39.2795571h-189.5354925c-3.3749546 0-6.1140482-2.7513935-6.1140482-6.1415034 0-3.3901098 2.7390936-6.1415033 6.1140482-6.1415033h189.5354925c3.374955 0 6.114049 2.7513935 6.114049 6.1415033 0 3.3901099-2.739094 6.1415034-6.114049 6.1415034" fill="#eee" opacity=".8"/><g fill="#efefef"><path d="m154.156869 65.7699081h-38.094596c-3.374954 0-6.114048-2.7513935-6.114048-6.1415033 0-3.3901099 2.739094-6.1415034 6.114048-6.1415034h38.094596c3.374955 0 6.114048 2.7513935 6.114048 6.1415034 0 3.3901098-2.739093 6.1415033-6.114048 6.1415033" opacity=".601449"/><path d="m187.580332 65.7699081h-10.173776c-3.374954 0-6.114048-2.7513935-6.114048-6.1415033 0-3.3901099 2.739094-6.1415034 6.114048-6.1415034h10.173776c3.374955 0 6.114049 2.7513935 6.114049 6.1415034 0 3.3901098-2.739094 6.1415033-6.114049 6.1415033" opacity=".601449"/></g></g><g transform="translate(8.632768 109.506834)"><path d="m466.367232 239.493166c0 9.997199-7.981343 18-18 18h-356.0000004c-10.0241899 0-18-8.002801-18-18v-221.0000003c0-9.9971993 7.9758101-18.00000004 18-18.00000004h356.0000004c10.018657 0 18 8.00280074 18 18.00000004z" fill="#efefef"/><path d="m275.367232 9.49316566c0 2.75638194-2.236604 5.00000004-5 5.00000004-2.760304 0-5-2.2436181-5-5.00000004 0-2.76124017 2.239696-5 5-5 2.763396 0 5 2.23875983 5 5" fill="#646782"/><path d="m94.3672316 240.493166h352.0000004c1.104569 0 2-.895431 2-2v-218.0000003c0-1.1045695-.895431-2-2-2h-352.0000004c-1.1045695 0-2 .8954305-2 2v218.0000003c0 1.104569.8954305 2 2 2z" fill="#646782"/><g fill="#fff"><path d="m321.40113 188.677708h86.094776v-4.316491h-86.094776z"/><path d="m321.40113 201.626287h86.094776v-4.316491h-86.094776z"/><path d="m321.40113 213.617132h86.094776v-4.31649h-86.094776z"/><path d="m122.070621 60.978009h24.723164v156.181277h-24.723164z"/><path d="m156.064972 112.51783h24.723164v104.641456h-24.723164z"/><path d="m190.059322 92.214264h24.723164v124.945022h-24.723164z"/><path d="m224.053672 154.686775h24.723164v62.472511h-24.723164z"/><path d="m258.048023 187.484843h24.723164v29.674443h-24.723164z"/></g><path d="m.3445843 257.856463c-.21978747 1.528687-.34449585 3.106052-.34449585 4.717358 0 13.641173 8.1949328 24.692555 18.29984965 24.692555h488.6198279c10.104917 0 18.294985-11.051382 18.294985-24.692555 0-1.611306-.119844-3.188671-.341842-4.717358z" fill="#fffefe"/><path d="m1.57389055 272.563921c2.84441249 8.655859 9.25583855 14.702277 16.72595915 14.702277h488.6202703c7.472332 0 13.883758-6.046418 16.728612-14.702277z" fill="#e0e0e0"/><g transform="translate(321.40113 50.045319)"><ellipse cx="43.265537" cy="43.730758" rx="41.265537" ry="41.730758" stroke="#fff" stroke-width="4"/><path d="m43.2655367 43.7307575v53.937344h55.9139645v-53.8842285z" fill="#fff" mask="url(#c)"/></g></g></g></svg>