<svg height="464" viewBox="0 0 554 464" width="554" xmlns="http://www.w3.org/2000/svg" xmlns:xlink="http://www.w3.org/1999/xlink"><defs><path id="a" d="m384 206.548587c0-94.186232-77.229818-170.548587-172.5-170.548587s-172.5 76.362355-172.5 170.548587c0 58.271801 29.5759091 109.69065 74.670545 140.451413h195.652637c45.100909-30.760763 74.676818-82.179612 74.676818-140.451413"/><filter id="b" height="116.7%" width="115.1%" x="-7.5%" y="-7.1%"><feOffset dx="0" dy="4" in="SourceAlpha" result="shadowOffsetOuter1"/><feGaussianBlur in="shadowOffsetOuter1" result="shadowBlurOuter1" stdDeviation="8"/><feColorMatrix in="shadowBlurOuter1" type="matrix" values="0 0 0 0 0.254901961   0 0 0 0 0.458823529   0 0 0 0 0.647058824  0 0 0 0.24 0"/></filter></defs><g fill="none" fill-rule="evenodd"><g transform="translate(130.068768)"><path d="m423 209.484117c0-115.6885559-94.690473-209.484117-211.5-209.484117-116.8095273 0-211.5 93.7955611-211.5 209.484117 0 71.575009 36.2626364 134.732566 91.5525818 172.515883h239.8871452c55.297637-37.783317 91.560273-100.940874 91.560273-172.515883" fill="#fff"/><use fill="#000" filter="url(#b)" xlink:href="#a"/><use fill="#fff" fill-rule="evenodd" xlink:href="#a"/><path d="m341.749142 410.695544h-298.0462419c-3.4671147 0-6.2810049-2.750775-6.2810049-6.140123 0-3.397535 2.8138902-6.140124 6.2810049-6.140124h298.0462419c3.467115 0 6.281005 2.742589 6.281005 6.140124 0 3.389348-2.81389 6.140123-6.281005 6.140123" fill="#eee"/><path d="m290.077409 437.179942h-194.7111504c-3.4671147 0-6.2810048-2.750775-6.2810048-6.140123s2.8138901-6.140124 6.2810048-6.140124h194.7111504c3.467115 0 6.281005 2.750776 6.281005 6.140124s-2.81389 6.140123-6.281005 6.140123" fill="#eee" opacity=".8"/><g fill="#efefef"><path d="m195.359856 463.66434h-39.134848c-3.467114 0-6.281005-2.750775-6.281005-6.140123s2.813891-6.140123 6.281005-6.140123h39.134848c3.467115 0 6.281005 2.750775 6.281005 6.140123s-2.81389 6.140123-6.281005 6.140123" opacity=".601449"/><path d="m229.696016 463.66434h-10.451592c-3.467115 0-6.281005-2.750775-6.281005-6.140123s2.81389-6.140123 6.281005-6.140123h10.451592c3.467114 0 6.281005 2.750775 6.281005 6.140123s-2.813891 6.140123-6.281005 6.140123" opacity=".601449"/></g></g><g transform="translate(0 109.478405)"><path d="m468 239.521595c0 9.997199-7.981342 18-18 18h-356c-10.0241899 0-18-8.002801-18-18v-221.0000003c0-9.99673669 7.9758101-18.00000002 18-18.00000002h356c10.018658 0 18 8.00326333 18 18.00000002z" fill="#efefef"/><path d="m96 241.521595h352c1.104569 0 2-.895431 2-2v-218.0000003c0-1.1045695-.895431-2-2-2h-352c-1.1045695 0-2 .8954305-2 2v218.0000003c0 1.104569.8954305 2 2 2z" fill="#646782"/><path d="m.35381216 257.848873c-.22533491 1.525432-.35390302 3.0999-.35390302 4.708691 0 13.616111 8.41916664 24.647189 18.79956476 24.647189h501.9630541c10.380398 0 18.794113-11.031078 18.794113-24.647189 0-1.608791-.123571-3.183259-.351177-4.708691z" fill="#fffefe"/><path d="m1.61691431 272.529309c2.92208503 8.639956 9.50858829 14.675265 17.18224159 14.675265h501.9635081c7.67638 0 14.262428-6.035309 17.185422-14.675265z" fill="#e0e0e0"/><path d="m277 10.5215947c0 2.7563819-2.236604 5-5 5-2.760304 0-5-2.2436181-5-5 0-2.76124019 2.239696-5.00000002 5-5.00000002 2.763396 0 5 2.23875983 5 5.00000002" fill="#646782"/><g fill="#fff"><path d="m126.04263 226.604836h97.4151v-2.542238h-97.4151z"/><path d="m134.767997 197.980469c1.398803 0 2.555462 1.012794 2.555462 2.235101v23.185056h-5.114103v-23.185056c0-1.222307 1.138941-2.235101 2.558641-2.235101"/><path d="m144.670377 195.226622c1.398802 0 2.558187 1.125575 2.558187 2.478493v25.695645h-5.113649v-25.695645c0-1.352918 1.138487-2.478493 2.555462-2.478493"/><path d="m154.572801 198.076221c1.401983 0 2.561368 1.012794 2.561368 2.237776v23.278222h-5.116829v-23.278222c0-1.224982 1.138486-2.237776 2.555461-2.237776"/><path d="m165.28843 184.874589c1.398803 0 2.558642 1.529444 2.558642 3.395446v35.322095h-5.117283v-35.322095c0-1.866002 1.142121-3.395446 2.558641-3.395446"/><path d="m175.67001 199.205451c1.416521 0 2.558641.963313 2.558641 2.153079v22.233778h-5.117283v-22.233778c0-1.189766 1.159839-2.153079 2.558642-2.153079"/><path d="m186.217047 209.008961h.020898c1.398803 0 2.537743.577275 2.537743 1.285607v13.297829h-5.099111v-13.297829c0-.708332 1.141667-1.285607 2.54047-1.285607"/><path d="m197.098633 185.002124c1.413795 0 2.555462 1.529445 2.555462 3.398567v35.191483h-5.099111v-35.191483c0-1.869122 1.141666-3.398567 2.543649-3.398567"/><path d="m206.521903 187.561837c1.398803 0 2.561368 1.433604 2.561368 3.172115v32.858311h-5.120009v-32.858311c0-1.738511 1.162564-3.172115 2.558641-3.172115"/><path d="m215.11993 178.629009c1.41652 0 2.558641 1.770607 2.558641 3.944192v41.019062h-5.117283v-41.019062c0-2.173585 1.159839-3.944192 2.558642-3.944192"/><path d="m229.533141 194.8088h9.091992v-7.95525h-9.091992z"/><path d="m229.533141 208.010342h9.091992v-7.954804h-9.091992z"/><path d="m229.533141 221.499853h9.091992v-7.952129h-9.091992z"/><path d="m114 49.5215947h88v-4h-88z"/><path d="m114 62.5215947h88v-4h-88z"/><path d="m114 74.5215947h88v-4h-88z"/><path d="m219 101.521595h88v-4.0000003h-88z"/><path d="m126 101.521595h88v-4.0000003h-88z"/><path d="m126 113.521595h88v-4h-88z"/><path d="m219 113.521595h42v-4h-42z"/><path d="m126 136.521595h88v-4h-88z"/><path d="m219 136.521595h42v-4h-42z"/><path d="m325 124.521595h42v-4h-42z"/><path d="m126 87.5215947h191v-4h-191z"/><path d="m126 124.521595h191v-4h-191z"/><path d="m325 150.521595h42v-4h-42z"/><path d="m126 150.521595h191v-4h-191z"/><path d="m413.668202 211.204746-3.429542-.065083 1.735896-46.94917 3.432723.053939z"/><path d="m403.663741 165.384227 2.175663 2.626935-36.290733 30.435986-2.174755-2.610442z"/><path d="m411.952159 215.248033-1.12622 3.264389-44.236061-14.488932 1.120769-3.270631z"/><path d="m408.109653 172.035994c-6.085405-2.966168-8.521385-10.371781-5.429844-16.557761 3.099264-6.172161 10.544856-8.768784 16.637076-5.79058 6.099489 2.974192 8.528654 10.383817 5.436205 16.552412-3.095629 6.178848-10.545765 8.769675-16.643437 5.795929"/><path d="m406.416643 225.584375c-5.061858-2.470915-7.085329-8.634607-4.510787-13.764999 2.569545-5.126825 8.761712-7.283917 13.823116-4.813448 5.061858 2.471361 7.077152 8.622125 4.516239 13.761878-2.578631 5.123706-8.760349 7.283472-13.828568 4.816569"/><path d="m354.193823 217.654088c-7.687283-3.752956-10.752474-13.102581-6.844548-20.895124 3.902019-7.788531 13.299757-11.062728 20.982951-7.316459 7.687282 3.752956 10.755653 13.109268 6.854997 20.898245-3.906563 7.781844-13.305663 11.066294-20.9934 7.313338"/></g></g></g></svg>