<?xml version="1.0" encoding="UTF-8"?>
<svg width="534px" height="464px" viewBox="0 0 534 464" version="1.1" xmlns="http://www.w3.org/2000/svg" xmlns:xlink="http://www.w3.org/1999/xlink">
    <!-- Generator: sketchtool 46.2 (44496) - http://www.bohemiancoding.com/sketch -->
    <title>2451969A-C4D4-4832-BB8F-8B44CAB43E92</title>
    <desc>Created with sketchtool.</desc>
    <defs>
        <path d="M384,207 C384,112.362355 306.770182,36 211,36 C116.229818,36 39,112.362355 39,207 C39,264.820388 68.5759091,316.239237 114,347 L309,347 C354.424091,316.239237 384,264.820388 384,207" id="path-1"></path>
        <filter x="-7.5%" y="-7.1%" width="115.1%" height="116.7%" filterUnits="objectBoundingBox" id="filter-2">
            <feOffset dx="0" dy="4" in="SourceAlpha" result="shadowOffsetOuter1"></feOffset>
            <feGaussianBlur stdDeviation="8" in="shadowOffsetOuter1" result="shadowBlurOuter1"></feGaussianBlur>
            <feColorMatrix values="0 0 0 0 0.254901961   0 0 0 0 0.458823529   0 0 0 0 0.647058824  0 0 0 0.24 0" type="matrix" in="shadowBlurOuter1"></feColorMatrix>
        </filter>
        <ellipse id="path-3" cx="43.2655367" cy="43.7307575" rx="43.2655367" ry="43.7307575"></ellipse>
    </defs>
    <g id="Page-1" stroke="none" stroke-width="1" fill="none" fill-rule="evenodd">
        <g id="Home-Page---new" transform="translate(-615.000000, -2600.000000)">
            <g id="Products" transform="translate(0.000000, 1427.000000)">
                <g id="Analutics" transform="translate(30.000000, 1173.000000)">
                    <g id="Icon3_Analytics-with-recipes" transform="translate(585.000000, 0.000000)">
                        <g id="Group-3">
                            <path d="M423,209.484117 C423,93.7955611 328.309527,0 211.5,0 C94.6904727,0 0,93.7955611 0,209.484117 C0,281.059126 36.2626364,344.216683 91.5525818,382 L331.439727,382 C386.737364,344.216683 423,281.059126 423,209.484117" id="Fill-613" fill="#FFFFFF"></path>
                            <g id="Fill-613">
                                <use fill="black" fill-opacity="1" filter="url(#filter-2)" xlink:href="#path-1"></use>
                                <use fill="#FFFFFF" fill-rule="evenodd" xlink:href="#path-1"></use>
                            </g>
                        </g>
                        <path d="M276.245638,128.617225 C276.245638,131.406643 274.006194,133.67578 271.241824,133.67578 C268.476571,133.67578 266.234916,131.406643 266.234916,128.617225 C266.234916,125.827807 268.476571,123.564029 271.241824,123.564029 C274.006194,123.564029 276.245638,125.827807 276.245638,128.617225" id="Fill-7" fill="#646782"></path>
                        <g id="Group-10" transform="translate(60.000000, 398.000000)">
                            <g id="Group-25">
                                <path d="M296.654952,12.789206 L6.53113836,12.789206 C3.15618377,12.789206 0.417090198,10.0378125 0.417090198,6.64770265 C0.417090198,3.24940414 3.15618377,0.506199314 6.53113836,0.506199314 L296.654952,0.506199314 C300.029906,0.506199314 302.769,3.24940414 302.769,6.64770265 C302.769,10.0378125 300.029906,12.789206 296.654952,12.789206" id="Fill-614" fill="#EEEEEE"></path>
                                <path d="M246.356715,39.2795571 L56.8212225,39.2795571 C53.4462679,39.2795571 50.7071743,36.5281636 50.7071743,33.1380537 C50.7071743,29.7479439 53.4462679,26.9965504 56.8212225,26.9965504 L246.356715,26.9965504 C249.73167,26.9965504 252.470764,29.7479439 252.470764,33.1380537 C252.470764,36.5281636 249.73167,39.2795571 246.356715,39.2795571" id="Fill-615" fill="#EEEEEE" opacity="0.800000012"></path>
                                <path d="M154.156869,65.7699081 L116.062273,65.7699081 C112.687319,65.7699081 109.948225,63.0185146 109.948225,59.6284048 C109.948225,56.2382949 112.687319,53.4869014 116.062273,53.4869014 L154.156869,53.4869014 C157.531824,53.4869014 160.270917,56.2382949 160.270917,59.6284048 C160.270917,63.0185146 157.531824,65.7699081 154.156869,65.7699081" id="Fill-616" fill="#EFEFEF" opacity="0.601449275"></path>
                                <path d="M187.580332,65.7699081 L177.406556,65.7699081 C174.031602,65.7699081 171.292508,63.0185146 171.292508,59.6284048 C171.292508,56.2382949 174.031602,53.4869014 177.406556,53.4869014 L187.580332,53.4869014 C190.955287,53.4869014 193.694381,56.2382949 193.694381,59.6284048 C193.694381,63.0185146 190.955287,65.7699081 187.580332,65.7699081" id="Fill-617" fill="#EFEFEF" opacity="0.601449275"></path>
                            </g>
                        </g>
                        <g id="Page-1" transform="translate(8.632768, 109.506834)">
                            <path d="M466.367232,239.493166 C466.367232,249.490365 458.385889,257.493166 448.367232,257.493166 L92.3672316,257.493166 C82.3430417,257.493166 74.3672316,249.490365 74.3672316,239.493166 L74.3672316,18.4931657 C74.3672316,8.4959664 82.3430417,0.493165664 92.3672316,0.493165664 L448.367232,0.493165664 C458.385889,0.493165664 466.367232,8.4959664 466.367232,18.4931657 L466.367232,239.493166 Z" id="Fill-1" fill="#EFEFEF"></path>
                            <path d="M275.367232,9.49316566 C275.367232,12.2495476 273.130628,14.4931657 270.367232,14.4931657 C267.606928,14.4931657 265.367232,12.2495476 265.367232,9.49316566 C265.367232,6.73192549 267.606928,4.49316566 270.367232,4.49316566 C273.130628,4.49316566 275.367232,6.73192549 275.367232,9.49316566" id="Fill-8" fill="#646782"></path>
                            <path d="M94.3672316,240.493166 L446.367232,240.493166 L446.367232,240.493166 C447.471801,240.493166 448.367232,239.597735 448.367232,238.493166 L448.367232,20.4931657 L448.367232,20.4931657 C448.367232,19.3885962 447.471801,18.4931657 446.367232,18.4931657 L94.3672316,18.4931657 L94.3672316,18.4931657 C93.2626621,18.4931657 92.3672316,19.3885962 92.3672316,20.4931657 L92.3672316,238.493166 L92.3672316,238.493166 C92.3672316,239.597735 93.2626621,240.493166 94.3672316,240.493166 Z" id="Fill-3" fill="#646782"></path>
                            <polygon id="Fill-22" fill="#FFFFFF" points="321.40113 188.677708 407.495906 188.677708 407.495906 184.361217 321.40113 184.361217"></polygon>
                            <polygon id="Fill-23" fill="#FFFFFF" points="321.40113 201.626287 407.495906 201.626287 407.495906 197.309796 321.40113 197.309796"></polygon>
                            <polygon id="Fill-24" fill="#FFFFFF" points="321.40113 213.617132 407.495906 213.617132 407.495906 209.300642 321.40113 209.300642"></polygon>
                            <rect id="Rectangle-4" fill="#FFFFFF" x="122.070621" y="60.9780086" width="24.7231638" height="156.181277"></rect>
                            <rect id="Rectangle-4-Copy" fill="#FFFFFF" x="156.064972" y="112.51783" width="24.7231638" height="104.641456"></rect>
                            <rect id="Rectangle-4-Copy-2" fill="#FFFFFF" x="190.059322" y="92.214264" width="24.7231638" height="124.945022"></rect>
                            <rect id="Rectangle-4-Copy-3" fill="#FFFFFF" x="224.053672" y="154.686775" width="24.7231638" height="62.4725108"></rect>
                            <rect id="Rectangle-4-Copy-4" fill="#FFFFFF" x="258.048023" y="187.484843" width="24.7231638" height="29.6744426"></rect>
                            <path d="M0.344584299,257.856463 C0.124796829,259.38515 8.84456622e-05,260.962515 8.84456622e-05,262.573821 C8.84456622e-05,276.214994 8.19502125,287.266376 18.2999381,287.266376 L506.919766,287.266376 C517.024683,287.266376 525.214751,276.214994 525.214751,262.573821 C525.214751,260.962515 525.094907,259.38515 524.872909,257.856463 L0.344584299,257.856463 Z" id="Fill-5" fill="#FFFEFE"></path>
                            <path d="M1.57389055,272.563921 C4.41830304,281.21978 10.8297291,287.266198 18.2998497,287.266198 L506.92012,287.266198 C514.392452,287.266198 520.803878,281.21978 523.648732,272.563921 L1.57389055,272.563921 Z" id="Fill-6" fill="#E0E0E0"></path>
                            <g id="Group-4" transform="translate(321.401130, 50.045319)">
                                <mask id="mask-4" fill="white">
                                    <use xlink:href="#path-3"></use>
                                </mask>
                                <ellipse stroke="#FFFFFF" stroke-width="4" cx="43.2655367" cy="43.7307575" rx="41.2655367" ry="41.7307575"></ellipse>
                                <polygon id="Path-4" fill="#FFFFFF" mask="url(#mask-4)" points="43.2655367 43.7307575 43.2655367 97.6681015 99.1795012 97.6681015 99.1795012 43.783873"></polygon>
                            </g>
                        </g>
                    </g>
                </g>
            </g>
        </g>
    </g>
</svg>