<svg height="118" viewBox="0 0 118 118" width="118" xmlns="http://www.w3.org/2000/svg" xmlns:xlink="http://www.w3.org/1999/xlink"><defs><rect id="a" height="86" rx="43" width="86"/><filter id="b" height="160.5%" width="160.5%" x="-30.2%" y="-25.6%"><feOffset dx="0" dy="4" in="SourceAlpha" result="shadowOffsetOuter1"/><feGaussianBlur in="shadowOffsetOuter1" result="shadowBlurOuter1" stdDeviation="8"/><feColorMatrix in="shadowBlurOuter1" type="matrix" values="0 0 0 0 0.254901961   0 0 0 0 0.458823529   0 0 0 0 0.647058824  0 0 0 0.24 0"/></filter><linearGradient id="c" x1="0%" x2="149.460671%" y1="0%" y2="71.875%"><stop offset="0" stop-color="#00eaf8"/><stop offset="1" stop-color="#6d42ef"/></linearGradient></defs><g fill="none" transform="translate(16 12)"><use fill="#000" filter="url(#b)" xlink:href="#a"/><use fill="#fff" fill-rule="evenodd" xlink:href="#a"/><path d="m47.4609626 46.0613475c-.0915089-.053488-.1776874-.1198175-.2559763-.1989883l-8.2897329-8.3831238h-.1060288c-.6826033 0-1.2359626.5595934-1.2359626 1.2498867v1.9820535l9.8877006 9.9990939zm0-3.4753418v-5.1067703h-5.0498791zm-1.4011961 14.8914175h1.4011961v-3.2319402l-9.8877006-9.9990939v4.5890503l8.2897329 8.3831238c.0782889.0791708.1438794.1663202.1967716.25886zm-3.4366254 0-5.0498791-5.1067703v.6134275 3.2434561c0 .4382545.0065882.8589485.0036529 1.2498867zm-7.5218042-11.1008668v-7.6474343c0-2.0708801 1.6600779-3.7496602 3.7078877-3.7496602h8.651738v-7.4993204c0-2.0708802 1.6600778-3.7496602 3.7078877-3.7496602h7.4157754c2.0478098 0 3.7078877 1.67878 3.7078877 3.7496602 0 .6902934-.5533593 1.2498867-1.2359626 1.2498867s-1.2359626-.5595933-1.2359626-1.2498867-.5533593-1.2498867-1.2359625-1.2498867h-7.4157754c-.6826033 0-1.2359626.5595933-1.2359626 1.2498867v9.9990939 11.873924 8.1242638h8.651738l.1039813.0044311c.2884346.0246267.5740395-.0729072.7886596-.2693266s.3390037-.4741052.3433216-.7475127v-23.9853265c0-.6902934.5533593-1.2498868 1.2359626-1.2498868s1.2359626.5595934 1.2359626 1.2498868l-.0001471 24.004606c-.0150328.9854373-.4338155 1.9203677-1.1564122 2.5816851-.7083288.6482594-1.6463085.9766025-2.5977969.9112171h-9.8412321-12.3596256c-.0034544 0-.0069054-.0000143-.0103531-.0000429-.0040795.0000286-.0081722.0000429-.0122781.0000429h-12.3369945c-.6826033 0-1.2359626-.5595934-1.2359626-1.2498867v-11.2489807c0-.6902934.5533593-1.2498867 1.2359626-1.2498867h10.1225334c.3480402 0 .6841233.0517712 1.0011297.1481138zm-9.8877005 11.1008668h8.6517379c.6826033 0 1.2359626-.5595933 1.2359626-1.2498867v-6.4869122c0-.5591376-.448221-1.0124082-1.0011297-1.0124082h-8.8865708z" fill="url(#c)"/></g></svg>