<svg height="119" viewBox="0 0 119 119" width="119" xmlns="http://www.w3.org/2000/svg" xmlns:xlink="http://www.w3.org/1999/xlink"><defs><rect id="a" height="87.011765" rx="43.505882" width="87.011765"/><filter id="b" height="159.8%" width="159.8%" x="-29.9%" y="-25.3%"><feOffset dx="0" dy="4" in="SourceAlpha" result="shadowOffsetOuter1"/><feGaussianBlur in="shadowOffsetOuter1" result="shadowBlurOuter1" stdDeviation="8"/><feColorMatrix in="shadowBlurOuter1" type="matrix" values="0 0 0 0 0.254901961   0 0 0 0 0.458823529   0 0 0 0 0.647058824  0 0 0 0.24 0"/></filter><linearGradient id="c" x1="0%" x2="149.460671%" y1="0%" y2="71.875%"><stop offset="0" stop-color="#00eaf8"/><stop offset="1" stop-color="#6d42ef"/></linearGradient></defs><g fill="none" transform="translate(16 12)"><use fill="#000" filter="url(#b)" xlink:href="#a"/><use fill="#fff" fill-rule="evenodd" xlink:href="#a"/><path d="m58.2153846 49.6153846h5.2923077c.687732 0 1.2452489.5488057 1.2452489 1.2257919 0 .039475-.0018956.0785143-.0056021.1170343v7.9497967c.0570025 1.0156633-.3230579 2.0084117-1.0464197 2.7287755-.7233617.7203639-1.7202415 1.0988493-2.7401315 1.042083h-34.8859518c-1.0312556.0837316-2.0489851-.2875668-2.782277-1.0178197s-1.1061355-1.7437645-1.0220554-2.7707462v-7.8805392c-.0077009-.0551108-.0116802-.1113902-.0116802-.1685844 0-.6769862.5575169-1.2257919 1.2452489-1.2257919h5.2923077v-15.4870684h-2.7888094c-.9428079 0-1.2495824.3229539-1.2495824 1.179401v10.614609c0 .6856475-.5594571 1.2414747-1.2495824 1.2414747s-1.2495824-.5558272-1.2495824-1.2414747v-10.614609c0-2.1966257 1.3922947-3.6623504 3.7487472-3.6623504h3.8726261c.04658-.0054577.0939551-.0082627.1419751-.0082627.0480201 0 .0953952.002805.1419752.0082627h26.6834705c.04658-.0054577.0939551-.0082627.1419752-.0082627.04802 0 .0953951.002805.1419751.0082627h3.8170097c1.0257087-.0697379 2.0329337.304462 2.7612652 1.0280678.7283314.7236058 1.104975 1.7242956 1.0347817 2.7433492v10.5055424c0 .6856475-.5594571 1.2414747-1.2495824 1.2414747s-1.2495823-.5558272-1.2495823-1.2414747v-10.5525352l.0044874-.1051185c.0265055-.3098887-.0859304-.6156133-.3072808-.8355275s-.5290716-.3316206-.946789-.3008288h-2.7804928zm-2.4515837 0v-15.4870684h-24.5158371v15.4870684h2.840724c.6877319 0 1.2452489.5488057 1.2452489 1.2257919 0 .6769861-.557517 1.2257918-1.2452489 1.2257918h-2.840724v4.4751131c0 .687732-.5488057 1.2452489-1.2257919 1.2452489-.6769861 0-1.2257918-.5575169-1.2257918-1.2452489v-4.4751131h-4.0272391v6.8794744l-.006389.1256638c-.0312792.3068214.0776324.611388.2966105.8294586.2189782.2180707.5248123.3265309.8329105.2953813l.1261867-.0063626 35.0671935.0029699c.315439.0217438.62488-.0935956.8484628-.3162518.2235828-.2226563.3394023-.5308148.3175679-.8449466l-.0029822-.0859126v-6.8794744h-4.0333171v4.4751131c0 .687732-.5488057 1.2452489-1.2257918 1.2452489-.6769862 0-1.2257919-.5575169-1.2257919-1.2452489v-4.4751131h-2.840724c-.6877319 0-1.2452488-.5488057-1.2452488-1.2257918 0-.6769862.5575169-1.2257919 1.2452488-1.2257919zm-7.8087481 0c.7020597 0 1.2711915.5488057 1.2711915 1.2257919 0 .6769861-.5691318 1.2257918-1.2711915 1.2257918h-8.8983409c-.7020597 0-1.2711915-.5488057-1.2711915-1.2257918 0-.6769862.5691318-1.2257919 1.2711915-1.2257919zm-10.986821-21.6709785c-.0084623.6769333-.5640852 1.218836-1.2410184 1.2103737s-1.2188359-.5640852-1.2103735-1.2410185c.0251642-2.0129844 1.6642336-3.6315656 3.6772794-3.6314084h12.2579173c2.0309582 0 3.6773752 1.6464172 3.6773752 3.6773756 0 .6769862-.5488057 1.2257919-1.2257918 1.2257919-.676986 0-1.2257917-.5488057-1.2257917-1.2257919 0-.6769861-.5488056-1.2257918-1.2257917-1.2257918l-12.2580131-.0000001c-.6710472-.0000524-1.2174036.5394747-1.2257917 1.2104695zm7.5682732 16.0221436c-.8962527.5174517-2.0390493.2159799-2.5525077-.6733562-.5134584-.889336-.2031423-2.0297628.6931103-2.5472145.8962527-.5174517 2.0390493-.2159799 2.5525077.6733561.5134584.8893361.2031423 2.0297629-.6931103 2.5472146z" fill="url(#c)"/></g></svg>