<svg height="118" viewBox="0 0 118 118" width="118" xmlns="http://www.w3.org/2000/svg" xmlns:xlink="http://www.w3.org/1999/xlink"><defs><circle id="a" cx="43" cy="43" r="43"/><filter id="b" height="160.5%" width="160.5%" x="-30.2%" y="-25.6%"><feOffset dx="0" dy="4" in="SourceAlpha" result="shadowOffsetOuter1"/><feGaussianBlur in="shadowOffsetOuter1" result="shadowBlurOuter1" stdDeviation="8"/><feColorMatrix in="shadowBlurOuter1" type="matrix" values="0 0 0 0 0.254901961   0 0 0 0 0.458823529   0 0 0 0 0.647058824  0 0 0 0.24 0"/></filter><linearGradient id="c" x1="0%" x2="149.460671%" y1="0%" y2="71.875%"><stop offset="0" stop-color="#00eaf8"/><stop offset="1" stop-color="#6d42ef"/></linearGradient></defs><g fill="none" transform="translate(16 12)"><use fill="#000" filter="url(#b)" xlink:href="#a"/><use fill="#fff" fill-rule="evenodd" xlink:href="#a"/><path d="m53.2607376 27.9822415c.020421.0000634.040848.0001882.0612807.0003746.1860013.0016964.361472.0473373.5169176.1271173 5.3949736-.0107329 9.9187689 3.9994071 10.3909428 9.2479471.4773476 5.3060495-3.3492221 10.065705-8.8079549 10.8989134l-1.6876666.1856848c-.6545375.0720153-1.2451429-.3859019-1.3191542-1.0227865s.3965981-1.2115615 1.0511355-1.2835767l1.6366025-.1789766c4.1687983-.6371531 7.1187197-4.3063949 6.7507301-8.3968547-.3679896-4.0904597-3.9282172-7.2051946-8.1698344-7.127691-.2765855 0-.5721412.0142497-.8819571.0416552-.1760181.0155701-.3493664-.0072292-.5094045-.0629201-1.7460229.2094019-3.3856291 1.0000011-4.6533745 2.2630912-1.5094901 1.5039472-2.3681156 3.5545549-2.3869702 5.700669-.0057567.6552518-.5341076 1.1817047-1.1801048 1.1758655-.6459971-.0058391-1.1650146-.5417593-1.1592579-1.1970111.0243839-2.775473 1.1348057-5.4274319 3.0869616-7.3724193 1.2875682-1.2828402 2.8717374-2.1888155 4.5862356-2.6498331-2.4370394-2.9803917-6.2984693-4.5998717-10.2775701-4.1964169-4.6226872.4687102-8.5114798 3.5771471-9.8814769 7.898582-.1596993.5037455-.6482724.8394725-1.1895784.8174284-2.5111295-.102263-4.875048 1.1530607-6.1452138 3.263324-1.2701657 2.1102633-1.238947 4.7305055.0811559 6.8115494 1.3201028 2.0810439 3.713295 3.2827052 6.3460503 3.1222832l1.3537114.0522239c.6581915.0253919 1.1706063.5651554 1.1445106 1.2055954-.0260957.6404401-.58082 1.1390352-1.2390114 1.1136433l-1.2934666-.0498998c-3.3652849.1901592-6.5692693-1.4306967-8.3416542-4.2247297-1.7837035-2.8118758-1.8258858-6.3523084-.1096566-9.2036651 1.5629298-2.5966638 4.3514983-4.2352985 7.3997717-4.4029593 1.8621859-4.7851769 6.3478828-8.1766049 11.6276294-8.7119367 5.2648438-.5338207 10.3588252 1.8697361 13.1996714 6.1557289zm-11.1795065 18.7381888c.1223273-.0328339.2520662-.0504838.3864427-.0504838.7372115 0 1.3348396.5312249 1.3348396 1.1865241v8.3056684c0 .6552992-.5976281 1.1865241-1.3348396 1.1865241s-1.3348396-.5312249-1.3348396-1.1865241v-6.8225133h-3.5595722v6.8225133c0 .6552992-.5577861 1.1865241-1.2458502 1.1865241h-3.7375508c-.6880641 0-1.2458503-.5312249-1.2458503-1.1865241 0-.6552991.5577862-1.186524 1.2458503-1.186524h2.4917005v-6.2555151c-.1126988-.206758-.1779786-.4521419-.1779786-.7153138 0-.7372115.5122526-1.3348396 1.1441482-1.3348396h5.720741c.1084377 0 .2133521.0175996.312759.0504838zm7.772555 1.1360403v7.1191444h2.4917005c.6880641 0 1.2458503.5312249 1.2458503 1.186524 0 .6552992-.5577862 1.1865241-1.2458503 1.1865241h-3.7375508c-.6880641 0-1.2458502-.5312249-1.2458502-1.1865241v-8.3056684c0-.6552992.5577861-1.1865241 1.2458502-1.1865241s1.2458503.5312249 1.2458503 1.1865241zm-7.1879079 13.4411366c-.8556875.4940314-1.9441256.2107675-2.4310946-.6326876-.4869691-.8434551-.1880637-1.9277021.6676238-2.4217335s1.9441256-.2107675 2.4310946.6326876c.4869691.8434551.1880637 1.9277021-.6676238 2.4217335zm-13.3483957-3.5595722c-.8556875.4940314-1.9441256.2107675-2.4310947-.6326876-.486969-.8434551-.1880636-1.9277021.6676238-2.4217335.8556875-.4940314 1.9441257-.2107675 2.4310947.6326876s.1880637 1.9277021-.6676238 2.4217335zm28.2227985-.636114c-.4940314.8556875-1.5782784 1.1545928-2.4217335.6676238s-1.126719-1.5754072-.6326876-2.4310946c.4940314-.8556875 1.5782784-1.1545929 2.4217335-.6676239.8434551.4869691 1.126719 1.5754072.6326876 2.4310947z" fill="url(#c)"/></g></svg>