<svg height="10" viewBox="0 0 87 10" width="87" xmlns="http://www.w3.org/2000/svg" xmlns:xlink="http://www.w3.org/1999/xlink"><linearGradient id="a" x1="0%" x2="149.460671%" y1="0%" y2="71.875%"><stop offset="0" stop-color="#00eaf8"/><stop offset="1" stop-color="#6d42ef"/></linearGradient><g fill="none" fill-rule="evenodd" opacity=".300102" transform="translate(-1)"><path d="m83.5752658.13641343 4.2858685 4.35749066c.0930764.0916397.1388657.19625122.1388657.31383457 0 .11862947-.0457893.22324099-.1388657.31383457l-4.2858685 4.74264101c-.0928624.09080281-.1998467.13578576-.3209529.13578576-.1204644 0-.2274487-.04498295-.3203111-.13578576l-.6975378-.68143946c-.0928624-.09163969-.1390796-.19625121-.1390796-.31383456 0-.11862947.0462172-.22324099.1390796-.31383457l3.2678057-3.74736699-3.2678057-3.36200741c-.0928624-.09059358-.1390796-.19520511-.1390796-.31383457 0-.11842025.0462172-.22303177.1390796-.31383457l.6975378-.68164868c.0928624-.09059358.1998467-.13641343.3203111-.13641343.1211062 0 .2280905.04581985.3209529.13641343zm-5.0973843 0 4.2858685 4.35749066c.0930763.0916397.1388656.19625122.1388656.31383457 0 .11862947-.0457893.22324099-.1388656.31383457l-4.2858685 4.74264101c-.0928624.09080281-.1998468.13578576-.320953.13578576-.1204644 0-.2274487-.04498295-.3203111-.13578576l-.6975378-.68143946c-.0928624-.09163969-.1390796-.19625121-.1390796-.31383456 0-.11862947.0462172-.22324099.1390796-.31383457l3.2678057-3.74736699-3.2678057-3.36200741c-.0928624-.09059358-.1390796-.19520511-.1390796-.31383457 0-.11842025.0462172-.22303177.1390796-.31383457l.6975378-.68164868c.0928624-.09059358.1998467-.13641343.3203111-.13641343.1211062 0 .2280906.04581985.320953.13641343z" fill="url(#a)" opacity=".397928"/><path d="m72 5c-11.0202676 2.66666667-22.6569608 2.66666667-34.9100794 0-12.2531187-2.66666667-24.6164256-2.66666667-37.0899206 0" stroke="url(#a)" stroke-dasharray="10 10 10 10" stroke-linecap="round" stroke-width="2"/></g></svg>