<svg height="86" viewBox="0 0 86 86" width="86" xmlns="http://www.w3.org/2000/svg" xmlns:xlink="http://www.w3.org/1999/xlink"><linearGradient id="a" x1="0%" x2="149.460671%" y1="0%" y2="71.875%"><stop offset="0" stop-color="#00eaf8"/><stop offset="1" stop-color="#6d42ef"/></linearGradient><g fill="none" fill-rule="evenodd"><circle cx="43" cy="43" fill="#fff" r="43"/><g stroke="url(#a)" stroke-linecap="round" stroke-linejoin="round" stroke-width="2"><path d="m38.8322222 46.812 8.3477778 4.776"/><path d="m47.1677778 38.412-8.3355556 4.776"/><path d="m50.3333333 40.2c-2.025044 0-3.6666666-1.6117749-3.6666666-3.6s1.6416226-3.6 3.6666666-3.6c2.0250441 0 3.6666667 1.6117749 3.6666667 3.6s-1.6416226 3.6-3.6666667 3.6zm-14.6666666 8.4c-2.0250441 0-3.6666667-1.6117749-3.6666667-3.6s1.6416226-3.6 3.6666667-3.6c2.025044 0 3.6666666 1.6117749 3.6666666 3.6s-1.6416226 3.6-3.6666666 3.6zm14.6666666 8.4c-2.025044 0-3.6666666-1.6117749-3.6666666-3.6s1.6416226-3.6 3.6666666-3.6c2.0250441 0 3.6666667 1.6117749 3.6666667 3.6s-1.6416226 3.6-3.6666667 3.6z"/></g></g></svg>