<svg height="86" viewBox="0 0 86 86" width="86" xmlns="http://www.w3.org/2000/svg" xmlns:xlink="http://www.w3.org/1999/xlink"><linearGradient id="a" x1="0%" x2="149.460671%" y1="0%" y2="71.875%"><stop offset="0" stop-color="#00eaf8"/><stop offset="1" stop-color="#6d42ef"/></linearGradient><g fill="none" fill-rule="evenodd"><circle cx="43" cy="43" fill="#fff" r="43"/><path d="m59.6466413 41.7542522c-1.4081711 0-2.5539266-1.1203187-2.5539266-2.4974015 0-1.3770045 1.1456755-2.4974015 2.5539266-2.4974015 1.4081711 0 2.5540067 1.1203187 2.5540067 2.4974015s-1.1458356 2.4974015-2.5540067 2.4974015m-10.7234009 10.486142c-1.4082512 0-2.5540067-1.1203187-2.5540067-2.4974015 0-1.3771612 1.1456755-2.4974798 2.5540067-2.4974798 1.4081711 0 2.5538466 1.1203186 2.5538466 2.4974798-.0000801 1.3770828-1.1456755 2.4974015-2.5538466 2.4974015m-10.8464808-10.486142c-1.4081711 0-2.5539266-1.1203187-2.5539266-2.4974015 0-1.3770045 1.1456755-2.4974015 2.5539266-2.4974015 1.4082512 0 2.5539267 1.1203187 2.5539267 2.4974015s-1.1456755 2.4974015-2.5539267 2.4974015m-10.723481 10.486142c-1.4082511 0-2.5539266-1.1203187-2.5539266-2.4973232 0-1.3770828 1.1456755-2.4974015 2.5539266-2.4974015 1.4082512 0 2.5539267 1.1203187 2.5539267 2.4974015 0 1.3770045-1.1455955 2.4973232-2.5539267 2.4973232m32.2933627-17.2403942c2.4004973 0 4.3533587 1.9094045 4.3533587 4.2567724 0 2.3472896-1.9527813 4.256929-4.3532786 4.256929-.8751721 0-1.6902858-.2548065-2.3735911-.6912038l-4.7034595 4.5992813c.4463546.6681036.7068482 1.4651766.7068482 2.3211355 0 2.3472896-1.9528614 4.2568507-4.3531985 4.2568507-2.4004973 0-4.3532786-1.9095611-4.3532786-4.2568507 0-.8247149.2418354-1.5949291.6587213-2.2478415l-4.777932-4.6728102c-.6833054.4366322-1.4985792.691517-2.3739915.691517-.8754124 0-1.6907662-.2548848-2.3741516-.691517l-4.7032193 4.5992029c.4464346.6682603.7070884 1.4654899.7070884 2.3216054 0 2.3473679-1.9527813 4.256929-4.3532786 4.256929-2.4004172 0-4.3532786-1.9095611-4.3532786-4.256929s1.9528614-4.2570073 4.3532786-4.2570073c.8753323 0 1.6904459.2548065 2.3736712.6912038l4.7032994-4.599203c-.4463546-.6682602-.7068483-1.4651766-.7068483-2.3211355 0-2.3472896 1.9528615-4.256929 4.3532786-4.256929 2.4004172 0 4.3532786 1.9096394 4.3532786 4.256929 0 .8559589-.2605737 1.6531102-.7070083 2.3212921l4.7516665 4.6472043c.6981998-.4661534 1.5412606-.7392834 2.4484639-.7392834.8755725 0 1.6907663.2548848 2.3741516.691517l4.7032994-4.5992029c-.4464346-.668182-.7070884-1.4654116-.7070884-2.3215271 0-2.3472896 1.9527813-4.256929 4.3531985-4.256929zm-23.7632172 10.8089804c.351302-.3435268.9208966-.3435268 1.2723588 0 .3513821.3436051.3513821.9006714.0000801 1.2441982l-1.8301019 1.7895969c-.1756911.1718025-.4059953.2577038-.6362195.2577038-.2302241 0-.4604483-.085823-.6361394-.2577038-.3514622-.3435268-.3514622-.9005931-.00008-1.2441982zm14.5964039-2.3291305c-.2302242 0-.4604484-.0859013-.6362195-.2576255-.3513821-.3435268-.3513821-.9005931 0-1.2441982l1.8301019-1.7895969c.3515423-.3436051.9209767-.3436051 1.2724389-.0000783.3513021.3436051.3513021.9005931 0 1.2441199l-1.8301819 1.7896752c-.1756911.1717242-.4058352.2577038-.6361394.2577038z" fill="url(#a)"/></g></svg>