<svg height="86" viewBox="0 0 86 86" width="86" xmlns="http://www.w3.org/2000/svg"><g fill="none"><circle cx="43" cy="43" fill="#02afde" r="43"/><path d="m42.513327 44.5172194-5.6035067 3.555051c-.4905407.3112153-1.1442026.1716066-1.4599947-.3118248s-.1741303-1.1276198.3164104-1.4388352l6.177426-3.9191643v-12.7123363l-11.0029709-6.2794853-10.828015 6.2748769v12.7255308l6.0056107 3.9178375c.4864725.3173567.6197847.9632736.297761 1.4426958s-.9774394.6108022-1.463912.2934456l-6.9521358-4.5353153v-15.0352336l12.9325483-7.4944622 12.5617651 7.1691018 10.8506135-6.326169c.3283372-.1914285.7351897-.1927714 1.064805-.0035145l12.0633023 6.9264456c.3261537.1872693.5269658.5326504.5269658.9063401v13.9646082c0 .3561354-.1825237.6878665-.4845428.8806414l-6.6619287 4.2522232c-.4905376.3131038-1.1441952.172648-1.4599853-.3137168-.31579-.4863649-.1741291-1.1344623.3164084-1.4475661l6.177386-3.9429458v-12.7894746l-11.0028997-6.3175891-10.8280999 6.3130431v12.7460656l5.6534981 3.7114804c.4864725.3193658.6197847.9693717.297761 1.451829-.3220237.4824572-.9774394.614669-1.463912.2953033zm11.402166 11.912049v-12.7999839l-6.006276-3.9475104c-.4862292-.3195649-.6190462-.9693346-.2966551-1.4513013s.9779074-.6136194 1.4641366-.2940545l6.4788732 4.258116c.295147.1939797.4725973.5216519.4725973.8726779v13.9610362c0 .371105-.1981684.7144866-.5208949.9025946l-11.8802817 6.9246739c-.3283393.1913795-.7351945.192722-1.0648119.0035136l-12.0633803-6.9246739c-.3261558-.1872214-.5269692-.5325142-.5269692-.9061082v-13.9610362c0-.3560444.1825248-.6876906.4845459-.8804162l6.6619718-4.2511355c.4905407-.3130237 1.1442026-.1726038 1.4599947.3136366.3157921.4862405.1741303 1.1341721-.3164104 1.4471958l-6.177426 3.9419372v12.7862032l11.0029709 6.3159731z" fill="#fff"/></g></svg>