<svg height="86" viewBox="0 0 86 86" width="86" xmlns="http://www.w3.org/2000/svg" xmlns:xlink="http://www.w3.org/1999/xlink"><linearGradient id="a" x1="0%" x2="149.460671%" y1="0%" y2="71.875%"><stop offset="0" stop-color="#00eaf8"/><stop offset="1" stop-color="#6d42ef"/></linearGradient><g fill="none" fill-rule="evenodd"><circle cx="43" cy="43" fill="#fff" r="43"/><g transform="translate(32.376471 30.352941)"><path d="m0 19.2235294v3.642353c0 1.3410773 1.10729053 2.4282352 2.47320261 2.4282352h17.31241829c1.3659121 0 2.4732026-1.0871579 2.4732026-2.4282352v-3.642353" stroke="url(#a)" stroke-linecap="round" stroke-linejoin="round" stroke-width="2"/><path d="m12.1411765 15.7187517 3.3057622-3.2792454c.40625-.4029913 1.0589235-.3969415 1.4577871.0135126.3988637.4104541.3928758 1.0698819-.0133742 1.4728732l-5.0397334 4.9993078c-.4009892.3977727-1.0434237.3977727-1.4444129 0l-5.03973342-4.9993078c-.40624998-.4029913-.41223782-1.0624191-.01337419-1.4728732.39886362-.4104541 1.05153716-.4165039 1.45778715-.0135126l3.30576226 3.2792454v-14.69622354c0-.56472671.4529824-1.02252816 1.0117647-1.02252816.5587822 0 1.0117647.45780145 1.0117647 1.02252816z" fill="url(#a)" fill-rule="nonzero"/></g></g></svg>