<?xml version="1.0" encoding="UTF-8"?>
<svg width="86px" height="86px" viewBox="0 0 86 86" version="1.1" xmlns="http://www.w3.org/2000/svg" xmlns:xlink="http://www.w3.org/1999/xlink">
    <!-- Generator: sketchtool 46.2 (44496) - http://www.bohemiancoding.com/sketch -->
    <title>7F04F6AB-FC30-4EFB-AC62-634974AE5611</title>
    <desc>Created with sketchtool.</desc>
    <defs></defs>
    <g id="Page-1" stroke="none" stroke-width="1" fill="none" fill-rule="evenodd">
        <g id="icons" transform="translate(-759.000000, -589.000000)">
            <g id="icon1" transform="translate(759.000000, 589.000000)">
                <g>
                    <circle id="Oval-4" fill="#02AFDE" cx="43" cy="43" r="43"></circle>
                    <g id="download" transform="translate(32.376471, 30.352941)">
                        <path d="M0,19.2235294 L0,22.8658824 C0,24.2069597 1.10729053,25.2941176 2.47320261,25.2941176 L19.7856209,25.2941176 C21.151533,25.2941176 22.2588235,24.2069597 22.2588235,22.8658824 L22.2588235,19.2235294" id="Shape" stroke="#FFFFFF" stroke-width="2" stroke-linecap="round" stroke-linejoin="round"></path>
                        <path d="M12.1411765,15.7187517 L15.4469387,12.4395063 C15.8531887,12.036515 16.5058622,12.0425648 16.9047258,12.4530189 C17.3035895,12.863473 17.2976016,13.5229008 16.8913516,13.9258921 L11.8516182,18.9251999 C11.450629,19.3229726 10.8081945,19.3229726 10.4072053,18.9251999 L5.36747188,13.9258921 C4.9612219,13.5229008 4.95523406,12.863473 5.35409769,12.4530189 C5.75296131,12.0425648 6.40563485,12.036515 6.81188484,12.4395063 L10.1176471,15.7187517 L10.1176471,1.02252816 C10.1176471,0.457801451 10.5706295,0 11.1294118,0 C11.688194,0 12.1411765,0.457801451 12.1411765,1.02252816 L12.1411765,15.7187517 Z" id="Combined-Shape" fill="#FFFFFF" fill-rule="nonzero"></path>
                    </g>
                </g>
            </g>
        </g>
    </g>
</svg>