<svg height="84" viewBox="0 0 90 84" width="90" xmlns="http://www.w3.org/2000/svg" xmlns:xlink="http://www.w3.org/1999/xlink"><defs><ellipse id="a" cx="49.3" cy="36.9" rx="29.75" ry="28.7"/><filter id="b" height="190.6%" width="187.4%" x="-43.7%" y="-38.3%"><feOffset dy="4" in="SourceAlpha" result="shadowOffsetOuter1"/><feGaussianBlur in="shadowOffsetOuter1" result="shadowBlurOuter1" stdDeviation="8"/><feColorMatrix in="shadowBlurOuter1" values="0 0 0 0 0.254901961 0 0 0 0 0.458823529 0 0 0 0 0.647058824 0 0 0 0.24 0"/></filter><linearGradient id="c" x1="0%" x2="149.461%" y1="0%" y2="71.875%"><stop offset="0" stop-color="#00eaf8"/><stop offset="1" stop-color="#6d42ef"/></linearGradient></defs><g fill="none" transform="translate(-4 2)"><use fill="#000" filter="url(#b)" xlink:href="#a"/><use fill="#fff" fill-rule="evenodd" xlink:href="#a"/><path d="m35.5375857 49.7513536-6.7634326 4.1739529c-.5920827.3653951-1.3810526.2014818-1.7622136-.3661106s-.2101753-1.3239282.3819074-1.6893233l7.4561531-4.6014552v-14.9254385l-13.2805858-7.3726866-13.0694142 7.367276v14.94093l7.2487721 4.5998974c.5871724.3726055.7480802 1.1309707.3593976 1.6938559-.3886826.5628853-1.1797694.7171374-1.7669418.3445319l-8.3912279-5.3248725v-17.6527311l15.6095858-8.7991799 15.1620505 8.4171773 13.0966904-7.4274976c.3963031-.2247545.887374-.2263311 1.2852198-.0041263l14.5604058 8.1322769c.3936675.2198711.6360477.6253799.6360477 1.0641256v16.3957195c0 .4181354-.2203061.8076179-.5848431 1.0339531l-8.040948 4.9924966c-.5920788.3676123-1.3810436.2027044-1.7622022-.3683321-.3811586-.5710366-.2101739-1.3319618.3819049-1.6995741l7.4561049-4.6293768v-15.0160059l-13.2805-7.417424-13.0695165 7.4120865v14.9650397l6.8237721 4.3576155c.5871724.3749644.7480802 1.1381305.3593976 1.7045792s-1.1797694.7216774-1.7669418.346713zm13.7624143 13.9858283v-15.0283447l-7.249575-4.6347361c-.5868787-.3751982-.7471888-1.1380869-.3580628-1.7039596.3891261-.5658728 1.1803342-.720445 1.7672128-.3452468l7.82 4.9994154c.3562425.2277498.570425.6124667.570425 1.0246031v16.3915257c0 .435711-.2391893.8388722-.6287202 1.0597281l-14.3395 8.1301967c-.3963055.224697-.8873797.2262732-1.285228.0041253l-14.5605-8.1301967c-.39367-.2198149-.6360518-.62522-.6360518-1.0638534v-16.3915257c0-.4180284.2203075-.8074113.5848469-1.0336886l8.041-4.9912196c.5920827-.3675182 1.3810526-.2026525 1.7622136.368238.381161.5708904.2101753 1.331621-.3819074 1.6991393l-7.4561531 4.6281927v15.0121649l13.2805858 7.4155266z" fill="url(#c)"/></g></svg>