<svg height="510" viewBox="0 0 1236 510" width="1236" xmlns="http://www.w3.org/2000/svg"><g fill="none" fill-rule="evenodd" opacity=".768059" stroke="#fff" transform="translate(-1 -7)"><g stroke-width="1.2"><rect height="298" opacity=".171586" rx="18.000001" transform="matrix(-.61290705 -.79015501 .79015501 -.61290705 1501.023186 1157.343671)" width="298" x="885" y="62"/><rect height="298" opacity=".265035" rx="18.000001" transform="matrix(-.66131187 -.75011107 .75011107 -.66131187 1509.683677 1103.648317)" width="298" x="855" y="62"/><rect height="298" opacity=".689213" rx="18.000001" transform="matrix(-.70710678 -.70710678 .70710678 -.70710678 1515.229581 1049.628642)" width="298" x="826" y="62"/><rect height="298" opacity=".042827" rx="18.000001" transform="matrix(-.75011107 -.66131187 .66131187 -.75011107 1514.318157 994.213148)" width="298" x="796" y="62"/><rect height="298" opacity=".222976" rx="18.000001" transform="matrix(-.79015501 -.61290705 .61290705 -.79015501 1508.668448 938.532662)" width="298" x="766" y="62"/><rect height="298" opacity=".661485" rx="18.000001" transform="matrix(-.82708057 -.56208338 .56208338 -.82708057 1498.366716 882.957791)" width="298" x="736" y="62"/><rect height="298" opacity=".17958" rx="18.000001" transform="matrix(-.86074203 -.50904142 .50904142 -.86074203 1483.526694 827.846978)" width="298" x="706" y="62"/><rect height="298" opacity=".795666" rx="18.000001" transform="matrix(-.89100652 -.4539905 .4539905 -.89100652 1466.179394 773.998529)" width="298" x="677" y="62"/><rect height="298" opacity=".045495" rx="18.000001" transform="matrix(-.91775463 -.39714789 .39714789 -.91775463 1440.816722 720.378799)" width="298" x="646" y="62"/><rect height="298" opacity=".126288" rx="18.000001" transform="matrix(-.96029369 -.27899111 .27899111 -.96029369 1383.909029 618.959422)" width="298" x="587" y="62"/><rect height="298" opacity=".335327" rx="18.000001" transform="matrix(-.97591676 -.21814324 .21814324 -.97591676 1348.96901 570.927565)" width="298" x="557" y="62"/><rect height="298" opacity=".252807" rx="18.000001" transform="matrix(-.98768834 -.15643447 .15643447 -.98768834 1312.657334 525.308373)" width="298" x="528" y="62"/><rect height="298" opacity=".280735" rx="18.000001" transform="matrix(-.99556196 -.09410831 .09410831 -.99556196 1269.276175 481.857545)" width="298" x="497" y="62"/></g><rect height="297" rx="18.000001" transform="matrix(-.94088077 -.33873792 .33873792 -.94088077 1415.240968 668.999089)" width="297" x="617.5" y="62.5"/><rect height="298.591549" opacity=".171586" rx="18.000001" stroke-width="1.2" transform="matrix(-.61290705 -.79015501 .79015501 -.61290705 663.715787 847.608655)" width="298.431373" x="390.261805" y="111.933049"/><rect height="298.591549" opacity=".265035" rx="18.000001" stroke-width="1.2" transform="matrix(-.66131187 -.75011107 .75011107 -.66131187 646.768085 828.924052)" width="298.431373" x="361.305136" y="119.152757"/><rect height="298.591549" opacity=".689213" rx="18.000001" stroke-width="1.2" transform="matrix(-.70710678 -.70710678 .70710678 -.70710678 627.154551 811.112401)" width="298.431373" x="332.348468" y="126.372465"/><rect height="298.591549" opacity=".042827" rx="18.000001" stroke-width="1.2" transform="matrix(-.75011107 -.66131187 .66131187 -.75011107 605.036213 794.400029)" width="298.431373" x="303.391799" y="133.592174"/><rect height="298.591549" opacity=".222976" rx="18.000001" stroke-width="1.2" transform="matrix(-.79015501 -.61290705 .61290705 -.79015501 580.591604 778.99625)" width="298.431373" x="274.435131" y="140.811882"/><rect height="298.591549" opacity=".661485" rx="18.000001" stroke-width="1.2" transform="matrix(-.82708057 -.56208338 .56208338 -.82708057 554.015241 765.092073)" width="298.431373" x="245.478462" y="148.03159"/><rect height="298.591549" opacity=".17958" rx="18.000001" stroke-width="1.2" transform="matrix(-.86074203 -.50904142 .50904142 -.86074203 525.516027 752.859063)" width="298.431373" x="216.521794" y="155.251299"/><rect height="298.591549" opacity=".795666" rx="18.000001" stroke-width="1.2" transform="matrix(-.89100652 -.4539905 .4539905 -.89100652 495.315554 742.448307)" width="298.431373" x="187.565125" y="162.471007"/><rect height="298.591549" opacity=".045495" rx="18.000001" stroke-width="1.2" transform="matrix(-.91775463 -.39714789 .39714789 -.91775463 463.646362 733.989526)" width="298.431373" x="158.608457" y="169.690715"/><rect height="298.591549" opacity=".126288" rx="18.000001" stroke-width="1.2" transform="matrix(-.96029369 -.27899111 .27899111 -.96029369 396.875712 723.335592)" width="298.431373" x="100.695119" y="184.130132"/><rect height="298.591549" opacity=".335327" rx="18.000001" stroke-width="1.2" transform="matrix(-.97591676 -.21814324 .21814324 -.97591676 362.277444 721.287032)" width="298.431373" x="71.738451" y="191.34984"/><rect height="298.591549" opacity=".252807" rx="18.000001" stroke-width="1.2" transform="matrix(-.98768834 -.15643447 .15643447 -.98768834 327.213005 721.482868)" width="298.431373" x="42.781782" y="198.569549"/><rect height="298.591549" opacity=".280735" rx="18.000001" stroke-width="1.2" transform="matrix(-.99556196 -.09410831 .09410831 -.99556196 291.941566 723.937679)" width="298.431373" x="13.825114" y="205.789257"/><rect height="297.591549" rx="18.000001" transform="matrix(-.94088077 -.33873792 .33873792 -.94088077 430.750108 727.590325)" width="297.431373" x="130.151788" y="177.410424"/></g></svg>