<svg height="511" viewBox="0 0 1236 511" width="1236" xmlns="http://www.w3.org/2000/svg"><g fill="none" fill-rule="evenodd" opacity=".768059" stroke="#fff" transform="translate(-1 -6)"><g stroke-width="1.2"><rect height="298" opacity=".171586" rx="18.000001" transform="matrix(-.61290705 -.79015501 .79015501 -.61290705 1501.069464 1157.478839)" width="298" x="885.056248" y="62.056248"/><rect height="298" opacity=".265035" rx="18.000001" transform="matrix(-.66131187 -.75011107 .75011107 -.66131187 1509.958875 1104.376608)" width="298" x="855.302017" y="62.302017"/><rect height="298" opacity=".689213" rx="18.000001" transform="matrix(-.70710678 -.70710678 .70710678 -.70710678 1514.947402 1048.947402)" width="298" x="825.717821" y="61.717821"/><rect height="298" opacity=".042827" rx="18.000001" transform="matrix(-.75011107 -.66131187 .66131187 -.75011107 1514.646993 994.941439)" width="298" x="796.302017" y="62.302017"/><rect height="298" opacity=".222976" rx="18.000001" transform="matrix(-.79015501 -.61290705 .61290705 -.79015501 1508.734666 938.667829)" width="298" x="766.056248" y="62.056248"/><rect height="298" opacity=".661485" rx="18.000001" transform="matrix(-.82708057 -.56208338 .56208338 -.82708057 1498.348283 882.922978)" width="298" x="735.985429" y="61.985429"/><rect height="298" opacity=".17958" rx="18.000001" transform="matrix(-.86074203 -.50904142 .50904142 -.86074203 1483.6588 828.078584)" width="298" x="706.097733" y="62.097733"/><rect height="298" opacity=".795666" rx="18.000001" transform="matrix(-.89100652 -.4539905 .4539905 -.89100652 1466.760748 774.947214)" width="298" x="677.404557" y="62.404557"/><rect height="298" opacity=".045495" rx="18.000001" transform="matrix(-.91775463 -.39714789 .39714789 -.91775463 1440.695796 720.194706)" width="298" x="645.920475" y="61.920475"/><rect height="298" opacity=".126288" rx="18.000001" transform="matrix(-.96029369 -.27899111 .27899111 -.96029369 1383.326347 618.183362)" width="298" x="586.653434" y="61.653434"/><rect height="298" opacity=".335327" rx="18.000001" transform="matrix(-.97591676 -.21814324 .21814324 -.97591676 1348.819494 570.740938)" width="298" x="556.91494" y="61.914941"/><rect height="298" opacity=".252807" rx="18.000001" transform="matrix(-.98768834 -.15643447 .15643447 -.98768834 1313.525895 526.325326)" width="298" x="528.474298" y="62.474298"/><rect height="298" opacity=".280735" rx="18.000001" transform="matrix(-.99556196 -.09410831 .09410831 -.99556196 1269.962355 482.611646)" width="298" x="497.360871" y="62.360871"/></g><rect height="297" rx="18.000001" transform="matrix(-.94088077 -.33873792 .33873792 -.94088077 1414.701342 668.231279)" width="297" x="617.163185" y="62.163185"/><rect height="299" opacity=".171586" rx="18.000001" stroke-width="1.2" transform="matrix(-.61290705 -.79015501 .79015501 -.61290705 663.484986 847.853853)" width="298" x="390.440028" y="111.958745"/><rect height="299" opacity=".265035" rx="18.000001" stroke-width="1.2" transform="matrix(-.66131187 -.75011107 .75011107 -.66131187 646.85195 829.383665)" width="298" x="361.679588" y="119.185001"/><rect height="299" opacity=".689213" rx="18.000001" stroke-width="1.2" transform="matrix(-.70710678 -.70710678 .70710678 -.70710678 626.036368 811.47171)" width="298" x="332.090939" y="126.579478"/><rect height="299" opacity=".042827" rx="18.000001" stroke-width="1.2" transform="matrix(-.75011107 -.66131187 .66131187 -.75011107 605.273514 794.046836)" width="298" x="303.672477" y="133.140921"/><rect height="299" opacity=".222976" rx="18.000001" stroke-width="1.2" transform="matrix(-.79015501 -.61290705 .61290705 -.79015501 579.96409 779.410392)" width="298" x="274.425833" y="140.871363"/><rect height="299" opacity=".661485" rx="18.000001" stroke-width="1.2" transform="matrix(-.82708057 -.56208338 .56208338 -.82708057 553.33659 764.931147)" width="298" x="245.355871" y="147.776112"/><rect height="299" opacity=".17958" rx="18.000001" stroke-width="1.2" transform="matrix(-.86074203 -.50904142 .50904142 -.86074203 524.994475 752.54646)" width="298" x="216.470667" y="154.863726"/><rect height="299" opacity=".795666" rx="18.000001" stroke-width="1.2" transform="matrix(-.89100652 -.4539905 .4539905 -.89100652 495.221734 742.424245)" width="298" x="187.781478" y="162.145973"/><rect height="299" opacity=".045495" rx="18.000001" stroke-width="1.2" transform="matrix(-.91775463 -.39714789 .39714789 -.91775463 464.320381 734.711294)" width="298" x="159.302701" y="169.637781"/><rect height="299" opacity=".126288" rx="18.000001" stroke-width="1.2" transform="matrix(-.96029369 -.27899111 .27899111 -.96029369 397.058452 722.505064)" width="298" x="101.049331" y="183.325206"/><rect height="299" opacity=".335327" rx="18.000001" stroke-width="1.2" transform="matrix(-.97591676 -.21814324 .21814324 -.97591676 362.82956 720.55804)" width="298" x="72.318685" y="190.565854"/><rect height="299" opacity=".252807" rx="18.000001" stroke-width="1.2" transform="matrix(-.98768834 -.15643447 .15643447 -.98768834 326.698703 721.31209)" width="298" x="42.886175" y="198.105942"/><rect height="299" opacity=".280735" rx="18.000001" stroke-width="1.2" transform="matrix(-.99556196 -.09410831 .09410831 -.99556196 291.107305 723.079534)" width="298" x="13.780854" y="204.975023"/><rect height="298" rx="18.000001" transform="matrix(-.94088077 -.33873792 .33873792 -.94088077 431.006861 727.251807)" width="297" x="130.551818" y="176.857176"/></g></svg>