<svg height="157" viewBox="0 0 149 157" width="149" xmlns="http://www.w3.org/2000/svg" xmlns:xlink="http://www.w3.org/1999/xlink"><linearGradient id="a" x1="0%" x2="149.460671%" y1="0%" y2="71.875%"><stop offset="0" stop-color="#00eaf8"/><stop offset="1" stop-color="#6d42ef"/></linearGradient><g fill="none" fill-rule="evenodd" transform="translate(2)"><path d="m0 115v24c0 8.836556 7.21319014 16 16.1111111 16h112.7777779c8.897921 0 16.111111-7.163444 16.111111-16v-24" stroke="url(#a)" stroke-linecap="round" stroke-linejoin="round" stroke-width="4"/><path d="m126.321131 63h-112.321131c-1.1045695 0-2-.8954305-2-2s.8954305-2 2-2h112.321131l-36.729943-36.5693676c-.7882507-.7848046-.7882507-2.0572243 0-2.8420289.7882507-.7848047 2.0662576-.7848047 2.8545083 0l39.9631157 39.7884052c.419857.4180211.616079.9743828.588668 1.5217128.001673.0335485.00252.0673146.00252.1012785s-.000847.06773-.00252.1012785c.027411.54733-.168811 1.1036917-.588668 1.5217128l-39.9631157 39.7884057c-.7882507.784804-2.0662576.784804-2.8545083 0-.7882507-.784805-.7882507-2.057225 0-2.8420294z" fill="url(#a)" transform="matrix(0 1 -1 0 133.5 -11.5)"/></g></svg>