<svg height="89" viewBox="0 0 61 89" width="61" xmlns="http://www.w3.org/2000/svg"><path d="m149.539609 171.496094c0 5.351589-1.621078 9.902325-4.863281 13.652344-3.242204 3.750018-7.79294 6.328117-13.652344 7.734374v.351563c6.914097.859379 12.14842 2.958968 15.703125 6.298828 3.554705 3.339861 5.332031 7.841769 5.332031 13.505859 0 8.242229-2.988251 14.658181-8.964844 19.248047-5.976592 4.589867-14.511663 6.884766-25.605468 6.884766-9.296922 0-17.5390269-1.542953-24.7265629-4.628906v-15.410157c3.3203291 1.679696 6.9726364 3.04687 10.9570309 4.101563 3.984395 1.054693 7.929668 1.582031 11.835938 1.582031 5.976592 0 10.390611-1.015615 13.242187-3.046875 2.851577-2.03126 4.277344-5.292946 4.277344-9.785156 0-4.023458-1.640608-6.874992-4.921875-8.554687-3.281266-1.679696-8.515589-2.519532-15.703125-2.519532h-6.503906v-13.886718h6.621094c6.640658 0 11.494125-.869132 14.560546-2.607422 3.066422-1.73829 4.59961-4.716776 4.59961-8.935547 0-6.484408-4.06246-9.726563-12.1875-9.726563-2.812514 0-5.673814.468746-8.583985 1.40625-2.91017.937505-6.14256 2.558582-9.697265 4.863282l-8.3789064-12.480469c7.8125394-5.625028 17.1288524-8.4375 27.9492184-8.4375 8.867232 0 15.869115 1.796857 21.00586 5.390625 5.136744 3.593768 7.705078 8.593718 7.705078 15z" fill="#caf4ff" fill-rule="evenodd" opacity=".4" transform="translate(-92 -151)"/></svg>