<svg height="120" viewBox="0 0 112 120" width="112" xmlns="http://www.w3.org/2000/svg" xmlns:xlink="http://www.w3.org/1999/xlink"><linearGradient id="a" x1="0%" x2="149.460671%" y1="0%" y2="71.875%"><stop offset="0" stop-color="#00eaf8"/><stop offset="1" stop-color="#6d42ef"/></linearGradient><g fill="url(#a)" fill-rule="evenodd"><path d="m71.5191245 63.9158105-30.1741554-52.2631703c-2.1860131 1.1785255-4.6873838 1.8473598-7.3449691 1.8473598-8.5604136 0-15.5-6.93958638-15.5-15.5 0-8.5604136 6.9395864-15.5 15.5-15.5s15.5 6.9395864 15.5 15.5c0 4.45712942-1.8812849 8.47486121-4.8931109 11.30245145l30.8349268 53.40765995c.8321932-.1382042 1.6867912-.2101114 2.5581841-.2101114 8.5604136 0 15.5 6.9395864 15.5 15.5s-6.9395864 15.5-15.5 15.5-15.5-6.9395864-15.5-15.5c0-6.2467146 3.6952806-11.6303503 9.0191245-14.0841895zm-37.5191245-53.4158105c6.9035594 0 12.5-5.59644063 12.5-12.5s-5.5964406-12.5-12.5-12.5-12.5 5.59644063-12.5 12.5 5.5964406 12.5 12.5 12.5zm44 80c6.9035594 0 12.5-5.5964406 12.5-12.5s-5.5964406-12.5-12.5-12.5-12.5 5.5964406-12.5 12.5 5.5964406 12.5 12.5 12.5z" transform="matrix(0 1 -1 0 94 -18)"/><path d="m71.5191245 107.91581-30.1741554-52.2631698c-2.1860131 1.1785255-4.6873838 1.8473598-7.3449691 1.8473598-8.5604136 0-15.5-6.9395864-15.5-15.5s6.9395864-15.5 15.5-15.5 15.5 6.9395864 15.5 15.5c0 4.4571294-1.8812849 8.4748612-4.8931109 11.3024515l30.8349268 53.4076595c.8321932-.138204 1.6867912-.210111 2.5581841-.210111 8.5604136 0 15.5 6.939586 15.5 15.5s-6.9395864 15.5-15.5 15.5-15.5-6.939586-15.5-15.5c0-6.246715 3.6952806-11.63035 9.0191245-14.08419zm-37.5191245-53.41581c6.9035594 0 12.5-5.5964406 12.5-12.5s-5.5964406-12.5-12.5-12.5-12.5 5.5964406-12.5 12.5 5.5964406 12.5 12.5 12.5zm44 80c6.9035594 0 12.5-5.596441 12.5-12.5s-5.5964406-12.5-12.5-12.5-12.5 5.596441-12.5 12.5 5.5964406 12.5 12.5 12.5z" transform="matrix(0 -1 -1 0 138 138)"/></g></svg>