<svg height="77" viewBox="0 0 162 77" width="162" xmlns="http://www.w3.org/2000/svg" xmlns:xlink="http://www.w3.org/1999/xlink"><linearGradient id="a" x1="0%" x2="149.460671%" y1="0%" y2="71.875%"><stop offset="0" stop-color="#00eaf8"/><stop offset="1" stop-color="#6d42ef"/></linearGradient><path d="m131.018734 28.6589355c-2.510015-3.0289839-4.018734-6.9177696-4.018734-11.1589355 0-9.66498312 7.835017-17.5 17.5-17.5s17.5 7.83501688 17.5 17.5c0 9.6649831-7.835017 17.5-17.5 17.5-3.982361 0-7.654036-1.3302062-10.594941-3.5705355l-17.053606 17.053606c1.984387 2.8377824 3.148547 6.2914038 3.148547 10.0169295 0 9.6649831-7.835017 17.5-17.5 17.5-9.6649831 0-17.5-7.8350169-17.5-17.5 0-3.8556744 1.2469196-7.4201151 3.3595047-10.3120682l-16.906241-16.906241c-3.1281865 2.9266539-7.3314933 4.7183092-11.9532637 4.7183092-4.2380537 0-8.1242443-1.5065053-11.1522661-4.0132101l-16.9182694 16.9182694c2.2403293 2.9409052 3.5705355 6.6125798 3.5705355 10.5949407 0 9.6649831-7.8350169 17.5-17.5 17.5-9.66498312 0-17.5-7.8350169-17.5-17.5s7.83501688-17.5 17.5-17.5c4.2411659 0 8.1299516 1.5087186 11.1589355 4.0187341l16.9168738-16.9168739c-2.2435154-2.9420645-3.5758093-6.6163754-3.5758093-10.6018602 0-9.66498312 7.8350169-17.5 17.5-17.5s17.5 7.83501688 17.5 17.5c0 3.5981402-1.0859102 6.9426525-2.9478833 9.7236896l17.0213375 17.0213375c3.0658968-2.645354 7.0594095-4.2450271 11.4265458-4.2450271 4.496061 0 8.596113 1.6955172 11.695637 4.4820324zm-86.8220349 23.8159382 7.7781746-7.7781746c.7810486-.7810485 2.0473786-.7810485 2.8284272 0 .7810485.7810486.7810485 2.0473786 0 2.8284272l-7.7781746 7.7781746c-.7810486.7810485-2.0473786.7810485-2.8284272 0-.7810485-.7810486-.7810485-2.0473786 0-2.8284272zm62.9999999-22 7.778175-7.7781746c.781048-.7810485 2.047378-.7810485 2.828427 0 .781048.7810486.781048 2.0473786 0 2.8284272l-7.778175 7.7781746c-.781048.7810485-2.047378.7810485-2.828427 0-.781048-.7810486-.781048-2.0473786 0-2.8284272zm-89.696699 43.5251263c8.0081289 0 14.5-6.4918711 14.5-14.5s-6.4918711-14.5-14.5-14.5c-8.00812887 0-14.5 6.4918711-14.5 14.5s6.49187113 14.5 14.5 14.5zm42-41c8.0081289 0 14.5-6.4918711 14.5-14.5s-6.4918711-14.5-14.5-14.5-14.5 6.4918711-14.5 14.5 6.4918711 14.5 14.5 14.5zm43 40c8.008129 0 14.5-6.4918711 14.5-14.5s-6.491871-14.5-14.5-14.5c-8.0081289 0-14.5 6.4918711-14.5 14.5s6.4918711 14.5 14.5 14.5zm42-41c8.008129 0 14.5-6.4918711 14.5-14.5 0-8.00812887-6.491871-14.5-14.5-14.5s-14.5 6.49187113-14.5 14.5c0 8.0081289 6.491871 14.5 14.5 14.5z" fill="url(#a)" fill-rule="evenodd"/></svg>