<svg height="100" viewBox="0 0 100 100" width="100" xmlns="http://www.w3.org/2000/svg" xmlns:xlink="http://www.w3.org/1999/xlink"><defs><circle id="a" cx="35" cy="35" r="35"/><filter id="b" height="174.3%" width="174.3%" x="-37.1%" y="-31.4%"><feOffset dx="0" dy="4" in="SourceAlpha" result="shadowOffsetOuter1"/><feGaussianBlur in="shadowOffsetOuter1" result="shadowBlurOuter1" stdDeviation="8"/><feColorMatrix in="shadowBlurOuter1" type="matrix" values="0 0 0 0 0.254901961   0 0 0 0 0.458823529   0 0 0 0 0.647058824  0 0 0 0.24 0"/></filter><linearGradient id="c" x1="0%" x2="149.460671%" y1="0%" y2="71.875%"><stop offset="0" stop-color="#00eaf8"/><stop offset="1" stop-color="#6d42ef"/></linearGradient></defs><g fill="none" transform="translate(15 15)"><use fill="#000" filter="url(#b)" xlink:href="#a"/><use fill="#fff" fill-rule="evenodd" xlink:href="#a"/><path d="m24.6 17.95c-.3589851 0-.65.2910149-.65.65v32.5c0 .3589851.2910149.65.65.65h20.8c.3589851 0 .65-.2910149.65-.65v-32.5c0-.3589851-.2910149-.65-.65-.65zm0-1.95h20.8c1.4359403 0 2.6 1.1640597 2.6 2.6v32.5c0 1.4359403-1.1640597 2.6-2.6 2.6h-20.8c-1.4359403 0-2.6-1.1640597-2.6-2.6v-32.5c0-1.4359403 1.1640597-2.6 2.6-2.6zm-.65 7.15v1.95h22.1v-1.95zm4.225-3.25c-.5384776 0-.975.4365224-.975.975s.4365224.975.975.975h7.15c.5384776 0 .975-.4365224.975-.975s-.4365224-.975-.975-.975zm11.05 0c-.5384776 0-.975.4365224-.975.975s.4365224.975.975.975h2.6c.5384776 0 .975-.4365224.975-.975s-.4365224-.975-.975-.975zm-15.275 24.7v1.95h22.1v-1.95zm11.05 5.85c.7179702 0 1.3-.5820298 1.3-1.3s-.5820298-1.3-1.3-1.3-1.3.5820298-1.3 1.3.5820298 1.3 1.3 1.3z" fill="url(#c)"/></g></svg>