<svg height="27" viewBox="0 0 144 27" width="144" xmlns="http://www.w3.org/2000/svg"><path d="m375.43534 490.395973c-.290228-.290829-.43534-.648767-.43534-1.073825v-14.395974c0-.425058.145112-.788589.43534-1.090604.290228-.302014.647427-.45302 1.071607-.45302s.78696.151006 1.08835.45302c.301391.302015.452085.665546.452085 1.090604v1.442954c1.562767-2.102919 3.315273-3.154363 5.25757-3.154363h.167438c.42418 0 .775798.145413 1.054863.436242.279066.290829.418597.648767.418597 1.073825s-.145112.771811-.435341 1.040269c-.290228.268457-.658589.402684-1.105094.402684h-.167439c-1.071612 0-2.053908.262861-2.946918.788591s-1.640895 1.247199-2.243676 2.164429v10.201343c0 .425058-.150694.782996-.452085 1.073825-.30139.290829-.66417.436242-1.08835.436242s-.781379-.145413-1.071607-.436242zm14.014607 0c-.837197-.402686-1.501364-.989929-1.992519-1.761745-.491156-.771816-.73673-1.661069-.73673-2.667785 0-1.655489.653004-2.975387 1.959031-3.959732s3.220389-1.47651 5.743142-1.47651h4.052013v-.268456c0-1.476517-.36278-2.539147-1.08835-3.187919-.725571-.648773-1.85856-.973155-3.399003-.973155-.848359 0-1.601825.067114-2.26042.201342-.658595.134229-1.389736.33557-2.193445.604027-.178602.044743-.323714.067114-.43534.067114-.334879 0-.625103-.123041-.870681-.369127s-.368365-.548097-.368365-.90604c0-.60403.290224-1.029082.870681-1.275168 1.897646-.805373 3.828751-1.208054 5.793374-1.208054 1.540442 0 2.840868.313196 3.901318.939597 1.060449.626402 1.841821 1.437356 2.344139 2.432886.502318.995531.753474 2.074939.753474 3.238255v9.496645c0 .425058-.150693.782996-.452084 1.073825s-.664171.436242-1.088351.436242-.781378-.145413-1.071607-.436242c-.290228-.290829-.43534-.648767-.43534-1.073825v-.872484c-1.652068 1.700233-3.75061 2.550336-6.295689 2.550336-.982311 0-1.892052-.20134-2.729248-.604027zm6.714285-2.802013c.915336-.480987 1.685545-1.079415 2.310652-1.795302v-2.818792h-3.65016c-3.371113 0-5.056644.88366-5.056644 2.651006 0 .805374.27348 1.454137.820449 1.946309.546968.492173 1.456709.738255 2.729248.738255.982311 0 1.93112-.24049 2.846455-.721476zm10.916994 2.802013c-.290229-.290829-.435341-.648767-.435341-1.073825v-21.778524c0-.425058.145112-.788589.435341-1.090604.290228-.302015.647426-.45302 1.071606-.45302s.78696.151005 1.088351.45302.452084.665546.452084 1.090604v13.724832l7.970075-7.38255c.334878-.290829.669752-.436242 1.004631-.436242.513481 0 .887423.145413 1.121838.436242s.351621.637582.351621 1.040268c0 .380316-.189762.760625-.569291 1.14094l-4.82223 4.328859 6.061275 8.053691c.223253.29083.334877.59284.334877.906041 0 .447429-.145112.805367-.43534 1.073825s-.658589.402685-1.105094.402685c-.223253 0-.446502-.055928-.669754-.167785-.223253-.111858-.413015-.268456-.569291-.469799l-5.759886-7.852349-2.913431 2.651007v4.328859c0 .425058-.150693.782996-.452084 1.073825s-.664171.436242-1.088351.436242-.781378-.145413-1.071606-.436242zm19.104738 0c-.837197-.402686-1.501364-.989929-1.992519-1.761745-.491156-.771816-.73673-1.661069-.73673-2.667785 0-1.655489.653004-2.975387 1.959031-3.959732 1.306028-.984345 3.220389-1.47651 5.743142-1.47651h4.052013v-.268456c0-1.476517-.36278-2.539147-1.08835-3.187919-.725571-.648773-1.85856-.973155-3.399003-.973155-.848359 0-1.601825.067114-2.26042.201342-.658595.134229-1.389736.33557-2.193445.604027-.178602.044743-.323714.067114-.43534.067114-.334879 0-.625103-.123041-.870681-.369127-.245577-.246086-.368365-.548097-.368365-.90604 0-.60403.290224-1.029082.870681-1.275168 1.897646-.805373 3.828752-1.208054 5.793374-1.208054 1.540442 0 2.840868.313196 3.901318.939597 1.060449.626402 1.841821 1.437356 2.344139 2.432886.502319.995531.753474 2.074939.753474 3.238255v9.496645c0 .425058-.150693.782996-.452084 1.073825s-.664171.436242-1.088351.436242-.781378-.145413-1.071606-.436242c-.290229-.290829-.435341-.648767-.435341-1.073825v-.872484c-1.652068 1.700233-3.75061 2.550336-6.295689 2.550336-.982311 0-1.892051-.20134-2.729248-.604027zm6.714285-2.802013c.915336-.480987 1.685545-1.079415 2.310652-1.795302v-2.818792h-3.65016c-3.371113 0-5.056644.88366-5.056644 2.651006 0 .805374.27348 1.454137.820449 1.946309.546968.492173 1.456709.738255 2.729248.738255.982311 0 1.93112-.24049 2.846455-.721476zm10.916994 2.802013c-.290229-.290829-.435341-.648767-.435341-1.073825v-14.395974c0-.425058.145112-.788589.435341-1.090604.290228-.302014.647427-.45302 1.071606-.45302.42418 0 .78696.151006 1.088351.45302.301391.302015.452084.665546.452084 1.090604v1.375839c.625107-.894859 1.378573-1.633106 2.26042-2.214765.881848-.581658 2.026-.872483 3.432491-.872483 1.250214 0 2.32181.335567 3.21482 1.006712.89301.671144 1.52927 1.48769 1.908799 2.449664 1.384166-2.304262 3.438058-3.456376 6.161739-3.456376 1.250214 0 2.293903.313196 3.1311.939597.837197.626402 1.456714 1.431763 1.858568 2.416108.401855.984345.602779 2.013417.602779 3.087248v9.66443c0 .425058-.150693.782996-.452084 1.073825s-.664171.436242-1.088351.436242c-.424179 0-.781378-.145413-1.071606-.436242-.290229-.290829-.435341-.648767-.435341-1.073825v-9.060403c0-1.454146-.256736-2.522368-.770217-3.204698s-1.395315-1.02349-2.645529-1.02349c-1.138588 0-2.081815.296418-2.829711.889262s-1.412063 1.370241-1.992519 2.332215v10.067114c0 .425058-.150693.782996-.452084 1.073825s-.664171.436242-1.088351.436242c-.424179 0-.781378-.145413-1.071606-.436242-.290229-.290829-.435341-.648767-.435341-1.073825v-9.060403c0-1.454146-.256736-2.522368-.770217-3.204698s-1.395315-1.02349-2.645529-1.02349c-1.138588 0-2.081815.296418-2.829711.889262s-1.412063 1.370241-1.992519 2.332215v10.067114c0 .425058-.150693.782996-.452084 1.073825s-.664171.436242-1.088351.436242c-.424179 0-.781378-.145413-1.071606-.436242zm-84.817243-22.395973h4c.552285 0 1 .447715 1 1v21c0 .552285-.447715 1-1 1h-4c-.552285 0-1-.447715-1-1v-21c0-.552285.447715-1 1-1zm-22 3h4c.552285 0 1 .447715 1 1v18c0 .552285-.447715 1-1 1h-4c-.552285 0-1-.447715-1-1v-18c0-.552285.447715-1 1-1zm-11 5h4c.552285 0 1 .447715 1 1v13c0 .552285-.447715 1-1 1h-4c-.552285 0-1-.447715-1-1v-13c0-.552285.447715-1 1-1zm22-12h4c.552285 0 1 .447715 1 1v25c0 .552285-.447715 1-1 1h-4c-.552285 0-1-.447715-1-1v-25c0-.552285.447715-1 1-1z" fill="#00b1e1" fill-rule="evenodd" transform="translate(-325 -464)"/></svg>