<svg height="25" viewBox="0 0 25 25" width="25" xmlns="http://www.w3.org/2000/svg"><path d="m20.0721358 2.96243292c-3.903819-3.94991056-10.24045263-3.94991056-14.14427159 0-3.90381895 3.94991055-3.90381895 10.38998208 0 14.33989268l6.28005659 6.3542039c.2263083.2289803.5091938.3434705.7920792.3434705s.5657709-.1144902.7920792-.3434705l6.2800566-6.3828265c3.9038189-3.9499105 3.9038189-10.36135953 0-14.31127008zm-7.0721358 12.03756708c-2.7586207 0-5-2.2413793-5-5 0-2.75862069 2.2413793-5 5-5s5 2.24137931 5 5c0 2.7586207-2.2413793 5-5 5z" fill="#3a485d"/></svg>