<svg enable-background="new 0 0 1072 340" viewBox="0 0 1072 340" xmlns="http://www.w3.org/2000/svg" xmlns:xlink="http://www.w3.org/1999/xlink"><linearGradient id="a"><stop offset=".002483974" stop-color="#57c8e1"/><stop offset=".1396" stop-color="#58c1de"/><stop offset=".3628" stop-color="#58b2d7"/><stop offset=".6444" stop-color="#579acb"/><stop offset=".9705" stop-color="#577abc"/><stop offset="1" stop-color="#5777bb"/></linearGradient><linearGradient id="b" gradientUnits="userSpaceOnUse" x1="12.5776" x2="54.8006" xlink:href="#a" y1="118.671" y2="118.671"/><linearGradient id="c" gradientUnits="userSpaceOnUse" x1="23.2369" x2="43.1339" xlink:href="#a" y1="120.4774" y2="120.4774"/><linearGradient id="d" gradientUnits="userSpaceOnUse" x1="33.1237" x2="38.0763" xlink:href="#a" y1="108.5215" y2="108.5215"/><linearGradient id="e" gradientUnits="userSpaceOnUse" x1="12.5776" x2="54.8006" xlink:href="#a" y1="42.4052" y2="42.4052"/><linearGradient id="f" gradientUnits="userSpaceOnUse" x1="23.6881" x2="43.7081" xlink:href="#a" y1="42.0983" y2="42.0983"/><linearGradient id="g" gradientUnits="userSpaceOnUse" x1="12.5776" x2="54.8006" xlink:href="#a" y1="194.9368" y2="194.9368"/><linearGradient id="h" gradientUnits="userSpaceOnUse" x1="22.2387" x2="45.1396" xlink:href="#a" y1="194.9368" y2="194.9368"/><linearGradient id="i" gradientUnits="userSpaceOnUse" x1="12.5776" x2="54.8006" xlink:href="#a" y1="271.2026" y2="271.2026"/><linearGradient id="j" gradientUnits="userSpaceOnUse" x1="22.616" x2="32.5965" xlink:href="#a" y1="271.2026" y2="271.2026"/><linearGradient id="k" gradientUnits="userSpaceOnUse" x1="33.5237" x2="41.2412" xlink:href="#a" y1="271.2026" y2="271.2026"/><linearGradient id="l" gradientUnits="userSpaceOnUse" x1="42.7026" x2="44.7622" xlink:href="#a" y1="271.2026" y2="271.2026"/><linearGradient id="m" gradientTransform="matrix(-1 0 0 -1 2951 469.5596)" gradientUnits="userSpaceOnUse" x1="2846.7361" x2="2846.7361" xlink:href="#a" y1="346.4356" y2="425.2638"/><linearGradient id="n" gradientTransform="matrix(1 0 0 -1 -4685.7915 469.5596)" gradientUnits="userSpaceOnUse" x1="5254.666" x2="5254.666" xlink:href="#a" y1="346.4356" y2="425.2638"/><linearGradient id="o" gradientUnits="userSpaceOnUse" x1="568.8745" x2="568.8745" xlink:href="#a" y1="190.1682" y2="268.9963"/><linearGradient id="p" gradientTransform="matrix(-1 0 0 1 2951 -125.9774)" gradientUnits="userSpaceOnUse" x1="2846.7361" x2="2846.7361" xlink:href="#a" y1="319.8053" y2="391.314"/><linearGradient id="q" gradientUnits="userSpaceOnUse" x1="96.6172" x2="96.6172" xlink:href="#a" y1="116.7892" y2="146.8104"/><linearGradient id="r" gradientTransform="matrix(1 0 0 -1 0 214.152)" gradientUnits="userSpaceOnUse" x1="99.449" x2="99.449" xlink:href="#a" y1="18.5298" y2="43.9687"/><linearGradient id="s" gradientUnits="userSpaceOnUse" x1="137.8424" x2="221.0858" xlink:href="#a" y1="158.5776" y2="158.5776"/><linearGradient id="t" gradientUnits="userSpaceOnUse" x1="271.7377" x2="252.5867" xlink:href="#a" y1="141.9924" y2="175.1628"/><linearGradient id="u" gradientUnits="userSpaceOnUse" x1="581.4107" x2="559.3751" xlink:href="#a" y1="139.284" y2="177.4507"/><linearGradient id="v" gradientUnits="userSpaceOnUse" x1="733.4373" x2="710.7891" xlink:href="#a" y1="138.7534" y2="177.9813"/><linearGradient id="w" gradientTransform="matrix(0 -1 1 0 -411.2168 -589.2168)" gradientUnits="userSpaceOnUse" x1="-684.1926" x2="-694.4858" xlink:href="#a" y1="1044.8102" y2="1062.6387"/><linearGradient id="x" gradientTransform="matrix(0 -1 1 0 -411.2168 -589.2168)" gradientUnits="userSpaceOnUse" x1="-797.9955" x2="-808.1573" xlink:href="#a" y1="1044.9241" y2="1062.5249"/><linearGradient id="y" gradientUnits="userSpaceOnUse" x1="418.1941" x2="398.556" xlink:href="#a" y1="141.3602" y2="175.3745"/><linearGradient id="z"><stop offset=".002483974" stop-color="#892886"/><stop offset=".06495388" stop-color="#8f2983"/><stop offset=".1667" stop-color="#a02c7c"/><stop offset=".295" stop-color="#bc336f"/><stop offset=".4435" stop-color="#e33f5a"/><stop offset=".4634" stop-color="#e94057"/><stop offset=".6317" stop-color="#eb504d"/><stop offset=".9938" stop-color="#f27124"/><stop offset="1" stop-color="#f27123"/></linearGradient><linearGradient id="A" gradientUnits="userSpaceOnUse" x1="303.6915" x2="344.0395" xlink:href="#z" y1="159.1052" y2="159.1052"/><linearGradient id="B" gradientUnits="userSpaceOnUse" x1="331.9525" x2="361.4301" xlink:href="#z" y1="149.1703" y2="149.1703"/><linearGradient id="C" gradientUnits="userSpaceOnUse" x1="365.8293" x2="359.7156" xlink:href="#z" y1="148.8048" y2="142.6911"/><linearGradient id="D" gradientTransform="matrix(1 0 0 -1 0 -2245.5)" gradientUnits="userSpaceOnUse" x1="332.3127" x2="361.7904" xlink:href="#z" y1="-2414.4841" y2="-2414.4841"/><linearGradient id="E" gradientTransform="matrix(1 0 0 -1 0 -2245.5)" gradientUnits="userSpaceOnUse" x1="366.1895" x2="360.0759" xlink:href="#z" y1="-2414.8496" y2="-2420.9634"/><linearGradient id="F" gradientUnits="userSpaceOnUse" x1="331.9525" x2="365.493" xlink:href="#z" y1="159.3527" y2="159.3527"/><linearGradient id="G" gradientUnits="userSpaceOnUse" x1="365.8293" x2="359.7156" xlink:href="#z" y1="162.4095" y2="156.2959"/><linearGradient id="H" gradientTransform="matrix(0 -1 1 0 -758.3973 -487.8947)" gradientUnits="userSpaceOnUse" x1="-671.0832" x2="-622.9166" xlink:href="#a" y1="1266.6298" y2="1266.6298"/><linearGradient id="I" gradientTransform="matrix(0 -1 1 0 -758.3973 -487.8947)" gradientUnits="userSpaceOnUse" x1="-671.0832" x2="-622.9166" xlink:href="#a" y1="1243.5585" y2="1243.5585"/><linearGradient id="J" gradientUnits="userSpaceOnUse" x1="462.7256" x2="462.7256" xlink:href="#a" y1="183.1885" y2="135.0219"/><linearGradient id="K" gradientUnits="userSpaceOnUse" x1="765.9904" x2="814.5992" xlink:href="#a" y1="174.7435" y2="174.7435"/><linearGradient id="L" gradientUnits="userSpaceOnUse" x1="765.9904" x2="814.5992" xlink:href="#a" y1="156.6373" y2="156.6373"/><linearGradient id="M" gradientUnits="userSpaceOnUse" x1="766.0233" x2="814.5663" xlink:href="#a" y1="138.531" y2="138.531"/><linearGradient id="N" gradientUnits="userSpaceOnUse" x1="1071.1311" x2="928.839" xlink:href="#a" y1="33.5753" y2="280.0324"/><linearGradient id="O" gradientUnits="userSpaceOnUse" x1="826.5469" x2="943.1575" xlink:href="#a" y1="210.8153" y2="210.8153"/><linearGradient id="P" gradientTransform="matrix(1 0 0 -1 0 125.232)" gradientUnits="userSpaceOnUse" x1="876.7595" x2="894.5643" xlink:href="#a" y1="39.3985" y2="8.5597"/><linearGradient id="Q"><stop offset=".002483974" stop-color="#0f998e"/><stop offset=".2362" stop-color="#289e8b"/><stop offset=".6165" stop-color="#4dac82"/><stop offset="1" stop-color="#6fc171"/></linearGradient><linearGradient id="R" gradientUnits="userSpaceOnUse" x1="156.6055" x2="202.3226" xlink:href="#Q" y1="144.898" y2="144.898"/><linearGradient id="S" gradientUnits="userSpaceOnUse" x1="156.6648" x2="202.2633" xlink:href="#Q" y1="162.9094" y2="162.9094"/><linearGradient id="T" gradientUnits="userSpaceOnUse" x1="156.6648" x2="202.2633" xlink:href="#Q" y1="176.817" y2="176.817"/><linearGradient id="U"><stop offset=".002483974" stop-color="#67bd54"/><stop offset=".09459197" stop-color="#65b959"/><stop offset=".2447" stop-color="#60b16a"/><stop offset=".4341" stop-color="#58a480"/><stop offset=".6555" stop-color="#4e9397"/><stop offset=".9008" stop-color="#427dae"/><stop offset="1" stop-color="#3c73b7"/></linearGradient><linearGradient id="V" gradientUnits="userSpaceOnUse" x1="624.4177" x2="663.4781" xlink:href="#U" y1="44.0481" y2="44.0481"/><linearGradient id="W" gradientUnits="userSpaceOnUse" x1="632.9508" x2="641.2016" xlink:href="#U" y1="34.3962" y2="34.3962"/><linearGradient id="X" gradientUnits="userSpaceOnUse" x1="646.6943" x2="654.9451" xlink:href="#U" y1="34.3962" y2="34.3962"/><linearGradient id="Y" gradientUnits="userSpaceOnUse" x1="632.9508" x2="641.2016" xlink:href="#U" y1="53.6999" y2="53.6999"/><linearGradient id="Z" gradientUnits="userSpaceOnUse" x1="646.6943" x2="654.9451" xlink:href="#U" y1="53.6999" y2="53.6999"/><linearGradient id="aa" gradientUnits="userSpaceOnUse" x1="634.7241" x2="630.0249" xlink:href="#U" y1="68.2018" y2="76.341"/><linearGradient id="ab" gradientUnits="userSpaceOnUse" x1="657.6298" x2="652.9307" xlink:href="#U" y1="76.341" y2="68.2018"/><linearGradient id="ac" gradientUnits="userSpaceOnUse" x1="649.7086" x2="645.5814" xlink:href="#U" y1="76.5061" y2="69.3576"/><linearGradient id="ad" gradientUnits="userSpaceOnUse" x1="642.0733" x2="637.9462" xlink:href="#U" y1="69.3576" y2="76.5061"/><linearGradient id="ae" gradientTransform="matrix(0 -1 1 0 -655.3099 -615.2964)" gradientUnits="userSpaceOnUse" x1="-670.7974" x2="-670.7974" xlink:href="#U" y1="1326.01" y2="1318.7881"/><linearGradient id="af" gradientTransform="matrix(0 -1 1 0 -655.3099 -615.2964)" gradientUnits="userSpaceOnUse" x1="-647.8916" x2="-647.8916" xlink:href="#U" y1="1326.01" y2="1318.7881"/><linearGradient id="ag" gradientTransform="matrix(0 -1 1 0 -655.3099 -615.2964)" gradientUnits="userSpaceOnUse" x1="-655.5269" x2="-655.5269" xlink:href="#U" y1="1326.01" y2="1318.7881"/><linearGradient id="ah" gradientTransform="matrix(0 -1 1 0 -655.3099 -615.2964)" gradientUnits="userSpaceOnUse" x1="-663.1621" x2="-663.1621" xlink:href="#U" y1="1326.01" y2="1318.7881"/><linearGradient id="ai" gradientTransform="matrix(0 -1 1 0 -655.3099 -615.2964)" gradientUnits="userSpaceOnUse" x1="-670.7974" x2="-670.7974" xlink:href="#U" y1="1281.1743" y2="1273.9525"/><linearGradient id="aj" gradientTransform="matrix(0 -1 1 0 -655.3099 -615.2964)" gradientUnits="userSpaceOnUse" x1="-647.8916" x2="-647.8916" xlink:href="#U" y1="1281.1743" y2="1273.9525"/><linearGradient id="ak" gradientTransform="matrix(0 -1 1 0 -655.3099 -615.2964)" gradientUnits="userSpaceOnUse" x1="-655.5269" x2="-655.5269" xlink:href="#U" y1="1281.1743" y2="1273.9525"/><linearGradient id="al" gradientTransform="matrix(0 -1 1 0 -655.3099 -615.2964)" gradientUnits="userSpaceOnUse" x1="-663.1621" x2="-663.1621" xlink:href="#U" y1="1281.1743" y2="1273.9525"/><linearGradient id="am" gradientUnits="userSpaceOnUse" x1="634.6065" x2="630.1425" xlink:href="#U" y1="20.866" y2="13.134"/><linearGradient id="an" gradientUnits="userSpaceOnUse" x1="657.3439" x2="653.2167" xlink:href="#U" y1="13.0367" y2="20.1852"/><linearGradient id="ao" gradientUnits="userSpaceOnUse" x1="649.444" x2="645.8459" xlink:href="#U" y1="12.884" y2="19.116"/><linearGradient id="ap" gradientUnits="userSpaceOnUse" x1="641.8088" x2="638.2107" xlink:href="#U" y1="12.884" y2="19.116"/><linearGradient id="aq" gradientUnits="userSpaceOnUse" x1="624.4177" x2="663.4781" xlink:href="#U" y1="157.0481" y2="157.0481"/><linearGradient id="ar" gradientUnits="userSpaceOnUse" x1="632.9508" x2="641.2016" xlink:href="#U" y1="147.3962" y2="147.3962"/><linearGradient id="as" gradientUnits="userSpaceOnUse" x1="646.6943" x2="654.9451" xlink:href="#U" y1="147.3962" y2="147.3962"/><linearGradient id="at" gradientUnits="userSpaceOnUse" x1="632.9508" x2="641.2016" xlink:href="#U" y1="166.6999" y2="166.6999"/><linearGradient id="au" gradientUnits="userSpaceOnUse" x1="646.6943" x2="654.9451" xlink:href="#U" y1="166.6999" y2="166.6999"/><linearGradient id="av" gradientUnits="userSpaceOnUse" x1="634.7241" x2="630.0249" xlink:href="#U" y1="181.2018" y2="189.341"/><linearGradient id="aw" gradientUnits="userSpaceOnUse" x1="657.6298" x2="652.9307" xlink:href="#U" y1="189.341" y2="181.2018"/><linearGradient id="ax" gradientUnits="userSpaceOnUse" x1="649.7086" x2="645.5814" xlink:href="#U" y1="189.5061" y2="182.3576"/><linearGradient id="ay" gradientUnits="userSpaceOnUse" x1="642.0733" x2="637.9462" xlink:href="#U" y1="182.3576" y2="189.5061"/><linearGradient id="az" gradientTransform="matrix(0 -1 1 0 -655.3099 -615.2964)" gradientUnits="userSpaceOnUse" x1="-783.7974" x2="-783.7974" xlink:href="#U" y1="1326.01" y2="1318.7881"/><linearGradient id="aA" gradientTransform="matrix(0 -1 1 0 -655.3099 -615.2964)" gradientUnits="userSpaceOnUse" x1="-760.8916" x2="-760.8916" xlink:href="#U" y1="1326.01" y2="1318.7881"/><linearGradient id="aB" gradientTransform="matrix(0 -1 1 0 -655.3099 -615.2964)" gradientUnits="userSpaceOnUse" x1="-768.5269" x2="-768.5269" xlink:href="#U" y1="1326.01" y2="1318.7881"/><linearGradient id="aC" gradientTransform="matrix(0 -1 1 0 -655.3099 -615.2964)" gradientUnits="userSpaceOnUse" x1="-776.1621" x2="-776.1621" xlink:href="#U" y1="1326.01" y2="1318.7881"/><linearGradient id="aD" gradientTransform="matrix(0 -1 1 0 -655.3099 -615.2964)" gradientUnits="userSpaceOnUse" x1="-783.7974" x2="-783.7974" xlink:href="#U" y1="1281.1743" y2="1273.9525"/><linearGradient id="aE" gradientTransform="matrix(0 -1 1 0 -655.3099 -615.2964)" gradientUnits="userSpaceOnUse" x1="-760.8916" x2="-760.8916" xlink:href="#U" y1="1281.1743" y2="1273.9525"/><linearGradient id="aF" gradientTransform="matrix(0 -1 1 0 -655.3099 -615.2964)" gradientUnits="userSpaceOnUse" x1="-768.5269" x2="-768.5269" xlink:href="#U" y1="1281.1743" y2="1273.9525"/><linearGradient id="aG" gradientTransform="matrix(0 -1 1 0 -655.3099 -615.2964)" gradientUnits="userSpaceOnUse" x1="-776.1621" x2="-776.1621" xlink:href="#U" y1="1281.1743" y2="1273.9525"/><linearGradient id="aH" gradientUnits="userSpaceOnUse" x1="634.6065" x2="630.1425" xlink:href="#U" y1="133.866" y2="126.134"/><linearGradient id="aI" gradientUnits="userSpaceOnUse" x1="657.3439" x2="653.2167" xlink:href="#U" y1="126.0367" y2="133.1852"/><linearGradient id="aJ" gradientUnits="userSpaceOnUse" x1="649.444" x2="645.8459" xlink:href="#U" y1="125.884" y2="132.116"/><linearGradient id="aK" gradientUnits="userSpaceOnUse" x1="641.8088" x2="638.2107" xlink:href="#U" y1="125.884" y2="132.116"/><linearGradient id="aL" gradientUnits="userSpaceOnUse" x1="624.4177" x2="663.4781" xlink:href="#U" y1="269.0481" y2="269.0481"/><linearGradient id="aM" gradientUnits="userSpaceOnUse" x1="632.9508" x2="641.2016" xlink:href="#U" y1="259.3962" y2="259.3962"/><linearGradient id="aN" gradientUnits="userSpaceOnUse" x1="646.6943" x2="654.9451" xlink:href="#U" y1="259.3962" y2="259.3962"/><linearGradient id="aO" gradientUnits="userSpaceOnUse" x1="632.9508" x2="641.2016" xlink:href="#U" y1="278.6999" y2="278.6999"/><linearGradient id="aP" gradientUnits="userSpaceOnUse" x1="646.6943" x2="654.9451" xlink:href="#U" y1="278.6999" y2="278.6999"/><linearGradient id="aQ" gradientUnits="userSpaceOnUse" x1="634.7241" x2="630.0249" xlink:href="#U" y1="293.2018" y2="301.341"/><linearGradient id="aR" gradientUnits="userSpaceOnUse" x1="657.6298" x2="652.9307" xlink:href="#U" y1="301.341" y2="293.2018"/><linearGradient id="aS" gradientUnits="userSpaceOnUse" x1="649.7086" x2="645.5814" xlink:href="#U" y1="301.5061" y2="294.3576"/><linearGradient id="aT" gradientUnits="userSpaceOnUse" x1="642.0733" x2="637.9462" xlink:href="#U" y1="294.3576" y2="301.5061"/><linearGradient id="aU" gradientTransform="matrix(0 -1 1 0 -655.3099 -615.2964)" gradientUnits="userSpaceOnUse" x1="-895.7974" x2="-895.7974" xlink:href="#U" y1="1326.01" y2="1318.7881"/><linearGradient id="aV" gradientTransform="matrix(0 -1 1 0 -655.3099 -615.2964)" gradientUnits="userSpaceOnUse" x1="-872.8916" x2="-872.8916" xlink:href="#U" y1="1326.01" y2="1318.7881"/><linearGradient id="aW" gradientTransform="matrix(0 -1 1 0 -655.3099 -615.2964)" gradientUnits="userSpaceOnUse" x1="-880.5269" x2="-880.5269" xlink:href="#U" y1="1326.01" y2="1318.7881"/><linearGradient id="aX" gradientTransform="matrix(0 -1 1 0 -655.3099 -615.2964)" gradientUnits="userSpaceOnUse" x1="-888.1621" x2="-888.1621" xlink:href="#U" y1="1326.01" y2="1318.7881"/><linearGradient id="aY" gradientTransform="matrix(0 -1 1 0 -655.3099 -615.2964)" gradientUnits="userSpaceOnUse" x1="-895.7974" x2="-895.7974" xlink:href="#U" y1="1281.1743" y2="1273.9525"/><linearGradient id="aZ" gradientTransform="matrix(0 -1 1 0 -655.3099 -615.2964)" gradientUnits="userSpaceOnUse" x1="-872.8916" x2="-872.8916" xlink:href="#U" y1="1281.1743" y2="1273.9525"/><linearGradient id="a0" gradientTransform="matrix(0 -1 1 0 -655.3099 -615.2964)" gradientUnits="userSpaceOnUse" x1="-880.5269" x2="-880.5269" xlink:href="#U" y1="1281.1743" y2="1273.9525"/><linearGradient id="a1" gradientTransform="matrix(0 -1 1 0 -655.3099 -615.2964)" gradientUnits="userSpaceOnUse" x1="-888.1621" x2="-888.1621" xlink:href="#U" y1="1281.1743" y2="1273.9525"/><linearGradient id="a2" gradientUnits="userSpaceOnUse" x1="634.6065" x2="630.1425" xlink:href="#U" y1="245.866" y2="238.134"/><linearGradient id="a3" gradientUnits="userSpaceOnUse" x1="657.3439" x2="653.2167" xlink:href="#U" y1="238.0367" y2="245.1852"/><linearGradient id="a4" gradientUnits="userSpaceOnUse" x1="649.444" x2="645.8459" xlink:href="#U" y1="237.884" y2="244.116"/><linearGradient id="a5" gradientUnits="userSpaceOnUse" x1="641.8088" x2="638.2107" xlink:href="#U" y1="237.884" y2="244.116"/><circle cx="179.5" cy="158.6" fill="#fff" r="41.6"/><text fill="#8e8e8e" font-family="'Arial'" font-size="8.9001" transform="translate(158.4404 226.0107)">Rakam API</text><text fill="#8e8e8e" font-family="'Arial'" font-size="8.9001" transform="translate(297.6914 226.1475)">Enrich &amp; Sanitize</text><text transform="translate(457.8252 110.373)"><tspan fill="#8e8e8e" font-family="'Arial'" font-size="8.9001" x="0" y="0">Distributed</tspan><tspan fill="#8e8e8e" font-family="'Arial'" font-size="8.9001" x="-2.2" y="10.7">Commit Log</tspan></text><text transform="translate(626.5029 317.2725)"><tspan fill="#8e8e8e" font-family="'Arial'" font-size="8.9001" x="0" y="0">Stream</tspan><tspan fill="#8e8e8e" font-family="'Arial'" font-size="8.9001" x="-6.2" y="10.7">Processor</tspan></text><text transform="translate(764.6871 215.0947)"><tspan fill="#8e8e8e" font-family="'Arial'" font-size="8.9001" x="0" y="0">Distributed</tspan><tspan fill="#8e8e8e" font-family="'Arial'" font-size="8.9001" x="8.2" y="10.7">Storage</tspan></text><text transform="translate(977.1562 309.2725)"><tspan fill="#8e8e8e" font-family="'Arial'" font-size="8.9001" x="0" y="0">Distributed</tspan><tspan fill="#8e8e8e" font-family="'Arial'" font-size="8.9001" x="12.3" y="10.7">Query</tspan><tspan fill="#8e8e8e" font-family="'Arial'" font-size="8.9001" x="10.1" y="21.4">Engine</tspan></text><circle cx="33.7" cy="118.7" fill="#fff" r="19.7"/><path d="m33.7 101.6c9.4 0 17.1 7.7 17.1 17.1s-7.7 17.1-17.1 17.1-17.1-7.7-17.1-17.1 7.7-17.1 17.1-17.1m0-4c-11.7 0-21.1 9.5-21.1 21.1 0 11.7 9.5 21.1 21.1 21.1s21.1-9.5 21.1-21.1c0-11.7-9.5-21.1-21.1-21.1z" fill="url(#b)"/><path d="m39.9 118.4c0 3.6 3.2 4.8 3.3 4.8 0 .1-.5 1.7-1.7 3.4-1 1.4-2.1 2.9-3.7 2.9s-2.2-.9-4-.9c-1.9 0-2.5.9-4 1-1.6.1-2.8-1.6-3.9-3-2.1-2.9-3.7-8.3-1.5-11.9 1.1-1.8 3-2.9 5.1-3 1.6 0 3.1 1 4 1 1 0 2.8-1.3 4.7-1.1.8 0 3 .3 4.5 2.3-.3 0-2.9 1.5-2.8 4.5" fill="url(#c)"/><path d="m36.8 109.6c.9-1 1.4-2.4 1.3-3.8-1.2 0-2.7.8-3.6 1.8-.8.9-1.5 2.3-1.3 3.7 1.3 0 2.7-.7 3.6-1.7" fill="url(#d)"/><circle cx="33.7" cy="42.4" fill="#fff" r="19.7"/><path d="m33.7 25.3c9.4 0 17.1 7.7 17.1 17.1s-7.7 17.1-17.1 17.1-17.1-7.7-17.1-17.1 7.7-17.1 17.1-17.1m0-4c-11.7 0-21.1 9.5-21.1 21.1s9.4 21.1 21.1 21.1 21.1-9.5 21.1-21.1-9.5-21.1-21.1-21.1z" fill="url(#e)"/><path d="m42.3 38c-.7 0-1.4.6-1.4 1.4v5.4c0 .7.6 1.4 1.4 1.4s1.4-.6 1.4-1.4v-5.4c0-.8-.6-1.4-1.4-1.4zm-17.2 0c-.7 0-1.4.6-1.4 1.4v5.4c0 .7.6 1.4 1.4 1.4.7 0 1.4-.6 1.4-1.4v-5.4c-.1-.8-.7-1.4-1.4-1.4zm2.5 8.9c0 1.1.9 2 2 2h.7v2.7c0 .7.6 1.4 1.4 1.4s1.4-.6 1.4-1.4v-2.7h1.4v2.7c0 .7.6 1.4 1.4 1.4.7 0 1.4-.6 1.4-1.4v-2.7h.7c1.1 0 2-.9 2-2v-7.5h-12.4zm8.6-13.8.9-1.7c0-.1 0-.2-.1-.2s-.2 0-.2.1l-.9 1.7c-.7-.3-1.4-.4-2.2-.4s-1.5.1-2.2.4l-.9-1.7c0-.1-.1-.1-.2-.1s-.1.1-.1.2l.9 1.7c-1.9.9-3.3 2.7-3.6 4.9h12.2c-.3-2.2-1.6-4-3.6-4.9zm-5.2 3.9c-.5 0-1-.4-1-1s.4-1 1-1c.5 0 1 .4 1 1 0 .5-.5 1-1 1zm5.4 0c-.5 0-1-.4-1-1s.4-1 1-1 1 .4 1 1-.4 1-1 1z" fill="url(#f)"/><circle cx="33.7" cy="194.9" fill="#fff" r="19.7"/><path d="m33.7 177.8c9.4 0 17.1 7.7 17.1 17.1s-7.7 17.1-17.1 17.1-17.1-7.7-17.1-17.1 7.7-17.1 17.1-17.1m0-4c-11.7 0-21.1 9.5-21.1 21.1s9.4 21.1 21.1 21.1 21.1-9.5 21.1-21.1-9.5-21.1-21.1-21.1z" fill="url(#g)"/><path d="m28.7 201.3c.3 1.6.9 3.2 1.8 4.7-2.1-.6-4-1.8-5.5-3.5 1.2-.6 2.4-1 3.7-1.2zm-.3-1.6c-.5-3.2-.5-6.4 0-9.5-1.5-.3-3-.7-4.4-1.4-2.4 3.7-2.4 8.5 0 12.3 1.4-.7 2.9-1.1 4.4-1.4zm2.1-15.8c-2.1.6-4 1.8-5.5 3.5 1.2.5 2.4.9 3.7 1.1.3-1.6 1-3.1 1.8-4.6zm6.4 0c.9 1.4 1.5 3 1.8 4.7 1.3-.2 2.5-.6 3.7-1.1-1.5-1.7-3.4-2.9-5.5-3.6zm.1 5c-.8-3.3-2.1-5.4-3.3-5.4s-2.6 2.1-3.3 5.4c1.1.1 2.2.2 3.3.2s2.2-.1 3.3-.2zm-7.3 6c0 1.5.1 3 .4 4.5 1.2-.2 2.4-.2 3.7-.2 1.2 0 2.5.1 3.7.2.2-1.5.4-3 .4-4.5s-.1-3-.4-4.5c-1.2.2-2.4.2-3.7.2-1.2 0-2.5-.1-3.7-.2-.3 1.5-.4 3-.4 4.5zm4 11.5c1.2 0 2.6-2.1 3.3-5.4-2.2-.3-4.5-.3-6.7 0 .8 3.3 2.2 5.4 3.4 5.4zm5.6-11.5c0 1.6-.1 3.2-.4 4.8 1.5.3 3 .7 4.4 1.4 2.4-3.7 2.4-8.5 0-12.3-1.4.6-2.9 1.1-4.4 1.4.3 1.6.4 3.1.4 4.7zm3.1 7.5c-1.2-.5-2.4-.9-3.7-1.1-.3 1.6-.9 3.2-1.8 4.7 2.1-.7 4-1.9 5.5-3.6z" fill="url(#h)"/><circle cx="33.7" cy="271.2" fill="#fff" r="19.7"/><path d="m33.7 254.1c9.4 0 17.1 7.7 17.1 17.1s-7.7 17.1-17.1 17.1-17.1-7.7-17.1-17.1 7.7-17.1 17.1-17.1m0-4c-11.7 0-21.1 9.5-21.1 21.1s9.5 21.1 21.1 21.1 21.1-9.5 21.1-21.1-9.5-21.1-21.1-21.1z" fill="url(#i)"/><path d="m29.6 273.7h-4.1l-.8 1.9h-2.1l4-8.9h2l4 8.9h-2.2zm-.6-1.5-1.4-3.4-1.4 3.4z" fill="url(#j)"/><path d="m41.2 270c0 2-1.5 3.2-3.9 3.2h-1.8v2.5h-2.1v-8.9h3.9c2.5 0 3.9 1.2 3.9 3.2zm-2 0c0-1-.6-1.6-1.9-1.6h-1.7v3.1h1.7c1.2 0 1.9-.6 1.9-1.5z" fill="url(#k)"/><path d="m42.7 266.8h2.1v8.9h-2.1z" fill="url(#l)"/><path d="m148.4 121.6-88.2-75.8" style="fill:none;stroke-width:4;stroke-linejoin:round;stroke-miterlimit:10;stroke-dasharray:8 4;stroke:url(#m)"/><path d="m524.8 121.6 88.2-75.8" style="fill:none;stroke-width:4;stroke-linejoin:round;stroke-miterlimit:10;stroke-dasharray:8 4;stroke:url(#n)"/><path d="m524.8 191.7 88.2 75.8" style="fill:none;stroke-width:4;stroke-linejoin:round;stroke-miterlimit:10;stroke-dasharray:8 4;stroke:url(#o)"/><path d="m148.4 195.4-88.2 68.4" style="fill:none;stroke-width:4;stroke-linejoin:round;stroke-miterlimit:10;stroke-dasharray:8 4;stroke:url(#p)"/><path d="m60.2 118.7 72.9 26.2" style="fill:none;stroke-width:4;stroke-linejoin:round;stroke-miterlimit:10;stroke-dasharray:8 4;stroke:url(#q)"/><path d="m65.8 193.7 67.3-21.6" style="fill:none;stroke-width:4;stroke-linejoin:round;stroke-miterlimit:10;stroke-dasharray:8 4;stroke:url(#r)"/><path d="m179.5 121c20.7 0 37.6 16.9 37.6 37.6s-16.9 37.6-37.6 37.6-37.6-16.9-37.6-37.6 16.8-37.6 37.6-37.6m0-4c-23 0-41.6 18.6-41.6 41.6s18.6 41.6 41.6 41.6 41.6-18.6 41.6-41.6-18.6-41.6-41.6-41.6z" fill="url(#s)"/><path d="m227.3 158.6h69.7" style="fill:none;stroke-width:4;stroke-linejoin:round;stroke-miterlimit:10;stroke-dasharray:8 4;stroke:url(#t)"/><path d="m529.8 158.4h81.2" style="fill:none;stroke-width:4;stroke-linejoin:round;stroke-miterlimit:10;stroke-dasharray:8 4;stroke:url(#u)"/><path d="m680.3 158.4h83.6" style="fill:none;stroke-width:4;stroke-linejoin:round;stroke-miterlimit:10;stroke-dasharray:8 4;stroke:url(#v)"/><path d="m642.5 117.2v-34.2" style="fill:none;stroke-width:4;stroke-linejoin:round;stroke-miterlimit:10;stroke-dasharray:8 4;stroke:url(#w)"/><path d="m642.5 230.7v-33.7" style="fill:none;stroke-width:4;stroke-linejoin:round;stroke-miterlimit:10;stroke-dasharray:8 4;stroke:url(#x)"/><path d="m372.6 158.4h71.6" style="fill:none;stroke-width:4;stroke-linejoin:round;stroke-miterlimit:10;stroke-dasharray:8 4;stroke:url(#y)"/><path d="m332 149.2.6-.9h8.9l2.5-2.5-5.2-4.9-3.7 2.2-4.6-1.5-.6-4.6h-8l-.9 4.6-4.3 1.5-4-2.2-5.2 5.2 2.5 3.7-1.8 4.6-4.3.9v7.4l4 1.2 2.2 4.6-2.5 3.7 5.2 5.2 4-2.5 4.9 1.8.6 4.3h7.4l.9-4.3 4.6-1.8 3.4 2.5 5.5-4.9-2.5-2.5h-8.9l-1.5-1.2s-17.2 5.2-16.6-10.8c2-15.5 17.4-8.8 17.4-8.8z" fill="url(#A)"/><path d="m334 152.6h11.7l7.3-6.9h6.4" fill="none" stroke="url(#B)" stroke-linecap="round" stroke-miterlimit="10" stroke-width="4"/><circle cx="362.8" cy="145.7" fill="url(#C)" r="4.3"/><path d="m334.3 165.6h11.8l7.2 6.8h6.5" fill="none" stroke="url(#D)" stroke-linecap="round" stroke-miterlimit="10" stroke-width="4"/><circle cx="363.1" cy="172.4" fill="url(#E)" r="4.3"/><path d="m334 159.4h29.5" fill="none" stroke="url(#F)" stroke-linecap="round" stroke-miterlimit="10" stroke-width="4"/><circle cx="362.8" cy="159.4" fill="url(#G)" r="4.3"/><ellipse cx="508.2" cy="159.1" fill="url(#H)" rx="14.5" ry="24.1"/><path d="m462.1 135h46.1v48.2h-46.1z" fill="url(#I)"/><ellipse cx="462.7" cy="159.1" fill="#fff" rx="14.5" ry="24.1"/><path d="m462.7 139c5 0 10.5 8.2 10.5 20.1 0 11.8-5.5 20.1-10.5 20.1s-10.5-8.2-10.5-20.1c0-11.8 5.6-20.1 10.5-20.1m0-4c-8 0-14.5 10.8-14.5 24.1s6.5 24.1 14.5 24.1 14.5-10.8 14.5-24.1-6.5-24.1-14.5-24.1z" fill="url(#J)"/><path d="m493.1 149.2h8.8c1 0 1.9-.9 1.9-2.1 0-1.1-.8-2.1-1.9-2.1h-8.8" fill="none" stroke="#fff" stroke-miterlimit="10" stroke-width="2"/><ellipse cx="493.1" cy="147.1" fill="none" rx="1.9" ry="2.1" stroke="#fff" stroke-miterlimit="10" stroke-width="2"/><path d="m493.1 156.8h8.8c1 0 1.9-.9 1.9-2.1 0-1.1-.8-2.1-1.9-2.1h-8.8" fill="none" stroke="#fff" stroke-miterlimit="10" stroke-width="2"/><ellipse cx="493.1" cy="154.7" fill="none" rx="1.9" ry="2.1" stroke="#fff" stroke-miterlimit="10" stroke-width="2"/><path d="m493.1 173.1h8.8c1 0 1.9-.9 1.9-2.1s-.8-2.1-1.9-2.1h-8.8" fill="none" stroke="#fff" stroke-miterlimit="10" stroke-width="2"/><ellipse cx="493.1" cy="171.1" fill="none" rx="1.9" ry="2.1" stroke="#fff" stroke-miterlimit="10" stroke-width="2"/><circle cx="499.6" cy="160.7" fill="#fff" r="1.2"/><circle cx="499.6" cy="165.1" fill="#fff" r="1.2"/><ellipse cx="790.3" cy="174.7" fill="url(#K)" rx="24.3" ry="11.5"/><path d="m766 138.5h48.6v36.2h-48.6z" fill="url(#L)"/><ellipse cx="790.3" cy="138.5" fill="#fff" rx="24.3" ry="11.5"/><path d="m790.3 131c12.2 0 20.3 4.5 20.3 7.5s-8.1 7.5-20.3 7.5-20.3-4.5-20.3-7.5 8.1-7.5 20.3-7.5m0-4c-13.4 0-24.3 5.2-24.3 11.5s10.9 11.5 24.3 11.5 24.3-5.2 24.3-11.5-10.9-11.5-24.3-11.5z" fill="url(#M)"/><path d="m816.9 150.1c0 6.4-13.2 11.5-26.6 11.5s-26.8-5.2-26.8-11.5" fill="none" stroke="#fff" stroke-miterlimit="10" stroke-width="4"/><path d="m816.6 163c0 6.4-12.9 11.5-26.3 11.5s-25.8-5.2-25.8-11.5" fill="none" stroke="#fff" stroke-miterlimit="10" stroke-width="4"/><circle cx="808.4" cy="151.6" fill="#fff" r="1.6"/><circle cx="808.4" cy="164" fill="#fff" r="1.6"/><circle cx="808.4" cy="176.3" fill="#fff" r="1.6"/><path d="m1046.7 292.3h-93.4c-6.6 0-12-5.4-12-12v-247c0-6.6 5.4-12 12-12h93.4c6.6 0 12 5.4 12 12v247c0 6.6-5.4 12-12 12z" fill="#fff"/><path d="m1046.7 25.3c4.4 0 8 3.6 8 8v247c0 4.4-3.6 8-8 8h-93.4c-4.4 0-8-3.6-8-8v-247c0-4.4 3.6-8 8-8zm0-4h-93.4c-6.6 0-12 5.4-12 12v247c0 6.6 5.4 12 12 12h93.4c6.6 0 12-5.4 12-12v-247c0-6.6-5.4-12-12-12z" fill="url(#N)"/><path d="m943.2 259.3-108.8-93.4 4.4-5.1-12.3-.4 2.3 12 3.9-4.6 108.8 93.4z" fill="url(#O)"/><path d="m943.2 50.4-108.8 93.4 4.4 5.1-12.3.4 2.3-12 3.9 4.6 108.8-93.4z" fill="url(#P)"/><path d="m978.9 70.5h42.2c1.9 0 3.4 1.5 3.4 3.4v42.2c0 1.9-1.5 3.4-3.4 3.4h-42.2c-1.9 0-3.4-1.5-3.4-3.4v-42.1c0-1.9 1.5-3.5 3.4-3.5z" fill="#010101"/><g transform="translate(25 40)"><path d="m994.6 55.2c0 1.4-1.1 2.4-2.4 2.4-1.4 0-2.4-1.1-2.4-2.4 0-1.4 1.1-2.4 2.4-2.4 1.3-.1 2.4 1 2.4 2.4" fill="#7495cd"/><path d="m989.5 60.2c0 1.4-1.1 2.4-2.4 2.4s-2.4-1.1-2.4-2.4c0-1.4 1.1-2.4 2.4-2.4s2.4 1 2.4 2.4" fill="#6ecee8"/><path d="m984.5 65.2c0 1.4-1.1 2.4-2.4 2.4-1.4 0-2.4-1.1-2.4-2.4 0-1.4 1.1-2.4 2.4-2.4s2.4 1.1 2.4 2.4" fill="#fff"/><path d="m989.4 50.1c0 1.3-1 2.3-2.3 2.3s-2.3-1-2.3-2.3 1-2.3 2.3-2.3c1.2.1 2.3 1.1 2.3 2.3" fill="#7495cd"/><path d="m984.3 55.1c0 1.3-1 2.3-2.3 2.3s-2.3-1-2.3-2.3 1-2.3 2.3-2.3 2.3 1.1 2.3 2.3" fill="#6ecee8"/><path d="m979.3 60.2c0 1.3-1 2.3-2.3 2.3s-2.3-1-2.3-2.3 1-2.3 2.3-2.3 2.3 1 2.3 2.3" fill="#fff"/><path d="m984.1 45.1c0 1.1-.9 2.1-2.1 2.1-1.1 0-2.1-.9-2.1-2.1 0-1.1.9-2.1 2.1-2.1 1.2.1 2.1 1 2.1 2.1" fill="#7495cd"/><path d="m979.1 50.1c0 1.1-.9 2.1-2.1 2.1-1.1 0-2.1-.9-2.1-2.1 0-1.1.9-2.1 2.1-2.1s2.1 1 2.1 2.1" fill="#6ecee8"/><path d="m974.1 55.2c0 1.1-.9 2.1-2.1 2.1-1.1 0-2.1-.9-2.1-2.1 0-1.1.9-2.1 2.1-2.1 1.1 0 2.1.9 2.1 2.1" fill="#fff"/><path d="m978.9 40.1c0 1-.8 1.9-1.9 1.9-1 0-1.9-.8-1.9-1.9 0-1 .8-1.9 1.9-1.9 1.1.1 1.9.9 1.9 1.9" fill="#7495cd"/><path d="m973.9 45.1c0 1-.8 1.9-1.9 1.9-1 0-1.9-.8-1.9-1.9s.8-1.9 1.9-1.9 1.9.9 1.9 1.9" fill="#6ecee8"/><path d="m968.9 50.2c0 1-.8 1.9-1.9 1.9-1 0-1.9-.8-1.9-1.9s.8-1.9 1.9-1.9c1 0 1.9.8 1.9 1.9" fill="#fff"/><g fill="#7797ce"><path d="m968.7 60.2c0 .9-.7 1.7-1.7 1.7-.9 0-1.7-.7-1.7-1.7 0-.9.7-1.7 1.7-1.7.9 0 1.7.8 1.7 1.7"/><path d="m973.7 65.2c0 .9-.7 1.7-1.7 1.7-.9 0-1.7-.7-1.7-1.7 0-.9.7-1.7 1.7-1.7.9 0 1.7.8 1.7 1.7"/><path d="m978.7 70.2c0 .9-.7 1.7-1.7 1.7s-1.7-.7-1.7-1.7c0-.9.7-1.7 1.7-1.7s1.7.8 1.7 1.7"/><path d="m968.7 70.2c0 .9-.7 1.7-1.7 1.7-.9 0-1.7-.7-1.7-1.7 0-.9.7-1.7 1.7-1.7s1.7.8 1.7 1.7"/><path d="m958.6 70.2c0 .9-.7 1.7-1.7 1.7-.9 0-1.7-.7-1.7-1.7 0-.9.7-1.7 1.7-1.7s1.7.8 1.7 1.7"/><path d="m963.6 65.2c0 .9-.7 1.7-1.7 1.7-.9 0-1.7-.7-1.7-1.7 0-.9.7-1.7 1.7-1.7s1.7.8 1.7 1.7"/></g><path d="m968.7 40.1c0 1-.8 1.7-1.7 1.7-1 0-1.7-.8-1.7-1.7 0-1 .8-1.7 1.7-1.7s1.7.8 1.7 1.7" fill="#6ecee8"/><path d="m963.6 45.2c0 1-.8 1.7-1.7 1.7-1 0-1.7-.8-1.7-1.7 0-1 .8-1.7 1.7-1.7 1 0 1.7.7 1.7 1.7" fill="#fff"/><path d="m958.3 40.1c0 .8-.6 1.4-1.4 1.4s-1.4-.6-1.4-1.4.6-1.4 1.4-1.4 1.4.6 1.4 1.4" fill="#fff"/></g><path d="m978.9 139.9h42.2c1.9 0 3.4 1.5 3.4 3.4v42.2c0 1.9-1.5 3.4-3.4 3.4h-42.2c-1.9 0-3.4-1.5-3.4-3.4v-42.2c0-1.8 1.5-3.4 3.4-3.4z" fill="#010101"/><g transform="translate(25 40)"><path d="m994.6 124.5c0 1.4-1.1 2.4-2.4 2.4-1.4 0-2.4-1.1-2.4-2.4 0-1.4 1.1-2.4 2.4-2.4s2.4 1.1 2.4 2.4" fill="#7495cd"/><path d="m989.5 129.5c0 1.4-1.1 2.4-2.4 2.4s-2.4-1.1-2.4-2.4c0-1.4 1.1-2.4 2.4-2.4s2.4 1.1 2.4 2.4" fill="#6ecee8"/><path d="m984.5 134.6c0 1.4-1.1 2.4-2.4 2.4-1.4 0-2.4-1.1-2.4-2.4 0-1.4 1.1-2.4 2.4-2.4s2.4 1.1 2.4 2.4" fill="#fff"/><path d="m989.4 119.5c0 1.3-1 2.3-2.3 2.3s-2.3-1-2.3-2.3 1-2.3 2.3-2.3c1.2 0 2.3 1.1 2.3 2.3" fill="#7495cd"/><path d="m984.3 124.5c0 1.3-1 2.3-2.3 2.3s-2.3-1-2.3-2.3 1-2.3 2.3-2.3 2.3 1 2.3 2.3" fill="#6ecee8"/><path d="m979.3 129.6c0 1.3-1 2.3-2.3 2.3s-2.3-1-2.3-2.3 1-2.3 2.3-2.3 2.3 1 2.3 2.3" fill="#fff"/><path d="m984.1 114.5c0 1.1-.9 2.1-2.1 2.1-1.1 0-2.1-.9-2.1-2.1 0-1.1.9-2.1 2.1-2.1s2.1 1 2.1 2.1" fill="#7495cd"/><path d="m979.1 119.5c0 1.1-.9 2.1-2.1 2.1-1.1 0-2.1-.9-2.1-2.1 0-1.1.9-2.1 2.1-2.1s2.1 1 2.1 2.1" fill="#6ecee8"/><path d="m974.1 124.6c0 1.1-.9 2.1-2.1 2.1-1.1 0-2.1-.9-2.1-2.1 0-1.1.9-2.1 2.1-2.1 1.1 0 2.1.9 2.1 2.1" fill="#fff"/><path d="m978.9 109.5c0 1-.8 1.9-1.9 1.9-1 0-1.9-.8-1.9-1.9 0-1 .8-1.9 1.9-1.9s1.9.9 1.9 1.9" fill="#7495cd"/><path d="m973.9 114.5c0 1-.8 1.9-1.9 1.9-1 0-1.9-.8-1.9-1.9s.8-1.9 1.9-1.9 1.9.9 1.9 1.9" fill="#6ecee8"/><path d="m968.9 119.6c0 1-.8 1.9-1.9 1.9-1 0-1.9-.8-1.9-1.9 0-1 .8-1.9 1.9-1.9 1 0 1.9.8 1.9 1.9" fill="#fff"/><g fill="#7797ce"><path d="m968.7 129.6c0 .9-.7 1.7-1.7 1.7-.9 0-1.7-.7-1.7-1.7 0-.9.7-1.7 1.7-1.7.9 0 1.7.7 1.7 1.7"/><path d="m973.7 134.6c0 .9-.7 1.7-1.7 1.7-.9 0-1.7-.7-1.7-1.7 0-.9.7-1.7 1.7-1.7.9 0 1.7.8 1.7 1.7"/><path d="m978.7 139.6c0 .9-.7 1.7-1.7 1.7s-1.7-.7-1.7-1.7c0-.9.7-1.7 1.7-1.7s1.7.8 1.7 1.7"/><path d="m968.7 139.6c0 .9-.7 1.7-1.7 1.7-.9 0-1.7-.7-1.7-1.7 0-.9.7-1.7 1.7-1.7s1.7.8 1.7 1.7"/><path d="m958.6 139.6c0 .9-.7 1.7-1.7 1.7-.9 0-1.7-.7-1.7-1.7 0-.9.7-1.7 1.7-1.7s1.7.8 1.7 1.7"/><path d="m963.6 134.6c0 .9-.7 1.7-1.7 1.7-.9 0-1.7-.7-1.7-1.7 0-.9.7-1.7 1.7-1.7s1.7.7 1.7 1.7"/></g><path d="m968.7 109.5c0 1-.8 1.7-1.7 1.7-1 0-1.7-.8-1.7-1.7 0-1 .8-1.7 1.7-1.7s1.7.7 1.7 1.7" fill="#6ecee8"/><path d="m963.6 114.6c0 1-.8 1.7-1.7 1.7-1 0-1.7-.8-1.7-1.7 0-1 .8-1.7 1.7-1.7 1-.1 1.7.7 1.7 1.7" fill="#fff"/><path d="m958.3 109.4c0 .8-.6 1.4-1.4 1.4s-1.4-.6-1.4-1.4.6-1.4 1.4-1.4 1.4.7 1.4 1.4" fill="#fff"/></g><path d="m978.9 209.3h42.2c1.9 0 3.4 1.5 3.4 3.4v42.2c0 1.9-1.5 3.4-3.4 3.4h-42.2c-1.9 0-3.4-1.5-3.4-3.4v-42.2c0-1.9 1.5-3.4 3.4-3.4z" fill="#010101"/><g transform="translate(25 40)"><path d="m994.6 193.9c0 1.4-1.1 2.4-2.4 2.4-1.4 0-2.4-1.1-2.4-2.4 0-1.4 1.1-2.4 2.4-2.4s2.4 1.1 2.4 2.4" fill="#7495cd"/><path d="m989.5 198.9c0 1.4-1.1 2.4-2.4 2.4s-2.4-1.1-2.4-2.4c0-1.4 1.1-2.4 2.4-2.4s2.4 1.1 2.4 2.4" fill="#6ecee8"/><path d="m984.5 204c0 1.4-1.1 2.4-2.4 2.4-1.4 0-2.4-1.1-2.4-2.4 0-1.4 1.1-2.4 2.4-2.4s2.4 1 2.4 2.4" fill="#fff"/><path d="m989.4 188.9c0 1.3-1 2.3-2.3 2.3s-2.3-1-2.3-2.3 1-2.3 2.3-2.3c1.2 0 2.3 1 2.3 2.3" fill="#7495cd"/><path d="m984.3 193.9c0 1.3-1 2.3-2.3 2.3s-2.3-1-2.3-2.3 1-2.3 2.3-2.3 2.3 1 2.3 2.3" fill="#6ecee8"/><path d="m979.3 198.9c0 1.3-1 2.3-2.3 2.3s-2.3-1-2.3-2.3 1-2.3 2.3-2.3 2.3 1.1 2.3 2.3" fill="#fff"/><path d="m984.1 183.9c0 1.1-.9 2.1-2.1 2.1-1.1 0-2.1-.9-2.1-2.1 0-1.1.9-2.1 2.1-2.1s2.1 1 2.1 2.1" fill="#7495cd"/><path d="m979.1 188.9c0 1.1-.9 2.1-2.1 2.1-1.1 0-2.1-.9-2.1-2.1 0-1.1.9-2.1 2.1-2.1s2.1.9 2.1 2.1" fill="#6ecee8"/><path d="m974.1 193.9c0 1.1-.9 2.1-2.1 2.1-1.1 0-2.1-.9-2.1-2.1 0-1.1.9-2.1 2.1-2.1 1.1.1 2.1 1 2.1 2.1" fill="#fff"/><path d="m978.9 178.9c0 1-.8 1.9-1.9 1.9-1 0-1.9-.8-1.9-1.9 0-1 .8-1.9 1.9-1.9s1.9.8 1.9 1.9" fill="#7495cd"/><path d="m973.9 183.9c0 1-.8 1.9-1.9 1.9-1 0-1.9-.8-1.9-1.9 0-1 .8-1.9 1.9-1.9s1.9.8 1.9 1.9" fill="#6ecee8"/><path d="m968.9 188.9c0 1-.8 1.9-1.9 1.9-1 0-1.9-.8-1.9-1.9s.8-1.9 1.9-1.9c1 .1 1.9.9 1.9 1.9" fill="#fff"/><g fill="#7797ce"><path d="m968.7 198.9c0 .9-.7 1.7-1.7 1.7-.9 0-1.7-.7-1.7-1.7 0-.9.7-1.7 1.7-1.7.9.1 1.7.8 1.7 1.7"/><path d="m973.7 204c0 .9-.7 1.7-1.7 1.7-.9 0-1.7-.7-1.7-1.7 0-.9.7-1.7 1.7-1.7.9 0 1.7.7 1.7 1.7"/><path d="m978.7 209c0 .9-.7 1.7-1.7 1.7s-1.7-.7-1.7-1.7.7-1.7 1.7-1.7 1.7.7 1.7 1.7"/><path d="m968.7 209c0 .9-.7 1.7-1.7 1.7-.9 0-1.7-.7-1.7-1.7s.7-1.7 1.7-1.7 1.7.7 1.7 1.7"/><path d="m958.6 209c0 .9-.7 1.7-1.7 1.7-.9 0-1.7-.7-1.7-1.7s.7-1.7 1.7-1.7 1.7.7 1.7 1.7"/><path d="m963.6 203.9c0 .9-.7 1.7-1.7 1.7-.9 0-1.7-.7-1.7-1.7s.7-1.7 1.7-1.7c1 .1 1.7.8 1.7 1.7"/></g><path d="m968.7 178.9c0 1-.8 1.7-1.7 1.7-1 0-1.7-.8-1.7-1.7 0-1 .8-1.7 1.7-1.7.9-.1 1.7.7 1.7 1.7" fill="#6ecee8"/><path d="m963.6 184c0 1-.8 1.7-1.7 1.7-1 0-1.7-.8-1.7-1.7 0-1 .8-1.7 1.7-1.7 1-.1 1.7.7 1.7 1.7" fill="#fff"/><path d="m958.3 178.8c0 .8-.6 1.4-1.4 1.4s-1.4-.6-1.4-1.4.6-1.4 1.4-1.4 1.4.6 1.4 1.4" fill="#fff"/></g><text fill="#434343" font-family="'Arial'" font-size="8.9001" transform="translate(971.7057 51.2725)">Query Layer</text><path d="m157.6 154h43.8c.7 0 1.1-.7.9-1.4l-8.2-16.4c-.2-.2-.7-.5-.9-.5h-27.4c-.2 0-.7.2-.7.5l-8.4 16.4c-.3.7.2 1.4.9 1.4z" fill="url(#R)"/><path d="m157.6 158.6c-.2 0-.7 0-.9-.2v6.8c0 1.4.9 2.3 2.3 2.3h41c1.4 0 2.3-.9 2.3-2.3v-6.8c-.2 0-.5 0-.9 0h-43.8zm37.8 6.8c-1.4 0-2.3-.9-2.3-2.3s.9-2.3 2.3-2.3 2.3.9 2.3 2.3c0 1.2-.9 2.3-2.3 2.3z" fill="url(#S)"/><path d="m157.6 172.3c-.2 0-.7 0-.9 0v6.8c0 1.4.9 2.3 2.3 2.3h41c1.4 0 2.3-.9 2.3-2.3v-6.8c-.2 0-.5 0-.9 0zm37.8 6.8c-1.4 0-2.3-.9-2.3-2.3s.9-2.3 2.3-2.3 2.3.9 2.3 2.3c0 1.2-.9 2.3-2.3 2.3z" fill="url(#T)"/><path d="m651.5 69.3h-15.1c-6.6 0-12-5.4-12-12v-26.5c0-6.6 5.4-12 12-12h15.1c6.6 0 12 5.4 12 12v26.5c0 6.6-5.4 12-12 12z" fill="#fff"/><path d="m651.5 22.8c4.4 0 8 3.6 8 8v26.5c0 4.4-3.6 8-8 8h-15.1c-4.4 0-8-3.6-8-8v-26.5c0-4.4 3.6-8 8-8zm0-4h-15.1c-6.6 0-12 5.4-12 12v26.5c0 6.6 5.4 12 12 12h15.1c6.6 0 12-5.4 12-12v-26.5c0-6.6-5.4-12-12-12z" fill="url(#V)"/><path d="m638.4 40.9h-2.7c-1.5 0-2.8-1.2-2.8-2.8v-7.5c0-1.5 1.2-2.8 2.8-2.8h2.7c1.5 0 2.8 1.2 2.8 2.8v7.5c0 1.6-1.2 2.8-2.8 2.8z" fill="url(#W)"/><path d="m652.2 40.9h-2.7c-1.5 0-2.8-1.2-2.8-2.8v-7.5c0-1.5 1.2-2.8 2.8-2.8h2.7c1.5 0 2.8 1.2 2.8 2.8v7.5c-.1 1.6-1.3 2.8-2.8 2.8z" fill="url(#X)"/><path d="m638.4 60.2h-2.7c-1.5 0-2.8-1.2-2.8-2.8v-7.4c0-1.5 1.2-2.8 2.8-2.8h2.7c1.5 0 2.8 1.2 2.8 2.8v7.5c0 1.5-1.2 2.7-2.8 2.7z" fill="url(#Y)"/><path d="m652.2 60.2h-2.7c-1.5 0-2.8-1.2-2.8-2.8v-7.4c0-1.5 1.2-2.8 2.8-2.8h2.7c1.5 0 2.8 1.2 2.8 2.8v7.5c-.1 1.5-1.3 2.7-2.8 2.7z" fill="url(#Z)"/><g fill="#fff"><path d="m632.4 68v8.5" stroke="url(#aa)" stroke-miterlimit="10" stroke-width="4"/><path d="m655.3 68v8.5" stroke="url(#ab)" stroke-miterlimit="10" stroke-width="4"/><path d="m647.6 69.3v7.2" stroke="url(#ac)" stroke-miterlimit="10" stroke-width="4"/><path d="m640 69.3v7.2" stroke="url(#ad)" stroke-miterlimit="10" stroke-width="4"/><path d="m663.5 55.5h7.2" stroke="url(#ae)" stroke-miterlimit="10" stroke-width="4"/><path d="m663.5 32.6h7.2" stroke="url(#af)" stroke-miterlimit="10" stroke-width="4"/><path d="m663.5 40.2h7.2" stroke="url(#ag)" stroke-miterlimit="10" stroke-width="4"/><path d="m663.5 47.9h7.2" stroke="url(#ah)" stroke-miterlimit="10" stroke-width="4"/><path d="m618.6 55.5h7.3" stroke="url(#ai)" stroke-miterlimit="10" stroke-width="4"/><path d="m618.6 32.6h7.3" stroke="url(#aj)" stroke-miterlimit="10" stroke-width="4"/><path d="m618.6 40.2h7.3" stroke="url(#ak)" stroke-miterlimit="10" stroke-width="4"/><path d="m618.6 47.9h7.3" stroke="url(#al)" stroke-miterlimit="10" stroke-width="4"/><path d="m632.4 13v8" stroke="url(#am)" stroke-miterlimit="10" stroke-width="4"/><path d="m655.3 13v7.2" stroke="url(#an)" stroke-miterlimit="10" stroke-width="4"/><path d="m647.6 13v6" stroke="url(#ao)" stroke-miterlimit="10" stroke-width="4"/><path d="m640 13v6" stroke="url(#ap)" stroke-miterlimit="10" stroke-width="4"/><path d="m651.5 182.3h-15.1c-6.6 0-12-5.4-12-12v-26.5c0-6.6 5.4-12 12-12h15.1c6.6 0 12 5.4 12 12v26.5c0 6.6-5.4 12-12 12z"/></g><path d="m651.5 135.8c4.4 0 8 3.6 8 8v26.5c0 4.4-3.6 8-8 8h-15.1c-4.4 0-8-3.6-8-8v-26.5c0-4.4 3.6-8 8-8zm0-4h-15.1c-6.6 0-12 5.4-12 12v26.5c0 6.6 5.4 12 12 12h15.1c6.6 0 12-5.4 12-12v-26.5c0-6.6-5.4-12-12-12z" fill="url(#aq)"/><path d="m638.4 153.9h-2.7c-1.5 0-2.8-1.2-2.8-2.8v-7.5c0-1.5 1.2-2.8 2.8-2.8h2.7c1.5 0 2.8 1.2 2.8 2.8v7.5c0 1.6-1.2 2.8-2.8 2.8z" fill="url(#ar)"/><path d="m652.2 153.9h-2.7c-1.5 0-2.8-1.2-2.8-2.8v-7.5c0-1.5 1.2-2.8 2.8-2.8h2.7c1.5 0 2.8 1.2 2.8 2.8v7.5c-.1 1.6-1.3 2.8-2.8 2.8z" fill="url(#as)"/><path d="m638.4 173.2h-2.7c-1.5 0-2.8-1.2-2.8-2.8v-7.4c0-1.5 1.2-2.8 2.8-2.8h2.7c1.5 0 2.8 1.2 2.8 2.8v7.5c0 1.5-1.2 2.7-2.8 2.7z" fill="url(#at)"/><path d="m652.2 173.2h-2.7c-1.5 0-2.8-1.2-2.8-2.8v-7.4c0-1.5 1.2-2.8 2.8-2.8h2.7c1.5 0 2.8 1.2 2.8 2.8v7.5c-.1 1.5-1.3 2.7-2.8 2.7z" fill="url(#au)"/><path d="m632.4 181v8.5" fill="#fff" stroke="url(#av)" stroke-miterlimit="10" stroke-width="4"/><path d="m655.3 181v8.5" fill="#fff" stroke="url(#aw)" stroke-miterlimit="10" stroke-width="4"/><path d="m647.6 182.3v7.2" fill="#fff" stroke="url(#ax)" stroke-miterlimit="10" stroke-width="4"/><path d="m640 182.3v7.2" fill="#fff" stroke="url(#ay)" stroke-miterlimit="10" stroke-width="4"/><path d="m663.5 168.5h7.2" fill="#fff" stroke="url(#az)" stroke-miterlimit="10" stroke-width="4"/><path d="m663.5 145.6h7.2" fill="#fff" stroke="url(#aA)" stroke-miterlimit="10" stroke-width="4"/><path d="m663.5 153.2h7.2" fill="#fff" stroke="url(#aB)" stroke-miterlimit="10" stroke-width="4"/><path d="m663.5 160.9h7.2" fill="#fff" stroke="url(#aC)" stroke-miterlimit="10" stroke-width="4"/><path d="m618.6 168.5h7.3" fill="#fff" stroke="url(#aD)" stroke-miterlimit="10" stroke-width="4"/><path d="m618.6 145.6h7.3" fill="#fff" stroke="url(#aE)" stroke-miterlimit="10" stroke-width="4"/><path d="m618.6 153.2h7.3" fill="#fff" stroke="url(#aF)" stroke-miterlimit="10" stroke-width="4"/><path d="m618.6 160.9h7.3" fill="#fff" stroke="url(#aG)" stroke-miterlimit="10" stroke-width="4"/><path d="m632.4 126v8" fill="#fff" stroke="url(#aH)" stroke-miterlimit="10" stroke-width="4"/><path d="m655.3 126v7.2" fill="#fff" stroke="url(#aI)" stroke-miterlimit="10" stroke-width="4"/><path d="m647.6 126v6" fill="#fff" stroke="url(#aJ)" stroke-miterlimit="10" stroke-width="4"/><path d="m640 126v6" fill="#fff" stroke="url(#aK)" stroke-miterlimit="10" stroke-width="4"/><path d="m651.5 294.3h-15.1c-6.6 0-12-5.4-12-12v-26.5c0-6.6 5.4-12 12-12h15.1c6.6 0 12 5.4 12 12v26.5c0 6.6-5.4 12-12 12z" fill="#fff"/><path d="m651.5 247.8c4.4 0 8 3.6 8 8v26.5c0 4.4-3.6 8-8 8h-15.1c-4.4 0-8-3.6-8-8v-26.5c0-4.4 3.6-8 8-8zm0-4h-15.1c-6.6 0-12 5.4-12 12v26.5c0 6.6 5.4 12 12 12h15.1c6.6 0 12-5.4 12-12v-26.5c0-6.6-5.4-12-12-12z" fill="url(#aL)"/><path d="m638.4 265.9h-2.7c-1.5 0-2.8-1.2-2.8-2.8v-7.5c0-1.5 1.2-2.8 2.8-2.8h2.7c1.5 0 2.8 1.2 2.8 2.8v7.5c0 1.6-1.2 2.8-2.8 2.8z" fill="url(#aM)"/><path d="m652.2 265.9h-2.7c-1.5 0-2.8-1.2-2.8-2.8v-7.5c0-1.5 1.2-2.8 2.8-2.8h2.7c1.5 0 2.8 1.2 2.8 2.8v7.5c-.1 1.6-1.3 2.8-2.8 2.8z" fill="url(#aN)"/><path d="m638.4 285.2h-2.7c-1.5 0-2.8-1.2-2.8-2.8v-7.4c0-1.5 1.2-2.8 2.8-2.8h2.7c1.5 0 2.8 1.2 2.8 2.8v7.5c0 1.5-1.2 2.7-2.8 2.7z" fill="url(#aO)"/><path d="m652.2 285.2h-2.7c-1.5 0-2.8-1.2-2.8-2.8v-7.4c0-1.5 1.2-2.8 2.8-2.8h2.7c1.5 0 2.8 1.2 2.8 2.8v7.5c-.1 1.5-1.3 2.7-2.8 2.7z" fill="url(#aP)"/><path d="m632.4 293v8.5" fill="#fff" stroke="url(#aQ)" stroke-miterlimit="10" stroke-width="4"/><path d="m655.3 293v8.5" fill="#fff" stroke="url(#aR)" stroke-miterlimit="10" stroke-width="4"/><path d="m647.6 294.3v7.2" fill="#fff" stroke="url(#aS)" stroke-miterlimit="10" stroke-width="4"/><path d="m640 294.3v7.2" fill="#fff" stroke="url(#aT)" stroke-miterlimit="10" stroke-width="4"/><path d="m663.5 280.5h7.2" fill="#fff" stroke="url(#aU)" stroke-miterlimit="10" stroke-width="4"/><path d="m663.5 257.6h7.2" fill="#fff" stroke="url(#aV)" stroke-miterlimit="10" stroke-width="4"/><path d="m663.5 265.2h7.2" fill="#fff" stroke="url(#aW)" stroke-miterlimit="10" stroke-width="4"/><path d="m663.5 272.9h7.2" fill="#fff" stroke="url(#aX)" stroke-miterlimit="10" stroke-width="4"/><path d="m618.6 280.5h7.3" fill="#fff" stroke="url(#aY)" stroke-miterlimit="10" stroke-width="4"/><path d="m618.6 257.6h7.3" fill="#fff" stroke="url(#aZ)" stroke-miterlimit="10" stroke-width="4"/><path d="m618.6 265.2h7.3" fill="#fff" stroke="url(#a0)" stroke-miterlimit="10" stroke-width="4"/><path d="m618.6 272.9h7.3" fill="#fff" stroke="url(#a1)" stroke-miterlimit="10" stroke-width="4"/><path d="m632.4 238v8" fill="#fff" stroke="url(#a2)" stroke-miterlimit="10" stroke-width="4"/><path d="m655.3 238v7.2" fill="#fff" stroke="url(#a3)" stroke-miterlimit="10" stroke-width="4"/><path d="m647.6 238v6" fill="#fff" stroke="url(#a4)" stroke-miterlimit="10" stroke-width="4"/><path d="m640 238v6" fill="#fff" stroke="url(#a5)" stroke-miterlimit="10" stroke-width="4"/></svg>