<svg enable-background="new 0 0 820 289" viewBox="0 0 820 289" xmlns="http://www.w3.org/2000/svg" xmlns:xlink="http://www.w3.org/1999/xlink"><linearGradient id="a"><stop offset=".002483974" stop-color="#57c8e1"/><stop offset=".1396" stop-color="#58c1de"/><stop offset=".3628" stop-color="#58b2d7"/><stop offset=".6444" stop-color="#579acb"/><stop offset=".9705" stop-color="#577abc"/><stop offset="1" stop-color="#5777bb"/></linearGradient><linearGradient id="b" gradientUnits="userSpaceOnUse" x1="12.5776" x2="54.8006" xlink:href="#a" y1="104.671" y2="104.671"/><linearGradient id="c" gradientUnits="userSpaceOnUse" x1="23.2369" x2="43.1339" xlink:href="#a" y1="106.4774" y2="106.4774"/><linearGradient id="d" gradientUnits="userSpaceOnUse" x1="33.1237" x2="38.0763" xlink:href="#a" y1="94.5215" y2="94.5215"/><linearGradient id="e" gradientUnits="userSpaceOnUse" x1="12.5776" x2="54.8006" xlink:href="#a" y1="28.4052" y2="28.4052"/><linearGradient id="f" gradientUnits="userSpaceOnUse" x1="23.6881" x2="43.7081" xlink:href="#a" y1="28.0983" y2="28.0983"/><linearGradient id="g" gradientUnits="userSpaceOnUse" x1="12.5776" x2="54.8006" xlink:href="#a" y1="180.9368" y2="180.9368"/><linearGradient id="h" gradientUnits="userSpaceOnUse" x1="22.2387" x2="45.1396" xlink:href="#a" y1="180.9368" y2="180.9368"/><linearGradient id="i" gradientUnits="userSpaceOnUse" x1="12.5776" x2="54.8006" xlink:href="#a" y1="257.2026" y2="257.2026"/><linearGradient id="j" gradientUnits="userSpaceOnUse" x1="22.616" x2="32.5965" xlink:href="#a" y1="257.2026" y2="257.2026"/><linearGradient id="k" gradientUnits="userSpaceOnUse" x1="33.5237" x2="41.2412" xlink:href="#a" y1="257.2026" y2="257.2026"/><linearGradient id="l" gradientUnits="userSpaceOnUse" x1="42.7026" x2="44.7622" xlink:href="#a" y1="257.2026" y2="257.2026"/><linearGradient id="m" gradientTransform="matrix(-1 0 0 -1 2951 -432.4404)" gradientUnits="userSpaceOnUse" x1="2845.8149" x2="2845.8149" xlink:href="#a" y1="-541.3339" y2="-464.1539"/><linearGradient id="n" gradientTransform="matrix(-1 0 0 1 2951 -125.9774)" gradientUnits="userSpaceOnUse" x1="2844.8149" x2="2844.8149" xlink:href="#a" y1="306.0442" y2="374.3195"/><linearGradient id="o" gradientUnits="userSpaceOnUse" x1="98.5383" x2="98.5383" xlink:href="#a" y1="104.4009" y2="132.5277"/><linearGradient id="p" gradientTransform="matrix(1 0 0 -1 0 -687.848)" gradientUnits="userSpaceOnUse" x1="99.449" x2="99.449" xlink:href="#a" y1="-869.1846" y2="-844.3169"/><linearGradient id="q" gradientUnits="userSpaceOnUse" x1="137.8424" x2="221.0858" xlink:href="#a" y1="144.5776" y2="144.5776"/><linearGradient id="r" gradientUnits="userSpaceOnUse" x1="273.2328" x2="254.0916" xlink:href="#a" y1="128.0009" y2="161.1543"/><linearGradient id="s" gradientUnits="userSpaceOnUse" x1="420.0641" x2="400.6859" xlink:href="#a" y1="127.5853" y2="161.1494"/><linearGradient id="t"><stop offset=".002483974" stop-color="#892886"/><stop offset=".06495388" stop-color="#8f2983"/><stop offset=".1667" stop-color="#a02c7c"/><stop offset=".295" stop-color="#bc336f"/><stop offset=".4435" stop-color="#e33f5a"/><stop offset=".4634" stop-color="#e94057"/><stop offset=".6317" stop-color="#eb504d"/><stop offset=".9938" stop-color="#f27124"/><stop offset="1" stop-color="#f27123"/></linearGradient><linearGradient id="u" gradientUnits="userSpaceOnUse" x1="303.6915" x2="344.0395" xlink:href="#t" y1="145.1052" y2="145.1052"/><linearGradient id="v" gradientUnits="userSpaceOnUse" x1="331.9525" x2="361.4301" xlink:href="#t" y1="135.1703" y2="135.1703"/><linearGradient id="w" gradientUnits="userSpaceOnUse" x1="365.8293" x2="359.7156" xlink:href="#t" y1="134.8048" y2="128.6911"/><linearGradient id="x" gradientTransform="matrix(1 0 0 -1 0 -3147.5)" gradientUnits="userSpaceOnUse" x1="332.3127" x2="361.7904" xlink:href="#t" y1="-3302.4841" y2="-3302.4841"/><linearGradient id="y" gradientTransform="matrix(1 0 0 -1 0 -3147.5)" gradientUnits="userSpaceOnUse" x1="366.1895" x2="360.0759" xlink:href="#t" y1="-3302.8496" y2="-3308.9634"/><linearGradient id="z" gradientUnits="userSpaceOnUse" x1="331.9525" x2="365.493" xlink:href="#t" y1="145.3527" y2="145.3527"/><linearGradient id="A" gradientUnits="userSpaceOnUse" x1="365.8293" x2="359.7156" xlink:href="#t" y1="148.4095" y2="142.2959"/><linearGradient id="B"><stop offset=".002483974" stop-color="#35c2f2"/><stop offset=".1331" stop-color="#37bced"/><stop offset=".3458" stop-color="#39ade3"/><stop offset=".614" stop-color="#3d95d1"/><stop offset=".9246" stop-color="#4176bb"/><stop offset="1" stop-color="#416fb6"/></linearGradient><linearGradient id="C" gradientUnits="userSpaceOnUse" x1="470.6836" x2="474.3224" xlink:href="#B" y1="164.3312" y2="158.0286"/><linearGradient id="D" gradientUnits="userSpaceOnUse" x1="495.6255" x2="497.1024" xlink:href="#B" y1="137.8578" y2="135.2995"/><linearGradient id="E" gradientUnits="userSpaceOnUse" x1="478.4777" x2="483.4748" xlink:href="#B" y1="170.0803" y2="161.4251"/><linearGradient id="F" gradientUnits="userSpaceOnUse" x1="471.8481" x2="472.8358" xlink:href="#B" y1="164.0768" y2="162.366"/><linearGradient id="G" gradientUnits="userSpaceOnUse" x1="469.9786" x2="496.0759" xlink:href="#B" y1="171.3468" y2="126.1449"/><linearGradient id="H" gradientUnits="userSpaceOnUse" x1="493.4297" x2="494.2036" xlink:href="#B" y1="141.237" y2="139.8967"/><linearGradient id="I" gradientUnits="userSpaceOnUse" x1="500.8582" x2="505.3409" xlink:href="#B" y1="163.1836" y2="155.4194"/><linearGradient id="J" gradientUnits="userSpaceOnUse" x1="494.1743" x2="499.0035" xlink:href="#B" y1="147.5248" y2="139.1604"/><linearGradient id="K" gradientUnits="userSpaceOnUse" x1="466.6667" x2="475.5204" xlink:href="#B" y1="152.3252" y2="136.9902"/><linearGradient id="L" gradientUnits="userSpaceOnUse" x1="489.1294" x2="503.8863" xlink:href="#B" y1="146.972" y2="121.4122"/><linearGradient id="M" gradientUnits="userSpaceOnUse" x1="494.4913" x2="495.2215" xlink:href="#B" y1="161.0601" y2="159.7955"/><linearGradient id="N" gradientUnits="userSpaceOnUse" x1="477.0898" x2="477.8924" xlink:href="#B" y1="161.8584" y2="160.4682"/><linearGradient id="O" gradientUnits="userSpaceOnUse" x1="450.0107" x2="471.1147" xlink:href="#B" y1="157.339" y2="120.7858"/><linearGradient id="P" gradientUnits="userSpaceOnUse" x1="587.2611" x2="562.3079" xlink:href="#a" y1="50.4557" y2="93.6759"/><linearGradient id="Q" gradientUnits="userSpaceOnUse" x1="587.2611" x2="562.3079" xlink:href="#a" y1="127.8031" y2="171.0233"/><linearGradient id="R" gradientUnits="userSpaceOnUse" x1="587.2611" x2="562.3079" xlink:href="#a" y1="205.1505" y2="248.3707"/><linearGradient id="S"><stop offset=".002483974" stop-color="#3abfef"/><stop offset=".09135145" stop-color="#4ac0e7"/><stop offset=".2361" stop-color="#67c4d8"/><stop offset=".4189" stop-color="#8acabf"/><stop offset=".6325" stop-color="#b1d49a"/><stop offset=".869" stop-color="#dee360"/><stop offset="1" stop-color="#f7ec23"/></linearGradient><linearGradient id="T" gradientUnits="userSpaceOnUse" x1="630.1195" x2="662.7425" xlink:href="#S" y1="91.8809" y2="91.8809"/><linearGradient id="U" gradientUnits="userSpaceOnUse" x1="630.1196" x2="662.7426" xlink:href="#S" y1="89.1514" y2="89.1514"/><linearGradient id="V" gradientUnits="userSpaceOnUse" x1="630.1196" x2="662.7426" xlink:href="#S" y1="86.8934" y2="86.8934"/><linearGradient id="W" gradientUnits="userSpaceOnUse" x1="630.1195" x2="662.7425" xlink:href="#S" y1="74.5595" y2="74.5595"/><linearGradient id="X" gradientUnits="userSpaceOnUse" x1="630.1196" x2="662.7426" xlink:href="#S" y1="71.83" y2="71.83"/><linearGradient id="Y" gradientUnits="userSpaceOnUse" x1="630.1196" x2="662.7426" xlink:href="#S" y1="69.5721" y2="69.5721"/><linearGradient id="Z" gradientUnits="userSpaceOnUse" x1="630.1195" x2="662.7425" xlink:href="#S" y1="57.2382" y2="57.2382"/><linearGradient id="aa" gradientUnits="userSpaceOnUse" x1="630.1196" x2="662.7426" xlink:href="#S" y1="54.5087" y2="54.5087"/><linearGradient id="ab" gradientUnits="userSpaceOnUse" x1="630.1196" x2="662.7426" xlink:href="#S" y1="52.2507" y2="52.2507"/><linearGradient id="ac" gradientUnits="userSpaceOnUse" x1="630.1195" x2="662.7425" xlink:href="#S" y1="169.2283" y2="169.2283"/><linearGradient id="ad" gradientUnits="userSpaceOnUse" x1="630.1196" x2="662.7426" xlink:href="#S" y1="166.4988" y2="166.4988"/><linearGradient id="ae" gradientUnits="userSpaceOnUse" x1="630.1196" x2="662.7426" xlink:href="#S" y1="164.2408" y2="164.2408"/><linearGradient id="af" gradientUnits="userSpaceOnUse" x1="630.1195" x2="662.7425" xlink:href="#S" y1="151.9069" y2="151.9069"/><linearGradient id="ag" gradientUnits="userSpaceOnUse" x1="630.1196" x2="662.7426" xlink:href="#S" y1="149.1774" y2="149.1774"/><linearGradient id="ah" gradientUnits="userSpaceOnUse" x1="630.1196" x2="662.7426" xlink:href="#S" y1="146.9194" y2="146.9194"/><linearGradient id="ai" gradientUnits="userSpaceOnUse" x1="630.1195" x2="662.7425" xlink:href="#S" y1="134.5856" y2="134.5856"/><linearGradient id="aj" gradientUnits="userSpaceOnUse" x1="630.1196" x2="662.7426" xlink:href="#S" y1="131.8561" y2="131.8561"/><linearGradient id="ak" gradientUnits="userSpaceOnUse" x1="630.1196" x2="662.7426" xlink:href="#S" y1="129.5981" y2="129.5981"/><linearGradient id="al" gradientUnits="userSpaceOnUse" x1="630.1195" x2="662.7425" xlink:href="#S" y1="246.5757" y2="246.5757"/><linearGradient id="am" gradientUnits="userSpaceOnUse" x1="630.1196" x2="662.7426" xlink:href="#S" y1="243.8462" y2="243.8462"/><linearGradient id="an" gradientUnits="userSpaceOnUse" x1="630.1196" x2="662.7426" xlink:href="#S" y1="241.5883" y2="241.5883"/><linearGradient id="ao" gradientUnits="userSpaceOnUse" x1="630.1195" x2="662.7425" xlink:href="#S" y1="229.2544" y2="229.2544"/><linearGradient id="ap" gradientUnits="userSpaceOnUse" x1="630.1196" x2="662.7426" xlink:href="#S" y1="226.5248" y2="226.5248"/><linearGradient id="aq" gradientUnits="userSpaceOnUse" x1="630.1196" x2="662.7426" xlink:href="#S" y1="224.2668" y2="224.2668"/><linearGradient id="ar" gradientUnits="userSpaceOnUse" x1="630.1195" x2="662.7425" xlink:href="#S" y1="211.933" y2="211.933"/><linearGradient id="as" gradientUnits="userSpaceOnUse" x1="630.1196" x2="662.7426" xlink:href="#S" y1="209.2035" y2="209.2035"/><linearGradient id="at" gradientUnits="userSpaceOnUse" x1="630.1196" x2="662.7426" xlink:href="#S" y1="206.9456" y2="206.9456"/><linearGradient id="au" gradientUnits="userSpaceOnUse" x1="568.6362" x2="485.3638" xlink:href="#a" y1="75.884" y2="220.116"/><linearGradient id="av"><stop offset=".002483974" stop-color="#0f998e"/><stop offset=".2362" stop-color="#289e8b"/><stop offset=".6165" stop-color="#4dac82"/><stop offset="1" stop-color="#6fc171"/></linearGradient><linearGradient id="aw" gradientUnits="userSpaceOnUse" x1="156.6055" x2="202.3226" xlink:href="#av" y1="130.898" y2="130.898"/><linearGradient id="ax" gradientUnits="userSpaceOnUse" x1="156.6648" x2="202.2633" xlink:href="#av" y1="148.9094" y2="148.9094"/><linearGradient id="ay" gradientUnits="userSpaceOnUse" x1="156.6648" x2="202.2633" xlink:href="#av" y1="162.817" y2="162.817"/><circle cx="179.5" cy="144.6" fill="#fff" r="41.6"/><text fill="#8e8e8e" font-family="'Arial'" font-size="9.625" transform="translate(150.9743 212.0107)">Rakam API</text><text fill="#8e8e8e" font-family="'Arial'" font-size="9.625" transform="translate(298.2124 212.1475)">Enrich &amp; Sanitize</text><circle cx="33.7" cy="104.7" fill="#fff" r="19.7"/><path d="m33.7 87.6c9.4 0 17.1 7.7 17.1 17.1s-7.7 17.1-17.1 17.1-17.1-7.7-17.1-17.1 7.7-17.1 17.1-17.1m0-4c-11.7 0-21.1 9.5-21.1 21.1 0 11.7 9.5 21.1 21.1 21.1s21.1-9.5 21.1-21.1c0-11.7-9.5-21.1-21.1-21.1z" fill="url(#b)"/><path d="m39.9 104.4c0 3.6 3.2 4.8 3.3 4.8 0 .1-.5 1.7-1.7 3.4-1 1.4-2.1 2.9-3.7 2.9s-2.2-.9-4-.9c-1.9 0-2.5.9-4 1-1.6.1-2.8-1.6-3.9-3-2.1-2.9-3.7-8.3-1.5-11.9 1.1-1.8 3-2.9 5.1-3 1.6 0 3.1 1 4 1 1 0 2.8-1.3 4.7-1.1.8 0 3 .3 4.5 2.3-.3 0-2.9 1.5-2.8 4.5" fill="url(#c)"/><path d="m36.8 95.6c.9-1 1.4-2.4 1.3-3.8-1.2 0-2.7.8-3.6 1.8-.8.9-1.5 2.3-1.3 3.7 1.3 0 2.7-.7 3.6-1.7" fill="url(#d)"/><circle cx="33.7" cy="28.4" fill="#fff" r="19.7"/><path d="m33.7 11.3c9.4 0 17.1 7.7 17.1 17.1s-7.7 17.1-17.1 17.1-17.1-7.7-17.1-17.1 7.7-17.1 17.1-17.1m0-4c-11.7 0-21.1 9.5-21.1 21.1s9.4 21.1 21.1 21.1 21.1-9.5 21.1-21.1-9.5-21.1-21.1-21.1z" fill="url(#e)"/><path d="m42.3 24c-.7 0-1.4.6-1.4 1.4v5.4c0 .7.6 1.4 1.4 1.4s1.4-.6 1.4-1.4v-5.4c0-.8-.6-1.4-1.4-1.4zm-17.2 0c-.7 0-1.4.6-1.4 1.4v5.4c0 .7.6 1.4 1.4 1.4.7 0 1.4-.6 1.4-1.4v-5.4c-.1-.8-.7-1.4-1.4-1.4zm2.5 8.9c0 1.1.9 2 2 2h.7v2.7c0 .7.6 1.4 1.4 1.4s1.4-.6 1.4-1.4v-2.7h1.4v2.7c0 .7.6 1.4 1.4 1.4.7 0 1.4-.6 1.4-1.4v-2.7h.7c1.1 0 2-.9 2-2v-7.5h-12.4zm8.6-13.8.9-1.7c0-.1 0-.2-.1-.2s-.2 0-.2.1l-.9 1.7c-.7-.3-1.4-.4-2.2-.4s-1.5.1-2.2.4l-.9-1.7c0-.1-.1-.1-.2-.1s-.1.1-.1.2l.9 1.7c-1.9.9-3.3 2.7-3.6 4.9h12.2c-.3-2.2-1.6-4-3.6-4.9zm-5.2 3.9c-.5 0-1-.4-1-1s.4-1 1-1c.5 0 1 .4 1 1 0 .5-.5 1-1 1zm5.4 0c-.5 0-1-.4-1-1s.4-1 1-1 1 .4 1 1-.4 1-1 1z" fill="url(#f)"/><circle cx="33.7" cy="180.9" fill="#fff" r="19.7"/><path d="m33.7 163.8c9.4 0 17.1 7.7 17.1 17.1s-7.7 17.1-17.1 17.1-17.1-7.7-17.1-17.1 7.7-17.1 17.1-17.1m0-4c-11.7 0-21.1 9.5-21.1 21.1s9.4 21.1 21.1 21.1 21.1-9.5 21.1-21.1-9.5-21.1-21.1-21.1z" fill="url(#g)"/><path d="m28.7 187.3c.3 1.6.9 3.2 1.8 4.7-2.1-.6-4-1.8-5.5-3.5 1.2-.6 2.4-1 3.7-1.2zm-.3-1.6c-.5-3.2-.5-6.4 0-9.5-1.5-.3-3-.7-4.4-1.4-2.4 3.7-2.4 8.5 0 12.3 1.4-.7 2.9-1.1 4.4-1.4zm2.1-15.8c-2.1.6-4 1.8-5.5 3.5 1.2.5 2.4.9 3.7 1.1.3-1.6 1-3.1 1.8-4.6zm6.4 0c.9 1.4 1.5 3 1.8 4.7 1.3-.2 2.5-.6 3.7-1.1-1.5-1.7-3.4-2.9-5.5-3.6zm.1 5c-.8-3.3-2.1-5.4-3.3-5.4s-2.6 2.1-3.3 5.4c1.1.1 2.2.2 3.3.2s2.2-.1 3.3-.2zm-7.3 6c0 1.5.1 3 .4 4.5 1.2-.2 2.4-.2 3.7-.2 1.2 0 2.5.1 3.7.2.2-1.5.4-3 .4-4.5s-.1-3-.4-4.5c-1.2.2-2.4.2-3.7.2-1.2 0-2.5-.1-3.7-.2-.3 1.5-.4 3-.4 4.5zm4 11.5c1.2 0 2.6-2.1 3.3-5.4-2.2-.3-4.5-.3-6.7 0 .8 3.3 2.2 5.4 3.4 5.4zm5.6-11.5c0 1.6-.1 3.2-.4 4.8 1.5.3 3 .7 4.4 1.4 2.4-3.7 2.4-8.5 0-12.3-1.4.6-2.9 1.1-4.4 1.4.3 1.6.4 3.1.4 4.7zm3.1 7.5c-1.2-.5-2.4-.9-3.7-1.1-.3 1.6-.9 3.2-1.8 4.7 2.1-.7 4-1.9 5.5-3.6z" fill="url(#h)"/><circle cx="33.7" cy="257.2" fill="#fff" r="19.7"/><path d="m33.7 240.1c9.4 0 17.1 7.7 17.1 17.1s-7.7 17.1-17.1 17.1-17.1-7.7-17.1-17.1 7.7-17.1 17.1-17.1m0-4c-11.7 0-21.1 9.5-21.1 21.1s9.5 21.1 21.1 21.1 21.1-9.5 21.1-21.1-9.5-21.1-21.1-21.1z" fill="url(#i)"/><path d="m29.6 259.7h-4.1l-.8 1.9h-2.1l4-8.9h2l4 8.9h-2.2zm-.6-1.5-1.4-3.4-1.4 3.4z" fill="url(#j)"/><path d="m41.2 256c0 2-1.5 3.2-3.9 3.2h-1.8v2.5h-2.1v-8.9h3.9c2.5 0 3.9 1.2 3.9 3.2zm-2 0c0-1-.6-1.6-1.9-1.6h-1.7v3.1h1.7c1.2 0 1.9-.6 1.9-1.5z" fill="url(#k)"/><path d="m42.7 252.8h2.1v8.9h-2.1z" fill="url(#l)"/><g fill="none" stroke-dasharray="8 4" stroke-linejoin="round" stroke-miterlimit="10" stroke-width="3.4"><path d="m148.4 107.6-86.4-74.6" stroke="url(#m)"/><path d="m148.4 181.4-84.4 65.6" stroke="url(#n)"/><path d="m64 106 69.1 24.9" stroke="url(#o)"/><path d="m65.8 179.7 67.3-21.6" stroke="url(#p)"/></g><path d="m179.5 107c20.7 0 37.6 16.9 37.6 37.6s-16.9 37.6-37.6 37.6-37.6-16.9-37.6-37.6 16.8-37.6 37.6-37.6m0-4c-23 0-41.6 18.6-41.6 41.6s18.6 41.6 41.6 41.6 41.6-18.6 41.6-41.6-18.6-41.6-41.6-41.6z" fill="url(#q)"/><path d="m228.3 144.6h70.7" style="fill:none;stroke-width:3.4;stroke-linejoin:round;stroke-miterlimit:10;stroke-dasharray:8 4;stroke:url(#r)"/><path d="m374.6 144.4h71.6" style="fill:none;stroke-width:3.4;stroke-linejoin:round;stroke-miterlimit:10;stroke-dasharray:8 4;stroke:url(#s)"/><path d="m332 135.2.6-.9h8.9l2.5-2.5-5.2-4.9-3.7 2.2-4.6-1.5-.6-4.6h-8l-.9 4.6-4.3 1.5-4-2.2-5.2 5.2 2.5 3.7-1.8 4.6-4.3.9v7.4l4 1.2 2.2 4.6-2.5 3.7 5.2 5.2 4-2.5 4.9 1.8.6 4.3h7.4l.9-4.3 4.6-1.8 3.4 2.5 5.5-4.9-2.5-2.5h-8.9l-1.5-1.2s-17.2 5.2-16.6-10.8c2-15.5 17.4-8.8 17.4-8.8z" fill="url(#u)"/><path d="m334 138.6h11.7l7.3-6.9h6.4" fill="none" stroke="url(#v)" stroke-linecap="round" stroke-miterlimit="10" stroke-width="4"/><circle cx="362.8" cy="131.7" fill="url(#w)" r="4.3"/><path d="m334.3 151.6h11.8l7.2 6.8h6.5" fill="none" stroke="url(#x)" stroke-linecap="round" stroke-miterlimit="10" stroke-width="4"/><circle cx="363.1" cy="158.4" fill="url(#y)" r="4.3"/><path d="m334 145.4h29.5" fill="none" stroke="url(#z)" stroke-linecap="round" stroke-miterlimit="10" stroke-width="4"/><circle cx="362.8" cy="145.4" fill="url(#A)" r="4.3"/><path d="m477.3 162c-.9.8-1.9 1.1-3 1.2-1.3-.2-2.6-.2-4 0-1-.1-2-.2-2.8-.7-.7-.4-1-.8 0-1.4.6-.4 1.3-.6 1.9-.8 1.3-.3 2.6-.6 3.9-1.2 1.7-.8 3.1 0 4.2 1.3-.2.4.2 1.1-.2 1.6z" fill="url(#C)"/><path d="m494.3 137.1c.4-.9 1-1 1.6-1.2s1.5-.5 1.8-.2c.5.4.1 1.2-.1 2-1-.6-2-.9-3.3-.6z" fill="url(#D)"/><path d="m480.9 160c.2.2.4.4.4.7v10.3c0 .2-.2.4-.3.6 0-3.9 0-7.8-.1-11.6z" fill="url(#E)"/><path d="m470.4 163.2c1.3-.5 2.6-.5 4 0-1.4.2-2.7.2-4 0z" fill="url(#F)"/><path d="m496.5 132.5c1.1-.1.9-.6.6-1.2-2.8-5.7-6.8-9.7-13.2-11-.6.1-1.1.3-1.6-.1-2.5-.8-4.9 0-7 .9-4.1 1.8-6.1 5.6-7.3 9.7-.7 2.4-.7 2.4 1.6 1.8 4.8-1.1 8.2 1.2 9.1 5.9.2 1 .4 1.9.6 2.9v5.3c-.5 2.9-1.5 5.7-2.6 8.4-.3.6-.1.8.5 1 2 .5 3.2 2 3.8 3.9.4 3.9.2 7.7.1 11.6.1 2.2.5 4.3 1.8 6.1 2.1 3.1 3.8 3.7 7.1 2 2.8-1.5 4.3-3.9 4.7-7 .5-3.8.1-7.6.3-11.4-.1-.6-.3-1.1.1-1.6.5-1.4.8-3 2-4.1.4-.4.2-.6-.1-1-2.9-4.2-5.2-8.6-6.5-13.5 0-1.1 0-2.2-.1-3.3.8-3.2 3-4.9 6.1-5.3z" fill="url(#G)"/><path d="m494.6 140.1c-.5.3-.8.8-.7 1.4-.5-.5-.3-1.1-.2-1.6.2 0 .6.1.9.2z" fill="url(#H)"/><path d="m507.2 157.4c-2.2.5-4.4.6-6.7 0-.7-.2-1.2.2-1.5.7-.6.8-.9 1.6-.8 2.6-.6.7-.3 1.1.5 1.2 1.1.2 2.1-.1 3.1-.2 2.7-.5 5.2-1.3 6.9-3.6 0-1.5-.9-.6-1.5-.7zm0 0c.1 0 .1.1.2.1-.1-.1-.1-.1-.2-.1z" fill="url(#I)"/><path d="m497.8 146.4c.1-.4 0-.8-.2-1.1 0-.4-.1-.8-.1-1.2-.2-1.8-.2-3.7.1-5.7-1.8 1.7-1.9 1.8-3 1.7-.8.2-1 .7-.7 1.4.5 2.9 2.1 5.3 3.4 7.8.5-.2.6-.6.5-1 0-.6 0-1.3 0-1.9z" fill="url(#J)"/><path d="m475.9 141.7c.1-.4.1-.8-.2-1.1 0-.4.1-.8-.2-1.1-.1 0-.4.3-.6.4-1.2.2-2.2-.1-2.9-1.1-.3-.4-.7-.8-.5-1.3s.8-.5 1.3-.6c.6-.1 1.2.3 1.8-.1-.3-.6-.8-.9-1.4-1.1-1.1-.3-2.2-.3-3.3 0-2.3.5-2.7.8-3 2 0 .8.1 1.5.1 2.3v4c0 .7-.1 1.3-.1 2-1 3.5 1.8 8.5 5.3 9.3.5.1.8.2 1-.4 1-2.8 2.5-5.5 2.6-8.6.3-1.5.3-3 .1-4.6z" fill="url(#K)"/><path d="m508 125.7c-2.8-4.1-6.8-6.4-11.8-7.1-.8.1-1.5.3-2.2-.1-.2-.2-.5-.2-.7 0-.7.4-1.5.2-2.3.1-.3.1-1.3-.4-.6.6.3.4.9.6 1.3 1 5.6 4.3 9.9 9.3 9.2 17 0 .7-.1 1.3-.1 2-.3.5-.3 1.1-.2 1.7v1.6c0 .5-.1 1 .2 1.4 0 .5.1 1.1.1 1.6.2 2.3.1 4.5-.9 6.6-.2.4-.6.9 0 1.3s1-.1 1.3-.6c3.5-6.1 6.1-12.6 7.2-19.6 0-.5.1-1.1.1-1.6.5-2.2.5-4.3-.6-5.9z" fill="url(#L)"/><path d="m494.8 161.3c-.4-.6-.5-1.1.1-1.6 0 .5 0 1-.1 1.6z" fill="url(#M)"/><path d="m477.3 162c0-.6-.2-1.2.3-1.7 0 .6.4 1.2-.3 1.7z" fill="url(#N)"/><path d="m463.8 134.4c.1-.1.1-.2.2-.3.8-5 2.5-9.5 6.1-13.1.6-.6.3-.8-.3-.9-1.3-.4-2.7-.8-4-1.2-.3 0-.6-.1-.9-.1-.3-.3-.7-.3-1.1-.2-.7 0-1.5-.1-2.2-.1-.4-.2-.8-.2-1.1 0-.5 0-1 .1-1.6.1-5.4 1.2-8.6 5.2-8.9 11.2-.2 1.6-.2 3.3 0 4.9-.1.4-.1.8.2 1.1 0 .5.1 1 .1 1.5.2.8.1 1.7.5 2.4 0 .4.1.8.1 1.2.6 3.6 1.5 7.1 2.6 10.6 1.2 3.7 2.3 7.4 5 10.3 1.8 2 3.6 1.9 5.4 0 1.5-1.7 2.9-3.4 4.4-5.2-3.4-2.7-5-6.3-4.6-10.7 0-.8.1-1.5.1-2.3.3-1.1.3-2.2 0-3.3 0-1-.1-2-.1-3 0-.2 0-.5 0-.7 0-.6 0-1.4.1-2.2z" fill="url(#O)"/><text fill="#8e8e8e" font-family="'Arial'" font-size="9.625" transform="translate(671.4311 65.167)">Partitioned Table _ 2019-01</text><text fill="#8e8e8e" font-family="'Arial'" font-size="9.625" transform="translate(671.4311 142.167)">Partitioned Table _ 2019-02</text><text fill="#8e8e8e" font-family="'Arial'" font-size="9.625" transform="translate(671.4311 229.167)">Partitioned Table _ 2019-03</text><path d="m527.8 72.1h93.9" style="fill:none;stroke-width:3.4;stroke-linejoin:round;stroke-miterlimit:10;stroke-dasharray:8 4;stroke:url(#P)"/><path d="m527.8 149.4h93.9" style="fill:none;stroke-width:3.4;stroke-linejoin:round;stroke-miterlimit:10;stroke-dasharray:8 4;stroke:url(#Q)"/><path d="m527.8 226.8h93.9" style="fill:none;stroke-width:3.4;stroke-linejoin:round;stroke-miterlimit:10;stroke-dasharray:8 4;stroke:url(#R)"/><ellipse cx="646.4" cy="91.9" fill="url(#T)" rx="16.3" ry="9.8"/><path d="m630.1 86.3h32.6v5.7h-32.6z" fill="url(#U)"/><ellipse cx="646.4" cy="86.9" fill="#fff" rx="16.3" ry="9.8"/><path d="m646.4 81.1c7.5 0 12.3 3.5 12.3 5.8s-4.8 5.8-12.3 5.8-12.3-3.5-12.3-5.8 4.8-5.8 12.3-5.8m0-4c-9 0-16.3 4.4-16.3 9.8s7.3 9.8 16.3 9.8 16.3-4.4 16.3-9.8-7.3-9.8-16.3-9.8z" fill="url(#V)"/><ellipse cx="646.4" cy="74.6" fill="url(#W)" rx="16.3" ry="9.8"/><path d="m630.1 69h32.6v5.7h-32.6z" fill="url(#X)"/><ellipse cx="646.4" cy="69.6" fill="#fff" rx="16.3" ry="9.8"/><path d="m646.4 63.7c7.5 0 12.3 3.5 12.3 5.8s-4.8 5.8-12.3 5.8-12.3-3.5-12.3-5.8 4.8-5.8 12.3-5.8m0-4c-9 0-16.3 4.4-16.3 9.8s7.3 9.8 16.3 9.8 16.3-4.4 16.3-9.8-7.3-9.8-16.3-9.8z" fill="url(#Y)"/><ellipse cx="646.4" cy="57.2" fill="url(#Z)" rx="16.3" ry="9.8"/><path d="m630.1 51.7h32.6v5.7h-32.6z" fill="url(#aa)"/><ellipse cx="646.4" cy="52.3" fill="#fff" rx="16.3" ry="9.8"/><path d="m646.4 46.4c7.5 0 12.3 3.5 12.3 5.8s-4.8 5.8-12.3 5.8-12.3-3.5-12.3-5.8 4.8-5.8 12.3-5.8m0-4c-9 0-16.3 4.4-16.3 9.8s7.3 9.8 16.3 9.8 16.3-4.4 16.3-9.8-7.3-9.8-16.3-9.8z" fill="url(#ab)"/><ellipse cx="646.4" cy="169.2" fill="url(#ac)" rx="16.3" ry="9.8"/><path d="m630.1 163.7h32.6v5.7h-32.6z" fill="url(#ad)"/><ellipse cx="646.4" cy="164.2" fill="#fff" rx="16.3" ry="9.8"/><path d="m646.4 158.4c7.5 0 12.3 3.5 12.3 5.8s-4.8 5.8-12.3 5.8-12.3-3.5-12.3-5.8 4.8-5.8 12.3-5.8m0-4c-9 0-16.3 4.4-16.3 9.8s7.3 9.8 16.3 9.8 16.3-4.4 16.3-9.8-7.3-9.8-16.3-9.8z" fill="url(#ae)"/><ellipse cx="646.4" cy="151.9" fill="url(#af)" rx="16.3" ry="9.8"/><path d="m630.1 146.3h32.6v5.7h-32.6z" fill="url(#ag)"/><ellipse cx="646.4" cy="146.9" fill="#fff" rx="16.3" ry="9.8"/><path d="m646.4 141.1c7.5 0 12.3 3.5 12.3 5.8s-4.8 5.8-12.3 5.8-12.3-3.5-12.3-5.8 4.8-5.8 12.3-5.8m0-4c-9 0-16.3 4.4-16.3 9.8s7.3 9.8 16.3 9.8 16.3-4.4 16.3-9.8-7.3-9.8-16.3-9.8z" fill="url(#ah)"/><ellipse cx="646.4" cy="134.6" fill="url(#ai)" rx="16.3" ry="9.8"/><path d="m630.1 129h32.6v5.7h-32.6z" fill="url(#aj)"/><ellipse cx="646.4" cy="129.6" fill="#fff" rx="16.3" ry="9.8"/><path d="m646.4 123.8c7.5 0 12.3 3.5 12.3 5.8s-4.8 5.8-12.3 5.8-12.3-3.5-12.3-5.8 4.8-5.8 12.3-5.8m0-4c-9 0-16.3 4.4-16.3 9.8s7.3 9.8 16.3 9.8 16.3-4.4 16.3-9.8-7.3-9.8-16.3-9.8z" fill="url(#ak)"/><ellipse cx="646.4" cy="246.6" fill="url(#al)" rx="16.3" ry="9.8"/><path d="m630.1 241h32.6v5.7h-32.6z" fill="url(#am)"/><ellipse cx="646.4" cy="241.6" fill="#fff" rx="16.3" ry="9.8"/><path d="m646.4 235.8c7.5 0 12.3 3.5 12.3 5.8s-4.8 5.8-12.3 5.8-12.3-3.5-12.3-5.8 4.8-5.8 12.3-5.8m0-4c-9 0-16.3 4.4-16.3 9.8s7.3 9.8 16.3 9.8 16.3-4.4 16.3-9.8-7.3-9.8-16.3-9.8z" fill="url(#an)"/><ellipse cx="646.4" cy="229.3" fill="url(#ao)" rx="16.3" ry="9.8"/><path d="m630.1 223.7h32.6v5.7h-32.6z" fill="url(#ap)"/><ellipse cx="646.4" cy="224.3" fill="#fff" rx="16.3" ry="9.8"/><path d="m646.4 218.4c7.5 0 12.3 3.5 12.3 5.8s-4.8 5.8-12.3 5.8-12.3-3.5-12.3-5.8 4.8-5.8 12.3-5.8m0-4c-9 0-16.3 4.4-16.3 9.8s7.3 9.8 16.3 9.8 16.3-4.4 16.3-9.8-7.3-9.8-16.3-9.8z" fill="url(#aq)"/><ellipse cx="646.4" cy="211.9" fill="url(#ar)" rx="16.3" ry="9.8"/><path d="m630.1 206.4h32.6v5.7h-32.6z" fill="url(#as)"/><ellipse cx="646.4" cy="206.9" fill="#fff" rx="16.3" ry="9.8"/><path d="m646.4 201.1c7.5 0 12.3 3.5 12.3 5.8s-4.8 5.8-12.3 5.8-12.3-3.5-12.3-5.8 4.8-5.8 12.3-5.8m0-4c-9 0-16.3 4.4-16.3 9.8s7.3 9.8 16.3 9.8 16.3-4.4 16.3-9.8-7.3-9.8-16.3-9.8z" fill="url(#at)"/><path d="m527 53v190" fill="none" stroke="url(#au)" stroke-miterlimit="10" stroke-width="4"/><text transform="translate(450.633 209.5264)"><tspan fill="#8e8e8e" font-family="'Arial'" font-size="9.625" x="0" y="0">Distributed</tspan><tspan fill="#8e8e8e" font-family="'Arial'" font-size="9.625" x="8.9" y="11.5">Storage</tspan></text><path d="m157.6 140h43.8c.7 0 1.1-.7.9-1.4l-8.2-16.4c-.2-.2-.7-.5-.9-.5h-27.4c-.2 0-.7.2-.7.5l-8.4 16.4c-.3.7.2 1.4.9 1.4z" fill="url(#aw)"/><path d="m157.6 144.6c-.2 0-.7 0-.9-.2v6.8c0 1.4.9 2.3 2.3 2.3h41c1.4 0 2.3-.9 2.3-2.3v-6.8c-.2 0-.5 0-.9 0h-43.8zm37.8 6.8c-1.4 0-2.3-.9-2.3-2.3s.9-2.3 2.3-2.3 2.3.9 2.3 2.3c0 1.2-.9 2.3-2.3 2.3z" fill="url(#ax)"/><path d="m157.6 158.3c-.2 0-.7 0-.9 0v6.8c0 1.4.9 2.3 2.3 2.3h41c1.4 0 2.3-.9 2.3-2.3v-6.8c-.2 0-.5 0-.9 0zm37.8 6.8c-1.4 0-2.3-.9-2.3-2.3s.9-2.3 2.3-2.3 2.3.9 2.3 2.3c0 1.2-.9 2.3-2.3 2.3z" fill="url(#ay)"/></svg>