<svg height="10" viewBox="0 0 11 10" width="11" xmlns="http://www.w3.org/2000/svg"><path d="m105.106526 12.0040606c-.029971-.0026881-.060323-.0040606-.090998-.0040606h-6.0167099c-.5449694 0-.9988181.4477153-.9988181 1 0 .5561352.4471861 1 .9988181 1h6.0167099c.030685 0 .06108-.0014194.091122-.0041968l-1.668344 1.8302838c-.602168.5674732-.514361 1.3195888 0 1.7391304.454859.4143514.477063.4347826.85868.4347826.263274 0 .594988-.1302814.85868-.4347826l3.43472-3.6956522c.550897-.5980756.541386-1.2232163 0-1.7391304l-3.43472-3.69565219c-.499401-.60700693-1.234206-.54418074-1.71736 0-.542657.42999753-.601064 1.11659872 0 1.73913039z" fill="#02afde" fill-rule="evenodd" transform="translate(-98 -8)"/></svg>