<svg height="87" viewBox="0 0 87 87" width="87" xmlns="http://www.w3.org/2000/svg"><g fill="none" fill-rule="evenodd"><circle cx="43.505882" cy="43.505882" fill="#02afde" r="43.505882"/><path d="m52.9499615 48.899923c-1.7626702 0-3.2583683 1.1277929-3.8140784 2.700154h-4.2858061v-6.75h4.2859987c.5557101 1.5721685 2.0512156 2.6999615 3.8140784 2.6999615 2.2357461 0 4.0498459-1.8139072 4.0498459-4.0498459 0-2.2369018-1.8140998-4.0506164-4.0498459-4.0506164-1.7626702 0-3.2583683 1.1285635-3.8140784 2.700732h-4.2859987v-6.7503852c0-1.4910753-1.2088862-2.6999615-2.6999614-2.6999615h-4.2856134c-.5560954-1.5721685-2.0521788-2.6999615-3.8144637-2.6999615-2.2361313 0-4.0500385 1.8131367-4.0500385 4.049268 0 2.2369018 1.8137146 4.0506164 4.0500385 4.0506164 1.7622849 0 3.2575978-1.127793 3.8142711-2.7001541h4.2856134v16.2001541c0 1.4908827 1.2088862 2.6999615 2.6999614 2.6999615h4.2859987c.5564806 1.5715906 2.0512156 2.7001541 3.8140784 2.7001541 2.2357461 0 4.0498459-1.8140998 4.0498459-4.0500385.0001926-2.2372871-1.8139072-4.0500385-4.0498459-4.0500385zm0-6.75c.7448634 0 1.350077.6042504 1.350077 1.350077 0 .7448635-.6052136 1.350077-1.350077 1.350077-.7448635 0-1.3500771-.6052135-1.3500771-1.350077.0001926-.7458266.6052136-1.350077 1.3500771-1.350077zm-18.899923-6.75c-.7452487 0-1.350077-.6048284-1.350077-1.350655 0-.7458265.6048283-1.3493065 1.350077-1.3493065s1.3498845.6042505 1.3498845 1.3493065c0 .7450561-.6046358 1.350655-1.3498845 1.350655zm18.899923 18.8999229c-.7448635 0-1.3500771-.6052136-1.3500771-1.350077 0-.7460192.6052136-1.3498845 1.3500771-1.3498845.7448634 0 1.350077.6038653 1.350077 1.3498845 0 .745056-.605021 1.350077-1.350077 1.350077z" fill="#fff" fill-rule="nonzero" transform="matrix(0 1 -1 0 87 0)"/></g></svg>