<svg height="102" viewBox="0 0 102 102" width="102" xmlns="http://www.w3.org/2000/svg" xmlns:xlink="http://www.w3.org/1999/xlink"><defs><circle id="a" cx="58" cy="45" r="35"/><filter id="b" height="174.3%" width="174.3%" x="-37.1%" y="-31.4%"><feOffset dy="4" in="SourceAlpha" result="shadowOffsetOuter1"/><feGaussianBlur in="shadowOffsetOuter1" result="shadowBlurOuter1" stdDeviation="8"/><feColorMatrix in="shadowBlurOuter1" values="0 0 0 0 0.254901961 0 0 0 0 0.458823529 0 0 0 0 0.647058824 0 0 0 0.24 0"/></filter><linearGradient id="c" x1="0%" x2="149.461%" y1="0%" y2="71.875%"><stop offset="0" stop-color="#00eaf8"/><stop offset="1" stop-color="#6d42ef"/></linearGradient></defs><g fill="none" transform="translate(-7 2)"><use fill="#000" filter="url(#b)" xlink:href="#a"/><use fill="#fff" fill-rule="evenodd" xlink:href="#a"/><path d="m50.0684541 66.4146885c.643196-.1791414 1.3504909.0900649 1.7001481.6948774l.3683813.637207 9.733007 16.7521634.9155086-4.1330188c.1791628-.8088215.9800823-1.3192608 1.7889038-1.140098s1.3192607.9800822 1.140098 1.7889037l-1.7299495 7.809772c-.0786081.3551721-.2771518.6528819-.5436613.8599188-.2665553.2070426-.600949.3233601-.9512805.3158875-.1849891.0034837-.3686845-.0273582-.5414584-.0899743l-7.5607659-1.665111c-.8090396-.1781752-1.3204563-.9784709-1.1422811-1.7875106.1781752-.8090396.9784709-1.3204562 1.7875105-1.1422811l4.4059217.9703183-9.5697931-16.4712504c-3.4994102 1.5729857-7.4507988 1.5568269-10.876476.080263l-9.5071139 16.3813655 4.3622319-.9606964c.8090396-.1781751 1.6093353.3332415 1.7875105 1.1422811.1781752.8090397-.3332415 1.6093354-1.1422811 1.7875106l-7.4670345 1.6444685c-.1945425.0790338-.4046359.1169962-.6159515.1100823-.3541031.0121217-.6929439-.1024361-.9631057-.3096298-.2702793-.2073169-.4717471-.5072201-.5510744-.865642l-1.7299495-7.809772c-.1791627-.8088215.3312765-1.6097409 1.140098-1.7889037s1.609741.3312765 1.7889038 1.140098l.9259854 4.1803157 9.3662662-16.1386759c-.5589489-.4078689-1.0919542-.8628126-1.5931524-1.3640589-4.3205101-4.3209253-5.2000115-11.0051226-2.1442944-16.296606.9438162-1.6343751 2.1903572-3.0100012 3.6364867-4.0841725l-2.2429758-3.9091963-7.0552169-12.1506512-.8930988 4.0318508c-.1791628.8088215-.9800823 1.3192608-1.7889038 1.140098s-1.3192607-.9800822-1.140098-1.7889037l1.6766666-7.5692286c.0276253-.4866534.2915723-.9504856.744631-1.213552.2384277-.1384418.4991818-.2038338.7563272-.2030567.1119297-.0011612.2257419.010272.3397188.0353945l7.809772 1.7199498c.8090396.1781752 1.3204563.9784709 1.1422811 1.7875105-.1781752.8090397-.9784709 1.3204563-1.7875105 1.1422812l-4.4988589-.9907859 7.2877781 12.5511751 2.2415614 3.9067468c2.7484819-1.2157878 5.8972434-1.5144506 8.95807-.693832.6821313.1828819 1.3402353.4093441 1.9707523.6763036l9.5109311-16.4109147-4.3650046.9613071c-.8090396.1781751-1.6093353-.3332415-1.7875105-1.1422812-.1781752-.8090396.3332415-1.6093353 1.1422811-1.7875105l7.4670337-1.6444683c.1945429-.079034.4046359-.1169957.6159495-.1100824.3541036-.0121224.6929451.1024351.9631074.3096289.2702799.2073169.4717481.5072204.5510755.8656428l1.7299495 7.809772c.1791627.8088215-.3312765 1.6097409-1.140098 1.7889037s-1.609741-.3312765-1.7889038-1.140098l-.9252663-4.1770695-9.3488602 16.1312647c2.7996306 1.9734392 4.7161644 4.9106581 5.2544558 8.3828207.0014598.0094164.0029095.0188367.0043491.0282609h17.1052171l-3.3388059-3.3388058c-.6087849-.608785-.6087849-1.5958205 0-2.2046055.608785-.6087849 1.5958205-.6087849 2.2046055 0l5.8822171 5.8822171c.3193729.3193729.4712005.7428451.4554828 1.1611942.0157177.4183491-.1361099.8418213-.4554828 1.1611942l-5.8822171 5.8822171c-.608785.6087849-1.5958205.6087849-2.2046055 0-.6087849-.608785-.6087849-1.5958205 0-2.2046055l3.3388059-3.3388058h-18.2738392c-.8062354 0-1.4660122-.6181804-1.5182257-1.3999688-.148634-.5753549-.2387368-1.0199597-.3698265-1.6525036-.7752359-3.7407267-3.6683518-6.5441049-7.5744419-7.5913418-4.5904307-1.230711-9.4351547.775358-11.8118235 4.8909562s-1.6926122 9.3144183 1.6677846 12.6751379c3.3603968 3.3607197 8.5591511 4.0452758 12.6749776 1.6690023.1526876-.0881542.3144316-.1464134.4784541-.1765937zm-43.06814055-9.9422171c-.0081858-.4093434.14390592-.8212963.45627519-1.1336656l5.88221706-5.8822171c.608785-.6087849 1.5958205-.6087849 2.2046055 0 .6087849.608785.6087849 1.5958205 0 2.2046055l-3.3388059 3.3388058h11.8953946c1.049341 0 1.9.6715729 1.9 1.5s-.850659 1.5-1.9 1.5h-11.8953946l3.3388059 3.3388058c.6087849.608785.6087849 1.5958205 0 2.2046055-.608785.6087849-1.5958205.6087849-2.2046055 0l-5.88221706-5.8822171c-.31236927-.3123693-.46446099-.7243222-.45627519-1.1336656-.00020873-.0091564-.00031355-.0183328-.00031355-.0275286s.00010482-.0183722.00031355-.0275286z" fill="url(#c)"/></g></svg>