<svg height="86" viewBox="0 0 86 86" width="86" xmlns="http://www.w3.org/2000/svg"><g fill="none"><circle cx="43" cy="43" fill="#02afde" r="43"/><path d="m47.8588564 49.5828532c.4757889-.1322878.9989933.0665087 1.2576439.5131351l.2725012.4705482 7.1997586 12.3707065.6772256-3.0520454c.1325313-.5972777.7249923-.9742137 1.3232986-.8419102s.9758915.7237459.8433602 1.3210236l-1.2796887 5.7671593c-.0581484.2622784-.2050163.4821235-.4021604.6350108-.1971779.1528915-.4445376.2387866-.7036869.2332684-.1368412.0025726-.2727255-.0202028-.4005309-.0664419l-5.5928953-1.2296083c-.5984677-.1315742-.9767759-.722556-.8449751-1.3199948.1318008-.5974387.7238004-.9750966 1.3222681-.8435223l3.2591749.7165356-7.079025-12.163265c-2.5886048 1.161578-5.5115498 1.1496455-8.0456124.0592706l-7.0326596 12.0968891 3.2268565-.7094303c.5984676-.1315743 1.1904672.2460836 1.322268.8435223.1318008.5974388-.2465074 1.1884206-.844975 1.3199948l-5.5235598 1.2143648c-.1439082.0583628-.2993197.0863963-.4556354.0812907-.2619392.0089513-.5125886-.0756443-.7124343-.2286474-.1999327-.1530941-.3489636-.3745589-.4076441-.6392371l-1.2796886-5.7671593c-.1325314-.5972777.2450538-1.1887201.8433601-1.3210236s1.1907673.2446325 1.3232987.8419102l.6849755 3.086972 6.9284709-11.917674c-.4134691-.3011926-.8077469-.6371477-1.1784963-1.0072951-3.1959938-3.1908057-3.8465839-8.1267796-1.5861904-12.0342981.6981654-1.2069113 1.6202642-2.2227483 2.6900039-3.0159746l-1.6591876-2.8867627-5.2189276-8.9727001-.6606484 2.9773374c-.1325314.5972777-.7249924.9742137-1.3232987.8419102s-.9758915-.7237459-.8433601-1.3210236l1.2402738-5.5895291c.0204352-.3593712.2156836-.7018901.550823-.8961526.1763712-.102233.3692578-.1505219.5594749-.1499481.0827973-.0008575.1669871.0075854.2512989.0261373l5.7770916 1.2701042c.5984676.1315742.9767758.722556.844975 1.3199948-.1318008.5974387-.7238004.9750966-1.322268.8435223l-3.3279231-.73165 5.3909592 9.2684687 1.6581413 2.8849539c2.0331236-.8978038 4.3623444-1.1183526 6.6265176-.5123632.5045902.1350498.9914069.3022818 1.4578167.4994192l7.0354833-12.1187098-3.2289075.7098812c-.5984677.1315743-1.1904673-.2460836-1.3222681-.8435223-.1318008-.5974388.2465074-1.1884206.8449751-1.3199948l5.5235591-1.2143646c.1439085-.0583631.2993198-.086396.455634-.0812909.2619396-.0089518.5125895.0756437.7124356.2286468.199933.1530941.3489643.3745591.4076448.6392377l1.2796887 5.7671593c.1325313.5972777-.2450539 1.1887201-.8433602 1.3210236s-1.1907673-.2446325-1.3232986-.8419102l-.6844436-3.0845748-6.9155952 11.9122012c2.0709596 1.4572945 3.4886695 3.6262963 3.8868577 6.1903296.0010799.0069536.0021522.01391.0032171.0208694h12.6531743l-2.4698016-2.4655554c-.4503341-.4495599-.4503341-1.1784404 0-1.6280003.4503341-.4495598 1.18047-.4495598 1.630804 0l4.3512291 4.3437483c.2362485.2358423.3485593.5485571.3369326.8574888.0116267.3089316-.1006841.6216465-.3369326.8574888l-4.3512291 4.3437482c-.450334.4495599-1.1804699.4495599-1.630804 0-.4503341-.4495598-.4503341-1.1784404 0-1.6280002l2.4698016-2.4655554h-13.5176345c-.5963933 0-1.0844473-.456498-1.123071-1.0338129-.1099485-.4248734-.1765998-.7531936-.2735703-1.2202984-.5734622-2.7623555-2.7135753-4.8325221-5.6030118-5.6058587-3.3956611-.9088238-6.9794295.5725664-8.7375133 3.6117475-1.7580838 3.039181-1.2520693 6.8782718 1.2337037 9.3600096 2.4857729 2.4817377 6.3314268 2.9872511 9.3760108 1.2324818.112947-.0650978.2325932-.1081196.3539249-.1304063zm-31.8586245-7.3418727c-.0060552-.3022813.106451-.6064897.3375187-.8371601l4.3512291-4.3437483c.450334-.4495598 1.1804699-.4495598 1.630804 0 .4503341.4495599.4503341 1.1784404 0 1.6280003l-2.4698016 2.4655554h8.799333c.7762248 0 1.4054794.4959258 1.4054794 1.1076814 0 .6117555-.6292546 1.1076814-1.4054794 1.1076814h-8.799333l2.4698016 2.4655554c.4503341.4495598.4503341 1.1784404 0 1.6280002-.4503341.4495599-1.18047.4495599-1.630804 0l-4.3512291-4.3437482c-.2310677-.2306705-.3435739-.5348789-.3375187-.8371602-.0001544-.0067616-.0002319-.013538-.0002319-.0203286 0-.0067907.0000775-.0135671.0002319-.0203287z" fill="#fff"/></g></svg>