<svg height="396" viewBox="0 0 1200 396" width="1200" xmlns="http://www.w3.org/2000/svg"><g fill="none" fill-rule="evenodd" stroke="#979797" stroke-width="1.2" transform="translate(-417 -8)"><rect height="240.140845" opacity=".171586" rx="18.000001" transform="matrix(.61290705 -.79015501 -.79015501 -.61290705 1257.710657 695.280816)" width="240" x="323.305627" y="50.429578"/><rect height="240.140845" opacity=".265035" rx="18.000001" transform="matrix(.66131187 -.75011107 -.75011107 -.66131187 1269.296524 667.779465)" width="240" x="299.305627" y="50.429578"/><rect height="240.140845" opacity=".689213" rx="18.000001" transform="matrix(.70710678 -.70710678 -.70710678 -.70710678 1283.73279 640.584996)" width="240" x="275.305627" y="50.429578"/><rect height="240.140845" opacity=".042827" rx="18.000001" transform="matrix(.75011107 -.66131187 -.66131187 -.75011107 1300.927585 613.942754)" width="240" x="251.305627" y="50.429578"/><rect height="240.140845" opacity=".222976" rx="18.000001" transform="matrix(.79015501 -.61290705 -.61290705 -.79015501 1320.769744 588.087498)" width="240" x="227.305627" y="50.429578"/><rect height="240.140845" opacity=".661485" rx="18.000001" transform="matrix(.82708057 -.56208338 -.56208338 -.82708057 1343.129785 563.241957)" width="240" x="203.305627" y="50.429578"/><rect height="240.140845" opacity=".17958" rx="18.000001" transform="matrix(.86074203 -.50904142 -.50904142 -.86074203 1367.861002 539.615476)" width="240" x="179.305627" y="50.429578"/><rect height="240.140845" opacity=".795666" rx="18.000001" transform="matrix(.89100652 -.4539905 -.4539905 -.89100652 1394.800643 517.402752)" width="240" x="155.305627" y="50.429578"/><rect height="240.140845" opacity=".045495" rx="18.000001" transform="matrix(.91775463 -.39714789 -.39714789 -.91775463 1423.771187 496.782663)" width="240" x="131.305627" y="50.429578"/><rect height="240.140845" opacity=".126288" rx="18.000001" transform="matrix(.96029369 -.27899111 -.27899111 -.96029369 1487.029247 460.950535)" width="240" x="83.305628" y="50.429578"/><rect height="240.140845" opacity=".335327" rx="18.000001" transform="matrix(.97591676 -.21814324 -.21814324 -.97591676 1520.900429 446.008119)" width="240" x="59.305628" y="50.429578"/><rect height="240.140845" opacity=".252807" rx="18.000001" transform="matrix(.98768834 -.15643447 -.15643447 -.98768834 1555.972892 433.196015)" width="240" x="35.305628" y="50.429578"/><rect height="240.140845" opacity=".280735" rx="18.000001" transform="matrix(.99556196 -.09410831 -.09410831 -.99556196 1592.016952 422.600266)" width="240" x="11.305628" y="50.429578"/><rect height="240.140845" opacity=".171586" rx="18.000001" transform="matrix(-.61290705 .79015501 .79015501 .61290705 580.289343 -284.280816)" width="240" x="323.305627" y="50.429578"/><rect height="240.140845" opacity=".265035" rx="18.000001" transform="matrix(-.66131187 .75011107 .75011107 .66131187 568.703476 -256.779465)" width="240" x="299.305627" y="50.429578"/><rect height="240.140845" opacity=".689213" rx="18.000001" transform="matrix(-.70710678 .70710678 .70710678 .70710678 554.26721 -229.584996)" width="240" x="275.305627" y="50.429578"/><rect height="240.140845" opacity=".042827" rx="18.000001" transform="matrix(-.75011107 .66131187 .66131187 .75011107 537.072415 -202.942754)" width="240" x="251.305627" y="50.429578"/><rect height="240.140845" opacity=".222976" rx="18.000001" transform="matrix(-.79015501 .61290705 .61290705 .79015501 517.230256 -177.087498)" width="240" x="227.305627" y="50.429578"/><rect height="240.140845" opacity=".661485" rx="18.000001" transform="matrix(-.82708057 .56208338 .56208338 .82708057 494.870215 -152.241957)" width="240" x="203.305627" y="50.429578"/><rect height="240.140845" opacity=".17958" rx="18.000001" transform="matrix(-.86074203 .50904142 .50904142 .86074203 470.138998 -128.615476)" width="240" x="179.305627" y="50.429578"/><rect height="240.140845" opacity=".795666" rx="18.000001" transform="matrix(-.89100652 .4539905 .4539905 .89100652 443.199357 -106.402752)" width="240" x="155.305627" y="50.429578"/></g></svg>