<svg height="101" viewBox="0 0 101 101" width="101" xmlns="http://www.w3.org/2000/svg" xmlns:xlink="http://www.w3.org/1999/xlink"><defs><ellipse id="a" cx="36.254902" cy="35.833333" rx="36.254902" ry="35.833333"/><filter id="b" height="172.6%" width="171.7%" x="-35.9%" y="-30.7%"><feOffset dx="0" dy="4" in="SourceAlpha" result="shadowOffsetOuter1"/><feGaussianBlur in="shadowOffsetOuter1" result="shadowBlurOuter1" stdDeviation="8"/><feColorMatrix in="shadowBlurOuter1" type="matrix" values="0 0 0 0 0.254901961   0 0 0 0 0.458823529   0 0 0 0 0.647058824  0 0 0 0.24 0"/></filter><linearGradient id="c" x1="0%" x2="149.460671%" y1="0%" y2="71.875%"><stop offset="0" stop-color="#00eaf8"/><stop offset="1" stop-color="#6d42ef"/></linearGradient></defs><g fill="none" fill-rule="evenodd" transform="translate(14.166667 12.166667)"><g fill-rule="nonzero"><use fill="#000" filter="url(#b)" xlink:href="#a"/><use fill="#fff" fill-rule="evenodd" xlink:href="#a"/></g><path d="m36.658321 55.5315277c-.1072082.0093133-.2088608-.0023908-.2977808-.0342079-3.8361954-1.8979258-7.9766911-5.6462472-11.2797076-10.5260999-3.7292728-5.3004192-6.1026536-11.6868701-6.530357-18.1282832-.0201299-.6328251.1679993-.9580236.5936688-1.1695667l17.2163958-8.7717499c.086143-.0328501.1873036-.0451598.2955301-.0353897.1092092-.0102003.2113038.0021052.2981387.0353897l17.2163957 8.7717499c.549304.3208028.720261.8500545.5936688 1.1695667-.3253066.5410825-.8626.7094807-1.1873376.5847833l-15.6904866-7.9942995v33.4860639c6.2284232-3.7654 12.5215869-12.4552224 14.503149-21.9830644.1107681-.3604879.5834439-.6636142 1.1873376-.5847833.3632743.1148838.6746432.5750469.5936688 1.1695666-2.2828316 10.5907919-9.8199985 20.3678623-17.2163957 23.9761165-.0877997.0318121-.1888768.0435417-.295888.0342079zm-.5846168-23.1942467v-5.1211578l-5.4068399-5.3259152c-.0308917-.0304293-.0590392-.062538-.0844426-.0960278l-3.474677 1.7113356zm0 2.4810255-10.4352148-10.2790301c-.0696078-.0685659-.125283-.1456589-.1670255-.2278653l-3.5638968 1.7552777 14.1661371 13.8806109zm0 7.6034846-15.7275929-15.4105947c.1778631 1.9904129.5218443 3.9335768 1.0265891 5.8260148.0288888.0224696.0566845.0469509.0831916.0734425l14.6178122 14.6092432zm0 7.5973077-13.4820958-13.4741926c1.0751874 2.7372918 2.5046368 5.3550573 4.2702307 7.8415303 2.5873257 3.8805991 6.0759495 7.1718901 9.2118651 8.9063974zm0-30.9294656-3.8208297 1.8818215 3.8208297 3.763643z" fill="url(#c)"/></g></svg>