<?xml version="1.0" encoding="UTF-8"?>
<svg width="1200px" height="396px" viewBox="0 0 1200 396" version="1.1" xmlns="http://www.w3.org/2000/svg" xmlns:xlink="http://www.w3.org/1999/xlink">
    <!-- Generator: Sketch 46.2 (44496) - http://www.bohemiancoding.com/sketch -->
    <title>BG</title>
    <desc>Created with Sketch.</desc>
    <defs></defs>
    <g id="Page-1" stroke="none" stroke-width="1" fill="none" fill-rule="evenodd">
        <g id="Rakam-UI-Screen" transform="translate(0.000000, -1514.000000)" stroke-width="1.20000005" stroke="#979797">
            <g id="security" transform="translate(-417.000000, 1506.000000)">
                <g id="BG">
                    <g id="R-looper" transform="translate(1532.000000, 240.500000) scale(-1, 1) translate(-1532.000000, -240.500000) translate(1226.000000, 70.000000)">
                        <rect id="duplicate_53_BG" opacity="0.171586434" transform="translate(443.305627, 170.500000) rotate(-127.800000) translate(-443.305627, -170.500000) " x="323.305627" y="50.4295775" width="240" height="240.140845" rx="18.0000007"></rect>
                        <rect id="duplicate_52_BG" opacity="0.2650345" transform="translate(419.305627, 170.500000) rotate(-131.400000) translate(-419.305627, -170.500000) " x="299.305627" y="50.4295775" width="240" height="240.140845" rx="18.0000007"></rect>
                        <rect id="duplicate_51_BG" opacity="0.689212566" transform="translate(395.305627, 170.500000) rotate(-135.000000) translate(-395.305627, -170.500000) " x="275.305627" y="50.4295775" width="240" height="240.140845" rx="18.0000007"></rect>
                        <rect id="duplicate_50_BG" opacity="0.0428274114" transform="translate(371.305627, 170.500000) rotate(-138.600000) translate(-371.305627, -170.500000) " x="251.305627" y="50.4295775" width="240" height="240.140845" rx="18.0000007"></rect>
                        <rect id="duplicate_49_BG" opacity="0.222976072" transform="translate(347.305627, 170.500000) rotate(-142.200000) translate(-347.305627, -170.500000) " x="227.305627" y="50.4295775" width="240" height="240.140845" rx="18.0000007"></rect>
                        <rect id="duplicate_48_BG" opacity="0.661485137" transform="translate(323.305627, 170.500000) rotate(-145.800000) translate(-323.305627, -170.500000) " x="203.305627" y="50.4295775" width="240" height="240.140845" rx="18.0000007"></rect>
                        <rect id="duplicate_47_BG" opacity="0.179580361" transform="translate(299.305627, 170.500000) rotate(-149.400000) translate(-299.305627, -170.500000) " x="179.305627" y="50.4295775" width="240" height="240.140845" rx="18.0000007"></rect>
                        <rect id="duplicate_46_BG" opacity="0.795665892" transform="translate(275.305627, 170.500000) rotate(-153.000000) translate(-275.305627, -170.500000) " x="155.305627" y="50.4295775" width="240" height="240.140845" rx="18.0000007"></rect>
                        <rect id="duplicate_45_BG" opacity="0.0454949641" transform="translate(251.305627, 170.500000) rotate(-156.600000) translate(-251.305627, -170.500000) " x="131.305627" y="50.4295775" width="240" height="240.140845" rx="18.0000007"></rect>
                        <rect id="duplicate_43_BG" opacity="0.126287959" transform="translate(203.305627, 170.500000) rotate(-163.800000) translate(-203.305627, -170.500000) " x="83.3056275" y="50.4295775" width="240" height="240.140845" rx="18.0000007"></rect>
                        <rect id="duplicate_42_BG" opacity="0.335326575" transform="translate(179.305627, 170.500000) rotate(-167.400000) translate(-179.305627, -170.500000) " x="59.3056275" y="50.4295775" width="240" height="240.140845" rx="18.0000007"></rect>
                        <rect id="duplicate_41_BG" opacity="0.252806778" transform="translate(155.305627, 170.500000) rotate(-171.000000) translate(-155.305627, -170.500000) " x="35.3056275" y="50.4295775" width="240" height="240.140845" rx="18.0000007"></rect>
                        <rect id="duplicate_40_BG" opacity="0.280735313" transform="translate(131.305627, 170.500000) rotate(-174.600000) translate(-131.305627, -170.500000) " x="11.3056275" y="50.4295775" width="240" height="240.140845" rx="18.0000007"></rect>
                    </g>
                    <g id="L-looper" transform="translate(306.000000, 170.500000) scale(1, -1) translate(-306.000000, -170.500000) ">
                        <rect id="duplicate_53_BG" opacity="0.171586434" transform="translate(443.305627, 170.500000) rotate(-127.800000) translate(-443.305627, -170.500000) " x="323.305627" y="50.4295775" width="240" height="240.140845" rx="18.0000007"></rect>
                        <rect id="duplicate_52_BG" opacity="0.2650345" transform="translate(419.305627, 170.500000) rotate(-131.400000) translate(-419.305627, -170.500000) " x="299.305627" y="50.4295775" width="240" height="240.140845" rx="18.0000007"></rect>
                        <rect id="duplicate_51_BG" opacity="0.689212566" transform="translate(395.305627, 170.500000) rotate(-135.000000) translate(-395.305627, -170.500000) " x="275.305627" y="50.4295775" width="240" height="240.140845" rx="18.0000007"></rect>
                        <rect id="duplicate_50_BG" opacity="0.0428274114" transform="translate(371.305627, 170.500000) rotate(-138.600000) translate(-371.305627, -170.500000) " x="251.305627" y="50.4295775" width="240" height="240.140845" rx="18.0000007"></rect>
                        <rect id="duplicate_49_BG" opacity="0.222976072" transform="translate(347.305627, 170.500000) rotate(-142.200000) translate(-347.305627, -170.500000) " x="227.305627" y="50.4295775" width="240" height="240.140845" rx="18.0000007"></rect>
                        <rect id="duplicate_48_BG" opacity="0.661485137" transform="translate(323.305627, 170.500000) rotate(-145.800000) translate(-323.305627, -170.500000) " x="203.305627" y="50.4295775" width="240" height="240.140845" rx="18.0000007"></rect>
                        <rect id="duplicate_47_BG" opacity="0.179580361" transform="translate(299.305627, 170.500000) rotate(-149.400000) translate(-299.305627, -170.500000) " x="179.305627" y="50.4295775" width="240" height="240.140845" rx="18.0000007"></rect>
                        <rect id="duplicate_46_BG" opacity="0.795665892" transform="translate(275.305627, 170.500000) rotate(-153.000000) translate(-275.305627, -170.500000) " x="155.305627" y="50.4295775" width="240" height="240.140845" rx="18.0000007"></rect>
                    </g>
                </g>
            </g>
        </g>
    </g>
</svg>