<svg enable-background="new 0 0 350 350" viewBox="0 0 350 350" xmlns="http://www.w3.org/2000/svg" xmlns:xlink="http://www.w3.org/1999/xlink"><linearGradient id="a"><stop offset=".002483974" stop-color="#57c8e1"/><stop offset=".1396" stop-color="#58c1de"/><stop offset=".3628" stop-color="#58b2d7"/><stop offset=".6444" stop-color="#579acb"/><stop offset=".9705" stop-color="#577abc"/><stop offset="1" stop-color="#5777bb"/></linearGradient><linearGradient id="b" gradientUnits="userSpaceOnUse" x1="141.7547" x2="163.4445" xlink:href="#a" y1="232.1355" y2="210.4457"/><linearGradient id="c" gradientUnits="userSpaceOnUse" x1="138.8212" x2="158.5444" xlink:href="#a" y1="145.0997" y2="125.3765"/><linearGradient id="d" gradientUnits="userSpaceOnUse" x1="245.8212" x2="265.5444" xlink:href="#a" y1="145.0997" y2="125.3765"/><linearGradient id="e" gradientUnits="userSpaceOnUse" x1="245.8212" x2="265.5444" xlink:href="#a" y1="231.0997" y2="211.3765"/><linearGradient id="f" gradientUnits="userSpaceOnUse" x1="65.7375" x2="65.7375" xlink:href="#a" y1="53.8932" y2="296.1068"/><linearGradient id="g" gradientUnits="userSpaceOnUse" x1="150.6364" x2="150.6364" xlink:href="#a" y1="97.369" y2="40.4769"/><linearGradient id="h" gradientTransform="matrix(1 0 0 -1 0 1471.4576)" gradientUnits="userSpaceOnUse" x1="150.6364" x2="150.6364" xlink:href="#a" y1="1218.8505" y2="1157.9584"/><linearGradient id="i" gradientUnits="userSpaceOnUse" x1="133.1776" x2="133.1776" xlink:href="#a" y1="80.4282" y2="274.0695"/><linearGradient id="j" gradientUnits="userSpaceOnUse" x1="200.0141" x2="200.0141" xlink:href="#a" y1="50.6672" y2="54.7259"/><linearGradient id="k" gradientUnits="userSpaceOnUse" x1="201.5477" x2="201.5477" xlink:href="#a" y1="23.4498" y2="41.1468"/><linearGradient id="l" gradientUnits="userSpaceOnUse" x1="201.5477" x2="201.5477" xlink:href="#a" y1="3.6355" y2="74.5401"/><linearGradient id="m" gradientUnits="userSpaceOnUse" x1="188.9766" x2="188.9766" xlink:href="#a" y1="120.832" y2="150.3086"/><linearGradient id="n" gradientUnits="userSpaceOnUse" x1="201.2864" x2="201.2864" xlink:href="#a" y1="124.7512" y2="150.3086"/><linearGradient id="o" gradientUnits="userSpaceOnUse" x1="214.1187" x2="214.1187" xlink:href="#a" y1="128.6703" y2="150.3086"/><linearGradient id="p" gradientUnits="userSpaceOnUse" x1="201.5477" x2="201.5477" xlink:href="#a" y1="99.0404" y2="169.9451"/><linearGradient id="q" gradientUnits="userSpaceOnUse" x1="201.5474" x2="201.5474" xlink:href="#a" y1="185.4454" y2="256.35"/><linearGradient id="r" gradientTransform="matrix(.9995 .03009739 -.03009739 .9995 17.844 21.9915)" gradientUnits="userSpaceOnUse" x1="179.1007" x2="179.193" xlink:href="#a" y1="180.0854" y2="183.9646"/><linearGradient id="s" gradientTransform="matrix(1 .00629712 -.00629712 1 3.8222 4.4958)" gradientUnits="userSpaceOnUse" x1="188.8952" x2="188.8952" xlink:href="#a" y1="207.5544" y2="211.3132"/><linearGradient id="t" gradientTransform="matrix(1 .00629712 -.00629712 1 3.8222 4.4958)" gradientUnits="userSpaceOnUse" x1="188.8952" x2="188.8952" xlink:href="#a" y1="213.3435" y2="217.1023"/><linearGradient id="u" gradientUnits="userSpaceOnUse" x1="191.3948" x2="191.3948" xlink:href="#a" y1="224.8776" y2="228.6364"/><linearGradient id="v" gradientUnits="userSpaceOnUse" x1="191.3948" x2="191.3948" xlink:href="#a" y1="230.6667" y2="234.4255"/><linearGradient id="w" gradientTransform="matrix(1 .00629712 -.00629712 1 3.8222 4.4958)" gradientUnits="userSpaceOnUse" x1="199.048" x2="199.048" xlink:href="#a" y1="201.7652" y2="205.524"/><linearGradient id="x" gradientTransform="matrix(1 .00629712 -.00629712 1 3.8222 4.4958)" gradientUnits="userSpaceOnUse" x1="199.048" x2="199.048" xlink:href="#a" y1="207.5544" y2="211.3132"/><linearGradient id="y" gradientTransform="matrix(1 .00629712 -.00629712 1 3.8222 4.4958)" gradientUnits="userSpaceOnUse" x1="199.048" x2="199.048" xlink:href="#a" y1="213.3435" y2="217.1023"/><linearGradient id="z" gradientUnits="userSpaceOnUse" x1="201.5476" x2="201.5476" xlink:href="#a" y1="224.8776" y2="228.6364"/><linearGradient id="A" gradientTransform="matrix(1 .00629712 -.00629712 1 3.8222 4.4958)" gradientUnits="userSpaceOnUse" x1="209.2009" x2="209.2009" xlink:href="#a" y1="201.7652" y2="205.524"/><linearGradient id="B" gradientTransform="matrix(1 .00629712 -.00629712 1 3.8222 4.4958)" gradientUnits="userSpaceOnUse" x1="209.2009" x2="209.2009" xlink:href="#a" y1="207.5544" y2="211.3132"/><linearGradient id="C" gradientTransform="matrix(1 .00629712 -.00629712 1 3.8222 4.4958)" gradientUnits="userSpaceOnUse" x1="209.2009" x2="209.2009" xlink:href="#a" y1="213.3435" y2="217.1023"/><linearGradient id="D" gradientUnits="userSpaceOnUse" x1="201.5477" x2="201.5477" xlink:href="#a" y1="275.8503" y2="346.755"/><linearGradient id="E" gradientUnits="userSpaceOnUse" x1="210.6003" x2="210.6003" xlink:href="#a" y1="308.3714" y2="326.5801"/><linearGradient id="F" gradientUnits="userSpaceOnUse" x1="306.5474" x2="306.5474" xlink:href="#a" y1="99.0404" y2="169.9451"/><clipPath id="G"><path d="m314.4 119.8c-2.6 0-4.8 2.2-4.8 4.8 0 .6.1 1.1.3 1.6l-8.1 5.1c-.8-.7-1.9-1.2-3.1-1.2-2.6 0-4.8 2.2-4.8 4.8s2.2 4.8 4.8 4.8c1.2 0 2.3-.5 3.2-1.2l8.1 5.1c-.2.5-.3 1-.3 1.6 0 2.6 2.2 4.8 4.8 4.8s4.8-2.2 4.8-4.8-2.2-4.8-4.8-4.8c-1.6 0-3 .8-3.9 2l-7.8-4.9c.5-.7.7-1.6.7-2.5s-.3-1.8-.7-2.5l7.8-4.9c.9 1.2 2.3 2 3.9 2 2.6 0 4.8-2.2 4.8-4.8-.1-2.8-2.3-5-4.9-5zm0 1.4c1.9 0 3.4 1.5 3.4 3.4s-1.5 3.4-3.4 3.4-3.4-1.5-3.4-3.4 1.5-3.4 3.4-3.4zm-15.7 10.3c1.9 0 3.4 1.5 3.4 3.4s-1.5 3.4-3.4 3.4-3.4-1.5-3.4-3.4 1.5-3.4 3.4-3.4zm15.7 10.2c1.9 0 3.4 1.5 3.4 3.4s-1.5 3.4-3.4 3.4-3.4-1.5-3.4-3.4 1.5-3.4 3.4-3.4z"/></clipPath><linearGradient id="H" gradientUnits="userSpaceOnUse" x1="306.5475" x2="306.5475" xlink:href="#a" y1="119.1674" y2="150.6039"/><linearGradient id="I" gradientUnits="userSpaceOnUse" x1="306.5474" x2="306.5474" xlink:href="#a" y1="185.4454" y2="256.35"/><linearGradient id="J" gradientUnits="userSpaceOnUse" x1="303.7286" x2="321" xlink:href="#a" y1="215.8181" y2="215.8181"/><linearGradient id="K" gradientUnits="userSpaceOnUse" x1="303.2286" x2="321.5" xlink:href="#a" y1="215.8181" y2="215.8181"/><linearGradient id="L" gradientUnits="userSpaceOnUse" x1="293" x2="317.412" xlink:href="#a" y1="222.9236" y2="222.9236"/><linearGradient id="M" gradientUnits="userSpaceOnUse" x1="292.5" x2="317.912" xlink:href="#a" y1="222.9236" y2="222.9236"/><linearGradient id="N" gradientUnits="userSpaceOnUse" x1="249.2757" x2="260.7242" xlink:href="#a" y1="95.9147" y2="76.0853"/><linearGradient id="O" gradientTransform="matrix(1 0 0 -1 0 650)" gradientUnits="userSpaceOnUse" x1="240.9828" x2="277.0172" xlink:href="#a" y1="346.7934" y2="409.2066"/><path d="m133.2 221.6 38.8-.6" style="fill:none;stroke-width:4;stroke-linejoin:round;stroke-miterlimit:10;stroke-dasharray:8 4;stroke:url(#b)"/><path d="m131.2 135.5 34.9-.6" style="fill:none;stroke-width:4;stroke-linejoin:round;stroke-miterlimit:10;stroke-dasharray:8 4;stroke:url(#c)"/><path d="m238.2 135.5 34.9-.6" style="fill:none;stroke-width:4;stroke-linejoin:round;stroke-miterlimit:10;stroke-dasharray:8 4;stroke:url(#d)"/><path d="m238.2 221.5 34.9-.6" style="fill:none;stroke-width:4;stroke-linejoin:round;stroke-miterlimit:10;stroke-dasharray:8 4;stroke:url(#e)"/><path d="m54.7 76.9c3.8 11.4 14.4 19.7 26.9 19.7 2.3 0 3.8 1.5 3.8 3.8s-1.5 3.8-3.8 3.8c-14.4 0-26.9-8.7-32.6-21.2-20.1 7.2-28.8 30.7-19.7 49.3 16.3 1.1 31.9 9.1 43.2 20.9 1.5 1.5 1.5 3.8 0 5.3s-3.8 1.5-5.3 0c-10.6-10.7-24.2-17.5-37.9-18.7-1.5 0-3.4-.4-4.9-.4-20.9 14.8-22.8 45.1-4.9 62.2 13.3 1.5 27.3-3 37.6-13.3 1.5-1.5 3.8-1.5 5.3 0s1.5 3.8 0 5.3c-9.5 9.9-22 14.8-34.5 15.6-3 9.1-2.7 19.3 1.9 28.1 4.2 8.3 11.4 14.4 19.7 17.4 10.2-9.5 23.9-15.6 39.1-15.6 2.3 0 3.8 1.5 3.8 3.8s-1.5 3.8-3.8 3.8c-14 0-26.9 6.1-36 15.6.4 7.2 3 14 7.6 20.1 6.8 8.7 17.1 13.7 28.1 13.7 19.7 0 36-16.3 36-36v-170.7c.2-39.1-55.1-49.7-69.6-12.5z" fill="url(#f)"/><path d="m133.2 95.4h21.9v-52.9h13" fill="none" stroke="url(#g)" stroke-dasharray="8 4" stroke-miterlimit="10" stroke-width="4"/><path d="m133.2 254.6h21.9v56.9h13" fill="none" stroke="url(#h)" stroke-dasharray="8 4" stroke-miterlimit="10" stroke-width="4"/><path d="m133.2 274.1c-1.8 0-3.3-1.5-3.3-3.3v-187.1c0-1.8 1.5-3.3 3.3-3.3 1.8 0 3.3 1.5 3.3 3.3v187.1c0 1.8-1.5 3.3-3.3 3.3z" fill="url(#i)"/><circle cx="201.5" cy="40.1" fill="#fff" r="33.5"/><path d="m186.9 50.7h26.2c.5 0 .8.4.8.8v2.4c0 .5-.4.8-.8.8h-26.2c-.5 0-.8-.4-.8-.8v-2.4c0-.5.4-.8.8-.8z" fill="url(#j)"/><path d="m201.5 42.4v5.3c0 .3.2.5.5.5h4.3c.3 0 .5-.2.5-.5v-7.5c0-.4-.5-.7-.9-.4l-2.7 2.4c-.2.2-.5.2-.7 0l-.2-.1c-.3-.4-.8-.1-.8.3z" fill="#ceecf6" opacity=".8"/><path d="m195.8 37.5-2.2 2c-.1.1-.2.2-.2.4v7.8c0 .3.2.5.5.5h4c.3 0 .5-.2.5-.5v-7.9c0-.2-.1-.3-.2-.4z" fill="#ceecf6" opacity=".8"/><path d="m186.1 45.2v2.5c0 .3.2.5.5.5h4c.3 0 .5-.2.5-.5v-4.7c0-.4-.5-.7-.9-.4l-2.6 2.3c-.2.2-.4.2-.6 0l-.1-.1c-.3-.2-.8 0-.8.4z" fill="#ceecf6" opacity=".8"/><path d="m212.8 34.1-3.4 3-.3.3c-.1.1-.2.2-.2.4v10c0 .3.2.5.5.5h4c.3 0 .5-.2.5-.5v-13.5c0-.1-.1-.3-.2-.4-.2-.2-.5-.2-.7 0z" fill="#ceecf6" opacity=".8"/><path d="m209.7 26.1 1 1c.2.2.2.5 0 .7l-4.8 4.2-2.7 2.4c-.2.1-.4.2-.6 0l-.4-.3-6.4-4.4c-.2-.1-.4-.1-.6 0l-.7.6-6.2 5.8-1 .9-.2.1-.2-.1h-.1c-.3-.2-.7 0-.7.4v2.8c0 .2.1.3.2.4l.7.5c.2.1.4.1.6 0l2.1-1.9 4.4-3.9 1.7-1.5 2 1.4.3.2 4.1 2.9.4.3c.2.1.4.1.6 0l2.7-2.3 4.4-3.7.5-.4 2-1.8.3-.2c.2-.2.5-.2.7 0l.2.2.6.5c.3.3.7.1.8-.2l1.6-6.5c.1-.4-.2-.7-.6-.6l-6.5 1.8c-.4 0-.5.5-.2.7z" fill="url(#k)"/><circle cx="201.5" cy="39.1" fill="none" r="33.5" stroke="url(#l)" stroke-miterlimit="10" stroke-width="4"/><circle cx="201.5" cy="136" fill="#fff" r="33.5"/><path d="m186.7 121.7v27.8c0 .5.4.8.8.8h3c.5 0 .8-.4.8-.8v-27.8c0-.5-.4-.8-.8-.8h-3c-.5-.1-.8.3-.8.8z" fill="url(#m)"/><path d="m199 125.6v23.9c0 .5.4.8.8.8h3c.5 0 .8-.4.8-.8v-23.9c0-.5-.4-.8-.8-.8h-3c-.5 0-.8.3-.8.8z" fill="url(#n)"/><path d="m211.8 129.5v20c0 .5.4.8.8.8h3c.5 0 .8-.4.8-.8v-20c0-.5-.4-.8-.8-.8h-3c-.4 0-.8.3-.8.8z" fill="url(#o)"/><path d="m191.3 121.7 7.7 3.9v24.7h-7.7z" fill="#ceecf6" opacity=".6"/><path d="m203.6 125.6 8.2 3.9v20.8h-8.2z" fill="#ceecf6" opacity=".6"/><circle cx="201.5" cy="134.5" fill="none" r="33.5" stroke="url(#p)" stroke-miterlimit="10" stroke-width="4"/><circle cx="201.5" cy="221.7" fill="#fff" r="33.5"/><circle cx="201.5" cy="220.9" fill="none" r="33.5" stroke="url(#q)" stroke-miterlimit="10" stroke-width="4"/><path d="m188.8 211.1 5.1.2.2-3.8-5.2-.1z" fill="url(#r)"/><path d="m188.8 217h5.2v-3.7l-5.2-.1z" fill="url(#s)"/><path d="m188.8 222.8h5.1v-3.8h-5.1z" fill="url(#t)"/><path d="m188.8 224.9h5.1v3.8h-5.1z" fill="url(#u)"/><path d="m188.8 230.7h5.1v3.8h-5.1z" fill="url(#v)"/><path d="m199 211.3h5.1l.1-3.8h-5.2z" fill="url(#w)"/><path d="m199 217 5.1.1v-3.8h-5.1z" fill="url(#x)"/><path d="m198.9 222.8 5.2.1v-3.8h-5.2z" fill="url(#y)"/><path d="m199 224.9h5.1v3.8h-5.1z" fill="url(#z)"/><path d="m199 230.7h5.1v3.8h-5.1z" fill="#ceecf6" opacity=".8"/><path d="m209.2 211.3h5.1v-3.7h-5.1z" fill="url(#A)"/><path d="m209.1 217.1h5.2v-3.7l-5.2-.1z" fill="url(#B)"/><path d="m209.1 222.9h5.1v-3.7l-5.1-.1z" fill="url(#C)"/><path d="m209.1 224.9h5.1v3.8h-5.1z" fill="#ceecf6" opacity=".8"/><path d="m209.1 230.7h5.1v3.8h-5.1z" fill="#ceecf6" opacity=".8"/><circle cx="201.5" cy="310.8" fill="#fff" r="33.5"/><circle cx="201.5" cy="311.3" fill="none" r="33.5" stroke="url(#D)" stroke-miterlimit="10" stroke-width="4"/><path d="m217.6 313.6-3.1-3.1 2.1-2.1 3.1 3.1zm-10.1 10.1-3.1-3.1 8.3-8.3 3.1 3.1zm-5.9 2.9 1-4.2 3.1 3.1z" fill="url(#E)"/><path d="m215.5 304.5v-9.6h-29.6v34h11.1l1.3-7z" fill="#bae5f1"/><path d="m215.5 320.7-8.4 8.2h8.4z" fill="#bae5f1"/><path d="m192.1 306.4.5-1c.5.4 1.2.6 1.9.6.8 0 1.1-.3 1.1-.6 0-1.1-3.4-.3-3.4-2.5 0-1 .8-1.8 2.5-1.8.7 0 1.5.2 2 .5l-.4 1c-.5-.3-1.1-.5-1.6-.5-.8 0-1.1.3-1.1.7 0 1.1 3.4.3 3.4 2.5 0 1-.8 1.8-2.5 1.8-1 0-1.9-.3-2.4-.7z" fill="#fff"/><path d="m204.3 307.6c-.4.5-.9.7-1.6.7-.9 0-1.5-.3-2.4-1.3-1.6-.2-2.8-1.4-2.8-3 0-1.8 1.4-3 3.2-3 1.9 0 3.2 1.3 3.2 3 0 1.4-.9 2.5-2.1 2.9.3.3.5.4.8.4.4 0 .7-.1 1-.4zm-3.5-1.6c1.1 0 1.8-.8 1.8-1.9s-.8-1.9-1.8-1.9c-1.1 0-1.8.8-1.8 1.9-.1 1.1.7 1.9 1.8 1.9z" fill="#fff"/><path d="m205 301.1h1.4v4.8h3v1.1h-4.4z" fill="#fff"/><circle cx="306.5" cy="135.3" fill="#fff" r="33.5"/><circle cx="306.5" cy="134.5" fill="none" r="33.5" stroke="url(#F)" stroke-miterlimit="10" stroke-width="4"/><path clip-path="url(#G)" d="m311 141.7h.2v6.8h-.2z" fill="#5796c9"/><path clip-path="url(#G)" d="m311.2 141.7h.2v6.8h-.2z" fill="#5796c9"/><path clip-path="url(#G)" d="m311.4 141.7h.2v6.8h-.2z" fill="#5795c8"/><path clip-path="url(#G)" d="m311.6 141.7h.2v6.8h-.2z" fill="#5794c8"/><path clip-path="url(#G)" d="m311.7 141.7h.2v6.8h-.2z" fill="#5793c8"/><path clip-path="url(#G)" d="m311.9 141.7h.2v6.8h-.2z" fill="#5793c7"/><path clip-path="url(#G)" d="m312.1 141.7h.2v6.8h-.2z" fill="#5792c7"/><path clip-path="url(#G)" d="m312.3 141.7h.2v6.8h-.2z" fill="#5791c7"/><path clip-path="url(#G)" d="m312.5 141.7h.2v6.8h-.2z" fill="#5790c6"/><path clip-path="url(#G)" d="m312.7 141.7h.2v6.8h-.2z" fill="#5790c6"/><path clip-path="url(#G)" d="m312.9 141.7h.2v6.8h-.2z" fill="#578fc5"/><path clip-path="url(#G)" d="m313.1 141.7h.2v6.8h-.2z" fill="#578ec5"/><path clip-path="url(#G)" d="m313.3 141.7h.2v6.8h-.2z" fill="#578dc5"/><path clip-path="url(#G)" d="m313.5 141.7h.2v6.8h-.2z" fill="#578dc4"/><path clip-path="url(#G)" d="m313.7 141.7h.2v6.8h-.2z" fill="#578cc4"/><path clip-path="url(#G)" d="m313.8 141.7h.2v6.8h-.2z" fill="#578bc4"/><path clip-path="url(#G)" d="m314 141.7h.2v6.8h-.2z" fill="#578bc3"/><path clip-path="url(#G)" d="m314.2 141.7h.2v6.8h-.2z" fill="#578ac3"/><path clip-path="url(#G)" d="m314.4 141.7h.2v6.8h-.2z" fill="#5789c2"/><path clip-path="url(#G)" d="m314.6 141.7h.2v6.8h-.2z" fill="#5788c2"/><path clip-path="url(#G)" d="m314.8 141.7h.2v6.8h-.2z" fill="#5788c2"/><path clip-path="url(#G)" d="m315 141.7h.2v6.8h-.2z" fill="#5787c1"/><path clip-path="url(#G)" d="m315.2 141.7h.2v6.8h-.2z" fill="#5786c1"/><path clip-path="url(#G)" d="m315.4 141.7h.2v6.8h-.2z" fill="#5785c1"/><path clip-path="url(#G)" d="m315.6 141.7h.2v6.8h-.2z" fill="#5785c0"/><path clip-path="url(#G)" d="m315.8 141.7h.2v6.8h-.2z" fill="#5784c0"/><path clip-path="url(#G)" d="m315.9 141.7h.2v6.8h-.2z" fill="#5783c0"/><path clip-path="url(#G)" d="m316.1 141.7h.2v6.8h-.2z" fill="#5782bf"/><path clip-path="url(#G)" d="m316.3 141.7h.2v6.8h-.2z" fill="#5782bf"/><path clip-path="url(#G)" d="m316.5 141.7h.2v6.8h-.2z" fill="#5781be"/><path clip-path="url(#G)" d="m316.7 141.7h.2v6.8h-.2z" fill="#5780be"/><path clip-path="url(#G)" d="m316.9 141.7h.2v6.8h-.2z" fill="#577fbe"/><path clip-path="url(#G)" d="m317.1 141.7h.2v6.8h-.2z" fill="#577fbd"/><path clip-path="url(#G)" d="m317.3 141.7h.2v6.8h-.2z" fill="#577ebd"/><path clip-path="url(#G)" d="m317.5 141.7h.2v6.8h-.2z" fill="#577dbd"/><path clip-path="url(#G)" d="m317.7 141.7h.2v6.8h-.2z" fill="#577cbd"/><path clip-path="url(#G)" d="m295.3 131.5h.2v6.8h-.2z" fill="#58c5e0"/><path clip-path="url(#G)" d="m295.5 131.5h.2v6.8h-.2z" fill="#58c5e0"/><path clip-path="url(#G)" d="m295.7 131.5h.2v6.8h-.2z" fill="#58c4e0"/><path clip-path="url(#G)" d="m295.9 131.5h.2v6.8h-.2z" fill="#58c4df"/><path clip-path="url(#G)" d="m296.1 131.5h.2v6.8h-.2z" fill="#58c4df"/><path clip-path="url(#G)" d="m296.3 131.5h.2v6.8h-.2z" fill="#58c3df"/><path clip-path="url(#G)" d="m296.4 131.5h.2v6.8h-.2z" fill="#58c3df"/><path clip-path="url(#G)" d="m296.6 131.5h.2v6.8h-.2z" fill="#58c2df"/><path clip-path="url(#G)" d="m296.8 131.5h.2v6.8h-.2z" fill="#58c2de"/><path clip-path="url(#G)" d="m297 131.5h.2v6.8h-.2z" fill="#58c1de"/><path clip-path="url(#G)" d="m297.2 131.5h.2v6.8h-.2z" fill="#58c1de"/><path clip-path="url(#G)" d="m297.4 131.5h.2v6.8h-.2z" fill="#58c1de"/><path clip-path="url(#G)" d="m297.6 131.5h.2v6.8h-.2z" fill="#58c0de"/><path clip-path="url(#G)" d="m297.8 131.5h.2v6.8h-.2z" fill="#58c0dd"/><path clip-path="url(#G)" d="m298 131.5h.2v6.8h-.2z" fill="#58bfdd"/><path clip-path="url(#G)" d="m298.2 131.5h.2v6.8h-.2z" fill="#58bfdd"/><path clip-path="url(#G)" d="m298.4 131.5h.2v6.8h-.2z" fill="#58bedd"/><path clip-path="url(#G)" d="m298.5 131.5h.2v6.8h-.2z" fill="#58bedd"/><path clip-path="url(#G)" d="m298.7 131.5h.2v6.8h-.2z" fill="#58bddc"/><path clip-path="url(#G)" d="m298.9 131.5h.2v6.8h-.2z" fill="#58bddc"/><path clip-path="url(#G)" d="m299.1 131.5h.2v6.8h-.2z" fill="#58bcdc"/><path clip-path="url(#G)" d="m299.3 131.5h.2v6.8h-.2z" fill="#58bcdc"/><path clip-path="url(#G)" d="m299.5 131.5h.2v6.8h-.2z" fill="#58bbdb"/><path clip-path="url(#G)" d="m299.7 131.5h.2v6.8h-.2z" fill="#58bbdb"/><path clip-path="url(#G)" d="m299.9 131.5h.2v6.8h-.2z" fill="#58badb"/><path clip-path="url(#G)" d="m300.1 131.5h.2v6.8h-.2z" fill="#58badb"/><path clip-path="url(#G)" d="m300.3 131.5h.2v6.8h-.2z" fill="#58b9db"/><path clip-path="url(#G)" d="m300.5 131.5h.2v6.8h-.2z" fill="#58b9da"/><path clip-path="url(#G)" d="m300.7 131.5h.2v6.8h-.2z" fill="#58b8da"/><path clip-path="url(#G)" d="m300.8 131.5h.2v6.8h-.2z" fill="#58b8da"/><path clip-path="url(#G)" d="m301 131.5h.2v6.8h-.2z" fill="#58b7da"/><path clip-path="url(#G)" d="m301.2 131.5h.2v6.8h-.2z" fill="#58b7d9"/><path clip-path="url(#G)" d="m301.4 131.5h.2v6.8h-.2z" fill="#58b6d9"/><path clip-path="url(#G)" d="m301.6 131.5h.2v6.8h-.2z" fill="#58b6d9"/><path clip-path="url(#G)" d="m301.8 131.5h.2v6.8h-.2z" fill="#58b5d8"/><path clip-path="url(#G)" d="m302 131.5h.1v6.8h-.1z" fill="#58b5d8"/><path clip-path="url(#G)" d="m311 121.2h.2v6.8h-.2z" fill="#5796c9"/><path clip-path="url(#G)" d="m311.2 121.2h.2v6.8h-.2z" fill="#5796c9"/><path clip-path="url(#G)" d="m311.4 121.2h.2v6.8h-.2z" fill="#5795c8"/><path clip-path="url(#G)" d="m311.6 121.2h.2v6.8h-.2z" fill="#5794c8"/><path clip-path="url(#G)" d="m311.7 121.2h.2v6.8h-.2z" fill="#5793c8"/><path clip-path="url(#G)" d="m311.9 121.2h.2v6.8h-.2z" fill="#5793c7"/><path clip-path="url(#G)" d="m312.1 121.2h.2v6.8h-.2z" fill="#5792c7"/><path clip-path="url(#G)" d="m312.3 121.2h.2v6.8h-.2z" fill="#5791c7"/><path clip-path="url(#G)" d="m312.5 121.2h.2v6.8h-.2z" fill="#5790c6"/><path clip-path="url(#G)" d="m312.7 121.2h.2v6.8h-.2z" fill="#5790c6"/><path clip-path="url(#G)" d="m312.9 121.2h.2v6.8h-.2z" fill="#578fc5"/><path clip-path="url(#G)" d="m313.1 121.2h.2v6.8h-.2z" fill="#578ec5"/><path clip-path="url(#G)" d="m313.3 121.2h.2v6.8h-.2z" fill="#578dc5"/><path clip-path="url(#G)" d="m313.5 121.2h.2v6.8h-.2z" fill="#578dc4"/><path clip-path="url(#G)" d="m313.7 121.2h.2v6.8h-.2z" fill="#578cc4"/><path clip-path="url(#G)" d="m313.8 121.2h.2v6.8h-.2z" fill="#578bc4"/><path clip-path="url(#G)" d="m314 121.2h.2v6.8h-.2z" fill="#578bc3"/><path clip-path="url(#G)" d="m314.2 121.2h.2v6.8h-.2z" fill="#578ac3"/><path clip-path="url(#G)" d="m314.4 121.2h.2v6.8h-.2z" fill="#5789c2"/><path clip-path="url(#G)" d="m314.6 121.2h.2v6.8h-.2z" fill="#5788c2"/><path clip-path="url(#G)" d="m314.8 121.2h.2v6.8h-.2z" fill="#5788c2"/><path clip-path="url(#G)" d="m315 121.2h.2v6.8h-.2z" fill="#5787c1"/><path clip-path="url(#G)" d="m315.2 121.2h.2v6.8h-.2z" fill="#5786c1"/><path clip-path="url(#G)" d="m315.4 121.2h.2v6.8h-.2z" fill="#5785c1"/><path clip-path="url(#G)" d="m315.6 121.2h.2v6.8h-.2z" fill="#5785c0"/><path clip-path="url(#G)" d="m315.8 121.2h.2v6.8h-.2z" fill="#5784c0"/><path clip-path="url(#G)" d="m315.9 121.2h.2v6.8h-.2z" fill="#5783c0"/><path clip-path="url(#G)" d="m316.1 121.2h.2v6.8h-.2z" fill="#5782bf"/><path clip-path="url(#G)" d="m316.3 121.2h.2v6.8h-.2z" fill="#5782bf"/><path clip-path="url(#G)" d="m316.5 121.2h.2v6.8h-.2z" fill="#5781be"/><path clip-path="url(#G)" d="m316.7 121.2h.2v6.8h-.2z" fill="#5780be"/><path clip-path="url(#G)" d="m316.9 121.2h.2v6.8h-.2z" fill="#577fbe"/><path clip-path="url(#G)" d="m317.1 121.2h.2v6.8h-.2z" fill="#577fbd"/><path clip-path="url(#G)" d="m317.3 121.2h.2v6.8h-.2z" fill="#577ebd"/><path clip-path="url(#G)" d="m317.5 121.2h.2v6.8h-.2z" fill="#577dbd"/><path clip-path="url(#G)" d="m317.7 121.2h.2v6.8h-.2z" fill="#577cbd"/><path clip-path="url(#G)" d="m293.9 119.8h.1v30.1h-.1z" fill="#57c8e1"/><path clip-path="url(#G)" d="m294 119.8h.2v30.1h-.2z" fill="#57c8e1"/><path clip-path="url(#G)" d="m294.1 119.8h.2v30.1h-.2z" fill="#57c8e1"/><path clip-path="url(#G)" d="m294.3 119.8h.2v30.1h-.2z" fill="#57c7e1"/><path clip-path="url(#G)" d="m294.5 119.8h.2v30.1h-.2z" fill="#57c7e1"/><path clip-path="url(#G)" d="m294.7 119.8h.2v30.1h-.2z" fill="#57c7e1"/><path clip-path="url(#G)" d="m294.9 119.8h.2v30.1h-.2z" fill="#58c6e1"/><path clip-path="url(#G)" d="m295.1 119.8h.2v30.1h-.2z" fill="#58c6e0"/><path clip-path="url(#G)" d="m295.3 119.8h.2v30.1h-.2z" fill="#58c5e0"/><path clip-path="url(#G)" d="m295.5 119.8h.2v30.1h-.2z" fill="#58c5e0"/><path clip-path="url(#G)" d="m295.7 119.8h.2v30.1h-.2z" fill="#58c4e0"/><path clip-path="url(#G)" d="m295.9 119.8h.2v30.1h-.2z" fill="#58c4df"/><path clip-path="url(#G)" d="m296.1 119.8h.2v30.1h-.2z" fill="#58c4df"/><path clip-path="url(#G)" d="m296.3 119.8h.2v30.1h-.2z" fill="#58c3df"/><path clip-path="url(#G)" d="m296.4 119.8h.2v30.1h-.2z" fill="#58c3df"/><path clip-path="url(#G)" d="m296.6 119.8h.2v30.1h-.2z" fill="#58c2df"/><path clip-path="url(#G)" d="m296.8 119.8h.2v30.1h-.2z" fill="#58c2de"/><path clip-path="url(#G)" d="m297 119.8h.2v30.1h-.2z" fill="#58c1de"/><path clip-path="url(#G)" d="m297.2 119.8h.2v30.1h-.2z" fill="#58c1de"/><path clip-path="url(#G)" d="m297.4 119.8h.2v30.1h-.2z" fill="#58c1de"/><path clip-path="url(#G)" d="m297.6 119.8h.2v30.1h-.2z" fill="#58c0de"/><path clip-path="url(#G)" d="m297.8 119.8h.2v30.1h-.2z" fill="#58c0dd"/><path clip-path="url(#G)" d="m298 119.8h.2v30.1h-.2z" fill="#58bfdd"/><path clip-path="url(#G)" d="m298.2 119.8h.2v30.1h-.2z" fill="#58bfdd"/><path clip-path="url(#G)" d="m298.4 119.8h.2v30.1h-.2z" fill="#58bedd"/><path clip-path="url(#G)" d="m298.5 119.8h.2v30.1h-.2z" fill="#58bedd"/><path clip-path="url(#G)" d="m298.7 119.8h.2v30.1h-.2z" fill="#58bddc"/><path clip-path="url(#G)" d="m298.9 119.8h.2v30.1h-.2z" fill="#58bddc"/><path clip-path="url(#G)" d="m299.1 119.8h.2v30.1h-.2z" fill="#58bcdc"/><path clip-path="url(#G)" d="m299.3 119.8h.2v30.1h-.2z" fill="#58bcdc"/><path clip-path="url(#G)" d="m299.5 119.8h.2v30.1h-.2z" fill="#58bbdb"/><path clip-path="url(#G)" d="m299.7 119.8h.2v30.1h-.2z" fill="#58bbdb"/><path clip-path="url(#G)" d="m299.9 119.8h.2v30.1h-.2z" fill="#58badb"/><path clip-path="url(#G)" d="m300.1 119.8h.2v30.1h-.2z" fill="#58badb"/><path clip-path="url(#G)" d="m300.3 119.8h.2v30.1h-.2z" fill="#58b9db"/><path clip-path="url(#G)" d="m300.5 119.8h.2v30.1h-.2z" fill="#58b9da"/><path clip-path="url(#G)" d="m300.7 119.8h.2v30.1h-.2z" fill="#58b8da"/><path clip-path="url(#G)" d="m300.8 119.8h.2v30.1h-.2z" fill="#58b8da"/><path clip-path="url(#G)" d="m301 119.8h.2v30.1h-.2z" fill="#58b7da"/><path clip-path="url(#G)" d="m301.2 119.8h.2v30.1h-.2z" fill="#58b7d9"/><path clip-path="url(#G)" d="m301.4 119.8h.2v30.1h-.2z" fill="#58b6d9"/><path clip-path="url(#G)" d="m301.6 119.8h.2v30.1h-.2z" fill="#58b6d9"/><path clip-path="url(#G)" d="m301.8 119.8h.2v30.1h-.2z" fill="#58b5d8"/><path clip-path="url(#G)" d="m302 119.8h.2v30.1h-.2z" fill="#58b5d8"/><path clip-path="url(#G)" d="m302.2 119.8h.2v30.1h-.2z" fill="#58b4d8"/><path clip-path="url(#G)" d="m302.4 119.8h.2v30.1h-.2z" fill="#58b3d8"/><path clip-path="url(#G)" d="m302.6 119.8h.2v30.1h-.2z" fill="#58b3d7"/><path clip-path="url(#G)" d="m302.8 119.8h.2v30.1h-.2z" fill="#58b2d7"/><path clip-path="url(#G)" d="m302.9 119.8h.2v30.1h-.2z" fill="#58b2d7"/><path clip-path="url(#G)" d="m303.1 119.8h.2v30.1h-.2z" fill="#58b1d7"/><path clip-path="url(#G)" d="m303.3 119.8h.2v30.1h-.2z" fill="#58b1d6"/><path clip-path="url(#G)" d="m303.5 119.8h.2v30.1h-.2z" fill="#58b0d6"/><path clip-path="url(#G)" d="m303.7 119.8h.2v30.1h-.2z" fill="#58afd6"/><path clip-path="url(#G)" d="m303.9 119.8h.2v30.1h-.2z" fill="#58afd5"/><path clip-path="url(#G)" d="m304.1 119.8h.2v30.1h-.2z" fill="#58aed5"/><path clip-path="url(#G)" d="m304.3 119.8h.2v30.1h-.2z" fill="#58aed5"/><path clip-path="url(#G)" d="m304.5 119.8h.2v30.1h-.2z" fill="#58add5"/><path clip-path="url(#G)" d="m304.7 119.8h.2v30.1h-.2z" fill="#58acd4"/><path clip-path="url(#G)" d="m304.9 119.8h.2v30.1h-.2z" fill="#58acd4"/><path clip-path="url(#G)" d="m305 119.8h.2v30.1h-.2z" fill="#57abd4"/><path clip-path="url(#G)" d="m305.2 119.8h.2v30.1h-.2z" fill="#57abd3"/><path clip-path="url(#G)" d="m305.4 119.8h.2v30.1h-.2z" fill="#57aad3"/><path clip-path="url(#G)" d="m305.6 119.8h.2v30.1h-.2z" fill="#57a9d3"/><path clip-path="url(#G)" d="m305.8 119.8h.2v30.1h-.2z" fill="#57a9d2"/><path clip-path="url(#G)" d="m306 119.8h.2v30.1h-.2z" fill="#57a8d2"/><path clip-path="url(#G)" d="m306.2 119.8h.2v30.1h-.2z" fill="#57a7d2"/><path clip-path="url(#G)" d="m306.4 119.8h.2v30.1h-.2z" fill="#57a7d2"/><path clip-path="url(#G)" d="m306.6 119.8h.2v30.1h-.2z" fill="#57a6d1"/><path clip-path="url(#G)" d="m306.8 119.8h.2v30.1h-.2z" fill="#57a5d1"/><path clip-path="url(#G)" d="m307 119.8h.2v30.1h-.2z" fill="#57a5d1"/><path clip-path="url(#G)" d="m307.2 119.8h.2v30.1h-.2z" fill="#57a4d0"/><path clip-path="url(#G)" d="m307.3 119.8h.2v30.1h-.2z" fill="#57a3d0"/><path clip-path="url(#G)" d="m307.5 119.8h.2v30.1h-.2z" fill="#57a3d0"/><path clip-path="url(#G)" d="m307.7 119.8h.2v30.1h-.2z" fill="#57a2cf"/><path clip-path="url(#G)" d="m307.9 119.8h.2v30.1h-.2z" fill="#57a1cf"/><path clip-path="url(#G)" d="m308.1 119.8h.2v30.1h-.2z" fill="#57a1cf"/><path clip-path="url(#G)" d="m308.3 119.8h.2v30.1h-.2z" fill="#57a0ce"/><path clip-path="url(#G)" d="m308.5 119.8h.2v30.1h-.2z" fill="#579fce"/><path clip-path="url(#G)" d="m308.7 119.8h.2v30.1h-.2z" fill="#579fce"/><path clip-path="url(#G)" d="m308.9 119.8h.2v30.1h-.2z" fill="#579ecd"/><path clip-path="url(#G)" d="m309.1 119.8h.2v30.1h-.2z" fill="#579dcd"/><path clip-path="url(#G)" d="m309.3 119.8h.2v30.1h-.2z" fill="#579dcc"/><path clip-path="url(#G)" d="m309.4 119.8h.2v30.1h-.2z" fill="#579ccc"/><path clip-path="url(#G)" d="m309.6 119.8h.2v30.1h-.2z" fill="#579bcc"/><path clip-path="url(#G)" d="m309.8 119.8h.2v30.1h-.2z" fill="#579bcb"/><path clip-path="url(#G)" d="m310 119.8h.2v30.1h-.2z" fill="#579acb"/><path clip-path="url(#G)" d="m310.2 119.8h.2v30.1h-.2z" fill="#5799cb"/><path clip-path="url(#G)" d="m310.4 119.8h.2v30.1h-.2z" fill="#5798ca"/><path clip-path="url(#G)" d="m310.6 119.8h.2v30.1h-.2z" fill="#5798ca"/><path clip-path="url(#G)" d="m310.8 119.8h.2v30.1h-.2z" fill="#5797ca"/><path clip-path="url(#G)" d="m311 119.8h.2v30.1h-.2z" fill="#5796c9"/><path clip-path="url(#G)" d="m311.2 119.8h.2v30.1h-.2z" fill="#5796c9"/><path clip-path="url(#G)" d="m311.4 119.8h.2v30.1h-.2z" fill="#5795c8"/><path clip-path="url(#G)" d="m311.6 119.8h.2v30.1h-.2z" fill="#5794c8"/><path clip-path="url(#G)" d="m311.7 119.8h.2v30.1h-.2z" fill="#5793c8"/><path clip-path="url(#G)" d="m311.9 119.8h.2v30.1h-.2z" fill="#5793c7"/><path clip-path="url(#G)" d="m312.1 119.8h.2v30.1h-.2z" fill="#5792c7"/><path clip-path="url(#G)" d="m312.3 119.8h.2v30.1h-.2z" fill="#5791c7"/><path clip-path="url(#G)" d="m312.5 119.8h.2v30.1h-.2z" fill="#5790c6"/><path clip-path="url(#G)" d="m312.7 119.8h.2v30.1h-.2z" fill="#5790c6"/><path clip-path="url(#G)" d="m312.9 119.8h.2v30.1h-.2z" fill="#578fc5"/><path clip-path="url(#G)" d="m313.1 119.8h.2v30.1h-.2z" fill="#578ec5"/><path clip-path="url(#G)" d="m313.3 119.8h.2v30.1h-.2z" fill="#578dc5"/><path clip-path="url(#G)" d="m313.5 119.8h.2v30.1h-.2z" fill="#578dc4"/><path clip-path="url(#G)" d="m313.7 119.8h.2v30.1h-.2z" fill="#578cc4"/><path clip-path="url(#G)" d="m313.8 119.8h.2v30.1h-.2z" fill="#578bc4"/><path clip-path="url(#G)" d="m314 119.8h.2v30.1h-.2z" fill="#578bc3"/><path clip-path="url(#G)" d="m314.2 119.8h.2v30.1h-.2z" fill="#578ac3"/><path clip-path="url(#G)" d="m314.4 119.8h.2v30.1h-.2z" fill="#5789c2"/><path clip-path="url(#G)" d="m314.6 119.8h.2v30.1h-.2z" fill="#5788c2"/><path clip-path="url(#G)" d="m314.8 119.8h.2v30.1h-.2z" fill="#5788c2"/><path clip-path="url(#G)" d="m315 119.8h.2v30.1h-.2z" fill="#5787c1"/><path clip-path="url(#G)" d="m315.2 119.8h.2v30.1h-.2z" fill="#5786c1"/><path clip-path="url(#G)" d="m315.4 119.8h.2v30.1h-.2z" fill="#5785c1"/><path clip-path="url(#G)" d="m315.6 119.8h.2v30.1h-.2z" fill="#5785c0"/><path clip-path="url(#G)" d="m315.8 119.8h.2v30.1h-.2z" fill="#5784c0"/><path clip-path="url(#G)" d="m315.9 119.8h.2v30.1h-.2z" fill="#5783c0"/><path clip-path="url(#G)" d="m316.1 119.8h.2v30.1h-.2z" fill="#5782bf"/><path clip-path="url(#G)" d="m316.3 119.8h.2v30.1h-.2z" fill="#5782bf"/><path clip-path="url(#G)" d="m316.5 119.8h.2v30.1h-.2z" fill="#5781be"/><path clip-path="url(#G)" d="m316.7 119.8h.2v30.1h-.2z" fill="#5780be"/><path clip-path="url(#G)" d="m316.9 119.8h.2v30.1h-.2z" fill="#577fbe"/><path clip-path="url(#G)" d="m317.1 119.8h.2v30.1h-.2z" fill="#577fbd"/><path clip-path="url(#G)" d="m317.3 119.8h.2v30.1h-.2z" fill="#577ebd"/><path clip-path="url(#G)" d="m317.5 119.8h.2v30.1h-.2z" fill="#577dbd"/><path clip-path="url(#G)" d="m317.7 119.8h.2v30.1h-.2z" fill="#577cbd"/><path clip-path="url(#G)" d="m317.9 119.8h.2v30.1h-.2z" fill="#577cbc"/><path clip-path="url(#G)" d="m318.1 119.8h.2v30.1h-.2z" fill="#577bbc"/><path clip-path="url(#G)" d="m318.2 119.8h.2v30.1h-.2z" fill="#577abc"/><path clip-path="url(#G)" d="m318.4 119.8h.2v30.1h-.2z" fill="#5779bb"/><path clip-path="url(#G)" d="m318.6 119.8h.2v30.1h-.2z" fill="#5779bb"/><path clip-path="url(#G)" d="m318.8 119.8h.2v30.1h-.2z" fill="#5778bb"/><path clip-path="url(#G)" d="m319 119.8h.2v30.1h-.2z" fill="#5777bb"/><path d="m314.4 150.6c-3 0-5.5-2.4-5.5-5.5 0-.4.1-.9.2-1.3l-7.2-4.6c-.9.7-2 1-3.2 1-3 0-5.5-2.4-5.5-5.5s2.4-5.5 5.5-5.5c1.1 0 2.3.4 3.2 1l7.2-4.6c-.1-.4-.2-.9-.2-1.3 0-3 2.4-5.5 5.5-5.5 3 0 5.5 2.4 5.5 5.5s-2.4 5.5-5.5 5.5c-1.5 0-3-.7-4-1.8l-6.8 4.3c.3.7.5 1.5.5 2.3s-.2 1.6-.5 2.3l6.8 4.3c1-1.1 2.5-1.8 4-1.8 3 0 5.5 2.4 5.5 5.5s-2.5 5.7-5.5 5.7zm-12.6-13 8.9 5.6-.2.5c-.2.4-.2.9-.2 1.4 0 2.3 1.8 4.1 4.1 4.1s4.1-1.8 4.1-4.1-1.8-4.1-4.1-4.1c-1.3 0-2.6.6-3.3 1.7l-.4.5-8.9-5.6.4-.6c.4-.7.6-1.4.6-2.2s-.2-1.5-.6-2.2l-.4-.6 8.9-5.6.4.5c.8 1.1 2 1.7 3.3 1.7 2.3 0 4.1-1.8 4.1-4.1s-1.8-4.1-4.1-4.1-4.1 1.8-4.1 4.1c0 .5.1.9.2 1.4l.2.5-9 5.6-.4-.3c-.8-.7-1.7-1-2.7-1-2.3 0-4.1 1.8-4.1 4.1s1.8 4.1 4.1 4.1c1 0 2-.4 2.7-1zm12.6 11.6c-2.3 0-4.1-1.8-4.1-4.1s1.8-4.1 4.1-4.1 4.1 1.8 4.1 4.1-1.8 4.1-4.1 4.1zm0-6.8c-1.5 0-2.7 1.2-2.7 2.7s1.2 2.7 2.7 2.7 2.7-1.2 2.7-2.7-1.2-2.7-2.7-2.7zm-15.7-3.4c-2.3 0-4.1-1.8-4.1-4.1s1.8-4.1 4.1-4.1 4.1 1.8 4.1 4.1c0 2.2-1.9 4.1-4.1 4.1zm0-6.9c-1.5 0-2.7 1.2-2.7 2.7s1.2 2.7 2.7 2.7 2.7-1.2 2.7-2.7c0-1.4-1.2-2.7-2.7-2.7zm15.7-3.4c-2.3 0-4.1-1.8-4.1-4.1s1.8-4.1 4.1-4.1 4.1 1.8 4.1 4.1-1.8 4.1-4.1 4.1zm0-6.8c-1.5 0-2.7 1.2-2.7 2.7s1.2 2.7 2.7 2.7 2.7-1.2 2.7-2.7c.1-1.5-1.2-2.7-2.7-2.7z" fill="url(#H)"/><circle cx="306.5" cy="221.7" fill="#fff" r="33.5"/><g stroke-miterlimit="10"><circle cx="306.5" cy="220.9" fill="none" r="33.5" stroke="url(#I)" stroke-width="4"/><path d="m320.9 207.9v-.1l-.1-.1v-.1c-.1-.1-.2-.2-.3-.3h-.1l-.1-.1h-8.1c-.6 0-1.1.5-1.1 1.1s.5 1.1 1.1 1.1h5.1l-13.2 13.1c-.5.3-.6 1-.2 1.5.3.5 1 .6 1.5.2.1-.1.2-.1.2-.2l13.3-13.2v5.1c0 .6.5 1.1 1.1 1.1s1.1-.5 1.1-1.1v-7.6c-.1-.2-.1-.3-.2-.4z" fill="url(#J)" stroke="url(#K)"/><path d="m296.9 235.1h16.7c2.1 0 3.9-1.7 3.9-3.9v-10c0-.6-.5-1.1-1.1-1.1s-1.1.5-1.1 1.1v10c0 1-.8 1.8-1.8 1.8h-16.7c-1 0-1.8-.8-1.8-1.8v-16.7c0-1 .8-1.8 1.8-1.8h10c.6 0 1.1-.5 1.1-1.1s-.5-1.1-1.1-1.1h-10c-2.1 0-3.9 1.7-3.9 3.9v16.7c.1 2.3 1.8 4 4 4z" fill="url(#L)" stroke="url(#M)"/><path d="m229 60 52 52" fill="none" stroke="url(#N)" stroke-dasharray="8 4" stroke-linejoin="round" stroke-width="4"/><path d="m233 298 52-52" fill="none" stroke="url(#O)" stroke-dasharray="8 4" stroke-linejoin="round" stroke-width="4"/></g></svg>