<svg height="101" viewBox="0 0 100 101" width="100" xmlns="http://www.w3.org/2000/svg" xmlns:xlink="http://www.w3.org/1999/xlink"><defs><circle id="a" cx="35.833333" cy="35.833333" r="35.833333"/><filter id="b" height="172.6%" width="172.6%" x="-36.3%" y="-30.7%"><feOffset dx="0" dy="4" in="SourceAlpha" result="shadowOffsetOuter1"/><feGaussianBlur in="shadowOffsetOuter1" result="shadowBlurOuter1" stdDeviation="8"/><feColorMatrix in="shadowBlurOuter1" type="matrix" values="0 0 0 0 0.254901961   0 0 0 0 0.458823529   0 0 0 0 0.647058824  0 0 0 0.24 0"/></filter><linearGradient id="c" x1="0%" x2="149.460671%" y1="0%" y2="71.875%"><stop offset="0" stop-color="#00eaf8"/><stop offset="1" stop-color="#6d42ef"/></linearGradient></defs><g fill="none" fill-rule="nonzero" transform="translate(14.166667 12.166667)"><g><use fill="#000" filter="url(#b)" xlink:href="#a"/><use fill="#fff" fill-rule="evenodd" xlink:href="#a"/></g><g fill="url(#c)" transform="translate(19.166667 14.166667)"><path d="m2.15962441 10.7981221c0 .4472728-.36258629.8098591-.80985915.8098591s-.80985916-.3625863-.80985916-.8098591c0-1.62769583 1.57353005-2.9694836 3.23943662-2.9694836h12.41784038c.4472729 0 .8098592.36258629.8098592.80985915s-.3625863.80985916-.8098592.80985916h-12.41784038c-.82351748 0-1.61971831.67893999-1.61971831 1.34976529zm26.18544599 14.5774648c0-.4472729.3625863-.8098592.8098592-.8098592.4472728 0 .8098591.3625863.8098591.8098592v8.6384976c0 1.7438198-.8022911 2.9694836-2.4295774 2.9694836h-23.75586858c-1.70019898 0-3.50938967-1.3447002-3.50938967-2.9694836v-18.8967136c0-.4472729.3625863-.8098592.80985916-.8098592s.80985915.3625863.80985915.8098592v18.8967136c0 .6084318.99740722 1.3497653 1.88967136 1.3497653h23.75586858c.5530205 0 .8098591-.3923736.8098591-1.3497653zm-21.86619716 6.2089201c-.44727286 0-.80985916-.3625863-.80985916-.8098591 0-.4472729.3625863-.8098592.80985916-.8098592h17.27699526c.4472729 0 .8098592.3625863.8098592.8098592 0 .4472728-.3625863.8098591-.8098592.8098591zm0-3.2394366c-.44727286 0-.80985916-.3625863-.80985916-.8098591 0-.4472729.3625863-.8098592.80985916-.8098592h8.09859156c.4472728 0 .8098591.3625863.8098591.8098592 0 .4472728-.3625863.8098591-.8098591.8098591z"/><path d="m24.5632975 9.50289604c-.7746993.44727286-1.7653035.18184128-2.2125764-.59285804-.4472728-.77469932-.1818412-1.7653035.5928581-2.21257636s1.7653035-.18184127 2.2125763.59285805c.4472729.77469932.1818413 1.76530349-.592858 2.21257635zm6.4801176 6.47471856c-.7746993.4472729-1.7653035.1818413-2.2125763-.592858-.4472729-.7746993-.1818413-1.7653035.592858-2.2125764.7746993-.4472728 1.7653035-.1818413 2.2125764.5928581.4472728.7746993.1818412 1.7653035-.5928581 2.2125763zm-7.2547958-.2875868c-.3162696.3162697-.8290441.3162697-1.1453138 0-.3162696-.3162697-.3162696-.8290441 0-1.1453138l7.5586855-7.55868545c.3162697-.31626968.8290441-.31626968 1.1453138 0 .3162697.31626967.3162697.82904412 0 1.1453138z"/><path d="m26.9953052 22.4061033c-6.1127291 0-11.0680752-4.955346-11.0680752-11.0680751 0-6.11272913 4.9553461-11.06807515 11.0680752-11.06807515s11.0680751 4.95534602 11.0680751 11.06807515c0 6.1127291-4.955346 11.0680751-11.0680751 11.0680751zm0-1.6197183c5.2181833 0 9.4483568-4.2301735 9.4483568-9.4483568 0-5.21818341-4.2301735-9.44835684-9.4483568-9.44835684-5.2181834 0-9.4483568 4.23017343-9.4483568 9.44835684 0 5.2181833 4.2301734 9.4483568 9.4483568 9.4483568z"/></g></g></svg>