<svg height="100" viewBox="0 0 100 100" width="100" xmlns="http://www.w3.org/2000/svg" xmlns:xlink="http://www.w3.org/1999/xlink"><defs><circle id="a" cx="35" cy="35" r="35"/><filter id="b" height="174.3%" width="174.3%" x="-37.1%" y="-31.4%"><feOffset dx="0" dy="4" in="SourceAlpha" result="shadowOffsetOuter1"/><feGaussianBlur in="shadowOffsetOuter1" result="shadowBlurOuter1" stdDeviation="8"/><feColorMatrix in="shadowBlurOuter1" type="matrix" values="0 0 0 0 0.254901961   0 0 0 0 0.458823529   0 0 0 0 0.647058824  0 0 0 0.24 0"/></filter><linearGradient id="c" x1="0%" x2="149.460671%" y1="0%" y2="71.875%"><stop offset="0" stop-color="#00eaf8"/><stop offset="1" stop-color="#6d42ef"/></linearGradient></defs><g fill="none" fill-rule="evenodd" transform="translate(15 15)"><g fill-rule="nonzero"><use fill="#000" filter="url(#b)" xlink:href="#a"/><use fill="#fff" fill-rule="evenodd" xlink:href="#a"/></g><path d="m51.3125 41.8125h-16.59375c-.4659903 0-.84375-.3777597-.84375-.84375s.3777597-.84375.84375-.84375h16.59375v-2.25h-16.59375c-.4659903 0-.84375-.3777597-.84375-.84375s.3777597-.84375.84375-.84375h16.59375v-2.25h-16.59375c-.4659903 0-.84375-.3777597-.84375-.84375s.3777597-.84375.84375-.84375h16.59375v-3.9375h-27.28125c-.4659903 0-.84375-.3777597-.84375-.84375s.3777597-.84375.84375-.84375h27.28125v-3.9375h-32.625v29.8125h32.625zm-33.5031645-20.8125h34.381329c.4461739 0 .8093355.3630221.8093355.809196v31.5689685c0 .4461739-.3631616.8093355-.8093355.8093355h-34.381329c-.4463134 0-.8093355-.3631616-.8093355-.8093355v-31.5689685c0-.4461739.3630221-.809196.8093355-.809196zm6.5031645 3.6568322c0 .2210896-.0895438.4383949-.2456266.5960249-.1598684.1574845-.3776855.2471429-.598997.2471429-.2210203 0-.438255-.089804-.596085-.2462696-.157102-.1585033-.2467914-.3756631-.2467914-.5968982 0-.2216718.0895438-.4394137.2457722-.5973348.158558-.1574845.3757927-.2469974.5971042-.2469974.2217483 0 .4395654.0895129.5978322.2455419.1572476.1593766.2467914.3772641.2467914.5987903zm2.0029423.5956174c-.1562661.1571356-.373933.2475504-.5969833.2475504-.2227593 0-.4402807-.0904148-.5965468-.2479865-.1568482-.1565542-.2469122-.3741601-.2469122-.5964176 0-.22124.090064-.4384099.2470577-.5959816.1555387-.1568449.37306-.2471143.5964013-.2471143.2229048 0 .4404262.090124.5971288.2472597.1568482.1574263.2469122.3745962.2469122.5958362 0 .2222575-.090064.4398634-.2470577.5968537zm1.6524347.2475504c-.2204313 0-.4376617-.0896584-.5959648-.2459785-.1572847-.1587944-.2469122-.3763908-.2469122-.5983537 0-.220944.089482-.4382493.2456027-.5961704.1591761-.1574845.3764065-.2469974.5972743-.2469974.2218863 0 .4395532.0895129.5971288.245833.1575757.1583577.2474942.3758086.2474942.5973348 0 .2225451-.090064.4404326-.2470577.5976259-.1584486.1569023-.3761155.2467063-.5975653.2467063z" fill="url(#c)"/></g></svg>