<svg height="86" viewBox="0 0 86 86" width="86" xmlns="http://www.w3.org/2000/svg" xmlns:xlink="http://www.w3.org/1999/xlink"><linearGradient id="a" x1="0%" x2="149.460671%" y1="0%" y2="71.875%"><stop offset="0" stop-color="#00eaf8"/><stop offset="1" stop-color="#6d42ef"/></linearGradient><g fill="none" fill-rule="evenodd"><circle cx="43" cy="43" fill="#fff" r="43"/><path d="m33.2093793 31.5937241c2.9771035-3.3551379 4.7906207-7.7657586 4.7906207-12.5937241 0-5.0232069-1.9628966-9.59368966-5.1575172-12.99468966v-.00065517c-.0026207-.00393103-.0065518-.00524138-.0085173-.00851724-3.3276207-3.53727586-7.9898276-5.80155172-13.1755172-5.97910345l-.0006552-.00065517-.3701724-.00982759c-.0956552-.00327586-.1913104-.00655172-.2876207-.00655172s-.1919655.00327586-.2876207.00655172l-.3688621.00982759-.0006551.00065517c-5.1856897.17755173-9.84789658 2.44182759-13.17551727 5.97910345-.00262069.00327586-.00655173.00458621-.00851724.00851724 0 0 0 .00065517-.00065518.00131035-3.19527586 3.40034482-5.15817241 7.97082758-5.15817241 12.99403448 0 4.8279655 1.81351724 9.2385862 4.79062069 12.5937241.00393103.0058966.00393103.0124483.00851724.0183449.0117931.0163793.02882759.0242413.04127586.0393103 3.34531035 3.7397241 8.14510341 6.1487931 13.50179311 6.3322414l.0006552.0006552.368862.0098275c.0963104.0026207.1919656.0058966.2882759.0058966s.1919655-.0032759.2876207-.0065517l.3688621-.0098276.0006551-.0006552c5.3625862-.1841034 10.1676207-2.5977586 13.5129311-6.3453448.0085172-.0111379.0222758-.0144138.0301379-.0262069.0052414-.0052414.0052414-.0117931.0091724-.0176897zm-31.88265516-11.9385517h7.86403448c.07403448 2.7772759.61651724 5.475931 1.58224138 8.0042414-1.86331034.6741724-3.64472414 1.5783103-5.31410345 2.7065172-2.45493103-2.9201034-3.9827931-6.6421379-4.13217241-10.7107586zm4.48989655-12.43320688c1.63006897 1.06006896 3.36562069 1.90917241 5.17586211 2.54337931-1.10855177 2.69079307-1.72179314 5.59189657-1.80172418 8.57948277h-7.86403448c.1565862-4.2632069 1.82596552-8.1451035 4.48989655-11.12286208zm30.85665521 11.12286208h-7.8640345c-.0799311-2.9875862-.6931724-5.8886897-1.8017242-8.57948277 1.8102414-.6342069 3.5457931-1.48331035 5.1758621-2.54337931 2.663931 2.97775858 4.3333104 6.85965518 4.4898966 11.12286208zm-18.3284483-8.54148277c-1.8941035-.05372414-3.7534828-.33610345-5.5499655-.84058621 1.3280345-2.7242069 3.2031379-5.18306896 5.5499655-7.23048276zm0 1.31034487v7.2311379h-7.8437242c.0805863-2.8486897.6781035-5.6115517 1.7466897-8.1732759 1.9694483.5706552 4.0142414.8864483 6.0970345.942138zm1.3103448 0c2.0827931-.0556897 4.1275862-.3708276 6.0976897-.942138 1.0685862 2.5617242 1.6661034 5.3245862 1.7466896 8.1732759h-7.8443793zm0-1.31034487v-8.07106897c2.3468276 2.0474138 4.221931 4.50627586 5.5499655 7.23048276-1.7964827.50448276-3.655862.78686207-5.5499655.84058621zm6.8196897-1.23893104c-1.2585862-2.63706896-3.0052759-5.0395862-5.168-7.0987931 3.8366896.50186207 7.2887931 2.23675862 9.9474827 4.79455172-1.5095172.95786207-3.1107586 1.72834483-4.7794827 2.30424138zm-14.9497242 0c-1.66872411-.57589655-3.26996549-1.34637931-4.77882756-2.30424138 2.65803449-2.5577931 6.11079306-4.29268965 9.94748276-4.79455172-2.1633793 2.0592069-3.910069 4.46172414-5.1686552 7.0987931zm-1.0240345 11.09075861h7.8437242v6.5766207c-2.1666552.0576552-4.2894138.3957241-6.3296207 1.0096207-.9218276-2.3946552-1.440069-4.9531035-1.5141035-7.5862414zm7.8437242 7.8869655v8.7255862c-2.511931-2.1915517-4.4813793-4.8541724-5.8205517-7.8076896 1.8783793-.5536207 3.8294827-.8615517 5.8205517-.9178966zm1.3103448 8.7255862v-8.7255862c1.991069.0556897 3.9421724.3642759 5.8205517.9172414-1.3391724 2.9541724-3.3086207 5.6167931-5.8205517 7.8083448zm0-10.035931v-6.5766207h7.8437242c-.0740345 2.6331379-.5922759 5.1915862-1.5147587 7.5868966-2.0395517-.6145518-4.1623103-.9526207-6.3289655-1.0102759zm9.154069-6.5766207h7.8640345c-.1493793 4.0686207-1.6765862 7.7906552-4.1321725 10.7107586-1.6693793-1.1282069-3.4507931-2.0323448-5.3141034-2.7065172.9663793-2.5283104 1.5082069-5.2269655 1.5822414-8.0042414zm-22.45996554 11.6922069c1.55013793-1.029931 3.20051724-1.858069 4.92493104-2.4772069 1.2743103 2.8565517 3.1035517 5.4595517 5.418931 7.6642069-4.0299655-.5274138-7.63668962-2.4143103-10.34386204-5.187zm14.95758624 5.187c2.3153793-2.204 4.1446207-4.807 5.418931-7.6642069 1.7244138.6191379 3.3741379 1.4472759 4.924931 2.4772069-2.7071724 2.7726897-6.3138965 4.6595862-10.343862 5.187z" fill="url(#a)" fill-rule="nonzero" stroke="url(#a)" stroke-width=".5" transform="translate(24 24)"/></g></svg>