<svg enable-background="new 0 0 400 67" viewBox="0 0 400 67" xmlns="http://www.w3.org/2000/svg"><g clip-rule="evenodd" fill-rule="evenodd"><g fill="#cdd9e4"><path d="m201.2 27.3v13.6c-1.4 1.2-4.8 3.5-7.4 2.4-3.5-1.5-3-13.7-.3-16.2 1.8-1.7 5.8-1.5 7.7.2zm0-8.5c-1-.3-2-.7-3.3-1-3.5-.7-7.9-.1-10.8 1.6-7.9 4.8-7.6 19.5-5.1 26 2.7 7.1 9.8 8.2 15.9 5.6 1.8-.8 3.8-2.2 4.6-2.5.3 1.8.4 3.1 2.6 3.1h7l-.1-48.9h-10.7c-.4 4 .2 12.1-.1 16.1z"/><path d="m353.1 41c-1.5 1-4.5 3.4-7.3 2.4-2.4-.8-2.5-4.8-2.5-7.7 0-3.1.3-6.4 2.1-8.1 2.2-1.9 5.7-.8 7.7.4zm-20.6-5c0 8.6 2.5 16.2 11.4 16.2 6 0 8.4-2.9 10.6-3.8.4 1.8.4 3.1 2.5 3.1h7l-.1-48.9h-10.8v16.9c-2.2-.7-3.5-1.3-6.3-1.3-11.4.1-14.3 7.3-14.3 17.8z"/><path d="m231.2 42.6v-13.7c1.3-1.1 4.8-3.5 7.4-2.3 2.1 1 2.3 5.1 2.4 7.8.1 3 0 6.8-1.8 8.4-1.9 1.8-6.1 1.2-8-.2zm-10.8 23.2 10.8.1v-14.8c2.5.4 3.6 1.7 8.7 1.1 10-1.2 12.3-9.9 12-18.7-.4-10.7-4.2-17.4-14.7-15.6-3.7.6-4.7 1.9-7.2 3.1-1-1.6.3-3.2-3.1-3.2-1.6 0-5-.2-6.4.1z"/><path d="m305.2 29.2c1.4-1.2 4.3-2.9 6.8-2.6 3.1.3 2.8 3.5 2.8 6.5v18.6h10.8c0-4.9 0-9.8 0-14.7 0-4.1.4-10.3-.9-13.8-1.4-3.7-4.4-5.3-9.4-5.3-7.7 0-9.1 2.3-11.6 3.1-.6-4.1-1.5-3.2-9.3-3.2-.3 1.3-.1 31.7-.1 33.9l10.8-.1z"/><path d="m157.4 25.8c5.7-1 6.6 2.3 6.8 7.2.1 2.1.1 4.9-.3 6.9-.4 2.2-1.2 3.6-3.2 3.9-6 1.1-6.8-2.2-7-7.3-.1-2.3-.1-4.7.3-6.9s1.2-3.4 3.4-3.8zm17.5 12c.5-4.8.2-10.7-1.9-14.6-2-3.7-5.7-5.3-11.1-5.6-12-.7-18.3 2.4-19 14.2-.7 10.7 1.3 19.4 13.3 20.3 11.7 1 17.6-3.4 18.7-14.3z"/><path d="m126.3 37.8c-.1 2-.4 4.3-1.8 5.4-1.3 1-4.5 1.1-6.1.4-3-1.3-2.7-8.3-2.4-11.9.2-2.1.5-4.2 1.9-5.2 1.2-.9 4.5-.9 6-.2 1.6.7 2.1 2.5 2.4 4.8.1 2 .1 4.6 0 6.7zm-21.4-2.3c0 10.8 4.2 16.7 15.5 16.7s16.7-5.3 16.7-17.1c0-11.5-2.1-17.6-15.1-17.6-3 0-5.5 0-8.5.9-7.4 2.4-8.6 9.3-8.6 17.1z"/><path d="m275.1 41.7c-1.5 1.4-5 3.4-7.5 2.5-2-.7-2.2-4.8 1.4-6.1 1.4-.5 4.6-.8 6.1-.5zm-14.5-14.7c3.2-.4 5.8-1.2 9.3-1.2 4.5 0 5.2.9 5.2 5.2-5.1 0-9.5 0-13.6 2.2-3.4 1.8-5.4 5.5-4.7 10.9.6 4.5 3.2 7.4 7.6 8.1 2.4.4 4.7.1 6.8-.6 2.6-.9 4.4-2.4 5.2-2.6.9 1.6-.4 2.8 3.5 2.8 1.5 0 4.8.2 6-.1 0-5.2 0-10.3 0-15.5 0-4.3.5-10.7-1.3-14-3.8-6.6-18.6-4.4-25-2.9z"/><path d="m389.1 41.8c-1.2.8-2.8 2-4.5 2.4-2.1.5-4.2.2-4.3-2.1-.4-4.5 4.8-5 8.9-4.7zm-14.4-14.9c1.5 0 5.2-1.1 9.2-1.1 4.5 0 5.2.8 5.2 5.1-2.6.3-5 0-7.7.4-6.7 1-11.7 4.3-10.7 12.6 1.1 9 10.2 10.1 17.3 6.3.6-.3 1.9-1.2 2.4-1.3.5 2.5.6 2.8 3.4 2.8 1.9 0 4.2.1 6.1 0 0-5.2 0-10.4 0-15.6 0-11.5 1.5-17.9-12.4-18.4-2.8-.1-11.9.5-13.9 1.7z"/><path d="m83.5 18.8-4.8.1v8h4.9v24.7h10.8v-24.7c2.2-.2 5.2-.1 6.7-1.5 1.5-1.3 1.7-4.1 1.6-6.6h-8.3c-.8-11.1 3.7-8.8 9.7-8.5l.9-7.8c-4.9-1.4-13-1.2-16.8 1.3-1.9 1.3-3.2 3.1-3.9 5.9-1 3.2-.6 5.8-.8 9.1z"/><path d="m24.5 11c16.5-2.2 23.7 8.3 27.9 20.7 1.2 3.6 2 6.3.7 10.4-1 3.3-2.9 5.8-4.7 7.7-3.9 4.1-10.1 7.3-16.1 8.3-7.1 1.2-14.8-1.2-19.4-4.5-1.1-.8-2.6-1.8-3.5-2.7-.6-.6-.9-1-1.5-1.5-2.2-2.1-4.7-6.8-4.9-10.6-.4-5.9 4.1-14.4 6.5-18.2 2.9-4.6 7.5-8.6 15-9.6zm-21.7 3.3c0 2.6 1.1 4.9 3.3 5.4l-1.9 3.8c-1.4 2.9-4.2 10.3-4.2 13.5 0 4.5.8 7.8 3.3 11.4 4.8 6.9 14.1 12.4 22.4 12.8 1.3.1 1.7.4 3.1.3l5.6-.8c1.7-.3 3.5-.9 4.9-1.5 4.4-1.8 9.3-4.8 12.3-8.6 6-7.6 6.5-12.9 2.8-22.2-.6-1.6-1.1-2.9-1.8-4.4-.4-.8-.6-1.3-1-2.1s-.9-1-.9-2.1c3.7-1 4.7-7 .8-10.9-2.7-2.7-6.7-3.9-9.6-1.5-1 .9-1.2 1.7-1.7 2.9-6.5-3.4-17.1-3.5-23.6 0-.5-4.6-7.8-5.8-11.4-1.5-1.3 1.6-2.4 3.3-2.4 5.5z"/><path d="m17.1 22.2c-3.7.9-6.9 4.8-7.5 8.9-.8 5.2 2.1 10.2 7.6 8.9 2.2-.5 2.1-1.5 3.8-4.4 1-1.7 2-3.4 3-5.2.7-1.3.9-1.4.5-3.2-.8-3.6-3.6-5.9-7.4-5z"/><path d="m36.4 22.3c-2.9.9-5.5 4.9-3.7 7.7l4.5 7.8c.7 1.3.6 1.6 2.1 2 6.4 1.9 9.8-5 7.1-11.4-1.4-3.1-5.2-7.6-10-6.1z"/></g><path d="m29.2 41.7v3.5c1.9.8 3.5 1.7 6.1.5 2.3-1.1 2.2-2 3.1-4.5 1.6.6 1.3 3.7 1 5.2-2.4 11.6-19.1 11.8-22 .7-.4-1.6-.7-4.8.6-5.7 1 .9.2 1.3 1.2 2.6 2.3 3.1 5.4 2.7 8.2 1.2v-3.4c-1.4-.3-3.4-2.2-3.6-3.8-.3-2.3 2.3-3.2 4.4-3.2 7 0 5 6 1 6.9zm7.2-19.4c4.8-1.5 8.6 3 10 6.1 2.7 6.5-.7 13.3-7.1 11.4-1.5-.4-1.4-.8-2.1-2l-4.6-7.8c-1.8-2.8.8-6.8 3.8-7.7zm-19.3-.1c3.8-.9 6.6 1.5 7.4 5 .4 1.8.2 1.9-.5 3.2-1 1.8-2 3.5-3 5.2-1.8 3-1.6 3.9-3.8 4.4-5.5 1.4-8.4-3.7-7.6-8.9.6-4.2 3.8-8 7.5-8.9zm7.4-11.2c-7.5 1-12.1 5-15 9.6-2.4 3.7-6.9 12.2-6.5 18.2.2 3.9 2.7 8.5 4.9 10.4.7.6 1 .9 1.5 1.5.8 1 2.3 1.9 3.5 2.7 4.7 3.3 12.3 5.7 19.4 4.5 6-1 12.2-4.1 16.1-8.3 1.8-1.9 3.6-4.4 4.7-7.7 1.3-4 .5-6.7-.7-10.4-4.1-12.2-11.3-22.7-27.9-20.5z" fill="#fff"/><path d="m29.2 41.7c4-.9 6-7-.9-7-2.1 0-4.7.9-4.4 3.2.2 1.7 2.1 3.5 3.6 3.8v3.4c-2.8 1.5-5.9 1.9-8.2-1.2-1-1.4-.2-1.8-1.2-2.6-1.3.9-1 4.1-.6 5.7 2.8 11.1 19.6 11 22-.6.3-1.4.6-4.5-1-5.2-.8 2.4-.8 3.4-3.1 4.5-2.6 1.2-4.2.3-6.1-.5z" fill="#cdd9e4"/><path d="m22.9 49.1c1.8.7 3.6.5 5.4-1.2 1.2 1.5 2.9 2 5.4 1.1-2.2 4.5-8.4 4.6-10.8.1z" fill="#fff"/><path d="m17.3 26.9c2 0 3.6 1.6 3.6 3.6s-1.6 3.6-3.6 3.6-3.6-1.6-3.6-3.6c.1-2 1.7-3.6 3.6-3.6z" fill="#fff"/><path d="m17.3 28.7c1 0 1.8.8 1.8 1.8s-.8 1.8-1.8 1.8-1.8-.8-1.8-1.8c.1-1.1.8-1.8 1.8-1.8z" fill="#cdd9e4"/><path d="m39.4 26.9c-2 0-3.6 1.6-3.6 3.6s1.6 3.6 3.6 3.6 3.6-1.6 3.6-3.6-1.6-3.6-3.6-3.6z" fill="#fff"/><path d="m39.4 28.7c-1 0-1.8.8-1.8 1.8s.8 1.8 1.8 1.8 1.8-.8 1.8-1.8c0-1.1-.8-1.8-1.8-1.8z" fill="#cdd9e4"/></g></svg>