<?xml version="1.0" encoding="utf-8"?>
<!-- Generator: Adobe Illustrator 21.0.0, SVG Export Plug-In . SVG Version: 6.00 Build 0)  -->
<svg version="1.1" id="Layer_1" xmlns="http://www.w3.org/2000/svg" xmlns:xlink="http://www.w3.org/1999/xlink" x="0px" y="0px"
	 viewBox="0 0 400 67" style="enable-background:new 0 0 400 67;" xml:space="preserve">
<style type="text/css">
	.st0{fill-rule:evenodd;clip-rule:evenodd;fill:#CDD9E4;}
	.st1{fill-rule:evenodd;clip-rule:evenodd;fill:#FFFFFF;}
</style>
<g>
	<path class="st0" d="M201.2,27.3l0,13.6c-1.4,1.2-4.8,3.5-7.4,2.4c-3.5-1.5-3-13.7-0.3-16.2C195.3,25.4,199.3,25.6,201.2,27.3
		L201.2,27.3z M201.2,18.8c-1-0.3-2-0.7-3.3-1c-3.5-0.7-7.9-0.1-10.8,1.6c-7.9,4.8-7.6,19.5-5.1,26c2.7,7.1,9.8,8.2,15.9,5.6
		c1.8-0.8,3.8-2.2,4.6-2.5c0.3,1.8,0.4,3.1,2.6,3.1l7,0L212,2.7l-10.7,0C200.9,6.7,201.5,14.8,201.2,18.8L201.2,18.8z"/>
	<path class="st0" d="M353.1,41c-1.5,1-4.5,3.4-7.3,2.4c-2.4-0.8-2.5-4.8-2.5-7.7c0-3.1,0.3-6.4,2.1-8.1c2.2-1.9,5.7-0.8,7.7,0.4
		L353.1,41L353.1,41z M332.5,36c0,8.6,2.5,16.2,11.4,16.2c6,0,8.4-2.9,10.6-3.8c0.4,1.8,0.4,3.1,2.5,3.1l7,0l-0.1-48.9h-10.8l0,16.9
		c-2.2-0.7-3.5-1.3-6.3-1.3C335.4,18.3,332.5,25.5,332.5,36L332.5,36z"/>
	<path class="st0" d="M231.2,42.6l0-13.7c1.3-1.1,4.8-3.5,7.4-2.3c2.1,1,2.3,5.1,2.4,7.8c0.1,3,0,6.8-1.8,8.4
		C237.3,44.6,233.1,44,231.2,42.6L231.2,42.6z M220.4,65.8l10.8,0.1l0-14.8c2.5,0.4,3.6,1.7,8.7,1.1c10-1.2,12.3-9.9,12-18.7
		c-0.4-10.7-4.2-17.4-14.7-15.6c-3.7,0.6-4.7,1.9-7.2,3.1c-1-1.6,0.3-3.2-3.1-3.2c-1.6,0-5-0.2-6.4,0.1L220.4,65.8L220.4,65.8z"/>
	<path class="st0" d="M305.2,29.2c1.4-1.2,4.3-2.9,6.8-2.6c3.1,0.3,2.8,3.5,2.8,6.5c0,6.2,0,12.4,0,18.6l10.8,0c0-4.9,0-9.8,0-14.7
		c0-4.1,0.4-10.3-0.9-13.8c-1.4-3.7-4.4-5.3-9.4-5.3c-7.7,0-9.1,2.3-11.6,3.1c-0.6-4.1-1.5-3.2-9.3-3.2c-0.3,1.3-0.1,31.7-0.1,33.9
		l10.8-0.1L305.2,29.2L305.2,29.2z"/>
	<path class="st0" d="M157.4,25.8c5.7-1,6.6,2.3,6.8,7.2c0.1,2.1,0.1,4.9-0.3,6.9c-0.4,2.2-1.2,3.6-3.2,3.9c-6,1.1-6.8-2.2-7-7.3
		c-0.1-2.3-0.1-4.7,0.3-6.9C154.4,27.4,155.2,26.2,157.4,25.8L157.4,25.8z M174.9,37.8c0.5-4.8,0.2-10.7-1.9-14.6
		c-2-3.7-5.7-5.3-11.1-5.6c-12-0.7-18.3,2.4-19,14.2c-0.7,10.7,1.3,19.4,13.3,20.3C167.9,53.1,173.8,48.7,174.9,37.8L174.9,37.8z"/>
	<path class="st0" d="M126.3,37.8c-0.1,2-0.4,4.3-1.8,5.4c-1.3,1-4.5,1.1-6.1,0.4c-3-1.3-2.7-8.3-2.4-11.9c0.2-2.1,0.5-4.2,1.9-5.2
		c1.2-0.9,4.5-0.9,6-0.2c1.6,0.7,2.1,2.5,2.4,4.8C126.4,33.1,126.4,35.7,126.3,37.8L126.3,37.8z M104.9,35.5
		c0,10.8,4.2,16.7,15.5,16.7c11.3,0,16.7-5.3,16.7-17.1c0-11.5-2.1-17.6-15.1-17.6c-3,0-5.5,0-8.5,0.9
		C106.1,20.8,104.9,27.7,104.9,35.5L104.9,35.5z"/>
	<path class="st0" d="M275.1,41.7c-1.5,1.4-5,3.4-7.5,2.5c-2-0.7-2.2-4.8,1.4-6.1c1.4-0.5,4.6-0.8,6.1-0.5L275.1,41.7L275.1,41.7z
		 M260.6,27c3.2-0.4,5.8-1.2,9.3-1.2c4.5,0,5.2,0.9,5.2,5.2c-5.1,0-9.5,0-13.6,2.2c-3.4,1.8-5.4,5.5-4.7,10.9
		c0.6,4.5,3.2,7.4,7.6,8.1c2.4,0.4,4.7,0.1,6.8-0.6c2.6-0.9,4.4-2.4,5.2-2.6c0.9,1.6-0.4,2.8,3.5,2.8c1.5,0,4.8,0.2,6-0.1
		c0-5.2,0-10.3,0-15.5c0-4.3,0.5-10.7-1.3-14c-3.8-6.6-18.6-4.4-25-2.9L260.6,27L260.6,27z"/>
	<path class="st0" d="M389.1,41.8c-1.2,0.8-2.8,2-4.5,2.4c-2.1,0.5-4.2,0.2-4.3-2.1c-0.4-4.5,4.8-5,8.9-4.7L389.1,41.8L389.1,41.8z
		 M374.7,26.9c1.5,0,5.2-1.1,9.2-1.1c4.5,0,5.2,0.8,5.2,5.1c-2.6,0.3-5,0-7.7,0.4c-6.7,1-11.7,4.3-10.7,12.6
		c1.1,9,10.2,10.1,17.3,6.3c0.6-0.3,1.9-1.2,2.4-1.3c0.5,2.5,0.6,2.8,3.4,2.8c1.9,0,4.2,0.1,6.1,0c0-5.2,0-10.4,0-15.6
		c0-11.5,1.5-17.9-12.4-18.4c-2.8-0.1-11.9,0.5-13.9,1.7L374.7,26.9L374.7,26.9z"/>
	<path class="st0" d="M83.5,18.8l-4.8,0.1l0,8l4.9,0l0,24.7h10.8l0-24.7c2.2-0.2,5.2-0.1,6.7-1.5c1.5-1.3,1.7-4.1,1.6-6.6l-8.3,0
		c-0.8-11.1,3.7-8.8,9.7-8.5l0.9-7.8c-4.9-1.4-13-1.2-16.8,1.3c-1.9,1.3-3.2,3.1-3.9,5.9C83.3,12.9,83.7,15.5,83.5,18.8L83.5,18.8z"
		/>
	<path class="st0" d="M24.5,11c16.5-2.2,23.7,8.3,27.9,20.7c1.2,3.6,2,6.3,0.7,10.4c-1,3.3-2.9,5.8-4.7,7.7
		c-3.9,4.1-10.1,7.3-16.1,8.3c-7.1,1.2-14.8-1.2-19.4-4.5c-1.1-0.8-2.6-1.8-3.5-2.7c-0.6-0.6-0.9-1-1.5-1.5
		C5.7,47.3,3.2,42.6,3,38.8c-0.4-5.9,4.1-14.4,6.5-18.2C12.4,16,17,12,24.5,11L24.5,11z M2.8,14.3c0,2.6,1.1,4.9,3.3,5.4l-1.9,3.8
		C2.8,26.4,0,33.8,0,37c0,4.5,0.8,7.8,3.3,11.4c4.8,6.9,14.1,12.4,22.4,12.8c1.3,0.1,1.7,0.4,3.1,0.3l5.6-0.8
		c1.7-0.3,3.5-0.9,4.9-1.5c4.4-1.8,9.3-4.8,12.3-8.6c6-7.6,6.5-12.9,2.8-22.2c-0.6-1.6-1.1-2.9-1.8-4.4c-0.4-0.8-0.6-1.3-1-2.1
		c-0.4-0.8-0.9-1-0.9-2.1c3.7-1,4.7-7,0.8-10.9c-2.7-2.7-6.7-3.9-9.6-1.5c-1,0.9-1.2,1.7-1.7,2.9c-6.5-3.4-17.1-3.5-23.6,0
		C16.1,5.7,8.8,4.5,5.2,8.8C3.9,10.4,2.8,12.1,2.8,14.3L2.8,14.3z"/>
	<path class="st0" d="M17.1,22.2c-3.7,0.9-6.9,4.8-7.5,8.9c-0.8,5.2,2.1,10.2,7.6,8.9c2.2-0.5,2.1-1.5,3.8-4.4c1-1.7,2-3.4,3-5.2
		c0.7-1.3,0.9-1.4,0.5-3.2C23.7,23.6,20.9,21.3,17.1,22.2L17.1,22.2z"/>
	<path class="st0" d="M36.4,22.3c-2.9,0.9-5.5,4.9-3.7,7.7l4.5,7.8c0.7,1.3,0.6,1.6,2.1,2c6.4,1.9,9.8-5,7.1-11.4
		C45,25.3,41.2,20.8,36.4,22.3L36.4,22.3z"/>
	<path class="st1" d="M29.2,41.7l0,3.5c1.9,0.8,3.5,1.7,6.1,0.5c2.3-1.1,2.2-2,3.1-4.5c1.6,0.6,1.3,3.7,1,5.2
		C37,58,20.3,58.2,17.4,47.1c-0.4-1.6-0.7-4.8,0.6-5.7c1,0.9,0.2,1.3,1.2,2.6c2.3,3.1,5.4,2.7,8.2,1.2l0-3.4
		C26,41.5,24,39.6,23.8,38c-0.3-2.3,2.3-3.2,4.4-3.2C35.2,34.8,33.2,40.8,29.2,41.7L29.2,41.7z M36.4,22.3c4.8-1.5,8.6,3,10,6.1
		c2.7,6.5-0.7,13.3-7.1,11.4c-1.5-0.4-1.4-0.8-2.1-2L32.6,30C30.8,27.2,33.4,23.2,36.4,22.3L36.4,22.3z M17.1,22.2
		c3.8-0.9,6.6,1.5,7.4,5c0.4,1.8,0.2,1.9-0.5,3.2c-1,1.8-2,3.5-3,5.2c-1.8,3-1.6,3.9-3.8,4.4c-5.5,1.4-8.4-3.7-7.6-8.9
		C10.2,26.9,13.4,23.1,17.1,22.2L17.1,22.2z M24.5,11c-7.5,1-12.1,5-15,9.6C7.1,24.3,2.6,32.8,3,38.8c0.2,3.9,2.7,8.5,4.9,10.4
		c0.7,0.6,1,0.9,1.5,1.5c0.8,1,2.3,1.9,3.5,2.7c4.7,3.3,12.3,5.7,19.4,4.5c6-1,12.2-4.1,16.1-8.3c1.8-1.9,3.6-4.4,4.7-7.7
		c1.3-4,0.5-6.7-0.7-10.4C48.3,19.3,41.1,8.8,24.5,11L24.5,11z"/>
	<path class="st0" d="M29.2,41.7c4-0.9,6-7-0.9-7c-2.1,0-4.7,0.9-4.4,3.2c0.2,1.7,2.1,3.5,3.6,3.8l0,3.4c-2.8,1.5-5.9,1.9-8.2-1.2
		c-1-1.4-0.2-1.8-1.2-2.6c-1.3,0.9-1,4.1-0.6,5.7c2.8,11.1,19.6,11,22-0.6c0.3-1.4,0.6-4.5-1-5.2c-0.8,2.4-0.8,3.4-3.1,4.5
		c-2.6,1.2-4.2,0.3-6.1-0.5L29.2,41.7L29.2,41.7z"/>
	<path class="st1" d="M22.9,49.1c1.8,0.7,3.6,0.5,5.4-1.2c1.2,1.5,2.9,2,5.4,1.1C31.5,53.5,25.3,53.6,22.9,49.1L22.9,49.1z"/>
	<path class="st1" d="M17.3,26.9c2,0,3.6,1.6,3.6,3.6c0,2-1.6,3.6-3.6,3.6c-2,0-3.6-1.6-3.6-3.6C13.8,28.5,15.4,26.9,17.3,26.9
		L17.3,26.9z"/>
	<path class="st0" d="M17.3,28.7c1,0,1.8,0.8,1.8,1.8c0,1-0.8,1.8-1.8,1.8c-1,0-1.8-0.8-1.8-1.8C15.6,29.4,16.3,28.7,17.3,28.7
		L17.3,28.7z"/>
	<path class="st1" d="M39.4,26.9c-2,0-3.6,1.6-3.6,3.6c0,2,1.6,3.6,3.6,3.6c2,0,3.6-1.6,3.6-3.6C43,28.5,41.4,26.9,39.4,26.9
		L39.4,26.9z"/>
	<path class="st0" d="M39.4,28.7c-1,0-1.8,0.8-1.8,1.8c0,1,0.8,1.8,1.8,1.8c1,0,1.8-0.8,1.8-1.8C41.2,29.4,40.4,28.7,39.4,28.7
		L39.4,28.7z"/>
</g>
</svg>
