<?xml version="1.0" encoding="utf-8"?>
<!-- Generator: Adobe Illustrator 21.0.0, SVG Export Plug-In . SVG Version: 6.00 Build 0)  -->
<svg version="1.1" id="Layer_1" xmlns="http://www.w3.org/2000/svg" xmlns:xlink="http://www.w3.org/1999/xlink" x="0px" y="0px"
	 viewBox="0 0 400 172" style="enable-background:new 0 0 400 172;" xml:space="preserve">
<style type="text/css">
	.st0{fill-rule:evenodd;clip-rule:evenodd;fill:#CDD9E4;}
	.st1{fill-rule:evenodd;clip-rule:evenodd;fill:#FFFFFF;}
	.st2{fill:#CDD9E4;}
</style>
<g>
	<path class="st0" d="M228.1,433.3l0,12.9c-1.3,1.2-4.6,3.3-7,2.3c-3.3-1.4-2.8-13-0.3-15.4C222.5,431.5,226.3,431.8,228.1,433.3
		L228.1,433.3z M228.1,425.3c-1-0.2-1.9-0.7-3.1-0.9c-3.3-0.7-7.5-0.1-10.2,1.5c-7.5,4.6-7.2,18.5-4.8,24.6c2.6,6.7,9.2,7.8,15,5.3
		c1.7-0.7,3.6-2.1,4.4-2.4c0.3,1.7,0.4,2.9,2.4,2.9l6.6,0l0-46.3l-10.2,0C227.8,413.8,228.4,421.5,228.1,425.3L228.1,425.3z"/>
	<path class="st0" d="M372,446.3c-1.4,1-4.2,3.2-6.9,2.3c-2.2-0.8-2.3-4.5-2.4-7.3c0-3,0.2-6.1,2-7.6c2.1-1.8,5.4-0.7,7.3,0.3
		L372,446.3L372,446.3z M352.4,441.6c0,8.2,2.4,15.4,10.8,15.4c5.6,0,7.9-2.7,10-3.6c0.4,1.7,0.4,3,2.4,3l6.6,0l-0.1-46.3H372l0,16
		c-2.1-0.7-3.3-1.2-5.9-1.2C355.3,424.8,352.4,431.7,352.4,441.6L352.4,441.6z"/>
	<path class="st0" d="M256.5,447.8l0-13c1.2-1.1,4.6-3.3,7-2.1c2,1,2.2,4.8,2.3,7.4c0.1,2.8,0,6.4-1.7,8
		C262.4,449.8,258.3,449.2,256.5,447.8L256.5,447.8z M246.3,469.8l10.2,0.1l0-14.1c2.4,0.4,3.4,1.6,8.2,1
		c9.5-1.1,11.6-9.4,11.3-17.7c-0.4-10.1-4-16.5-14-14.7c-3.5,0.6-4.4,1.8-6.8,2.9c-1-1.5,0.3-3-3-3c-1.5,0-4.7-0.2-6,0.1
		L246.3,469.8L246.3,469.8z"/>
	<path class="st0" d="M326.6,435.1c1.3-1.1,4.1-2.7,6.5-2.5c2.9,0.3,2.6,3.3,2.6,6.1c0,5.9,0,11.7,0,17.6l10.3,0c0-4.6,0-9.3,0-13.9
		c0-3.9,0.4-9.8-0.8-13c-1.3-3.5-4.1-5-8.9-5c-7.3,0-8.6,2.1-11,2.9c-0.6-3.9-1.4-3-8.9-3c-0.3,1.2-0.1,30.1-0.1,32.1l10.3-0.1
		L326.6,435.1L326.6,435.1z"/>
	<path class="st0" d="M186.6,432c5.4-1,6.2,2.2,6.4,6.8c0.1,2,0.1,4.6-0.3,6.5c-0.4,2-1.1,3.4-3.1,3.7c-5.7,1-6.5-2.1-6.6-6.9
		c-0.1-2.1-0.1-4.4,0.3-6.5C183.8,433.5,184.5,432.3,186.6,432L186.6,432z M203.2,443.3c0.5-4.6,0.2-10.1-1.8-13.8
		c-1.9-3.5-5.4-5-10.6-5.3c-11.4-0.7-17.3,2.3-18,13.5c-0.7,10.1,1.2,18.4,12.6,19.3C196.5,457.8,202.1,453.6,203.2,443.3
		L203.2,443.3z"/>
	<path class="st0" d="M157.2,443.3c-0.1,1.9-0.4,4.1-1.7,5.1c-1.2,0.9-4.3,1-5.8,0.4c-2.9-1.2-2.6-7.9-2.3-11.3c0.2-2,0.5-4,1.8-4.9
		c1.2-0.8,4.2-0.9,5.6-0.2c1.5,0.7,2,2.4,2.2,4.5C157.3,438.8,157.3,441.3,157.2,443.3L157.2,443.3z M136.9,441.1
		c0,10.2,4,15.9,14.7,15.9c10.7,0,15.8-5,15.8-16.2c0-10.9-2-16.7-14.3-16.7c-2.9,0-5.2,0-8,0.9C138,427.2,136.9,433.7,136.9,441.1
		L136.9,441.1z"/>
	<path class="st0" d="M298.1,447c-1.4,1.3-4.8,3.2-7.1,2.3c-1.9-0.7-2.1-4.6,1.3-5.8c1.3-0.5,4.4-0.8,5.8-0.5L298.1,447L298.1,447z
		 M284.4,433c3-0.4,5.5-1.1,8.8-1.1c4.2,0,4.9,0.8,4.9,4.9c-4.9,0-9,0-12.9,2c-3.2,1.7-5.1,5.2-4.5,10.3c0.6,4.2,3.1,7,7.2,7.7
		c2.3,0.4,4.5,0.1,6.5-0.6c2.5-0.9,4.2-2.2,4.9-2.5c0.9,1.5-0.4,2.6,3.3,2.6c1.4,0,4.6,0.2,5.7-0.1c0-4.9,0-9.8,0-14.7
		c0-4.1,0.5-10.1-1.3-13.2c-3.6-6.3-17.6-4.2-23.7-2.8L284.4,433L284.4,433z"/>
	<path class="st0" d="M406.1,447c-1.1,0.8-2.6,1.9-4.3,2.3c-2,0.5-3.9,0.1-4.1-2c-0.4-4.2,4.5-4.8,8.4-4.4L406.1,447L406.1,447z
		 M392.4,433c1.4,0,4.9-1.1,8.7-1.1c4.3,0,5,0.8,5,4.9c-2.4,0.2-4.8,0-7.3,0.4c-6.3,0.9-11.1,4-10.1,11.9c1.1,8.5,9.6,9.6,16.4,5.9
		c0.5-0.3,1.8-1.1,2.3-1.3c0.5,2.4,0.6,2.6,3.2,2.6c1.8,0,4,0.1,5.8,0c0-4.9,0-9.8,0-14.7c0-10.9,1.4-17-11.7-17.5
		c-2.6-0.1-11.3,0.5-13.2,1.6L392.4,433L392.4,433z"/>
	<path class="st0" d="M116.6,425.3l-4.6,0.1l0,7.6l4.6,0l0,23.4h10.2l0-23.4c2.1-0.2,4.9-0.1,6.4-1.4c1.4-1.2,1.6-3.9,1.5-6.2
		l-7.9,0c-0.8-10.5,3.6-8.4,9.2-8.1l0.8-7.4c-4.7-1.4-12.3-1.1-15.9,1.2c-1.8,1.2-3,3-3.7,5.6C116.5,419.7,116.8,422.1,116.6,425.3
		L116.6,425.3z"/>
	<path class="st0" d="M60.8,417.9c15.7-2.1,22.5,7.9,26.4,19.6c1.2,3.4,1.8,6,0.7,9.8c-1,3.1-2.7,5.5-4.4,7.3
		c-3.7,3.9-9.6,6.9-15.3,7.8c-6.8,1.1-14-1.2-18.4-4.3c-1.1-0.8-2.5-1.7-3.3-2.6c-0.5-0.6-0.8-0.9-1.5-1.5c-2-1.8-4.4-6.2-4.6-9.8
		c-0.4-5.6,3.9-13.7,6.2-17.3C49.3,422.6,53.6,418.8,60.8,417.9L60.8,417.9z M40.2,421.1c0,2.5,1.1,4.6,3.2,5.1l-1.8,3.6
		c-1.4,2.8-4.1,9.7-4.1,12.7c0,4.3,0.8,7.4,3.1,10.8c4.6,6.5,13.4,11.8,21.2,12.1c1.2,0.1,1.7,0.3,2.9,0.2l5.4-0.7
		c1.6-0.3,3.3-0.9,4.7-1.4c4.2-1.7,8.8-4.5,11.6-8.1c5.7-7.2,6.2-12.2,2.6-21.1c-0.6-1.5-1-2.7-1.7-4.1c-0.4-0.7-0.6-1.2-1-2
		c-0.4-0.8-0.8-1-0.9-2c3.5-0.9,4.4-6.7,0.8-10.3c-2.5-2.5-6.3-3.7-9.1-1.4c-1,0.8-1.1,1.6-1.7,2.7c-6.1-3.3-16.2-3.3-22.4,0
		c-0.4-4.3-7.3-5.4-10.7-1.4C41.2,417.3,40.2,419,40.2,421.1L40.2,421.1z"/>
	<path class="st0" d="M53.7,428.5c-3.5,0.8-6.5,4.5-7.1,8.5c-0.8,4.9,1.9,9.7,7.2,8.4c2.1-0.5,1.9-1.4,3.6-4.2c1-1.6,1.9-3.3,2.8-5
		c0.7-1.3,0.9-1.3,0.5-3.1C60,429.8,57.3,427.6,53.7,428.5L53.7,428.5z"/>
	<path class="st0" d="M72,428.6c-2.8,0.9-5.2,4.6-3.5,7.3l4.3,7.4c0.7,1.2,0.6,1.5,2,1.9c6,1.8,9.3-4.7,6.7-10.8
		C80.1,431.5,76.6,427.1,72,428.6L72,428.6z"/>
	<path class="st1" d="M65.2,447l0,3.3c1.8,0.8,3.3,1.6,5.8,0.5c2.2-1,2.1-1.9,2.9-4.2c1.5,0.6,1.2,3.5,0.9,4.9
		c-2.3,10.9-18.1,11-20.8,0.5c-0.4-1.5-0.7-4.6,0.5-5.4c0.9,0.8,0.2,1.2,1.2,2.5c2.2,2.9,5.1,2.6,7.8,1.1l0-3.2
		c-1.4-0.3-3.3-2-3.5-3.6c-0.3-2.2,2.2-3,4.2-3C70.9,440.4,69,446.1,65.2,447L65.2,447z M72,428.6c4.6-1.5,8.2,2.9,9.4,5.8
		c2.6,6.1-0.7,12.6-6.7,10.8c-1.4-0.4-1.3-0.7-2-1.9l-4.3-7.4C66.7,433.2,69.2,429.5,72,428.6L72,428.6z M53.7,428.5
		c3.6-0.9,6.2,1.4,7,4.7c0.4,1.7,0.2,1.8-0.5,3.1c-1,1.7-1.9,3.3-2.8,5c-1.7,2.8-1.5,3.7-3.6,4.2c-5.2,1.3-8-3.5-7.2-8.4
		C47.2,433,50.2,429.3,53.7,428.5L53.7,428.5z M60.8,417.9c-7.1,0.9-11.5,4.8-14.2,9.1c-2.3,3.6-6.5,11.6-6.2,17.3
		c0.2,3.6,2.6,8.1,4.6,9.8c0.6,0.5,0.9,0.8,1.5,1.5c0.8,0.9,2.2,1.8,3.3,2.6c4.4,3.1,11.7,5.4,18.4,4.3c5.7-0.9,11.6-3.9,15.3-7.8
		c1.7-1.8,3.4-4.1,4.4-7.3c1.2-3.8,0.5-6.4-0.7-9.8C83.2,425.7,76.4,415.8,60.8,417.9L60.8,417.9z"/>
	<path class="st0" d="M65.2,447c3.8-0.9,5.7-6.6-0.9-6.6c-2,0-4.4,0.8-4.2,3c0.2,1.6,2,3.3,3.5,3.6l0,3.2c-2.7,1.4-5.6,1.8-7.8-1.1
		c-1-1.3-0.2-1.7-1.2-2.5c-1.2,0.8-0.9,3.8-0.5,5.4c2.7,10.5,18.5,10.4,20.8-0.5c0.3-1.4,0.6-4.3-0.9-4.9c-0.8,2.3-0.7,3.3-2.9,4.2
		c-2.5,1.1-4,0.2-5.8-0.5L65.2,447L65.2,447z"/>
	<path class="st1" d="M59.2,454c1.7,0.6,3.4,0.4,5.1-1.2c1.2,1.4,2.8,1.9,5.2,1C67.4,458.2,61.5,458.2,59.2,454L59.2,454z"/>
	<path class="st1" d="M53.9,432.9c1.9,0,3.4,1.5,3.4,3.4c0,1.9-1.5,3.4-3.4,3.4c-1.9,0-3.4-1.5-3.4-3.4
		C50.6,434.4,52.1,432.9,53.9,432.9L53.9,432.9z"/>
	<path class="st0" d="M53.9,434.6c0.9,0,1.7,0.7,1.7,1.7c0,0.9-0.7,1.7-1.7,1.7c-0.9,0-1.7-0.7-1.7-1.7
		C52.3,435.4,53,434.6,53.9,434.6L53.9,434.6z"/>
	<path class="st1" d="M74.9,432.9c-1.9,0-3.4,1.5-3.4,3.4c0,1.9,1.5,3.4,3.4,3.4c1.9,0,3.4-1.5,3.4-3.4
		C78.2,434.4,76.7,432.9,74.9,432.9L74.9,432.9z"/>
	<path class="st0" d="M74.9,434.6c-0.9,0-1.7,0.7-1.7,1.7c0,0.9,0.7,1.7,1.7,1.7c0.9,0,1.7-0.7,1.7-1.7
		C76.5,435.4,75.8,434.6,74.9,434.6L74.9,434.6z"/>
</g>
<g>
	<path class="st2" d="M44.7,105c-0.8,3-1.6,5.8-2.3,8.6c-0.8,3.4-1.6,6.6-2.3,9.4c-0.7,2.8-1.2,5-1.5,6.6c-0.6,2.9-2.4,4.7-5.4,5.3
		c-2.6,0.5-5.4,0.3-8.2-0.6c-2.8-0.9-5.4-2.5-7.6-4.7c-2.4-2.3-3.5-5.3-3.5-8.8c0-2.8,0.7-7.3,2.2-13.6c1.4-6.2,3.5-13.6,6.1-21.9
		c2.6-8.2,5.8-17.3,9.4-27c3.1-8.3,6.6-16.7,10.4-24.9c1.2-2.7,3.8-4.6,6.7-4.9c6.7-0.8,12.5-0.6,17.4,0.6c3,0.7,4.5,3.9,3.3,6.7
		c-3.2,7.1-6.1,14.1-8.7,21c-2.1,5.6-4.1,11.1-6,16.4c-0.2,0.5,0.4,1,0.9,0.8c2.5-1.2,5.1-2.6,7.5-4.1c4-2.6,7.7-5.7,10.9-9.2
		c3.2-3.5,5.8-7.5,7.8-11.7c2-4.2,2.9-8.9,2.9-13.7c0-6.3-1.7-10.9-5.2-13.7C75.9,18.5,71,17,64.9,17c-6.6,0-12.5,1.6-17.8,4.6
		c-5.4,3.1-10.1,7-13.9,11.5c-3.8,4.5-6.9,9.3-9,14.3c-2.1,5-3.2,9.3-3.2,12.9c0,2.6-1.4,4.5-3.9,5.3c-2.2,0.7-4.6,0.6-7-0.3
		c-2.4-0.9-4.6-2.6-6.5-5.2c-2-2.6-3-6-3-10.3c0-3.7,1.4-8.1,4.3-13.5c2.8-5.2,7-10.2,12.5-15c5.4-4.8,12.3-8.9,20.4-12.3
		C45.9,5.7,55.3,4,65.7,4C71.6,4,77.6,4.7,83.4,6c5.8,1.4,11.1,3.5,15.7,6.3c4.7,2.8,8.5,6.3,11.4,10.4c2.9,4.2,4.4,9.1,4.4,14.7
		c0,5.9-1.3,11.5-3.9,16.6c-2.6,5-6.1,9.6-10.4,13.6c-4.3,4-9.5,7.5-15.3,10.4c-4.8,2.4-9.9,4.5-15.1,6.2c-0.3,0.1-0.5,0.3-0.4,0.6
		c0.1,2.6,0.3,5.2,0.6,7.7c0.3,2.9,0.7,5.7,1.2,8.3c0.5,2.6,1,5.2,1.7,7.6c0.5,1.9,1.1,3.7,1.7,5.4c0.4,1.1,0.8,2.2,1.2,3.2
		c0.8,2,1.7,4,2.7,5.8c0.9,1.8,2,3.4,3.1,5c1.1,1.5,2.2,2.9,3.4,4.2c1.1,1.3,2.4,2.4,3.6,3.4c1.2,1,2.5,1.9,3.8,2.7
		c1.3,0.8,2.6,1.4,4,2c1.3,0.5,2.7,1,4.1,1.3c1.4,0.3,2.8,0.5,4.3,0.6c1.5,0.1,3,0.1,4.5-0.1c1.5-0.1,3.1-0.4,4.7-0.8
		c1.6-0.4,3.2-0.9,4.9-1.5c1.7-0.6,3.3-1.4,5-2.3c0.6-0.3,1.3-0.7,1.9-1.1c2.1-1.2,4.7-0.6,6.1,1.3c1.4,1.9,1.1,4.6-0.7,6.2
		c-0.9,0.8-1.8,1.5-2.6,2.3c-2.1,1.7-4.3,3.4-6.4,4.8c-2,1.4-4,2.7-6,3.8c-1,0.6-2,1.1-3.1,1.7c-2,1-4.1,2-6.1,2.7
		c-2,0.8-4.1,1.4-6.1,1.9c-2,0.5-4,0.8-5.9,1c-1.4,0.1-2.8,0.2-4.1,0.2c-0.6,0-1.1,0-1.7,0c-1.9-0.1-3.8-0.3-5.6-0.7
		c-0.9-0.2-1.8-0.4-2.7-0.6c-0.9-0.2-1.7-0.5-2.6-0.8c-1.7-0.6-3.4-1.4-5-2.3c-1.6-0.9-3.1-1.9-4.6-3c-1.2-0.9-2.4-1.9-3.5-2.9
		c-1.3-1.3-2.6-2.7-3.9-4.1c-1.2-1.5-2.4-3.1-3.5-4.7c-1.1-1.7-2.1-3.4-3.1-5.3c-0.9-1.8-1.8-3.8-2.6-5.8c-0.8-2-1.6-4.1-2.2-6.3
		c-0.7-2.1-1.3-4.4-1.8-6.7c-0.5-2.3-1-4.7-1.4-7.2c-0.3-2.2-0.6-4.4-0.9-6.7C45.9,104.4,44.9,104.3,44.7,105"/>
	<path class="st2" d="M400,18c0,9.8-7.9,17.7-17.7,17.7c-9.8,0-17.7-7.9-17.7-17.7c0-9.8,7.9-17.7,17.7-17.7
		C392.1,0.3,400,8.2,400,18"/>
	<path class="st2" d="M396.1,89.3c-0.9-1.3-2.5-2.2-4.2-2.2c-1.6,0-3.1,0.8-4,2.1c-1,1.5-2.3,3.3-3.8,5.4c-1.7,2.2-3.4,4.4-5.3,6.4
		c-1.9,2-3.7,3.7-5.4,5.1c-1.8,1.5-2.9,1.8-3.6,1.8c-0.5,0-1.3,0-1.5-2.2c-0.2-2.3,0.1-5.4,1-9c0.9-3.7,2.2-7.9,3.9-12.4
		c1.7-4.5,3.4-8.9,5.1-12.9c1.7-4.2,3.2-7.6,4.5-10.6c1.3-2.9,2.2-4.9,2.5-5.7c1.1-2.4,0.7-4.8-1.1-6.9c-1.6-1.9-3.8-3.3-6.5-4
		c-2.6-0.7-5.5-0.8-8.5-0.1c-3.2,0.7-5.7,2.5-7.5,5.5c-1.6,2.6-3.7,6.7-6.1,12.1c-2.5,5.5-4.9,11.5-7.2,18c-1.4,3.9-2.6,8-3.8,12
		c-1.9,6.7-5.8,12.7-11.2,17.1c-1.9,1.6-4,3.1-6.1,4.5c-0.9,0.6-1.9,1.2-2.8,1.7c-0.3,0.2-0.6-0.2-0.4-0.5c1.6-2.2,3.2-4.5,4.8-7
		c3.2-5.1,6.2-11.2,8.7-18.2c2.7-7.4,4.4-14.1,5.1-20c0.7-6,0.4-11.2-0.7-15.5c-1.1-4.4-3.1-7.9-5.9-10.4c-2.9-2.5-6.5-3.8-10.6-3.8
		c-4.9,0-9.4,1.3-13.4,3.8c-2.7,1.7-5.2,3.7-7.5,5.8c-0.2,0.2-0.3,0.2-0.5-0.1c-0.5-0.8-1.2-1.6-2-2.3c-1.9-1.6-4.2-2.7-6.9-3.2
		c-2.7-0.5-5.4-0.3-8,0.5c-2.8,0.9-4.9,2.8-6.3,5.7c-2.5,5.5-5.2,11.9-8,19.1c-2.8,7.1-5.4,14.6-8,22.2c-0.3,0.8-0.6,1.7-0.8,2.5
		c-2.1,6.5-6.2,12.1-11.6,16.3c-1.4,1.1-2.9,2.1-4.4,3.1c-0.9,0.6-1.9,1.2-2.8,1.7c-0.3,0.2-0.6-0.2-0.4-0.5c1.6-2.1,3.2-4.5,4.8-7
		c3.2-5.1,6.2-11.2,8.7-18.2c2.7-7.4,4.4-14.1,5.1-20c0.7-6,0.4-11.2-0.7-15.5c-1.1-4.4-3.1-7.9-5.9-10.4c-2.9-2.5-6.5-3.8-10.6-3.8
		c-4.9,0-9.4,1.3-13.4,3.8c-2.7,1.7-5.2,3.7-7.5,5.8c-0.2,0.2-0.3,0.2-0.5-0.1c-0.5-0.8-1.2-1.6-2-2.3c-1.9-1.6-4.2-2.7-6.9-3.2
		c-2.7-0.5-5.4-0.3-8,0.5c-2.8,0.9-4.9,2.8-6.3,5.7c-2.6,5.5-5.2,11.9-8,19.1c-2.6,6.7-5.1,13.7-7.5,20.7c-1.8,5.3-4.5,9.6-8.5,13.5
		c-1,1-2.1,1.9-3,2.7c-1.8,1.5-2.9,1.8-3.6,1.8c-0.5,0-1.3,0-1.5-2.2c-0.2-2.3,0.1-5.4,1-9c0.9-3.7,2.2-7.9,3.9-12.4
		c1.7-4.5,3.4-8.8,5.1-12.9c1.7-4.1,3.2-7.7,4.5-10.6c1.3-3,2.2-4.9,2.5-5.7c1.1-2.4,0.7-4.8-1.1-6.9c-1.6-1.9-3.9-3.3-6.7-4
		c-2.7-0.7-5.6-0.8-8.5-0.1c-3.1,0.7-5.6,2.5-7.4,5.5c-0.4,0.6-0.7,1.2-1.1,1.9c-0.1,0.3-0.5,0.2-0.6-0.1c-0.3-1.6-0.9-3.1-1.7-4.6
		c-1.1-2.1-2.8-3.8-5-5.1c-2.2-1.3-5-2-8.3-2c-7.8,0-15.8,3.6-23.6,10.7c-7.7,7-14,18.1-18.9,33.2c-2.3,7.2-3.6,13.9-4,19.9
		c-0.4,6,0.1,11.2,1.4,15.5c1.4,4.4,3.5,7.8,6.5,10.2c3,2.5,6.6,3.8,10.8,3.8c3.1,0,6-0.5,8.7-1.6c2.6-1,5-2.3,7.2-3.9
		c1.7-1.2,3.2-2.5,4.6-4c1-1.1,2.8-0.6,3.2,0.8c0.5,1.6,1.1,3,1.9,4.2c2,3,5.3,4.5,9.6,4.5c4.8,0,9.7-1.8,14.4-5.4
		c2.2-1.7,4.4-3.5,6.5-5.4c0.5-0.4,1.2,0,1,0.6c-1.2,4.1-2.3,7.9-3.3,11.4c-1.7,6-3,11.1-4,15.3c-1.4,5.6-1.5,7.1-1.5,7.8
		c0,3.4,1.1,6.4,3.2,8.7c2,2.2,4.4,3.9,7,4.8c1.7,0.6,3.4,0.9,5,0.9c0.9,0,1.7-0.1,2.6-0.3c1.9-0.4,4.3-1.7,5-5.2l0-0.1
		c0.3-1.9,0.8-4.4,1.6-7.5c0.8-3.2,1.8-6.9,2.9-11c1.1-4,2.3-8.5,3.8-13.7c0.7-2.4,1.4-4.9,2.2-7.5c0.2-0.5,0.9-0.6,1.2-0.1
		c0.3,0.6,0.7,1.2,1.2,1.7c2.4,3.2,6.2,4.8,11.3,4.8c1,0,2.1,0.1,3.1,0.1h0c7.5,0,14.6-1.3,21.1-3.8c6.1-2.4,11.8-5.4,16.8-8.9
		c0.5-0.3,1.1,0.1,1,0.7c-1.4,4.7-2.7,9.2-3.9,13.2c-1.7,6-3,11.2-4,15.3c-1.4,5.6-1.5,7.1-1.5,7.8c0,3.4,1.1,6.4,3.2,8.7
		c2,2.3,4.4,3.9,7,4.8c1.7,0.6,3.4,0.9,5,0.9c0.9,0,1.7-0.1,2.6-0.3c1.9-0.4,4.3-1.7,5-5.2l0-0.1c0.3-1.9,0.8-4.4,1.6-7.5
		c0.8-3.2,1.7-6.9,2.9-11c1.1-4,2.3-8.5,3.8-13.7c0.7-2.4,1.4-4.9,2.2-7.5c0.2-0.5,0.9-0.6,1.2-0.1c0.3,0.6,0.7,1.2,1.2,1.7
		c2.4,3.2,6.2,4.8,11.3,4.8c1,0,2.1,0.1,3.1,0.1h0c7.5,0,14.6-1.3,21.1-3.8c7.2-2.9,13.7-6.4,19.3-10.7c1-0.7,1.9-1.4,2.8-2.2
		c0.4-0.3,1,0,1,0.5c0,0.2,0,0.5,0,0.7c0,4.5,0.9,8.2,2.8,10.9c2,3,5.3,4.5,9.6,4.5c4.8,0,9.7-1.8,14.5-5.3
		c4.6-3.4,8.9-7.4,12.9-11.8c3.9-4.4,7.3-8.8,10.2-13.1c2.9-4.3,4.9-7.3,6-9C396.9,92.2,396.9,90.7,396.1,89.3 M151.3,66.3
		c-0.3,3.2-1,6.8-2,10.7c-1,3.9-2.3,8.1-4,12.4c-1.7,4.2-3.4,8.2-5.2,11.8c-1.8,3.5-3.6,6.6-5.4,9c-1.7,2.3-3.4,4.1-4.8,5.2
		c-1.1,0.8-1.7,0.9-1.9,0.9c-0.1,0-0.2,0-0.3-0.1c-0.2-0.1-0.9-0.6-1.2-2.7c-0.3-2-0.4-4.5-0.1-7.6c0.3-3.1,0.9-6.7,1.9-10.6
		c1-3.9,2.3-8.1,4-12.4c1.7-4.3,3.4-8.3,5.3-11.8c1.8-3.5,3.6-6.6,5.4-9.1c1.7-2.4,3.4-4.2,4.8-5.3c1.1-0.8,1.7-0.9,1.9-0.9
		c0.1,0,0.2,0,0.3,0.1c0.2,0.1,0.9,0.6,1.4,2.8C151.6,60.7,151.7,63.2,151.3,66.3 M237,66.5c-0.6,3.1-1.4,6.7-2.6,10.7
		c-1.2,4-2.7,8.1-4.5,12.3c-2,4.3-4,8.3-6,11.8c-2,3.6-4,6.6-5.9,9.1c-1.9,2.4-3.6,4.2-5.2,5.3c-1.2,0.8-1.8,0.9-2,0.9
		c-0.1,0-0.2,0-0.3-0.1c-0.2-0.1-0.8-0.5-1.1-2.7c-0.3-1.9-0.1-4.5,0.4-7.6c0.6-3.2,1.4-6.8,2.6-10.7c1.2-3.9,2.7-8.1,4.5-12.4
		c1.8-4.3,3.8-8.2,5.9-11.8c2.1-3.6,4.1-6.6,6-9c1.9-2.4,3.6-4.1,5.2-5.2c1.2-0.8,1.8-0.9,2-0.9c0.1,0,0.2,0,0.3,0.1
		c0.2,0.1,0.8,0.5,1.1,2.7C237.7,60.9,237.5,63.5,237,66.5 M316.2,66.5c-0.6,3.1-1.4,6.7-2.6,10.7c-1.2,4-2.7,8.1-4.5,12.3
		c-1.9,4.3-4,8.3-6,11.8c-2,3.6-4,6.6-5.9,9.1c-1.9,2.4-3.6,4.2-5.2,5.3c-1.2,0.8-1.8,0.9-2,0.9c-0.1,0-0.2,0-0.3-0.1
		c-0.2-0.1-0.8-0.5-1.1-2.7c-0.3-1.9-0.1-4.5,0.4-7.6c0.6-3.2,1.4-6.8,2.6-10.7c1.2-3.9,2.7-8.1,4.5-12.4c1.8-4.3,3.8-8.2,5.9-11.8
		c2.1-3.6,4.1-6.6,6-9c1.9-2.3,3.6-4.1,5.2-5.2c1.2-0.8,1.8-0.9,2-0.9c0.1,0,0.2,0,0.3,0.1c0.2,0.1,0.8,0.5,1.1,2.7
		C316.9,61,316.7,63.5,316.2,66.5"/>
</g>
</svg>
