<svg height="441" viewBox="0 0 582 441" width="582" xmlns="http://www.w3.org/2000/svg" xmlns:xlink="http://www.w3.org/1999/xlink"><linearGradient id="a" x1="9.304356%" x2="90.938257%" y1="111.604675%" y2="-11.93995%"><stop offset="1" stop-color="#4dc0e7"/><stop offset="1" stop-color="#5772c1"/></linearGradient><linearGradient id="b" x1="72.043175%" x2="31.68893%" y1="18.801299%" y2="77.090324%"><stop offset="0" stop-color="#fff900"/><stop offset="1" stop-color="#fee258"/></linearGradient><linearGradient id="c" x1="-195.5%" x2="295.5%" y1="22.165533%" y2="77.834467%"><stop offset=".002483974" stop-color="#57c8e1"/><stop offset=".1396" stop-color="#58c1de"/><stop offset=".3628" stop-color="#58b2d7"/><stop offset=".6444" stop-color="#579acb"/><stop offset=".9705" stop-color="#577abc"/><stop offset="1" stop-color="#5777bb"/></linearGradient><linearGradient id="d" x1="76.720813%" x2="23.276361%" y1="-337.74%" y2="437.73925%"><stop offset="0" stop-color="#5777bb"/><stop offset="1" stop-color="#57c8e1"/></linearGradient><g fill="none" fill-rule="evenodd"><g transform="translate(71 60)" visibility="hidden"><path d="m484 161.5h-223c-1.7 0-3-1.3-3-3v-152.7c0-2.8 2.2-5 5-5h221c2.8 0 5 2.2 5 5v150.7c0 2.7-2.2 5-5 5z" fill="url(#a)" fill-rule="nonzero"/><text fill="#fff" font-family="Geneva" font-size="9"><tspan x="284" y="25">Profit by Weekdays</tspan></text><g fill-rule="nonzero"><path d="m238.100952 162h-233.10512839c-2.79766121 0-4.99582361-2.204107-4.99582361-5.009334v-150.9813318c0-2.8052272 2.1981624-5.0093342 4.99582361-5.0093342h233.00521239c2.797661 0 4.995823 2.204107 4.995823 5.0093342v150.9813318c.099917 2.70504-2.198162 5.009334-4.895907 5.009334z" fill="#fff"/><path d="m284 129h180v2h-180z" fill="#fff"/><path d="m393 83h16v23h-16z" fill="#fff"/><path d="m418 82h16v25h-16z" fill="#fff"/><path d="m418 108h16v10h-16z" fill="url(#b)" opacity=".75"/><path d="m367 108h16v15h-16z" fill="url(#b)" opacity=".75"/><path d="m342 108h16v11h-16z" fill="url(#b)" opacity=".75"/><path d="m443 68h16v38h-16z" fill="#fff"/><path d="m292 58h16v49h-16z" fill="#fff"/><path d="m317 51h16v55h-16z" fill="#fff"/><path d="m342 72h16v34h-16z" fill="#fff"/><path d="m367 76h16v31h-16z" fill="#fff"/></g><path d="m454 141v-9" stroke="#fff" stroke-width="2"/><path d="m426 141v-9" stroke="#fff" stroke-width="2"/><path d="m401 141v-9" stroke="#fff" stroke-width="2"/><path d="m350 141v-9" stroke="#fff" stroke-width="2"/><path d="m298 141v-9" stroke="#fff" stroke-width="2"/><path d="m375 141v-9" stroke="#fff" stroke-width="2"/><path d="m325 141v-9" stroke="#fff" stroke-width="2"/></g><g transform="translate(329 236)"><path d="m99.7 186.2h-92.8c-3.8 0-6.9-3.1-6.9-6.9v-172c0-3.8 3.1-6.9 6.9-6.9h92.8c3.8 0 6.9 3.1 6.9 6.9v172c0 3.9-3.1 6.9-6.9 6.9z" fill="url(#a)" fill-rule="nonzero" opacity=".9"/><text fill="#fff" font-family="Geneva" font-size="9"><tspan x="14" y="25">Profit/Loss</tspan></text><g fill-rule="nonzero" opacity=".75" transform="translate(14 59)"><path d="m35.9 5.7c-19.7 0-35.7 16-35.7 35.7s16 35.7 35.7 35.7 35.7-16 35.7-35.7h-35.7z" fill="#fff"/><path d="m77.6 36.3c0-19.7-16-35.7-35.7-35.7v35.7z" fill="url(#b)"/></g></g><g transform="translate(71 236)"><path d="m238.6 186.2h-233.3c-2.8 0-5-2.2-5-5v-175.7c0-2.8 2.2-5 5-5h233.2c2.8 0 5 2.2 5 5v175.7c.1 2.8-2.2 5-4.9 5z" fill="url(#a)" fill-rule="nonzero" opacity=".9"/><text fill="#fff" font-family="Geneva" font-size="9"><tspan x="17" y="25">Last Actions</tspan></text><g fill-rule="nonzero"><path d="m17 167h210v2h-210z" fill="#fff"/><path d="m149 129h16v35h-16z" fill="#fff"/><path d="m23 95h16v69h-16z" fill="#fff"/><path d="m48 85h16v79h-16z" fill="url(#b)" opacity=".75"/><path d="m201 85h16v79h-16z" fill="#fff"/><path d="m74 147h16v17h-16z" fill="#fff"/><path d="m99 58h16v106h-16z" fill="#fff"/><path d="m175 110h16v54h-16z" fill="url(#b)" opacity=".75"/><path d="m124 109h16v55h-16z" fill="url(#b)" opacity=".75"/></g></g><g transform="translate(450 236)"><path d="m104.4 186.2h-97.1c-3.8 0-6.9-3.1-6.9-6.9v-172c0-3.8 3.1-6.9 6.9-6.9h97.1c3.8 0 6.9 3.1 6.9 6.9v172c0 3.9-3.1 6.9-6.9 6.9z" fill="url(#a)" fill-rule="nonzero" opacity=".9"/><text fill="#fff" font-family="Geneva" font-size="9"><tspan x="16" y="25">Win/Lose</tspan></text><g fill-rule="nonzero" opacity=".75" transform="translate(20 61)"><path d="m42.5.1c19.7 0 35.7 16 35.7 35.7 0 7.3-2.2 14.1-5.9 19.7l-33.5-19.7z" fill="url(#b)"/><path d="m36.3 2.3c-19.7 0-35.7 16-35.7 35.7s16 35.7 35.7 35.7c12.4 0 23.4-6.4 29.8-16l-32.8-19.7z" fill="#fff"/></g></g><g transform="translate(71 60)"><path d="m238.7 161.5h-233.3c-2.8 0-5-2.2-5-5v-150.7c0-2.8 2.2-5 5-5h233.2c2.8 0 5 2.2 5 5v150.7c.1 2.7-2.2 5-4.9 5z" fill="url(#a)" fill-rule="nonzero"/><path d="m24.4 43.8h180.3" stroke="#fff"/><text fill="#fff" font-family="Geneva" font-size="9"><tspan x="21" y="26">Bet Counts</tspan></text><path d="m24 132h180v2h-180z" fill="#fff" fill-rule="nonzero"/><path d="m25 75.77382s24.059677-51.5657522 44.625209 4.012899c20.365867 54.876394 33.344116 42.938019 46.1227 25.682554 10.781929-14.546759 29.450641-58.989616 55.10764-10.032248 18.069716 34.410609 33.144451 29.294163 33.144451 29.294163" stroke="#fff"/><g fill="#fff" fill-rule="nonzero"><circle cx="32" cy="65" r="2" transform="matrix(.41850638 -.90821386 .90821386 .41850638 -40.426105 66.859929)"/><circle cx="64" cy="67" r="2" transform="matrix(.41850638 -.90821386 .90821386 .41850638 -23.634737 97.085759)"/><circle cx="73" cy="87" r="2" transform="matrix(.41850638 -.90821386 .90821386 .41850638 -36.565571 116.889556)"/><circle cx="81" cy="103" r="2" transform="matrix(.41850638 -.90821386 .90821386 .41850638 -46.445044 133.459165)"/><circle cx="91" cy="116" r="2" transform="matrix(.41850638 -.90821386 .90821386 .41850638 -52.436888 150.100721)"/><circle cx="107" cy="116" r="2" transform="matrix(.41850638 -.90821386 .90821386 .41850638 -43.13299 164.632142)"/><circle cx="118" cy="104" r="2" transform="matrix(.41850638 -.90821386 .90821386 .41850638 -25.837994 167.644571)"/><circle cx="127" cy="89" r="2" transform="matrix(.41850638 -.90821386 .90821386 .41850638 -6.981344 167.096092)"/><circle cx="138" cy="76" r="2" transform="matrix(.41850638 -.90821386 .90821386 .41850638 11.221866 169.527027)"/><circle cx="157" cy="76" r="2" transform="matrix(.41850638 -.90821386 .90821386 .41850638 22.270245 186.78309)"/><circle cx="167" cy="87" r="2" transform="matrix(.41850638 -.90821386 .90821386 .41850638 18.094829 202.261659)"/><circle cx="175" cy="101" r="2" transform="matrix(.41850638 -.90821386 .90821386 .41850638 10.031784 217.66828)"/><circle cx="189" cy="118" r="2" transform="matrix(.41850638 -.90821386 .90821386 .41850638 2.733059 240.268666)"/><circle cx="47" cy="54" r="2" transform="matrix(.41850638 -.90821386 .90821386 .41850638 -21.713348 74.086707)"/></g><g opacity=".212946" stroke="#fff" transform="translate(24 43)"><path d="m.4 77.6h180.3"/><path d="m.4 66.7h180.3"/><path d="m.4 55.7h180.3"/><path d="m.4 44.7h180.3"/><path d="m.4 33.7h180.3"/><path d="m.4 22.8h180.3"/><path d="m.4 11.8h180.3"/></g></g><g fill-rule="nonzero"><path d="m0 0h50v441h-50z" fill="url(#c)" opacity=".8"/><path d="m1 0h581v40h-581z" fill="url(#d)"/><path d="m50 1h97v40h-97z" fill="#fff" opacity=".44"/><circle cx="554.5" cy="20.5" fill="#fff" r="6.5"/><circle cx="532.5" cy="20.5" fill="#fff" r="6.5"/></g><g transform="translate(61 15)"><text fill="#000" fill-opacity=".390512" font-family="Geneva" font-size="9"><tspan x=".5158" y="9.6465">Rakam Demo</tspan></text><path d="m77 4.5-4.2 4.2-4.2-4.1.2-.3 4 3.9 3.9-4z" fill="#3c3c3c" fill-rule="nonzero"/></g><g fill="#fff" fill-rule="nonzero"><path d="m16 20.7h4.6v8.2h-4.6z"/><path d="m22.7 16.6h4.6v12.3h-4.6z"/><path d="m29.4 13.1h4.6v15.8h-4.6z"/></g><g fill="#fff" fill-rule="nonzero"><path d="m15 52.3h8.6v5.5h-8.6z"/><path d="m15 59.9h8.6v10.4h-8.6z"/><path d="m25.4 52.3h7.6v10.4h-7.6z"/><path d="m25.4 64.9h7.6v5.5h-7.6z"/></g><path d="m16 91v19.1h17v-19.1h-2.4v.9c0 .3-.3.5-.6.5s-.6-.2-.6-.5v-.9h-2.4v.9c0 .3-.3.5-.6.5s-.6-.2-.6-.5v-.9h-2.4v.9c0 .3-.3.5-.6.5s-.6-.2-.6-.5v-.9h-2.4v.9c0 .3-.3.5-.6.5s-.6-.2-.6-.5v-.9zm14 6.4h-11c-.3 0-.6-.4-.6-.9s.3-.9.6-.9h11c.3 0 .6.4.6.9s-.3.9-.6.9zm0 4.8h-11c-.3 0-.6-.4-.6-.9s.3-.9.6-.9h11c.3 0 .6.4.6.9s-.3.9-.6.9zm0 4.7h-11c-.3 0-.6-.4-.6-.9s.3-.9.6-.9h11c.3 0 .6.4.6.9s-.3.9-.6.9z" fill="#fff" fill-rule="nonzero"/><path d="m31.8 131.8c-3.8-3.8-9.9-3.8-13.7 0s-3.8 9.9 0 13.7 9.9 3.8 13.7 0 3.8-9.9 0-13.7zm-10.2 10.3 1.7-5.1 5.1-1.7-1.7 5.1z" fill="#fff" fill-rule="nonzero"/><path d="m17.9 187.2c.5.6 1 1.1 1.6 1.6v1.3c0 .2.2.5.4.5l2.6 1h.2c.2 0 .3-.1.4-.2l.8-1c.8.1 1.5.1 2.3 0l.9.9c.2.2.4.2.7.1l2.6-1.2c.2-.1.4-.3.4-.6l-.1-1.3c.6-.5 1.1-1 1.6-1.6h1.3c.2 0 .5-.2.5-.4l1-2.7c.1-.2 0-.5-.2-.7l-1-.8c.1-.8.1-1.5 0-2.3l.9-.9c.2-.2.2-.4.1-.7l-1.2-2.6c-.1-.2-.3-.4-.6-.4l-1.3.1c-.5-.6-1-1.1-1.6-1.6v-1.2c0-.2-.2-.5-.4-.5l-2.5-1c-.2-.1-.5 0-.7.2l-.8 1c-.8-.1-1.5-.1-2.3 0l-.9-.9c-.2-.2-.4-.2-.7-.1l-2.6 1.2c-.2.1-.4.3-.4.6l.1 1.3c-.6.5-1.1 1-1.6 1.6h-1.3c-.2 0-.5.2-.5.4l-1 2.5c-.1.2 0 .5.2.7l1 .8c-.1.8-.1 1.5 0 2.3l-.9.9c-.2.2-.2.4-.1.7l1.2 2.6c.1.2.3.4.6.4zm2.5-6.5c1-2.6 3.8-3.8 6.4-2.9 2.6 1 3.8 3.8 2.9 6.4-1 2.6-3.8 3.8-6.4 2.9-2.6-1-3.9-3.9-2.9-6.4z" fill="#fff" fill-rule="nonzero"/></g></svg>