<?xml version="1.0" encoding="utf-8"?>
<!-- Generator: Adobe Illustrator 21.0.0, SVG Export Plug-In . SVG Version: 6.00 Build 0)  -->
<svg version="1.1" id="Layer_1" xmlns="http://www.w3.org/2000/svg" xmlns:xlink="http://www.w3.org/1999/xlink" x="0px" y="0px"
	 viewBox="0 0 580.4 441" style="enable-background:new 0 0 580.4 441;" xml:space="preserve">
<style type="text/css">
	.st0{fill:url(#SVGID_1_);}
	.st1{fill:none;stroke:url(#SVGID_2_);stroke-width:0.75;stroke-miterlimit:10;}
	.st2{opacity:0.2;}
	.st3{fill:none;stroke:url(#SVGID_3_);stroke-miterlimit:10;}
	.st4{fill:none;stroke:url(#SVGID_4_);stroke-miterlimit:10;}
	.st5{fill:none;stroke:url(#SVGID_5_);stroke-miterlimit:10;}
	.st6{fill:none;stroke:url(#SVGID_6_);stroke-miterlimit:10;}
	.st7{fill:none;stroke:url(#SVGID_7_);stroke-miterlimit:10;}
	.st8{fill:none;stroke:url(#SVGID_8_);stroke-miterlimit:10;}
	.st9{fill:none;stroke:url(#SVGID_9_);stroke-miterlimit:10;}
	.st10{fill:none;stroke:url(#SVGID_10_);stroke-miterlimit:10;}
	.st11{fill:none;stroke:url(#SVGID_11_);stroke-miterlimit:10;}
	.st12{fill:none;stroke:url(#SVGID_12_);stroke-miterlimit:10;}
	.st13{fill:none;stroke:url(#SVGID_13_);stroke-miterlimit:10;}
	.st14{fill:none;stroke:url(#SVGID_14_);stroke-miterlimit:10;}
	.st15{fill:none;stroke:url(#SVGID_15_);stroke-miterlimit:10;}
	.st16{fill:none;stroke:url(#SVGID_16_);stroke-miterlimit:10;}
	.st17{opacity:0.8;}
	.st18{fill:url(#SVGID_17_);}
	.st19{fill:url(#SVGID_18_);}
	.st20{opacity:0.44;}
	.st21{fill:#FFFFFF;}
	.st22{fill:#3C3C3C;}
	.st23{font-family:'Arial';}
	.st24{font-size:9.002px;}
	.st25{opacity:0.9;}
	.st26{fill:url(#SVGID_19_);}
	.st27{font-family:'Arial';}
	.st28{font-size:10px;}
	.st29{fill:none;stroke:#FFFFFF;stroke-miterlimit:10;}
	.st30{fill:url(#SVGID_20_);}
	.st31{fill:url(#SVGID_21_);}
	.st32{fill:#FFFFFF;stroke:#FFFFFF;stroke-miterlimit:10;}
	.st33{opacity:0.5;fill:url(#SVGID_22_);enable-background:new    ;}
	.st34{opacity:0.5;fill:url(#SVGID_23_);enable-background:new    ;}
	.st35{opacity:0.5;fill:url(#SVGID_24_);enable-background:new    ;}
	.st36{opacity:0.5;fill:url(#SVGID_25_);enable-background:new    ;}
	.st37{fill:url(#SVGID_26_);}
	.st38{fill:url(#SVGID_27_);}
	.st39{fill:url(#SVGID_28_);}
	.st40{fill:#FDFEFE;}
	.st41{font-size:12px;}
	.st42{fill:#5877BA;}
</style>
<g id="Layer_1_1_">
	
		<linearGradient id="SVGID_1_" gradientUnits="userSpaceOnUse" x1="166" y1="205.8" x2="70" y2="205.8" gradientTransform="matrix(1 0 0 -1 0 442)">
		<stop  offset="2.483974e-03" style="stop-color:#57C8E1"/>
		<stop  offset="0.1396" style="stop-color:#58C1DE"/>
		<stop  offset="0.3628" style="stop-color:#58B2D7"/>
		<stop  offset="0.6444" style="stop-color:#579ACB"/>
		<stop  offset="0.9705" style="stop-color:#577ABC"/>
		<stop  offset="1" style="stop-color:#5777BB"/>
	</linearGradient>
	<path class="st0" d="M163,251.2H73c-1.7,0-3-1.4-3-3v-24c0-1.7,1.3-3,3-3h90c1.7,0,3,1.3,3,3v24C166,249.8,164.7,251.2,163,251.2z"
		/>
	
		<linearGradient id="SVGID_2_" gradientUnits="userSpaceOnUse" x1="272.775" y1="205.8" x2="176.025" y2="205.8" gradientTransform="matrix(1 0 0 -1 0 442)">
		<stop  offset="2.483974e-03" style="stop-color:#57C8E1"/>
		<stop  offset="0.1396" style="stop-color:#58C1DE"/>
		<stop  offset="0.3628" style="stop-color:#58B2D7"/>
		<stop  offset="0.6444" style="stop-color:#579ACB"/>
		<stop  offset="0.9705" style="stop-color:#577ABC"/>
		<stop  offset="1" style="stop-color:#5777BB"/>
	</linearGradient>
	<path class="st1" d="M269.4,251.2h-90c-1.6,0-3-1.4-3-3v-24c0-1.7,1.4-3,3-3h90c1.6,0,3,1.3,3,3v24
		C272.4,249.8,271,251.2,269.4,251.2z"/>
	<g class="st2">
		
			<linearGradient id="SVGID_3_" gradientUnits="userSpaceOnUse" x1="69.5" y1="43.6" x2="560" y2="43.6" gradientTransform="matrix(1 0 0 -1 0 442)">
			<stop  offset="2.483974e-03" style="stop-color:#57C8E1"/>
			<stop  offset="0.1396" style="stop-color:#58C1DE"/>
			<stop  offset="0.3628" style="stop-color:#58B2D7"/>
			<stop  offset="0.6444" style="stop-color:#579ACB"/>
			<stop  offset="0.9705" style="stop-color:#577ABC"/>
			<stop  offset="1" style="stop-color:#5777BB"/>
		</linearGradient>
		<line class="st3" x1="69.5" y1="398.4" x2="560" y2="398.4"/>
		
			<linearGradient id="SVGID_4_" gradientUnits="userSpaceOnUse" x1="69.5" y1="53.6" x2="560" y2="53.6" gradientTransform="matrix(1 0 0 -1 0 442)">
			<stop  offset="2.483974e-03" style="stop-color:#57C8E1"/>
			<stop  offset="0.1396" style="stop-color:#58C1DE"/>
			<stop  offset="0.3628" style="stop-color:#58B2D7"/>
			<stop  offset="0.6444" style="stop-color:#579ACB"/>
			<stop  offset="0.9705" style="stop-color:#577ABC"/>
			<stop  offset="1" style="stop-color:#5777BB"/>
		</linearGradient>
		<line class="st4" x1="69.5" y1="388.4" x2="560" y2="388.4"/>
		
			<linearGradient id="SVGID_5_" gradientUnits="userSpaceOnUse" x1="69.5" y1="63.6" x2="560" y2="63.6" gradientTransform="matrix(1 0 0 -1 0 442)">
			<stop  offset="2.483974e-03" style="stop-color:#57C8E1"/>
			<stop  offset="0.1396" style="stop-color:#58C1DE"/>
			<stop  offset="0.3628" style="stop-color:#58B2D7"/>
			<stop  offset="0.6444" style="stop-color:#579ACB"/>
			<stop  offset="0.9705" style="stop-color:#577ABC"/>
			<stop  offset="1" style="stop-color:#5777BB"/>
		</linearGradient>
		<line class="st5" x1="69.5" y1="378.4" x2="560" y2="378.4"/>
		
			<linearGradient id="SVGID_6_" gradientUnits="userSpaceOnUse" x1="69.5" y1="73.6" x2="560" y2="73.6" gradientTransform="matrix(1 0 0 -1 0 442)">
			<stop  offset="2.483974e-03" style="stop-color:#57C8E1"/>
			<stop  offset="0.1396" style="stop-color:#58C1DE"/>
			<stop  offset="0.3628" style="stop-color:#58B2D7"/>
			<stop  offset="0.6444" style="stop-color:#579ACB"/>
			<stop  offset="0.9705" style="stop-color:#577ABC"/>
			<stop  offset="1" style="stop-color:#5777BB"/>
		</linearGradient>
		<line class="st6" x1="69.5" y1="368.4" x2="560" y2="368.4"/>
		
			<linearGradient id="SVGID_7_" gradientUnits="userSpaceOnUse" x1="69.5" y1="83.6" x2="560" y2="83.6" gradientTransform="matrix(1 0 0 -1 0 442)">
			<stop  offset="2.483974e-03" style="stop-color:#57C8E1"/>
			<stop  offset="0.1396" style="stop-color:#58C1DE"/>
			<stop  offset="0.3628" style="stop-color:#58B2D7"/>
			<stop  offset="0.6444" style="stop-color:#579ACB"/>
			<stop  offset="0.9705" style="stop-color:#577ABC"/>
			<stop  offset="1" style="stop-color:#5777BB"/>
		</linearGradient>
		<line class="st7" x1="69.5" y1="358.4" x2="560" y2="358.4"/>
		
			<linearGradient id="SVGID_8_" gradientUnits="userSpaceOnUse" x1="69.5" y1="93.6" x2="560" y2="93.6" gradientTransform="matrix(1 0 0 -1 0 442)">
			<stop  offset="2.483974e-03" style="stop-color:#57C8E1"/>
			<stop  offset="0.1396" style="stop-color:#58C1DE"/>
			<stop  offset="0.3628" style="stop-color:#58B2D7"/>
			<stop  offset="0.6444" style="stop-color:#579ACB"/>
			<stop  offset="0.9705" style="stop-color:#577ABC"/>
			<stop  offset="1" style="stop-color:#5777BB"/>
		</linearGradient>
		<line class="st8" x1="69.5" y1="348.4" x2="560" y2="348.4"/>
		
			<linearGradient id="SVGID_9_" gradientUnits="userSpaceOnUse" x1="69.5" y1="103.6" x2="560" y2="103.6" gradientTransform="matrix(1 0 0 -1 0 442)">
			<stop  offset="2.483974e-03" style="stop-color:#57C8E1"/>
			<stop  offset="0.1396" style="stop-color:#58C1DE"/>
			<stop  offset="0.3628" style="stop-color:#58B2D7"/>
			<stop  offset="0.6444" style="stop-color:#579ACB"/>
			<stop  offset="0.9705" style="stop-color:#577ABC"/>
			<stop  offset="1" style="stop-color:#5777BB"/>
		</linearGradient>
		<line class="st9" x1="69.5" y1="338.4" x2="560" y2="338.4"/>
		
			<linearGradient id="SVGID_10_" gradientUnits="userSpaceOnUse" x1="69.5" y1="113.6" x2="560" y2="113.6" gradientTransform="matrix(1 0 0 -1 0 442)">
			<stop  offset="2.483974e-03" style="stop-color:#57C8E1"/>
			<stop  offset="0.1396" style="stop-color:#58C1DE"/>
			<stop  offset="0.3628" style="stop-color:#58B2D7"/>
			<stop  offset="0.6444" style="stop-color:#579ACB"/>
			<stop  offset="0.9705" style="stop-color:#577ABC"/>
			<stop  offset="1" style="stop-color:#5777BB"/>
		</linearGradient>
		<line class="st10" x1="69.5" y1="328.4" x2="560" y2="328.4"/>
		
			<linearGradient id="SVGID_11_" gradientUnits="userSpaceOnUse" x1="69.5" y1="123.6" x2="560" y2="123.6" gradientTransform="matrix(1 0 0 -1 0 442)">
			<stop  offset="2.483974e-03" style="stop-color:#57C8E1"/>
			<stop  offset="0.1396" style="stop-color:#58C1DE"/>
			<stop  offset="0.3628" style="stop-color:#58B2D7"/>
			<stop  offset="0.6444" style="stop-color:#579ACB"/>
			<stop  offset="0.9705" style="stop-color:#577ABC"/>
			<stop  offset="1" style="stop-color:#5777BB"/>
		</linearGradient>
		<line class="st11" x1="69.5" y1="318.4" x2="560" y2="318.4"/>
		
			<linearGradient id="SVGID_12_" gradientUnits="userSpaceOnUse" x1="69.5" y1="133.6" x2="560" y2="133.6" gradientTransform="matrix(1 0 0 -1 0 442)">
			<stop  offset="2.483974e-03" style="stop-color:#57C8E1"/>
			<stop  offset="0.1396" style="stop-color:#58C1DE"/>
			<stop  offset="0.3628" style="stop-color:#58B2D7"/>
			<stop  offset="0.6444" style="stop-color:#579ACB"/>
			<stop  offset="0.9705" style="stop-color:#577ABC"/>
			<stop  offset="1" style="stop-color:#5777BB"/>
		</linearGradient>
		<line class="st12" x1="69.5" y1="308.4" x2="560" y2="308.4"/>
		
			<linearGradient id="SVGID_13_" gradientUnits="userSpaceOnUse" x1="69.5" y1="143.6" x2="560" y2="143.6" gradientTransform="matrix(1 0 0 -1 0 442)">
			<stop  offset="2.483974e-03" style="stop-color:#57C8E1"/>
			<stop  offset="0.1396" style="stop-color:#58C1DE"/>
			<stop  offset="0.3628" style="stop-color:#58B2D7"/>
			<stop  offset="0.6444" style="stop-color:#579ACB"/>
			<stop  offset="0.9705" style="stop-color:#577ABC"/>
			<stop  offset="1" style="stop-color:#5777BB"/>
		</linearGradient>
		<line class="st13" x1="69.5" y1="298.4" x2="560" y2="298.4"/>
		
			<linearGradient id="SVGID_14_" gradientUnits="userSpaceOnUse" x1="69.5" y1="153.6" x2="560" y2="153.6" gradientTransform="matrix(1 0 0 -1 0 442)">
			<stop  offset="2.483974e-03" style="stop-color:#57C8E1"/>
			<stop  offset="0.1396" style="stop-color:#58C1DE"/>
			<stop  offset="0.3628" style="stop-color:#58B2D7"/>
			<stop  offset="0.6444" style="stop-color:#579ACB"/>
			<stop  offset="0.9705" style="stop-color:#577ABC"/>
			<stop  offset="1" style="stop-color:#5777BB"/>
		</linearGradient>
		<line class="st14" x1="69.5" y1="288.4" x2="560" y2="288.4"/>
		
			<linearGradient id="SVGID_15_" gradientUnits="userSpaceOnUse" x1="69.5" y1="163" x2="560" y2="163" gradientTransform="matrix(1 0 0 -1 0 442)">
			<stop  offset="2.483974e-03" style="stop-color:#57C8E1"/>
			<stop  offset="0.1396" style="stop-color:#58C1DE"/>
			<stop  offset="0.3628" style="stop-color:#58B2D7"/>
			<stop  offset="0.6444" style="stop-color:#579ACB"/>
			<stop  offset="0.9705" style="stop-color:#577ABC"/>
			<stop  offset="1" style="stop-color:#5777BB"/>
		</linearGradient>
		<line class="st15" x1="69.5" y1="279" x2="560" y2="279"/>
		
			<linearGradient id="SVGID_16_" gradientUnits="userSpaceOnUse" x1="69.5" y1="173" x2="560" y2="173" gradientTransform="matrix(1 0 0 -1 0 442)">
			<stop  offset="2.483974e-03" style="stop-color:#57C8E1"/>
			<stop  offset="0.1396" style="stop-color:#58C1DE"/>
			<stop  offset="0.3628" style="stop-color:#58B2D7"/>
			<stop  offset="0.6444" style="stop-color:#579ACB"/>
			<stop  offset="0.9705" style="stop-color:#577ABC"/>
			<stop  offset="1" style="stop-color:#5777BB"/>
		</linearGradient>
		<line class="st16" x1="69.5" y1="269" x2="560" y2="269"/>
	</g>
	<g>
		<g class="st17">
			
				<linearGradient id="SVGID_17_" gradientUnits="userSpaceOnUse" x1="-97.75" y1="344.25" x2="147.75" y2="98.75" gradientTransform="matrix(1 0 0 -1 0 442)">
				<stop  offset="2.483974e-03" style="stop-color:#57C8E1"/>
				<stop  offset="0.1396" style="stop-color:#58C1DE"/>
				<stop  offset="0.3628" style="stop-color:#58B2D7"/>
				<stop  offset="0.6444" style="stop-color:#579ACB"/>
				<stop  offset="0.9705" style="stop-color:#577ABC"/>
				<stop  offset="1" style="stop-color:#5777BB"/>
			</linearGradient>
			<rect class="st18" width="50" height="441"/>
		</g>
		<g>
			
				<linearGradient id="SVGID_18_" gradientUnits="userSpaceOnUse" x1="4.9" y1="519.3" x2="315.1" y2="209.1001" gradientTransform="matrix(0 1 1 0 -74 -140)">
				<stop  offset="0" style="stop-color:#5777BB"/>
				<stop  offset="1" style="stop-color:#57C8E1"/>
			</linearGradient>
			<rect class="st19" width="580.4" height="40"/>
		</g>
		<g class="st20">
			<rect x="50" class="st21" width="97" height="40"/>
		</g>
		<circle class="st21" cx="501.2" cy="20" r="9"/>
		<circle class="st21" cx="539" cy="20" r="9"/>
		<g>
			<g>
				<text transform="matrix(1 0 0 1 61.5157 23.6465)" class="st22 st23 st24">Rakam Demo</text>
				<g>
					<polygon class="st22" points="138,18.5 133.8,22.7 129.6,18.6 129.8,18.3 133.8,22.2 137.7,18.2 					"/>
				</g>
			</g>
		</g>
		<g>
			<g>
				<rect x="16" y="19.7" class="st21" width="4.6" height="8.2"/>
				<rect x="22.7" y="15.6" class="st21" width="4.6" height="12.3"/>
				<rect x="29.4" y="12.1" class="st21" width="4.6" height="15.8"/>
			</g>
		</g>
		<g>
			<rect x="16" y="51.3" class="st21" width="8.6" height="5.5"/>
			<rect x="16" y="58.9" class="st21" width="8.6" height="10.4"/>
			<rect x="26.4" y="51.3" class="st21" width="7.6" height="10.4"/>
			<rect x="26.4" y="63.9" class="st21" width="7.6" height="5.5"/>
		</g>
		<path class="st21" d="M16,84v19.1h17V84h-2.4v0.9c0,0.3-0.3,0.5-0.6,0.5c-0.3,0-0.6-0.2-0.6-0.5V84H27v0.9c0,0.3-0.3,0.5-0.6,0.5
			s-0.6-0.2-0.6-0.5V84h-2.4v0.9c0,0.3-0.3,0.5-0.6,0.5s-0.6-0.2-0.6-0.5V84h-2.4v0.9c0,0.3-0.3,0.5-0.6,0.5c-0.3,0-0.6-0.2-0.6-0.5
			V84H16z M30,90.4H19c-0.3,0-0.6-0.4-0.6-0.9s0.3-0.9,0.6-0.9h11c0.3,0,0.6,0.4,0.6,0.9S30.3,90.4,30,90.4z M30,95.2H19
			c-0.3,0-0.6-0.4-0.6-0.9s0.3-0.9,0.6-0.9h11c0.3,0,0.6,0.4,0.6,0.9C30.6,94.8,30.3,95.2,30,95.2z M30,99.9H19
			c-0.3,0-0.6-0.4-0.6-0.9s0.3-0.9,0.6-0.9h11c0.3,0,0.6,0.4,0.6,0.9S30.3,99.9,30,99.9z"/>
		<g>
			<path class="st21" d="M31.8,119.8c-3.8-3.8-9.9-3.8-13.7,0s-3.8,9.9,0,13.7s9.9,3.8,13.7,0S35.6,123.6,31.8,119.8z M21.6,130.1
				l1.7-5.1l5.1-1.7l-1.7,5.1L21.6,130.1z"/>
		</g>
		<path class="st21" d="M19.9,166.2c0.5,0.6,1,1.1,1.6,1.6v1.3c0,0.2,0.2,0.5,0.4,0.5l2.6,1h0.2c0.2,0,0.3-0.1,0.4-0.2l0.8-1
			c0.8,0.1,1.5,0.1,2.3,0l0.9,0.9c0.2,0.2,0.4,0.2,0.7,0.1l2.6-1.2c0.2-0.1,0.4-0.3,0.4-0.6l-0.1-1.3c0.6-0.5,1.1-1,1.6-1.6h1.3
			c0.2,0,0.5-0.2,0.5-0.4l1-2.7c0.1-0.2,0-0.5-0.2-0.7l-1-0.8c0.1-0.8,0.1-1.5,0-2.3l0.9-0.9c0.2-0.2,0.2-0.4,0.1-0.7l-1.2-2.6
			c-0.1-0.2-0.3-0.4-0.6-0.4l-1.3,0.1c-0.5-0.6-1-1.1-1.6-1.6v-1.2c0-0.2-0.2-0.5-0.4-0.5l-2.5-1c-0.2-0.1-0.5,0-0.7,0.2l-0.8,1
			c-0.8-0.1-1.5-0.1-2.3,0l-0.9-0.9c-0.2-0.2-0.4-0.2-0.7-0.1l-2.6,1.2c-0.2,0.1-0.4,0.3-0.4,0.6l0.1,1.3c-0.6,0.5-1.1,1-1.6,1.6
			h-1.3c-0.2,0-0.5,0.2-0.5,0.4l-1,2.5c-0.1,0.2,0,0.5,0.2,0.7l1,0.8c-0.1,0.8-0.1,1.5,0,2.3l-0.9,0.9c-0.2,0.2-0.2,0.4-0.1,0.7
			l1.2,2.6c0.1,0.2,0.3,0.4,0.6,0.4L19.9,166.2z M22.4,158.7c1-2.6,3.8-3.8,6.4-2.9c2.6,1,3.8,3.8,2.9,6.4c-1,2.6-3.8,3.8-6.4,2.9
			l0,0C22.7,164.1,21.4,161.2,22.4,158.7L22.4,158.7z"/>
	</g>
	<g class="st25">
		
			<linearGradient id="SVGID_19_" gradientUnits="userSpaceOnUse" x1="560.5" y1="361.95" x2="69.6" y2="361.95" gradientTransform="matrix(1 0 0 -1 0 442)">
			<stop  offset="2.483974e-03" style="stop-color:#57C8E1"/>
			<stop  offset="0.1396" style="stop-color:#58C1DE"/>
			<stop  offset="0.3628" style="stop-color:#58B2D7"/>
			<stop  offset="0.6444" style="stop-color:#579ACB"/>
			<stop  offset="0.9705" style="stop-color:#577ABC"/>
			<stop  offset="1" style="stop-color:#5777BB"/>
		</linearGradient>
		<path class="st26" d="M552.1,100.6H78c-4.6,0-8.4-2.5-8.4-5.5V65c0-3,3.8-5.5,8.4-5.5h474.1c4.6,0,8.4,2.5,8.4,5.5v30
			C560.5,98.1,556.7,100.6,552.1,100.6z"/>
	</g>
	<text transform="matrix(1 0 0 1 79.5432 82.6951)" class="st21 st27 st28">First Did</text>
	<rect x="132.6" y="70" class="st29" width="149.2" height="20"/>
	<g class="st25">
		
			<linearGradient id="SVGID_20_" gradientUnits="userSpaceOnUse" x1="560.5" y1="310.9" x2="69.6" y2="310.9" gradientTransform="matrix(1 0 0 -1 0 442)">
			<stop  offset="2.483974e-03" style="stop-color:#57C8E1"/>
			<stop  offset="0.1396" style="stop-color:#58C1DE"/>
			<stop  offset="0.3628" style="stop-color:#58B2D7"/>
			<stop  offset="0.6444" style="stop-color:#579ACB"/>
			<stop  offset="0.9705" style="stop-color:#577ABC"/>
			<stop  offset="1" style="stop-color:#5777BB"/>
		</linearGradient>
		<path class="st30" d="M552.1,151.6H78c-4.6,0-8.4-2.5-8.4-5.5v-30c0-3,3.8-5.5,8.4-5.5h474.1c4.6,0,8.4,2.5,8.4,5.5v30
			C560.5,149.1,556.7,151.6,552.1,151.6z"/>
	</g>
	<text transform="matrix(1 0 0 1 79.5432 133.7478)" class="st21 st27 st28">And Did</text>
	<rect x="132.6" y="121.1" class="st29" width="149.2" height="20"/>
	<g class="st25">
		
			<linearGradient id="SVGID_21_" gradientUnits="userSpaceOnUse" x1="560.5" y1="259.8" x2="69.6" y2="259.8" gradientTransform="matrix(1 0 0 -1 0 442)">
			<stop  offset="2.483974e-03" style="stop-color:#57C8E1"/>
			<stop  offset="0.1396" style="stop-color:#58C1DE"/>
			<stop  offset="0.3628" style="stop-color:#58B2D7"/>
			<stop  offset="0.6444" style="stop-color:#579ACB"/>
			<stop  offset="0.9705" style="stop-color:#577ABC"/>
			<stop  offset="1" style="stop-color:#5777BB"/>
		</linearGradient>
		<path class="st31" d="M552.1,202.7H78c-4.6,0-8.4-2.5-8.4-5.5v-30c0-3,3.8-5.5,8.4-5.5h474.1c4.6,0,8.4,2.5,8.4,5.5v30
			C560.5,200.2,556.7,202.7,552.1,202.7z"/>
	</g>
	<text transform="matrix(1 0 0 1 79.5432 184.7991)" class="st21 st27 st28">And Did</text>
	<rect x="132.6" y="172.1" class="st29" width="149.2" height="20"/>
	<g>
		<circle class="st21" cx="64" cy="72" r="3.5"/>
	</g>
	<g>
		<circle class="st21" cx="64" cy="123.1" r="3.5"/>
	</g>
	<g>
		<circle class="st21" cx="64" cy="174.1" r="3.5"/>
	</g>
	<g>
		<g>
			<path class="st21" d="M296.8,75.2c-2.7,0-4.8,2.2-4.8,4.8c0,2.7,2.2,4.8,4.8,4.8c2.7,0,4.8-2.2,4.8-4.8
				C301.6,77.4,299.4,75.2,296.8,75.2z M296.8,84c-2.2,0-4-1.8-4-4s1.8-4,4-4s4,1.8,4,4C300.7,82.2,298.9,84,296.8,84z"/>
			<path class="st21" d="M298.6,79.6h-1.4v-1.4c0-0.2-0.2-0.4-0.4-0.4c-0.2,0-0.4,0.2-0.4,0.4v1.4H295c-0.2,0-0.4,0.2-0.4,0.4
				c0,0.2,0.2,0.4,0.4,0.4h1.4v1.4c0,0.2,0.2,0.4,0.4,0.4c0.2,0,0.4-0.2,0.4-0.4v-1.4h1.4c0.2,0,0.4-0.2,0.4-0.4
				C299.1,79.8,298.9,79.6,298.6,79.6z"/>
		</g>
	</g>
	<g>
		<g>
			<path class="st21" d="M296.8,126.3c-2.7,0-4.8,2.2-4.8,4.8c0,2.7,2.2,4.8,4.8,4.8c2.7,0,4.8-2.2,4.8-4.8
				C301.6,128.4,299.4,126.3,296.8,126.3z M296.8,135.1c-2.2,0-4-1.8-4-4s1.8-4,4-4s4,1.8,4,4C300.7,133.3,298.9,135.1,296.8,135.1z
				"/>
			<path class="st21" d="M298.6,130.7h-1.4v-1.4c0-0.2-0.2-0.4-0.4-0.4c-0.2,0-0.4,0.2-0.4,0.4v1.4H295c-0.2,0-0.4,0.2-0.4,0.4
				s0.2,0.4,0.4,0.4h1.4v1.4c0,0.2,0.2,0.4,0.4,0.4c0.2,0,0.4-0.2,0.4-0.4v-1.4h1.4c0.2,0,0.4-0.2,0.4-0.4
				C299.1,130.9,298.9,130.7,298.6,130.7z"/>
		</g>
	</g>
	<g>
		<g>
			<path class="st21" d="M296.8,177.3c-2.7,0-4.8,2.2-4.8,4.8c0,2.7,2.2,4.8,4.8,4.8c2.7,0,4.8-2.2,4.8-4.8
				C301.6,179.5,299.4,177.3,296.8,177.3z M296.8,186.1c-2.2,0-4-1.8-4-4s1.8-4,4-4s4,1.8,4,4S298.9,186.1,296.8,186.1z"/>
			<path class="st21" d="M298.6,181.7h-1.4v-1.4c0-0.2-0.2-0.4-0.4-0.4c-0.2,0-0.4,0.2-0.4,0.4v1.4H295c-0.2,0-0.4,0.2-0.4,0.4
				s0.2,0.4,0.4,0.4h1.4v1.4c0,0.2,0.2,0.4,0.4,0.4c0.2,0,0.4-0.2,0.4-0.4v-1.4h1.4c0.2,0,0.4-0.2,0.4-0.4S298.9,181.7,298.6,181.7z
				"/>
		</g>
	</g>
	<text transform="matrix(1 0 0 1 141.479 83.0987)" class="st21 st27 st28">Add to Basket</text>
	<polygon class="st32" points="271.2,78.3 267.5,82 263.8,78.3 264,78.1 267.5,81.6 271,78 	"/>
	<text transform="matrix(1 0 0 1 141.479 134.1506)" class="st21 st27 st28">Transaction</text>
	<polygon class="st32" points="271.2,129.3 267.5,133.1 263.8,129.4 264,129.1 267.5,132.6 271,129.1 	"/>
	<text transform="matrix(1 0 0 1 141.479 185.1506)" class="st21 st27 st28">Select Event Type</text>
	<polygon class="st32" points="271.2,180.3 267.5,184.1 263.8,180.4 264,180.1 267.5,183.6 271,180.1 	"/>
	
		<linearGradient id="SVGID_22_" gradientUnits="userSpaceOnUse" x1="70.6" y1="30.7" x2="560" y2="30.7" gradientTransform="matrix(1 0 0 -1 0 442)">
		<stop  offset="2.483974e-03" style="stop-color:#57C8E1"/>
		<stop  offset="0.1396" style="stop-color:#58C1DE"/>
		<stop  offset="0.3628" style="stop-color:#58B2D7"/>
		<stop  offset="0.6444" style="stop-color:#579ACB"/>
		<stop  offset="0.9705" style="stop-color:#577ABC"/>
		<stop  offset="1" style="stop-color:#5777BB"/>
	</linearGradient>
	<rect x="70.6" y="410.2" class="st33" width="489.4" height="2.2"/>
	
		<linearGradient id="SVGID_23_" gradientUnits="userSpaceOnUse" x1="314.6" y1="22.2779" x2="314.6" y2="29.5779" gradientTransform="matrix(1 0 0 -1 0 442)">
		<stop  offset="2.483974e-03" style="stop-color:#57C8E1"/>
		<stop  offset="0.1396" style="stop-color:#58C1DE"/>
		<stop  offset="0.3628" style="stop-color:#58B2D7"/>
		<stop  offset="0.6444" style="stop-color:#579ACB"/>
		<stop  offset="0.9705" style="stop-color:#577ABC"/>
		<stop  offset="1" style="stop-color:#5777BB"/>
	</linearGradient>
	<polygon class="st34" points="315.7,412.4 315.7,419.7 313.5,419.7 313.5,412.4 	"/>
	
		<linearGradient id="SVGID_24_" gradientUnits="userSpaceOnUse" x1="485.4" y1="22.2779" x2="485.4" y2="29.5779" gradientTransform="matrix(1 0 0 -1 0 442)">
		<stop  offset="2.483974e-03" style="stop-color:#57C8E1"/>
		<stop  offset="0.1396" style="stop-color:#58C1DE"/>
		<stop  offset="0.3628" style="stop-color:#58B2D7"/>
		<stop  offset="0.6444" style="stop-color:#579ACB"/>
		<stop  offset="0.9705" style="stop-color:#577ABC"/>
		<stop  offset="1" style="stop-color:#5777BB"/>
	</linearGradient>
	<polygon class="st35" points="486.5,412.4 486.5,419.7 484.3,419.7 484.3,412.4 	"/>
	
		<linearGradient id="SVGID_25_" gradientUnits="userSpaceOnUse" x1="137.5" y1="22.5314" x2="137.5" y2="29.8314" gradientTransform="matrix(1 0 0 -1 0 442)">
		<stop  offset="2.483974e-03" style="stop-color:#57C8E1"/>
		<stop  offset="0.1396" style="stop-color:#58C1DE"/>
		<stop  offset="0.3628" style="stop-color:#58B2D7"/>
		<stop  offset="0.6444" style="stop-color:#579ACB"/>
		<stop  offset="0.9705" style="stop-color:#577ABC"/>
		<stop  offset="1" style="stop-color:#5777BB"/>
	</linearGradient>
	<polygon class="st36" points="138.6,412.2 138.6,419.5 136.4,419.5 136.4,412.2 	"/>
	<g class="st25">
		
			<linearGradient id="SVGID_26_" gradientUnits="userSpaceOnUse" x1="141.4" y1="173" x2="141.4" y2="35.1" gradientTransform="matrix(1 0 0 -1 0 442)">
			<stop  offset="2.483974e-03" style="stop-color:#57C8E1"/>
			<stop  offset="0.1396" style="stop-color:#58C1DE"/>
			<stop  offset="0.3628" style="stop-color:#58B2D7"/>
			<stop  offset="0.6444" style="stop-color:#579ACB"/>
			<stop  offset="0.9705" style="stop-color:#577ABC"/>
			<stop  offset="1" style="stop-color:#5777BB"/>
		</linearGradient>
		<rect x="98.3" y="269" class="st37" width="86.2" height="137.9"/>
	</g>
	<g class="st25">
		
			<linearGradient id="SVGID_27_" gradientUnits="userSpaceOnUse" x1="311.8" y1="125.3" x2="311.8" y2="35.1" gradientTransform="matrix(1 0 0 -1 0 442)">
			<stop  offset="2.483974e-03" style="stop-color:#57C8E1"/>
			<stop  offset="0.1396" style="stop-color:#58C1DE"/>
			<stop  offset="0.3628" style="stop-color:#58B2D7"/>
			<stop  offset="0.6444" style="stop-color:#579ACB"/>
			<stop  offset="0.9705" style="stop-color:#577ABC"/>
			<stop  offset="1" style="stop-color:#5777BB"/>
		</linearGradient>
		<rect x="268.7" y="316.7" class="st38" width="86.2" height="90.2"/>
	</g>
	<g class="st25">
		
			<linearGradient id="SVGID_28_" gradientUnits="userSpaceOnUse" x1="482.2" y1="79.6" x2="482.2" y2="35.1" gradientTransform="matrix(1 0 0 -1 0 442)">
			<stop  offset="2.483974e-03" style="stop-color:#57C8E1"/>
			<stop  offset="0.1396" style="stop-color:#58C1DE"/>
			<stop  offset="0.3628" style="stop-color:#58B2D7"/>
			<stop  offset="0.6444" style="stop-color:#579ACB"/>
			<stop  offset="0.9705" style="stop-color:#577ABC"/>
			<stop  offset="1" style="stop-color:#5777BB"/>
		</linearGradient>
		<rect x="439.1" y="362.4" class="st39" width="86.2" height="44.5"/>
	</g>
	<g>
		<text transform="matrix(1 0 0 1 99.1323 239.7052)" class="st40 st27 st41">Query</text>
	</g>
	<g>
		<text transform="matrix(1 0 0 1 209.7505 239.1199)" class="st42 st27 st41">Save</text>
	</g>
</g>
<g id="Layer_2">
</g>
<g id="Layer_3">
</g>
</svg>
