<svg enable-background="new 0 0 580.4 441" viewBox="0 0 580.4 441" xmlns="http://www.w3.org/2000/svg" xmlns:xlink="http://www.w3.org/1999/xlink"><linearGradient id="a"><stop offset=".002483974" stop-color="#57c8e1"/><stop offset=".1396" stop-color="#58c1de"/><stop offset=".3628" stop-color="#58b2d7"/><stop offset=".6444" stop-color="#579acb"/><stop offset=".9705" stop-color="#577abc"/><stop offset="1" stop-color="#5777bb"/></linearGradient><linearGradient id="b" gradientTransform="matrix(1 0 0 -1 0 442)" gradientUnits="userSpaceOnUse" x1="166" x2="70" xlink:href="#a" y1="205.8" y2="205.8"/><linearGradient id="c" gradientTransform="matrix(1 0 0 -1 0 442)" gradientUnits="userSpaceOnUse" x1="272.775" x2="176.025" xlink:href="#a" y1="205.8" y2="205.8"/><linearGradient id="d" gradientTransform="matrix(1 0 0 -1 0 442)" gradientUnits="userSpaceOnUse" x1="69.5" x2="560" xlink:href="#a" y1="43.6" y2="43.6"/><linearGradient id="e" gradientTransform="matrix(1 0 0 -1 0 442)" gradientUnits="userSpaceOnUse" x1="69.5" x2="560" xlink:href="#a" y1="53.6" y2="53.6"/><linearGradient id="f" gradientTransform="matrix(1 0 0 -1 0 442)" gradientUnits="userSpaceOnUse" x1="69.5" x2="560" xlink:href="#a" y1="63.6" y2="63.6"/><linearGradient id="g" gradientTransform="matrix(1 0 0 -1 0 442)" gradientUnits="userSpaceOnUse" x1="69.5" x2="560" xlink:href="#a" y1="73.6" y2="73.6"/><linearGradient id="h" gradientTransform="matrix(1 0 0 -1 0 442)" gradientUnits="userSpaceOnUse" x1="69.5" x2="560" xlink:href="#a" y1="83.6" y2="83.6"/><linearGradient id="i" gradientTransform="matrix(1 0 0 -1 0 442)" gradientUnits="userSpaceOnUse" x1="69.5" x2="560" xlink:href="#a" y1="93.6" y2="93.6"/><linearGradient id="j" gradientTransform="matrix(1 0 0 -1 0 442)" gradientUnits="userSpaceOnUse" x1="69.5" x2="560" xlink:href="#a" y1="103.6" y2="103.6"/><linearGradient id="k" gradientTransform="matrix(1 0 0 -1 0 442)" gradientUnits="userSpaceOnUse" x1="69.5" x2="560" xlink:href="#a" y1="113.6" y2="113.6"/><linearGradient id="l" gradientTransform="matrix(1 0 0 -1 0 442)" gradientUnits="userSpaceOnUse" x1="69.5" x2="560" xlink:href="#a" y1="123.6" y2="123.6"/><linearGradient id="m" gradientTransform="matrix(1 0 0 -1 0 442)" gradientUnits="userSpaceOnUse" x1="69.5" x2="560" xlink:href="#a" y1="133.6" y2="133.6"/><linearGradient id="n" gradientTransform="matrix(1 0 0 -1 0 442)" gradientUnits="userSpaceOnUse" x1="69.5" x2="560" xlink:href="#a" y1="143.6" y2="143.6"/><linearGradient id="o" gradientTransform="matrix(1 0 0 -1 0 442)" gradientUnits="userSpaceOnUse" x1="69.5" x2="560" xlink:href="#a" y1="153.6" y2="153.6"/><linearGradient id="p" gradientTransform="matrix(1 0 0 -1 0 442)" gradientUnits="userSpaceOnUse" x1="69.5" x2="560" xlink:href="#a" y1="163" y2="163"/><linearGradient id="q" gradientTransform="matrix(1 0 0 -1 0 442)" gradientUnits="userSpaceOnUse" x1="69.5" x2="560" xlink:href="#a" y1="173" y2="173"/><linearGradient id="r" gradientTransform="matrix(1 0 0 -1 0 442)" gradientUnits="userSpaceOnUse" x1="-97.75" x2="147.75" xlink:href="#a" y1="344.25" y2="98.75"/><linearGradient id="s" gradientTransform="matrix(0 1 1 0 -74 -140)" gradientUnits="userSpaceOnUse" x1="4.9" x2="315.1" y1="519.3" y2="209.1001"><stop offset="0" stop-color="#5777bb"/><stop offset="1" stop-color="#57c8e1"/></linearGradient><linearGradient id="t" gradientTransform="matrix(1 0 0 -1 0 442)" gradientUnits="userSpaceOnUse" x1="560.5" x2="69.6" xlink:href="#a" y1="361.95" y2="361.95"/><linearGradient id="u" gradientTransform="matrix(1 0 0 -1 0 442)" gradientUnits="userSpaceOnUse" x1="560.5" x2="69.6" xlink:href="#a" y1="310.9" y2="310.9"/><linearGradient id="v" gradientTransform="matrix(1 0 0 -1 0 442)" gradientUnits="userSpaceOnUse" x1="560.5" x2="69.6" xlink:href="#a" y1="259.8" y2="259.8"/><linearGradient id="w" gradientTransform="matrix(1 0 0 -1 0 442)" gradientUnits="userSpaceOnUse" x1="70.6" x2="560" xlink:href="#a" y1="30.7" y2="30.7"/><linearGradient id="x" gradientTransform="matrix(1 0 0 -1 0 442)" gradientUnits="userSpaceOnUse" x1="314.6" x2="314.6" xlink:href="#a" y1="22.2779" y2="29.5779"/><linearGradient id="y" gradientTransform="matrix(1 0 0 -1 0 442)" gradientUnits="userSpaceOnUse" x1="485.4" x2="485.4" xlink:href="#a" y1="22.2779" y2="29.5779"/><linearGradient id="z" gradientTransform="matrix(1 0 0 -1 0 442)" gradientUnits="userSpaceOnUse" x1="137.5" x2="137.5" xlink:href="#a" y1="22.5314" y2="29.8314"/><linearGradient id="A" gradientTransform="matrix(1 0 0 -1 0 442)" gradientUnits="userSpaceOnUse" x1="141.4" x2="141.4" xlink:href="#a" y1="173" y2="35.1"/><linearGradient id="B" gradientTransform="matrix(1 0 0 -1 0 442)" gradientUnits="userSpaceOnUse" x1="311.8" x2="311.8" xlink:href="#a" y1="125.3" y2="35.1"/><linearGradient id="C" gradientTransform="matrix(1 0 0 -1 0 442)" gradientUnits="userSpaceOnUse" x1="482.2" x2="482.2" xlink:href="#a" y1="79.6" y2="35.1"/><path d="m163 251.2h-90c-1.7 0-3-1.4-3-3v-24c0-1.7 1.3-3 3-3h90c1.7 0 3 1.3 3 3v24c0 1.6-1.3 3-3 3z" fill="url(#b)"/><path d="m269.4 251.2h-90c-1.6 0-3-1.4-3-3v-24c0-1.7 1.4-3 3-3h90c1.6 0 3 1.3 3 3v24c0 1.6-1.4 3-3 3z" fill="none" stroke="url(#c)" stroke-miterlimit="10" stroke-width=".75"/><g fill="none" opacity=".2" stroke-miterlimit="10"><path d="m69.5 398.4h490.5" stroke="url(#d)"/><path d="m69.5 388.4h490.5" stroke="url(#e)"/><path d="m69.5 378.4h490.5" stroke="url(#f)"/><path d="m69.5 368.4h490.5" stroke="url(#g)"/><path d="m69.5 358.4h490.5" stroke="url(#h)"/><path d="m69.5 348.4h490.5" stroke="url(#i)"/><path d="m69.5 338.4h490.5" stroke="url(#j)"/><path d="m69.5 328.4h490.5" stroke="url(#k)"/><path d="m69.5 318.4h490.5" stroke="url(#l)"/><path d="m69.5 308.4h490.5" stroke="url(#m)"/><path d="m69.5 298.4h490.5" stroke="url(#n)"/><path d="m69.5 288.4h490.5" stroke="url(#o)"/><path d="m69.5 279h490.5" stroke="url(#p)"/><path d="m69.5 269h490.5" stroke="url(#q)"/></g><path d="m0 0h50v441h-50z" fill="url(#r)" opacity=".8"/><path d="m0 0h580.4v40h-580.4z" fill="url(#s)"/><path d="m50 0h97v40h-97z" fill="#fff" opacity=".44"/><circle cx="501.2" cy="20" fill="#fff" r="9"/><circle cx="539" cy="20" fill="#fff" r="9"/><text fill="#3c3c3c" font-family="'Arial'" font-size="9.002" transform="translate(61.5157 23.6465)">Rakam Demo</text><path d="m138 18.5-4.2 4.2-4.2-4.1.2-.3 4 3.9 3.9-4z" fill="#3c3c3c"/><path d="m16 19.7h4.6v8.2h-4.6z" fill="#fff"/><path d="m22.7 15.6h4.6v12.3h-4.6z" fill="#fff"/><path d="m29.4 12.1h4.6v15.8h-4.6z" fill="#fff"/><path d="m16 51.3h8.6v5.5h-8.6z" fill="#fff"/><path d="m16 58.9h8.6v10.4h-8.6z" fill="#fff"/><path d="m26.4 51.3h7.6v10.4h-7.6z" fill="#fff"/><path d="m26.4 63.9h7.6v5.5h-7.6z" fill="#fff"/><path d="m16 84v19.1h17v-19.1h-2.4v.9c0 .3-.3.5-.6.5s-.6-.2-.6-.5v-.9h-2.4v.9c0 .3-.3.5-.6.5s-.6-.2-.6-.5v-.9h-2.4v.9c0 .3-.3.5-.6.5s-.6-.2-.6-.5v-.9h-2.4v.9c0 .3-.3.5-.6.5s-.6-.2-.6-.5v-.9zm14 6.4h-11c-.3 0-.6-.4-.6-.9s.3-.9.6-.9h11c.3 0 .6.4.6.9s-.3.9-.6.9zm0 4.8h-11c-.3 0-.6-.4-.6-.9s.3-.9.6-.9h11c.3 0 .6.4.6.9s-.3.9-.6.9zm0 4.7h-11c-.3 0-.6-.4-.6-.9s.3-.9.6-.9h11c.3 0 .6.4.6.9s-.3.9-.6.9z" fill="#fff"/><path d="m31.8 119.8c-3.8-3.8-9.9-3.8-13.7 0s-3.8 9.9 0 13.7 9.9 3.8 13.7 0 3.8-9.9 0-13.7zm-10.2 10.3 1.7-5.1 5.1-1.7-1.7 5.1z" fill="#fff"/><path d="m19.9 166.2c.5.6 1 1.1 1.6 1.6v1.3c0 .2.2.5.4.5l2.6 1h.2c.2 0 .3-.1.4-.2l.8-1c.8.1 1.5.1 2.3 0l.9.9c.2.2.4.2.7.1l2.6-1.2c.2-.1.4-.3.4-.6l-.1-1.3c.6-.5 1.1-1 1.6-1.6h1.3c.2 0 .5-.2.5-.4l1-2.7c.1-.2 0-.5-.2-.7l-1-.8c.1-.8.1-1.5 0-2.3l.9-.9c.2-.2.2-.4.1-.7l-1.2-2.6c-.1-.2-.3-.4-.6-.4l-1.3.1c-.5-.6-1-1.1-1.6-1.6v-1.2c0-.2-.2-.5-.4-.5l-2.5-1c-.2-.1-.5 0-.7.2l-.8 1c-.8-.1-1.5-.1-2.3 0l-.9-.9c-.2-.2-.4-.2-.7-.1l-2.6 1.2c-.2.1-.4.3-.4.6l.1 1.3c-.6.5-1.1 1-1.6 1.6h-1.3c-.2 0-.5.2-.5.4l-1 2.5c-.1.2 0 .5.2.7l1 .8c-.1.8-.1 1.5 0 2.3l-.9.9c-.2.2-.2.4-.1.7l1.2 2.6c.1.2.3.4.6.4zm2.5-7.5c1-2.6 3.8-3.8 6.4-2.9 2.6 1 3.8 3.8 2.9 6.4-1 2.6-3.8 3.8-6.4 2.9-2.6-1-3.9-3.9-2.9-6.4z" fill="#fff"/><path d="m552.1 100.6h-474.1c-4.6 0-8.4-2.5-8.4-5.5v-30.1c0-3 3.8-5.5 8.4-5.5h474.1c4.6 0 8.4 2.5 8.4 5.5v30c0 3.1-3.8 5.6-8.4 5.6z" fill="url(#t)" opacity=".9"/><text fill="#fff" font-family="'Arial'" font-size="10" transform="translate(79.5432 82.6951)">First Did</text><path d="m132.6 70h149.2v20h-149.2z" fill="none" stroke="#fff" stroke-miterlimit="10"/><path d="m552.1 151.6h-474.1c-4.6 0-8.4-2.5-8.4-5.5v-30c0-3 3.8-5.5 8.4-5.5h474.1c4.6 0 8.4 2.5 8.4 5.5v30c0 3-3.8 5.5-8.4 5.5z" fill="url(#u)" opacity=".9"/><text fill="#fff" font-family="'Arial'" font-size="10" transform="translate(79.5432 133.7478)">And Did</text><path d="m132.6 121.1h149.2v20h-149.2z" fill="none" stroke="#fff" stroke-miterlimit="10"/><path d="m552.1 202.7h-474.1c-4.6 0-8.4-2.5-8.4-5.5v-30c0-3 3.8-5.5 8.4-5.5h474.1c4.6 0 8.4 2.5 8.4 5.5v30c0 3-3.8 5.5-8.4 5.5z" fill="url(#v)" opacity=".9"/><text fill="#fff" font-family="'Arial'" font-size="10" transform="translate(79.5432 184.7991)">And Did</text><path d="m132.6 172.1h149.2v20h-149.2z" fill="none" stroke="#fff" stroke-miterlimit="10"/><g fill="#fff"><circle cx="64" cy="72" r="3.5"/><circle cx="64" cy="123.1" r="3.5"/><circle cx="64" cy="174.1" r="3.5"/><path d="m296.8 75.2c-2.7 0-4.8 2.2-4.8 4.8 0 2.7 2.2 4.8 4.8 4.8 2.7 0 4.8-2.2 4.8-4.8s-2.2-4.8-4.8-4.8zm0 8.8c-2.2 0-4-1.8-4-4s1.8-4 4-4 4 1.8 4 4c-.1 2.2-1.9 4-4 4z"/><path d="m298.6 79.6h-1.4v-1.4c0-.2-.2-.4-.4-.4s-.4.2-.4.4v1.4h-1.4c-.2 0-.4.2-.4.4s.2.4.4.4h1.4v1.4c0 .2.2.4.4.4s.4-.2.4-.4v-1.4h1.4c.2 0 .4-.2.4-.4.1-.2-.1-.4-.4-.4z"/><path d="m296.8 126.3c-2.7 0-4.8 2.2-4.8 4.8 0 2.7 2.2 4.8 4.8 4.8 2.7 0 4.8-2.2 4.8-4.8 0-2.7-2.2-4.8-4.8-4.8zm0 8.8c-2.2 0-4-1.8-4-4s1.8-4 4-4 4 1.8 4 4c-.1 2.2-1.9 4-4 4z"/><path d="m298.6 130.7h-1.4v-1.4c0-.2-.2-.4-.4-.4s-.4.2-.4.4v1.4h-1.4c-.2 0-.4.2-.4.4s.2.4.4.4h1.4v1.4c0 .2.2.4.4.4s.4-.2.4-.4v-1.4h1.4c.2 0 .4-.2.4-.4.1-.2-.1-.4-.4-.4z"/><path d="m296.8 177.3c-2.7 0-4.8 2.2-4.8 4.8 0 2.7 2.2 4.8 4.8 4.8 2.7 0 4.8-2.2 4.8-4.8s-2.2-4.8-4.8-4.8zm0 8.8c-2.2 0-4-1.8-4-4s1.8-4 4-4 4 1.8 4 4-1.9 4-4 4z"/><path d="m298.6 181.7h-1.4v-1.4c0-.2-.2-.4-.4-.4s-.4.2-.4.4v1.4h-1.4c-.2 0-.4.2-.4.4s.2.4.4.4h1.4v1.4c0 .2.2.4.4.4s.4-.2.4-.4v-1.4h1.4c.2 0 .4-.2.4-.4s-.1-.4-.4-.4z"/><text font-family="'Arial'" font-size="10" transform="translate(141.479 83.0987)">Add to Basket</text><path d="m271.2 78.3-3.7 3.7-3.7-3.7.2-.2 3.5 3.5 3.5-3.6z" stroke="#fff" stroke-miterlimit="10"/><text font-family="'Arial'" font-size="10" transform="translate(141.479 134.1506)">Transaction</text><path d="m271.2 129.3-3.7 3.8-3.7-3.7.2-.3 3.5 3.5 3.5-3.5z" stroke="#fff" stroke-miterlimit="10"/><text font-family="'Arial'" font-size="10" transform="translate(141.479 185.1506)">Select Event Type</text><path d="m271.2 180.3-3.7 3.8-3.7-3.7.2-.3 3.5 3.5 3.5-3.5z" stroke="#fff" stroke-miterlimit="10"/></g><path d="m70.6 410.2h489.4v2.2h-489.4z" fill="url(#w)" opacity=".5"/><path d="m315.7 412.4v7.3h-2.2v-7.3z" fill="url(#x)" opacity=".5"/><path d="m486.5 412.4v7.3h-2.2v-7.3z" fill="url(#y)" opacity=".5"/><path d="m138.6 412.2v7.3h-2.2v-7.3z" fill="url(#z)" opacity=".5"/><path d="m98.3 269h86.2v137.9h-86.2z" fill="url(#A)" opacity=".9"/><path d="m268.7 316.7h86.2v90.2h-86.2z" fill="url(#B)" opacity=".9"/><path d="m439.1 362.4h86.2v44.5h-86.2z" fill="url(#C)" opacity=".9"/><text fill="#fdfefe" font-family="'Arial'" font-size="12" transform="translate(99.1323 239.7052)">Query</text><text fill="#5877ba" font-family="'Arial'" font-size="12" transform="translate(209.7505 239.1199)">Save</text></svg>