<svg height="390" viewBox="0 0 582 441" width="582" xmlns="http://www.w3.org/2000/svg" xmlns:xlink="http://www.w3.org/1999/xlink"><linearGradient id="a" x1="9.304356%" x2="90.938257%" y1="111.604675%" y2="-11.93995%"><stop offset="1" stop-color="#4dc0e7"/><stop offset="1" stop-color="#5772c1"/></linearGradient><linearGradient id="b" x1="72.043175%" x2="31.68893%" y1="18.801299%" y2="77.090324%"><stop offset="0" stop-color="#fff900"/><stop offset="1" stop-color="#fee258"/></linearGradient><linearGradient id="c" x1="-.034712%" x2="99.976105%" y1="49.962758%" y2="49.962758%"><stop offset=".002483974" stop-color="#e2d94d"/><stop offset=".1353" stop-color="#ded957"/><stop offset=".3515" stop-color="#d1d770"/><stop offset=".6242" stop-color="#bcd590"/><stop offset=".94" stop-color="#9bd3b8"/><stop offset="1" stop-color="#94d3c1"/></linearGradient><linearGradient id="d" x1="-.022546%" x2="100.018337%" y1="50.057751%" y2="50.057751%"><stop offset=".002483974" stop-color="#0f998e"/><stop offset=".08194568" stop-color="#2ea08a"/><stop offset=".2713" stop-color="#50ad81"/><stop offset=".4754" stop-color="#62b778"/><stop offset=".7028" stop-color="#6dbe72"/><stop offset="1" stop-color="#6fc171"/></linearGradient><linearGradient id="e"><stop offset=".002483974" stop-color="#0f998e"/><stop offset=".2964" stop-color="#40a686"/><stop offset=".7455" stop-color="#64b877"/><stop offset="1" stop-color="#6fc171"/></linearGradient><linearGradient id="f" x1="-.009187%" x2="99.985741%" xlink:href="#e" y1="49.844521%" y2="49.844521%"/><linearGradient id="g" x1="-.009187%" x2="99.985741%" xlink:href="#e" y1="49.987671%" y2="49.987671%"/><linearGradient id="h" x1="-.009187%" x2="99.985741%" xlink:href="#e" y1="49.927397%" y2="49.927397%"/><linearGradient id="i" x1="-.009187%" x2="99.985741%" xlink:href="#e" y1="50.154795%" y2="50.154795%"/><linearGradient id="j" x1=".139462%" x2="100.363677%" xlink:href="#e" y1="51.329268%" y2="51.329268%"/><linearGradient id="k" x1=".139462%" x2="100.363677%" xlink:href="#e" y1="51.17561%" y2="51.17561%"/><linearGradient id="l" x1=".139462%" x2="100.363677%" xlink:href="#e" y1="51.068293%" y2="51.068293%"/><linearGradient id="m" x1=".139462%" x2="100.363677%" xlink:href="#e" y1="50.960976%" y2="50.960976%"/><linearGradient id="n" x1=".139462%" x2="100.363677%" xlink:href="#e" y1="51.365854%" y2="51.365854%"/><linearGradient id="o" x1=".139462%" x2="100.363677%" xlink:href="#e" y1="49.331707%" y2="49.331707%"/><linearGradient id="p" x1="-.169058%" x2="100.054709%" xlink:href="#e" y1="51.329268%" y2="51.329268%"/><linearGradient id="q" x1="-.169058%" x2="100.054709%" xlink:href="#e" y1="51.17561%" y2="51.17561%"/><linearGradient id="r" x1="-.169058%" x2="100.054709%" xlink:href="#e" y1="51.068293%" y2="51.068293%"/><linearGradient id="s" x1="-.169058%" x2="100.054709%" xlink:href="#e" y1="50.960976%" y2="50.960976%"/><linearGradient id="t" x1="-.169058%" x2="100.054709%" xlink:href="#e" y1="51.365854%" y2="51.365854%"/><linearGradient id="u" x1="-.169058%" x2="100.054709%" xlink:href="#e" y1="49.331707%" y2="49.331707%"/><linearGradient id="v" x1=".029596%" x2="100.253812%" xlink:href="#e" y1="51.329268%" y2="51.329268%"/><linearGradient id="w" x1=".029596%" x2="100.253812%" xlink:href="#e" y1="51.17561%" y2="51.17561%"/><linearGradient id="x" x1=".029596%" x2="100.253812%" xlink:href="#e" y1="51.068293%" y2="51.068293%"/><linearGradient id="y" x1=".029596%" x2="100.253812%" xlink:href="#e" y1="50.960976%" y2="50.960976%"/><linearGradient id="z" x1=".029596%" x2="100.253812%" xlink:href="#e" y1="51.365854%" y2="51.365854%"/><linearGradient id="A" x1=".029596%" x2="100.253812%" xlink:href="#e" y1="49.331707%" y2="49.331707%"/><linearGradient id="B" x1="-.215695%" x2="100.00852%" xlink:href="#e" y1="51.329268%" y2="51.329268%"/><linearGradient id="C" x1="-.215695%" x2="100.00852%" xlink:href="#e" y1="51.17561%" y2="51.17561%"/><linearGradient id="D" x1="-.215695%" x2="100.00852%" xlink:href="#e" y1="51.068293%" y2="51.068293%"/><linearGradient id="E" x1="-.215695%" x2="100.00852%" xlink:href="#e" y1="50.960976%" y2="50.960976%"/><linearGradient id="F" x1="-.215695%" x2="100.00852%" xlink:href="#e" y1="51.365854%" y2="51.365854%"/><linearGradient id="G" x1="-.215695%" x2="100.00852%" xlink:href="#e" y1="49.331707%" y2="49.331707%"/><linearGradient id="H" x1="-.02486%" x2="99.971402%" xlink:href="#e" y1="49.693548%" y2="49.693548%"/><linearGradient id="I" x1=".076075%" x2="100.07215%" xlink:href="#e" y1="49.693548%" y2="49.693548%"/><linearGradient id="J" x1="99.954375%" x2="-.045625%" y1="49.922667%" y2="49.922667%"><stop offset="0" stop-color="#6fc171"/><stop offset="1" stop-color="#0f998e"/></linearGradient><linearGradient id="K" x1="-.512604%" x2="100.529062%" xlink:href="#e" y1="49.922667%" y2="49.922667%"/><linearGradient id="L" x1="-.000347%" x2="99.987482%" xlink:href="#e" y1="50.002078%" y2="50.002078%"/><linearGradient id="M"><stop offset=".002483974" stop-color="#57c8e1"/><stop offset=".1396" stop-color="#58c1de"/><stop offset=".3628" stop-color="#58b2d7"/><stop offset=".6444" stop-color="#579acb"/><stop offset=".9705" stop-color="#577abc"/><stop offset="1" stop-color="#5777bb"/></linearGradient><linearGradient id="N" x1="0%" x2="100%" xlink:href="#M" y1="50%" y2="50%"/><linearGradient id="O" x1="50%" x2="50%" xlink:href="#M" y1="100.30274%" y2=".30274%"/><linearGradient id="P" x1="50%" x2="50%" xlink:href="#M" y1="99.569863%" y2="-.430137%"/><linearGradient id="Q" x1="50%" x2="50%" xlink:href="#M" y1="0%" y2="100%"/><linearGradient id="R" x1="0%" x2="100%" xlink:href="#M" y1="0%" y2="0%"/><linearGradient id="S" x1="100%" x2="0%" xlink:href="#M" y1="50%" y2="50%"/><linearGradient id="T" x1="100.390625%" x2="-.390625%" xlink:href="#M" y1="50%" y2="50%"/><linearGradient id="U" x1=".003136%" x2="100.009817%" y1="49.985203%" y2="49.985203%"><stop offset="0" stop-color="#f16079"/><stop offset="1" stop-color="#b34592"/></linearGradient><linearGradient id="V"><stop offset=".002483974" stop-color="#b34592"/><stop offset=".2029" stop-color="#ba488f"/><stop offset=".529" stop-color="#cc4f88"/><stop offset=".9383" stop-color="#ea5d7b"/><stop offset="1" stop-color="#f16079"/></linearGradient><linearGradient id="W" x1="100.016042%" x2=".016042%" xlink:href="#V" y1="50.158333%" y2="50.158333%"/><linearGradient id="X" x1=".039688%" x2="100.039687%" xlink:href="#V" y1="50.158333%" y2="50.158333%"/><linearGradient id="Y" x1=".003139%" x2="100.000734%" xlink:href="#V" y1="50.009024%" y2="50.009024%"/><linearGradient id="Z" x1=".003139%" x2="100.000734%" xlink:href="#V" y1="49.892195%" y2="49.892195%"/><linearGradient id="aa" x1="-.022453%" x2="99.954089%" xlink:href="#V" y1="50.0395%" y2="50.0395%"/><linearGradient id="ab" x1=".010322%" x2="99.986997%" xlink:href="#V" y1="50.0395%" y2="50.0395%"/><linearGradient id="ac"><stop offset=".002483974" stop-color="#3cc1f1"/><stop offset=".1331" stop-color="#3dbced"/><stop offset=".3458" stop-color="#3bade2"/><stop offset=".614" stop-color="#3f95d1"/><stop offset=".9246" stop-color="#4277bb"/><stop offset="1" stop-color="#426fb6"/></linearGradient><linearGradient id="ad" x1="22.753839%" x2="77.288217%" xlink:href="#ac" y1="-9.755225%" y2="109.736764%"/><linearGradient id="ae" x1="100.005938%" x2=".005938%" xlink:href="#ac" y1="49.976333%" y2="49.976333%"/><linearGradient id="af" x1="-.565208%" x2="100.476458%" xlink:href="#ac" y1="49.976333%" y2="49.976333%"/><linearGradient id="ag" x1=".012967%" x2="100.01864%" xlink:href="#ac" y1="50.027794%" y2="50.027794%"/><linearGradient id="ah" x1=".007255%" x2="100.007255%" xlink:href="#ac" y1="4.27%" y2="4.27%"/><linearGradient id="ai" x1="50.007255%" x2="50.007255%" xlink:href="#ac" y1="17.96%" y2="-7.04%"/><linearGradient id="aj" x1="50.007255%" x2="50.007255%" xlink:href="#ac" y1="15.13%" y2="-9.87%"/><linearGradient id="ak" x1="50.007255%" x2="50.007255%" xlink:href="#ac" y1="21.7%" y2="-3.3%"/><linearGradient id="al" x1="-50.610496%" x2="150.621623%" xlink:href="#ac" y1="5.06271%" y2="94.963451%"/><linearGradient id="am" x1="-195.5%" x2="295.5%" xlink:href="#M" y1="22.165533%" y2="77.834467%"/><linearGradient id="an" x1="76.720813%" x2="23.276361%" y1="-337.74%" y2="437.73925%"><stop offset="0" stop-color="#5777bb"/><stop offset="1" stop-color="#57c8e1"/></linearGradient><g fill="none" fill-rule="evenodd"><g transform="translate(329 60)"><path d="m226 161.5h-223c-1.7 0-3-1.3-3-3v-152.7c0-2.8 2.2-5 5-5h221c2.8 0 5 2.2 5 5v150.7c0 2.7-2.2 5-5 5z" fill="url(#a)" fill-rule="nonzero"/><text fill="#fff" font-family="Geneva" font-size="9"><tspan x="26" y="25">Profit by Weekdays</tspan></text><g fill-rule="nonzero"><path d="m26 129h180v2h-180z" fill="#fff"/><path d="m135 83h16v23h-16z" fill="#fff"/><path d="m160 82h16v25h-16z" fill="#fff"/><path d="m160 108h16v10h-16z" fill="url(#b)" opacity=".75"/><path d="m109 108h16v15h-16z" fill="url(#b)" opacity=".75"/><path d="m84 108h16v11h-16z" fill="url(#b)" opacity=".75"/><path d="m185 68h16v38h-16z" fill="#fff"/><path d="m34 58h16v49h-16z" fill="#fff"/><path d="m59 51h16v55h-16z" fill="#fff"/><path d="m84 72h16v34h-16z" fill="#fff"/><path d="m109 76h16v31h-16z" fill="#fff"/></g><path d="m196 141v-9" stroke="#fff" stroke-width="2"/><path d="m168 141v-9" stroke="#fff" stroke-width="2"/><path d="m143 141v-9" stroke="#fff" stroke-width="2"/><path d="m92 141v-9" stroke="#fff" stroke-width="2"/><path d="m40 141v-9" stroke="#fff" stroke-width="2"/><path d="m117 141v-9" stroke="#fff" stroke-width="2"/><path d="m67 141v-9" stroke="#fff" stroke-width="2"/></g><g transform="translate(329 236)"><path d="m99.7 186.2h-92.8c-3.8 0-6.9-3.1-6.9-6.9v-172c0-3.8 3.1-6.9 6.9-6.9h92.8c3.8 0 6.9 3.1 6.9 6.9v172c0 3.9-3.1 6.9-6.9 6.9z" fill="url(#a)" fill-rule="nonzero" opacity=".9"/><text fill="#fff" font-family="Geneva" font-size="9"><tspan x="14" y="25">Profit/Loss</tspan></text><g fill-rule="nonzero" opacity=".75" transform="translate(14 59)"><path d="m35.9 5.7c-19.7 0-35.7 16-35.7 35.7s16 35.7 35.7 35.7 35.7-16 35.7-35.7h-35.7z" fill="#fff"/><path d="m77.6 36.3c0-19.7-16-35.7-35.7-35.7v35.7z" fill="url(#b)"/></g></g><g transform="translate(71 236)"><path d="m238.6 186.2h-233.3c-2.8 0-5-2.2-5-5v-175.7c0-2.8 2.2-5 5-5h233.2c2.8 0 5 2.2 5 5v175.7c.1 2.8-2.2 5-4.9 5z" fill="url(#a)" fill-rule="nonzero" opacity=".9"/><text fill="#fff" font-family="Geneva" font-size="9"><tspan x="17" y="25">Last Actions</tspan></text><g fill-rule="nonzero"><path d="m17 167h210v2h-210z" fill="#fff"/><path d="m149 129h16v35h-16z" fill="#fff"/><path d="m23 95h16v69h-16z" fill="#fff"/><path d="m48 85h16v79h-16z" fill="url(#b)" opacity=".75"/><path d="m201 85h16v79h-16z" fill="#fff"/><path d="m74 147h16v17h-16z" fill="#fff"/><path d="m99 58h16v106h-16z" fill="#fff"/><path d="m175 110h16v54h-16z" fill="url(#b)" opacity=".75"/><path d="m124 109h16v55h-16z" fill="url(#b)" opacity=".75"/></g></g><g transform="translate(450 236)"><path d="m104.4 186.2h-97.1c-3.8 0-6.9-3.1-6.9-6.9v-172c0-3.8 3.1-6.9 6.9-6.9h97.1c3.8 0 6.9 3.1 6.9 6.9v172c0 3.9-3.1 6.9-6.9 6.9z" fill="url(#a)" fill-rule="nonzero" opacity=".9"/><text fill="#fff" font-family="Geneva" font-size="9"><tspan x="16" y="25">Win/Lose</tspan></text><g fill-rule="nonzero" opacity=".75" transform="translate(20 61)"><path d="m42.5.1c19.7 0 35.7 16 35.7 35.7 0 7.3-2.2 14.1-5.9 19.7l-33.5-19.7z" fill="url(#b)"/><path d="m36.3 2.3c-19.7 0-35.7 16-35.7 35.7s16 35.7 35.7 35.7c12.4 0 23.4-6.4 29.8-16l-32.8-19.7z" fill="#fff"/></g></g><g transform="translate(71 60)"><path d="m238.7 161.5h-233.3c-2.8 0-5-2.2-5-5v-150.7c0-2.8 2.2-5 5-5h233.2c2.8 0 5 2.2 5 5v150.7c.1 2.7-2.2 5-4.9 5z" fill="url(#a)" fill-rule="nonzero"/><path d="m24.4 43.8h180.3" stroke="#fff"/><text fill="#fff" font-family="Geneva" font-size="9"><tspan x="21" y="26">Bet Counts</tspan></text><path d="m24 132h180v2h-180z" fill="#fff" fill-rule="nonzero"/><path d="m25 75.77382s24.059677-51.5657522 44.625209 4.012899c20.365867 54.876394 33.344116 42.938019 46.1227 25.682554 10.781929-14.546759 29.450641-58.989616 55.10764-10.032248 18.069716 34.410609 33.144451 29.294163 33.144451 29.294163" stroke="#fff"/><g fill="#fff" fill-rule="nonzero"><circle cx="32" cy="65" r="2" transform="matrix(.41850638 -.90821386 .90821386 .41850638 -40.426105 66.859929)"/><circle cx="64" cy="67" r="2" transform="matrix(.41850638 -.90821386 .90821386 .41850638 -23.634737 97.085759)"/><circle cx="73" cy="87" r="2" transform="matrix(.41850638 -.90821386 .90821386 .41850638 -36.565571 116.889556)"/><circle cx="81" cy="103" r="2" transform="matrix(.41850638 -.90821386 .90821386 .41850638 -46.445044 133.459165)"/><circle cx="91" cy="116" r="2" transform="matrix(.41850638 -.90821386 .90821386 .41850638 -52.436888 150.100721)"/><circle cx="107" cy="116" r="2" transform="matrix(.41850638 -.90821386 .90821386 .41850638 -43.13299 164.632142)"/><circle cx="118" cy="104" r="2" transform="matrix(.41850638 -.90821386 .90821386 .41850638 -25.837994 167.644571)"/><circle cx="127" cy="89" r="2" transform="matrix(.41850638 -.90821386 .90821386 .41850638 -6.981344 167.096092)"/><circle cx="138" cy="76" r="2" transform="matrix(.41850638 -.90821386 .90821386 .41850638 11.221866 169.527027)"/><circle cx="157" cy="76" r="2" transform="matrix(.41850638 -.90821386 .90821386 .41850638 22.270245 186.78309)"/><circle cx="167" cy="87" r="2" transform="matrix(.41850638 -.90821386 .90821386 .41850638 18.094829 202.261659)"/><circle cx="175" cy="101" r="2" transform="matrix(.41850638 -.90821386 .90821386 .41850638 10.031784 217.66828)"/><circle cx="189" cy="118" r="2" transform="matrix(.41850638 -.90821386 .90821386 .41850638 2.733059 240.268666)"/><circle cx="47" cy="54" r="2" transform="matrix(.41850638 -.90821386 .90821386 .41850638 -21.713348 74.086707)"/></g><g opacity=".212946" stroke="#fff" transform="translate(24 43)"><path d="m.4 77.6h180.3"/><path d="m.4 66.7h180.3"/><path d="m.4 55.7h180.3"/><path d="m.4 44.7h180.3"/><path d="m.4 33.7h180.3"/><path d="m.4 22.8h180.3"/><path d="m.4 11.8h180.3"/></g></g><g transform="translate(69 281)"><path d="m.5 15.8s65.8-17 122.5 1.3c55.9 18.2 75.2 13.2 126.4 8.5 33.5-3.1 66.8-19.4 158-4.9 75 11.9 84 11.3 84 11.3" stroke="url(#c)"/><path d="m4.3 30.4s142.9-36.7 320.1-4.7c0 0 70.1 12.6 166.9 1" stroke="url(#d)"/><path d="m.5 35.9h490.9v14.6h-490.9z" fill="url(#f)" fill-rule="nonzero" opacity=".5"/><path d="m.5 66.7h490.9v14.6h-490.9z" fill="url(#g)" fill-rule="nonzero" opacity=".5"/><path d="m.5 98.5h490.9v14.6h-490.9z" fill="url(#h)" fill-rule="nonzero" opacity=".5"/><path d="m.5 128.9h490.9v14.6h-490.9z" fill="url(#i)" fill-rule="nonzero" opacity=".5"/><text fill="#0a6057" font-family="Helvetica" font-size="9"><tspan x="36.7183" y="46.1338">Country</tspan></text><text fill="#0a6057" font-family="Helvetica" font-size="9"><tspan x="108.064" y="46.1338">Unique Users</tspan></text><text fill="#0a6057" font-family="Helvetica" font-size="9"><tspan x="195.4922" y="45.8838">Total Events</tspan></text><text fill="#0a6057" font-family="Helvetica" font-size="9"><tspan x="296.9105" y="45.8838">Ratio</tspan></text><g fill-rule="nonzero"><circle cx="103.4" cy="42.3" fill="#fff" r="1.5"/><circle cx="191.5" cy="43.3" fill="#fff" r="1.5"/><g opacity=".7" transform="translate(43 55)"><path d="m0 .5h22.3v4.1h-22.3z" fill="url(#j)"/><path d="m0 16.9h22.3v4.1h-22.3z" fill="url(#k)"/><path d="m0 32.8h22.3v4.1h-22.3z" fill="url(#l)"/><path d="m0 48.7h22.3v4.1h-22.3z" fill="url(#m)"/><path d="m0 63.9h22.3v4.1h-22.3z" fill="url(#n)"/><path d="m0 79.2h22.3v4.1h-22.3z" fill="url(#o)"/></g><g opacity=".7" transform="translate(129 55)"><path d="m.7.5h22.3v4.1h-22.3z" fill="url(#p)"/><path d="m.7 16.9h22.3v4.1h-22.3z" fill="url(#q)"/><path d="m.7 32.8h22.3v4.1h-22.3z" fill="url(#r)"/><path d="m.7 48.7h22.3v4.1h-22.3z" fill="url(#s)"/><path d="m.7 63.9h22.3v4.1h-22.3z" fill="url(#t)"/><path d="m.7 79.2h22.3v4.1h-22.3z" fill="url(#u)"/></g><g opacity=".7" transform="translate(214 55)"><path d="m.1.5h22.3v4.1h-22.3z" fill="url(#v)"/><path d="m.1 16.9h22.3v4.1h-22.3z" fill="url(#w)"/><path d="m.1 32.8h22.3v4.1h-22.3z" fill="url(#x)"/><path d="m.1 48.7h22.3v4.1h-22.3z" fill="url(#y)"/><path d="m.1 63.9h22.3v4.1h-22.3z" fill="url(#z)"/><path d="m.1 79.2h22.3v4.1h-22.3z" fill="url(#A)"/></g><g opacity=".7" transform="translate(298 55)"><path d="m.6.5h22.3v4.1h-22.3z" fill="url(#B)"/><path d="m.6 16.9h22.3v4.1h-22.3z" fill="url(#C)"/><path d="m.6 32.8h22.3v4.1h-22.3z" fill="url(#D)"/><path d="m.6 48.7h22.3v4.1h-22.3z" fill="url(#E)"/><path d="m.6 63.9h22.3v4.1h-22.3z" fill="url(#F)"/><path d="m.6 79.2h22.3v4.1h-22.3z" fill="url(#G)"/></g></g></g><g transform="translate(60 60)"><path d="m187.9 54.1h89.5v20h-89.5z" stroke="#fff"/><g fill="#fff"><text font-family="Helvetica" font-size="10"><tspan x="200.9764" y="67.4698">Total Events</tspan></text><path d="m266.9 20.6-3.7 3.8-3.8-3.8.3-.2 3.5 3.5 3.5-3.5z" fill-rule="nonzero" stroke="#fff"/><path d="m266.9 104.1-3.7 3.8-3.8-3.7.3-.3 3.5 3.5 3.5-3.5z" fill-rule="nonzero" stroke="#fff"/><path d="m266.9 145.9-3.7 3.7-3.8-3.7.3-.2 3.5 3.5 3.5-3.6z" fill-rule="nonzero" stroke="#fff"/></g><path d="m.4.7-.3.3 1.7 1.7-1.7 1.7.3.3 1.7-1.7 1.7 1.7.3-.3-1.7-1.7 1.7-1.7-.3-.3-1.7 1.7z" fill="#08998e" fill-rule="nonzero" stroke="#03998f" transform="translate(177 19.6378)"/><path d="m500 85.1h-490.5" stroke="#fff" stroke-width=".75"/><path d="m500 126.9h-490.5" stroke="#fff" stroke-width=".75"/><path d="m500 43.3h-490.5" stroke="#fff" stroke-width=".75"/><text fill="#0a6057" font-family="Helvetica" font-size="10"><tspan x="334.987" y="198.7881">From</tspan></text><path d="m367.3 190.8h53.5v12.4h-53.5z" fill="url(#H)" fill-rule="nonzero" opacity=".5"/><text fill="#0a6057" font-family="Helvetica" font-size="10"><tspan x="430.3692" y="198.7881">To</tspan></text><path d="m446.7 190.8h53.5v12.4h-53.5z" fill="url(#I)" fill-rule="nonzero" opacity=".5"/><path d="m103.4 209.7h-90c-1.7 0-3-1.4-3-3v-24c0-1.6 1.3-3 3-3h90c1.6 0 3 1.4 3 3v24c0 1.6-1.4 3-3 3z" fill="url(#J)" fill-rule="nonzero"/><path d="m209.7 209.7h-90c-1.6 0-3-1.4-3-3v-24c0-1.6 1.4-3 3-3h90c1.6 0 3 1.4 3 3v24c0 1.6-1.3 3-3 3z" stroke="url(#K)"/><text fill="#fdfefe" font-family="Helvetica" font-size="12"><tspan x="39.4735" y="198.1869">Query</tspan></text><text fill="#04998e" font-family="Helvetica" font-size="12"><tspan x="150.0919" y="197.6016">Save</tspan></text><circle cx="4" cy="8" fill="#fff" fill-rule="nonzero" r="3.5"/><circle cx="4" cy="55.1" fill="#fff" fill-rule="nonzero" r="3.5"/><circle cx="4" cy="102.1" fill="#fff" fill-rule="nonzero" r="3.5"/><path d="m494.7 169.2h-479.4c-3 0-5.5-2.5-5.5-5.5v-157.4c0-3 2.5-5.5 5.5-5.5h479.5c3 0 5.5 2.5 5.5 5.5v157.4c-.1 3-2.5 5.5-5.6 5.5z" fill="url(#L)" fill-rule="nonzero" opacity=".9"/><text fill="#fff" font-family="Helvetica" font-size="10"><tspan x="19.7748" y="24.4126">Analyze</tspan></text><text fill="#fff" font-family="Helvetica" font-size="10"><tspan x="19.7748" y="66.1753">Measure</tspan></text><path d="m88.8 54.1h89.5v20h-89.5z" stroke="#fff"/><text fill="#fff" font-family="Helvetica" font-size="10"><tspan x="19.7748" y="107.938">Dimension</tspan></text><path d="m88.8 95.9h188.7v20h-188.7z" stroke="#fff"/><path d="m88.8 12.6h188.7v20h-188.7z" stroke="#fff"/><text fill="#fff" font-family="Helvetica" font-size="10"><tspan x="19.7748" y="149.7007">Segment</tspan></text><path d="m88.8 137.7h188.7v20h-188.7z" stroke="#fff"/><text fill="#fff" font-family="Helvetica" font-size="10"><tspan x="96.6283" y="150.802">Device Family</tspan></text><text fill="#fff" font-family="Helvetica" font-size="10"><tspan x="96.6283" y="108.802">Country Code</tspan></text><text fill="#fff" font-family="Helvetica" font-size="10"><tspan x="99.088" y="66.7633">Unique Users</tspan></text><path d="m88.8 12.4h188.7v20h-188.7z" stroke="#fff"/><path d="m91.1 14.7h96.8v15h-96.8z" fill="#fff" fill-rule="nonzero"/><path d="m.3.6-.3.3 1.7 1.7-1.7 1.7.3.3 1.7-1.7 1.7 1.7.3-.3-1.7-1.7 1.7-1.7-.3-.3-1.7 1.7z" fill="#08998e" fill-rule="nonzero" transform="translate(162 19.6378)"/><text fill="#08998e" font-family="Helvetica" font-size="10"><tspan x="95.7749" y="24.802">Add to Basket</tspan></text></g><g transform="translate(71 270)"><g fill-rule="nonzero"><path d="m1.6 141.2h489.4v2.2h-489.4z" fill="url(#N)" opacity=".5"/><path d="m246.7 143.4v7.3h-2.2v-7.3z" fill="url(#O)" opacity=".5"/><path d="m417.5 143.4v7.3h-2.2v-7.3z" fill="url(#O)" opacity=".5"/><path d="m69.6 143.2v7.3h-2.2v-7.3z" fill="url(#P)" opacity=".5"/><path d="m.3 0h86.2v137.9h-86.2z" fill="url(#Q)" opacity=".9" transform="translate(29)"/><path d="m.7.7h86.2v90.2h-86.2z" fill="url(#Q)" opacity=".9" transform="translate(199 47)"/><path d="m.1.4h86.2v44.5h-86.2z" fill="url(#Q)" opacity=".9" transform="translate(370 93)"/></g><g opacity=".2" stroke="url(#R)"><path d="m.5 129.4h490.5"/><path d="m.5 119.4h490.5"/><path d="m.5 109.4h490.5"/><path d="m.5 99.4h490.5"/><path d="m.5 89.4h490.5"/><path d="m.5 79.4h490.5"/><path d="m.5 69.4h490.5"/><path d="m.5 59.4h490.5"/><path d="m.5 49.4h490.5"/><path d="m.5 39.4h490.5"/><path d="m.5 29.4h490.5"/><path d="m.5 19.4h490.5"/><path d="m.5 10h490.5"/><path d="m.5 0h490.5"/></g></g><g transform="translate(62 60)"><text fill="#5877ba" font-family="Helvetica" font-size="12"><tspan x="149.7505" y="180.1199">Save</tspan></text><path d="m483.1 41.6h-474.1c-4.6 0-8.4-2.5-8.4-5.5v-30.1c0-3 3.8-5.5 8.4-5.5h474.1c4.6 0 8.4 2.5 8.4 5.5v30c0 3.1-3.8 5.6-8.4 5.6z" fill="url(#S)" fill-rule="nonzero" opacity=".9" transform="translate(9)"/><text fill="#fff" font-family="Helvetica" font-size="10"><tspan x="19.5432" y="23.6951">First Did</tspan></text><path d="m72.6 11h149.2v20h-149.2z" stroke="#fff"/><path d="m483.1 41.6h-474.1c-4.6 0-8.4-2.5-8.4-5.5v-30c0-3 3.8-5.5 8.4-5.5h474.1c4.6 0 8.4 2.5 8.4 5.5v30c0 3-3.8 5.5-8.4 5.5z" fill="url(#S)" fill-rule="nonzero" opacity=".9" transform="translate(9 51)"/><text fill="#fff" font-family="Helvetica" font-size="10"><tspan x="19.5432" y="74.7478">And Did</tspan></text><path d="m72.6 62.1h149.2v20h-149.2z" stroke="#fff"/><path d="m483.1 41.7h-474.1c-4.6 0-8.4-2.5-8.4-5.5v-30c0-3 3.8-5.5 8.4-5.5h474.1c4.6 0 8.4 2.5 8.4 5.5v30c0 3-3.8 5.5-8.4 5.5z" fill="url(#S)" fill-rule="nonzero" opacity=".9" transform="translate(9 102)"/><text fill="#fff" font-family="Helvetica" font-size="10"><tspan x="19.5432" y="125.7991">And Did</tspan></text><path d="m72.6 113.1h149.2v20h-149.2z" stroke="#fff"/><g fill="#fff"><circle cx="4" cy="13" fill-rule="nonzero" r="3.5"/><circle cx="4" cy="64.1" fill-rule="nonzero" r="3.5"/><circle cx="4" cy="115.1" fill-rule="nonzero" r="3.5"/><g fill-rule="nonzero" transform="translate(232 16)"><path d="m4.8.2c-2.7 0-4.8 2.2-4.8 4.8 0 2.7 2.2 4.8 4.8 4.8 2.7 0 4.8-2.2 4.8-4.8s-2.2-4.8-4.8-4.8zm0 8.8c-2.2 0-4-1.8-4-4s1.8-4 4-4 4 1.8 4 4c-.1 2.2-1.9 4-4 4z"/><path d="m6.6 4.6h-1.4v-1.4c0-.2-.2-.4-.4-.4s-.4.2-.4.4v1.4h-1.4c-.2 0-.4.2-.4.4s.2.4.4.4h1.4v1.4c0 .2.2.4.4.4s.4-.2.4-.4v-1.4h1.4c.2 0 .4-.2.4-.4.1-.2-.1-.4-.4-.4z"/></g><g fill-rule="nonzero" transform="translate(232 67)"><path d="m4.8.3c-2.7 0-4.8 2.2-4.8 4.8 0 2.7 2.2 4.8 4.8 4.8 2.7 0 4.8-2.2 4.8-4.8 0-2.7-2.2-4.8-4.8-4.8zm0 8.8c-2.2 0-4-1.8-4-4s1.8-4 4-4 4 1.8 4 4c-.1 2.2-1.9 4-4 4z"/><path d="m6.6 4.7h-1.4v-1.4c0-.2-.2-.4-.4-.4s-.4.2-.4.4v1.4h-1.4c-.2 0-.4.2-.4.4s.2.4.4.4h1.4v1.4c0 .2.2.4.4.4s.4-.2.4-.4v-1.4h1.4c.2 0 .4-.2.4-.4.1-.2-.1-.4-.4-.4z"/></g><g fill-rule="nonzero" transform="translate(232 118)"><path d="m4.8.3c-2.7 0-4.8 2.2-4.8 4.8 0 2.7 2.2 4.8 4.8 4.8 2.7 0 4.8-2.2 4.8-4.8s-2.2-4.8-4.8-4.8zm0 8.8c-2.2 0-4-1.8-4-4s1.8-4 4-4 4 1.8 4 4-1.9 4-4 4z"/><path d="m6.6 4.7h-1.4v-1.4c0-.2-.2-.4-.4-.4s-.4.2-.4.4v1.4h-1.4c-.2 0-.4.2-.4.4s.2.4.4.4h1.4v1.4c0 .2.2.4.4.4s.4-.2.4-.4v-1.4h1.4c.2 0 .4-.2.4-.4s-.1-.4-.4-.4z"/></g><text font-family="Helvetica" font-size="10"><tspan x="81.479" y="24.0987">Add to Basket</tspan></text><path d="m211.2 19.3-3.7 3.7-3.7-3.7.2-.2 3.5 3.5 3.5-3.6z" fill-rule="nonzero" stroke="#fff"/><text font-family="Helvetica" font-size="10"><tspan x="81.479" y="75.1506">Transaction</tspan></text><path d="m211.2 70.3-3.7 3.8-3.7-3.7.2-.3 3.5 3.5 3.5-3.5z" fill-rule="nonzero" stroke="#fff"/><text font-family="Helvetica" font-size="10"><tspan x="81.479" y="126.1506">Select Event Type</tspan></text><path d="m211.2 121.3-3.7 3.8-3.7-3.7.2-.3 3.5 3.5 3.5-3.5z" fill-rule="nonzero" stroke="#fff"/></g><path d="m103 192.2h-90c-1.7 0-3-1.4-3-3v-24c0-1.7 1.3-3 3-3h90c1.7 0 3 1.3 3 3v24c0 1.6-1.3 3-3 3z" fill="url(#S)" fill-rule="nonzero"/><path d="m209.4 192.2h-90c-1.6 0-3-1.4-3-3v-24c0-1.7 1.4-3 3-3h90c1.6 0 3 1.3 3 3v24c0 1.6-1.4 3-3 3z" stroke="url(#T)" stroke-width=".75"/><text fill="#fdfefe" font-family="Helvetica" font-size="12"><tspan x="39.1323" y="180.7052">Query</tspan></text></g><g transform="translate(72 235)"><g fill-rule="nonzero"><g><path d="m486.5 187.3h-481c-2.8 0-5-2.2-5-5v-177.2c0-2.8 2.2-5 5-5h481c2.8 0 5 2.2 5 5v177.2c0 2.7-2.2 5-5 5z" fill="#fff"/><path d="m486.5 187.3h-481c-2.8 0-5-2.2-5-5v-177.2c0-2.8 2.2-5 5-5h481c2.8 0 5 2.2 5 5v177.2c0 2.7-2.2 5-5 5z" fill="url(#U)" opacity=".5"/></g><g><path d="m37.3 40h41.9v27.6h-41.9z" fill="#b44592" opacity=".7"/><path d="m37.3 21.4h41.9v13.2h-41.9z" fill="#fff"/><g fill="#b44592"><path d="m37.3 73.1h41.9v27.6h-41.9z" opacity=".7"/><path d="m37.3 106.2h41.9v27.6h-41.9z" opacity=".7"/><path d="m37.3 140.3h41.9v27.6h-41.9z" opacity=".7"/></g></g><g><path d="m98.9 21.4h41.9v13.2h-41.9z" fill="#fff"/><g fill="#b44592"><path d="m98.9 40h41.9v27.6h-41.9z" opacity=".7"/><path d="m98.9 73.1h41.9v27.6h-41.9z" opacity=".7"/><path d="m98.9 106.2h41.9v27.6h-41.9z" opacity=".7"/></g><path d="m98.9 140.3h41.9v27.6h-41.9z" fill="#fff"/></g><g><path d="m160.6 21.4h41.9v13.2h-41.9z" fill="#fff"/><path d="m160.6 40h41.9v27.6h-41.9z" fill="#b44592" opacity=".7"/><path d="m160.6 73.1h41.9v27.6h-41.9z" fill="#b44592" opacity=".7"/><g fill="#fff"><path d="m160.6 106.2h41.9v27.6h-41.9z"/><path d="m160.6 140.3h41.9v27.6h-41.9z"/></g></g><g><path d="m222.3 21.4h41.9v13.2h-41.9z" fill="#fff"/><path d="m222.3 40h41.9v27.6h-41.9z" fill="#b44592" opacity=".7"/><g fill="#fff"><path d="m222.3 73.1h41.9v27.6h-41.9z"/><path d="m222.3 106.2h41.9v27.6h-41.9z"/><path d="m222.3 140.3h41.9v27.6h-41.9z"/></g></g><g fill="#fff"><path d="m283.9 21.4h41.9v13.2h-41.9z"/><path d="m283.9 40h41.9v27.6h-41.9z"/><path d="m283.9 73.1h41.9v27.6h-41.9z"/><path d="m283.9 106.2h41.9v27.6h-41.9z"/><path d="m283.9 140.3h41.9v27.6h-41.9z"/></g></g><text fill="#b44592" font-family="Helvetica" font-size="9"><tspan x="47.2945" y="30.8278">Date</tspan></text><text fill="#b44592" font-family="Helvetica" font-size="9"><tspan x="107.3914" y="30.8278">Users</tspan></text><text fill="#b44592" font-family="Helvetica" font-size="9"><tspan x="169.9314" y="30.8278">Day 1</tspan></text><text fill="#b44592" font-family="Helvetica" font-size="9"><tspan x="230.6674" y="30.8278">Day 2</tspan></text><text fill="#b44592" font-family="Helvetica" font-size="9"><tspan x="292.3527" y="30.8278">Day 3</tspan></text></g><g transform="translate(72 61)"><path d="m93.5 163.6h-90c-1.7 0-3-1.3-3-3v-24c0-1.6 1.3-3 3-3h90c1.7 0 3 1.4 3 3v24c0 1.7-1.3 3-3 3z" fill="url(#W)" fill-rule="nonzero"/><path d="m200.6 134.6c1.1 0 2 .9 2 2v24c0 1.1-.9 2-2 2h-90c-1.1 0-2-.9-2-2v-24c0-1.1.9-2 2-2zm0-1h-90c-1.7 0-3 1.4-3 3v24c0 1.7 1.3 3 3 3h90c1.7 0 3-1.3 3-3v-24c0-1.6-1.3-3-3-3z" fill="url(#X)" fill-rule="nonzero"/><text fill="#fdfefe" font-family="Helvetica" font-size="12"><tspan x="30.4028" y="152.1575">Query</tspan></text><text fill="#b54592" font-family="Helvetica" font-size="12"><tspan x="141.0212" y="151.5722">Save</tspan></text><path d="m485.6 41.2h-479.6c-3 0-5.5-2.5-5.5-5.5v-30c0-3 2.5-5.5 5.5-5.5h479.6c3 0 5.5 2.5 5.5 5.5v30c0 3-2.5 5.5-5.5 5.5z" fill="url(#Y)" fill-rule="nonzero" opacity=".9"/><text fill="#fff" font-family="Helvetica" font-size="10"><tspan x="10.5254" y="23.3533">User Who Did</tspan></text><path d="m109.6 10.7h149.2v20h-149.2z" stroke="#fff"/><path d="m485.6 41.3h-479.6c-3 0-5.5-2.5-5.5-5.5v-30c0-3 2.5-5.5 5.5-5.5h479.6c3 0 5.5 2.5 5.5 5.5v30c0 3-2.5 5.5-5.5 5.5z" fill="url(#Z)" fill-rule="nonzero" opacity=".9" transform="translate(0 51)"/><path d="m108.6 61.7h149.2v20h-149.2z" stroke="#fff"/><g fill="#fff" font-family="Helvetica" font-size="10" transform="translate(10.5254 59.6114)"><text><tspan x="0" y="10">Then Come back</tspan></text><text><tspan x="0" y="22">and Did</tspan></text></g><path d="m148.7 1.8v18h-147.1v-18zm1-1h-149.1v20h149.2v-20z" fill="url(#aa)" fill-rule="nonzero" opacity=".2" transform="translate(0 102)"/><path d="m149.4 1v19.5h-148.6v-19.5zm.3-.2h-149.2v20h149.2z" fill="url(#ab)" fill-rule="nonzero" opacity=".5" transform="translate(0 102)"/><g fill="#fff"><text font-family="Helvetica" font-size="10"><tspan x="118.4626" y="22.7569">Account Update</tspan></text><path d="m248.2 18.9-3.7 3.8-3.8-3.7.3-.3 3.5 3.5 3.5-3.5z" fill-rule="nonzero" stroke="#fff"/><text font-family="Helvetica" font-size="9"><tspan x="117.4626" y="73.8088">Login</tspan></text><path d="m247.2 70-3.7 3.8-3.8-3.8.3-.2 3.5 3.5 3.5-3.5z" fill-rule="nonzero" stroke="#fff"/></g><text fill="#b44592" font-family="Helvetica" font-size="10"><tspan x="9.4626" y="115.1598">Group By</tspan></text><path d="m139.2 111-3.7 3.8-3.8-3.8.3-.2 3.5 3.5 3.5-3.5z" fill="#b44592" fill-rule="nonzero" stroke="#b54592"/></g><g transform="translate(252 61)"><path d="m302 140.3h-296.4c-3 0-5.5-2.5-5.5-5.5v-129.3c0-3 2.5-5.5 5.5-5.5h296.4c3 0 5.5 2.5 5.5 5.5v129.3c0 3-2.5 5.5-5.5 5.5z" fill="url(#ad)" fill-rule="nonzero" opacity=".9"/><text fill="#fff" font-family="Helvetica" font-size="11.0297"><tspan x="19.8253" y="63.089">2</tspan></text><text fill="#fff" font-family="Helvetica" font-size="11.0297"><tspan x="19.8253" y="89.261">3</tspan></text><text fill="#fff" font-family="Helvetica" font-size="11.0297"><tspan x="19.8253" y="115.4334">4</tspan></text><path d="m36.9 140.7v-140.1" stroke="#fff" stroke-width=".75"/><g fill="#fff"><text font-family="Helvetica" font-size="11.0297"><tspan x="19.8253" y="36.917">1</tspan></text><g font-family="Helvetica" font-size="11.0297" transform="translate(47.1172 26.4336)"><text><tspan x=".8341" y="10.4834">SELECT</tspan></text><text><tspan x="46.834" y="10.4834">city, count(*)</tspan></text></g><g font-family="Helvetica" font-size="11.0297" transform="translate(58.1475 52.376)"><text><tspan x=".834" y="10.4833">FROM</tspan></text><text><tspan x="40.834" y="10.4833">view_page</tspan></text></g><g font-family="Helvetica" font-size="11.0297" transform="translate(58.1475 78.9502)"><text><tspan x=".834" y="10.4834">GROUP BY</tspan></text><text><tspan x="65.834" y="10.4834">city</tspan></text><text><tspan x="47.834" y="35.4834">country =</tspan></text><text><tspan x="101.834" y="35.4834">{country}</tspan></text><text><tspan x=".834" y="36.4834">WHERE</tspan></text></g></g><path d="m93.8 180.6h-90c-1.6 0-3-1.4-3-3v-24c0-1.7 1.4-3 3-3h90c1.6 0 3 1.3 3 3v24c0 1.6-1.3 3-3 3z" fill="url(#ae)" fill-rule="nonzero"/><path d="m200.2 180.6h-90c-1.6 0-3-1.4-3-3v-24c0-1.7 1.4-3 3-3h90c1.7 0 3 1.3 3 3v24c0 1.6-1.4 3-3 3z" stroke="url(#af)"/><text fill="#fdfefe" font-family="Helvetica" font-size="12"><tspan x="29.922" y="169.1029">Query</tspan></text><text fill="#426fb6" font-family="Helvetica" font-size="12"><tspan x="140.5404" y="168.5176">Save</tspan></text></g><g transform="translate(252 251)"><g fill-rule="nonzero"><path d="m302.5 171.7h-297.4c-2.8 0-5-2.2-5-5v-160.9c0-2.8 2.2-5 5-5h297.4c2.8 0 5 2.2 5 5v160.9c0 2.7-2.2 5-5 5z" fill="#fff"/><path d="m302.5 171.6h-297.4c-2.8 0-5-2.2-5-5v-160.9c0-2.8 2.2-5 5-5h297.4c2.8 0 5 2.2 5 5v160.9c0 2.7-2.2 5-5 5z" fill="url(#ag)"/><path d="m15.2 65.3h260.3v2.2h-260.3z" fill="#fff"/><path d="m18.4 72.5h257.1v16.5h-257.1z" fill="#fff" opacity=".2"/><path d="m150.7 89h124.7v16.3h-124.7z" fill="#fff" opacity=".3"/><path d="m150.7 124.5h124.7v17h-124.7z" fill="#fff" opacity=".3"/><path d="m39.9 94.7h28.9v4.7h-28.9z" fill="#fff" opacity=".3"/><path d="m39.9 112.5h28.9v4.7h-28.9z" fill="#fff" opacity=".3"/><path d="m39.9 130.8h28.9v4.7h-28.9z" fill="#fff" opacity=".3"/><path d="m162.3 94.7h28.9v4.7h-28.9z" fill="#fff" opacity=".3"/><path d="m162.3 112.5h28.9v4.7h-28.9z" fill="#fff" opacity=".3"/><path d="m162.3 130.8h28.9v4.7h-28.9z" fill="#fff" opacity=".3"/><path d="m39.9 148.5h28.9v4.7h-28.9z" fill="#fff" opacity=".3"/><path d="m162.3 148.5h28.9v4.7h-28.9z" fill="#fff" opacity=".3"/><path d="m275.6 105.3h-255" fill="url(#ah)" stroke="url(#ai)" stroke-width=".25"/><path d="m275.6 124.5h-255" fill="url(#ah)" stroke="url(#aj)" stroke-width=".25"/><path d="m275.6 141.4h-255" fill="url(#ah)" stroke="url(#ak)" stroke-width=".25"/></g><path d="m19 48s34.1-10.3 63.5.8c29 11 39 8 65.5 5.1 17.4-1.9 34.7-11.8 81.9-3 38.9 7.2 43.5 6.8 43.5 6.8" stroke="#b7e3ec"/><circle cx="34.49693" cy="44.96535" fill="#426fb6" fill-rule="nonzero" r="1.699974" transform="matrix(.41850638 -.90821386 .90821386 .41850638 -20.778409 57.477654)"/><circle cx="71.41514" cy="45.74467" fill="#426fb6" fill-rule="nonzero" r="1.699974" transform="matrix(.41850638 -.90821386 .90821386 .41850638 -.018495 91.460453)"/><circle cx="109.97308" cy="55.85415" fill="#426fb6" fill-rule="nonzero" r="1.699974" transform="matrix(.41850638 -.90821386 .90821386 .41850638 13.221131 132.357907)"/><circle cx="139.79614" cy="54.71529" fill="#6896cc" fill-rule="nonzero" r="1.699974" transform="matrix(.41850638 -.90821386 .90821386 .41850638 31.597379 158.781383)"/><circle cx="170.11313" cy="49.41908" fill="#36accb" fill-rule="nonzero" r="1.699974" transform="matrix(.41850638 -.90821386 .90821386 .41850638 54.036606 183.235981)"/><circle cx="200.70629" cy="47.73361" fill="#41c1f0" fill-rule="nonzero" r="1.699974" transform="matrix(.41850638 -.90821386 .90821386 .41850638 73.357101 210.041023)"/><circle cx="233.69001" cy="51.74866" fill="#41c1f0" fill-rule="nonzero" r="1.699974" transform="matrix(.41850638 -.90821386 .90821386 .41850638 88.890399 242.332021)"/><circle cx="268.77658" cy="57.42144" fill="#41c1f0" fill-rule="nonzero" r="1.699974" transform="matrix(.41850638 -.90821386 .90821386 .41850638 104.140919 277.496815)"/><text fill="#fff" font-family="Helvetica" font-size="9" transform="translate(158 15)"><tspan x=".0775" y="9.9351">Country</tspan></text><path d="m200.7 14.6h69v16h-69z" fill="#fff" fill-rule="nonzero"/><path d="m264.7 20.8-3.8 3.8-3.7-3.7.3-.3 3.4 3.5 3.6-3.5z" fill="#426fb6" fill-rule="nonzero"/><text fill="#787878" font-family="Helvetica" font-size="8"><tspan x="205.6819" y="24.9316">USA</tspan></text><text fill="#fff" font-family="Helvetica" font-size="10" transform="translate(44 72)"><tspan x=".349" y="10.863">City</tspan></text><text fill="#fff" font-family="Helvetica" font-size="10" transform="translate(161 72)"><tspan x=".7813" y="10.863">Count</tspan></text></g><g transform="translate(69 60)"><path d="m125.4 27.4-2.1-2.1c.5-.6.8-1.4.8-2.2 0-2-1.6-3.5-3.5-3.5-2 0-3.5 1.6-3.5 3.5s1.6 3.5 3.5 3.5c.8 0 1.6-.3 2.2-.8l2.1 2.1c.1.1.2.1.3.1s.2 0 .3-.1c.1-.2.1-.4-.1-.5zm-7.6-4.4c0-1.5 1.2-2.8 2.8-2.8s2.8 1.2 2.8 2.8-1.2 2.8-2.8 2.8-2.8-1.2-2.8-2.8z" fill="#fff" fill-rule="nonzero"/><path d="m156.8 362.2h-150.4c-3 0-5.5-2.5-5.5-5.5v-350.3c0-3 2.5-5.5 5.5-5.5h150.4c3 0 5.5 2.5 5.5 5.5v350.3c0 3-2.5 5.5-5.5 5.5z" fill="url(#al)" fill-rule="nonzero" opacity=".9"/><text fill="#fff" font-family="Helvetica" font-size="10"><tspan x="43.1351" y="54.6665">add_to_basket</tspan></text><text fill="#fff" font-family="Helvetica" font-size="10"><tspan x="67.8246" y="75.7878">login</tspan></text><text fill="#fff" font-family="Helvetica" font-size="10"><tspan x="60.805" y="96.9088">register</tspan></text><text fill="#fff" font-family="Helvetica" font-size="10"><tspan x="53.4242" y="118.03">transaction</tspan></text><text fill="#fff" font-family="Helvetica" font-size="10"><tspan x="49.6751" y="139.1508">view_product</tspan></text><path d="m16.3 13.7h129.2v20h-129.2z" stroke="#fff" stroke-width=".75"/><g fill="#fff"><path d="m144.4 14.3v18h-127.1v-18zm1-1h-129.1v20h129.2v-20z" fill-rule="nonzero"/><path d="m32.8 156.3h96.1v8.3h-96.1z" fill-rule="nonzero" opacity=".5"/><path d="m32.8 178.7h96.1v8.3h-96.1z" fill-rule="nonzero" opacity=".5"/><path d="m32.8 201.1h96.1v8.3h-96.1z" fill-rule="nonzero" opacity=".5"/><path d="m32.8 223.5h96.1v8.3h-96.1z" fill-rule="nonzero" opacity=".5"/><path d="m32.8 245.9h96.1v8.3h-96.1z" fill-rule="nonzero" opacity=".5"/><path d="m32.8 268.4h96.1v8.3h-96.1z" fill-rule="nonzero" opacity=".5"/><path d="m32.8 290.8h96.1v8.3h-96.1z" fill-rule="nonzero" opacity=".5"/><path d="m32.8 313.2h96.1v8.3h-96.1z" fill-rule="nonzero" opacity=".5"/><path d="m32.8 335.6h96.1v8.3h-96.1z" fill-rule="nonzero" opacity=".5"/><text font-family="Helvetica" font-size="10" opacity=".370089" transform="translate(47.1172 16.4336)"><tspan x=".8341" y="10.5664">Input Search</tspan></text></g></g><g fill-rule="nonzero"><path d="m0 0h50v441h-50z" fill="url(#am)" opacity=".8"/><path d="m1 0h581v40h-581z" fill="url(#an)"/><path d="m50 1h97v40h-97z" fill="#fff" opacity=".44"/><circle cx="554.5" cy="20.5" fill="#fff" r="6.5"/><circle cx="532.5" cy="20.5" fill="#fff" r="6.5"/></g><g transform="translate(61 15)"><text fill="#000" fill-opacity=".390512" font-family="Geneva" font-size="9"><tspan x=".5158" y="9.6465">Rakam Demo</tspan></text><path d="m77 4.5-4.2 4.2-4.2-4.1.2-.3 4 3.9 3.9-4z" fill="#3c3c3c" fill-rule="nonzero"/></g><g fill="#fff" fill-rule="nonzero"><path d="m16 20.7h4.6v8.2h-4.6z"/><path d="m22.7 16.6h4.6v12.3h-4.6z"/><path d="m29.4 13.1h4.6v15.8h-4.6z"/></g><g fill="#fff" fill-rule="nonzero"><path d="m15 52.3h8.6v5.5h-8.6z"/><path d="m15 59.9h8.6v10.4h-8.6z"/><path d="m25.4 52.3h7.6v10.4h-7.6z"/><path d="m25.4 64.9h7.6v5.5h-7.6z"/></g><path d="m16 91v19.1h17v-19.1h-2.4v.9c0 .3-.3.5-.6.5s-.6-.2-.6-.5v-.9h-2.4v.9c0 .3-.3.5-.6.5s-.6-.2-.6-.5v-.9h-2.4v.9c0 .3-.3.5-.6.5s-.6-.2-.6-.5v-.9h-2.4v.9c0 .3-.3.5-.6.5s-.6-.2-.6-.5v-.9zm14 6.4h-11c-.3 0-.6-.4-.6-.9s.3-.9.6-.9h11c.3 0 .6.4.6.9s-.3.9-.6.9zm0 4.8h-11c-.3 0-.6-.4-.6-.9s.3-.9.6-.9h11c.3 0 .6.4.6.9s-.3.9-.6.9zm0 4.7h-11c-.3 0-.6-.4-.6-.9s.3-.9.6-.9h11c.3 0 .6.4.6.9s-.3.9-.6.9z" fill="#fff" fill-rule="nonzero"/><path d="m31.8 131.8c-3.8-3.8-9.9-3.8-13.7 0s-3.8 9.9 0 13.7 9.9 3.8 13.7 0 3.8-9.9 0-13.7zm-10.2 10.3 1.7-5.1 5.1-1.7-1.7 5.1z" fill="#fff" fill-rule="nonzero"/><path d="m17.9 187.2c.5.6 1 1.1 1.6 1.6v1.3c0 .2.2.5.4.5l2.6 1h.2c.2 0 .3-.1.4-.2l.8-1c.8.1 1.5.1 2.3 0l.9.9c.2.2.4.2.7.1l2.6-1.2c.2-.1.4-.3.4-.6l-.1-1.3c.6-.5 1.1-1 1.6-1.6h1.3c.2 0 .5-.2.5-.4l1-2.7c.1-.2 0-.5-.2-.7l-1-.8c.1-.8.1-1.5 0-2.3l.9-.9c.2-.2.2-.4.1-.7l-1.2-2.6c-.1-.2-.3-.4-.6-.4l-1.3.1c-.5-.6-1-1.1-1.6-1.6v-1.2c0-.2-.2-.5-.4-.5l-2.5-1c-.2-.1-.5 0-.7.2l-.8 1c-.8-.1-1.5-.1-2.3 0l-.9-.9c-.2-.2-.4-.2-.7-.1l-2.6 1.2c-.2.1-.4.3-.4.6l.1 1.3c-.6.5-1.1 1-1.6 1.6h-1.3c-.2 0-.5.2-.5.4l-1 2.5c-.1.2 0 .5.2.7l1 .8c-.1.8-.1 1.5 0 2.3l-.9.9c-.2.2-.2.4-.1.7l1.2 2.6c.1.2.3.4.6.4zm2.5-6.5c1-2.6 3.8-3.8 6.4-2.9 2.6 1 3.8 3.8 2.9 6.4-1 2.6-3.8 3.8-6.4 2.9-2.6-1-3.9-3.9-2.9-6.4z" fill="#fff" fill-rule="nonzero"/></g></svg>