<?xml version="1.0" encoding="utf-8"?>
<!-- Generator: Adobe Illustrator 21.0.0, SVG Export Plug-In . SVG Version: 6.00 Build 0)  -->
<svg version="1.1" xmlns="http://www.w3.org/2000/svg" xmlns:xlink="http://www.w3.org/1999/xlink" x="0px" y="0px"
	 viewBox="0 0 580.4 441" style="enable-background:new 0 0 580.4 441;" xml:space="preserve">
<style type="text/css">
	.st0{fill:url(#SVGID_1_);}
	.st1{fill:none;stroke:url(#SVGID_2_);stroke-width:0.75;stroke-miterlimit:10;}
	.st2{opacity:0.2;}
	.st3{fill:none;stroke:url(#SVGID_3_);stroke-miterlimit:10;}
	.st4{fill:none;stroke:url(#SVGID_4_);stroke-miterlimit:10;}
	.st5{fill:none;stroke:url(#SVGID_5_);stroke-miterlimit:10;}
	.st6{fill:none;stroke:url(#SVGID_6_);stroke-miterlimit:10;}
	.st7{fill:none;stroke:url(#SVGID_7_);stroke-miterlimit:10;}
	.st8{fill:none;stroke:url(#SVGID_8_);stroke-miterlimit:10;}
	.st9{fill:none;stroke:url(#SVGID_9_);stroke-miterlimit:10;}
	.st10{fill:none;stroke:url(#SVGID_10_);stroke-miterlimit:10;}
	.st11{fill:none;stroke:url(#SVGID_11_);stroke-miterlimit:10;}
	.st12{fill:none;stroke:url(#SVGID_12_);stroke-miterlimit:10;}
	.st13{fill:none;stroke:url(#SVGID_13_);stroke-miterlimit:10;}
	.st14{fill:none;stroke:url(#SVGID_14_);stroke-miterlimit:10;}
	.st15{fill:none;stroke:url(#SVGID_15_);stroke-miterlimit:10;}
	.st16{fill:none;stroke:url(#SVGID_16_);stroke-miterlimit:10;}
	.st17{opacity:0.8;}
	.st18{fill:url(#SVGID_17_);}
	.st19{fill:url(#SVGID_18_);}
	.st20{opacity:0.44;}
	.st21{fill:#FFFFFF;}
	.st22{fill:#3C3C3C;}
	.st23{fill:url(#SVGID_19_);}
	.st24{fill:url(#SVGID_20_);}
	.st25{fill:url(#SVGID_21_);}
	.st26{fill:url(#SVGID_22_);}
	.st27{font-family:'Arial';}
	.st28{font-size:9.002px;}
	.st29{fill:url(#SVGID_23_);}
	.st30{fill:url(#SVGID_24_);}
	.st31{fill:url(#SVGID_25_);}
	.st32{fill:url(#SVGID_26_);}
	.st33{opacity:0.9;}
	.st34{fill:url(#SVGID_27_);}
	.st35{fill:none;stroke:#FFFFFF;stroke-miterlimit:10;}
	.st36{fill:url(#SVGID_28_);}
	.st37{fill:url(#SVGID_29_);}
	.st38{fill:#FFFFFF;stroke:#FFFFFF;stroke-miterlimit:10;}
	.st39{opacity:0.5;fill:url(#SVGID_30_);}
	.st40{opacity:0.5;fill:url(#SVGID_31_);}
	.st41{opacity:0.5;fill:url(#SVGID_32_);}
	.st42{opacity:0.5;fill:url(#SVGID_33_);}
	.st43{fill:url(#SVGID_34_);}
	.st44{fill:url(#SVGID_35_);}
	.st45{fill:url(#SVGID_36_);}
	.st46{fill:#FDFEFE;}
	.st47{fill:#5877BA;}
	.st48{fill:url(#SVGID_37_);}
	.st49{fill:none;stroke:url(#SVGID_38_);stroke-miterlimit:10;}
	.st50{fill:none;stroke:url(#SVGID_39_);stroke-miterlimit:10;}
	.st51{fill:none;stroke:url(#SVGID_40_);stroke-miterlimit:10;}
	.st52{fill:none;stroke:url(#SVGID_41_);stroke-miterlimit:10;}
	.st53{fill:none;stroke:url(#SVGID_42_);stroke-miterlimit:10;}
	.st54{fill:none;stroke:url(#SVGID_43_);stroke-miterlimit:10;}
	.st55{fill:none;stroke:url(#SVGID_44_);stroke-miterlimit:10;}
	.st56{fill:none;stroke:url(#SVGID_45_);stroke-miterlimit:10;}
	.st57{fill:none;stroke:url(#SVGID_46_);stroke-miterlimit:10;}
	.st58{fill:none;stroke:url(#SVGID_47_);stroke-miterlimit:10;}
	.st59{fill:none;stroke:url(#SVGID_48_);stroke-miterlimit:10;}
	.st60{fill:none;stroke:url(#SVGID_49_);stroke-miterlimit:10;}
	.st61{fill:none;stroke:url(#SVGID_50_);stroke-miterlimit:10;}
	.st62{fill:none;stroke:url(#SVGID_51_);stroke-miterlimit:10;}
	.st63{fill:none;stroke:url(#SVGID_52_);stroke-miterlimit:10;}
	.st64{fill:url(#SVGID_53_);}
	.st65{fill:url(#SVGID_54_);}
	.st66{opacity:0.6;}
	.st67{fill:url(#SVGID_55_);}
	.st68{fill:url(#SVGID_56_);}
	.st69{fill:#FFFFFF;stroke:url(#SVGID_57_);stroke-width:0.25;stroke-miterlimit:10;}
	.st70{fill:url(#SVGID_58_);}
	.st71{fill:#FFFFFF;stroke:url(#SVGID_59_);stroke-width:0.25;stroke-miterlimit:10;}
	.st72{fill:url(#SVGID_60_);}
	.st73{fill:url(#SVGID_61_);}
	.st74{fill:url(#SVGID_62_);}
	.st75{fill:url(#SVGID_63_);}
	.st76{fill:url(#SVGID_64_);}
	.st77{fill:url(#SVGID_65_);}
	.st78{fill:#787878;}
	.st79{fill:#BABABA;}
	.st80{opacity:0.5;fill:url(#SVGID_66_);}
	.st81{opacity:0.5;fill:url(#SVGID_67_);}
	.st82{opacity:0.5;fill:url(#SVGID_68_);}
	.st83{opacity:0.5;fill:url(#SVGID_69_);}
	.st84{opacity:0.5;fill:url(#SVGID_70_);}
	.st85{opacity:0.5;fill:url(#SVGID_71_);}
	.st86{opacity:0.5;fill:url(#SVGID_72_);}
	.st87{fill:url(#SVGID_73_);}
	.st88{fill:none;stroke:url(#SVGID_74_);stroke-miterlimit:10;}
	.st89{fill:#04998E;}
	.st90{fill:url(#SVGID_75_);}
	.st91{fill:url(#SVGID_76_);}
	.st92{font-family:'Arial';}
	.st93{font-size:12px;}
	.st94{fill:#B54592;}
	.st95{fill:url(#SVGID_77_);}
	.st96{fill:none;stroke:url(#SVGID_78_);stroke-miterlimit:10;}
	.st97{fill:#426FB6;}
	.st98{opacity:0.9;fill:url(#SVGID_79_);}
	.st99{fill:#08998E;}
	.st100{opacity:0.5;fill:url(#SVGID_80_);}
	.st101{opacity:0.5;fill:url(#SVGID_81_);}
	.st102{opacity:0.5;fill:url(#SVGID_82_);}
	.st103{opacity:0.5;fill:url(#SVGID_83_);}
	.st104{fill:#0A6057;}
	.st105{opacity:0.7;fill:url(#SVGID_84_);}
	.st106{opacity:0.7;fill:url(#SVGID_85_);}
	.st107{opacity:0.7;fill:url(#SVGID_86_);}
	.st108{opacity:0.7;fill:url(#SVGID_87_);}
	.st109{opacity:0.7;fill:url(#SVGID_88_);}
	.st110{opacity:0.7;fill:url(#SVGID_89_);}
	.st111{opacity:0.7;fill:url(#SVGID_90_);}
	.st112{opacity:0.7;fill:url(#SVGID_91_);}
	.st113{opacity:0.7;fill:url(#SVGID_92_);}
	.st114{opacity:0.7;fill:url(#SVGID_93_);}
	.st115{opacity:0.7;fill:url(#SVGID_94_);}
	.st116{opacity:0.7;fill:url(#SVGID_95_);}
	.st117{opacity:0.7;fill:url(#SVGID_96_);}
	.st118{opacity:0.7;fill:url(#SVGID_97_);}
	.st119{opacity:0.7;fill:url(#SVGID_98_);}
	.st120{opacity:0.7;fill:url(#SVGID_99_);}
	.st121{opacity:0.7;fill:url(#SVGID_100_);}
	.st122{opacity:0.7;fill:url(#SVGID_101_);}
	.st123{opacity:0.7;fill:url(#SVGID_102_);}
	.st124{opacity:0.7;fill:url(#SVGID_103_);}
	.st125{opacity:0.7;fill:url(#SVGID_104_);}
	.st126{opacity:0.7;fill:url(#SVGID_105_);}
	.st127{opacity:0.7;fill:url(#SVGID_106_);}
	.st128{opacity:0.7;fill:url(#SVGID_107_);}
	.st129{opacity:0.5;fill:url(#SVGID_108_);}
	.st130{opacity:0.5;fill:url(#SVGID_109_);}
	.st131{fill:none;stroke:url(#SVGID_110_);stroke-miterlimit:10;}
	.st132{fill:none;stroke:url(#SVGID_111_);stroke-miterlimit:10;}
	.st133{fill:none;stroke:url(#SVGID_112_);stroke-miterlimit:10;}
	.st134{fill:#08998E;stroke:#03998F;stroke-miterlimit:10;}
	.st135{fill:url(#SVGID_113_);}
	.st136{fill:none;stroke:url(#SVGID_114_);stroke-miterlimit:10;}
	.st137{fill:url(#SVGID_115_);}
	.st138{fill:url(#SVGID_116_);}
	.st139{fill:url(#SVGID_117_);}
	.st140{opacity:0.2;fill:url(#SVGID_118_);}
	.st141{opacity:0.5;fill:#FFFFFF;}
	.st142{fill:none;stroke:#08998E;stroke-width:0.5;stroke-miterlimit:10;}
	.st143{fill:#FFFFFF;stroke:#08998E;stroke-width:0.5;stroke-miterlimit:10;}
	.st144{opacity:0.3;fill:url(#SVGID_119_);}
	.st145{opacity:0.3;fill:url(#SVGID_120_);}
	.st146{opacity:0.3;fill:url(#SVGID_121_);}
	.st147{opacity:0.3;fill:url(#SVGID_122_);}
	.st148{opacity:0.3;fill:url(#SVGID_123_);}
	.st149{opacity:0.3;fill:url(#SVGID_124_);}
	.st150{opacity:0.3;fill:url(#SVGID_125_);}
	.st151{opacity:0.3;fill:url(#SVGID_126_);}
	.st152{opacity:0.3;fill:url(#SVGID_127_);}
	.st153{opacity:0.3;fill:url(#SVGID_128_);}
	.st154{opacity:0.3;fill:url(#SVGID_129_);}
	.st155{opacity:0.3;fill:url(#SVGID_130_);}
	.st156{opacity:0.3;fill:url(#SVGID_131_);}
	.st157{opacity:0.3;fill:url(#SVGID_132_);}
	.st158{opacity:0.3;fill:url(#SVGID_133_);}
	.st159{opacity:0.3;fill:url(#SVGID_134_);}
	.st160{opacity:0.3;fill:url(#SVGID_135_);}
	.st161{opacity:0.3;fill:url(#SVGID_136_);}
	.st162{opacity:0.3;fill:url(#SVGID_137_);}
	.st163{opacity:0.3;fill:url(#SVGID_138_);}
	.st164{opacity:0.3;fill:url(#SVGID_139_);}
	.st165{opacity:0.3;fill:url(#SVGID_140_);}
	.st166{opacity:0.3;fill:url(#SVGID_141_);}
	.st167{opacity:0.3;fill:url(#SVGID_142_);}
	.st168{opacity:0.3;fill:url(#SVGID_143_);}
	.st169{opacity:0.3;fill:url(#SVGID_144_);}
	.st170{opacity:0.3;fill:url(#SVGID_145_);}
	.st171{opacity:0.3;fill:url(#SVGID_146_);}
	.st172{opacity:0.3;fill:url(#SVGID_147_);}
	.st173{opacity:0.3;fill:url(#SVGID_148_);}
	.st174{fill:none;stroke:url(#SVGID_149_);stroke-miterlimit:10;}
	.st175{fill:none;stroke:url(#SVGID_150_);stroke-miterlimit:10;}
	.st176{fill:none;stroke:url(#SVGID_151_);stroke-miterlimit:10;}
	.st177{fill:url(#SVGID_152_);}
	.st178{font-size:10px;}
	.st179{fill:url(#SVGID_153_);}
	.st180{fill:url(#SVGID_154_);}
	.st181{opacity:0.5;}
	.st182{fill:url(#SVGID_155_);}
	.st183{font-family:'Arial';}
	.st184{font-size:9px;}
	.st185{fill:#B44592;}
	.st186{fill:#B44592;stroke:#B54592;stroke-miterlimit:10;}
	.st187{fill:url(#SVGID_156_);}
	.st188{opacity:0.7;fill:#B44592;}
	.st189{fill:url(#SVGID_157_);}
	.st190{fill:url(#SVGID_158_);}
	.st191{fill:url(#SVGID_159_);}
	.st192{fill:url(#SVGID_160_);}
	.st193{fill:url(#SVGID_161_);}
	.st194{fill:url(#SVGID_162_);}
	.st195{opacity:0.7;}
	.st196{fill:url(#SVGID_163_);}
	.st197{fill:url(#SVGID_164_);}
	.st198{fill:url(#SVGID_165_);}
	.st199{fill:url(#SVGID_166_);}
	.st200{fill:url(#SVGID_167_);}
	.st201{fill:url(#SVGID_168_);}
	.st202{opacity:0.3;fill:#B44592;}
	.st203{enable-background:new    ;}
	.st204{fill:url(#SVGID_169_);}
	.st205{fill:url(#SVGID_170_);}
	.st206{fill:none;stroke:#FFFFFF;stroke-width:0.75;stroke-miterlimit:10;}
	.st207{fill:url(#SVGID_171_);}
	.st208{opacity:0.3;fill:#FFFFFF;enable-background:new    ;}
	.st209{opacity:0.3;}
	.st210{fill:url(#Shape_18_);stroke:url(#Shape_19_);stroke-width:0.25;}
	.st211{fill:url(#Shape_20_);stroke:url(#Shape_21_);stroke-width:0.25;}
	.st212{fill:url(#Shape_22_);stroke:url(#Shape_23_);stroke-width:0.25;}
	.st213{fill:none;stroke:#B7E3EC;}
	.st214{fill:#6896CC;}
	.st215{fill:#36ACCB;}
	.st216{fill:#41C1F0;}
	.st217{fill:url(#SVGID_172_);}
	.st218{fill:none;stroke:url(#SVGID_173_);stroke-miterlimit:10;}
	.st219{fill:url(#SVGID_174_);}
	.st220{fill:url(#SVGID_175_);}
	.st221{fill:url(#SVGID_176_);}
	.st222{fill:url(#SVGID_177_);}
	.st223{fill:url(#SVGID_178_);}
	.st224{fill:url(#Shape_24_);stroke:url(#Shape_25_);stroke-width:0.25;}
	.st225{fill:#0F1B2C;}
	.st226{fill:#D52027;}
	.st227{opacity:0.52;}
	.st228{opacity:0.39;fill:url(#SVGID_179_);}
	.st229{opacity:0.26;fill:url(#SVGID_180_);}
	.st230{opacity:0.26;fill:url(#SVGID_181_);}
	.st231{opacity:0.26;fill:url(#SVGID_182_);}
	.st232{opacity:0.26;fill:url(#SVGID_183_);}
	.st233{opacity:0.26;fill:url(#SVGID_184_);}
	.st234{opacity:0.26;fill:url(#SVGID_185_);}
	.st235{opacity:0.26;fill:url(#SVGID_186_);}
	.st236{opacity:0.26;fill:url(#SVGID_187_);}
	.st237{opacity:0.26;fill:url(#SVGID_188_);}
	.st238{opacity:0.26;fill:url(#SVGID_189_);}
	.st239{opacity:0.26;fill:url(#SVGID_190_);}
	.st240{opacity:0.26;fill:url(#SVGID_191_);}
	.st241{opacity:0.26;fill:url(#SVGID_192_);}
	.st242{opacity:0.26;fill:url(#SVGID_193_);}
	.st243{fill:none;stroke:url(#SVGID_194_);stroke-width:0.5;stroke-miterlimit:10;}
	.st244{fill:url(#SVGID_195_);}
	.st245{fill:url(#SVGID_196_);}
	.st246{opacity:0.76;fill:#FFFFFF;enable-background:new    ;}
	.st247{fill:url(#SVGID_197_);}
	.st248{fill:url(#SVGID_198_);}
	.st249{fill:url(#SVGID_199_);}
	.st250{fill:url(#SVGID_200_);}
	.st251{fill:url(#SVGID_201_);}
	.st252{fill:url(#SVGID_202_);}
	.st253{fill:url(#SVGID_203_);}
	.st254{fill:url(#SVGID_204_);}
	.st255{fill:url(#Shape_26_);stroke:url(#Shape_27_);stroke-width:0.25;}
	.st256{fill:url(#Shape_28_);stroke:url(#Shape_29_);stroke-width:0.25;}
	.st257{fill:url(#Shape_30_);stroke:url(#Shape_31_);stroke-width:0.25;}
	.st258{fill:none;stroke:url(#Shape_32_);}
	.st259{fill:url(#SVGID_205_);}
	.st260{fill:url(#SVGID_206_);}
	.st261{fill:url(#SVGID_207_);}
	.st262{fill:url(#SVGID_208_);}
	.st263{fill:url(#SVGID_209_);}
	.st264{opacity:0.75;fill:url(#SVGID_210_);}
	.st265{opacity:0.75;fill:url(#SVGID_211_);}
	.st266{opacity:0.75;fill:url(#SVGID_212_);}
	.st267{opacity:0.75;fill:url(#SVGID_213_);}
	.st268{opacity:0.75;fill:url(#SVGID_214_);}
	.st269{fill:none;stroke:#FFFFFF;stroke-width:2;stroke-miterlimit:10;}
	.st270{opacity:0.75;fill:#FFFFFF;}
	.st271{opacity:0.75;fill:url(#SVGID_215_);}
	.st272{opacity:0.75;fill:url(#SVGID_216_);}
	.st273{fill:url(#SVGID_217_);}
	.st274{fill:url(#SVGID_218_);}
	.st275{fill:url(#SVGID_219_);}
	.st276{fill:url(#SVGID_220_);}
	.st277{fill:url(#SVGID_221_);}
	.st278{fill:url(#SVGID_222_);}
	.st279{fill:url(#SVGID_223_);}
	.st280{fill:url(#SVGID_224_);}
	.st281{fill:#43BFEF;}
	.st282{opacity:0.75;fill:url(#SVGID_225_);}
	.st283{opacity:0.75;fill:url(#SVGID_226_);}
	.st284{opacity:0.75;fill:url(#SVGID_227_);}
	.st285{opacity:0.75;fill:url(#SVGID_228_);}
	.st286{opacity:0.75;fill:url(#SVGID_229_);}
	.st287{opacity:0.75;fill:url(#SVGID_230_);}
	.st288{opacity:0.75;fill:url(#SVGID_231_);}
	.st289{opacity:0.75;fill:url(#SVGID_232_);}
	.st290{opacity:0.75;fill:url(#SVGID_233_);}
	.st291{opacity:0.75;fill:url(#SVGID_234_);}
	.st292{opacity:0.75;fill:url(#SVGID_235_);}
	.st293{opacity:0.75;fill:url(#SVGID_236_);}
	.st294{opacity:0.75;fill:url(#SVGID_237_);}
	.st295{opacity:0.75;fill:url(#SVGID_238_);}
	.st296{opacity:0.75;fill:url(#SVGID_239_);}
	.st297{opacity:0.75;fill:url(#SVGID_240_);}
	.st298{opacity:0.75;fill:url(#SVGID_241_);}
	.st299{opacity:0.75;fill:url(#SVGID_242_);}
	.st300{opacity:0.75;fill:url(#SVGID_243_);}
	.st301{opacity:0.75;fill:url(#SVGID_244_);}
	.st302{fill:url(#SVGID_245_);}
	.st303{fill:none;stroke:url(#SVGID_246_);stroke-miterlimit:10;}
	.st304{fill:#1199D2;}
	.st305{fill:#8BC9BE;}
	.st306{fill:#B2D299;}
	.st307{fill:#F4EB22;}
</style>
<g id="Layer_1">
	<g>
		<g class="st17">
			<linearGradient id="SVGID_1_" gradientUnits="userSpaceOnUse" x1="-97.9314" y1="97.75" x2="147.5686" y2="343.25">
				<stop  offset="2.483974e-03" style="stop-color:#57C8E1"/>
				<stop  offset="0.1396" style="stop-color:#58C1DE"/>
				<stop  offset="0.3628" style="stop-color:#58B2D7"/>
				<stop  offset="0.6444" style="stop-color:#579ACB"/>
				<stop  offset="0.9705" style="stop-color:#577ABC"/>
				<stop  offset="1" style="stop-color:#5777BB"/>
			</linearGradient>
			<rect x="-0.2" class="st0" width="50" height="441"/>
		</g>
		<g>
			
				<linearGradient id="SVGID_2_" gradientUnits="userSpaceOnUse" x1="-1319.9923" y1="-1244.0026" x2="-1009.8006" y2="-933.8109" gradientTransform="matrix(0 1 -1 0 -798.8964 1184.8965)">
				<stop  offset="0" style="stop-color:#5777BB"/>
				<stop  offset="1" style="stop-color:#57C8E1"/>
			</linearGradient>
			<rect x="-0.2" style="fill:url(#SVGID_2_);" width="580.4" height="40"/>
		</g>
		<g class="st20">
			<rect x="49.8" class="st21" width="97" height="40"/>
		</g>
		<circle class="st21" cx="501" cy="20" r="9"/>
		<circle class="st21" cx="538.8" cy="20" r="9"/>
		<g>
			<g>
				<text transform="matrix(1 0 0 1 61.3343 23.6465)" class="st22 st27 st28">Rakam Demo</text>
				<g>
					<polygon class="st22" points="137.8,18.5 133.6,22.7 129.4,18.6 129.7,18.3 133.6,22.2 137.5,18.2 					"/>
				</g>
			</g>
		</g>
		<g>
			<g>
				<rect x="15.8" y="19.7" class="st21" width="4.6" height="8.2"/>
				<rect x="22.5" y="15.6" class="st21" width="4.6" height="12.3"/>
				<rect x="29.2" y="12.1" class="st21" width="4.6" height="15.8"/>
			</g>
		</g>
		<g>
			<rect x="15.8" y="51.3" class="st21" width="8.6" height="5.5"/>
			<rect x="15.8" y="58.9" class="st21" width="8.6" height="10.4"/>
			<rect x="26.2" y="51.3" class="st21" width="7.6" height="10.4"/>
			<rect x="26.2" y="63.9" class="st21" width="7.6" height="5.5"/>
		</g>
		<path class="st21" d="M15.8,84v19.1h17V84h-2.4v0.9c0,0.3-0.3,0.5-0.6,0.5s-0.6-0.2-0.6-0.5V84h-2.4v0.9c0,0.3-0.3,0.5-0.6,0.5
			s-0.6-0.2-0.6-0.5V84h-2.4v0.9c0,0.3-0.3,0.5-0.6,0.5s-0.6-0.2-0.6-0.5V84h-2.4v0.9c0,0.3-0.3,0.5-0.6,0.5s-0.6-0.2-0.6-0.5V84
			H15.8z M29.8,90.4H18.9c-0.3,0-0.6-0.4-0.6-0.9c0-0.5,0.3-0.9,0.6-0.9h10.9c0.3,0,0.6,0.4,0.6,0.9C30.4,90,30.1,90.4,29.8,90.4z
			 M29.8,95.2H18.9c-0.3,0-0.6-0.4-0.6-0.9c0-0.5,0.3-0.9,0.6-0.9h10.9c0.3,0,0.6,0.4,0.6,0.9C30.4,94.8,30.1,95.2,29.8,95.2z
			 M29.8,99.9H18.9c-0.3,0-0.6-0.4-0.6-0.9c0-0.5,0.3-0.9,0.6-0.9h10.9c0.3,0,0.6,0.4,0.6,0.9C30.4,99.5,30.1,99.9,29.8,99.9z"/>
		<g>
			<path class="st21" d="M31.7,119.8c-3.8-3.8-9.9-3.8-13.7,0s-3.8,9.9,0,13.7c3.8,3.8,9.9,3.8,13.7,0
				C35.4,129.7,35.4,123.6,31.7,119.8z M21.4,130.1l1.7-5.1l5.1-1.7l-1.7,5.1L21.4,130.1z"/>
		</g>
		<path class="st21" d="M19.7,166.2c0.5,0.6,1,1.1,1.6,1.6v1.3c0,0.2,0.2,0.5,0.4,0.5l2.6,1h0.2c0.2,0,0.3-0.1,0.4-0.2l0.8-1
			c0.8,0.1,1.5,0.1,2.3,0l0.9,0.9c0.2,0.2,0.4,0.2,0.7,0.1l2.6-1.2c0.2-0.1,0.4-0.3,0.4-0.6l-0.1-1.3c0.6-0.5,1.1-1,1.6-1.6h1.3
			c0.2,0,0.5-0.2,0.5-0.4l1-2.7c0.1-0.2,0-0.5-0.2-0.7l-1-0.8c0.1-0.8,0.1-1.5,0-2.3l0.9-0.9c0.2-0.2,0.2-0.4,0.1-0.7l-1.2-2.6
			c-0.1-0.2-0.3-0.4-0.6-0.4l-1.3,0.1c-0.5-0.6-1-1.1-1.6-1.6v-1.2c0-0.2-0.2-0.5-0.4-0.5l-2.5-1c-0.2-0.1-0.5,0-0.7,0.2l-0.8,1
			c-0.8-0.1-1.5-0.1-2.3,0l-0.9-0.9c-0.2-0.2-0.4-0.2-0.7-0.1l-2.6,1.2c-0.2,0.1-0.4,0.3-0.4,0.6l0.1,1.3c-0.6,0.5-1.1,1-1.6,1.6
			h-1.3c-0.2,0-0.5,0.2-0.5,0.4l-1,2.5c-0.1,0.2,0,0.5,0.2,0.7l1,0.8c-0.1,0.8-0.1,1.5,0,2.3l-0.9,0.9c-0.2,0.2-0.2,0.4-0.1,0.7
			l1.2,2.6c0.1,0.2,0.3,0.4,0.6,0.4L19.7,166.2z M22.2,158.7c1-2.6,3.8-3.8,6.4-2.9c2.6,1,3.8,3.8,2.9,6.4s-3.8,3.8-6.4,2.9
			c0,0,0,0,0,0C22.5,164.1,21.2,161.2,22.2,158.7C22.2,158.7,22.2,158.7,22.2,158.7z"/>
	</g>
	<g>
		<linearGradient id="SVGID_3_" gradientUnits="userSpaceOnUse" x1="165.5154" y1="208.6475" x2="69.5154" y2="208.6475">
			<stop  offset="2.483974e-03" style="stop-color:#B34592"/>
			<stop  offset="0.2029" style="stop-color:#BA488F"/>
			<stop  offset="0.529" style="stop-color:#CC4F88"/>
			<stop  offset="0.9383" style="stop-color:#EA5D7B"/>
			<stop  offset="1" style="stop-color:#F16079"/>
		</linearGradient>
		<path style="fill:url(#SVGID_3_);" d="M162.5,223.6h-90c-1.7,0-3-1.3-3-3v-24c0-1.6,1.3-3,3-3h90c1.7,0,3,1.4,3,3v24
			C165.5,222.3,164.2,223.6,162.5,223.6z"/>
	</g>
	<g>
		<linearGradient id="SVGID_4_" gradientUnits="userSpaceOnUse" x1="176.6381" y1="208.6475" x2="272.6381" y2="208.6475">
			<stop  offset="2.483974e-03" style="stop-color:#B34592"/>
			<stop  offset="0.2029" style="stop-color:#BA488F"/>
			<stop  offset="0.529" style="stop-color:#CC4F88"/>
			<stop  offset="0.9383" style="stop-color:#EA5D7B"/>
			<stop  offset="1" style="stop-color:#F16079"/>
		</linearGradient>
		<path style="fill:url(#SVGID_4_);" d="M269.6,194.6c1.1,0,2,0.9,2,2v24c0,1.1-0.9,2-2,2h-90c-1.1,0-2-0.9-2-2v-24c0-1.1,0.9-2,2-2
			H269.6 M269.6,193.6h-90c-1.7,0-3,1.4-3,3v24c0,1.7,1.3,3,3,3h90c1.7,0,3-1.3,3-3v-24C272.6,195,271.3,193.6,269.6,193.6
			L269.6,193.6z"/>
	</g>
	<g>
		<text transform="matrix(1 0 0 1 99.4028 212.1575)" class="st46 st92 st93">Query</text>
	</g>
	<g>
		<text transform="matrix(1 0 0 1 210.0212 211.5722)" class="st94 st92 st93">Save</text>
	</g>
	<g class="st33">
		<linearGradient id="SVGID_5_" gradientUnits="userSpaceOnUse" x1="69.5154" y1="80.7037" x2="560.1036" y2="80.7037">
			<stop  offset="2.483974e-03" style="stop-color:#B34592"/>
			<stop  offset="0.2029" style="stop-color:#BA488F"/>
			<stop  offset="0.529" style="stop-color:#CC4F88"/>
			<stop  offset="0.9383" style="stop-color:#EA5D7B"/>
			<stop  offset="1" style="stop-color:#F16079"/>
		</linearGradient>
		<path style="fill:url(#SVGID_5_);" d="M554.6,101.2H75c-3,0-5.5-2.5-5.5-5.5v-30c0-3,2.5-5.5,5.5-5.5h479.6c3,0,5.5,2.5,5.5,5.5
			v30C560.1,98.7,557.6,101.2,554.6,101.2z"/>
	</g>
	<g>
		<text transform="matrix(1 0 0 1 79.5254 83.3533)" class="st21 st92 st178">User Who Did</text>
	</g>
	<rect x="178.6" y="70.7" class="st35" width="149.2" height="20"/>
	<g class="st33">
		<linearGradient id="SVGID_6_" gradientUnits="userSpaceOnUse" x1="69.5154" y1="131.7558" x2="560.1036" y2="131.7558">
			<stop  offset="2.483974e-03" style="stop-color:#B34592"/>
			<stop  offset="0.2029" style="stop-color:#BA488F"/>
			<stop  offset="0.529" style="stop-color:#CC4F88"/>
			<stop  offset="0.9383" style="stop-color:#EA5D7B"/>
			<stop  offset="1" style="stop-color:#F16079"/>
		</linearGradient>
		<path style="fill:url(#SVGID_6_);" d="M554.6,152.3H75c-3,0-5.5-2.5-5.5-5.5v-30c0-3,2.5-5.5,5.5-5.5h479.6c3,0,5.5,2.5,5.5,5.5
			v30C560.1,149.8,557.6,152.3,554.6,152.3z"/>
	</g>
	<rect x="177.6" y="121.7" class="st35" width="149.2" height="20"/>
	<g>
		<text transform="matrix(1 0 0 1 79.5254 129.6114)"><tspan x="0" y="0" class="st21 st92 st178">Then Come back </tspan><tspan x="0" y="12" class="st21 st92 st178">and Did</tspan></text>
	</g>
	<g class="st2">
		<g>
			<linearGradient id="SVGID_7_" gradientUnits="userSpaceOnUse" x1="69.5665" y1="172.8079" x2="218.7315" y2="172.8079">
				<stop  offset="2.483974e-03" style="stop-color:#B34592"/>
				<stop  offset="0.2029" style="stop-color:#BA488F"/>
				<stop  offset="0.529" style="stop-color:#CC4F88"/>
				<stop  offset="0.9383" style="stop-color:#EA5D7B"/>
				<stop  offset="1" style="stop-color:#F16079"/>
			</linearGradient>
			<path style="fill:url(#SVGID_7_);" d="M217.7,163.8v18H70.6v-18H217.7 M218.7,162.8H69.6v20h149.2V162.8L218.7,162.8z"/>
		</g>
	</g>
	<g class="st181">
		<g>
			<linearGradient id="SVGID_8_" gradientUnits="userSpaceOnUse" x1="69.5154" y1="172.8079" x2="218.6806" y2="172.8079">
				<stop  offset="2.483974e-03" style="stop-color:#B34592"/>
				<stop  offset="0.2029" style="stop-color:#BA488F"/>
				<stop  offset="0.529" style="stop-color:#CC4F88"/>
				<stop  offset="0.9383" style="stop-color:#EA5D7B"/>
				<stop  offset="1" style="stop-color:#F16079"/>
			</linearGradient>
			<path style="fill:url(#SVGID_8_);" d="M218.4,163v19.5H69.8V163H218.4 M218.7,162.8H69.5v20h149.2V162.8L218.7,162.8z"/>
		</g>
	</g>
	<g>
		<text transform="matrix(1 0 0 1 187.4626 82.7569)" class="st21 st92 st178">Account Update</text>
	</g>
	<polygon class="st38" points="317.2,78.9 313.5,82.7 309.7,79 310,78.7 313.5,82.2 317,78.7 	"/>
	<g>
		<text transform="matrix(1 0 0 1 186.4626 133.8088)" class="st21 st183 st184">Login</text>
	</g>
	<polygon class="st38" points="316.2,130 312.5,133.8 308.7,130 309,129.8 312.5,133.3 316,129.8 	"/>
	<g>
		<text transform="matrix(1 0 0 1 78.4626 175.1598)" class="st185 st92 st178">Group By </text>
	</g>
	<polygon class="st186" points="208.2,171 204.5,174.8 200.7,171 201,170.8 204.5,174.3 208,170.8 	"/>
	<g>
		<g>
			<path class="st21" d="M555.5,421.3h-481c-2.8,0-5-2.2-5-5V239.1c0-2.8,2.2-5,5-5h481c2.8,0,5,2.2,5,5v177.2
				C560.5,419,558.3,421.3,555.5,421.3z"/>
		</g>
		<g class="st181">
			<linearGradient id="SVGID_9_" gradientUnits="userSpaceOnUse" x1="69.5154" y1="327.6723" x2="560.5482" y2="327.6723">
				<stop  offset="0" style="stop-color:#F16079"/>
				<stop  offset="1" style="stop-color:#B34592"/>
			</linearGradient>
			<path style="fill:url(#SVGID_9_);" d="M555.5,421.3h-481c-2.8,0-5-2.2-5-5V239.1c0-2.8,2.2-5,5-5h481c2.8,0,5,2.2,5,5v177.2
				C560.5,419,558.3,421.3,555.5,421.3z"/>
		</g>
	</g>
	<g>
		<rect x="106.3" y="274" class="st188" width="41.9" height="27.6"/>
		<rect x="106.3" y="255.4" class="st21" width="41.9" height="13.2"/>
		<rect x="106.3" y="307.1" class="st188" width="41.9" height="27.6"/>
		<rect x="106.3" y="340.2" class="st188" width="41.9" height="27.6"/>
		<rect x="106.3" y="374.3" class="st188" width="41.9" height="27.6"/>
	</g>
	<g>
		<rect x="167.9" y="255.4" class="st21" width="41.9" height="13.2"/>
		<rect x="167.9" y="274" class="st188" width="41.9" height="27.6"/>
		<rect x="167.9" y="307.1" class="st188" width="41.9" height="27.6"/>
		<rect x="167.9" y="340.2" class="st188" width="41.9" height="27.6"/>
		<rect x="167.9" y="374.3" class="st21" width="41.9" height="27.6"/>
	</g>
	<g>
		<rect x="229.6" y="255.4" class="st21" width="41.9" height="13.2"/>
		<rect x="229.6" y="274" class="st188" width="41.9" height="27.6"/>
		<rect x="229.6" y="307.1" class="st188" width="41.9" height="27.6"/>
		<rect x="229.6" y="340.2" class="st21" width="41.9" height="27.6"/>
		<rect x="229.6" y="374.3" class="st21" width="41.9" height="27.6"/>
	</g>
	<g>
		<rect x="291.3" y="255.4" class="st21" width="41.9" height="13.2"/>
		<rect x="291.3" y="274" class="st188" width="41.9" height="27.6"/>
		<rect x="291.3" y="307.1" class="st21" width="41.9" height="27.6"/>
		<rect x="291.3" y="340.2" class="st21" width="41.9" height="27.6"/>
		<rect x="291.3" y="374.3" class="st21" width="41.9" height="27.6"/>
	</g>
	<g>
		<rect x="352.9" y="255.4" class="st21" width="41.9" height="13.2"/>
		<rect x="352.9" y="274" class="st21" width="41.9" height="27.6"/>
		<rect x="352.9" y="307.1" class="st21" width="41.9" height="27.6"/>
		<rect x="352.9" y="340.2" class="st21" width="41.9" height="27.6"/>
		<rect x="352.9" y="374.3" class="st21" width="41.9" height="27.6"/>
	</g>
	<text transform="matrix(1 0 0 1 116.2945 264.8278)" class="st185 st27 st184">Date</text>
	<text transform="matrix(1 0 0 1 176.3914 264.8278)" class="st185 st27 st184">Users</text>
	<text transform="matrix(1 0 0 1 238.9314 264.8278)" class="st185 st27 st184">Day 1</text>
	<text transform="matrix(1 0 0 1 299.6674 264.8278)" class="st185 st27 st184">Day 2</text>
	<text transform="matrix(1 0 0 1 361.3527 264.8278)" class="st185 st27 st184">Day 3</text>
</g>
<g id="Layer_2">
</g>
<g id="Layer_3">
</g>
</svg>
