<svg enable-background="new 0 0 580.4 441" viewBox="0 0 580.4 441" xml:space="preserve" xmlns="http://www.w3.org/2000/svg" xmlns:xlink="http://www.w3.org/1999/xlink"><linearGradient id="a" gradientUnits="userSpaceOnUse" x1="-97.9314" x2="147.5686" y1="97.75" y2="343.25"><stop offset=".002483974" stop-color="#57c8e1"/><stop offset=".1396" stop-color="#58c1de"/><stop offset=".3628" stop-color="#58b2d7"/><stop offset=".6444" stop-color="#579acb"/><stop offset=".9705" stop-color="#577abc"/><stop offset="1" stop-color="#5777bb"/></linearGradient><linearGradient id="b" gradientTransform="matrix(0 1 -1 0 -798.8964 1184.8965)" gradientUnits="userSpaceOnUse" x1="-1319.9923" x2="-1009.8006" y1="-1244.0026" y2="-933.8109"><stop offset="0" stop-color="#5777bb"/><stop offset="1" stop-color="#57c8e1"/></linearGradient><linearGradient id="c"><stop offset=".002483974" stop-color="#b34592"/><stop offset=".2029" stop-color="#ba488f"/><stop offset=".529" stop-color="#cc4f88"/><stop offset=".9383" stop-color="#ea5d7b"/><stop offset="1" stop-color="#f16079"/></linearGradient><linearGradient id="d" gradientUnits="userSpaceOnUse" x1="165.5154" x2="69.5154" xlink:href="#c" y1="208.6475" y2="208.6475"/><linearGradient id="e" gradientUnits="userSpaceOnUse" x1="176.6381" x2="272.6381" xlink:href="#c" y1="208.6475" y2="208.6475"/><linearGradient id="f" gradientUnits="userSpaceOnUse" x1="69.5154" x2="560.1036" xlink:href="#c" y1="80.7037" y2="80.7037"/><linearGradient id="g" gradientUnits="userSpaceOnUse" x1="69.5154" x2="560.1036" xlink:href="#c" y1="131.7558" y2="131.7558"/><linearGradient id="h" gradientUnits="userSpaceOnUse" x1="69.5665" x2="218.7315" xlink:href="#c" y1="172.8079" y2="172.8079"/><linearGradient id="i" gradientUnits="userSpaceOnUse" x1="69.5154" x2="218.6806" xlink:href="#c" y1="172.8079" y2="172.8079"/><linearGradient id="j" gradientUnits="userSpaceOnUse" x1="69.5154" x2="560.5482" y1="327.6723" y2="327.6723"><stop offset="0" stop-color="#f16079"/><stop offset="1" stop-color="#b34592"/></linearGradient><path d="m-.2 0h50v441h-50z" fill="url(#a)" opacity=".8"/><path d="m-.2 0h580.4v40h-580.4z" fill="url(#b)"/><path d="m49.8 0h97v40h-97z" fill="#fff" opacity=".44"/><circle cx="501" cy="20" fill="#fff" r="9"/><circle cx="538.8" cy="20" fill="#fff" r="9"/><text fill="#3c3c3c" font-family="'Arial'" font-size="9.002" transform="translate(61.3343 23.6465)">Rakam Demo</text><path d="m137.8 18.5-4.2 4.2-4.2-4.1.3-.3 3.9 3.9 3.9-4z" fill="#3c3c3c"/><g fill="#fff"><path d="m15.8 19.7h4.6v8.2h-4.6z"/><path d="m22.5 15.6h4.6v12.3h-4.6z"/><path d="m29.2 12.1h4.6v15.8h-4.6z"/><path d="m15.8 51.3h8.6v5.5h-8.6z"/><path d="m15.8 58.9h8.6v10.4h-8.6z"/><path d="m26.2 51.3h7.6v10.4h-7.6z"/><path d="m26.2 63.9h7.6v5.5h-7.6z"/><path d="m15.8 84v19.1h17v-19.1h-2.4v.9c0 .3-.3.5-.6.5s-.6-.2-.6-.5v-.9h-2.4v.9c0 .3-.3.5-.6.5s-.6-.2-.6-.5v-.9h-2.4v.9c0 .3-.3.5-.6.5s-.6-.2-.6-.5v-.9h-2.4v.9c0 .3-.3.5-.6.5s-.6-.2-.6-.5v-.9zm14 6.4h-10.9c-.3 0-.6-.4-.6-.9s.3-.9.6-.9h10.9c.3 0 .6.4.6.9s-.3.9-.6.9zm0 4.8h-10.9c-.3 0-.6-.4-.6-.9s.3-.9.6-.9h10.9c.3 0 .6.4.6.9s-.3.9-.6.9zm0 4.7h-10.9c-.3 0-.6-.4-.6-.9s.3-.9.6-.9h10.9c.3 0 .6.4.6.9s-.3.9-.6.9z"/><path d="m31.7 119.8c-3.8-3.8-9.9-3.8-13.7 0s-3.8 9.9 0 13.7 9.9 3.8 13.7 0c3.7-3.8 3.7-9.9 0-13.7zm-10.3 10.3 1.7-5.1 5.1-1.7-1.7 5.1z"/><path d="m19.7 166.2c.5.6 1 1.1 1.6 1.6v1.3c0 .2.2.5.4.5l2.6 1h.2c.2 0 .3-.1.4-.2l.8-1c.8.1 1.5.1 2.3 0l.9.9c.2.2.4.2.7.1l2.6-1.2c.2-.1.4-.3.4-.6l-.1-1.3c.6-.5 1.1-1 1.6-1.6h1.3c.2 0 .5-.2.5-.4l1-2.7c.1-.2 0-.5-.2-.7l-1-.8c.1-.8.1-1.5 0-2.3l.9-.9c.2-.2.2-.4.1-.7l-1.2-2.6c-.1-.2-.3-.4-.6-.4l-1.3.1c-.5-.6-1-1.1-1.6-1.6v-1.2c0-.2-.2-.5-.4-.5l-2.5-1c-.2-.1-.5 0-.7.2l-.8 1c-.8-.1-1.5-.1-2.3 0l-.9-.9c-.2-.2-.4-.2-.7-.1l-2.6 1.2c-.2.1-.4.3-.4.6l.1 1.3c-.6.5-1.1 1-1.6 1.6h-1.3c-.2 0-.5.2-.5.4l-1 2.5c-.1.2 0 .5.2.7l1 .8c-.1.8-.1 1.5 0 2.3l-.9.9c-.2.2-.2.4-.1.7l1.2 2.6c.1.2.3.4.6.4zm2.5-7.5c1-2.6 3.8-3.8 6.4-2.9 2.6 1 3.8 3.8 2.9 6.4s-3.8 3.8-6.4 2.9c-2.6-1-3.9-3.9-2.9-6.4z"/></g><path d="m162.5 223.6h-90c-1.7 0-3-1.3-3-3v-24c0-1.6 1.3-3 3-3h90c1.7 0 3 1.4 3 3v24c0 1.7-1.3 3-3 3z" fill="url(#d)"/><path d="m269.6 194.6c1.1 0 2 .9 2 2v24c0 1.1-.9 2-2 2h-90c-1.1 0-2-.9-2-2v-24c0-1.1.9-2 2-2zm0-1h-90c-1.7 0-3 1.4-3 3v24c0 1.7 1.3 3 3 3h90c1.7 0 3-1.3 3-3v-24c0-1.6-1.3-3-3-3z" fill="url(#e)"/><text fill="#fdfefe" font-family="'Arial'" font-size="12" transform="translate(99.4028 212.1575)">Query</text><text fill="#b54592" font-family="'Arial'" font-size="12" transform="translate(210.0212 211.5722)">Save</text><path d="m554.6 101.2h-479.6c-3 0-5.5-2.5-5.5-5.5v-30c0-3 2.5-5.5 5.5-5.5h479.6c3 0 5.5 2.5 5.5 5.5v30c0 3-2.5 5.5-5.5 5.5z" fill="url(#f)" opacity=".9"/><text fill="#fff" font-family="'Arial'" font-size="10" transform="translate(79.5254 83.3533)">User Who Did</text><path d="m178.6 70.7h149.2v20h-149.2z" fill="none" stroke="#fff" stroke-miterlimit="10"/><path d="m554.6 152.3h-479.6c-3 0-5.5-2.5-5.5-5.5v-30c0-3 2.5-5.5 5.5-5.5h479.6c3 0 5.5 2.5 5.5 5.5v30c0 3-2.5 5.5-5.5 5.5z" fill="url(#g)" opacity=".9"/><path d="m177.6 121.7h149.2v20h-149.2z" fill="none" stroke="#fff" stroke-miterlimit="10"/><text transform="translate(79.5254 129.6114)"><tspan fill="#fff" font-family="'Arial'" font-size="10" x="0" y="0">Then Come back </tspan><tspan fill="#fff" font-family="'Arial'" font-size="10" x="0" y="12">and Did</tspan></text><path d="m217.7 163.8v18h-147.1v-18zm1-1h-149.1v20h149.2v-20z" fill="url(#h)" opacity=".2"/><path d="m218.4 163v19.5h-148.6v-19.5zm.3-.2h-149.2v20h149.2z" fill="url(#i)" opacity=".5"/><text fill="#fff" font-family="'Arial'" font-size="10" transform="translate(187.4626 82.7569)">Account Update</text><path d="m317.2 78.9-3.7 3.8-3.8-3.7.3-.3 3.5 3.5 3.5-3.5z" fill="#fff" stroke="#fff" stroke-miterlimit="10"/><text fill="#fff" font-family="'Arial'" font-size="9" transform="translate(186.4626 133.8088)">Login</text><path d="m316.2 130-3.7 3.8-3.8-3.8.3-.2 3.5 3.5 3.5-3.5z" fill="#fff" stroke="#fff" stroke-miterlimit="10"/><text fill="#b44592" font-family="'Arial'" font-size="10" transform="translate(78.4626 175.1598)">Group By </text><path d="m208.2 171-3.7 3.8-3.8-3.8.3-.2 3.5 3.5 3.5-3.5z" fill="#b44592" stroke="#b54592" stroke-miterlimit="10"/><path d="m555.5 421.3h-481c-2.8 0-5-2.2-5-5v-177.2c0-2.8 2.2-5 5-5h481c2.8 0 5 2.2 5 5v177.2c0 2.7-2.2 5-5 5z" fill="#fff"/><path d="m555.5 421.3h-481c-2.8 0-5-2.2-5-5v-177.2c0-2.8 2.2-5 5-5h481c2.8 0 5 2.2 5 5v177.2c0 2.7-2.2 5-5 5z" fill="url(#j)" opacity=".5"/><path d="m106.3 274h41.9v27.6h-41.9z" fill="#b44592" opacity=".7"/><path d="m106.3 255.4h41.9v13.2h-41.9z" fill="#fff"/><path d="m106.3 307.1h41.9v27.6h-41.9z" fill="#b44592" opacity=".7"/><path d="m106.3 340.2h41.9v27.6h-41.9z" fill="#b44592" opacity=".7"/><path d="m106.3 374.3h41.9v27.6h-41.9z" fill="#b44592" opacity=".7"/><path d="m167.9 255.4h41.9v13.2h-41.9z" fill="#fff"/><path d="m167.9 274h41.9v27.6h-41.9z" fill="#b44592" opacity=".7"/><path d="m167.9 307.1h41.9v27.6h-41.9z" fill="#b44592" opacity=".7"/><path d="m167.9 340.2h41.9v27.6h-41.9z" fill="#b44592" opacity=".7"/><path d="m167.9 374.3h41.9v27.6h-41.9z" fill="#fff"/><path d="m229.6 255.4h41.9v13.2h-41.9z" fill="#fff"/><path d="m229.6 274h41.9v27.6h-41.9z" fill="#b44592" opacity=".7"/><path d="m229.6 307.1h41.9v27.6h-41.9z" fill="#b44592" opacity=".7"/><path d="m229.6 340.2h41.9v27.6h-41.9z" fill="#fff"/><path d="m229.6 374.3h41.9v27.6h-41.9z" fill="#fff"/><path d="m291.3 255.4h41.9v13.2h-41.9z" fill="#fff"/><path d="m291.3 274h41.9v27.6h-41.9z" fill="#b44592" opacity=".7"/><path d="m291.3 307.1h41.9v27.6h-41.9z" fill="#fff"/><path d="m291.3 340.2h41.9v27.6h-41.9z" fill="#fff"/><path d="m291.3 374.3h41.9v27.6h-41.9z" fill="#fff"/><path d="m352.9 255.4h41.9v13.2h-41.9z" fill="#fff"/><path d="m352.9 274h41.9v27.6h-41.9z" fill="#fff"/><path d="m352.9 307.1h41.9v27.6h-41.9z" fill="#fff"/><path d="m352.9 340.2h41.9v27.6h-41.9z" fill="#fff"/><path d="m352.9 374.3h41.9v27.6h-41.9z" fill="#fff"/><text fill="#b44592" font-family="'Arial'" font-size="9" transform="translate(116.2945 264.8278)">Date</text><text fill="#b44592" font-family="'Arial'" font-size="9" transform="translate(176.3914 264.8278)">Users</text><text fill="#b44592" font-family="'Arial'" font-size="9" transform="translate(238.9314 264.8278)">Day 1</text><text fill="#b44592" font-family="'Arial'" font-size="9" transform="translate(299.6674 264.8278)">Day 2</text><text fill="#b44592" font-family="'Arial'" font-size="9" transform="translate(361.3527 264.8278)">Day 3</text></svg>