<svg enable-background="new 0 0 580.4 441" viewBox="0 0 580.4 441" xmlns="http://www.w3.org/2000/svg" xmlns:xlink="http://www.w3.org/1999/xlink"><linearGradient id="a"><stop offset=".002483974" stop-color="#57c8e1"/><stop offset=".1396" stop-color="#58c1de"/><stop offset=".3628" stop-color="#58b2d7"/><stop offset=".6444" stop-color="#579acb"/><stop offset=".9705" stop-color="#577abc"/><stop offset="1" stop-color="#5777bb"/></linearGradient><linearGradient id="b" gradientUnits="userSpaceOnUse" x1="-97.8469" x2="147.6531" xlink:href="#a" y1="97.75" y2="343.25"/><linearGradient id="c" gradientTransform="matrix(0 1 -1 0 -166.5451 552.545)" gradientUnits="userSpaceOnUse" x1="-687.6409" x2="-377.4492" y1="-611.7358" y2="-301.5441"><stop offset="0" stop-color="#5777bb"/><stop offset="1" stop-color="#57c8e1"/></linearGradient><linearGradient id="d" gradientUnits="userSpaceOnUse" x1="166.3562" x2="70.3562" y1="253.6768" y2="253.6768"><stop offset="0" stop-color="#6fc171"/><stop offset="1" stop-color="#0f998e"/></linearGradient><linearGradient id="e"><stop offset=".002483974" stop-color="#0f998e"/><stop offset=".2964" stop-color="#40a686"/><stop offset=".7455" stop-color="#64b877"/><stop offset="1" stop-color="#6fc171"/></linearGradient><linearGradient id="f" gradientUnits="userSpaceOnUse" x1="176.2079" x2="273.2079" xlink:href="#e" y1="253.6768" y2="253.6768"/><linearGradient id="g" gradientUnits="userSpaceOnUse" x1="69.7983" x2="560.2386" xlink:href="#e" y1="144.0035" y2="144.0035"/><linearGradient id="h" gradientUnits="userSpaceOnUse" x1="69.4549" x2="560.33" xlink:href="#e" y1="323.1773" y2="323.1773"/><linearGradient id="i" gradientUnits="userSpaceOnUse" x1="69.4549" x2="560.33" xlink:href="#e" y1="353.9982" y2="353.9982"/><linearGradient id="j" gradientUnits="userSpaceOnUse" x1="69.4549" x2="560.33" xlink:href="#e" y1="385.7894" y2="385.7894"/><linearGradient id="k" gradientUnits="userSpaceOnUse" x1="69.4549" x2="560.33" xlink:href="#e" y1="416.2226" y2="416.2226"/><linearGradient id="l" gradientUnits="userSpaceOnUse" x1="112.0311" x2="134.3811" xlink:href="#e" y1="337.6045" y2="337.6045"/><linearGradient id="m" gradientUnits="userSpaceOnUse" x1="112.0311" x2="134.3811" xlink:href="#e" y1="353.9982" y2="353.9982"/><linearGradient id="n" gradientUnits="userSpaceOnUse" x1="112.0311" x2="134.3811" xlink:href="#e" y1="369.8938" y2="369.8938"/><linearGradient id="o" gradientUnits="userSpaceOnUse" x1="112.0311" x2="134.3811" xlink:href="#e" y1="385.7894" y2="385.7894"/><linearGradient id="p" gradientUnits="userSpaceOnUse" x1="112.0311" x2="134.3811" xlink:href="#e" y1="401.006" y2="401.006"/><linearGradient id="q" gradientUnits="userSpaceOnUse" x1="112.0311" x2="134.3811" xlink:href="#e" y1="416.2226" y2="416.2226"/><linearGradient id="r" gradientUnits="userSpaceOnUse" x1="198.6623" x2="221.0122" xlink:href="#e" y1="337.6045" y2="337.6045"/><linearGradient id="s" gradientUnits="userSpaceOnUse" x1="198.6623" x2="221.0122" xlink:href="#e" y1="353.9982" y2="353.9982"/><linearGradient id="t" gradientUnits="userSpaceOnUse" x1="198.6623" x2="221.0122" xlink:href="#e" y1="369.8938" y2="369.8938"/><linearGradient id="u" gradientUnits="userSpaceOnUse" x1="198.6623" x2="221.0122" xlink:href="#e" y1="385.7894" y2="385.7894"/><linearGradient id="v" gradientUnits="userSpaceOnUse" x1="198.6623" x2="221.0122" xlink:href="#e" y1="401.006" y2="401.006"/><linearGradient id="w" gradientUnits="userSpaceOnUse" x1="198.6623" x2="221.0122" xlink:href="#e" y1="416.2226" y2="416.2226"/><linearGradient id="x" gradientUnits="userSpaceOnUse" x1="283.1066" x2="305.4566" xlink:href="#e" y1="337.6045" y2="337.6045"/><linearGradient id="y" gradientUnits="userSpaceOnUse" x1="283.1066" x2="305.4566" xlink:href="#e" y1="353.9982" y2="353.9982"/><linearGradient id="z" gradientUnits="userSpaceOnUse" x1="283.1066" x2="305.4566" xlink:href="#e" y1="369.8938" y2="369.8938"/><linearGradient id="A" gradientUnits="userSpaceOnUse" x1="283.1066" x2="305.4566" xlink:href="#e" y1="385.7894" y2="385.7894"/><linearGradient id="B" gradientUnits="userSpaceOnUse" x1="283.1066" x2="305.4566" xlink:href="#e" y1="401.006" y2="401.006"/><linearGradient id="C" gradientUnits="userSpaceOnUse" x1="283.1066" x2="305.4566" xlink:href="#e" y1="416.2226" y2="416.2226"/><linearGradient id="D" gradientUnits="userSpaceOnUse" x1="367.5519" x2="389.9019" xlink:href="#e" y1="337.6045" y2="337.6045"/><linearGradient id="E" gradientUnits="userSpaceOnUse" x1="367.5519" x2="389.9019" xlink:href="#e" y1="353.9982" y2="353.9982"/><linearGradient id="F" gradientUnits="userSpaceOnUse" x1="367.5519" x2="389.9019" xlink:href="#e" y1="369.8938" y2="369.8938"/><linearGradient id="G" gradientUnits="userSpaceOnUse" x1="367.5519" x2="389.9019" xlink:href="#e" y1="385.7894" y2="385.7894"/><linearGradient id="H" gradientUnits="userSpaceOnUse" x1="367.5519" x2="389.9019" xlink:href="#e" y1="401.006" y2="401.006"/><linearGradient id="I" gradientUnits="userSpaceOnUse" x1="367.5519" x2="389.9019" xlink:href="#e" y1="416.2226" y2="416.2226"/><linearGradient id="J" gradientUnits="userSpaceOnUse" x1="427.2867" x2="480.7847" xlink:href="#e" y1="255.962" y2="255.962"/><linearGradient id="K" gradientUnits="userSpaceOnUse" x1="506.7407" x2="560.2386" xlink:href="#e" y1="255.962" y2="255.962"/><linearGradient id="L" gradientUnits="userSpaceOnUse" x1="69.3296" x2="560.2827" y1="300.3015" y2="300.3015"><stop offset=".002483974" stop-color="#e2d94d"/><stop offset=".1353" stop-color="#ded957"/><stop offset=".3515" stop-color="#d1d770"/><stop offset=".6242" stop-color="#bcd590"/><stop offset=".94" stop-color="#9bd3b8"/><stop offset="1" stop-color="#94d3c1"/></linearGradient><linearGradient id="M" gradientUnits="userSpaceOnUse" x1="73.1902" x2="560.3893" y1="302.1161" y2="302.1161"><stop offset=".002483974" stop-color="#0f998e"/><stop offset=".08194568" stop-color="#2ea08a"/><stop offset=".2713" stop-color="#50ad81"/><stop offset=".4754" stop-color="#62b778"/><stop offset=".7028" stop-color="#6dbe72"/><stop offset="1" stop-color="#6fc171"/></linearGradient><linearGradient id="N" gradientUnits="userSpaceOnUse" x1="69.3577" x2="560.3149" xlink:href="#a" y1="295.1542" y2="295.1542"/><path d="m-.1 0h50v441h-50z" fill="url(#b)" opacity=".8"/><path d="m-.1 0h580.4v40h-580.4z" fill="url(#c)"/><path d="m49.9 0h97v40h-97z" fill="#fff" opacity=".44"/><circle cx="501.1" cy="20" fill="#fff" r="9"/><circle cx="538.9" cy="20" fill="#fff" r="9"/><text fill="#3c3c3c" font-family="'Arial'" font-size="9.002" transform="translate(61.4189 23.6465)">Rakam Demo</text><path d="m137.9 18.5-4.2 4.2-4.2-4.1.3-.3 3.9 3.9 3.9-4z" fill="#3c3c3c"/><g fill="#fff"><path d="m15.9 19.7h4.6v8.2h-4.6z"/><path d="m22.6 15.6h4.6v12.3h-4.6z"/><path d="m29.3 12.1h4.6v15.8h-4.6z"/><path d="m15.9 51.3h8.6v5.5h-8.6z"/><path d="m15.9 58.9h8.6v10.4h-8.6z"/><path d="m26.3 51.3h7.6v10.4h-7.6z"/><path d="m26.3 63.9h7.6v5.5h-7.6z"/><path d="m15.9 84v19.1h17v-19.1h-2.4v.9c0 .3-.3.5-.6.5s-.6-.2-.6-.5v-.9h-2.4v.9c0 .3-.3.5-.6.5s-.6-.2-.6-.5v-.9h-2.4v.9c0 .3-.3.5-.6.5s-.7-.2-.7-.5v-.9h-2.4v.9c0 .3-.3.5-.6.5s-.6-.2-.6-.5v-.9zm14 6.4h-11c-.3 0-.6-.4-.6-.9s.3-.9.6-.9h10.9c.3 0 .6.4.6.9.1.5-.2.9-.5.9zm0 4.8h-11c-.3 0-.6-.4-.6-.9s.3-.9.6-.9h10.9c.3 0 .6.4.6.9.1.5-.2.9-.5.9zm0 4.7h-11c-.3 0-.6-.4-.6-.9s.3-.9.6-.9h10.9c.3 0 .6.4.6.9.1.5-.2.9-.5.9z"/><path d="m31.7 119.8c-3.8-3.8-9.9-3.8-13.7 0s-3.8 9.9 0 13.7 9.9 3.8 13.7 0 3.8-9.9 0-13.7zm-10.2 10.3 1.7-5.1 5.1-1.7-1.7 5.1z"/><path d="m19.8 166.2c.5.6 1 1.1 1.6 1.6v1.3c0 .2.2.5.4.5l2.6 1h.2c.2 0 .3-.1.4-.2l.8-1c.8.1 1.5.1 2.3 0l.9.9c.2.2.4.2.7.1l2.6-1.2c.2-.1.4-.3.4-.6l-.1-1.3c.6-.5 1.1-1 1.6-1.6h1.3c.2 0 .5-.2.5-.4l1-2.7c.1-.2 0-.5-.2-.7l-1-.8c.1-.8.1-1.5 0-2.3l.9-.9c.2-.2.2-.4.1-.7l-1.2-2.6c-.1-.2-.3-.4-.6-.4l-1.3.1c-.5-.6-1-1.1-1.6-1.6v-1.2c0-.2-.2-.5-.4-.5l-2.5-1c-.2-.1-.5 0-.7.2l-.8 1c-.8-.1-1.5-.1-2.3 0l-.9-.9c-.2-.2-.4-.2-.7-.1l-2.6 1.2c-.2.1-.4.3-.4.6l.1 1.3c-.6.5-1.1 1-1.6 1.6h-1.3c-.2 0-.5.2-.5.4l-1 2.5c-.1.2 0 .5.2.7l1 .8c-.1.8-.1 1.5 0 2.3l-.9.9c-.2.2-.2.4-.1.7l1.3 2.8c.1.2.3.4.6.4zm2.5-7.5c1-2.6 3.8-3.8 6.4-2.9 2.6 1 3.8 3.8 2.9 6.4s-3.8 3.8-6.4 2.9c-2.6-1-3.9-3.9-2.9-6.4z"/></g><path d="m163.4 268.7h-90c-1.7 0-3-1.4-3-3v-24c0-1.6 1.3-3 3-3h90c1.6 0 3 1.4 3 3v24c0 1.6-1.4 3-3 3z" fill="url(#d)"/><path d="m269.7 268.7h-90c-1.6 0-3-1.4-3-3v-24c0-1.6 1.4-3 3-3h90c1.6 0 3 1.4 3 3v24c0 1.6-1.3 3-3 3z" fill="none" stroke="url(#f)" stroke-miterlimit="10"/><text fill="#fdfefe" font-family="'Arial'" font-size="12" transform="translate(99.4735 257.1869)">Query</text><text fill="#04998e" font-family="'Arial'" font-size="12" transform="translate(210.0919 256.6016)">Save</text><circle cx="64" cy="67" fill="#fff" r="3.5"/><circle cx="64" cy="114.1" fill="#fff" r="3.5"/><circle cx="64" cy="161.1" fill="#fff" r="3.5"/><path d="m554.7 228.2h-479.4c-3 0-5.5-2.5-5.5-5.5v-157.4c0-3 2.5-5.5 5.5-5.5h479.5c3 0 5.5 2.5 5.5 5.5v157.4c-.1 3-2.5 5.5-5.6 5.5z" fill="url(#g)" opacity=".9"/><text fill="#fff" font-family="'Arial'" font-size="10" transform="translate(79.7748 83.4126)">Analyze</text><path d="m216.3 1081.6-.3.3 1.7 1.7-1.7 1.7.3.3 1.7-1.7 1.7 1.7.3-.3-1.7-1.7 1.7-1.7-.3-.3-1.7 1.7z" fill="#08998e" transform="translate(0 -1002.3622)"/><path d="m148.8 71.4h188.7v20h-188.7z" fill="none" stroke="#fff" stroke-miterlimit="10"/><text fill="#fff" font-family="'Arial'" font-size="10" transform="translate(79.7748 125.1753)">Measure</text><path d="m148.8 113.1h89.5v20h-89.5z" fill="none" stroke="#fff" stroke-miterlimit="10"/><text fill="#fff" font-family="'Arial'" font-size="10" transform="translate(79.7748 166.938)">Dimension</text><path d="m148.8 154.9h188.7v20h-188.7z" fill="none" stroke="#fff" stroke-miterlimit="10"/><path d="m148.8 71.6h188.7v20h-188.7z" fill="none" stroke="#fff" stroke-miterlimit="10"/><text fill="#fff" font-family="'Arial'" font-size="10" transform="translate(79.7748 208.7007)">Segment</text><path d="m148.8 196.7h188.7v20h-188.7z" fill="none" stroke="#fff" stroke-miterlimit="10"/><path d="m69.5 315.9h490.9v14.6h-490.9z" fill="url(#h)" opacity=".5"/><path d="m69.5 346.7h490.9v14.6h-490.9z" fill="url(#i)" opacity=".5"/><path d="m69.5 378.5h490.9v14.6h-490.9z" fill="url(#j)" opacity=".5"/><path d="m69.5 408.9h490.9v14.6h-490.9z" fill="url(#k)" opacity=".5"/><text fill="#0a6057" font-family="'Arial'" font-size="9" transform="translate(105.7183 326.1338)">Country</text><text fill="#0a6057" font-family="'Arial'" font-size="9" transform="translate(177.064 326.1338)">Unique Users</text><text fill="#0a6057" font-family="'Arial'" font-size="9" transform="translate(264.4922 325.8838)">Total Events</text><text fill="#0a6057" font-family="'Arial'" font-size="9" transform="translate(365.9105 325.8838)">Ratio</text><circle cx="172.4" cy="322.3" fill="#fff" r="1.5"/><circle cx="260.5" cy="323.3" fill="#fff" r="1.5"/><path d="m112 335.5h22.3v4.1h-22.3z" fill="url(#l)" opacity=".7"/><path d="m112 351.9h22.3v4.1h-22.3z" fill="url(#m)" opacity=".7"/><path d="m112 367.8h22.3v4.1h-22.3z" fill="url(#n)" opacity=".7"/><path d="m112 383.7h22.3v4.1h-22.3z" fill="url(#o)" opacity=".7"/><path d="m112 398.9h22.3v4.1h-22.3z" fill="url(#p)" opacity=".7"/><path d="m112 414.2h22.3v4.1h-22.3z" fill="url(#q)" opacity=".7"/><path d="m198.7 335.5h22.3v4.1h-22.3z" fill="url(#r)" opacity=".7"/><path d="m198.7 351.9h22.3v4.1h-22.3z" fill="url(#s)" opacity=".7"/><path d="m198.7 367.8h22.3v4.1h-22.3z" fill="url(#t)" opacity=".7"/><path d="m198.7 383.7h22.3v4.1h-22.3z" fill="url(#u)" opacity=".7"/><path d="m198.7 398.9h22.3v4.1h-22.3z" fill="url(#v)" opacity=".7"/><path d="m198.7 414.2h22.3v4.1h-22.3z" fill="url(#w)" opacity=".7"/><path d="m283.1 335.5h22.3v4.1h-22.3z" fill="url(#x)" opacity=".7"/><path d="m283.1 351.9h22.3v4.1h-22.3z" fill="url(#y)" opacity=".7"/><path d="m283.1 367.8h22.3v4.1h-22.3z" fill="url(#z)" opacity=".7"/><path d="m283.1 383.7h22.3v4.1h-22.3z" fill="url(#A)" opacity=".7"/><path d="m283.1 398.9h22.3v4.1h-22.3z" fill="url(#B)" opacity=".7"/><path d="m283.1 414.2h22.3v4.1h-22.3z" fill="url(#C)" opacity=".7"/><path d="m367.6 335.5h22.3v4.1h-22.3z" fill="url(#D)" opacity=".7"/><path d="m367.6 351.9h22.3v4.1h-22.3z" fill="url(#E)" opacity=".7"/><path d="m367.6 367.8h22.3v4.1h-22.3z" fill="url(#F)" opacity=".7"/><path d="m367.6 383.7h22.3v4.1h-22.3z" fill="url(#G)" opacity=".7"/><path d="m367.6 398.9h22.3v4.1h-22.3z" fill="url(#H)" opacity=".7"/><path d="m367.6 414.2h22.3v4.1h-22.3z" fill="url(#I)" opacity=".7"/><text fill="#0a6057" font-family="'Arial'" font-size="10" transform="translate(394.987 257.7881)">From</text><path d="m427.3 249.8h53.5v12.4h-53.5z" fill="url(#J)" opacity=".5"/><text fill="#0a6057" font-family="'Arial'" font-size="10" transform="translate(490.3692 257.7881)">To</text><path d="m506.7 249.8h53.5v12.4h-53.5z" fill="url(#K)" opacity=".5"/><path d="m69.5 295.8s65.8-17 122.5 1.3c55.9 18.2 75.2 13.2 126.4 8.5 33.5-3.1 66.8-19.4 158-4.9 75 11.9 84 11.3 84 11.3" fill="none" stroke="url(#L)" stroke-miterlimit="10"/><path d="m73.3 310.4s142.9-36.7 320.1-4.7c0 0 70.1 12.6 166.9 1" fill="none" stroke="url(#M)" stroke-miterlimit="10"/><path d="m69.5 284.4s78.5-15.6 205.4 13.4c114.7 26.2 285.4 2.6 285.4 2.6" fill="none" stroke="url(#N)" stroke-miterlimit="10"/><text fill="#fff" font-family="'Arial'" font-size="10" transform="translate(156.6283 209.802)">Device Family</text><text fill="#fff" font-family="'Arial'" font-size="10" transform="translate(156.6283 167.802)">Country Code</text><text fill="#fff" font-family="'Arial'" font-size="10" transform="translate(159.088 125.7633)">Unique Users</text><path d="m247.9 113.1h89.5v20h-89.5z" fill="none" stroke="#fff" stroke-miterlimit="10"/><text fill="#fff" font-family="'Arial'" font-size="10" transform="translate(260.9764 126.4698)">Total Events</text><path d="m151.1 73.7h96.8v15h-96.8z" fill="#fff"/><text fill="#08998e" font-family="'Arial'" font-size="10" transform="translate(155.7749 83.802)">Add to Basket</text><path d="m326.9 79.6-3.7 3.8-3.8-3.8.3-.2 3.5 3.5 3.5-3.5z" fill="#fff" stroke="#fff" stroke-miterlimit="10"/><path d="m326.9 163.1-3.7 3.8-3.8-3.7.3-.3 3.5 3.5 3.5-3.5z" fill="#fff" stroke="#fff" stroke-miterlimit="10"/><path d="m326.9 204.9-3.7 3.7-3.8-3.7.3-.2 3.5 3.5 3.5-3.6z" fill="#fff" stroke="#fff" stroke-miterlimit="10"/><path d="m237.4 1081.7-.3.3 1.7 1.7-1.7 1.7.3.3 1.7-1.7 1.7 1.7.3-.3-1.7-1.7 1.7-1.7-.3-.3-1.7 1.7z" fill="#08998e" stroke="#03998f" stroke-miterlimit="10" transform="translate(0 -1002.3622)"/><path d="m560 144.1h-490.5" fill="none" stroke="#fff" stroke-miterlimit="10" stroke-width=".75"/><path d="m560 185.9h-490.5" fill="none" stroke="#fff" stroke-miterlimit="10" stroke-width=".75"/><path d="m560 102.3h-490.5" fill="none" stroke="#fff" stroke-miterlimit="10" stroke-width=".75"/></svg>