<?xml version="1.0" encoding="utf-8"?>
<!-- Generator: Adobe Illustrator 21.0.0, SVG Export Plug-In . SVG Version: 6.00 Build 0)  -->
<svg version="1.1" xmlns="http://www.w3.org/2000/svg" xmlns:xlink="http://www.w3.org/1999/xlink" x="0px" y="0px"
	 viewBox="0 0 580.4 441" style="enable-background:new 0 0 580.4 441;" xml:space="preserve">
<style type="text/css">
	.st0{fill:url(#SVGID_1_);}
	.st1{fill:none;stroke:url(#SVGID_2_);stroke-width:0.75;stroke-miterlimit:10;}
	.st2{opacity:0.2;}
	.st3{fill:none;stroke:url(#SVGID_3_);stroke-miterlimit:10;}
	.st4{fill:none;stroke:url(#SVGID_4_);stroke-miterlimit:10;}
	.st5{fill:none;stroke:url(#SVGID_5_);stroke-miterlimit:10;}
	.st6{fill:none;stroke:url(#SVGID_6_);stroke-miterlimit:10;}
	.st7{fill:none;stroke:url(#SVGID_7_);stroke-miterlimit:10;}
	.st8{fill:none;stroke:url(#SVGID_8_);stroke-miterlimit:10;}
	.st9{fill:none;stroke:url(#SVGID_9_);stroke-miterlimit:10;}
	.st10{fill:none;stroke:url(#SVGID_10_);stroke-miterlimit:10;}
	.st11{fill:none;stroke:url(#SVGID_11_);stroke-miterlimit:10;}
	.st12{fill:none;stroke:url(#SVGID_12_);stroke-miterlimit:10;}
	.st13{fill:none;stroke:url(#SVGID_13_);stroke-miterlimit:10;}
	.st14{fill:none;stroke:url(#SVGID_14_);stroke-miterlimit:10;}
	.st15{fill:none;stroke:url(#SVGID_15_);stroke-miterlimit:10;}
	.st16{fill:none;stroke:url(#SVGID_16_);stroke-miterlimit:10;}
	.st17{opacity:0.8;}
	.st18{fill:url(#SVGID_17_);}
	.st19{fill:url(#SVGID_18_);}
	.st20{opacity:0.44;}
	.st21{fill:#FFFFFF;}
	.st22{fill:#3C3C3C;}
	.st23{fill:url(#SVGID_19_);}
	.st24{fill:url(#SVGID_20_);}
	.st25{font-family:'Arial';}
	.st26{font-size:9.002px;}
	.st27{fill:url(#SVGID_21_);}
	.st28{fill:url(#SVGID_22_);}
	.st29{fill:url(#SVGID_23_);}
	.st30{fill:url(#SVGID_24_);}
	.st31{fill:url(#SVGID_25_);}
	.st32{fill:url(#SVGID_26_);}
	.st33{opacity:0.9;}
	.st34{fill:url(#SVGID_27_);}
	.st35{fill:none;stroke:#FFFFFF;stroke-miterlimit:10;}
	.st36{fill:url(#SVGID_28_);}
	.st37{fill:url(#SVGID_29_);}
	.st38{fill:#FFFFFF;stroke:#FFFFFF;stroke-miterlimit:10;}
	.st39{opacity:0.5;fill:url(#SVGID_30_);}
	.st40{opacity:0.5;fill:url(#SVGID_31_);}
	.st41{opacity:0.5;fill:url(#SVGID_32_);}
	.st42{opacity:0.5;fill:url(#SVGID_33_);}
	.st43{fill:url(#SVGID_34_);}
	.st44{fill:url(#SVGID_35_);}
	.st45{fill:url(#SVGID_36_);}
	.st46{fill:#FDFEFE;}
	.st47{fill:#5877BA;}
	.st48{fill:url(#SVGID_37_);}
	.st49{fill:none;stroke:url(#SVGID_38_);stroke-miterlimit:10;}
	.st50{fill:none;stroke:url(#SVGID_39_);stroke-miterlimit:10;}
	.st51{fill:none;stroke:url(#SVGID_40_);stroke-miterlimit:10;}
	.st52{fill:none;stroke:url(#SVGID_41_);stroke-miterlimit:10;}
	.st53{fill:none;stroke:url(#SVGID_42_);stroke-miterlimit:10;}
	.st54{fill:none;stroke:url(#SVGID_43_);stroke-miterlimit:10;}
	.st55{fill:none;stroke:url(#SVGID_44_);stroke-miterlimit:10;}
	.st56{fill:none;stroke:url(#SVGID_45_);stroke-miterlimit:10;}
	.st57{fill:none;stroke:url(#SVGID_46_);stroke-miterlimit:10;}
	.st58{fill:none;stroke:url(#SVGID_47_);stroke-miterlimit:10;}
	.st59{fill:none;stroke:url(#SVGID_48_);stroke-miterlimit:10;}
	.st60{fill:none;stroke:url(#SVGID_49_);stroke-miterlimit:10;}
	.st61{fill:none;stroke:url(#SVGID_50_);stroke-miterlimit:10;}
	.st62{fill:none;stroke:url(#SVGID_51_);stroke-miterlimit:10;}
	.st63{fill:none;stroke:url(#SVGID_52_);stroke-miterlimit:10;}
	.st64{fill:url(#SVGID_53_);}
	.st65{fill:url(#SVGID_54_);}
	.st66{opacity:0.6;}
	.st67{fill:url(#SVGID_55_);}
	.st68{fill:url(#SVGID_56_);}
	.st69{fill:#FFFFFF;stroke:url(#SVGID_57_);stroke-width:0.25;stroke-miterlimit:10;}
	.st70{fill:url(#SVGID_58_);}
	.st71{fill:#FFFFFF;stroke:url(#SVGID_59_);stroke-width:0.25;stroke-miterlimit:10;}
	.st72{fill:url(#SVGID_60_);}
	.st73{fill:url(#SVGID_61_);}
	.st74{fill:url(#SVGID_62_);}
	.st75{fill:url(#SVGID_63_);}
	.st76{fill:url(#SVGID_64_);}
	.st77{fill:url(#SVGID_65_);}
	.st78{fill:#787878;}
	.st79{fill:#BABABA;}
	.st80{opacity:0.5;fill:url(#SVGID_66_);}
	.st81{opacity:0.5;fill:url(#SVGID_67_);}
	.st82{opacity:0.5;fill:url(#SVGID_68_);}
	.st83{opacity:0.5;fill:url(#SVGID_69_);}
	.st84{opacity:0.5;fill:url(#SVGID_70_);}
	.st85{opacity:0.5;fill:url(#SVGID_71_);}
	.st86{opacity:0.5;fill:url(#SVGID_72_);}
	.st87{fill:url(#SVGID_73_);}
	.st88{fill:none;stroke:url(#SVGID_74_);stroke-miterlimit:10;}
	.st89{font-family:'Arial';}
	.st90{font-size:12px;}
	.st91{fill:#04998E;}
	.st92{fill:url(#SVGID_75_);}
	.st93{fill:url(#SVGID_76_);}
	.st94{fill:#B54592;}
	.st95{fill:url(#SVGID_77_);}
	.st96{fill:none;stroke:url(#SVGID_78_);stroke-miterlimit:10;}
	.st97{fill:#426FB6;}
	.st98{opacity:0.9;fill:url(#SVGID_79_);}
	.st99{font-size:10px;}
	.st100{fill:#08998E;}
	.st101{opacity:0.5;fill:url(#SVGID_80_);}
	.st102{opacity:0.5;fill:url(#SVGID_81_);}
	.st103{opacity:0.5;fill:url(#SVGID_82_);}
	.st104{opacity:0.5;fill:url(#SVGID_83_);}
	.st105{fill:#0A6057;}
	.st106{font-family:'Arial';}
	.st107{font-size:9px;}
	.st108{opacity:0.7;fill:url(#SVGID_84_);}
	.st109{opacity:0.7;fill:url(#SVGID_85_);}
	.st110{opacity:0.7;fill:url(#SVGID_86_);}
	.st111{opacity:0.7;fill:url(#SVGID_87_);}
	.st112{opacity:0.7;fill:url(#SVGID_88_);}
	.st113{opacity:0.7;fill:url(#SVGID_89_);}
	.st114{opacity:0.7;fill:url(#SVGID_90_);}
	.st115{opacity:0.7;fill:url(#SVGID_91_);}
	.st116{opacity:0.7;fill:url(#SVGID_92_);}
	.st117{opacity:0.7;fill:url(#SVGID_93_);}
	.st118{opacity:0.7;fill:url(#SVGID_94_);}
	.st119{opacity:0.7;fill:url(#SVGID_95_);}
	.st120{opacity:0.7;fill:url(#SVGID_96_);}
	.st121{opacity:0.7;fill:url(#SVGID_97_);}
	.st122{opacity:0.7;fill:url(#SVGID_98_);}
	.st123{opacity:0.7;fill:url(#SVGID_99_);}
	.st124{opacity:0.7;fill:url(#SVGID_100_);}
	.st125{opacity:0.7;fill:url(#SVGID_101_);}
	.st126{opacity:0.7;fill:url(#SVGID_102_);}
	.st127{opacity:0.7;fill:url(#SVGID_103_);}
	.st128{opacity:0.7;fill:url(#SVGID_104_);}
	.st129{opacity:0.7;fill:url(#SVGID_105_);}
	.st130{opacity:0.7;fill:url(#SVGID_106_);}
	.st131{opacity:0.7;fill:url(#SVGID_107_);}
	.st132{opacity:0.5;fill:url(#SVGID_108_);}
	.st133{opacity:0.5;fill:url(#SVGID_109_);}
	.st134{fill:none;stroke:url(#SVGID_110_);stroke-miterlimit:10;}
	.st135{fill:none;stroke:url(#SVGID_111_);stroke-miterlimit:10;}
	.st136{fill:none;stroke:url(#SVGID_112_);stroke-miterlimit:10;}
	.st137{fill:#08998E;stroke:#03998F;stroke-miterlimit:10;}
	.st138{fill:url(#SVGID_113_);}
	.st139{fill:none;stroke:url(#SVGID_114_);stroke-miterlimit:10;}
	.st140{fill:url(#SVGID_115_);}
	.st141{fill:url(#SVGID_116_);}
	.st142{fill:url(#SVGID_117_);}
	.st143{opacity:0.2;fill:url(#SVGID_118_);}
	.st144{opacity:0.5;fill:#FFFFFF;}
	.st145{fill:none;stroke:#08998E;stroke-width:0.5;stroke-miterlimit:10;}
	.st146{fill:#FFFFFF;stroke:#08998E;stroke-width:0.5;stroke-miterlimit:10;}
	.st147{opacity:0.3;fill:url(#SVGID_119_);}
	.st148{opacity:0.3;fill:url(#SVGID_120_);}
	.st149{opacity:0.3;fill:url(#SVGID_121_);}
	.st150{opacity:0.3;fill:url(#SVGID_122_);}
	.st151{opacity:0.3;fill:url(#SVGID_123_);}
	.st152{opacity:0.3;fill:url(#SVGID_124_);}
	.st153{opacity:0.3;fill:url(#SVGID_125_);}
	.st154{opacity:0.3;fill:url(#SVGID_126_);}
	.st155{opacity:0.3;fill:url(#SVGID_127_);}
	.st156{opacity:0.3;fill:url(#SVGID_128_);}
	.st157{opacity:0.3;fill:url(#SVGID_129_);}
	.st158{opacity:0.3;fill:url(#SVGID_130_);}
	.st159{opacity:0.3;fill:url(#SVGID_131_);}
	.st160{opacity:0.3;fill:url(#SVGID_132_);}
	.st161{opacity:0.3;fill:url(#SVGID_133_);}
	.st162{opacity:0.3;fill:url(#SVGID_134_);}
	.st163{opacity:0.3;fill:url(#SVGID_135_);}
	.st164{opacity:0.3;fill:url(#SVGID_136_);}
	.st165{opacity:0.3;fill:url(#SVGID_137_);}
	.st166{opacity:0.3;fill:url(#SVGID_138_);}
	.st167{opacity:0.3;fill:url(#SVGID_139_);}
	.st168{opacity:0.3;fill:url(#SVGID_140_);}
	.st169{opacity:0.3;fill:url(#SVGID_141_);}
	.st170{opacity:0.3;fill:url(#SVGID_142_);}
	.st171{opacity:0.3;fill:url(#SVGID_143_);}
	.st172{opacity:0.3;fill:url(#SVGID_144_);}
	.st173{opacity:0.3;fill:url(#SVGID_145_);}
	.st174{opacity:0.3;fill:url(#SVGID_146_);}
	.st175{opacity:0.3;fill:url(#SVGID_147_);}
	.st176{opacity:0.3;fill:url(#SVGID_148_);}
	.st177{fill:none;stroke:url(#SVGID_149_);stroke-miterlimit:10;}
	.st178{fill:none;stroke:url(#SVGID_150_);stroke-miterlimit:10;}
	.st179{fill:none;stroke:url(#SVGID_151_);stroke-miterlimit:10;}
	.st180{fill:url(#SVGID_152_);}
	.st181{fill:url(#SVGID_153_);}
	.st182{fill:url(#SVGID_154_);}
	.st183{opacity:0.5;}
	.st184{fill:url(#SVGID_155_);}
	.st185{fill:#B44592;}
	.st186{fill:#B44592;stroke:#B54592;stroke-miterlimit:10;}
	.st187{fill:url(#SVGID_156_);}
	.st188{opacity:0.7;fill:#B44592;}
	.st189{fill:url(#SVGID_157_);}
	.st190{fill:url(#SVGID_158_);}
	.st191{fill:url(#SVGID_159_);}
	.st192{fill:url(#SVGID_160_);}
	.st193{fill:url(#SVGID_161_);}
	.st194{fill:url(#SVGID_162_);}
	.st195{opacity:0.7;}
	.st196{fill:url(#SVGID_163_);}
	.st197{fill:url(#SVGID_164_);}
	.st198{fill:url(#SVGID_165_);}
	.st199{fill:url(#SVGID_166_);}
	.st200{fill:url(#SVGID_167_);}
	.st201{fill:url(#SVGID_168_);}
	.st202{opacity:0.3;fill:#B44592;}
	.st203{enable-background:new    ;}
	.st204{fill:url(#SVGID_169_);}
	.st205{fill:url(#SVGID_170_);}
	.st206{fill:none;stroke:#FFFFFF;stroke-width:0.75;stroke-miterlimit:10;}
	.st207{fill:url(#SVGID_171_);}
	.st208{opacity:0.3;fill:#FFFFFF;enable-background:new    ;}
	.st209{opacity:0.3;}
	.st210{fill:url(#Shape_18_);stroke:url(#Shape_19_);stroke-width:0.25;}
	.st211{fill:url(#Shape_20_);stroke:url(#Shape_21_);stroke-width:0.25;}
	.st212{fill:url(#Shape_22_);stroke:url(#Shape_23_);stroke-width:0.25;}
	.st213{fill:none;stroke:#B7E3EC;}
	.st214{fill:#6896CC;}
	.st215{fill:#36ACCB;}
	.st216{fill:#41C1F0;}
	.st217{fill:url(#SVGID_172_);}
	.st218{fill:none;stroke:url(#SVGID_173_);stroke-miterlimit:10;}
	.st219{fill:url(#SVGID_174_);}
	.st220{fill:url(#SVGID_175_);}
	.st221{fill:url(#SVGID_176_);}
	.st222{fill:url(#SVGID_177_);}
	.st223{fill:url(#SVGID_178_);}
	.st224{fill:url(#Shape_24_);stroke:url(#Shape_25_);stroke-width:0.25;}
	.st225{fill:#0F1B2C;}
	.st226{fill:#D52027;}
	.st227{opacity:0.52;}
	.st228{opacity:0.39;fill:url(#SVGID_179_);}
	.st229{opacity:0.26;fill:url(#SVGID_180_);}
	.st230{opacity:0.26;fill:url(#SVGID_181_);}
	.st231{opacity:0.26;fill:url(#SVGID_182_);}
	.st232{opacity:0.26;fill:url(#SVGID_183_);}
	.st233{opacity:0.26;fill:url(#SVGID_184_);}
	.st234{opacity:0.26;fill:url(#SVGID_185_);}
	.st235{opacity:0.26;fill:url(#SVGID_186_);}
	.st236{opacity:0.26;fill:url(#SVGID_187_);}
	.st237{opacity:0.26;fill:url(#SVGID_188_);}
	.st238{opacity:0.26;fill:url(#SVGID_189_);}
	.st239{opacity:0.26;fill:url(#SVGID_190_);}
	.st240{opacity:0.26;fill:url(#SVGID_191_);}
	.st241{opacity:0.26;fill:url(#SVGID_192_);}
	.st242{opacity:0.26;fill:url(#SVGID_193_);}
	.st243{fill:none;stroke:url(#SVGID_194_);stroke-width:0.5;stroke-miterlimit:10;}
	.st244{fill:url(#SVGID_195_);}
	.st245{fill:url(#SVGID_196_);}
	.st246{opacity:0.76;fill:#FFFFFF;enable-background:new    ;}
	.st247{fill:url(#SVGID_197_);}
	.st248{fill:url(#SVGID_198_);}
	.st249{fill:url(#SVGID_199_);}
	.st250{fill:url(#SVGID_200_);}
	.st251{fill:url(#SVGID_201_);}
	.st252{fill:url(#SVGID_202_);}
	.st253{fill:url(#SVGID_203_);}
	.st254{fill:url(#SVGID_204_);}
	.st255{fill:url(#Shape_26_);stroke:url(#Shape_27_);stroke-width:0.25;}
	.st256{fill:url(#Shape_28_);stroke:url(#Shape_29_);stroke-width:0.25;}
	.st257{fill:url(#Shape_30_);stroke:url(#Shape_31_);stroke-width:0.25;}
	.st258{fill:none;stroke:url(#Shape_32_);}
	.st259{fill:url(#SVGID_205_);}
	.st260{fill:url(#SVGID_206_);}
	.st261{fill:url(#SVGID_207_);}
	.st262{fill:url(#SVGID_208_);}
	.st263{fill:url(#SVGID_209_);}
	.st264{opacity:0.75;fill:url(#SVGID_210_);}
	.st265{opacity:0.75;fill:url(#SVGID_211_);}
	.st266{opacity:0.75;fill:url(#SVGID_212_);}
	.st267{opacity:0.75;fill:url(#SVGID_213_);}
	.st268{opacity:0.75;fill:url(#SVGID_214_);}
	.st269{fill:none;stroke:#FFFFFF;stroke-width:2;stroke-miterlimit:10;}
	.st270{opacity:0.75;fill:#FFFFFF;}
	.st271{opacity:0.75;fill:url(#SVGID_215_);}
	.st272{opacity:0.75;fill:url(#SVGID_216_);}
	.st273{fill:url(#SVGID_217_);}
	.st274{fill:url(#SVGID_218_);}
	.st275{fill:url(#SVGID_219_);}
	.st276{fill:url(#SVGID_220_);}
	.st277{fill:url(#SVGID_221_);}
	.st278{fill:url(#SVGID_222_);}
	.st279{fill:url(#SVGID_223_);}
	.st280{fill:url(#SVGID_224_);}
	.st281{fill:#43BFEF;}
	.st282{opacity:0.75;fill:url(#SVGID_225_);}
	.st283{opacity:0.75;fill:url(#SVGID_226_);}
	.st284{opacity:0.75;fill:url(#SVGID_227_);}
	.st285{opacity:0.75;fill:url(#SVGID_228_);}
	.st286{opacity:0.75;fill:url(#SVGID_229_);}
	.st287{opacity:0.75;fill:url(#SVGID_230_);}
	.st288{opacity:0.75;fill:url(#SVGID_231_);}
	.st289{opacity:0.75;fill:url(#SVGID_232_);}
	.st290{opacity:0.75;fill:url(#SVGID_233_);}
	.st291{opacity:0.75;fill:url(#SVGID_234_);}
	.st292{opacity:0.75;fill:url(#SVGID_235_);}
	.st293{opacity:0.75;fill:url(#SVGID_236_);}
	.st294{opacity:0.75;fill:url(#SVGID_237_);}
	.st295{opacity:0.75;fill:url(#SVGID_238_);}
	.st296{opacity:0.75;fill:url(#SVGID_239_);}
	.st297{opacity:0.75;fill:url(#SVGID_240_);}
	.st298{opacity:0.75;fill:url(#SVGID_241_);}
	.st299{opacity:0.75;fill:url(#SVGID_242_);}
	.st300{opacity:0.75;fill:url(#SVGID_243_);}
	.st301{opacity:0.75;fill:url(#SVGID_244_);}
	.st302{fill:url(#SVGID_245_);}
	.st303{fill:none;stroke:url(#SVGID_246_);stroke-miterlimit:10;}
	.st304{fill:#1199D2;}
	.st305{fill:#8BC9BE;}
	.st306{fill:#B2D299;}
	.st307{fill:#F4EB22;}
</style>
<g id="Layer_1">
	<g>
		<g class="st17">
			<linearGradient id="SVGID_1_" gradientUnits="userSpaceOnUse" x1="-97.8469" y1="97.75" x2="147.6531" y2="343.25">
				<stop  offset="2.483974e-03" style="stop-color:#57C8E1"/>
				<stop  offset="0.1396" style="stop-color:#58C1DE"/>
				<stop  offset="0.3628" style="stop-color:#58B2D7"/>
				<stop  offset="0.6444" style="stop-color:#579ACB"/>
				<stop  offset="0.9705" style="stop-color:#577ABC"/>
				<stop  offset="1" style="stop-color:#5777BB"/>
			</linearGradient>
			<rect x="-0.1" class="st0" width="50" height="441"/>
		</g>
		<g>
			
				<linearGradient id="SVGID_2_" gradientUnits="userSpaceOnUse" x1="-687.6409" y1="-611.7358" x2="-377.4492" y2="-301.5441" gradientTransform="matrix(0 1 -1 0 -166.5451 552.545)">
				<stop  offset="0" style="stop-color:#5777BB"/>
				<stop  offset="1" style="stop-color:#57C8E1"/>
			</linearGradient>
			<rect x="-0.1" style="fill:url(#SVGID_2_);" width="580.4" height="40"/>
		</g>
		<g class="st20">
			<rect x="49.9" class="st21" width="97" height="40"/>
		</g>
		<circle class="st21" cx="501.1" cy="20" r="9"/>
		<circle class="st21" cx="538.9" cy="20" r="9"/>
		<g>
			<g>
				<text transform="matrix(1 0 0 1 61.4189 23.6465)" class="st22 st25 st26">Rakam Demo</text>
				<g>
					<polygon class="st22" points="137.9,18.5 133.7,22.7 129.5,18.6 129.8,18.3 133.7,22.2 137.6,18.2 					"/>
				</g>
			</g>
		</g>
		<g>
			<g>
				<rect x="15.9" y="19.7" class="st21" width="4.6" height="8.2"/>
				<rect x="22.6" y="15.6" class="st21" width="4.6" height="12.3"/>
				<rect x="29.3" y="12.1" class="st21" width="4.6" height="15.8"/>
			</g>
		</g>
		<g>
			<rect x="15.9" y="51.3" class="st21" width="8.6" height="5.5"/>
			<rect x="15.9" y="58.9" class="st21" width="8.6" height="10.4"/>
			<rect x="26.3" y="51.3" class="st21" width="7.6" height="10.4"/>
			<rect x="26.3" y="63.9" class="st21" width="7.6" height="5.5"/>
		</g>
		<path class="st21" d="M15.9,84v19.1h17V84h-2.4v0.9c0,0.3-0.3,0.5-0.6,0.5s-0.6-0.2-0.6-0.5V84h-2.4v0.9c0,0.3-0.3,0.5-0.6,0.5
			s-0.6-0.2-0.6-0.5V84h-2.4v0.9c0,0.3-0.3,0.5-0.6,0.5S22,85.2,22,84.9V84h-2.4v0.9c0,0.3-0.3,0.5-0.6,0.5c-0.3,0-0.6-0.2-0.6-0.5
			V84H15.9z M29.9,90.4H18.9c-0.3,0-0.6-0.4-0.6-0.9c0-0.5,0.3-0.9,0.6-0.9h10.9c0.3,0,0.6,0.4,0.6,0.9C30.5,90,30.2,90.4,29.9,90.4
			z M29.9,95.2H18.9c-0.3,0-0.6-0.4-0.6-0.9c0-0.5,0.3-0.9,0.6-0.9h10.9c0.3,0,0.6,0.4,0.6,0.9C30.5,94.8,30.2,95.2,29.9,95.2z
			 M29.9,99.9H18.9c-0.3,0-0.6-0.4-0.6-0.9c0-0.5,0.3-0.9,0.6-0.9h10.9c0.3,0,0.6,0.4,0.6,0.9C30.5,99.5,30.2,99.9,29.9,99.9z"/>
		<g>
			<path class="st21" d="M31.7,119.8c-3.8-3.8-9.9-3.8-13.7,0s-3.8,9.9,0,13.7c3.8,3.8,9.9,3.8,13.7,0
				C35.5,129.7,35.5,123.6,31.7,119.8z M21.5,130.1l1.7-5.1l5.1-1.7l-1.7,5.1L21.5,130.1z"/>
		</g>
		<path class="st21" d="M19.8,166.2c0.5,0.6,1,1.1,1.6,1.6v1.3c0,0.2,0.2,0.5,0.4,0.5l2.6,1h0.2c0.2,0,0.3-0.1,0.4-0.2l0.8-1
			c0.8,0.1,1.5,0.1,2.3,0l0.9,0.9c0.2,0.2,0.4,0.2,0.7,0.1l2.6-1.2c0.2-0.1,0.4-0.3,0.4-0.6l-0.1-1.3c0.6-0.5,1.1-1,1.6-1.6h1.3
			c0.2,0,0.5-0.2,0.5-0.4l1-2.7c0.1-0.2,0-0.5-0.2-0.7l-1-0.8c0.1-0.8,0.1-1.5,0-2.3l0.9-0.9c0.2-0.2,0.2-0.4,0.1-0.7l-1.2-2.6
			c-0.1-0.2-0.3-0.4-0.6-0.4l-1.3,0.1c-0.5-0.6-1-1.1-1.6-1.6v-1.2c0-0.2-0.2-0.5-0.4-0.5l-2.5-1c-0.2-0.1-0.5,0-0.7,0.2l-0.8,1
			c-0.8-0.1-1.5-0.1-2.3,0l-0.9-0.9c-0.2-0.2-0.4-0.2-0.7-0.1l-2.6,1.2c-0.2,0.1-0.4,0.3-0.4,0.6l0.1,1.3c-0.6,0.5-1.1,1-1.6,1.6
			h-1.3c-0.2,0-0.5,0.2-0.5,0.4l-1,2.5c-0.1,0.2,0,0.5,0.2,0.7l1,0.8c-0.1,0.8-0.1,1.5,0,2.3l-0.9,0.9c-0.2,0.2-0.2,0.4-0.1,0.7
			L18,166c0.1,0.2,0.3,0.4,0.6,0.4L19.8,166.2z M22.3,158.7c1-2.6,3.8-3.8,6.4-2.9c2.6,1,3.8,3.8,2.9,6.4s-3.8,3.8-6.4,2.9
			c0,0,0,0,0,0C22.6,164.1,21.3,161.2,22.3,158.7C22.3,158.7,22.3,158.7,22.3,158.7z"/>
	</g>
	<linearGradient id="SVGID_3_" gradientUnits="userSpaceOnUse" x1="166.3562" y1="253.6768" x2="70.3562" y2="253.6768">
		<stop  offset="0" style="stop-color:#6FC171"/>
		<stop  offset="1" style="stop-color:#0F998E"/>
	</linearGradient>
	<path style="fill:url(#SVGID_3_);" d="M163.4,268.7h-90c-1.7,0-3-1.4-3-3v-24c0-1.6,1.3-3,3-3h90c1.6,0,3,1.4,3,3v24
		C166.4,267.3,165,268.7,163.4,268.7z"/>
	<linearGradient id="SVGID_4_" gradientUnits="userSpaceOnUse" x1="176.2079" y1="253.6768" x2="273.2079" y2="253.6768">
		<stop  offset="2.483974e-03" style="stop-color:#0F998E"/>
		<stop  offset="0.2964" style="stop-color:#40A686"/>
		<stop  offset="0.7455" style="stop-color:#64B877"/>
		<stop  offset="1" style="stop-color:#6FC171"/>
	</linearGradient>
	<path class="st4" d="M269.7,268.7h-90c-1.6,0-3-1.4-3-3v-24c0-1.6,1.4-3,3-3h90c1.6,0,3,1.4,3,3v24
		C272.7,267.3,271.4,268.7,269.7,268.7z"/>
	<g>
		<text transform="matrix(1 0 0 1 99.4735 257.1869)" class="st46 st89 st90">Query</text>
	</g>
	<g>
		<text transform="matrix(1 0 0 1 210.0919 256.6016)" class="st91 st89 st90">Save</text>
	</g>
	<g>
		<circle class="st21" cx="64" cy="67" r="3.5"/>
	</g>
	<g>
		<circle class="st21" cx="64" cy="114.1" r="3.5"/>
	</g>
	<g>
		<circle class="st21" cx="64" cy="161.1" r="3.5"/>
	</g>
	<linearGradient id="SVGID_5_" gradientUnits="userSpaceOnUse" x1="69.7983" y1="144.0035" x2="560.2386" y2="144.0035">
		<stop  offset="2.483974e-03" style="stop-color:#0F998E"/>
		<stop  offset="0.2964" style="stop-color:#40A686"/>
		<stop  offset="0.7455" style="stop-color:#64B877"/>
		<stop  offset="1" style="stop-color:#6FC171"/>
	</linearGradient>
	<path style="opacity:0.9;fill:url(#SVGID_5_);" d="M554.7,228.2H75.3c-3,0-5.5-2.5-5.5-5.5V65.3c0-3,2.5-5.5,5.5-5.5h479.5
		c3,0,5.5,2.5,5.5,5.5v157.4C560.2,225.7,557.8,228.2,554.7,228.2z"/>
	<g>
		<text transform="matrix(1 0 0 1 79.7748 83.4126)" class="st21 st89 st99">Analyze</text>
	</g>
	<g transform="translate(0,-1002.3622)">
		<g>
			<path class="st100" d="M216.3,1081.6l-0.3,0.3l1.7,1.7l-1.7,1.7l0.3,0.3l1.7-1.7l1.7,1.7l0.3-0.3l-1.7-1.7l1.7-1.7l-0.3-0.3
				l-1.7,1.7L216.3,1081.6L216.3,1081.6z"/>
		</g>
	</g>
	<rect x="148.8" y="71.4" class="st35" width="188.7" height="20"/>
	<g>
		<text transform="matrix(1 0 0 1 79.7748 125.1753)" class="st21 st89 st99">Measure</text>
	</g>
	<rect x="148.8" y="113.1" class="st35" width="89.5" height="20"/>
	<g>
		<text transform="matrix(1 0 0 1 79.7748 166.938)" class="st21 st89 st99">Dimension</text>
	</g>
	<rect x="148.8" y="154.9" class="st35" width="188.7" height="20"/>
	<rect x="148.8" y="71.6" class="st35" width="188.7" height="20"/>
	<g>
		<text transform="matrix(1 0 0 1 79.7748 208.7007)" class="st21 st89 st99">Segment</text>
	</g>
	<rect x="148.8" y="196.7" class="st35" width="188.7" height="20"/>
	<linearGradient id="SVGID_6_" gradientUnits="userSpaceOnUse" x1="69.4549" y1="323.1773" x2="560.33" y2="323.1773">
		<stop  offset="2.483974e-03" style="stop-color:#0F998E"/>
		<stop  offset="0.2964" style="stop-color:#40A686"/>
		<stop  offset="0.7455" style="stop-color:#64B877"/>
		<stop  offset="1" style="stop-color:#6FC171"/>
	</linearGradient>
	<rect x="69.5" y="315.9" style="opacity:0.5;fill:url(#SVGID_6_);" width="490.9" height="14.6"/>
	<linearGradient id="SVGID_7_" gradientUnits="userSpaceOnUse" x1="69.4549" y1="353.9982" x2="560.33" y2="353.9982">
		<stop  offset="2.483974e-03" style="stop-color:#0F998E"/>
		<stop  offset="0.2964" style="stop-color:#40A686"/>
		<stop  offset="0.7455" style="stop-color:#64B877"/>
		<stop  offset="1" style="stop-color:#6FC171"/>
	</linearGradient>
	<rect x="69.5" y="346.7" style="opacity:0.5;fill:url(#SVGID_7_);" width="490.9" height="14.6"/>
	<linearGradient id="SVGID_8_" gradientUnits="userSpaceOnUse" x1="69.4549" y1="385.7894" x2="560.33" y2="385.7894">
		<stop  offset="2.483974e-03" style="stop-color:#0F998E"/>
		<stop  offset="0.2964" style="stop-color:#40A686"/>
		<stop  offset="0.7455" style="stop-color:#64B877"/>
		<stop  offset="1" style="stop-color:#6FC171"/>
	</linearGradient>
	<rect x="69.5" y="378.5" style="opacity:0.5;fill:url(#SVGID_8_);" width="490.9" height="14.6"/>
	<linearGradient id="SVGID_9_" gradientUnits="userSpaceOnUse" x1="69.4549" y1="416.2226" x2="560.33" y2="416.2226">
		<stop  offset="2.483974e-03" style="stop-color:#0F998E"/>
		<stop  offset="0.2964" style="stop-color:#40A686"/>
		<stop  offset="0.7455" style="stop-color:#64B877"/>
		<stop  offset="1" style="stop-color:#6FC171"/>
	</linearGradient>
	<rect x="69.5" y="408.9" style="opacity:0.5;fill:url(#SVGID_9_);" width="490.9" height="14.6"/>
	<g>
		<text transform="matrix(1 0 0 1 105.7183 326.1338)" class="st105 st106 st107">Country</text>
	</g>
	<g>
		<text transform="matrix(1 0 0 1 177.064 326.1338)" class="st105 st106 st107">Unique Users</text>
	</g>
	<g>
		<text transform="matrix(1 0 0 1 264.4922 325.8838)" class="st105 st106 st107">Total Events</text>
	</g>
	<g>
		<text transform="matrix(1 0 0 1 365.9105 325.8838)" class="st105 st106 st107">Ratio</text>
	</g>
	<g>
		<circle class="st21" cx="172.4" cy="322.3" r="1.5"/>
	</g>
	<g>
		<circle class="st21" cx="260.5" cy="323.3" r="1.5"/>
	</g>
	<g>
		<linearGradient id="SVGID_10_" gradientUnits="userSpaceOnUse" x1="112.0311" y1="337.6045" x2="134.3811" y2="337.6045">
			<stop  offset="2.483974e-03" style="stop-color:#0F998E"/>
			<stop  offset="0.2964" style="stop-color:#40A686"/>
			<stop  offset="0.7455" style="stop-color:#64B877"/>
			<stop  offset="1" style="stop-color:#6FC171"/>
		</linearGradient>
		<rect x="112" y="335.5" style="opacity:0.7;fill:url(#SVGID_10_);" width="22.3" height="4.1"/>
		<linearGradient id="SVGID_11_" gradientUnits="userSpaceOnUse" x1="112.0311" y1="353.9982" x2="134.3811" y2="353.9982">
			<stop  offset="2.483974e-03" style="stop-color:#0F998E"/>
			<stop  offset="0.2964" style="stop-color:#40A686"/>
			<stop  offset="0.7455" style="stop-color:#64B877"/>
			<stop  offset="1" style="stop-color:#6FC171"/>
		</linearGradient>
		<rect x="112" y="351.9" style="opacity:0.7;fill:url(#SVGID_11_);" width="22.3" height="4.1"/>
		<linearGradient id="SVGID_12_" gradientUnits="userSpaceOnUse" x1="112.0311" y1="369.8938" x2="134.3811" y2="369.8938">
			<stop  offset="2.483974e-03" style="stop-color:#0F998E"/>
			<stop  offset="0.2964" style="stop-color:#40A686"/>
			<stop  offset="0.7455" style="stop-color:#64B877"/>
			<stop  offset="1" style="stop-color:#6FC171"/>
		</linearGradient>
		<rect x="112" y="367.8" style="opacity:0.7;fill:url(#SVGID_12_);" width="22.3" height="4.1"/>
		<linearGradient id="SVGID_13_" gradientUnits="userSpaceOnUse" x1="112.0311" y1="385.7894" x2="134.3811" y2="385.7894">
			<stop  offset="2.483974e-03" style="stop-color:#0F998E"/>
			<stop  offset="0.2964" style="stop-color:#40A686"/>
			<stop  offset="0.7455" style="stop-color:#64B877"/>
			<stop  offset="1" style="stop-color:#6FC171"/>
		</linearGradient>
		<rect x="112" y="383.7" style="opacity:0.7;fill:url(#SVGID_13_);" width="22.3" height="4.1"/>
		<linearGradient id="SVGID_14_" gradientUnits="userSpaceOnUse" x1="112.0311" y1="401.006" x2="134.3811" y2="401.006">
			<stop  offset="2.483974e-03" style="stop-color:#0F998E"/>
			<stop  offset="0.2964" style="stop-color:#40A686"/>
			<stop  offset="0.7455" style="stop-color:#64B877"/>
			<stop  offset="1" style="stop-color:#6FC171"/>
		</linearGradient>
		<rect x="112" y="398.9" style="opacity:0.7;fill:url(#SVGID_14_);" width="22.3" height="4.1"/>
		<linearGradient id="SVGID_15_" gradientUnits="userSpaceOnUse" x1="112.0311" y1="416.2226" x2="134.3811" y2="416.2226">
			<stop  offset="2.483974e-03" style="stop-color:#0F998E"/>
			<stop  offset="0.2964" style="stop-color:#40A686"/>
			<stop  offset="0.7455" style="stop-color:#64B877"/>
			<stop  offset="1" style="stop-color:#6FC171"/>
		</linearGradient>
		<rect x="112" y="414.2" style="opacity:0.7;fill:url(#SVGID_15_);" width="22.3" height="4.1"/>
	</g>
	<g>
		<linearGradient id="SVGID_16_" gradientUnits="userSpaceOnUse" x1="198.6623" y1="337.6045" x2="221.0122" y2="337.6045">
			<stop  offset="2.483974e-03" style="stop-color:#0F998E"/>
			<stop  offset="0.2964" style="stop-color:#40A686"/>
			<stop  offset="0.7455" style="stop-color:#64B877"/>
			<stop  offset="1" style="stop-color:#6FC171"/>
		</linearGradient>
		<rect x="198.7" y="335.5" style="opacity:0.7;fill:url(#SVGID_16_);" width="22.3" height="4.1"/>
		<linearGradient id="SVGID_17_" gradientUnits="userSpaceOnUse" x1="198.6623" y1="353.9982" x2="221.0122" y2="353.9982">
			<stop  offset="2.483974e-03" style="stop-color:#0F998E"/>
			<stop  offset="0.2964" style="stop-color:#40A686"/>
			<stop  offset="0.7455" style="stop-color:#64B877"/>
			<stop  offset="1" style="stop-color:#6FC171"/>
		</linearGradient>
		<rect x="198.7" y="351.9" style="opacity:0.7;fill:url(#SVGID_17_);" width="22.3" height="4.1"/>
		<linearGradient id="SVGID_18_" gradientUnits="userSpaceOnUse" x1="198.6623" y1="369.8938" x2="221.0122" y2="369.8938">
			<stop  offset="2.483974e-03" style="stop-color:#0F998E"/>
			<stop  offset="0.2964" style="stop-color:#40A686"/>
			<stop  offset="0.7455" style="stop-color:#64B877"/>
			<stop  offset="1" style="stop-color:#6FC171"/>
		</linearGradient>
		<rect x="198.7" y="367.8" style="opacity:0.7;fill:url(#SVGID_18_);" width="22.3" height="4.1"/>
		<linearGradient id="SVGID_19_" gradientUnits="userSpaceOnUse" x1="198.6623" y1="385.7894" x2="221.0122" y2="385.7894">
			<stop  offset="2.483974e-03" style="stop-color:#0F998E"/>
			<stop  offset="0.2964" style="stop-color:#40A686"/>
			<stop  offset="0.7455" style="stop-color:#64B877"/>
			<stop  offset="1" style="stop-color:#6FC171"/>
		</linearGradient>
		<rect x="198.7" y="383.7" style="opacity:0.7;fill:url(#SVGID_19_);" width="22.3" height="4.1"/>
		<linearGradient id="SVGID_20_" gradientUnits="userSpaceOnUse" x1="198.6623" y1="401.006" x2="221.0122" y2="401.006">
			<stop  offset="2.483974e-03" style="stop-color:#0F998E"/>
			<stop  offset="0.2964" style="stop-color:#40A686"/>
			<stop  offset="0.7455" style="stop-color:#64B877"/>
			<stop  offset="1" style="stop-color:#6FC171"/>
		</linearGradient>
		<rect x="198.7" y="398.9" style="opacity:0.7;fill:url(#SVGID_20_);" width="22.3" height="4.1"/>
		<linearGradient id="SVGID_21_" gradientUnits="userSpaceOnUse" x1="198.6623" y1="416.2226" x2="221.0122" y2="416.2226">
			<stop  offset="2.483974e-03" style="stop-color:#0F998E"/>
			<stop  offset="0.2964" style="stop-color:#40A686"/>
			<stop  offset="0.7455" style="stop-color:#64B877"/>
			<stop  offset="1" style="stop-color:#6FC171"/>
		</linearGradient>
		<rect x="198.7" y="414.2" style="opacity:0.7;fill:url(#SVGID_21_);" width="22.3" height="4.1"/>
	</g>
	<g>
		<linearGradient id="SVGID_22_" gradientUnits="userSpaceOnUse" x1="283.1066" y1="337.6045" x2="305.4566" y2="337.6045">
			<stop  offset="2.483974e-03" style="stop-color:#0F998E"/>
			<stop  offset="0.2964" style="stop-color:#40A686"/>
			<stop  offset="0.7455" style="stop-color:#64B877"/>
			<stop  offset="1" style="stop-color:#6FC171"/>
		</linearGradient>
		<rect x="283.1" y="335.5" style="opacity:0.7;fill:url(#SVGID_22_);" width="22.3" height="4.1"/>
		<linearGradient id="SVGID_23_" gradientUnits="userSpaceOnUse" x1="283.1066" y1="353.9982" x2="305.4566" y2="353.9982">
			<stop  offset="2.483974e-03" style="stop-color:#0F998E"/>
			<stop  offset="0.2964" style="stop-color:#40A686"/>
			<stop  offset="0.7455" style="stop-color:#64B877"/>
			<stop  offset="1" style="stop-color:#6FC171"/>
		</linearGradient>
		<rect x="283.1" y="351.9" style="opacity:0.7;fill:url(#SVGID_23_);" width="22.3" height="4.1"/>
		<linearGradient id="SVGID_24_" gradientUnits="userSpaceOnUse" x1="283.1066" y1="369.8938" x2="305.4566" y2="369.8938">
			<stop  offset="2.483974e-03" style="stop-color:#0F998E"/>
			<stop  offset="0.2964" style="stop-color:#40A686"/>
			<stop  offset="0.7455" style="stop-color:#64B877"/>
			<stop  offset="1" style="stop-color:#6FC171"/>
		</linearGradient>
		<rect x="283.1" y="367.8" style="opacity:0.7;fill:url(#SVGID_24_);" width="22.3" height="4.1"/>
		<linearGradient id="SVGID_25_" gradientUnits="userSpaceOnUse" x1="283.1066" y1="385.7894" x2="305.4566" y2="385.7894">
			<stop  offset="2.483974e-03" style="stop-color:#0F998E"/>
			<stop  offset="0.2964" style="stop-color:#40A686"/>
			<stop  offset="0.7455" style="stop-color:#64B877"/>
			<stop  offset="1" style="stop-color:#6FC171"/>
		</linearGradient>
		<rect x="283.1" y="383.7" style="opacity:0.7;fill:url(#SVGID_25_);" width="22.3" height="4.1"/>
		<linearGradient id="SVGID_26_" gradientUnits="userSpaceOnUse" x1="283.1066" y1="401.006" x2="305.4566" y2="401.006">
			<stop  offset="2.483974e-03" style="stop-color:#0F998E"/>
			<stop  offset="0.2964" style="stop-color:#40A686"/>
			<stop  offset="0.7455" style="stop-color:#64B877"/>
			<stop  offset="1" style="stop-color:#6FC171"/>
		</linearGradient>
		<rect x="283.1" y="398.9" style="opacity:0.7;fill:url(#SVGID_26_);" width="22.3" height="4.1"/>
		<linearGradient id="SVGID_27_" gradientUnits="userSpaceOnUse" x1="283.1066" y1="416.2226" x2="305.4566" y2="416.2226">
			<stop  offset="2.483974e-03" style="stop-color:#0F998E"/>
			<stop  offset="0.2964" style="stop-color:#40A686"/>
			<stop  offset="0.7455" style="stop-color:#64B877"/>
			<stop  offset="1" style="stop-color:#6FC171"/>
		</linearGradient>
		<rect x="283.1" y="414.2" style="opacity:0.7;fill:url(#SVGID_27_);" width="22.3" height="4.1"/>
	</g>
	<g>
		<linearGradient id="SVGID_28_" gradientUnits="userSpaceOnUse" x1="367.5519" y1="337.6045" x2="389.9019" y2="337.6045">
			<stop  offset="2.483974e-03" style="stop-color:#0F998E"/>
			<stop  offset="0.2964" style="stop-color:#40A686"/>
			<stop  offset="0.7455" style="stop-color:#64B877"/>
			<stop  offset="1" style="stop-color:#6FC171"/>
		</linearGradient>
		<rect x="367.6" y="335.5" style="opacity:0.7;fill:url(#SVGID_28_);" width="22.3" height="4.1"/>
		<linearGradient id="SVGID_29_" gradientUnits="userSpaceOnUse" x1="367.5519" y1="353.9982" x2="389.9019" y2="353.9982">
			<stop  offset="2.483974e-03" style="stop-color:#0F998E"/>
			<stop  offset="0.2964" style="stop-color:#40A686"/>
			<stop  offset="0.7455" style="stop-color:#64B877"/>
			<stop  offset="1" style="stop-color:#6FC171"/>
		</linearGradient>
		<rect x="367.6" y="351.9" style="opacity:0.7;fill:url(#SVGID_29_);" width="22.3" height="4.1"/>
		<linearGradient id="SVGID_30_" gradientUnits="userSpaceOnUse" x1="367.5519" y1="369.8938" x2="389.9019" y2="369.8938">
			<stop  offset="2.483974e-03" style="stop-color:#0F998E"/>
			<stop  offset="0.2964" style="stop-color:#40A686"/>
			<stop  offset="0.7455" style="stop-color:#64B877"/>
			<stop  offset="1" style="stop-color:#6FC171"/>
		</linearGradient>
		<rect x="367.6" y="367.8" style="opacity:0.7;fill:url(#SVGID_30_);" width="22.3" height="4.1"/>
		<linearGradient id="SVGID_31_" gradientUnits="userSpaceOnUse" x1="367.5519" y1="385.7894" x2="389.9019" y2="385.7894">
			<stop  offset="2.483974e-03" style="stop-color:#0F998E"/>
			<stop  offset="0.2964" style="stop-color:#40A686"/>
			<stop  offset="0.7455" style="stop-color:#64B877"/>
			<stop  offset="1" style="stop-color:#6FC171"/>
		</linearGradient>
		<rect x="367.6" y="383.7" style="opacity:0.7;fill:url(#SVGID_31_);" width="22.3" height="4.1"/>
		<linearGradient id="SVGID_32_" gradientUnits="userSpaceOnUse" x1="367.5519" y1="401.006" x2="389.9019" y2="401.006">
			<stop  offset="2.483974e-03" style="stop-color:#0F998E"/>
			<stop  offset="0.2964" style="stop-color:#40A686"/>
			<stop  offset="0.7455" style="stop-color:#64B877"/>
			<stop  offset="1" style="stop-color:#6FC171"/>
		</linearGradient>
		<rect x="367.6" y="398.9" style="opacity:0.7;fill:url(#SVGID_32_);" width="22.3" height="4.1"/>
		<linearGradient id="SVGID_33_" gradientUnits="userSpaceOnUse" x1="367.5519" y1="416.2226" x2="389.9019" y2="416.2226">
			<stop  offset="2.483974e-03" style="stop-color:#0F998E"/>
			<stop  offset="0.2964" style="stop-color:#40A686"/>
			<stop  offset="0.7455" style="stop-color:#64B877"/>
			<stop  offset="1" style="stop-color:#6FC171"/>
		</linearGradient>
		<rect x="367.6" y="414.2" style="opacity:0.7;fill:url(#SVGID_33_);" width="22.3" height="4.1"/>
	</g>
	<g>
		<text transform="matrix(1 0 0 1 394.987 257.7881)" class="st105 st25 st99">From</text>
	</g>
	<linearGradient id="SVGID_34_" gradientUnits="userSpaceOnUse" x1="427.2867" y1="255.962" x2="480.7847" y2="255.962">
		<stop  offset="2.483974e-03" style="stop-color:#0F998E"/>
		<stop  offset="0.2964" style="stop-color:#40A686"/>
		<stop  offset="0.7455" style="stop-color:#64B877"/>
		<stop  offset="1" style="stop-color:#6FC171"/>
	</linearGradient>
	<rect x="427.3" y="249.8" style="opacity:0.5;fill:url(#SVGID_34_);" width="53.5" height="12.4"/>
	<g>
		<text transform="matrix(1 0 0 1 490.3692 257.7881)" class="st105 st25 st99">To</text>
	</g>
	<linearGradient id="SVGID_35_" gradientUnits="userSpaceOnUse" x1="506.7407" y1="255.962" x2="560.2386" y2="255.962">
		<stop  offset="2.483974e-03" style="stop-color:#0F998E"/>
		<stop  offset="0.2964" style="stop-color:#40A686"/>
		<stop  offset="0.7455" style="stop-color:#64B877"/>
		<stop  offset="1" style="stop-color:#6FC171"/>
	</linearGradient>
	<rect x="506.7" y="249.8" style="opacity:0.5;fill:url(#SVGID_35_);" width="53.5" height="12.4"/>
	<linearGradient id="SVGID_36_" gradientUnits="userSpaceOnUse" x1="69.3296" y1="300.3015" x2="560.2827" y2="300.3015">
		<stop  offset="2.483974e-03" style="stop-color:#E2D94D"/>
		<stop  offset="0.1353" style="stop-color:#DED957"/>
		<stop  offset="0.3515" style="stop-color:#D1D770"/>
		<stop  offset="0.6242" style="stop-color:#BCD590"/>
		<stop  offset="0.94" style="stop-color:#9BD3B8"/>
		<stop  offset="1" style="stop-color:#94D3C1"/>
	</linearGradient>
	<path style="fill:none;stroke:url(#SVGID_36_);stroke-miterlimit:10;" d="M69.5,295.8c0,0,65.8-17,122.5,1.3
		c55.9,18.2,75.2,13.2,126.4,8.5c33.5-3.1,66.8-19.4,158-4.9c75,11.9,84,11.3,84,11.3"/>
	<linearGradient id="SVGID_37_" gradientUnits="userSpaceOnUse" x1="73.1902" y1="302.1161" x2="560.3893" y2="302.1161">
		<stop  offset="2.483974e-03" style="stop-color:#0F998E"/>
		<stop  offset="8.194568e-02" style="stop-color:#2EA08A"/>
		<stop  offset="0.2713" style="stop-color:#50AD81"/>
		<stop  offset="0.4754" style="stop-color:#62B778"/>
		<stop  offset="0.7028" style="stop-color:#6DBE72"/>
		<stop  offset="1" style="stop-color:#6FC171"/>
	</linearGradient>
	<path style="fill:none;stroke:url(#SVGID_37_);stroke-miterlimit:10;" d="M73.3,310.4c0,0,142.9-36.7,320.1-4.7
		c0,0,70.1,12.6,166.9,1"/>
	<linearGradient id="SVGID_38_" gradientUnits="userSpaceOnUse" x1="69.3577" y1="295.1542" x2="560.3149" y2="295.1542">
		<stop  offset="2.483974e-03" style="stop-color:#57C8E1"/>
		<stop  offset="0.1396" style="stop-color:#58C1DE"/>
		<stop  offset="0.3628" style="stop-color:#58B2D7"/>
		<stop  offset="0.6444" style="stop-color:#579ACB"/>
		<stop  offset="0.9705" style="stop-color:#577ABC"/>
		<stop  offset="1" style="stop-color:#5777BB"/>
	</linearGradient>
	<path class="st49" d="M69.5,284.4c0,0,78.5-15.6,205.4,13.4c114.7,26.2,285.4,2.6,285.4,2.6"/>
	<g>
		<text transform="matrix(1 0 0 1 156.6283 209.802)" class="st21 st89 st99">Device Family</text>
	</g>
	<g>
		<text transform="matrix(1 0 0 1 156.6283 167.802)" class="st21 st89 st99">Country Code</text>
	</g>
	<g>
		<text transform="matrix(1 0 0 1 159.088 125.7633)" class="st21 st89 st99">Unique Users</text>
	</g>
	<rect x="247.9" y="113.1" class="st35" width="89.5" height="20"/>
	<g>
		<text transform="matrix(1 0 0 1 260.9764 126.4698)" class="st21 st89 st99">Total Events</text>
	</g>
	<rect x="151.1" y="73.7" class="st21" width="96.8" height="15"/>
	<text transform="matrix(1 0 0 1 155.7749 83.802)" class="st100 st89 st99">Add to Basket</text>
	<polygon class="st38" points="326.9,79.6 323.2,83.4 319.4,79.6 319.7,79.4 323.2,82.9 326.7,79.4 	"/>
	<polygon class="st38" points="326.9,163.1 323.2,166.9 319.4,163.2 319.7,162.9 323.2,166.4 326.7,162.9 	"/>
	<polygon class="st38" points="326.9,204.9 323.2,208.6 319.4,204.9 319.7,204.7 323.2,208.2 326.7,204.6 	"/>
	<g transform="translate(0,-1002.3622)">
		<g>
			<path class="st137" d="M237.4,1081.7l-0.3,0.3l1.7,1.7l-1.7,1.7l0.3,0.3l1.7-1.7l1.7,1.7l0.3-0.3l-1.7-1.7l1.7-1.7l-0.3-0.3
				l-1.7,1.7L237.4,1081.7L237.4,1081.7z"/>
		</g>
	</g>
	<line class="st206" x1="560" y1="144.1" x2="69.5" y2="144.1"/>
	<line class="st206" x1="560" y1="185.9" x2="69.5" y2="185.9"/>
	<line class="st206" x1="560" y1="102.3" x2="69.5" y2="102.3"/>
</g>
<g id="Layer_2">
</g>
<g id="Layer_3">
</g>
</svg>
