<?xml version="1.0" encoding="utf-8"?>
<!-- Generator: Adobe Illustrator 21.0.0, SVG Export Plug-In . SVG Version: 6.00 Build 0)  -->
<svg version="1.1" xmlns="http://www.w3.org/2000/svg" xmlns:xlink="http://www.w3.org/1999/xlink" x="0px" y="0px"
	 viewBox="0 0 580.4 441" style="enable-background:new 0 0 580.4 441;" xml:space="preserve">
<style type="text/css">
	.st0{fill:url(#SVGID_1_);}
	.st1{fill:none;stroke:url(#SVGID_2_);stroke-width:0.75;stroke-miterlimit:10;}
	.st2{opacity:0.2;}
	.st3{fill:none;stroke:url(#SVGID_3_);stroke-miterlimit:10;}
	.st4{fill:none;stroke:url(#SVGID_4_);stroke-miterlimit:10;}
	.st5{fill:none;stroke:url(#SVGID_5_);stroke-miterlimit:10;}
	.st6{fill:none;stroke:url(#SVGID_6_);stroke-miterlimit:10;}
	.st7{fill:none;stroke:url(#SVGID_7_);stroke-miterlimit:10;}
	.st8{fill:none;stroke:url(#SVGID_8_);stroke-miterlimit:10;}
	.st9{fill:none;stroke:url(#SVGID_9_);stroke-miterlimit:10;}
	.st10{fill:none;stroke:url(#SVGID_10_);stroke-miterlimit:10;}
	.st11{fill:none;stroke:url(#SVGID_11_);stroke-miterlimit:10;}
	.st12{fill:none;stroke:url(#SVGID_12_);stroke-miterlimit:10;}
	.st13{fill:none;stroke:url(#SVGID_13_);stroke-miterlimit:10;}
	.st14{fill:none;stroke:url(#SVGID_14_);stroke-miterlimit:10;}
	.st15{fill:none;stroke:url(#SVGID_15_);stroke-miterlimit:10;}
	.st16{fill:none;stroke:url(#SVGID_16_);stroke-miterlimit:10;}
	.st17{opacity:0.8;}
	.st18{fill:url(#SVGID_17_);}
	.st19{fill:url(#SVGID_18_);}
	.st20{opacity:0.44;}
	.st21{fill:#FFFFFF;}
	.st22{fill:#3C3C3C;}
	.st23{fill:url(#SVGID_19_);}
	.st24{fill:url(#SVGID_20_);}
	.st25{fill:url(#SVGID_21_);}
	.st26{fill:url(#SVGID_22_);}
	.st27{fill:url(#SVGID_23_);}
	.st28{fill:url(#SVGID_24_);}
	.st29{font-family:'Arial';}
	.st30{font-size:9.002px;}
	.st31{fill:url(#SVGID_25_);}
	.st32{fill:url(#SVGID_26_);}
	.st33{opacity:0.9;}
	.st34{fill:url(#SVGID_27_);}
	.st35{fill:none;stroke:#FFFFFF;stroke-miterlimit:10;}
	.st36{fill:url(#SVGID_28_);}
	.st37{fill:url(#SVGID_29_);}
	.st38{fill:#FFFFFF;stroke:#FFFFFF;stroke-miterlimit:10;}
	.st39{opacity:0.5;fill:url(#SVGID_30_);}
	.st40{opacity:0.5;fill:url(#SVGID_31_);}
	.st41{opacity:0.5;fill:url(#SVGID_32_);}
	.st42{opacity:0.5;fill:url(#SVGID_33_);}
	.st43{fill:url(#SVGID_34_);}
	.st44{fill:url(#SVGID_35_);}
	.st45{fill:url(#SVGID_36_);}
	.st46{fill:#FDFEFE;}
	.st47{fill:#5877BA;}
	.st48{fill:url(#SVGID_37_);}
	.st49{fill:none;stroke:url(#SVGID_38_);stroke-miterlimit:10;}
	.st50{fill:none;stroke:url(#SVGID_39_);stroke-miterlimit:10;}
	.st51{fill:none;stroke:url(#SVGID_40_);stroke-miterlimit:10;}
	.st52{fill:none;stroke:url(#SVGID_41_);stroke-miterlimit:10;}
	.st53{fill:none;stroke:url(#SVGID_42_);stroke-miterlimit:10;}
	.st54{fill:none;stroke:url(#SVGID_43_);stroke-miterlimit:10;}
	.st55{fill:none;stroke:url(#SVGID_44_);stroke-miterlimit:10;}
	.st56{fill:none;stroke:url(#SVGID_45_);stroke-miterlimit:10;}
	.st57{fill:none;stroke:url(#SVGID_46_);stroke-miterlimit:10;}
	.st58{fill:none;stroke:url(#SVGID_47_);stroke-miterlimit:10;}
	.st59{fill:none;stroke:url(#SVGID_48_);stroke-miterlimit:10;}
	.st60{fill:none;stroke:url(#SVGID_49_);stroke-miterlimit:10;}
	.st61{fill:none;stroke:url(#SVGID_50_);stroke-miterlimit:10;}
	.st62{fill:none;stroke:url(#SVGID_51_);stroke-miterlimit:10;}
	.st63{fill:none;stroke:url(#SVGID_52_);stroke-miterlimit:10;}
	.st64{fill:url(#SVGID_53_);}
	.st65{fill:url(#SVGID_54_);}
	.st66{opacity:0.6;}
	.st67{fill:url(#SVGID_55_);}
	.st68{fill:url(#SVGID_56_);}
	.st69{fill:#FFFFFF;stroke:url(#SVGID_57_);stroke-width:0.25;stroke-miterlimit:10;}
	.st70{fill:url(#SVGID_58_);}
	.st71{fill:#FFFFFF;stroke:url(#SVGID_59_);stroke-width:0.25;stroke-miterlimit:10;}
	.st72{fill:url(#SVGID_60_);}
	.st73{fill:url(#SVGID_61_);}
	.st74{fill:url(#SVGID_62_);}
	.st75{fill:url(#SVGID_63_);}
	.st76{fill:url(#SVGID_64_);}
	.st77{fill:url(#SVGID_65_);}
	.st78{fill:#787878;}
	.st79{fill:#BABABA;}
	.st80{opacity:0.5;fill:url(#SVGID_66_);}
	.st81{opacity:0.5;fill:url(#SVGID_67_);}
	.st82{opacity:0.5;fill:url(#SVGID_68_);}
	.st83{opacity:0.5;fill:url(#SVGID_69_);}
	.st84{opacity:0.5;fill:url(#SVGID_70_);}
	.st85{opacity:0.5;fill:url(#SVGID_71_);}
	.st86{opacity:0.5;fill:url(#SVGID_72_);}
	.st87{fill:url(#SVGID_73_);}
	.st88{fill:none;stroke:url(#SVGID_74_);stroke-miterlimit:10;}
	.st89{fill:#04998E;}
	.st90{fill:url(#SVGID_75_);}
	.st91{fill:url(#SVGID_76_);}
	.st92{fill:#B54592;}
	.st93{fill:url(#SVGID_77_);}
	.st94{fill:none;stroke:url(#SVGID_78_);stroke-miterlimit:10;}
	.st95{font-family:'Montserrat-SemiBold';}
	.st96{font-size:12px;}
	.st97{fill:#426FB6;}
	.st98{opacity:0.9;fill:url(#SVGID_79_);}
	.st99{fill:#08998E;}
	.st100{opacity:0.5;fill:url(#SVGID_80_);}
	.st101{opacity:0.5;fill:url(#SVGID_81_);}
	.st102{opacity:0.5;fill:url(#SVGID_82_);}
	.st103{opacity:0.5;fill:url(#SVGID_83_);}
	.st104{fill:#0A6057;}
	.st105{opacity:0.7;fill:url(#SVGID_84_);}
	.st106{opacity:0.7;fill:url(#SVGID_85_);}
	.st107{opacity:0.7;fill:url(#SVGID_86_);}
	.st108{opacity:0.7;fill:url(#SVGID_87_);}
	.st109{opacity:0.7;fill:url(#SVGID_88_);}
	.st110{opacity:0.7;fill:url(#SVGID_89_);}
	.st111{opacity:0.7;fill:url(#SVGID_90_);}
	.st112{opacity:0.7;fill:url(#SVGID_91_);}
	.st113{opacity:0.7;fill:url(#SVGID_92_);}
	.st114{opacity:0.7;fill:url(#SVGID_93_);}
	.st115{opacity:0.7;fill:url(#SVGID_94_);}
	.st116{opacity:0.7;fill:url(#SVGID_95_);}
	.st117{opacity:0.7;fill:url(#SVGID_96_);}
	.st118{opacity:0.7;fill:url(#SVGID_97_);}
	.st119{opacity:0.7;fill:url(#SVGID_98_);}
	.st120{opacity:0.7;fill:url(#SVGID_99_);}
	.st121{opacity:0.7;fill:url(#SVGID_100_);}
	.st122{opacity:0.7;fill:url(#SVGID_101_);}
	.st123{opacity:0.7;fill:url(#SVGID_102_);}
	.st124{opacity:0.7;fill:url(#SVGID_103_);}
	.st125{opacity:0.7;fill:url(#SVGID_104_);}
	.st126{opacity:0.7;fill:url(#SVGID_105_);}
	.st127{opacity:0.7;fill:url(#SVGID_106_);}
	.st128{opacity:0.7;fill:url(#SVGID_107_);}
	.st129{opacity:0.5;fill:url(#SVGID_108_);}
	.st130{opacity:0.5;fill:url(#SVGID_109_);}
	.st131{fill:none;stroke:url(#SVGID_110_);stroke-miterlimit:10;}
	.st132{fill:none;stroke:url(#SVGID_111_);stroke-miterlimit:10;}
	.st133{fill:none;stroke:url(#SVGID_112_);stroke-miterlimit:10;}
	.st134{fill:#08998E;stroke:#03998F;stroke-miterlimit:10;}
	.st135{fill:url(#SVGID_113_);}
	.st136{fill:none;stroke:url(#SVGID_114_);stroke-miterlimit:10;}
	.st137{fill:url(#SVGID_115_);}
	.st138{fill:url(#SVGID_116_);}
	.st139{fill:url(#SVGID_117_);}
	.st140{opacity:0.2;fill:url(#SVGID_118_);}
	.st141{opacity:0.5;fill:#FFFFFF;}
	.st142{fill:none;stroke:#08998E;stroke-width:0.5;stroke-miterlimit:10;}
	.st143{fill:#FFFFFF;stroke:#08998E;stroke-width:0.5;stroke-miterlimit:10;}
	.st144{opacity:0.3;fill:url(#SVGID_119_);}
	.st145{opacity:0.3;fill:url(#SVGID_120_);}
	.st146{opacity:0.3;fill:url(#SVGID_121_);}
	.st147{opacity:0.3;fill:url(#SVGID_122_);}
	.st148{opacity:0.3;fill:url(#SVGID_123_);}
	.st149{opacity:0.3;fill:url(#SVGID_124_);}
	.st150{opacity:0.3;fill:url(#SVGID_125_);}
	.st151{opacity:0.3;fill:url(#SVGID_126_);}
	.st152{opacity:0.3;fill:url(#SVGID_127_);}
	.st153{opacity:0.3;fill:url(#SVGID_128_);}
	.st154{opacity:0.3;fill:url(#SVGID_129_);}
	.st155{opacity:0.3;fill:url(#SVGID_130_);}
	.st156{opacity:0.3;fill:url(#SVGID_131_);}
	.st157{opacity:0.3;fill:url(#SVGID_132_);}
	.st158{opacity:0.3;fill:url(#SVGID_133_);}
	.st159{opacity:0.3;fill:url(#SVGID_134_);}
	.st160{opacity:0.3;fill:url(#SVGID_135_);}
	.st161{opacity:0.3;fill:url(#SVGID_136_);}
	.st162{opacity:0.3;fill:url(#SVGID_137_);}
	.st163{opacity:0.3;fill:url(#SVGID_138_);}
	.st164{opacity:0.3;fill:url(#SVGID_139_);}
	.st165{opacity:0.3;fill:url(#SVGID_140_);}
	.st166{opacity:0.3;fill:url(#SVGID_141_);}
	.st167{opacity:0.3;fill:url(#SVGID_142_);}
	.st168{opacity:0.3;fill:url(#SVGID_143_);}
	.st169{opacity:0.3;fill:url(#SVGID_144_);}
	.st170{opacity:0.3;fill:url(#SVGID_145_);}
	.st171{opacity:0.3;fill:url(#SVGID_146_);}
	.st172{opacity:0.3;fill:url(#SVGID_147_);}
	.st173{opacity:0.3;fill:url(#SVGID_148_);}
	.st174{fill:none;stroke:url(#SVGID_149_);stroke-miterlimit:10;}
	.st175{fill:none;stroke:url(#SVGID_150_);stroke-miterlimit:10;}
	.st176{fill:none;stroke:url(#SVGID_151_);stroke-miterlimit:10;}
	.st177{fill:url(#SVGID_152_);}
	.st178{fill:url(#SVGID_153_);}
	.st179{fill:url(#SVGID_154_);}
	.st180{opacity:0.5;}
	.st181{fill:url(#SVGID_155_);}
	.st182{fill:#B44592;}
	.st183{fill:#B44592;stroke:#B54592;stroke-miterlimit:10;}
	.st184{fill:url(#SVGID_156_);}
	.st185{opacity:0.7;fill:#B44592;}
	.st186{fill:url(#SVGID_157_);}
	.st187{fill:url(#SVGID_158_);}
	.st188{fill:url(#SVGID_159_);}
	.st189{fill:url(#SVGID_160_);}
	.st190{fill:url(#SVGID_161_);}
	.st191{fill:url(#SVGID_162_);}
	.st192{opacity:0.7;}
	.st193{fill:url(#SVGID_163_);}
	.st194{fill:url(#SVGID_164_);}
	.st195{fill:url(#SVGID_165_);}
	.st196{fill:url(#SVGID_166_);}
	.st197{fill:url(#SVGID_167_);}
	.st198{fill:url(#SVGID_168_);}
	.st199{opacity:0.3;fill:#B44592;}
	.st200{enable-background:new    ;}
	.st201{fill:url(#SVGID_169_);}
	.st202{fill:url(#SVGID_170_);}
	.st203{fill:none;stroke:#FFFFFF;stroke-width:0.75;stroke-miterlimit:10;}
	.st204{font-family:'Helvetica';}
	.st205{font-size:11.0297px;}
	.st206{font-family:'Montserrat-Medium';}
	.st207{font-size:10px;}
	.st208{fill:url(#SVGID_171_);}
	.st209{opacity:0.3;fill:#FFFFFF;enable-background:new    ;}
	.st210{opacity:0.3;}
	.st211{fill:url(#Shape_18_);stroke:url(#Shape_19_);stroke-width:0.25;}
	.st212{fill:url(#Shape_20_);stroke:url(#Shape_21_);stroke-width:0.25;}
	.st213{fill:url(#Shape_22_);stroke:url(#Shape_23_);stroke-width:0.25;}
	.st214{fill:none;stroke:#B7E3EC;}
	.st215{fill:#6896CC;}
	.st216{fill:#36ACCB;}
	.st217{fill:#41C1F0;}
	.st218{font-size:9px;}
	.st219{font-size:8px;}
	.st220{fill:url(#SVGID_172_);}
	.st221{fill:none;stroke:url(#SVGID_173_);stroke-miterlimit:10;}
	.st222{fill:url(#SVGID_174_);}
	.st223{fill:url(#SVGID_175_);}
	.st224{fill:url(#SVGID_176_);}
	.st225{fill:url(#SVGID_177_);}
	.st226{fill:url(#SVGID_178_);}
	.st227{fill:url(#Shape_24_);stroke:url(#Shape_25_);stroke-width:0.25;}
	.st228{fill:#0F1B2C;}
	.st229{fill:#D52027;}
	.st230{opacity:0.52;}
	.st231{opacity:0.39;fill:url(#SVGID_179_);}
	.st232{opacity:0.26;fill:url(#SVGID_180_);}
	.st233{opacity:0.26;fill:url(#SVGID_181_);}
	.st234{opacity:0.26;fill:url(#SVGID_182_);}
	.st235{opacity:0.26;fill:url(#SVGID_183_);}
	.st236{opacity:0.26;fill:url(#SVGID_184_);}
	.st237{opacity:0.26;fill:url(#SVGID_185_);}
	.st238{opacity:0.26;fill:url(#SVGID_186_);}
	.st239{opacity:0.26;fill:url(#SVGID_187_);}
	.st240{opacity:0.26;fill:url(#SVGID_188_);}
	.st241{opacity:0.26;fill:url(#SVGID_189_);}
	.st242{opacity:0.26;fill:url(#SVGID_190_);}
	.st243{opacity:0.26;fill:url(#SVGID_191_);}
	.st244{opacity:0.26;fill:url(#SVGID_192_);}
	.st245{opacity:0.26;fill:url(#SVGID_193_);}
	.st246{fill:none;stroke:url(#SVGID_194_);stroke-width:0.5;stroke-miterlimit:10;}
	.st247{fill:url(#SVGID_195_);}
	.st248{fill:url(#SVGID_196_);}
	.st249{opacity:0.76;fill:#FFFFFF;enable-background:new    ;}
	.st250{fill:url(#SVGID_197_);}
	.st251{fill:url(#SVGID_198_);}
	.st252{fill:url(#SVGID_199_);}
	.st253{fill:url(#SVGID_200_);}
	.st254{fill:url(#SVGID_201_);}
	.st255{fill:url(#SVGID_202_);}
	.st256{fill:url(#SVGID_203_);}
	.st257{fill:url(#SVGID_204_);}
	.st258{fill:url(#Shape_26_);stroke:url(#Shape_27_);stroke-width:0.25;}
	.st259{fill:url(#Shape_28_);stroke:url(#Shape_29_);stroke-width:0.25;}
	.st260{fill:url(#Shape_30_);stroke:url(#Shape_31_);stroke-width:0.25;}
	.st261{fill:none;stroke:url(#Shape_32_);}
	.st262{fill:url(#SVGID_205_);}
	.st263{fill:url(#SVGID_206_);}
	.st264{fill:url(#SVGID_207_);}
	.st265{fill:url(#SVGID_208_);}
	.st266{fill:url(#SVGID_209_);}
	.st267{opacity:0.75;fill:url(#SVGID_210_);}
	.st268{opacity:0.75;fill:url(#SVGID_211_);}
	.st269{opacity:0.75;fill:url(#SVGID_212_);}
	.st270{opacity:0.75;fill:url(#SVGID_213_);}
	.st271{opacity:0.75;fill:url(#SVGID_214_);}
	.st272{fill:none;stroke:#FFFFFF;stroke-width:2;stroke-miterlimit:10;}
	.st273{opacity:0.75;fill:#FFFFFF;}
	.st274{opacity:0.75;fill:url(#SVGID_215_);}
	.st275{opacity:0.75;fill:url(#SVGID_216_);}
	.st276{fill:url(#SVGID_217_);}
	.st277{fill:url(#SVGID_218_);}
	.st278{fill:url(#SVGID_219_);}
	.st279{fill:url(#SVGID_220_);}
	.st280{fill:url(#SVGID_221_);}
	.st281{fill:url(#SVGID_222_);}
	.st282{fill:url(#SVGID_223_);}
	.st283{fill:url(#SVGID_224_);}
	.st284{fill:#43BFEF;}
	.st285{opacity:0.75;fill:url(#SVGID_225_);}
	.st286{opacity:0.75;fill:url(#SVGID_226_);}
	.st287{opacity:0.75;fill:url(#SVGID_227_);}
	.st288{opacity:0.75;fill:url(#SVGID_228_);}
	.st289{opacity:0.75;fill:url(#SVGID_229_);}
	.st290{opacity:0.75;fill:url(#SVGID_230_);}
	.st291{opacity:0.75;fill:url(#SVGID_231_);}
	.st292{opacity:0.75;fill:url(#SVGID_232_);}
	.st293{opacity:0.75;fill:url(#SVGID_233_);}
	.st294{opacity:0.75;fill:url(#SVGID_234_);}
	.st295{opacity:0.75;fill:url(#SVGID_235_);}
	.st296{opacity:0.75;fill:url(#SVGID_236_);}
	.st297{opacity:0.75;fill:url(#SVGID_237_);}
	.st298{opacity:0.75;fill:url(#SVGID_238_);}
	.st299{opacity:0.75;fill:url(#SVGID_239_);}
	.st300{opacity:0.75;fill:url(#SVGID_240_);}
	.st301{opacity:0.75;fill:url(#SVGID_241_);}
	.st302{opacity:0.75;fill:url(#SVGID_242_);}
	.st303{opacity:0.75;fill:url(#SVGID_243_);}
	.st304{opacity:0.75;fill:url(#SVGID_244_);}
	.st305{fill:url(#SVGID_245_);}
	.st306{fill:none;stroke:url(#SVGID_246_);stroke-miterlimit:10;}
	.st307{fill:#1199D2;}
	.st308{fill:#8BC9BE;}
	.st309{fill:#B2D299;}
	.st310{fill:#F4EB22;}
</style>
<g id="Layer_1">
	<g>
		<g class="st17">
			<linearGradient id="SVGID_1_" gradientUnits="userSpaceOnUse" x1="-97.6327" y1="97.75" x2="147.8673" y2="343.25">
				<stop  offset="2.483974e-03" style="stop-color:#57C8E1"/>
				<stop  offset="0.1396" style="stop-color:#58C1DE"/>
				<stop  offset="0.3628" style="stop-color:#58B2D7"/>
				<stop  offset="0.6444" style="stop-color:#579ACB"/>
				<stop  offset="0.9705" style="stop-color:#577ABC"/>
				<stop  offset="1" style="stop-color:#5777BB"/>
			</linearGradient>
			<rect x="0.1" class="st0" width="50" height="441"/>
		</g>
		<g>
			
				<linearGradient id="SVGID_2_" gradientUnits="userSpaceOnUse" x1="-1961.0778" y1="-1885.3867" x2="-1650.886" y2="-1575.1949" gradientTransform="matrix(0 1 -1 0 -1439.9818 1825.9818)">
				<stop  offset="0" style="stop-color:#5777BB"/>
				<stop  offset="1" style="stop-color:#57C8E1"/>
			</linearGradient>
			<rect x="0.1" style="fill:url(#SVGID_2_);" width="580.4" height="40"/>
		</g>
		<g class="st20">
			<rect x="50.1" class="st21" width="97" height="40"/>
		</g>
		<circle class="st21" cx="501.3" cy="20" r="9"/>
		<circle class="st21" cx="539.1" cy="20" r="9"/>
		<g>
			<g>
				<text transform="matrix(1 0 0 1 61.633 23.6465)" class="st22 st29 st30">Rakam Demo</text>
				<g>
					<polygon class="st22" points="138.1,18.5 133.9,22.7 129.7,18.6 130,18.3 133.9,22.2 137.8,18.2 					"/>
				</g>
			</g>
		</g>
		<g>
			<g>
				<rect x="16.1" y="19.7" class="st21" width="4.6" height="8.2"/>
				<rect x="22.8" y="15.6" class="st21" width="4.6" height="12.3"/>
				<rect x="29.5" y="12.1" class="st21" width="4.6" height="15.8"/>
			</g>
		</g>
		<g>
			<rect x="16.1" y="51.3" class="st21" width="8.6" height="5.5"/>
			<rect x="16.1" y="58.9" class="st21" width="8.6" height="10.4"/>
			<rect x="26.5" y="51.3" class="st21" width="7.6" height="10.4"/>
			<rect x="26.5" y="63.9" class="st21" width="7.6" height="5.5"/>
		</g>
		<path class="st21" d="M16.1,84v19.1h17V84h-2.4v0.9c0,0.3-0.3,0.5-0.6,0.5s-0.6-0.2-0.6-0.5V84H27v0.9c0,0.3-0.3,0.5-0.6,0.5
			s-0.6-0.2-0.6-0.5V84h-2.4v0.9c0,0.3-0.3,0.5-0.6,0.5c-0.3,0-0.6-0.2-0.6-0.5V84h-2.4v0.9c0,0.3-0.3,0.5-0.6,0.5s-0.6-0.2-0.6-0.5
			V84H16.1z M30.1,90.4H19.2c-0.3,0-0.6-0.4-0.6-0.9c0-0.5,0.3-0.9,0.6-0.9h10.9c0.3,0,0.6,0.4,0.6,0.9C30.7,90,30.4,90.4,30.1,90.4
			z M30.1,95.2H19.2c-0.3,0-0.6-0.4-0.6-0.9c0-0.5,0.3-0.9,0.6-0.9h10.9c0.3,0,0.6,0.4,0.6,0.9C30.7,94.8,30.4,95.2,30.1,95.2z
			 M30.1,99.9H19.2c-0.3,0-0.6-0.4-0.6-0.9c0-0.5,0.3-0.9,0.6-0.9h10.9c0.3,0,0.6,0.4,0.6,0.9C30.7,99.5,30.4,99.9,30.1,99.9z"/>
		<g>
			<path class="st21" d="M32,119.8c-3.8-3.8-9.9-3.8-13.7,0s-3.8,9.9,0,13.7c3.8,3.8,9.9,3.8,13.7,0C35.7,129.7,35.7,123.6,32,119.8
				z M21.7,130.1l1.7-5.1l5.1-1.7l-1.7,5.1L21.7,130.1z"/>
		</g>
		<path class="st21" d="M20,166.2c0.5,0.6,1,1.1,1.6,1.6v1.3c0,0.2,0.2,0.5,0.4,0.5l2.6,1h0.2c0.2,0,0.3-0.1,0.4-0.2l0.8-1
			c0.8,0.1,1.5,0.1,2.3,0l0.9,0.9c0.2,0.2,0.4,0.2,0.7,0.1l2.6-1.2c0.2-0.1,0.4-0.3,0.4-0.6l-0.1-1.3c0.6-0.5,1.1-1,1.6-1.6h1.3
			c0.2,0,0.5-0.2,0.5-0.4l1-2.7c0.1-0.2,0-0.5-0.2-0.7l-1-0.8c0.1-0.8,0.1-1.5,0-2.3l0.9-0.9c0.2-0.2,0.2-0.4,0.1-0.7l-1.2-2.6
			c-0.1-0.2-0.3-0.4-0.6-0.4l-1.3,0.1c-0.5-0.6-1-1.1-1.6-1.6v-1.2c0-0.2-0.2-0.5-0.4-0.5l-2.5-1c-0.2-0.1-0.5,0-0.7,0.2l-0.8,1
			c-0.8-0.1-1.5-0.1-2.3,0l-0.9-0.9c-0.2-0.2-0.4-0.2-0.7-0.1l-2.6,1.2c-0.2,0.1-0.4,0.3-0.4,0.6l0.1,1.3c-0.6,0.5-1.1,1-1.6,1.6
			h-1.3c-0.2,0-0.5,0.2-0.5,0.4l-1,2.5c-0.1,0.2,0,0.5,0.2,0.7l1,0.8c-0.1,0.8-0.1,1.5,0,2.3l-0.9,0.9c-0.2,0.2-0.2,0.4-0.1,0.7
			l1.2,2.6c0.1,0.2,0.3,0.4,0.6,0.4L20,166.2z M22.5,158.7c1-2.6,3.8-3.8,6.4-2.9c2.6,1,3.8,3.8,2.9,6.4s-3.8,3.8-6.4,2.9
			c0,0,0,0,0,0C22.8,164.1,21.5,161.2,22.5,158.7C22.5,158.7,22.5,158.7,22.5,158.7z"/>
	</g>
	<linearGradient id="SVGID_3_" gradientUnits="userSpaceOnUse" x1="348.8057" y1="225.5929" x2="252.8057" y2="225.5929">
		<stop  offset="2.483974e-03" style="stop-color:#3CC1F1"/>
		<stop  offset="0.1331" style="stop-color:#3DBCED"/>
		<stop  offset="0.3458" style="stop-color:#3BADE2"/>
		<stop  offset="0.614" style="stop-color:#3F95D1"/>
		<stop  offset="0.9246" style="stop-color:#4277BB"/>
		<stop  offset="1" style="stop-color:#426FB6"/>
	</linearGradient>
	<path style="fill:url(#SVGID_3_);" d="M345.8,240.6h-90c-1.6,0-3-1.4-3-3v-24c0-1.7,1.4-3,3-3h90c1.6,0,3,1.3,3,3v24
		C348.8,239.2,347.5,240.6,345.8,240.6z"/>
	<linearGradient id="SVGID_4_" gradientUnits="userSpaceOnUse" x1="358.6574" y1="225.5929" x2="455.6574" y2="225.5929">
		<stop  offset="2.483974e-03" style="stop-color:#3CC1F1"/>
		<stop  offset="0.1331" style="stop-color:#3DBCED"/>
		<stop  offset="0.3458" style="stop-color:#3BADE2"/>
		<stop  offset="0.614" style="stop-color:#3F95D1"/>
		<stop  offset="0.9246" style="stop-color:#4277BB"/>
		<stop  offset="1" style="stop-color:#426FB6"/>
	</linearGradient>
	<path class="st4" d="M452.2,240.6h-90c-1.6,0-3-1.4-3-3v-24c0-1.7,1.4-3,3-3h90c1.7,0,3,1.3,3,3v24
		C455.2,239.2,453.8,240.6,452.2,240.6z"/>
	<g>
		<text transform="matrix(1 0 0 1 281.922 229.1029)" class="st46 st95 st96">Query</text>
	</g>
	<g>
		<text transform="matrix(1 0 0 1 392.5404 228.5176)" class="st97 st95 st96">Save</text>
	</g>
	<g id="Group" transform="translate(0.000000, 19.000000)" class="st33">
		<g id="Shape" transform="translate(4.000000, 4.000000)">
			
				<linearGradient id="SVGID_5_" gradientUnits="userSpaceOnUse" x1="-1787.9855" y1="470.0686" x2="-1787.4293" y2="468.8564" gradientTransform="matrix(301.4 0 0 -138.3 539216.875 65033.8008)">
				<stop  offset="2.483974e-03" style="stop-color:#3CC1F1"/>
				<stop  offset="0.1331" style="stop-color:#3DBCED"/>
				<stop  offset="0.3458" style="stop-color:#3BADE2"/>
				<stop  offset="0.614" style="stop-color:#3F95D1"/>
				<stop  offset="0.9246" style="stop-color:#4277BB"/>
				<stop  offset="1" style="stop-color:#426FB6"/>
			</linearGradient>
			<path style="fill:url(#SVGID_5_);" d="M550,177.3H253.6c-3,0-5.5-2.5-5.5-5.5V42.5c0-3,2.5-5.5,5.5-5.5H550c3,0,5.5,2.5,5.5,5.5
				v129.3C555.5,174.8,553,177.3,550,177.3z"/>
		</g>
	</g>
	<g id="Group_4_" transform="translate(0.000000, 19.000000)" class="st33">
		<g id="Shape_2_" transform="translate(4.000000, 4.000000)">
			
				<linearGradient id="SVGID_6_" gradientUnits="userSpaceOnUse" x1="-1789.0931" y1="469.8381" x2="-1788.0155" y2="467.4895" gradientTransform="matrix(301.4 0 0 -138.3 539216.875 65033.8008)">
				<stop  offset="2.483974e-03" style="stop-color:#3CC1F1"/>
				<stop  offset="0.1331" style="stop-color:#3DBCED"/>
				<stop  offset="0.3458" style="stop-color:#3BADE2"/>
				<stop  offset="0.614" style="stop-color:#3F95D1"/>
				<stop  offset="0.9246" style="stop-color:#4277BB"/>
				<stop  offset="1" style="stop-color:#426FB6"/>
			</linearGradient>
			<path style="fill:url(#SVGID_6_);" d="M221.8,398.2H71.4c-3,0-5.5-2.5-5.5-5.5V42.4c0-3,2.5-5.5,5.5-5.5h150.4
				c3,0,5.5,2.5,5.5,5.5v350.3C227.3,395.7,224.8,398.2,221.8,398.2z"/>
		</g>
	</g>
	<path id="Shape_1_" class="st203" d="M288.9,200.7V60.6"/>
	<text transform="matrix(1 0 0 1 271.8253 96.917)" class="st21 st204 st205">1</text>
	<g id="Group_1_" transform="translate(50.117200, 48.433600)">
		<text transform="matrix(1 0 0 1 249.8341 48.4834)" class="st21 st206 st205">SELECT</text>
		<text transform="matrix(1 0 0 1 295.834 48.4834)" class="st21 st206 st205">city, count(*)</text>
	</g>
	<g id="Group_12_" transform="translate(50.117200, 48.433600)">
		<text transform="matrix(1 0 0 1 60.8341 37.5664)" class="st21 st95 st207">Input Search</text>
	</g>
	<g id="Group_2_" transform="translate(61.147500, 74.376000)">
		<g>
			<text transform="matrix(1 0 0 1 249.834 48.4833)" class="st21 st206 st205">FROM</text>
			<text transform="matrix(1 0 0 1 289.834 48.4833)" class="st21 st206 st205">view_page</text>
		</g>
	</g>
	<g id="Group_3_" transform="translate(61.147500, 100.950200)">
		<g>
			<text transform="matrix(1 0 0 1 249.834 48.4834)" class="st21 st206 st205">GROUP BY</text>
			<text transform="matrix(1 0 0 1 314.834 48.4834)" class="st21 st206 st205">city</text>
			<text transform="matrix(1 0 0 1 296.834 73.4834)" class="st21 st206 st205">country =</text>
			<text transform="matrix(1 0 0 1 350.834 73.4834)" class="st21 st206 st205">{country}</text>
			<text transform="matrix(1 0 0 1 249.834 74.4834)" class="st21 st206 st205">WHERE</text>
		</g>
	</g>
	<text transform="matrix(1 0 0 1 271.8253 123.089)" class="st21 st204 st205">2</text>
	<text transform="matrix(1 0 0 1 271.8253 149.261)" class="st21 st204 st205">3</text>
	<text transform="matrix(1 0 0 1 271.8253 175.4334)" class="st21 st204 st205">4</text>
	<g>
		<path class="st21" d="M213.4,73.3v18H86.3v-18H213.4 M214.4,72.3H85.3v20h129.2V72.3L214.4,72.3z"/>
	</g>
	<rect x="101.8" y="215.3" class="st141" width="96.1" height="8.3"/>
	<rect x="101.8" y="237.7" class="st141" width="96.1" height="8.3"/>
	<rect x="101.8" y="260.1" class="st141" width="96.1" height="8.3"/>
	<rect x="101.8" y="282.5" class="st141" width="96.1" height="8.3"/>
	<rect x="101.8" y="304.9" class="st141" width="96.1" height="8.3"/>
	<rect x="101.8" y="327.4" class="st141" width="96.1" height="8.3"/>
	<rect x="101.8" y="349.8" class="st141" width="96.1" height="8.3"/>
	<rect x="101.8" y="372.2" class="st141" width="96.1" height="8.3"/>
	<rect x="101.8" y="394.6" class="st141" width="96.1" height="8.3"/>
	<rect x="85.3" y="72.7" class="st203" width="129.2" height="20"/>
	<g id="Group_5_" transform="translate(108.000000, 149.000000)">
		<path id="Shape_8_" class="st21" d="M446.5,272.7H149.1c-2.8,0-5-2.2-5-5V106.8c0-2.8,2.2-5,5-5h297.4c2.8,0,5,2.2,5,5v160.9
			C451.5,270.4,449.3,272.7,446.5,272.7z"/>
		<g>
			<g id="Shape_3_" transform="translate(4.000000, 4.000000)">
				
					<linearGradient id="SVGID_7_" gradientUnits="userSpaceOnUse" x1="-1896.3341" y1="339.009" x2="-1895.2755" y2="339.009" gradientTransform="matrix(290.4 0 0 -144.9 550835.5625 49305.6016)">
					<stop  offset="2.483974e-03" style="stop-color:#3CC1F1"/>
					<stop  offset="0.1331" style="stop-color:#3DBCED"/>
					<stop  offset="0.3458" style="stop-color:#3BADE2"/>
					<stop  offset="0.614" style="stop-color:#3F95D1"/>
					<stop  offset="0.9246" style="stop-color:#4277BB"/>
					<stop  offset="1" style="stop-color:#426FB6"/>
				</linearGradient>
				<path style="fill:url(#SVGID_7_);" d="M442.5,268.6H145.1c-2.8,0-5-2.2-5-5V102.7c0-2.8,2.2-5,5-5h297.4c2.8,0,5,2.2,5,5v160.9
					C447.5,266.3,445.3,268.6,442.5,268.6z"/>
			</g>
		</g>
		<rect id="Rectangle-path_1_" x="159.2" y="166.3" class="st21" width="260.3" height="2.2"/>
		<g id="Rectangle-path_2_" transform="translate(22.000000, 57.000000)" class="st2">
			<rect x="140.4" y="116.5" class="st21" width="257.1" height="16.5"/>
		</g>
		<rect id="Rectangle-path_3_" x="294.7" y="190" class="st209" width="124.7" height="16.3"/>
		<rect id="Rectangle-path_4_" x="294.7" y="225.5" class="st209" width="124.7" height="17"/>
		<g id="Rectangle-path_5_" transform="translate(44.000000, 79.000000)" class="st210">
			<rect x="139.9" y="116.7" class="st21" width="28.9" height="4.7"/>
		</g>
		<g id="Rectangle-path_6_" transform="translate(44.000000, 97.000000)" class="st210">
			<rect x="139.9" y="116.5" class="st21" width="28.9" height="4.7"/>
		</g>
		<g id="Rectangle-path_7_" transform="translate(44.000000, 115.000000)" class="st210">
			<rect x="139.9" y="116.8" class="st21" width="28.9" height="4.7"/>
		</g>
		<g id="Rectangle-path_8_" transform="translate(166.000000, 79.000000)" class="st210">
			<rect x="140.3" y="116.7" class="st21" width="28.9" height="4.7"/>
		</g>
		<g id="Rectangle-path_9_" transform="translate(166.000000, 97.000000)" class="st210">
			<rect x="140.3" y="116.5" class="st21" width="28.9" height="4.7"/>
		</g>
		<g id="Rectangle-path_10_" transform="translate(166.000000, 115.000000)" class="st210">
			<rect x="140.3" y="116.8" class="st21" width="28.9" height="4.7"/>
		</g>
		<g id="Rectangle-path_11_" transform="translate(44.000000, 133.000000)" class="st210">
			<rect x="139.9" y="116.5" class="st21" width="28.9" height="4.7"/>
		</g>
		<g id="Rectangle-path_12_" transform="translate(166.000000, 133.000000)" class="st210">
			<rect x="140.3" y="116.5" class="st21" width="28.9" height="4.7"/>
		</g>
		
			<linearGradient id="Shape_18_" gradientUnits="userSpaceOnUse" x1="-1891.4113" y1="122.9573" x2="-1890.4113" y2="122.9573" gradientTransform="matrix(255 0 0 -1 482474.5 329.3)">
			<stop  offset="2.483974e-03" style="stop-color:#3CC1F1"/>
			<stop  offset="0.1331" style="stop-color:#3DBCED"/>
			<stop  offset="0.3458" style="stop-color:#3BADE2"/>
			<stop  offset="0.614" style="stop-color:#3F95D1"/>
			<stop  offset="0.9246" style="stop-color:#4277BB"/>
			<stop  offset="1" style="stop-color:#426FB6"/>
		</linearGradient>
		
			<linearGradient id="Shape_19_" gradientUnits="userSpaceOnUse" x1="-1890.9113" y1="122.8204" x2="-1890.9113" y2="123.0704" gradientTransform="matrix(255 0 0 -1 482474.5 329.3)">
			<stop  offset="2.483974e-03" style="stop-color:#3CC1F1"/>
			<stop  offset="0.1331" style="stop-color:#3DBCED"/>
			<stop  offset="0.3458" style="stop-color:#3BADE2"/>
			<stop  offset="0.614" style="stop-color:#3F95D1"/>
			<stop  offset="0.9246" style="stop-color:#4277BB"/>
			<stop  offset="1" style="stop-color:#426FB6"/>
		</linearGradient>
		<path id="Shape_4_" class="st211" d="M419.6,206.3h-255"/>
		
			<linearGradient id="Shape_20_" gradientUnits="userSpaceOnUse" x1="-1891.4113" y1="122.9573" x2="-1890.4113" y2="122.9573" gradientTransform="matrix(255 0 0 -1 482474.5 348.5)">
			<stop  offset="2.483974e-03" style="stop-color:#3CC1F1"/>
			<stop  offset="0.1331" style="stop-color:#3DBCED"/>
			<stop  offset="0.3458" style="stop-color:#3BADE2"/>
			<stop  offset="0.614" style="stop-color:#3F95D1"/>
			<stop  offset="0.9246" style="stop-color:#4277BB"/>
			<stop  offset="1" style="stop-color:#426FB6"/>
		</linearGradient>
		
			<linearGradient id="Shape_21_" gradientUnits="userSpaceOnUse" x1="-1890.9113" y1="122.8487" x2="-1890.9113" y2="123.0987" gradientTransform="matrix(255 0 0 -1 482474.5 348.5)">
			<stop  offset="2.483974e-03" style="stop-color:#3CC1F1"/>
			<stop  offset="0.1331" style="stop-color:#3DBCED"/>
			<stop  offset="0.3458" style="stop-color:#3BADE2"/>
			<stop  offset="0.614" style="stop-color:#3F95D1"/>
			<stop  offset="0.9246" style="stop-color:#4277BB"/>
			<stop  offset="1" style="stop-color:#426FB6"/>
		</linearGradient>
		<path id="Shape_5_" class="st212" d="M419.6,225.5h-255"/>
		
			<linearGradient id="Shape_22_" gradientUnits="userSpaceOnUse" x1="-1891.4113" y1="122.9573" x2="-1890.4113" y2="122.9573" gradientTransform="matrix(255 0 0 -1 482474.5 365.4)">
			<stop  offset="2.483974e-03" style="stop-color:#3CC1F1"/>
			<stop  offset="0.1331" style="stop-color:#3DBCED"/>
			<stop  offset="0.3458" style="stop-color:#3BADE2"/>
			<stop  offset="0.614" style="stop-color:#3F95D1"/>
			<stop  offset="0.9246" style="stop-color:#4277BB"/>
			<stop  offset="1" style="stop-color:#426FB6"/>
		</linearGradient>
		
			<linearGradient id="Shape_23_" gradientUnits="userSpaceOnUse" x1="-1890.9113" y1="122.783" x2="-1890.9113" y2="123.033" gradientTransform="matrix(255 0 0 -1 482474.5 365.4)">
			<stop  offset="2.483974e-03" style="stop-color:#3CC1F1"/>
			<stop  offset="0.1331" style="stop-color:#3DBCED"/>
			<stop  offset="0.3458" style="stop-color:#3BADE2"/>
			<stop  offset="0.614" style="stop-color:#3F95D1"/>
			<stop  offset="0.9246" style="stop-color:#4277BB"/>
			<stop  offset="1" style="stop-color:#426FB6"/>
		</linearGradient>
		<path id="Shape_6_" class="st213" d="M419.6,242.4h-255"/>
		<path id="Shape_7_" class="st214" d="M163,149c0,0,34.1-10.3,63.5,0.8c29,11,39,8,65.5,5.1c17.4-1.9,34.7-11.8,81.9-3
			c38.9,7.2,43.5,6.8,43.5,6.8"/>
		
			<ellipse id="Oval" transform="matrix(0.4185 -0.9082 0.9082 0.4185 -28.7117 247.0199)" class="st97" cx="178.5" cy="145.9" rx="1.7" ry="1.7"/>
		
			<ellipse id="Oval_1_" transform="matrix(0.4185 -0.9082 0.9082 0.4185 -7.9627 280.977)" class="st97" cx="215.4" cy="146.7" rx="1.7" ry="1.7"/>
		
			<ellipse id="Oval_2_" transform="matrix(0.4185 -0.9082 0.9082 0.4185 5.1775 321.8743)" class="st97" cx="254" cy="156.9" rx="1.7" ry="1.7"/>
		
			<ellipse id="Oval_3_" transform="matrix(0.4185 -0.9082 0.9082 0.4185 23.6191 348.302)" class="st215" cx="283.8" cy="155.7" rx="1.7" ry="1.7"/>
		
			<ellipse id="Oval_4_" transform="matrix(0.4185 -0.9082 0.9082 0.4185 46.069 372.7423)" class="st216" cx="314.1" cy="150.4" rx="1.7" ry="1.7"/>
		
			<ellipse id="Oval_5_" transform="matrix(0.4185 -0.9082 0.9082 0.4185 65.4 399.5592)" class="st217" cx="344.7" cy="148.7" rx="1.7" ry="1.7"/>
		
			<ellipse id="Oval_6_" transform="matrix(0.4185 -0.9082 0.9082 0.4185 80.8496 431.829)" class="st217" cx="377.7" cy="152.8" rx="1.7" ry="1.7"/>
		
			<ellipse id="Oval_7_" transform="matrix(0.4185 -0.9082 0.9082 0.4185 96.1609 467.036)" class="st217" cx="412.8" cy="158.4" rx="1.7" ry="1.7"/>
		<g>
			<text transform="matrix(1 0 0 1 302.0775 125.9351)" class="st21 st206 st218">Country</text>
		</g>
		<rect x="344.7" y="115.6" class="st21" width="69" height="16"/>
		<polygon class="st97" points="408.7,121.8 404.9,125.6 401.2,121.9 401.5,121.6 404.9,125.1 408.5,121.6 		"/>
		<text transform="matrix(1 0 0 1 349.6819 125.9316)" class="st78 st206 st219">USA</text>
		<g class="st200">
			<text transform="matrix(1 0 0 1 188.349 183.863)" class="st21 st206 st207">City</text>
		</g>
		<g class="st200">
			<text transform="matrix(1 0 0 1 305.7813 183.863)" class="st21 st206 st207">Count</text>
		</g>
	</g>
	<path class="st21" d="M194.4,86.4l-2.1-2.1c0.5-0.6,0.8-1.4,0.8-2.2c0-2-1.6-3.5-3.5-3.5c-2,0-3.5,1.6-3.5,3.5s1.6,3.5,3.5,3.5
		c0.8,0,1.6-0.3,2.2-0.8l2.1,2.1c0.1,0.1,0.2,0.1,0.3,0.1s0.2,0,0.3-0.1C194.6,86.7,194.6,86.5,194.4,86.4z M186.8,82
		c0-1.5,1.2-2.8,2.8-2.8s2.8,1.2,2.8,2.8s-1.2,2.8-2.8,2.8S186.8,83.6,186.8,82z"/>
	<text transform="matrix(1 0 0 1 112.1351 113.6665)" class="st21 st95 st207">add_to_basket</text>
	<text transform="matrix(1 0 0 1 136.8246 134.7878)" class="st21 st95 st207">login</text>
	<text transform="matrix(1 0 0 1 129.805 155.9088)" class="st21 st95 st207">register</text>
	<text transform="matrix(1 0 0 1 120.4242 177.03)" class="st21 st95 st207">transaction</text>
	<text transform="matrix(1 0 0 1 114.6751 198.1508)" class="st21 st95 st207">view_product</text>
</g>
<g id="Layer_2">
</g>
<g id="Layer_3">
</g>
</svg>
