<svg enable-background="new 0 0 580.4 441" viewBox="0 0 580.4 441" xmlns="http://www.w3.org/2000/svg" xmlns:xlink="http://www.w3.org/1999/xlink"><linearGradient id="a" gradientUnits="userSpaceOnUse" x1="-97.6327" x2="147.8673" y1="97.75" y2="343.25"><stop offset=".002483974" stop-color="#57c8e1"/><stop offset=".1396" stop-color="#58c1de"/><stop offset=".3628" stop-color="#58b2d7"/><stop offset=".6444" stop-color="#579acb"/><stop offset=".9705" stop-color="#577abc"/><stop offset="1" stop-color="#5777bb"/></linearGradient><linearGradient id="b" gradientTransform="matrix(0 1 -1 0 -1439.9818 1825.9818)" gradientUnits="userSpaceOnUse" x1="-1961.0778" x2="-1650.886" y1="-1885.3867" y2="-1575.1949"><stop offset="0" stop-color="#5777bb"/><stop offset="1" stop-color="#57c8e1"/></linearGradient><linearGradient id="c"><stop offset=".002483974" stop-color="#3cc1f1"/><stop offset=".1331" stop-color="#3dbced"/><stop offset=".3458" stop-color="#3bade2"/><stop offset=".614" stop-color="#3f95d1"/><stop offset=".9246" stop-color="#4277bb"/><stop offset="1" stop-color="#426fb6"/></linearGradient><linearGradient id="d" gradientUnits="userSpaceOnUse" x1="348.8057" x2="252.8057" xlink:href="#c" y1="225.5929" y2="225.5929"/><linearGradient id="e" gradientUnits="userSpaceOnUse" x1="358.6574" x2="455.6574" xlink:href="#c" y1="225.5929" y2="225.5929"/><linearGradient id="f" gradientTransform="matrix(301.4 0 0 -138.3 539216.875 65033.8008)" gradientUnits="userSpaceOnUse" x1="-1787.9855" x2="-1787.4293" xlink:href="#c" y1="470.0686" y2="468.8564"/><linearGradient id="g" gradientTransform="matrix(301.4 0 0 -138.3 539216.875 65033.8008)" gradientUnits="userSpaceOnUse" x1="-1789.0931" x2="-1788.0155" xlink:href="#c" y1="469.8381" y2="467.4895"/><linearGradient id="h" gradientTransform="matrix(290.4 0 0 -144.9 550835.5625 49305.6016)" gradientUnits="userSpaceOnUse" x1="-1896.3341" x2="-1895.2755" xlink:href="#c" y1="339.009" y2="339.009"/><linearGradient id="i" gradientTransform="matrix(255 0 0 -1 482474.5 329.3)" gradientUnits="userSpaceOnUse" x1="-1891.4113" x2="-1890.4113" xlink:href="#c" y1="122.9573" y2="122.9573"/><linearGradient id="j" gradientTransform="matrix(255 0 0 -1 482474.5 329.3)" gradientUnits="userSpaceOnUse" x1="-1890.9113" x2="-1890.9113" xlink:href="#c" y1="122.8204" y2="123.0704"/><linearGradient id="k" gradientTransform="matrix(255 0 0 -1 482474.5 348.5)" gradientUnits="userSpaceOnUse" x1="-1891.4113" x2="-1890.4113" xlink:href="#c" y1="122.9573" y2="122.9573"/><linearGradient id="l" gradientTransform="matrix(255 0 0 -1 482474.5 348.5)" gradientUnits="userSpaceOnUse" x1="-1890.9113" x2="-1890.9113" xlink:href="#c" y1="122.8487" y2="123.0987"/><linearGradient id="m" gradientTransform="matrix(255 0 0 -1 482474.5 365.4)" gradientUnits="userSpaceOnUse" x1="-1891.4113" x2="-1890.4113" xlink:href="#c" y1="122.9573" y2="122.9573"/><linearGradient id="n" gradientTransform="matrix(255 0 0 -1 482474.5 365.4)" gradientUnits="userSpaceOnUse" x1="-1890.9113" x2="-1890.9113" xlink:href="#c" y1="122.783" y2="123.033"/><path d="m.1 0h50v441h-50z" fill="url(#a)" opacity=".8"/><path d="m.1 0h580.4v40h-580.4z" fill="url(#b)"/><path d="m50.1 0h97v40h-97z" fill="#fff" opacity=".44"/><circle cx="501.3" cy="20" fill="#fff" r="9"/><circle cx="539.1" cy="20" fill="#fff" r="9"/><text fill="#3c3c3c" font-family="'Arial'" font-size="9.002" transform="translate(61.633 23.6465)">Rakam Demo</text><path d="m138.1 18.5-4.2 4.2-4.2-4.1.3-.3 3.9 3.9 3.9-4z" fill="#3c3c3c"/><path d="m16.1 19.7h4.6v8.2h-4.6z" fill="#fff"/><path d="m22.8 15.6h4.6v12.3h-4.6z" fill="#fff"/><path d="m29.5 12.1h4.6v15.8h-4.6z" fill="#fff"/><path d="m16.1 51.3h8.6v5.5h-8.6z" fill="#fff"/><path d="m16.1 58.9h8.6v10.4h-8.6z" fill="#fff"/><path d="m26.5 51.3h7.6v10.4h-7.6z" fill="#fff"/><path d="m26.5 63.9h7.6v5.5h-7.6z" fill="#fff"/><path d="m16.1 84v19.1h17v-19.1h-2.4v.9c0 .3-.3.5-.6.5s-.6-.2-.6-.5v-.9h-2.5v.9c0 .3-.3.5-.6.5s-.6-.2-.6-.5v-.9h-2.4v.9c0 .3-.3.5-.6.5s-.6-.2-.6-.5v-.9h-2.4v.9c0 .3-.3.5-.6.5s-.6-.2-.6-.5v-.9zm14 6.4h-10.9c-.3 0-.6-.4-.6-.9s.3-.9.6-.9h10.9c.3 0 .6.4.6.9s-.3.9-.6.9zm0 4.8h-10.9c-.3 0-.6-.4-.6-.9s.3-.9.6-.9h10.9c.3 0 .6.4.6.9s-.3.9-.6.9zm0 4.7h-10.9c-.3 0-.6-.4-.6-.9s.3-.9.6-.9h10.9c.3 0 .6.4.6.9s-.3.9-.6.9z" fill="#fff"/><path d="m32 119.8c-3.8-3.8-9.9-3.8-13.7 0s-3.8 9.9 0 13.7 9.9 3.8 13.7 0c3.7-3.8 3.7-9.9 0-13.7zm-10.3 10.3 1.7-5.1 5.1-1.7-1.7 5.1z" fill="#fff"/><path d="m20 166.2c.5.6 1 1.1 1.6 1.6v1.3c0 .2.2.5.4.5l2.6 1h.2c.2 0 .3-.1.4-.2l.8-1c.8.1 1.5.1 2.3 0l.9.9c.2.2.4.2.7.1l2.6-1.2c.2-.1.4-.3.4-.6l-.1-1.3c.6-.5 1.1-1 1.6-1.6h1.3c.2 0 .5-.2.5-.4l1-2.7c.1-.2 0-.5-.2-.7l-1-.8c.1-.8.1-1.5 0-2.3l.9-.9c.2-.2.2-.4.1-.7l-1.2-2.6c-.1-.2-.3-.4-.6-.4l-1.3.1c-.5-.6-1-1.1-1.6-1.6v-1.2c0-.2-.2-.5-.4-.5l-2.5-1c-.2-.1-.5 0-.7.2l-.8 1c-.8-.1-1.5-.1-2.3 0l-.9-.9c-.2-.2-.4-.2-.7-.1l-2.6 1.2c-.2.1-.4.3-.4.6l.1 1.3c-.6.5-1.1 1-1.6 1.6h-1.3c-.2 0-.5.2-.5.4l-1 2.5c-.1.2 0 .5.2.7l1 .8c-.1.8-.1 1.5 0 2.3l-.9.9c-.2.2-.2.4-.1.7l1.2 2.6c.1.2.3.4.6.4zm2.5-7.5c1-2.6 3.8-3.8 6.4-2.9 2.6 1 3.8 3.8 2.9 6.4s-3.8 3.8-6.4 2.9c-2.6-1-3.9-3.9-2.9-6.4z" fill="#fff"/><path d="m345.8 240.6h-90c-1.6 0-3-1.4-3-3v-24c0-1.7 1.4-3 3-3h90c1.6 0 3 1.3 3 3v24c0 1.6-1.3 3-3 3z" fill="url(#d)"/><path d="m452.2 240.6h-90c-1.6 0-3-1.4-3-3v-24c0-1.7 1.4-3 3-3h90c1.7 0 3 1.3 3 3v24c0 1.6-1.4 3-3 3z" fill="none" stroke="url(#e)" stroke-miterlimit="10"/><text fill="#fdfefe" font-family="'Montserrat-SemiBold'" font-size="12" transform="translate(281.922 229.1029)">Query</text><text fill="#426fb6" font-family="'Montserrat-SemiBold'" font-size="12" transform="translate(392.5404 228.5176)">Save</text><path d="m550 177.3h-296.4c-3 0-5.5-2.5-5.5-5.5v-129.3c0-3 2.5-5.5 5.5-5.5h296.4c3 0 5.5 2.5 5.5 5.5v129.3c0 3-2.5 5.5-5.5 5.5z" fill="url(#f)" opacity=".9" transform="translate(4 23)"/><path d="m221.8 398.2h-150.4c-3 0-5.5-2.5-5.5-5.5v-350.3c0-3 2.5-5.5 5.5-5.5h150.4c3 0 5.5 2.5 5.5 5.5v350.3c0 3-2.5 5.5-5.5 5.5z" fill="url(#g)" opacity=".9" transform="translate(4 23)"/><path d="m288.9 200.7v-140.1" fill="none" stroke="#fff" stroke-miterlimit="10" stroke-width=".75"/><g fill="#fff"><text font-family="'Helvetica'" font-size="11.0297" transform="translate(271.8253 96.917)">1</text><text font-family="'Montserrat-Medium'" font-size="11.0297" transform="translate(299.9513 96.917)">SELECT</text><text font-family="'Montserrat-Medium'" font-size="11.0297" transform="translate(345.9512 96.917)">city, count(*)</text><text font-family="'Montserrat-SemiBold'" font-size="10" transform="translate(110.9513 86)">Input Search</text><text font-family="'Montserrat-Medium'" font-size="11.0297" transform="translate(310.9815 122.8593)">FROM</text><text font-family="'Montserrat-Medium'" font-size="11.0297" transform="translate(350.9815 122.8593)">view_page</text><text font-family="'Montserrat-Medium'" font-size="11.0297" transform="translate(310.9815 149.4336)">GROUP BY</text><text font-family="'Montserrat-Medium'" font-size="11.0297" transform="translate(375.9815 149.4336)">city</text><text font-family="'Montserrat-Medium'" font-size="11.0297" transform="translate(357.9815 174.4336)">country =</text><text font-family="'Montserrat-Medium'" font-size="11.0297" transform="translate(411.9815 174.4336)">{country}</text><text font-family="'Montserrat-Medium'" font-size="11.0297" transform="translate(310.9815 175.4336)">WHERE</text><text font-family="'Helvetica'" font-size="11.0297" transform="translate(271.8253 123.089)">2</text><text font-family="'Helvetica'" font-size="11.0297" transform="translate(271.8253 149.261)">3</text><text font-family="'Helvetica'" font-size="11.0297" transform="translate(271.8253 175.4334)">4</text><path d="m213.4 73.3v18h-127.1v-18zm1-1h-129.1v20h129.2v-20z"/><path d="m101.8 215.3h96.1v8.3h-96.1z" opacity=".5"/><path d="m101.8 237.7h96.1v8.3h-96.1z" opacity=".5"/><path d="m101.8 260.1h96.1v8.3h-96.1z" opacity=".5"/><path d="m101.8 282.5h96.1v8.3h-96.1z" opacity=".5"/><path d="m101.8 304.9h96.1v8.3h-96.1z" opacity=".5"/><path d="m101.8 327.4h96.1v8.3h-96.1z" opacity=".5"/><path d="m101.8 349.8h96.1v8.3h-96.1z" opacity=".5"/><path d="m101.8 372.2h96.1v8.3h-96.1z" opacity=".5"/><path d="m101.8 394.6h96.1v8.3h-96.1z" opacity=".5"/></g><path d="m85.3 72.7h129.2v20h-129.2z" fill="none" stroke="#fff" stroke-miterlimit="10" stroke-width=".75"/><g transform="translate(108 149)"><path d="m446.5 272.7h-297.4c-2.8 0-5-2.2-5-5v-160.9c0-2.8 2.2-5 5-5h297.4c2.8 0 5 2.2 5 5v160.9c0 2.7-2.2 5-5 5z" fill="#fff"/><path d="m442.5 268.6h-297.4c-2.8 0-5-2.2-5-5v-160.9c0-2.8 2.2-5 5-5h297.4c2.8 0 5 2.2 5 5v160.9c0 2.7-2.2 5-5 5z" fill="url(#h)" transform="translate(4 4)"/><g fill="#fff"><path d="m159.2 166.3h260.3v2.2h-260.3z"/><path d="m162.4 173.5h257.1v16.5h-257.1z" opacity=".2"/><path d="m294.7 190h124.7v16.3h-124.7z" opacity=".3"/><path d="m294.7 225.5h124.7v17h-124.7z" opacity=".3"/><path d="m183.9 195.7h28.9v4.7h-28.9z" opacity=".3"/><path d="m183.9 213.5h28.9v4.7h-28.9z" opacity=".3"/><path d="m183.9 231.8h28.9v4.7h-28.9z" opacity=".3"/><path d="m306.3 195.7h28.9v4.7h-28.9z" opacity=".3"/><path d="m306.3 213.5h28.9v4.7h-28.9z" opacity=".3"/><path d="m306.3 231.8h28.9v4.7h-28.9z" opacity=".3"/><path d="m183.9 249.5h28.9v4.7h-28.9z" opacity=".3"/><path d="m306.3 249.5h28.9v4.7h-28.9z" opacity=".3"/></g><path d="m419.6 206.3h-255" fill="url(#i)" stroke="url(#j)" stroke-width=".25"/><path d="m419.6 225.5h-255" fill="url(#k)" stroke="url(#l)" stroke-width=".25"/><path d="m419.6 242.4h-255" fill="url(#m)" stroke="url(#n)" stroke-width=".25"/><path d="m163 149s34.1-10.3 63.5.8c29 11 39 8 65.5 5.1 17.4-1.9 34.7-11.8 81.9-3 38.9 7.2 43.5 6.8 43.5 6.8" fill="none" stroke="#b7e3ec"/><ellipse cx="178.5" cy="145.9" fill="#426fb6" rx="1.7" ry="1.7" transform="matrix(.4185 -.9082 .9082 .4185 -28.7117 247.0199)"/><ellipse cx="215.4" cy="146.7" fill="#426fb6" rx="1.7" ry="1.7" transform="matrix(.4185 -.9082 .9082 .4185 -7.9627 280.977)"/><ellipse cx="254" cy="156.9" fill="#426fb6" rx="1.7" ry="1.7" transform="matrix(.4185 -.9082 .9082 .4185 5.1775 321.8743)"/><ellipse cx="283.8" cy="155.7" fill="#6896cc" rx="1.7" ry="1.7" transform="matrix(.4185 -.9082 .9082 .4185 23.6191 348.302)"/><ellipse cx="314.1" cy="150.4" fill="#36accb" rx="1.7" ry="1.7" transform="matrix(.4185 -.9082 .9082 .4185 46.069 372.7423)"/><ellipse cx="344.7" cy="148.7" fill="#41c1f0" rx="1.7" ry="1.7" transform="matrix(.4185 -.9082 .9082 .4185 65.4 399.5592)"/><ellipse cx="377.7" cy="152.8" fill="#41c1f0" rx="1.7" ry="1.7" transform="matrix(.4185 -.9082 .9082 .4185 80.8496 431.829)"/><ellipse cx="412.8" cy="158.4" fill="#41c1f0" rx="1.7" ry="1.7" transform="matrix(.4185 -.9082 .9082 .4185 96.1609 467.036)"/><text fill="#fff" font-family="'Montserrat-Medium'" font-size="9" transform="translate(302.0775 125.9351)">Country</text><path d="m344.7 115.6h69v16h-69z" fill="#fff"/><path d="m408.7 121.8-3.8 3.8-3.7-3.7.3-.3 3.4 3.5 3.6-3.5z" fill="#426fb6"/><text fill="#787878" font-family="'Montserrat-Medium'" font-size="8" transform="translate(349.6819 125.9316)">USA</text><text fill="#fff" font-family="'Montserrat-Medium'" font-size="10" transform="translate(188.349 183.863)">City</text><text fill="#fff" font-family="'Montserrat-Medium'" font-size="10" transform="translate(305.7813 183.863)">Count</text></g><path d="m194.4 86.4-2.1-2.1c.5-.6.8-1.4.8-2.2 0-2-1.6-3.5-3.5-3.5-2 0-3.5 1.6-3.5 3.5s1.6 3.5 3.5 3.5c.8 0 1.6-.3 2.2-.8l2.1 2.1c.1.1.2.1.3.1s.2 0 .3-.1c.1-.2.1-.4-.1-.5zm-7.6-4.4c0-1.5 1.2-2.8 2.8-2.8s2.8 1.2 2.8 2.8-1.2 2.8-2.8 2.8-2.8-1.2-2.8-2.8z" fill="#fff"/><text fill="#fff" font-family="'Montserrat-SemiBold'" font-size="10" transform="translate(112.1351 113.6665)">add_to_basket</text><text fill="#fff" font-family="'Montserrat-SemiBold'" font-size="10" transform="translate(136.8246 134.7878)">login</text><text fill="#fff" font-family="'Montserrat-SemiBold'" font-size="10" transform="translate(129.805 155.9088)">register</text><text fill="#fff" font-family="'Montserrat-SemiBold'" font-size="10" transform="translate(120.4242 177.03)">transaction</text><text fill="#fff" font-family="'Montserrat-SemiBold'" font-size="10" transform="translate(114.6751 198.1508)">view_product</text></svg>