<?xml version="1.0" encoding="utf-8"?>
<!-- Generator: Adobe Illustrator 16.0.0, SVG Export Plug-In . SVG Version: 6.00 Build 0)  -->
<!DOCTYPE svg PUBLIC "-//W3C//DTD SVG 1.1//EN" "http://www.w3.org/Graphics/SVG/1.1/DTD/svg11.dtd">
<svg version="1.1" id="Layer_1" xmlns="http://www.w3.org/2000/svg" xmlns:xlink="http://www.w3.org/1999/xlink" x="0px" y="0px"
	 width="64px" height="64px" viewBox="0 0 64 64" enable-background="new 0 0 64 64" xml:space="preserve">
<path fill="#ffbb42" d="M60.783,38.643l-6.131,1.227c-0.309,0.886-0.668,1.745-1.072,2.58l3.47,5.207c1.06,1.585,0.849,3.7-0.499,5.046
	l-3.847,3.849c-0.775,0.773-1.799,1.172-2.832,1.172c-0.767,0-1.538-0.222-2.216-0.673l-5.207-3.47
	c-0.831,0.402-1.69,0.764-2.578,1.072l-1.229,6.131c-0.373,1.87-2.016,3.216-3.923,3.216h-5.44c-1.906,0-3.55-1.346-3.922-3.216
	l-1.227-6.131c-0.886-0.309-1.745-0.668-2.58-1.072l-5.207,3.47c-0.676,0.451-1.449,0.673-2.216,0.673
	c-1.033,0-2.057-0.398-2.832-1.172l-3.847-3.849c-1.348-1.346-1.559-3.461-0.5-5.046l3.47-5.207
	c-0.402-0.832-0.764-1.692-1.072-2.578l-6.131-1.229C1.347,38.27,0,36.626,0,34.72v-5.442c0-1.905,1.346-3.548,3.216-3.92
	l6.131-1.227c0.308-0.886,0.668-1.745,1.072-2.58l-3.47-5.207c-1.06-1.585-0.848-3.7,0.5-5.048l3.847-3.847
	c0.775-0.773,1.798-1.172,2.832-1.172c0.767,0,1.539,0.223,2.216,0.673l5.207,3.47c0.831-0.402,1.692-0.764,2.578-1.072l1.229-6.13
	C25.73,1.346,27.374,0,29.28,0h5.44c1.907,0,3.55,1.346,3.923,3.216l1.227,6.13c0.887,0.309,1.745,0.668,2.58,1.072l5.207-3.47
	c0.676-0.451,1.449-0.673,2.216-0.673c1.033,0,2.057,0.399,2.832,1.172l3.847,3.847c1.348,1.348,1.559,3.462,0.499,5.048
	l-3.47,5.207c0.402,0.831,0.764,1.692,1.072,2.578l6.131,1.229c1.87,0.373,3.216,2.016,3.216,3.92v5.442
	C63.999,36.626,62.653,38.27,60.783,38.643L60.783,38.643z M59.997,29.278l-6.131-1.227c-1.388-0.278-2.525-1.269-2.99-2.607
	c-0.259-0.74-0.562-1.457-0.897-2.15c-0.615-1.276-0.512-2.781,0.274-3.961l3.47-5.208l-3.847-3.847l-5.208,3.47
	C44,14.193,43.227,14.42,42.449,14.42c-0.595,0-1.191-0.133-1.744-0.4c-0.694-0.338-1.411-0.637-2.15-0.896
	c-1.338-0.465-2.33-1.603-2.607-2.991L34.72,3.999l-5.44,0.002l-1.229,6.132c-0.277,1.388-1.27,2.526-2.608,2.991
	c-0.74,0.258-1.457,0.562-2.15,0.897c-0.552,0.266-1.149,0.399-1.742,0.399c-0.778,0-1.551-0.227-2.219-0.673l-5.207-3.47
	l-3.847,3.847l3.471,5.208c0.786,1.18,0.891,2.688,0.271,3.963c-0.338,0.696-0.637,1.412-0.896,2.15
	c-0.465,1.338-1.603,2.331-2.991,2.608L4,29.278l0.003,5.442l6.131,1.229c1.388,0.277,2.526,1.27,2.991,2.608
	c0.258,0.74,0.562,1.457,0.897,2.15c0.615,1.275,0.512,2.781-0.272,3.961l-3.471,5.207l3.847,3.848l5.207-3.472
	c0.668-0.444,1.441-0.671,2.219-0.671c0.595,0,1.191,0.133,1.744,0.4c0.695,0.338,1.412,0.637,2.151,0.896
	c1.338,0.465,2.33,1.603,2.607,2.99L29.28,60h5.44l1.229-6.134c0.276-1.388,1.269-2.525,2.607-2.99
	c0.74-0.259,1.457-0.562,2.15-0.897c0.553-0.266,1.148-0.398,1.742-0.398c0.777,0,1.551,0.227,2.219,0.671l5.208,3.472l3.847-3.848
	l-3.47-5.207c-0.787-1.18-0.893-2.688-0.272-3.963c0.338-0.696,0.637-1.413,0.896-2.15c0.465-1.338,1.603-2.33,2.99-2.607
	l6.135-1.228L59.997,29.278L59.997,29.278z M32,46c-7.73,0-14-6.27-14-14s6.27-14,14-14s14,6.27,14,14S39.73,46,32,46L32,46z
	 M32,19.75c-6.763,0-12.25,5.487-12.25,12.25c0,6.763,5.487,12.25,12.25,12.25c6.763,0,12.25-5.487,12.25-12.25
	C44.25,25.237,38.763,19.75,32,19.75L32,19.75z M32,39.999c-4.42,0-8-3.579-8-7.999c0-4.42,3.58-8,8-8s7.999,3.579,7.999,8
	C39.999,36.42,36.42,39.999,32,39.999L32,39.999z M32,26c-3.312,0-6,2.688-6,6c0,3.312,2.688,5.999,6,5.999
	c3.312,0,5.999-2.688,5.999-5.999C37.999,28.688,35.312,26,32,26L32,26z"/>
</svg>
