<?xml version="1.0" encoding="UTF-8"?>
<svg width="86px" height="85px" viewBox="0 0 86 85" version="1.1" xmlns="http://www.w3.org/2000/svg" xmlns:xlink="http://www.w3.org/1999/xlink">
    <!-- Generator: sketchtool 46.2 (44496) - http://www.bohemiancoding.com/sketch -->
    <title>65BF9BFD-72DB-480B-8B5A-555275FCB3AD</title>
    <desc>Created with sketchtool.</desc>
    <defs></defs>
    <g id="Page-1" stroke="none" stroke-width="1" fill="none" fill-rule="evenodd">
        <g id="02_10-Rakam-Pre-Build-2" transform="translate(-468.000000, -1634.000000)">
            <g id="Products1" transform="translate(0.000000, 1519.000000)">
                <g id="Group" transform="translate(456.000000, 115.000000)">
                    <g id="1">
                        <g id="ic/advertisement-selected" transform="translate(12.000000, 0.000000)">
                            <ellipse id="Oval-4" fill="#02AFDE" cx="43" cy="42.5" rx="43" ry="42.5"></ellipse>
                            <g stroke-width="1" transform="translate(27.000000, 26.686047)" fill="#FFFFFF">
                                <path d="M24.363965,21.1155468 L25.5,22.2383721 L26,21.744186 L31,25.6976744 C32.324484,27.1047325 32.3898494,29.3006474 31,30.6395349 C29.6453609,32.0132233 27.4236117,31.9486179 26,30.6395349 L22,25.6976744 L22.5,25.2034884 L21.363965,24.0806631 C19.0580046,25.7304857 16.1818919,26.6860465 13,26.6860465 C6.04417731,26.6860465 0,20.7121503 0,12.8488372 C0,5.97389618 6.04417731,-1.83186799e-15 13,-1.83186799e-15 C20.9558227,-1.83186799e-15 27,5.97389618 27,12.8488372 C27,15.9937304 26.0331973,18.8363999 24.363965,21.1155468 Z M13,3.95348837 C8.25326105,3.95348837 4,8.1572929 4,12.8488372 C4,18.5286929 8.25326105,22.7325581 13,22.7325581 C18.7466775,22.7325581 23,18.5286929 23,12.8488372 C23,8.1572929 18.7466775,3.95348837 13,3.95348837 Z" id="Combined-Shape"></path>
                                <polygon id="Fill-7" points="16 17.7906977 18 17.7906977 18 7.90697674 16 7.90697674"></polygon>
                                <polygon id="Fill-8" points="12 17.7906977 14 17.7906977 14 9.88372093 12 9.88372093"></polygon>
                                <polygon id="Fill-9" points="8 17.7906977 10 17.7906977 10 11.8604651 8 11.8604651"></polygon>
                            </g>
                        </g>
                    </g>
                </g>
            </g>
        </g>
    </g>
</svg>