<?xml version="1.0" encoding="UTF-8"?>
<svg width="100px" height="100px" viewBox="0 0 100 100" version="1.1" xmlns="http://www.w3.org/2000/svg" xmlns:xlink="http://www.w3.org/1999/xlink">
    <!-- Generator: sketchtool 46.2 (44496) - http://www.bohemiancoding.com/sketch -->
    <title>7260CA6A-EFBF-4F56-B055-4B6B26A993D1</title>
    <desc>Created with sketchtool.</desc>
    <defs>
        <circle id="path-1" cx="58" cy="45" r="35"></circle>
        <filter x="-37.1%" y="-31.4%" width="174.3%" height="174.3%" filterUnits="objectBoundingBox" id="filter-2">
            <feOffset dx="0" dy="4" in="SourceAlpha" result="shadowOffsetOuter1"></feOffset>
            <feGaussianBlur stdDeviation="8" in="shadowOffsetOuter1" result="shadowBlurOuter1"></feGaussianBlur>
            <feColorMatrix values="0 0 0 0 0.254901961   0 0 0 0 0.458823529   0 0 0 0 0.647058824  0 0 0 0.24 0" type="matrix" in="shadowBlurOuter1"></feColorMatrix>
        </filter>
        <linearGradient x1="0%" y1="0%" x2="149.460671%" y2="71.875%" id="linearGradient-3">
            <stop stop-color="#00EAF8" offset="0%"></stop>
            <stop stop-color="#6D42EF" offset="100%"></stop>
        </linearGradient>
    </defs>
    <g id="Symbols" stroke="none" stroke-width="1" fill="none" fill-rule="evenodd">
        <g id="ic/advert">
            <g id="Oval" fill-rule="nonzero">
                <use fill="black" fill-opacity="1" filter="url(#filter-2)" xlink:href="#path-1"></use>
                <use fill="#FFFFFF" fill-rule="evenodd" xlink:href="#path-1"></use>
            </g>
            <g id="Page-1" transform="translate(44.000000, 60.500000) scale(-1, 1) translate(-44.000000, -60.500000) translate(5.000000, 31.000000)">
                <g id="Group-3" transform="translate(0.000000, 0.181574)"></g>
                <path d="M56.9482825,29.3193787 L57.5133804,29.0712344 C59.4237773,28.2315299 60.6476536,26.3661622 60.6311691,24.3184234 C60.6311691,22.2603203 59.4072928,20.3899698 57.5135814,19.5570419 L56.9482825,19.3082997 L56.9482825,29.3193787 Z M10.8557103,14.5796055 C6.59928247,14.5796055 3.13652474,18.0131656 3.13652474,22.2338117 L3.13652474,26.3785196 C3.13652474,30.5991656 6.59928247,34.0327258 10.8557103,34.0327258 L18.1406691,34.0327258 L18.1406691,14.5796055 L10.8557103,14.5796055 Z M21.2614732,34.0327258 L26.5204423,34.0327258 C39.9742361,34.0327258 48.429999,38.6308701 53.1542258,42.4881691 L53.8117979,43.0253168 L53.8117979,4.68034089 L53.1920196,5.07597663 C39.9979577,13.4995299 32.0075814,14.5796055 26.5204423,14.5796055 L21.2614732,14.5796055 L21.2614732,34.0327258 Z M28.3697258,57.9823409 C27.7407,57.9823409 27.1599216,57.5950763 26.9243134,57.0190625 L18.6514887,37.1416055 L10.8557103,37.1416055 C4.8698134,37.1416055 4.02061856e-05,32.313255 4.02061856e-05,26.3785196 L4.02061856e-05,22.2338117 C4.02061856e-05,16.2990763 4.8698134,11.4709251 10.8557103,11.4709251 L26.5361227,11.4709251 C32.0765351,11.4709251 40.2590969,10.2214337 54.4747979,0.47763299 C54.7421691,0.295859794 55.0555763,0.199193127 55.3792361,0.199193127 C55.6313289,0.199193127 55.8812103,0.259983505 56.1017412,0.374787629 C56.633267,0.644657045 56.9482825,1.15569485 56.9482825,1.74406598 L56.9482825,16.1422172 L57.2616897,16.2123753 C61.0517258,17.0628426 63.7809216,20.4718873 63.7511691,24.3186227 C63.7511691,28.2215643 61.0750454,31.5566639 57.2435969,32.4320454 L56.9317979,32.5033993 L56.9317979,46.8846089 C56.9317979,47.547523 56.4985763,48.1390832 55.8538701,48.356334 C55.7069165,48.404767 55.5396588,48.430877 55.3722,48.430877 C54.8810814,48.430877 54.4239371,48.1984784 54.1181691,47.7932756 C53.8906021,47.4962997 51.7835969,44.8362722 47.3944887,42.269523 C41.5758495,38.8668564 34.5530351,37.1416055 26.5204423,37.1416055 L22.0432825,37.1416055 L29.8308186,55.8385333 C30.1538753,56.6453512 29.7775454,57.5392687 28.9718134,57.8681347 C28.7667619,57.9446708 28.5717619,57.9823409 28.3697258,57.9823409 Z M68.6881871,25.885121 C67.8191304,25.885121 67.1121046,25.1837395 67.1121046,24.321712 C67.1121046,23.4600832 67.8191304,22.758901 68.6881871,22.758901 L76.3916923,22.758901 C77.2756253,22.758901 77.9677747,23.4455333 77.9677747,24.321712 C77.9677747,25.1837395 77.26095,25.885121 76.3916923,25.885121 L68.6881871,25.885121 Z M67.787468,19.092145 C67.1516072,19.092145 66.564999,18.6937189 66.3275814,18.1003649 C66.0220144,17.3035127 66.4164371,16.4036158 67.2093031,16.0996639 L74.6727773,13.1964749 C74.8597361,13.1231278 75.0537309,13.0860557 75.2505402,13.0860557 C75.8970557,13.0860557 76.4697928,13.4735196 76.7098237,14.0732515 C77.0282567,14.8687086 76.6316227,15.7737876 75.8254887,16.0908942 L68.3646278,18.9918907 C68.1674165,19.0572653 67.9724165,19.092145 67.787468,19.092145 Z M75.2499572,35.5151938 C75.0288232,35.5151938 74.845684,35.4839017 74.6740036,35.4163347 L67.2111325,32.5131457 C66.8211325,32.3600735 66.5137562,32.0656887 66.3466995,31.6850014 C66.1798438,31.3045134 66.1730088,30.8825684 66.3276015,30.4964997 C66.5676325,29.8971663 67.1403696,29.5099017 67.7870861,29.5099017 C67.9838954,29.5099017 68.1776892,29.5469739 68.3630397,29.6199223 L75.827117,32.5221148 C76.2201325,32.6767814 76.528916,32.974156 76.6951686,33.3588296 C76.8574005,33.7339361 76.8628284,34.146912 76.710849,34.5214206 C76.4730294,35.1167677 75.8864211,35.5151938 75.2499572,35.5151938 Z" id="Combined-Shape" fill="url(#linearGradient-3)"></path>
            </g>
        </g>
    </g>
</svg>