<?xml version="1.0" encoding="UTF-8"?>
<svg width="100px" height="100px" viewBox="0 0 100 100" version="1.1" xmlns="http://www.w3.org/2000/svg" xmlns:xlink="http://www.w3.org/1999/xlink">
    <!-- Generator: sketchtool 46.2 (44496) - http://www.bohemiancoding.com/sketch -->
    <title>5220A8B7-81DF-4F8C-9B99-9F825E1DDB15</title>
    <desc>Created with sketchtool.</desc>
    <defs>
        <circle id="path-1" cx="58" cy="45" r="35"></circle>
        <filter x="-37.1%" y="-31.4%" width="174.3%" height="174.3%" filterUnits="objectBoundingBox" id="filter-2">
            <feOffset dx="0" dy="4" in="SourceAlpha" result="shadowOffsetOuter1"></feOffset>
            <feGaussianBlur stdDeviation="8" in="shadowOffsetOuter1" result="shadowBlurOuter1"></feGaussianBlur>
            <feColorMatrix values="0 0 0 0 0.254901961   0 0 0 0 0.458823529   0 0 0 0 0.647058824  0 0 0 0.24 0" type="matrix" in="shadowBlurOuter1"></feColorMatrix>
        </filter>
        <linearGradient x1="0%" y1="0%" x2="149.460671%" y2="71.875%" id="linearGradient-3">
            <stop stop-color="#00EAF8" offset="0%"></stop>
            <stop stop-color="#6D42EF" offset="100%"></stop>
        </linearGradient>
    </defs>
    <g id="Symbols" stroke="none" stroke-width="1" fill="none" fill-rule="evenodd">
        <g id="ic/bussines" fill-rule="nonzero">
            <g id="Oval">
                <use fill="black" fill-opacity="1" filter="url(#filter-2)" xlink:href="#path-1"></use>
                <use fill="#FFFFFF" fill-rule="evenodd" xlink:href="#path-1"></use>
            </g>
            <g id="colored_portfolio-55" transform="translate(10.000000, 28.000000)" fill="url(#linearGradient-3)">
                <path d="M57.5,41.5 L66,41.5 C66.4142136,41.5 66.7892136,41.6678932 67.0606602,41.9393398 C67.3321068,42.2107864 67.5,42.5857864 67.5,43 L67.5,55.952494 C67.5874734,57.4479711 67.031793,58.9107311 65.9712621,59.9712621 C64.9107311,61.031793 63.4479711,61.5874734 61.952494,61.5 L6.06942923,61.5 C4.55785611,61.6291013 3.06444567,61.0849779 1.98973389,60.0102661 C0.915022109,58.9355543 0.370898741,57.4421439 0.5,55.9305708 L0.5,43 C0.5,42.5857864 0.667893219,42.2107864 0.939339828,41.9393398 C1.21078644,41.6678932 1.58578644,41.5 2,41.5 L10.5,41.5 L10.5,15.5 L6,15.5 C4.20817981,15.5 3.5,16.2503982 3.5,17.9 L3.5,35 C3.5,35.8284271 2.82842712,36.5 2,36.5 C1.17157288,36.5 0.5,35.8284271 0.5,35 L0.5,17.9 C0.5,14.6311402 2.51123943,12.5 6,12.5 L61.9417768,12.5 C63.4451938,12.3922763 64.9228405,12.9423555 65.9902425,14.0097575 C67.0576445,15.0771595 67.6077237,16.5548062 67.5,18.0582232 L67.5,35 C67.5,35.8284271 66.8284271,36.5 66,36.5 C65.1715729,36.5 64.5,35.8284271 64.5,35 L64.5,18 L64.5053867,17.8729917 C64.5602871,17.2269334 64.3274008,16.5895565 63.8689221,16.1310779 C63.4104435,15.6725992 62.7730666,15.4397129 62,15.5 L57.5,15.5 L57.5,41.5 Z M54.5,41.5 L54.5,15.5 L13.5,15.5 L13.5,41.5 L19,41.5 C19.8284271,41.5 20.5,42.1715729 20.5,43 C20.5,43.8284271 19.8284271,44.5 19,44.5 L13.5,44.5 L13.5,52 C13.5,52.8284271 12.8284271,53.5 12,53.5 C11.1715729,53.5 10.5,52.8284271 10.5,52 L10.5,44.5 L3.5,44.5 L3.5,56 L3.49232896,56.1515067 C3.42708091,56.794195 3.65426892,57.4321605 4.11105423,57.8889458 C4.56783954,58.3457311 5.20580499,58.5729191 6,58.5 L62.1035806,58.5035806 C62.7528377,58.5485215 63.3897491,58.3101343 63.8499417,57.8499417 C64.3101343,57.3897491 64.5485215,56.7528377 64.5035806,56.1035806 L64.5,56 L64.5,44.5 L57.5,44.5 L57.5,52 C57.5,52.8284271 56.8284271,53.5 56,53.5 C55.1715729,53.5 54.5,52.8284271 54.5,52 L54.5,44.5 L49,44.5 C48.1715729,44.5 47.5,43.8284271 47.5,43 C47.5,42.1715729 48.1715729,41.5 49,41.5 L54.5,41.5 Z M41,41.5 C41.8284271,41.5 42.5,42.1715729 42.5,43 C42.5,43.8284271 41.8284271,44.5 41,44.5 L27,44.5 C26.1715729,44.5 25.5,43.8284271 25.5,43 C25.5,42.1715729 26.1715729,41.5 27,41.5 L41,41.5 Z M35.9962067,31.5953718 C34.5613288,32.4237989 32.7265576,31.9321735 31.8981305,30.4972956 C31.0697033,29.0624177 31.5613288,27.2276465 32.9962067,26.3992194 C34.4310846,25.5707923 36.2658558,26.0624177 37.0942829,27.4972956 C37.92271,28.9321735 37.4310846,30.7669447 35.9962067,31.5953718 Z M22.6698828,6.01875 C22.6595275,6.8471124 21.9796124,7.51023814 21.15125,7.49988281 C20.3228876,7.48952747 19.6597619,6.80961241 19.6701172,5.98125 C19.7077537,2.97056635 22.1591983,0.549764767 25.17,0.55 L45.17,0.55 C48.2075661,0.55 50.67,3.01243388 50.67,6.05 C50.67,6.87842712 49.9984271,7.55 49.17,7.55 C48.3415729,7.55 47.67,6.87842712 47.67,6.05 C47.67,4.66928813 46.5507119,3.55 45.17,3.55 L25.1698828,3.55 C23.8012833,3.54989307 22.6869903,4.65025743 22.6698828,6.01875 Z" id="Combined-Shape"></path>
            </g>
        </g>
    </g>
</svg>