<?xml version="1.0" encoding="UTF-8"?>
<svg width="86px" height="86px" viewBox="0 0 86 86" version="1.1" xmlns="http://www.w3.org/2000/svg" xmlns:xlink="http://www.w3.org/1999/xlink">
    <!-- Generator: Sketch 46.2 (44496) - http://www.bohemiancoding.com/sketch -->
    <title>ic/cohorts1</title>
    <desc>Created with Sketch.</desc>
    <defs>
        <linearGradient x1="0%" y1="0%" x2="149.460671%" y2="71.875%" id="linearGradient-1">
            <stop stop-color="#00EAF8" offset="0%"></stop>
            <stop stop-color="#6D42EF" offset="100%"></stop>
        </linearGradient>
    </defs>
    <g id="Page-1" stroke="none" stroke-width="1" fill="none" fill-rule="evenodd">
        <g id="Temp-Screen" transform="translate(-337.000000, -806.000000)">
            <g id="2" transform="translate(337.000000, 806.000000)">
                <g id="ic/cohorts1">
                    <circle id="Oval-4-Copy" fill="#FFFFFF" cx="43" cy="43" r="43"></circle>
                    <path d="M47,35 L53,35 L53,30 L47,30 L47,35 Z M45,37 L45,28 L55,28 L55,37 L45,37 Z M33,35 L39,35 L39,30 L33,30 L33,35 Z M31,37 L31,28 L41,28 L41,37 L31,37 Z M47.0736171,41 L47.0736171,45.7139456 C47.0736171,48.0261889 45.2471859,49.9046485 43.0013006,49.9046485 C40.7531004,49.9046485 38.9266693,48.0261889 38.9266693,45.7139456 L38.9266693,41 L33.0001432,41 L33.0001432,45.7139456 C33.0001432,51.3855128 37.4863581,56 43.0013006,56 C48.5148542,56 53.0001432,51.3855128 53.0001432,45.7139456 L53.0001432,41 L47.0736171,41 Z M45.0736171,39 L55.0001432,39 L55.0001432,45.7139456 C55.0001432,52.4777192 49.6321879,58 43.0013006,58 C36.3691665,58 31.0001432,52.4778561 31.0001432,45.7139456 L31.0001432,39 L40.9266693,39 L40.9266693,45.7139456 C40.9266693,46.9339961 41.8704372,47.9046485 43.0013006,47.9046485 C44.1300264,47.9046485 45.0736171,46.9337975 45.0736171,45.7139456 L45.0736171,39 Z" id="Combined-Shape" fill="url(#linearGradient-1)" fill-rule="nonzero"></path>
                </g>
            </g>
        </g>
    </g>
</svg>