<?xml version="1.0" encoding="UTF-8"?>
<svg width="100px" height="100px" viewBox="0 0 100 100" version="1.1" xmlns="http://www.w3.org/2000/svg" xmlns:xlink="http://www.w3.org/1999/xlink">
    <!-- Generator: sketchtool 46.2 (44496) - http://www.bohemiancoding.com/sketch -->
    <title>0DE3CCC1-6545-41DA-B897-4E26E7DED961</title>
    <desc>Created with sketchtool.</desc>
    <defs>
        <circle id="path-1" cx="58" cy="45" r="35"></circle>
        <filter x="-37.1%" y="-31.4%" width="174.3%" height="174.3%" filterUnits="objectBoundingBox" id="filter-2">
            <feOffset dx="0" dy="4" in="SourceAlpha" result="shadowOffsetOuter1"></feOffset>
            <feGaussianBlur stdDeviation="8" in="shadowOffsetOuter1" result="shadowBlurOuter1"></feGaussianBlur>
            <feColorMatrix values="0 0 0 0 0.254901961   0 0 0 0 0.458823529   0 0 0 0 0.647058824  0 0 0 0.24 0" type="matrix" in="shadowBlurOuter1"></feColorMatrix>
        </filter>
        <linearGradient x1="0%" y1="0%" x2="149.460671%" y2="71.875%" id="linearGradient-3">
            <stop stop-color="#00EAF8" offset="0%"></stop>
            <stop stop-color="#6D42EF" offset="100%"></stop>
        </linearGradient>
    </defs>
    <g id="Symbols" stroke="none" stroke-width="1" fill="none" fill-rule="evenodd">
        <g id="ic/flexible" fill-rule="nonzero">
            <g id="Oval">
                <use fill="black" fill-opacity="1" filter="url(#filter-2)" xlink:href="#path-1"></use>
                <use fill="#FFFFFF" fill-rule="evenodd" xlink:href="#path-1"></use>
            </g>
            <g id="colored_ripple-86" transform="translate(12.000000, 23.000000)" fill="url(#linearGradient-3)">
                <path d="M25.1676353,39.4657916 L25.253411,39.3156841 C26.3111577,37.0248364 28.546285,35.5001587 31.0695749,35.3546895 C33.618849,35.2077224 36.0377225,36.4929899 37.342649,38.6878852 C38.6475754,40.8827804 38.6212464,43.6217891 37.2998393,45.7486105 C35.7994053,48.353868 35.421002,51.4566672 36.2513196,54.3461725 C37.0816372,57.2356779 39.0495173,59.6642577 41.7268502,61.0878686 C44.6013952,62.680212 48.00974,63.001754 51.1313615,61.9750867 C51.9183194,61.7162648 52.7660914,62.1444036 53.0249133,62.9313615 C53.2837352,63.7183194 52.8555964,64.5660914 52.0686385,64.8249133 C48.1533844,66.1125978 43.8785113,65.7093078 40.2958716,63.7244633 C36.923151,61.9314137 34.4229318,58.8458691 33.3680017,55.1747122 C32.3130715,51.5035552 32.7938383,47.5614054 34.7256324,44.2088065 C35.4817749,42.9908952 35.4965561,41.4532061 34.7639658,40.2209843 C34.0313755,38.9887624 32.6734114,38.2672087 31.24224,38.3497166 C29.8110685,38.4322244 28.5450216,39.3050539 27.9588908,40.6133009 L27.8923647,40.7442084 L27.7696295,40.9589748 C23.8600349,47.7429473 15.0874231,49.7645068 7.97996243,45.8158822 C5.05755078,44.2167677 2.78306374,41.6500723 1.54706524,38.5565364 C1.23969868,37.7872398 1.61416699,36.9144318 2.38346362,36.6070652 C3.15276025,36.2996987 4.02556821,36.674167 4.33293476,37.4434636 C5.31035618,39.8898163 7.10900911,41.9195462 9.4284644,43.1887641 C15.1607764,46.3733819 22.1096085,44.772094 25.1676353,39.4657916 Z M59.7817829,58.7791229 C59.3514852,59.4870321 58.4287862,59.7120806 57.7208771,59.2817829 C57.0129679,58.8514852 56.7879194,57.9287862 57.2182171,57.2208771 L57.5084993,56.7442816 C59.0068246,54.129258 59.383781,51.0193965 58.5536185,48.1221294 C57.723456,45.2248622 55.7567605,42.7865343 53.0849738,41.3531402 C51.3129761,40.3747642 49.3182812,39.8707448 47.3162107,39.8895629 C43.4753702,39.9823096 40.2816812,36.9537133 40.170094,33.0867895 C40.1496389,31.2594144 40.8560021,29.49877 42.1337684,28.1922359 C43.4115348,26.8857019 45.1560188,26.1403205 46.9935909,26.1200137 C49.0606473,26.1111816 51.0892474,25.5604305 52.8877381,24.5165249 C55.503499,23.0269839 57.4066178,20.543936 58.1651589,17.6309388 C58.9237001,14.7179416 58.4733312,11.6220483 56.9256369,9.06120081 C53.5782738,3.66970479 46.5523427,1.91420383 41.0520855,5.10357549 C38.4362179,6.59270869 36.5335435,9.07620104 35.7765845,11.9894972 C35.0196255,14.9027933 35.472694,17.9983761 37.0341354,20.5747604 C37.981641,22.1442437 38.2573622,24.0291072 37.7991112,25.8042271 C37.3408601,27.579347 36.1872312,29.0952206 34.6029578,30.0073259 C31.5336024,31.7887557 27.3940489,30.6668207 25.2924719,27.9540067 C25.1706348,27.8061776 24.9424312,27.5379802 24.6341731,27.1902485 C24.1193944,26.6095506 23.5760011,26.0292058 23.0320007,25.4911758 C22.6459455,25.1093576 22.2740856,24.7635532 21.9233247,24.4627983 C21.4219243,24.0328796 20.9787828,23.7085775 20.6162798,23.5083022 C15.1006971,20.4150607 8.12399112,22.3049134 4.94322013,27.7248813 C4.48446811,28.5559724 4.13553329,29.4430948 3.90516079,30.3640152 C3.70412074,31.1676783 2.8896479,31.6562008 2.08598479,31.4551608 C1.28232168,31.2541207 0.79379916,30.4396479 0.994839209,29.6359848 C1.28821239,28.4632174 1.7325715,27.3334909 2.33626028,26.2408969 C6.36345002,19.3773558 15.1429224,16.9991692 22.0752771,20.8869984 C22.6345308,21.1959195 23.2325136,21.6335383 23.8760836,22.1853583 C24.2848664,22.5358633 24.7078499,22.9292091 25.141584,23.358183 C25.7367891,23.9468557 26.3237141,24.5736925 26.8790811,25.2001761 C27.0733313,25.4193007 27.2500863,25.6230972 27.4062488,25.806628 C27.5013727,25.9184229 27.5695133,25.9998687 27.6356226,26.0811425 C28.895963,27.7073881 31.413591,28.3897359 33.1015789,27.4100516 C33.991499,26.8976967 34.6376665,26.0486296 34.8943408,25.0543543 C35.1510152,24.0600789 34.9965789,23.0043343 34.467203,22.1274522 C32.4873414,18.8606782 31.9123711,14.9322032 32.8729962,11.2350605 C33.8336213,7.53791791 36.2482259,4.38622134 39.5575504,2.50237925 C46.4503122,-1.49451728 55.2716261,0.70957847 59.4837311,7.49409119 C61.4593585,10.7627412 62.0307943,14.690864 61.0683442,18.386925 C60.1058942,22.0829859 57.6911843,25.2335198 54.3830307,27.1172836 C52.1415722,28.4183769 49.5980991,29.1089126 47.0166036,29.1199081 C45.9848912,29.1313289 44.9999793,29.552161 44.2785698,30.2898123 C43.5571604,31.0274636 43.1583574,32.0214995 43.1693732,33.0266415 C43.2326965,35.216414 45.0537398,36.9433214 47.2657809,36.8900674 C49.8066248,36.8659806 52.3106034,37.4986858 54.5190836,38.7181829 C57.8888643,40.5258886 60.3842414,43.619681 61.4375659,47.2957834 C62.4908904,50.9718859 62.0126015,54.9177315 60.0917829,58.2691229 L59.7817829,58.7791229 Z" id="Combined-Shape"></path>
            </g>
        </g>
    </g>
</svg>