<?xml version="1.0" encoding="UTF-8"?>
<svg width="100px" height="100px" viewBox="0 0 100 100" version="1.1" xmlns="http://www.w3.org/2000/svg" xmlns:xlink="http://www.w3.org/1999/xlink">
    <!-- Generator: sketchtool 46.2 (44496) - http://www.bohemiancoding.com/sketch -->
    <title>0604419A-C8AF-4585-B671-F674003102FE</title>
    <desc>Created with sketchtool.</desc>
    <defs>
        <circle id="path-1" cx="58" cy="45" r="35"></circle>
        <filter x="-37.1%" y="-31.4%" width="174.3%" height="174.3%" filterUnits="objectBoundingBox" id="filter-2">
            <feOffset dx="0" dy="4" in="SourceAlpha" result="shadowOffsetOuter1"></feOffset>
            <feGaussianBlur stdDeviation="8" in="shadowOffsetOuter1" result="shadowBlurOuter1"></feGaussianBlur>
            <feColorMatrix values="0 0 0 0 0.254901961   0 0 0 0 0.458823529   0 0 0 0 0.647058824  0 0 0 0.24 0" type="matrix" in="shadowBlurOuter1"></feColorMatrix>
        </filter>
        <linearGradient x1="0%" y1="0%" x2="149.460671%" y2="71.875%" id="linearGradient-3">
            <stop stop-color="#00EAF8" offset="0%"></stop>
            <stop stop-color="#6D42EF" offset="100%"></stop>
        </linearGradient>
    </defs>
    <g id="Symbols" stroke="none" stroke-width="1" fill="none" fill-rule="evenodd">
        <g id="ic/game">
            <g id="Oval" fill-rule="nonzero">
                <use fill="black" fill-opacity="1" filter="url(#filter-2)" xlink:href="#path-1"></use>
                <use fill="#FFFFFF" fill-rule="evenodd" xlink:href="#path-1"></use>
            </g>
            <g id="Page-1" transform="translate(10.000000, 31.000000)" fill="url(#linearGradient-3)">
                <g id="Group">
                    <path d="M67.2918031,31.0214893 C66.4682309,32.6634819 65.0758266,33.9237919 63.3714105,34.570493 C61.6667172,35.2163528 59.7978363,35.1927956 58.1096449,34.5034672 C56.4215922,33.814279 55.0608051,32.5194745 54.2766156,30.8550465 L51.2390082,24.4413196 C50.9045316,23.7350244 50.1882914,23.3073491 49.4140863,23.3468915 C48.6430707,23.3881166 47.9782777,23.889969 47.7206254,24.6250096 C47.114768,26.3545004 45.4874535,27.5163749 43.6715453,27.5163749 C41.6230844,27.5163749 39.8507191,26.0440502 39.4575844,24.0154672 C39.2823031,23.1114598 38.4949242,22.4552236 37.5852367,22.4552236 L33.4783305,22.4552236 C32.568643,22.4552236 31.7812641,23.1114598 31.6059828,24.0157476 C31.212848,26.0441904 29.4397895,27.5166554 27.3902191,27.5166554 C25.5748656,27.5166554 23.9478285,26.3550613 23.3414164,24.6261314 C23.0836254,23.8908103 22.4185551,23.3893786 21.6471234,23.3482937 C20.8740277,23.3063675 20.1565395,23.7374081 19.8226176,24.4442642 L16.7918051,30.8577107 C15.2130258,34.208862 10.6512758,35.9438214 7.02916641,34.5706332 C3.71712734,33.3141092 2.16857852,29.6776074 3.26297695,25.7271498 L7.79186172,9.37410923 C8.4561,6.97421993 10.0319672,5.0314524 12.2295004,3.90379188 C13.4742191,3.26494317 14.810184,2.94313506 16.1537758,2.94313506 C17.1824437,2.94313506 18.2161039,3.13173284 19.2166215,3.51089151 C20.880684,4.14244871 22.2920863,5.25061845 23.2980121,6.71579188 C23.845766,7.513231 24.7499066,7.98928266 25.7164496,7.98928266 L45.3533578,7.98928266 C46.3197621,7.98928266 47.2234867,7.51365166 47.7709633,6.71677343 C48.7785531,5.25089889 50.1906488,4.14230849 51.854018,3.51103173 C54.1613793,2.63633063 56.6429125,2.7757107 58.8411391,3.90365166 C61.0388109,5.0314524 62.6149555,6.97421993 63.2791938,9.37424945 L67.8079398,25.7267292 C68.2988383,27.4996886 68.1152367,29.3799173 67.2918031,31.0214893 M70.6218695,24.930552 C71.3099594,27.417659 71.052723,30.0552236 69.897725,32.3580797 C68.7424496,34.6613565 66.7891176,36.4294081 64.3975824,37.3367808 C62.0054926,38.2434524 59.3841781,38.2102199 57.0158012,37.2431129 C54.6477016,36.2762863 52.7387445,34.4598583 51.6404633,32.1285373 L49.4620668,27.5291351 C48.1233285,29.3443011 45.988891,30.4709801 43.671684,30.4709801 C40.5141254,30.4709801 37.7470668,28.3875705 36.8009086,25.4096886 L34.2627973,25.4096886 C33.3165004,28.3875705 30.5487484,30.4709801 27.3903578,30.4709801 C25.0746762,30.4709801 22.940932,29.3455631 21.6019164,27.531659 L19.4290668,32.1300797 C17.722848,35.7518583 13.7239672,37.9989063 9.67974062,37.9990465 C8.43654727,37.9990465 7.18960977,37.7867513 6.0031332,37.336921 C1.28898281,35.5482568 -1.04652891,30.3307587 0.449601953,24.930552 L4.97834805,8.57765166 C5.85267422,5.41818303 8.01373672,2.75439705 10.9071254,1.2694524 C13.8007914,-0.215772694 17.2036605,-0.406614022 20.242516,0.744743911 C22.4658422,1.58845609 24.352057,3.07059631 25.6981449,5.03103173 L25.6980062,5.03089151 C25.6985609,5.03089151 25.7048012,5.03523838 25.7165883,5.03523838 L45.3536352,5.03523838 C45.3666703,5.03523838 45.3730492,5.03005018 45.3730492,5.03005018 C46.7195531,3.07031587 48.6063227,1.58831587 50.8281234,0.745164576 C53.8668402,-0.407174908 57.2695707,-0.215772694 60.1635141,1.26931218 C63.0574574,2.75439705 65.2186586,5.41818303 66.0929848,8.5779321 L70.6218695,24.930552 Z M55,7 C53.895417,7 53,7.89545062 53,9.00007513 C53,10.1045494 53.895417,11 55,11 C56.104583,11 57,10.1045494 57,9.00007513 C57,7.89545062 56.104583,7 55,7 Z M55,16 C53.8953497,16 53,16.8953497 53,18 C53,19.1045 53.8953497,20 55,20 C56.1046503,20 57,19.1045 57,18 C57,16.8953497 56.1046503,16 55,16 Z M49.9999977,12.0000198 C48.8953474,12.0000198 47.9999977,12.8953696 47.9999977,14.0000198 C47.9999977,15.1045199 48.8953474,16.0000198 49.9999977,16.0000198 C51.104648,16.0000198 51.9999977,15.1045199 51.9999977,14.0000198 C51.9999977,12.8953696 51.104648,12.0000198 49.9999977,12.0000198 Z M59.9999249,12 C58.8954663,12 58,12.8953497 58,14 C58,15.1045 58.8954663,16 59.9999249,16 C61.1045337,16 62,15.1045 62,14 C62,12.8953497 61.1045337,12 59.9999249,12 Z M20.5413363,12.0413363 L17.9586637,12.0413363 L17.9586637,9.45866375 C17.9586637,8.65297183 17.3055535,8 16.5,8 C15.6944465,8 15.0413363,8.65297183 15.0413363,9.45866375 L15.0413363,12.0413363 L12.4586637,12.0413363 C11.6531103,12.0413363 11,12.6943081 11,13.5 C11,14.3055535 11.6531103,14.9585253 12.4586637,14.9585253 L15.0413363,14.9585253 L15.0413363,17.5413363 C15.0413363,18.3468897 15.6944465,19 16.5,19 C17.3055535,19 17.9586637,18.3468897 17.9586637,17.5413363 L17.9586637,14.9585253 L20.5413363,14.9585253 C21.3468897,14.9585253 22,14.3055535 22,13.5 C22,12.6943081 21.3468897,12.0413363 20.5413363,12.0413363 Z M32.383905,13 L30.616095,13 C29.7235994,13 29,13.6715079 29,14.5000712 C29,15.3284921 29.7235994,16 30.616095,16 L32.383905,16 C33.2764006,16 34,15.3284921 34,14.5000712 C34,13.6715079 33.2764006,13 32.383905,13 Z M42,14.5 C42,13.6716184 41.2764006,13 40.383905,13 L38.616095,13 C37.7235994,13 37,13.6716184 37,14.5 C37,15.3283816 37.7235994,16 38.616095,16 L40.383905,16 C41.2764006,16 42,15.3283816 42,14.5 Z" id="Combined-Shape"></path>
                </g>
            </g>
        </g>
    </g>
</svg>