<?xml version="1.0" encoding="UTF-8"?>
<svg width="3404px" height="198px" viewBox="0 0 3404 198" version="1.1" xmlns="http://www.w3.org/2000/svg" xmlns:xlink="http://www.w3.org/1999/xlink">
    <!-- Generator: Sketch 40.1 (33804) - http://www.bohemiancoding.com/sketch -->
    <title>Untitled</title>
    <desc>Created with Sketch.</desc>
    <defs>
        <polyline id="path-1" points="92.8252611 154.222656 183.623404 162.0625 265.270896 128.277344 353.976174 138.632812 443.280333 144.5 527.941551 125.878906 618.533627 169.679688 703.033856 172.585938 791.281923 129.527344 877.501521 116.71875 964.152571 180.949219 1055.02799 146.648438 1140.31385 168.558594 1226.5592 154.738281 1317.03537 184.691406 1406.6615 171.441406 1489.37153 130.929688 1576.44759 53.3203125 1666.19608 32.4882812 1753.52973 133.777344 1841.80355 157.996094 1925.94316 142.980469 2014.93178 175.960938 2097.26187 139.804688 2189.53468 155.015625 2275.07168 74.5 2360.25451 0 2446.39039 110.109375 2541.29055 80.640625 2696.68416 143.871094 2757.45452 112.441406 2825.70124 159.785156 2907.14911 125.847656 2973.54122 151.257812 3097.72217 101.214844 3223.24255 74.625 3304.29117 111.300781 3417.71157 200.125 0.0244077329 203.125"></polyline>
    </defs>
    <g id="Page-1" stroke="none" stroke-width="1" fill="none" fill-rule="evenodd">
        <g id="Untitled" transform="translate(-11.000000, 0.000000)">
            <mask id="mask-2" fill="white">
                <use xlink:href="#path-1"></use>
            </mask>
            <use id="Mask" fill="#EDF2F5" xlink:href="#path-1"></use>
        </g>
    </g>
</svg>