<?xml version="1.0" encoding="UTF-8"?>
<svg width="2065px" height="198px" viewBox="0 0 2065 198" version="1.1" xmlns="http://www.w3.org/2000/svg" xmlns:xlink="http://www.w3.org/1999/xlink">
    <!-- Generator: Sketch 40.1 (33804) - http://www.bohemiancoding.com/sketch -->
    <title>Untitled</title>
    <desc>Created with Sketch.</desc>
    <defs></defs>
    <g id="Page-1" stroke="none" stroke-width="1" fill="none" fill-rule="evenodd">
        <polyline id="Path" fill="#EDF2F5" points="49.1289062 154.222656 104.207031 162.0625 153.734375 128.277344 207.542969 138.632812 261.714844 144.5 313.070312 125.878906 368.023437 169.679688 419.28125 172.585938 472.8125 129.527344 525.113281 116.71875 577.675781 180.949219 632.800781 146.648438 684.535156 168.558594 736.851562 154.738281 791.734375 184.691406 846.101562 171.441406 896.273438 130.929688 949.09375 53.3203125 1003.53516 32.4882812 1056.51172 133.777344 1110.05859 157.996094 1161.09766 142.980469 1215.07813 175.960938 1265.01953 139.804688 1320.99219 155.015625 1372.87891 74.5 1424.55078 0 1476.80078 110.109375 1534.36719 80.640625 1628.62891 143.871094 1665.49219 112.441406 1706.89062 159.785156 1756.29687 125.847656 1796.57031 151.257812 1871.89844 101.214844 1948.03906 74.625 1997.20312 111.300781 2066.00391 200.125 -7.1640625 203.125"></polyline>
    </g>
</svg>