<?xml version="1.0" encoding="UTF-8"?>
<svg width="349px" height="301px" viewBox="0 0 349 301" version="1.1" xmlns="http://www.w3.org/2000/svg" xmlns:xlink="http://www.w3.org/1999/xlink">
    <!-- Generator: sketchtool 46.2 (44496) - http://www.bohemiancoding.com/sketch -->
    <title>3ECC52EF-7E7A-427C-837B-19048034145B</title>
    <desc>Created with sketchtool.</desc>
    <defs>
        <path d="M263.212932,141.798392 C263.212932,77.1122573 210.445387,24.6673785 145.351702,24.6673785 C80.258016,24.6673785 27.4904719,77.1122573 27.4904719,141.798392 C27.4904719,181.818865 47.6983155,217.1328 78.5093839,238.258976 L212.189734,238.258976 C243.005088,217.1328 263.212932,181.818865 263.212932,141.798392" id="path-1"></path>
        <filter x="-11.0%" y="-10.3%" width="122.1%" height="124.3%" filterUnits="objectBoundingBox" id="filter-2">
            <feOffset dx="0" dy="4" in="SourceAlpha" result="shadowOffsetOuter1"></feOffset>
            <feGaussianBlur stdDeviation="8" in="shadowOffsetOuter1" result="shadowBlurOuter1"></feGaussianBlur>
            <feColorMatrix values="0 0 0 0 0.254901961   0 0 0 0 0.458823529   0 0 0 0 0.647058824  0 0 0 0.24 0" type="matrix" in="shadowBlurOuter1"></feColorMatrix>
        </filter>
        <polygon id="path-3" points="243.359207 0.111624194 0.0156548822 0.111624194 0.0156548822 158.717242 243.359207 158.717242 243.359207 0.111624194"></polygon>
    </defs>
    <g id="Page-1" stroke="none" stroke-width="1" fill="none" fill-rule="evenodd">
        <g id="Home-Page-10/04/2017-screen-Install-Rakam" transform="translate(-127.000000, -1867.000000)">
            <g id="Products" transform="translate(0.000000, 1323.000000)">
                <g id="UI" transform="translate(127.000000, 544.000000)">
                    <g id="Icon2_Rakam_UI">
                        <g id="Group-10" transform="translate(58.000000, 0.000000)">
                            <g id="Group-25">
                                <path d="M290.4346,144.185451 C290.4346,64.5591667 225.479667,0.00142361111 145.351702,0.00142361111 C65.2237362,0.00142361111 0.268803897,64.5591667 0.268803897,144.185451 C0.268803897,193.449201 25.1439262,236.919375 63.0712336,262.924931 L227.626894,262.924931 C265.559477,236.919375 290.4346,193.449201 290.4346,144.185451" id="Fill-613" fill="#FFFFFF"></path>
                                <g id="Fill-613">
                                    <use fill="black" fill-opacity="1" filter="url(#filter-2)" xlink:href="#path-1"></use>
                                    <use fill="#FFFFFF" fill-rule="evenodd" xlink:href="#path-1"></use>
                                </g>
                                <path d="M239.22825,266.862465 L51.4698775,266.862465 C49.2857204,266.862465 47.5130712,265.100799 47.5130712,262.930174 C47.5130712,260.754306 49.2857204,258.997882 51.4698775,258.997882 L239.22825,258.997882 C241.412407,258.997882 243.185057,260.754306 243.185057,262.930174 C243.185057,265.100799 241.412407,266.862465 239.22825,266.862465" id="Fill-614" fill="#EEEEEE"></path>
                                <path d="M206.676924,283.82375 L84.0159283,283.82375 C81.8317712,283.82375 80.059122,282.062083 80.059122,279.891458 C80.059122,277.720833 81.8317712,275.959167 84.0159283,275.959167 L206.676924,275.959167 C208.861081,275.959167 210.63373,277.720833 210.63373,279.891458 C210.63373,282.062083 208.861081,283.82375 206.676924,283.82375" id="Fill-615" fill="#EEEEEE" opacity="0.800000012"></path>
                                <path d="M147.008285,300.785035 L122.354743,300.785035 C120.170586,300.785035 118.397937,299.023368 118.397937,296.852743 C118.397937,294.682118 120.170586,292.920451 122.354743,292.920451 L147.008285,292.920451 C149.192442,292.920451 150.965091,294.682118 150.965091,296.852743 C150.965091,299.023368 149.192442,300.785035 147.008285,300.785035" id="Fill-616" fill="#EFEFEF" opacity="0.601449275"></path>
                                <path d="M168.638826,300.785035 L162.0547,300.785035 C159.870543,300.785035 158.097894,299.023368 158.097894,296.852743 C158.097894,294.682118 159.870543,292.920451 162.0547,292.920451 L168.638826,292.920451 C170.822983,292.920451 172.595632,294.682118 172.595632,296.852743 C172.595632,299.023368 170.822983,300.785035 168.638826,300.785035" id="Fill-617" fill="#EFEFEF" opacity="0.601449275"></path>
                            </g>
                        </g>
                        <g id="Page-1" transform="translate(0.000000, 81.000000)">
                            <g id="Group-3" transform="translate(47.794613, 0.173860)">
                                <mask id="mask-4" fill="white">
                                    <use xlink:href="#path-3"></use>
                                </mask>
                                <g id="Clip-2"></g>
                                <path d="M243.359207,147.684432 C243.359207,153.778371 238.404594,158.717242 232.296042,158.717242 L11.0773889,158.717242 C4.96683333,158.717242 0.0156548822,153.778371 0.0156548822,147.684432 L0.0156548822,11.1440627 C0.0156548822,5.050695 4.96683333,0.111538548 11.0773889,0.111538548 L232.296042,0.111538548 C238.404594,0.111538548 243.359207,5.050695 243.359207,11.1440627 L243.359207,147.684432 Z" id="Fill-1" fill="#EFEFEF" mask="url(#mask-4)"></path>
                            </g>
                            <polygon id="Fill-4" fill="#646782" points="58.6831987 147.814984 281.220067 147.814984 281.220067 10.7481823 58.6831987 10.7481823"></polygon>
                            <path d="M0.222888889,158.088321 C0.0809360269,159.065247 -5.72390572e-05,160.073576 -5.72390572e-05,161.103887 C-5.72390572e-05,169.823992 5.3037138,176.888576 11.8429899,176.888576 L328.061593,176.888576 C334.600869,176.888576 339.901205,169.823992 339.901205,161.103887 C339.901205,160.073576 339.82336,159.065247 339.679976,158.088321 L0.222888889,158.088321 Z" id="Fill-6" fill="#FFFEFE"></path>
                            <path d="M1.01859764,167.490047 C2.85940572,173.023295 7.00866498,176.888461 11.8427896,176.888461 L328.061678,176.888461 C332.89752,176.888461 337.046493,173.023295 338.887874,167.490047 L1.01859764,167.490047 Z" id="Fill-7" fill="#E0E0E0"></path>
                            <path d="M173.189933,5.46987097 C173.189933,7.25328871 171.740926,8.70354677 169.951633,8.70354677 C168.16234,8.70354677 166.71133,7.25328871 166.71133,5.46987097 C166.71133,3.68673871 168.16234,2.23962097 169.951633,2.23962097 C171.740926,2.23962097 173.189933,3.68673871 173.189933,5.46987097" id="Fill-8" fill="#646782"></path>
                            <polygon id="Fill-9" fill="#FFFFFF" points="79.4023064 138.078842 140.770303 138.078842 140.770303 136.450727 79.4023064 136.450727"></polygon>
                            <path d="M84.8989731,119.747066 L84.8989731,119.747066 C85.7801684,119.747066 86.5088215,120.395685 86.5088215,121.178482 L86.5088215,136.026784 L83.2871212,136.026784 L83.2871212,121.178482 C83.2871212,120.395685 84.0046128,119.747066 84.8989731,119.747066" id="Fill-10" fill="#FFFFFF"></path>
                            <path d="M91.1371145,117.983432 L91.1371145,117.983432 C92.0183098,117.983432 92.7486801,118.704279 92.7486801,119.570723 L92.7486801,136.02687 L89.527266,136.02687 L89.527266,119.570723 C89.527266,118.704279 90.2444714,117.983432 91.1371145,117.983432" id="Fill-11" fill="#FFFFFF"></path>
                            <path d="M97.3752845,119.808388 L97.3752845,119.808388 C98.2584832,119.808388 98.9888535,120.457007 98.9888535,121.241517 L98.9888535,136.149485 L95.765436,136.149485 L95.765436,121.241517 C95.765436,120.457007 96.4826414,119.808388 97.3752845,119.808388" id="Fill-12" fill="#FFFFFF"></path>
                            <path d="M104.125744,111.353726 L104.125744,111.353726 C105.006939,111.353726 105.737596,112.333221 105.737596,113.528257 L105.737596,136.149428 L102.513892,136.149428 L102.513892,113.528257 C102.513892,112.333221 103.233387,111.353726 104.125744,111.353726" id="Fill-13" fill="#FFFFFF"></path>
                            <path d="M110.665764,120.531576 L110.665764,120.531576 C111.558121,120.531576 112.277616,121.148506 112.277616,121.910463 L112.277616,136.149542 L109.053912,136.149542 L109.053912,121.910463 C109.053912,121.148506 109.784569,120.531576 110.665764,120.531576" id="Fill-14" fill="#FFFFFF"></path>
                            <path d="M117.310017,126.809994 L117.323182,126.809994 C118.204377,126.809994 118.921869,127.179696 118.921869,127.63333 L118.921869,136.149599 L115.709613,136.149599 L115.709613,127.63333 C115.709613,127.179696 116.428822,126.809994 117.310017,126.809994" id="Fill-15" fill="#FFFFFF"></path>
                            <path d="M124.165024,111.435403 L124.165024,111.435403 C125.055663,111.435403 125.774872,112.414898 125.774872,113.611932 L125.774872,136.149456 L122.562616,136.149456 L122.562616,113.611932 C122.562616,112.414898 123.281825,111.435403 124.165024,111.435403" id="Fill-16" fill="#FFFFFF"></path>
                            <path d="M130.101343,113.074709 L130.101343,113.074709 C130.982539,113.074709 131.714912,113.992825 131.714912,115.106212 L131.714912,136.149513 L128.489492,136.149513 L128.489492,115.106212 C128.489492,113.992825 129.221865,113.074709 130.101343,113.074709" id="Fill-17" fill="#FFFFFF"></path>
                            <path d="M135.51779,107.353897 L135.51779,107.353897 C136.410146,107.353897 137.129641,108.487839 137.129641,109.879859 L137.129641,136.149513 L133.905938,136.149513 L133.905938,109.879859 C133.905938,108.487839 134.636594,107.353897 135.51779,107.353897" id="Fill-18" fill="#FFFFFF"></path>
                            <polygon id="Fill-19" fill="#FFFFFF" points="144.597593 117.715848 150.325219 117.715848 150.325219 112.621103 144.597593 112.621103"></polygon>
                            <polygon id="Fill-20" fill="#FFFFFF" points="144.597593 126.170453 150.325219 126.170453 150.325219 121.075994 144.597593 121.075994"></polygon>
                            <polygon id="Fill-21" fill="#FFFFFF" points="144.597593 134.809481 150.325219 134.809481 150.325219 129.716734 144.597593 129.716734"></polygon>
                            <polygon id="Fill-22" fill="#FFFFFF" points="71.7070875 24.6609532 127.424731 24.6609532 127.424731 21.8971839 71.7070875 21.8971839"></polygon>
                            <polygon id="Fill-23" fill="#FFFFFF" points="71.7070875 32.9516903 127.424731 32.9516903 127.424731 30.187921 71.7070875 30.187921"></polygon>
                            <polygon id="Fill-24" fill="#FFFFFF" points="71.7070875 40.6292081 127.424731 40.6292081 127.424731 37.8654387 71.7070875 37.8654387"></polygon>
                            <polygon id="Fill-25" fill="#FFFFFF" points="138.199125 58.1316532 193.915051 58.1316532 193.915051 55.3678839 138.199125 55.3678839"></polygon>
                            <polygon id="Fill-26" fill="#FFFFFF" points="79.4023064 58.1316532 135.119949 58.1316532 135.119949 55.3678839 79.4023064 55.3678839"></polygon>
                            <polygon id="Fill-27" fill="#FFFFFF" points="79.4023064 65.809171 135.119949 65.809171 135.119949 63.0456871 79.4023064 63.0456871"></polygon>
                            <polygon id="Fill-28" fill="#FFFFFF" points="138.199125 65.809171 164.363956 65.809171 164.363956 63.0456871 138.199125 63.0456871"></polygon>
                            <polygon id="Fill-29" fill="#FFFFFF" points="79.4023064 80.6634677 135.119949 80.6634677 135.119949 77.8999839 79.4023064 77.8999839"></polygon>
                            <polygon id="Fill-30" fill="#FFFFFF" points="138.199125 80.6634677 164.363956 80.6634677 164.363956 77.8999839 138.199125 77.8999839"></polygon>
                            <polygon id="Fill-31" fill="#FFFFFF" points="204.691162 73.1786516 230.854562 73.1786516 230.854562 70.4148823 204.691162 70.4148823"></polygon>
                            <polygon id="Fill-32" fill="#FFFFFF" points="79.4020202 49.2279823 199.764596 49.2279823 199.764596 46.4642129 79.4020202 46.4642129"></polygon>
                            <polygon id="Fill-33" fill="#FFFFFF" points="79.4020202 73.1786516 199.764596 73.1786516 199.764596 70.4148823 79.4020202 70.4148823"></polygon>
                            <polygon id="Fill-34" fill="#FFFFFF" points="204.691162 89.4518032 230.854562 89.4518032 230.854562 86.6880339 204.691162 86.6880339"></polygon>
                            <polygon id="Fill-35" fill="#FFFFFF" points="79.4020202 89.4518032 199.764596 89.4518032 199.764596 86.6880339 79.4020202 86.6880339"></polygon>
                            <polygon id="Fill-36" fill="#FFFFFF" points="260.596034 128.216231 258.435545 128.17455 259.529098 98.1071032 261.691589 98.1416468"></polygon>
                            <polygon id="Fill-37" fill="#FFFFFF" points="254.293584 98.8716005 255.664173 100.553957 232.802322 120.045939 231.432305 118.374146"></polygon>
                            <polygon id="Fill-38" fill="#FFFFFF" points="259.514988 130.805655 258.80551 132.896253 230.938389 123.617171 231.644433 121.522576"></polygon>
                            <path d="M257.094348,103.131562 C253.260763,101.231953 251.726184,96.489209 253.673742,92.5275494 C255.626167,88.5747397 260.316621,86.9117961 264.1545,88.8191139 C267.996958,90.7238623 269.527244,95.4691752 267.579113,99.419701 C265.628978,103.376793 260.935662,105.036025 257.094348,103.131562" id="Fill-39" fill="#FFFFFF"></path>
                            <path d="M256.027813,137.425312 C252.839025,135.842875 251.564311,131.89549 253.18618,128.609856 C254.804901,125.326506 258.705742,123.945049 261.894244,125.527201 C265.083032,127.109924 266.352594,131.04903 264.739311,134.340659 C263.114867,137.622011 259.220608,139.00518 256.027813,137.425312" id="Fill-40" fill="#FFFFFF"></path>
                            <path d="M223.129322,132.346554 C218.286611,129.943065 216.355652,123.955327 218.817503,118.964783 C221.275635,113.976809 227.19587,111.87993 232.036005,114.279136 C236.878715,116.682625 238.811678,122.674646 236.354406,127.662906 C233.893412,132.646598 227.972318,134.750043 223.129322,132.346554" id="Fill-41" fill="#FFFFFF"></path>
                        </g>
                    </g>
                </g>
            </g>
        </g>
    </g>
</svg>