<?xml version="1.0" encoding="UTF-8"?>
<svg width="354px" height="301px" viewBox="0 0 354 301" version="1.1" xmlns="http://www.w3.org/2000/svg" xmlns:xlink="http://www.w3.org/1999/xlink">
    <!-- Generator: sketchtool 46.2 (44496) - http://www.bohemiancoding.com/sketch -->
    <title>EF9DE7CA-17D5-42A7-802E-7F235F1E3894</title>
    <desc>Created with sketchtool.</desc>
    <defs>
        <path d="M263.212932,141.798392 C263.212932,77.1122573 210.445387,24.6673785 145.351702,24.6673785 C80.258016,24.6673785 27.4904719,77.1122573 27.4904719,141.798392 C27.4904719,181.818865 47.6983155,217.1328 78.5093839,238.258976 L212.189734,238.258976 C243.005088,217.1328 263.212932,181.818865 263.212932,141.798392" id="path-1"></path>
        <filter x="-11.0%" y="-10.3%" width="122.1%" height="124.3%" filterUnits="objectBoundingBox" id="filter-2">
            <feOffset dx="0" dy="4" in="SourceAlpha" result="shadowOffsetOuter1"></feOffset>
            <feGaussianBlur stdDeviation="8" in="shadowOffsetOuter1" result="shadowBlurOuter1"></feGaussianBlur>
            <feColorMatrix values="0 0 0 0 0.254901961   0 0 0 0 0.458823529   0 0 0 0 0.647058824  0 0 0 0.24 0" type="matrix" in="shadowBlurOuter1"></feColorMatrix>
        </filter>
        <circle id="path-3" cx="28" cy="28" r="28"></circle>
    </defs>
    <g id="Page-1" stroke="none" stroke-width="1" fill="none" fill-rule="evenodd">
        <g id="Home-Page-10/04/2017-screen-Install-Rakam" transform="translate(-748.000000, -2240.000000)">
            <g id="Products" transform="translate(0.000000, 1323.000000)">
                <g id="Analutics" transform="translate(127.000000, 910.000000)">
                    <g id="Icon3_Analytics-with-recipes" transform="translate(621.000000, 7.000000)">
                        <path d="M187.190047,86.1929341 C187.190047,87.978947 185.740754,89.4318339 183.951747,89.4318339 C182.162168,89.4318339 180.711444,87.978947 180.711444,86.1929341 C180.711444,84.4069212 182.162168,82.9574656 183.951747,82.9574656 C185.740754,82.9574656 187.190047,84.4069212 187.190047,86.1929341" id="Fill-7" fill="#646782"></path>
                        <g id="Group-10">
                            <g id="Group-25">
                                <path d="M290.4346,144.185451 C290.4346,64.5591667 225.479667,0.00142361111 145.351702,0.00142361111 C65.2237362,0.00142361111 0.268803897,64.5591667 0.268803897,144.185451 C0.268803897,193.449201 25.1439262,236.919375 63.0712336,262.924931 L227.626894,262.924931 C265.559477,236.919375 290.4346,193.449201 290.4346,144.185451" id="Fill-613" fill="#FFFFFF"></path>
                                <g id="Fill-613">
                                    <use fill="black" fill-opacity="1" filter="url(#filter-2)" xlink:href="#path-1"></use>
                                    <use fill="#FFFFFF" fill-rule="evenodd" xlink:href="#path-1"></use>
                                </g>
                                <path d="M239.22825,266.862465 L51.4698775,266.862465 C49.2857204,266.862465 47.5130712,265.100799 47.5130712,262.930174 C47.5130712,260.754306 49.2857204,258.997882 51.4698775,258.997882 L239.22825,258.997882 C241.412407,258.997882 243.185057,260.754306 243.185057,262.930174 C243.185057,265.100799 241.412407,266.862465 239.22825,266.862465" id="Fill-614" fill="#EEEEEE"></path>
                                <path d="M206.676924,283.82375 L84.0159283,283.82375 C81.8317712,283.82375 80.059122,282.062083 80.059122,279.891458 C80.059122,277.720833 81.8317712,275.959167 84.0159283,275.959167 L206.676924,275.959167 C208.861081,275.959167 210.63373,277.720833 210.63373,279.891458 C210.63373,282.062083 208.861081,283.82375 206.676924,283.82375" id="Fill-615" fill="#EEEEEE" opacity="0.800000012"></path>
                                <path d="M147.008285,300.785035 L122.354743,300.785035 C120.170586,300.785035 118.397937,299.023368 118.397937,296.852743 C118.397937,294.682118 120.170586,292.920451 122.354743,292.920451 L147.008285,292.920451 C149.192442,292.920451 150.965091,294.682118 150.965091,296.852743 C150.965091,299.023368 149.192442,300.785035 147.008285,300.785035" id="Fill-616" fill="#EFEFEF" opacity="0.601449275"></path>
                                <path d="M168.638826,300.785035 L162.0547,300.785035 C159.870543,300.785035 158.097894,299.023368 158.097894,296.852743 C158.097894,294.682118 159.870543,292.920451 162.0547,292.920451 L168.638826,292.920451 C170.822983,292.920451 172.595632,294.682118 172.595632,296.852743 C172.595632,299.023368 170.822983,300.785035 168.638826,300.785035" id="Fill-617" fill="#EFEFEF" opacity="0.601449275"></path>
                            </g>
                        </g>
                        <g id="Page-1" transform="translate(14.000000, 81.000000)">
                            <path d="M291.153791,147.811385 C291.153791,153.915168 286.199178,158.862018 280.090912,158.862018 L58.8716869,158.862018 C52.7614175,158.862018 47.8102391,153.915168 47.8102391,147.811385 L47.8102391,11.0501472 C47.8102391,4.94693554 52.7614175,8.57835218e-05 58.8716869,8.57835218e-05 L280.090912,8.57835218e-05 C286.199178,8.57835218e-05 291.153791,4.94693554 291.153791,11.0501472 L291.153791,147.811385 Z" id="Fill-1" fill="#EFEFEF"></path>
                            <polygon id="Fill-3" fill="#646782" points="58.6831987 147.767835 281.220067 147.767835 281.220067 10.4798869 58.6831987 10.4798869"></polygon>
                            <polygon id="Fill-22" fill="#FFFFFF" points="208 113.763769 263.717643 113.763769 263.717643 111 208 111"></polygon>
                            <polygon id="Fill-23" fill="#FFFFFF" points="208 122.054506 263.717643 122.054506 263.717643 119.290737 208 119.290737"></polygon>
                            <polygon id="Fill-24" fill="#FFFFFF" points="208 129.732024 263.717643 129.732024 263.717643 126.968255 208 126.968255"></polygon>
                            <rect id="Rectangle-4" fill="#FFFFFF" x="79" y="32" width="16" height="100"></rect>
                            <rect id="Rectangle-4-Copy" fill="#FFFFFF" x="101" y="65" width="16" height="67"></rect>
                            <rect id="Rectangle-4-Copy-2" fill="#FFFFFF" x="123" y="52" width="16" height="80"></rect>
                            <rect id="Rectangle-4-Copy-3" fill="#FFFFFF" x="145" y="92" width="16" height="40"></rect>
                            <rect id="Rectangle-4-Copy-4" fill="#FFFFFF" x="167" y="113" width="16" height="19"></rect>
                            <path d="M0.223003367,158.057654 C0.0807643098,159.036444 5.72390572e-05,160.046402 5.72390572e-05,161.078092 C5.72390572e-05,169.812284 5.30354209,176.888281 11.8431044,176.888281 L328.061421,176.888281 C334.600983,176.888281 339.90132,169.812284 339.90132,161.078092 C339.90132,160.046402 339.823761,159.036444 339.680091,158.057654 L0.223003367,158.057654 Z" id="Fill-5" fill="#FFFEFE"></path>
                            <path d="M1.01856902,167.474569 C2.8593771,173.016757 7.00863636,176.888167 11.8430471,176.888167 L328.06165,176.888167 C332.897492,176.888167 337.046751,173.016757 338.887845,167.474569 L1.01856902,167.474569 Z" id="Fill-6" fill="#E0E0E0"></path>
                            <g id="Group-4" transform="translate(208.000000, 25.000000)">
                                <mask id="mask-4" fill="white">
                                    <use xlink:href="#path-3"></use>
                                </mask>
                                <circle stroke="#FFFFFF" stroke-width="4" cx="28" cy="28" r="26"></circle>
                                <polygon id="Path-4" fill="#FFFFFF" mask="url(#mask-4)" points="28 28 28 62.5350896 64.185637 62.5350896 64.185637 28.0340088"></polygon>
                            </g>
                        </g>
                    </g>
                </g>
            </g>
        </g>
    </g>
</svg>