<?xml version="1.0" encoding="UTF-8"?>
<svg width="1236px" height="511px" viewBox="0 0 1236 511" version="1.1" xmlns="http://www.w3.org/2000/svg" xmlns:xlink="http://www.w3.org/1999/xlink">
    <!-- Generator: Sketch 46.2 (44496) - http://www.bohemiancoding.com/sketch -->
    <title>looper</title>
    <desc>Created with Sketch.</desc>
    <defs></defs>
    <g id="Page-1" stroke="none" stroke-width="1" fill="none" fill-rule="evenodd" opacity="0.76805933">
        <g id="API_BG" transform="translate(-329.000000, -3186.000000)" stroke="#FFFFFF">
            <g id="looper" transform="translate(328.000000, 3180.000000)">
                <rect id="duplicate_53_BG" stroke-width="1.20000005" opacity="0.171586434" transform="translate(1034.056248, 211.056248) rotate(-127.800000) translate(-1034.056248, -211.056248) " x="885.056248" y="62.0562478" width="298" height="298" rx="18.0000007"></rect>
                <rect id="duplicate_52_BG" stroke-width="1.20000005" opacity="0.2650345" transform="translate(1004.302017, 211.302017) rotate(-131.400000) translate(-1004.302017, -211.302017) " x="855.302017" y="62.3020173" width="298" height="298" rx="18.0000007"></rect>
                <rect id="duplicate_51_BG" stroke-width="1.20000005" opacity="0.689212566" transform="translate(974.717821, 210.717821) rotate(-135.000000) translate(-974.717821, -210.717821) " x="825.717821" y="61.7178208" width="298" height="298" rx="18.0000007"></rect>
                <rect id="duplicate_50_BG" stroke-width="1.20000005" opacity="0.0428274114" transform="translate(945.302017, 211.302017) rotate(-138.600000) translate(-945.302017, -211.302017) " x="796.302017" y="62.3020173" width="298" height="298" rx="18.0000007"></rect>
                <rect id="duplicate_49_BG" stroke-width="1.20000005" opacity="0.222976072" transform="translate(915.056248, 211.056248) rotate(-142.200000) translate(-915.056248, -211.056248) " x="766.056248" y="62.0562478" width="298" height="298" rx="18.0000007"></rect>
                <rect id="duplicate_48_BG" stroke-width="1.20000005" opacity="0.661485137" transform="translate(884.985429, 210.985429) rotate(-145.800000) translate(-884.985429, -210.985429) " x="735.985429" y="61.9854289" width="298" height="298" rx="18.0000007"></rect>
                <rect id="duplicate_47_BG" stroke-width="1.20000005" opacity="0.179580361" transform="translate(855.097733, 211.097733) rotate(-149.400000) translate(-855.097733, -211.097733) " x="706.097733" y="62.097733" width="298" height="298" rx="18.0000007"></rect>
                <rect id="duplicate_46_BG" stroke-width="1.20000005" opacity="0.795665892" transform="translate(826.404557, 211.404557) rotate(-153.000000) translate(-826.404557, -211.404557) " x="677.404557" y="62.4045566" width="298" height="298" rx="18.0000007"></rect>
                <rect id="duplicate_45_BG" stroke-width="1.20000005" opacity="0.0454949641" transform="translate(794.920475, 210.920475) rotate(-156.600000) translate(-794.920475, -210.920475) " x="645.920475" y="61.9204749" width="298" height="298" rx="18.0000007"></rect>
                <rect id="duplicate_43_BG" stroke-width="1.20000005" opacity="0.126287959" transform="translate(735.653434, 210.653434) rotate(-163.800000) translate(-735.653434, -210.653434) " x="586.653434" y="61.653434" width="298" height="298" rx="18.0000007"></rect>
                <rect id="duplicate_42_BG" stroke-width="1.20000005" opacity="0.335326575" transform="translate(705.914940, 210.914940) rotate(-167.400000) translate(-705.914940, -210.914940) " x="556.91494" y="61.9149405" width="298" height="298" rx="18.0000007"></rect>
                <rect id="duplicate_41_BG" stroke-width="1.20000005" opacity="0.252806778" transform="translate(677.474298, 211.474298) rotate(-171.000000) translate(-677.474298, -211.474298) " x="528.474298" y="62.474298" width="298" height="298" rx="18.0000007"></rect>
                <rect id="duplicate_40_BG" stroke-width="1.20000005" opacity="0.280735313" transform="translate(646.360871, 211.360871) rotate(-174.600000) translate(-646.360871, -211.360871) " x="497.360871" y="62.3608714" width="298" height="298" rx="18.0000007"></rect>
                <rect id="duplicate_44_BG" transform="translate(765.663185, 210.663185) rotate(-160.200000) translate(-765.663185, -210.663185) " x="617.163185" y="62.1631847" width="297" height="297" rx="18.0000007"></rect>
                <rect id="duplicate_53_BG" stroke-width="1.20000005" opacity="0.171586434" transform="translate(539.422151, 261.407956) rotate(-127.800000) translate(-539.422151, -261.407956) " x="390.440028" y="111.958745" width="298" height="299" rx="18.0000007"></rect>
                <rect id="duplicate_52_BG" stroke-width="1.20000005" opacity="0.2650345" transform="translate(510.666517, 268.659405) rotate(-131.400000) translate(-510.666517, -268.659405) " x="361.679588" y="119.185001" width="298" height="299" rx="18.0000007"></rect>
                <rect id="duplicate_51_BG" stroke-width="1.20000005" opacity="0.689212566" transform="translate(481.079478, 276.079478) rotate(-135.000000) translate(-481.079478, -276.079478) " x="332.090939" y="126.579478" width="298" height="299" rx="18.0000007"></rect>
                <rect id="duplicate_50_BG" stroke-width="1.20000005" opacity="0.0428274114" transform="translate(452.659405, 282.666517) rotate(-138.600000) translate(-452.659405, -282.666517) " x="303.672477" y="133.140921" width="298" height="299" rx="18.0000007"></rect>
                <rect id="duplicate_49_BG" stroke-width="1.20000005" opacity="0.222976072" transform="translate(423.407956, 290.422151) rotate(-142.200000) translate(-423.407956, -290.422151) " x="274.425833" y="140.871363" width="298" height="299" rx="18.0000007"></rect>
                <rect id="duplicate_48_BG" stroke-width="1.20000005" opacity="0.661485137" transform="translate(394.330069, 297.351292) rotate(-145.800000) translate(-394.330069, -297.351292) " x="245.355871" y="147.776112" width="298" height="299" rx="18.0000007"></rect>
                <rect id="duplicate_47_BG" stroke-width="1.20000005" opacity="0.179580361" transform="translate(365.433945, 304.462112) rotate(-149.400000) translate(-365.433945, -304.462112) " x="216.470667" y="154.863726" width="298" height="299" rx="18.0000007"></rect>
                <rect id="duplicate_46_BG" stroke-width="1.20000005" opacity="0.795665892" transform="translate(336.731013, 311.766013) rotate(-153.000000) translate(-336.731013, -311.766013) " x="187.781478" y="162.145973" width="298" height="299" rx="18.0000007"></rect>
                <rect id="duplicate_45_BG" stroke-width="1.20000005" opacity="0.0454949641" transform="translate(308.235888, 319.277583) rotate(-156.600000) translate(-308.235888, -319.277583) " x="159.302701" y="169.637781" width="298" height="299" rx="18.0000007"></rect>
                <rect id="duplicate_43_BG" stroke-width="1.20000005" opacity="0.126287959" transform="translate(249.943075, 332.997639) rotate(-163.800000) translate(-249.943075, -332.997639) " x="101.049331" y="183.325206" width="298" height="299" rx="18.0000007"></rect>
                <rect id="duplicate_42_BG" stroke-width="1.20000005" opacity="0.335326575" transform="translate(221.189954, 340.250642) rotate(-167.400000) translate(-221.189954, -340.250642) " x="72.3186849" y="190.565854" width="298" height="299" rx="18.0000007"></rect>
                <rect id="duplicate_41_BG" stroke-width="1.20000005" opacity="0.252806778" transform="translate(191.733598, 347.800172) rotate(-171.000000) translate(-191.733598, -347.800172) " x="42.8861754" y="198.105942" width="298" height="299" rx="18.0000007"></rect>
                <rect id="duplicate_40_BG" stroke-width="1.20000005" opacity="0.280735313" transform="translate(162.603435, 354.675631) rotate(-174.600000) translate(-162.603435, -354.675631) " x="13.7808536" y="204.975023" width="298" height="299" rx="18.0000007"></rect>
                <rect id="duplicate_44_BG" transform="translate(278.966310, 326.014534) rotate(-160.200000) translate(-278.966310, -326.014534) " x="130.551818" y="176.857176" width="297" height="298" rx="18.0000007"></rect>
            </g>
        </g>
    </g>
</svg>