<?xml version="1.0" encoding="UTF-8"?>
<svg width="66px" height="86px" viewBox="0 0 66 86" version="1.1" xmlns="http://www.w3.org/2000/svg" xmlns:xlink="http://www.w3.org/1999/xlink">
    <!-- Generator: Sketch 46.2 (44496) - http://www.bohemiancoding.com/sketch -->
    <title>4</title>
    <desc>Created with Sketch.</desc>
    <defs></defs>
    <g id="Page-1" stroke="none" stroke-width="1" fill="none" fill-rule="evenodd" opacity="0.400000006">
        <g id="Home-Page-10/04/2017-screen-Shere-Rakam" transform="translate(-294.000000, -1023.000000)" fill="#CAF4FF">
            <g id="How-Rakam-Works" transform="translate(160.000000, 757.000000)">
                <g id="create-a-project" transform="translate(39.000000, 113.000000)">
                    <path d="M160.313046,221.246094 L150.000546,221.246094 L150.000546,239 L132.305234,239 L132.305234,221.246094 L95.7427339,221.246094 L95.7427339,208.648438 L133.301328,153.335938 L150.000546,153.335938 L150.000546,207.183594 L160.313046,207.183594 L160.313046,221.246094 Z M132.305234,207.183594 L132.305234,192.652344 C132.305234,190.230457 132.402889,186.714867 132.598203,182.105469 C132.793516,177.496071 132.949765,174.820316 133.066953,174.078125 L132.598203,174.078125 C131.152883,177.281266 129.414619,180.406235 127.383359,183.453125 L111.680234,207.183594 L132.305234,207.183594 Z" id="4"></path>
                </g>
            </g>
        </g>
    </g>
</svg>