<?xml version="1.0" encoding="UTF-8"?>
<svg width="86px" height="86px" viewBox="0 0 86 86" version="1.1" xmlns="http://www.w3.org/2000/svg" xmlns:xlink="http://www.w3.org/1999/xlink">
    <!-- Generator: Sketch 46.2 (44496) - http://www.bohemiancoding.com/sketch -->
    <title>ic/recipes3</title>
    <desc>Created with Sketch.</desc>
    <defs>
        <linearGradient x1="0%" y1="0%" x2="149.460671%" y2="71.875%" id="linearGradient-1">
            <stop stop-color="#00EAF8" offset="0%"></stop>
            <stop stop-color="#6D42EF" offset="100%"></stop>
        </linearGradient>
    </defs>
    <g id="Page-1" stroke="none" stroke-width="1" fill="none" fill-rule="evenodd">
        <g id="Temp-Screen" transform="translate(-533.000000, -806.000000)">
            <g id="3" transform="translate(533.000000, 806.000000)">
                <g id="ic/recipes3">
                    <circle id="Oval-4-Copy-2" fill="#FFFFFF" cx="43" cy="43" r="43"></circle>
                    <path d="M49,30 L49,29 C49,28.4477153 49.4477153,28 50,28 C50.5522847,28 51,28.4477153 51,29 L51,30 L56,30 C57.7073621,30 59,31.3018097 59,33 L59,55 C59,56.6981903 57.7073621,58 56,58 L30,58 C28.2926379,58 27,56.6981903 27,55 L27,37 C27,36.7238576 27.1119288,36.4738576 27.2928932,36.2928932 C27.4738576,36.1119288 27.7238576,36 28,36 L57,36 L57,33 C57,32.4032261 56.5996148,32 56,32 L51,32 L51,32.8518519 C51,33.4041366 50.5522847,33.8518519 50,33.8518519 C49.4477153,33.8518519 49,33.4041366 49,32.8518519 L49,32 L36,32 L36,32.8518519 C36,33.4041366 35.5522847,33.8518519 35,33.8518519 C34.4477153,33.8518519 34,33.4041366 34,32.8518519 L34,32 L30,32 C29.4003852,32 29,32.4032261 29,33 C29,33.5522847 28.5522847,34 28,34 C27.4477153,34 27,33.5522847 27,33 C27,31.3018097 28.2926379,30 30,30 L34,30 L34,29 C34,28.4477153 34.4477153,28 35,28 C35.5522847,28 36,28.4477153 36,29 L36,30 L49,30 Z M29,38 L29,55 C29,55.5967739 29.4003852,56 30,56 L56,56 C56.5996148,56 57,55.5967739 57,55 L57,38 L29,38 Z M42.53125,41 C43.0835347,41 43.53125,41.4477153 43.53125,42 C43.53125,42.5522847 43.0835347,43 42.53125,43 L32.21875,43 C31.6664653,43 31.21875,42.5522847 31.21875,42 C31.21875,41.4477153 31.6664653,41 32.21875,41 L42.53125,41 Z M53.78125,46 C54.3335347,46 54.78125,46.4477153 54.78125,47 C54.78125,47.5522847 54.3335347,48 53.78125,48 L32.21875,48 C31.6664653,48 31.21875,47.5522847 31.21875,47 C31.21875,46.4477153 31.6664653,46 32.21875,46 L53.78125,46 Z M42.53125,51 C43.0835347,51 43.53125,51.4477153 43.53125,52 C43.53125,52.5522847 43.0835347,53 42.53125,53 L32.21875,53 C31.6664653,53 31.21875,52.5522847 31.21875,52 C31.21875,51.4477153 31.6664653,51 32.21875,51 L42.53125,51 Z" id="Combined-Shape" fill="url(#linearGradient-1)" fill-rule="nonzero"></path>
                </g>
            </g>
        </g>
    </g>
</svg>