<?xml version="1.0" encoding="UTF-8"?>
<svg width="100px" height="100px" viewBox="0 0 100 100" version="1.1" xmlns="http://www.w3.org/2000/svg" xmlns:xlink="http://www.w3.org/1999/xlink">
    <!-- Generator: sketchtool 46.2 (44496) - http://www.bohemiancoding.com/sketch -->
    <title>F93ED4FD-B09A-4691-B04D-45FF73A2B241</title>
    <desc>Created with sketchtool.</desc>
    <defs>
        <circle id="path-1" cx="58" cy="45" r="35"></circle>
        <filter x="-37.1%" y="-31.4%" width="174.3%" height="174.3%" filterUnits="objectBoundingBox" id="filter-2">
            <feOffset dx="0" dy="4" in="SourceAlpha" result="shadowOffsetOuter1"></feOffset>
            <feGaussianBlur stdDeviation="8" in="shadowOffsetOuter1" result="shadowBlurOuter1"></feGaussianBlur>
            <feColorMatrix values="0 0 0 0 0.254901961   0 0 0 0 0.458823529   0 0 0 0 0.647058824  0 0 0 0.24 0" type="matrix" in="shadowBlurOuter1"></feColorMatrix>
        </filter>
        <linearGradient x1="0%" y1="0%" x2="149.460671%" y2="71.875%" id="linearGradient-3">
            <stop stop-color="#00EAF8" offset="0%"></stop>
            <stop stop-color="#6D42EF" offset="100%"></stop>
        </linearGradient>
    </defs>
    <g id="Symbols" stroke="none" stroke-width="1" fill="none" fill-rule="evenodd">
        <g id="ic/security">
            <g id="Oval" fill-rule="nonzero">
                <use fill="black" fill-opacity="1" filter="url(#filter-2)" xlink:href="#path-1"></use>
                <use fill="#FFFFFF" fill-rule="evenodd" xlink:href="#path-1"></use>
            </g>
            <path d="M39.9675108,89.9948485 C39.7900868,90.0102615 39.621857,89.9908919 39.4746988,89.938236 C33.1259925,86.7972664 26.2736849,80.593987 20.8073624,72.5180815 C14.6356075,63.7461601 10.7077842,53.176912 9.99995706,42.5167043 C9.96664316,41.4694113 10.2779873,40.9312246 10.9824485,40.5811316 L39.4746988,26.0643362 C39.6172611,26.0099709 39.7846768,25.989599 39.963786,26.005768 C40.1445216,25.988887 40.3134829,26.009252 40.4571902,26.0643362 L68.9494406,40.5811316 C69.8585105,41.1120437 70.1414355,41.987928 69.931932,42.5167043 C69.3935662,43.4121681 68.5043733,43.6908585 67.9669492,43.4844907 L42,30.2543356 L42,85.672051 C52.3077178,79.4405112 62.7225826,65.0592998 66.0019664,49.2912088 C66.1852821,48.69462 66.9675362,48.1929615 67.9669492,48.3234225 C68.5681496,48.5135494 69.0834491,49.2750956 68.9494406,50.2589952 C65.1714716,67.7862116 52.6978476,83.9667608 40.4571902,89.938236 C40.3118863,89.9908834 40.1446089,90.0102954 39.9675108,89.9948485 Z M39,51.6095618 L39,43.1343089 L30.0519578,34.3201927 C30.0008337,34.2698339 29.954251,34.2166956 29.9122096,34.1612718 L24.1617978,36.9934442 L39,51.6095618 Z M39,55.7155316 L21.7302557,38.704265 C21.6150584,38.5907919 21.5229189,38.463207 21.453837,38.3271595 L15.5557711,41.232054 L39,64.2037519 L39,55.7155316 Z M39,68.298908 L12.9716418,42.7951654 C13.2659962,46.0891966 13.8352673,49.305033 14.6705941,52.4369207 C14.7184035,52.4741067 14.764404,52.514622 14.808272,52.5584643 L39,76.736011 L39,68.298908 Z M39,80.8720618 L16.6878242,58.5729654 C18.4672042,63.1030427 20.8328695,67.43531 23.7548366,71.5502952 C28.0367278,77.9724872 33.8102209,83.4194048 39,86.2899252 L39,80.8720618 Z M39,29.6853854 L32.6767232,32.7997033 L39,39.0283391 L39,29.6853854 Z" id="Combined-Shape" fill="url(#linearGradient-3)"></path>
        </g>
    </g>
</svg>