<?xml version="1.0" encoding="UTF-8"?>
<svg width="100px" height="100px" viewBox="0 0 100 100" version="1.1" xmlns="http://www.w3.org/2000/svg" xmlns:xlink="http://www.w3.org/1999/xlink">
    <!-- Generator: sketchtool 46.2 (44496) - http://www.bohemiancoding.com/sketch -->
    <title>8DF9CEFD-D66F-437B-B902-BC3D19BBCD18</title>
    <desc>Created with sketchtool.</desc>
    <defs>
        <circle id="path-1" cx="58" cy="45" r="35"></circle>
        <filter x="-37.1%" y="-31.4%" width="174.3%" height="174.3%" filterUnits="objectBoundingBox" id="filter-2">
            <feOffset dx="0" dy="4" in="SourceAlpha" result="shadowOffsetOuter1"></feOffset>
            <feGaussianBlur stdDeviation="8" in="shadowOffsetOuter1" result="shadowBlurOuter1"></feGaussianBlur>
            <feColorMatrix values="0 0 0 0 0.254901961   0 0 0 0 0.458823529   0 0 0 0 0.647058824  0 0 0 0.24 0" type="matrix" in="shadowBlurOuter1"></feColorMatrix>
        </filter>
        <linearGradient x1="0%" y1="0%" x2="149.460671%" y2="71.875%" id="linearGradient-3">
            <stop stop-color="#00EAF8" offset="0%"></stop>
            <stop stop-color="#6D42EF" offset="100%"></stop>
        </linearGradient>
    </defs>
    <g id="Symbols" stroke="none" stroke-width="1" fill="none" fill-rule="evenodd">
        <g id="ic/visualization" fill-rule="nonzero">
            <g id="Oval">
                <use fill="black" fill-opacity="1" filter="url(#filter-2)" xlink:href="#path-1"></use>
                <use fill="#FFFFFF" fill-rule="evenodd" xlink:href="#path-1"></use>
            </g>
            <g id="colored_taxes-78" transform="translate(10.000000, 21.000000)" fill="url(#linearGradient-3)">
                <path d="M4,20 C4,20.8284271 3.32842712,21.5 2.5,21.5 C1.67157288,21.5 1,20.8284271 1,20 C1,16.9852243 3.91445131,14.5 7,14.5 L30,14.5 C30.8284271,14.5 31.5,15.1715729 31.5,16 C31.5,16.8284271 30.8284271,17.5 30,17.5 L7,17.5 C5.4747024,17.5 4,18.757515 4,20 Z M52.5,47 C52.5,46.1715729 53.1715729,45.5 54,45.5 C54.8284271,45.5 55.5,46.1715729 55.5,47 L55.5,63 C55.5,66.2298575 54.0140173,68.5 51,68.5 L7,68.5 C3.8509358,68.5 0.5,66.0093815 0.5,63 L0.5,28 C0.5,27.1715729 1.17157288,26.5 2,26.5 C2.82842712,26.5 3.5,27.1715729 3.5,28 L3.5,63 C3.5,64.1269215 5.34737163,65.5 7,65.5 L51,65.5 C52.0242901,65.5 52.5,64.7732559 52.5,63 L52.5,47 Z M12,58.5 C11.1715729,58.5 10.5,57.8284271 10.5,57 C10.5,56.1715729 11.1715729,55.5 12,55.5 L44,55.5 C44.8284271,55.5 45.5,56.1715729 45.5,57 C45.5,57.8284271 44.8284271,58.5 44,58.5 L12,58.5 Z M12,52.5 C11.1715729,52.5 10.5,51.8284271 10.5,51 C10.5,50.1715729 11.1715729,49.5 12,49.5 L27,49.5 C27.8284271,49.5 28.5,50.1715729 28.5,51 C28.5,51.8284271 27.8284271,52.5 27,52.5 L12,52.5 Z" id="Combined-Shape"></path>
                <path d="M45.4954988,17.6010162 C44.060621,18.4294433 42.2258497,17.9378178 41.3974226,16.5029399 C40.5689955,15.0680621 41.060621,13.2332909 42.4954988,12.4048637 C43.9303767,11.5764366 45.7651479,12.0680621 46.593575,13.5029399 C47.4220022,14.9378178 46.9303767,16.772589 45.4954988,17.6010162 Z M57.4978037,29.593321 C56.0629258,30.4217481 54.2281546,29.9301227 53.3997275,28.4952448 C52.5713003,27.0603669 53.0629258,25.2255957 54.4978037,24.3971686 C55.9326815,23.5687414 57.7674528,24.0603669 58.5958799,25.4952448 C59.424307,26.9301227 58.9326815,28.7648939 57.4978037,29.593321 Z M44.0606602,29.0606602 C43.4748737,29.6464466 42.5251263,29.6464466 41.9393398,29.0606602 C41.3535534,28.4748737 41.3535534,27.5251263 41.9393398,26.9393398 L55.9393398,12.9393398 C56.5251263,12.3535534 57.4748737,12.3535534 58.0606602,12.9393398 C58.6464466,13.5251263 58.6464466,14.4748737 58.0606602,15.0606602 L44.0606602,29.0606602 Z" id="Combined-Shape"></path>
                <path d="M50,41.5 C38.6781626,41.5 29.5,32.3218374 29.5,21 C29.5,9.67816263 38.6781626,0.5 50,0.5 C61.3218374,0.5 70.5,9.67816263 70.5,21 C70.5,32.3218374 61.3218374,41.5 50,41.5 Z M50,38.5 C59.6649831,38.5 67.5,30.6649831 67.5,21 C67.5,11.3350169 59.6649831,3.5 50,3.5 C40.3350169,3.5 32.5,11.3350169 32.5,21 C32.5,30.6649831 40.3350169,38.5 50,38.5 Z" id="Oval"></path>
            </g>
        </g>
    </g>
</svg>