<?xml version="1.0" encoding="UTF-8"?>
<svg width="100px" height="100px" viewBox="0 0 100 100" version="1.1" xmlns="http://www.w3.org/2000/svg" xmlns:xlink="http://www.w3.org/1999/xlink">
    <!-- Generator: sketchtool 46.2 (44496) - http://www.bohemiancoding.com/sketch -->
    <title>327E123D-2D40-430B-97EC-9DBCAFCBC9F0</title>
    <desc>Created with sketchtool.</desc>
    <defs>
        <circle id="path-1" cx="58" cy="45" r="35"></circle>
        <filter x="-37.1%" y="-31.4%" width="174.3%" height="174.3%" filterUnits="objectBoundingBox" id="filter-2">
            <feOffset dx="0" dy="4" in="SourceAlpha" result="shadowOffsetOuter1"></feOffset>
            <feGaussianBlur stdDeviation="8" in="shadowOffsetOuter1" result="shadowBlurOuter1"></feGaussianBlur>
            <feColorMatrix values="0 0 0 0 0.254901961   0 0 0 0 0.458823529   0 0 0 0 0.647058824  0 0 0 0.24 0" type="matrix" in="shadowBlurOuter1"></feColorMatrix>
        </filter>
        <linearGradient x1="0%" y1="0%" x2="149.460671%" y2="71.875%" id="linearGradient-3">
            <stop stop-color="#00EAF8" offset="0%"></stop>
            <stop stop-color="#6D42EF" offset="100%"></stop>
        </linearGradient>
    </defs>
    <g id="Symbols" stroke="none" stroke-width="1" fill="none" fill-rule="evenodd">
        <g id="ic/web">
            <g id="Oval" fill-rule="nonzero">
                <use fill="black" fill-opacity="1" filter="url(#filter-2)" xlink:href="#path-1"></use>
                <use fill="#FFFFFF" fill-rule="evenodd" xlink:href="#path-1"></use>
            </g>
            <path d="M71,68 L41.5,68 C40.6715729,68 40,67.3284271 40,66.5 C40,65.6715729 40.6715729,65 41.5,65 L71,65 L71,61 L41.5,61 C40.6715729,61 40,60.3284271 40,59.5 C40,58.6715729 40.6715729,58 41.5,58 L71,58 L71,54 L41.5,54 C40.6715729,54 40,53.3284271 40,52.5 C40,51.6715729 40.6715729,51 41.5,51 L71,51 L71,44 L22.5,44 C21.6715729,44 21,43.3284271 21,42.5 C21,41.6715729 21.6715729,41 22.5,41 L71,41 L71,34 L13,34 L13,87 L71,87 L71,68 Z M11.4388187,31 L72.5611813,31 C73.3543794,31 74,31.6453726 74,32.4385707 L74,88.5611813 C74,89.3543794 73.3543794,90 72.5611813,90 L11.4388187,90 C10.6453726,90 10,89.3543794 10,88.5611813 L10,32.4385707 C10,31.6453726 10.6453726,31 11.4388187,31 Z M23,37.501035 C23,37.8940831 22.840811,38.2804037 22.5633305,38.5606348 C22.2791199,38.8406072 21.8918896,39 21.4984469,39 C21.105522,39 20.719327,38.8403485 20.4387403,38.5621873 C20.1594478,38.2804037 20,37.8943419 20,37.501035 C20,37.1069519 20.159189,36.7198551 20.4369284,36.4391064 C20.7188093,36.159134 21.1050043,36 21.4984469,36 C21.8926661,36 22.2798965,36.159134 22.5612597,36.4365189 C22.840811,36.7198551 23,37.1072106 23,37.501035 Z M26.5607863,38.5599104 C26.2829798,38.8392626 25.8960166,39 25.4994827,39 C25.1034661,39 24.7167615,38.8392626 24.438955,38.5591352 C24.1601138,38.2808166 24,37.8939616 24,37.4988371 C24,37.1055216 24.1601138,36.7194418 24.4392137,36.4393143 C24.7157268,36.1604789 25.1024315,36 25.4994827,36 C25.8957579,36 26.2824625,36.1602205 26.561045,36.4395727 C26.8398862,36.7194418 27,37.1055216 27,37.4988371 C27,37.8939616 26.8398862,38.2808166 26.5607863,38.5599104 Z M29.498448,39 C29.1065701,39 28.7203828,38.8406072 28.438955,38.5627048 C28.1593378,38.2804037 28,37.8935656 28,37.498965 C28,37.1061756 28.1590792,36.7198551 28.436627,36.4391064 C28.7196068,36.159134 29.1057941,36 29.498448,36 C29.8929126,36 30.2798758,36.159134 30.5600103,36.4370364 C30.8401449,36.7185613 31,37.1051406 31,37.498965 C31,37.8946007 30.8398862,38.2819562 30.5607863,38.5614111 C30.2790998,38.8403485 29.8921366,39 29.498448,39 Z" id="Combined-Shape" fill="url(#linearGradient-3)"></path>
        </g>
    </g>
</svg>