<?xml version="1.0" encoding="UTF-8"?>
<svg width="85px" height="86px" viewBox="0 0 85 86" version="1.1" xmlns="http://www.w3.org/2000/svg" xmlns:xlink="http://www.w3.org/1999/xlink">
    <!-- Generator: sketchtool 46.2 (44496) - http://www.bohemiancoding.com/sketch -->
    <title>F58F9105-E34E-40E8-9C02-53BB7F085C6F</title>
    <desc>Created with sketchtool.</desc>
    <defs>
        <linearGradient x1="0%" y1="0%" x2="149.460671%" y2="71.875%" id="linearGradient-1">
            <stop stop-color="#00EAF8" offset="0%"></stop>
            <stop stop-color="#6D42EF" offset="100%"></stop>
        </linearGradient>
    </defs>
    <g id="Page-1" stroke="none" stroke-width="1" fill="none" fill-rule="evenodd">
        <g id="02_10-Rakam-Pre-Build-2" transform="translate(-661.000000, -1634.000000)">
            <g id="Products1" transform="translate(0.000000, 1519.000000)">
                <g id="Group" transform="translate(456.000000, 115.000000)">
                    <g id="2" transform="translate(205.000000, 0.000000)">
                        <g id="ic/website-">
                            <g>
                                <ellipse id="Oval-" fill="#FFFFFF" cx="42.5" cy="43" rx="42.5" ry="43"></ellipse>
                                <path d="M58.2717829,41.9386667 C57.7578295,33.9466667 51.448062,27.5626667 43.5489922,27.032 L43.5489922,27 L41.4510078,27 L41.4510078,27.032 C33.551938,27.5626667 27.2421705,33.9466667 26.7176744,41.9386667 L26.6860465,41.9386667 L26.6860465,44.0613333 L26.7176744,44.0613333 C27.2421705,52.0533333 33.551938,58.4373333 41.4510078,58.9573333 L41.4510078,59 L43.5489922,59 L43.5489922,58.9573333 C51.448062,58.4373333 57.7578295,52.0533333 58.2717829,44.0613333 L58.3139535,44.0613333 L58.3139535,41.9386667 L58.2717829,41.9386667 Z M36.5908527,30.4906667 C35.5708527,31.8533333 34.7168992,33.5733333 34.108062,35.5306667 L30.947907,35.5306667 C32.3184496,33.3653333 34.2741085,31.6053333 36.5908527,30.4906667 Z M29.8462016,37.6666667 L33.551938,37.6666667 C33.2646512,39.0106667 33.0906977,40.448 33.0274419,41.9386667 L28.8367442,41.9386667 C28.9500775,40.4266667 29.3006202,39 29.8462016,37.6666667 Z M28.8367442,44.0613333 L33.0274419,44.0613333 C33.0906977,45.552 33.2646512,46.9893333 33.551938,48.3333333 L29.8462016,48.3333333 C29.3006202,47 28.9500775,45.5733333 28.8367442,44.0613333 Z M30.947907,50.4693333 L34.0975194,50.4693333 C34.7168992,52.4266667 35.5603101,54.1466667 36.5908527,55.5093333 C34.2741085,54.3946667 32.3184496,52.6346667 30.947907,50.4693333 Z M41.4510078,56.728 C39.2765891,56.1466667 37.4131783,53.792 36.2824806,50.4693333 L41.4510078,50.4693333 L41.4510078,56.728 Z M41.4510078,48.3333333 L35.684186,48.3333333 C35.3863566,47 35.1992248,45.5733333 35.1386047,44.0613333 L41.4510078,44.0613333 L41.4510078,48.3333333 Z M41.4510078,41.9386667 L35.1386047,41.9386667 C35.1992248,40.4266667 35.3863566,39 35.684186,37.6666667 L41.4510078,37.6666667 L41.4510078,41.9386667 Z M41.4510078,35.5306667 L36.2824806,35.5306667 C37.4131783,32.208 39.2765891,29.8533333 41.4510078,29.272 L41.4510078,35.5306667 Z M54.052093,35.5306667 L50.9024806,35.5306667 C50.2831008,33.5733333 49.4396899,31.8533333 48.4091473,30.4906667 C50.7258915,31.6053333 52.6815504,33.3653333 54.052093,35.5306667 Z M43.5489922,29.272 C45.7234109,29.8533333 47.5868217,32.208 48.7175194,35.5306667 L43.5489922,35.5306667 L43.5489922,29.272 Z M43.5489922,37.6666667 L49.315814,37.6666667 C49.6136434,39 49.7902326,40.4266667 49.8613953,41.9386667 L43.5489922,41.9386667 L43.5489922,37.6666667 Z M43.5489922,44.0613333 L49.8613953,44.0613333 C49.8007752,45.5733333 49.6136434,47 49.315814,48.3333333 L43.5489922,48.3333333 L43.5489922,44.0613333 Z M43.5489922,56.728 L43.5489922,50.4693333 L48.7175194,50.4693333 C47.5868217,53.792 45.7234109,56.1466667 43.5489922,56.728 Z M48.4091473,55.5093333 C49.4291473,54.136 50.2831008,52.4266667 50.9024806,50.4693333 L54.052093,50.4693333 C52.6815504,52.6346667 50.7258915,54.3946667 48.4091473,55.5093333 Z M55.1537984,48.3333333 L51.448062,48.3333333 C51.7353488,46.9893333 51.9093023,45.552 51.9725581,44.0613333 L56.1632558,44.0613333 C56.0499225,45.5733333 55.6993798,47 55.1537984,48.3333333 Z M51.9725581,41.9386667 C51.9093023,40.448 51.7353488,39.0106667 51.448062,37.6666667 L55.1537984,37.6666667 C55.6993798,39 56.0499225,40.4266667 56.1632558,41.9386667 L51.9725581,41.9386667 Z" id="website" fill="url(#linearGradient-1)"></path>
                            </g>
                        </g>
                    </g>
                </g>
            </g>
        </g>
    </g>
</svg>