<svg enable-background="new 0 0 1200 1200" viewBox="0 0 1200 1200" xmlns="http://www.w3.org/2000/svg"><path d="m511.3 993.4h25.5v17.5h-25.5z" fill="#de8e68"/><path d="m673.5 993.4h29.8v17.5h-29.8z" fill="#de8e68"/><path d="m672.4 597.5c.7 13.2 31.8 395.9 31.8 395.9h-31.8l-82.7-287.4s21.5-115 23-114.7c7.1 1.8 46 8.7 59.7 6.2z" fill="#56cad8"/><path d="m626 594.2-85.7 402.3h-30.7s-2.7-440.9 0-440.9c28.8 12.2 83.2 32.2 116.4 38.6z" fill="#74d5de"/><path d="m694.4 375.2c4.9 2.1 31.1 23.8 42.1 38.1 8.2-6.1 101.8-83.8 103.7-88.1 3.7-2.1 11.6 9.8 0 19.5 7.9-.3 54.6-1.5 54.6 0s10.1 5.8-58.5 16.8c-9.1 11-91.5 107.9-104.9 107.9s-68-53-70.3-62.5 33.3-31.7 33.3-31.7z" fill="#de8e68"/><path d="m623.1 332.1c-21.4 19.9 17.8 79.9 28.9 82.5 14.1 3.4 46.3-23.3 53.2-41.8 3.1-8.7-64.5-57-82.1-40.7z" fill="#fcc486"/><path d="m584.7 303.1c-119 0-92 229.7-84.4 245.4s160 61.3 172 49 34.1-294.4-87.6-294.4z" fill="#fed385"/><path d="m605.2 272.2h-36v52.3c0 6.7 36 6.7 36 0z" fill="#d37c59"/><ellipse cx="586.8" cy="222.2" fill="#de8e68" rx="41" ry="68.8"/><path d="m580 138c-20.7 0-48.1 10-68 10-18 0-50.7-13-68-13-11 0-63 5.1-63 47 0 18.9 20 37 24 42s11.3 33 30 33c26.1 0 44.1-19 68-19 16.5 0 20.8 4 29 4 6 0 15-2.8 15-3 0-3.1-.6-29 3-33.2 5-6 68.7 2.9 68.7-18.2 4.5 4 8.7 21 8.7 24.5 2.9-3 13.7-16 13.7-30-.1-12.8-9.1-44.1-61.1-44.1z"/><path d="m441.4 513.9h96.8v128.3h-96.8z" fill="#dfdfdf" transform="matrix(.9972 -.07463064 .07463064 .9972 -41.7723 38.1687)"/><path d="m451.5 523.2h96.8v128.3h-96.8z" fill="#f2f2f2" transform="matrix(.9972 -.07463064 .07463064 .9972 -42.4386 38.9452)"/><ellipse cx="494.2" cy="628.1" fill="#de8e68" rx="19.1" ry="26.9"/><path d="m482.1 402.5c-2.5 5.6-19 68.1-15.5 121.5s12.6 83.5 12.6 87.7 30.6 2.5 30.6 0-7.9-78.5-6.2-92 24.6-91.6 24-101.2-45.5-16-45.5-16z" fill="#de8e68"/><path d="m527 335.9c-27.3-8.7-59.6 53.6-56.5 64.4 3.9 13.6 42 28.4 61.1 25.4 9-1.5 17.8-82.6-4.6-89.8z" fill="#fed892"/><path d="m510 1006.9v7.7l-30.4 57h19.8l39.6-35.9v-28.8z"/><path d="m672.5 1005.7v28.9h84.5v-11.4l-53.6-17.5z"/><g fill="#dfdfdf"><circle cx="348" cy="365.1" r="68.3"/><path d="m445.1 315.5-82.1 16.5 20.1 39.9z"/><path d="m715.3 211.5 80.8 22.3v-44.7z"/></g><text fill="#fff" font-family="'SofiaProBlack'" font-size="108.2" transform="translate(325.59 402.02)">?</text><path d="m746.1 153.4h156v108.6h-156z" fill="#dfdfdf"/><circle cx="788.8" cy="207.7" fill="#fff" r="7.5"/><circle cx="824" cy="207.7" fill="#fff" r="7.5"/><circle cx="859.3" cy="207.7" fill="#fff" r="7.5"/><path d="m527.1 529.5c.3 3.4-2.3 6.3-5.7 6.6-3.4.3-6.3-2.3-6.6-5.7l-1.5-20.3c-.3-3.4 2.3-6.3 5.7-6.6 3.4-.3 6.3 2.3 6.6 5.7l.8 10.8" style="fill:none;stroke:#000;stroke-width:2.5;stroke-linecap:round;stroke-linejoin:round;stroke-miterlimit:10"/></svg>