<svg viewBox="0 0 1200 1200" xmlns="http://www.w3.org/2000/svg"><path d="m181.21 128h553.1v553.1h-553.1z" fill="#f8f8f8"/><path d="m523.96 185.42v154.21h97.14" fill="none" stroke="#efefef" stroke-linecap="round" stroke-linejoin="round" stroke-width="5"/><ellipse cx="735.11" cy="944.85" fill="#efefef" rx="292.89" ry="55.69"/><path d="m841.88 919.32v19.71h61.38v-8.72l-39.1-10.99"/><path d="m589.09 914.57v10.05l6.39 7.01h15.65l5.99 9.22h-40.35l-15.21-24.57 9.83-13.28"/><path d="m791.56 617.51s75.52 113 82.1 137.43-9.5 164.38-9.5 164.38h-22.28s-16.81-100.82-12.06-136.26c-16.82-10.22-89.82-56.63-95.71-80.55" fill="#56cad8"/><path d="m791.56 617.51c-7 17.24-73.88 156.79-73.88 156.79l-128.59 140.27-19-12.42 86.91-136.15 17.9-161.27" fill="#74d5de"/><path d="m496.76 674.35h178.59v95.36h-178.59z" fill="#fd8369"/><circle cx="586.05" cy="675.29" fill="none" r="27.07" stroke="#fd8369" stroke-miterlimit="10" stroke-width="9"/><path d="m837.31 483.6c2 4.23 8.05 34 7.85 50.88 10.25 5.43 69 53.4 76.21 57.31 10.49 5.7 14 5.7 14.88 6.36-1.86 3.33-10.78 18.24-10.78 18.24s-8.52-7.59-12.64-9.19-63.63-29.68-95.18-55c-5.42-4.35-12.11-19.7-12.51-24.1s1.06-39.8 1.06-39.8z" fill="#de8e68"/><path d="m663.47 468.41c-3.06 3.68-43.62 44.94-54.39 68s-14.36 50.79-18.08 63.59c-4.86 16.55-17.19 35.9-17.19 46.47 0 5.67 6.61 14.54 11.33 14.54s16.65-.78 19.26-17.94c4.08-26.78 21.53-69.49 28.7-78.36s65-69.87 67.42-74.21-27.05-34.18-37.05-22.09z" fill="#de8e68"/><path d="m784.63 412.26c19.53-7.25 63.18 64.55 55.83 71.4s-49.7 23.22-57.33 17.22-19.13-80.97 1.5-88.62z" fill="#f9c87a"/><path d="m764.79 398.86c87.21 9.84 37.6 182.14 26.77 218.65-19 8.59-109.27 5.2-116.66-12.78-2.9-22.65 8.89-211.68 89.89-205.87z" fill="#fed385"/><path d="m780.36 416.25c0 5.25-26.36 5.53-26.36 0v-38.82h26.36z" fill="#d37c59"/><path d="m775.77 302.24c-16.19 0-29.31 20.54-29.31 45.88 0 1.38 0 2.73.12 4.08a5.72 5.72 0 0 0 1.51 11c4 17.94 14.87 30.81 27.68 30.81 16.18 0 29.3-20.54 29.3-45.88s-13.07-45.89-29.3-45.89z" fill="#de8e68"/><path d="m774.5 295.5c-10 0-34 8-44 8-28.11 0-27.42-10-56-10-15 0-31.84 9.83-51 18-19.9 8.48-46 7.12-46 43 0 12 3.77 51 45 51 30.1 0 59.16-27 87-27 11.56 0 20.16 3 30 3 6 0 13-1 15-3v-17s-1.31 1-6 1c-2 0-4-4-4-6 0-10.5 55-15.61 55-35 1.54 2.71 3.75 10.11 4.12 12.34 1.73-2.25 5.12-6 5.12-12.81 0-13.8-10.84-25.53-34.24-25.53z"/><path d="m728.73 413.72c17.76 10.87-11.69 89.56-21.62 88s-49-24.71-49-34.41 51.89-65.06 70.62-53.59z" fill="#fed892"/><circle cx="934.09" cy="609.77" fill="#de8e68" r="12.25"/><g fill="none" stroke="#efefef" stroke-linecap="round" stroke-linejoin="round" stroke-width="5"><path d="m393.06 191.53a106.6 106.6 0 1 1 -55.95-15.85v106.59z"/><path d="m337.11 282.27h106.59"/><path d="m524 261.92c2.51 0 10.85-24.46 27.68-24.46 14.85 0 7.49 50.9 37.89 50.9 24.32 0 30.83-33.37 40.3-33.37 4.95 0 4.67 3.68 9.62 3.68 12 0 13.71-48.36 30.82-48.36"/><path d="m241.87 627.21 61.72-61.72 32.63 32.62 127.45-127.45 24.1 24.11 68.47-68.48 46.65 46.65 83.56-83.56"/></g></svg>