<svg viewBox="0 0 1200 1200" xmlns="http://www.w3.org/2000/svg"><path d="m513.13 447.41a84.93 84.93 0 1 1 84.92 84.93 84.92 84.92 0 0 1 -84.92-84.93z" fill="#dfdfdf"/><path d="m322.44 1055.12-24.72 14.57v3.59h48.28v-18.16z"/><path d="m449.18 1056.12h23.7v16.31h-23.7z"/><path d="m261.43 797.1 88.13 26.17-15 50.58-88.13-26.17z" fill="#dfdfdf"/><path d="m337.18 719.87-15.88 336.84 26.76.22 54.84-220.43-1.31-109.67z" fill="#61cad6"/><path d="m476 719.21c-.43 9.58-1.53 338.19-1.53 338.19l-26.1.19-81.16-330.11s109.24-17.84 108.79-8.27z" fill="#6bd5e1"/><path d="m313.16 626.73c-5.42 9.14-18.4 78.1-18.28 94.23-4.18 14.45-.79 57.9-.68 63.66s-1 27.31.23 32.61c-3.28 8.36 13.31 25.74 18.39 26.19s11.06-8.46 11.06-12.76c0-10.94-7.13-20.19-7-24.71.68-22.57 10.5-80.13 11.74-84s5.42-11.4 8.92-14.45 5.19-70.19 5.19-70.19-26.68-15.45-29.57-10.58z" fill="#e49d75"/><path d="m384.2 510.42c0 2.84 1.74 28.9-1.58 34.75s32.78 3.87 32.78-.56-1.19-25 1.73-32.45-32.93-4.59-32.93-1.74z" fill="#e49d75"/><path d="m507.05 587.61 5.28 3.85s45.36-87.82 45.91-91-3-11-2.46-14.73 18.79-21.82 24.51-22.1 6.17 2.55 4.77 5.34-12.35 13.91-12.35 13.91 7.58-2.09 10.23 0 12.7 15.49 8.93 21.35-11 8.79-12.42 12.28-44.52 124.69-49.81 127.08c-8.93 4-37.81-10-42.14-16.88s19.55-39.1 19.55-39.1z" fill="#e49d75"/><path d="m366.88 549.77c29.65 10.71 10.35 89.52.94 95-7.45 4.32-61.9-12.84-63.76-21.07-2.76-12.19 37.05-83.23 62.82-73.93z" fill="#ffc48e"/><path d="m404.17 535.55c76.13-.25 83.53 173.37 70.75 185.25-23 21.41-133.65 11.82-138.47.46-7.91-18.62-4.19-185.48 67.72-185.71z" fill="#ffd98e"/><path d="m415.27 566.27c13.13-28.65 90.07-2.86 94.71 7 3.69 7.79-18 60.62-26.31 61.79-12.35 1.7-79.82-43.89-68.4-68.79z" fill="#ffe3ad"/><path d="m371 473.36c0-24.88 15.39-45.05 34.38-45.05s34.38 20.17 34.38 45.05-15.39 45.06-34.38 45.06-34.38-20.18-34.38-45.06z" fill="#e49d75"/><path d="m359.68 467.56c-1.26-18.8 9.61-36.27 13.48-47.25 3.34-10.56 10-18.4 18.6-18.81s11 1.77 16.73 1.56 15.68-6.69 22.16-6.69 10.35 4.63 14.35 7.53 12.26 8.36 12.23 13.17c-.17 28.92-26.6 26.18-34.29 34.49-5.22 4.39-5.54 14.64-8.15 16.31s-8.26.68-8.36 8.89c-.06 4.83 1.25 8.78 4.7 9.09s4.67 1.57 4.6 4.08c-.73 24.22-17.83 28.77-24.8 28.07-9.77-.92-12.54-12.85-14.95-16.93-9.24-10.31-15.52-21.69-16.3-33.51z" fill="#ff8364"/><path d="m593.93 451.1 12.73-54.17 12.74-54.18 24.6 12.88 24.57 12.88-37.3 41.3z" fill="#949494"/><path d="m724.7 367.17h244.18v150.16h-244.18z" fill="#dfdfdf"/><path d="m739.43 379.23h21.67v126h-21.67z" fill="#949494"/><path d="m771.6 397.5h21.67v107.77h-21.67z" fill="#949494"/><path d="m803.78 425.22h21.67v80h-21.67z" fill="#949494"/><path d="m836 462.83h21.66v42.44h-21.66z" fill="#949494"/><path d="m868.13 426.4h21.67v78.87h-21.67z" fill="#949494"/><path d="m900.31 398.91h21.69v106.36h-21.69z" fill="#949494"/><path d="m932.49 379.23h21.66v126h-21.66z" fill="#949494"/><g fill="none" stroke="#000" stroke-linecap="round" stroke-linejoin="round"><path d="m609.3 662.28 45.9-45.91"/><path d="m681.08 640.78 49.27-49.26"/><path d="m756 615.27 10.71-10.71"/><path d="m808.57 645.79 64-64"/><path d="m655.35 615.61 24.59 24.6"/><path d="m730.42 592 24.38 24.38"/><path d="m767.34 604 41.27 41.27"/><path d="m874.2 580.21 15.92 15.91"/></g><path d="m652.73 616.42a2.75 2.75 0 1 1 2.75 2.75 2.75 2.75 0 0 1 -2.75-2.75z"/><path d="m677.89 639.83a2.75 2.75 0 1 1 2.75 2.75 2.75 2.75 0 0 1 -2.75-2.75z"/><path d="m727.39 592.84a2.75 2.75 0 1 1 2.74 2.75 2.75 2.75 0 0 1 -2.74-2.75z"/><path d="m752.61 615.75a2.75 2.75 0 1 1 2.75 2.75 2.75 2.75 0 0 1 -2.75-2.75z"/><path d="m764.53 604.19a2.75 2.75 0 1 1 2.75 2.75 2.75 2.75 0 0 1 -2.75-2.75z"/><path d="m806.05 644.61a2.75 2.75 0 1 1 2.75 2.75 2.75 2.75 0 0 1 -2.75-2.75z"/><path d="m871.41 581a2.75 2.75 0 1 1 2.75 2.75 2.75 2.75 0 0 1 -2.75-2.75z"/></svg>