<svg viewBox="0 0 1200 1200" xmlns="http://www.w3.org/2000/svg"><path d="m523.53 253.69c16.55.88 40.23 14 40.23 36.87s-23.84 31.85-45.26 35.58c14.53 17.32 20.49 20.67 19 28.12s-14.9 27.94-16 51.41-64.82 152.54-76.92 156.27 11.76 27.6-71.7 30.28c-22.25 0-62.62-33-62.62-76-1-93.73 96.42-111.52 150.59-216.09 24.86-48 55-46.86 62.68-46.44z"/><path d="m284.81 695.14h717v308.44h-717z" fill="#f3f3f3"/><path d="m369.18 768.09h570.68" fill="none" stroke="#fff" stroke-linecap="round" stroke-linejoin="round" stroke-width="12.98"/><path d="m725.92 777.94 20.23-11.68 14.33 24.84-20.23 11.67z" fill="#e49d75"/><path d="m415.67 850h449.14" fill="none" stroke="#fff" stroke-linecap="round" stroke-linejoin="round" stroke-width="12.98"/><path d="m575.24 824.87 21.07 10.13-12.31 25.81-21.08-10.07z" fill="#e49d75"/><path d="m692.42 605.85c20.5 0 50.65 122.85 63.61 158.87-2.71 7.54-18.09 19.28-26.53 19.28-16.28-27.28-52.75-85.76-59.23-94.8-5.19-7.2 1.65-83.35 22.15-83.35z" fill="#5fc5d1"/><path d="m684.69 363.43c3.5-2.19 1.85-.72 4.61-4.76" opacity=".27"/><path d="m457.32 583.28c-17.77 0-32.41-3.83-32.41 38s45.66 76.67 99.85 76.67 78.17-1.44 83.11-2.64c1.46 13.83-30.48 108.6-33.91 133 2.45 6.52 18.3 14.64 25 14.64s95.84-144.79 93.52-234.26c.31-14-51.19-17.87-83.73-17.87s-101.8 3.75-110.56 3.75" fill="#6bd5e1"/><path d="m431.11 587.39c-2.26-9.31-14.44-209.38 58.63-205.81s72.32 181.86 64 210c-33.35 14.12-120.25 5.64-122.63-4.19z" fill="#ffd98e"/><path d="m514.39 365.71c-1.15 2.73-7.35 17.27-8.5 23.21s-32.56-1.57-30.8-4.54c10.4-17.56 12.1-36 13.79-45.23 1.55-8.44 33.12 8.48 25.51 26.56z" fill="#d18c65"/><path d="m505.37 483.25-45.08 4.8c-3.07 3.78-1.74 12.72-1.79 17.32-.2 17 .56 36 10.84 50.32 4 5.57 10.55 11 17 10.91 10.1 4 26.95 8.61 26.95 8.61l25.57 5.64s43.14 7.65 64.44 7.15c7.09-.18 14.3-1 21.38-.8 4.11.11 10.63 1.39 14.47 0 1.12-.41.85-2.88.58-3.85-.92-3.39-4.16-5.77-7.14-7.25-6.92-3.44-10.84-1.26-17.94-1.14-5.81.1-12.74-2.86-22.82-6.81-11.89-4.66-25.45-10.35-37.57-14.43-13.81-4.65-27.9-9.67-41.38-15.19-2.66-1.09-5.49-1.88-8.28-2.75a145.85 145.85 0 0 0 2.16-22c.31-8 .44-16.4-.73-24.28-.3-2.03.19-4.37-.66-6.25z" fill="#e49d75"/><path d="m448.29 489.29c-7.67-20.38-1-84.08 23.9-88.25 34.64-5.14 45 75.34 41.57 84.75-6.13 3.68-40.47 15.85-65.47 3.5z" fill="#ffe4ad"/><path d="m551.44 297a104.31 104.31 0 0 1 -68.85 28.78 8.6 8.6 0 0 0 -1.86 5.31 9 9 0 0 0 7.69 8.86c2.23 13.63 9.44 24.31 20.06 27.54 17 5.18 36.41-10.77 43.29-35.63 3.48-12.56 3.09-24.97-.33-34.86z" fill="#e49d75"/><path d="m577.93 589.33c18 0 83-.52 94.93-.52" fill="#ffc88e"/><path d="m566.81 590.17c19 0 84.58-1.55 95.46-1.55 8.44-13 47.64-81.48 50.23-86.66" fill="none" stroke="#9d9d9d" stroke-linecap="round" stroke-linejoin="round" stroke-width="5.79"/><path d="m566 844.43-13.72 26.22 69.8 36.52 3.89-7.43-34.56-42z"/><path d="m736 796.1 15.25 25.36 67.51-40.59-4.32-7.19-53.86 7.64z"/><g fill="none" stroke-linecap="round" stroke-linejoin="round" stroke-width="12.98"><path d="m363.26 814.84-44.77-44.76 44.77-44.77" stroke="#dfdfdf"/><path d="m919.25 974.76 44.75-44.76-44.76-44.76" stroke="#dfdfdf"/><path d="m369.18 929.45h514.49" stroke="#fff"/></g></svg>