<svg viewBox="0 0 1200 1200" xmlns="http://www.w3.org/2000/svg"><path d="m594.8 89.22h480.22v697.59h-480.22z" fill="#f3f3f3"/><g fill="#fd8369"><path d="m107 941.6h143.78v170.94h-143.78z"/><path d="m292.79 812.29h143.78v300.25h-143.78z"/><path d="m478.57 663.58h143.78v448.97h-143.78z"/></g><path d="m345.68 825.08h16.7v12.24h-16.7z" fill="#de8e68"/><path d="m528.89 666.78h16.7v12.24h-16.7z" fill="#de8e68"/><path d="m459.19 476.9c10 0 90.23 11.33 125.33 29.36-4.83 23.51-36.39 162-36.39 162h-19.65s-7.4-116.59-9-115.62c-10.63 5.47-52.82 19.27-97.91 19.94" fill="#56cad8"/><path d="m459.19 476.9-96.19 349.79h-17.32v-349.79" fill="#74d5de"/><path d="m477 329.89c4.85 2.11 21.47 16 24.44 21 27.14-33.79 71.9-67.89 75.56-71.83s4.8-25.89 4.8-30.69 6.62-17.59 13-17.59v57.55s-74.9 105.05-87.23 105.05c-8 0-47.51-17.36-53-22.61" fill="#de8e68"/><path d="m416 310.55c9.88-16 67 8.78 67 16.43s-21.18 42.88-30.67 42.38c-7.56-.36-46.56-42.2-36.33-58.81z" fill="#fcc486"/><path d="m402.13 287.34c72.58 0 68.52 180.72 57.06 189.56s-105.52 13.13-114.12 0-11.93-189.56 57.06-189.56z" fill="#fed385"/><path d="m323.63 344.39c-12.89 4.05-46.05 66.57-46.05 76.11 0 20 67.52 108.09 76.11 108.09 3.58-6.21 9.31-19.09 9.31-19.09s-40.56-75.64-48-85.42c6.44-6 29.82-37.46 33.64-47.24s2.39-30.78 2.39-30.78z" fill="#de8e68"/><path d="m369.94 306.68c16.46 9-5.25 67.32-12.89 67.8s-43.93-18.91-43.93-28.41c0-7.64 39.7-48.78 56.82-39.39z" fill="#fed892"/><path d="m345.68 834.73v14.8h44.6v-5.37l-27.08-9.43z"/><path d="m528.16 677.67v14.8h44.61v-5.36l-27.08-9.44z"/><path d="m594.8 89.22h480.22v44.93h-480.22z" fill="#dfdfdf"/><path d="m705.7 190.74h403.3v114.91h-403.3z" fill="#dfdfdf"/><path d="m729.25 212.98h360.56v10.41h-360.56z" fill="#f9f9f9"/><path d="m729.25 237.78h360.56v10.41h-360.56z" fill="#f9f9f9"/><path d="m729.25 262.59h360.56v10.41h-360.56z" fill="#f9f9f9"/><path d="m705.7 351.83h403.3v114.91h-403.3z" fill="#dfdfdf"/><circle cx="759.42" cy="409.28" fill="#f9f9f9" r="34.22"/><path d="m818.89 375.06h262.55v33.1h-262.55z" fill="#f9f9f9"/><path d="m818.89 419.38h262.55v12.16h-262.55z" fill="#f9f9f9"/><path d="m641.74 516.58h378.79v186.36h-378.79z" fill="#fff"/><path d="m420.14 251.78h-28.75v40.79c0 10.13 28.75 10.3 28.75 0z" fill="#d37c59"/><path d="m441.15 233.08c-5.06-21.67-21.15-36.43-35.94-33-12.67 3-20.26 18.32-19 36.29a9.42 9.42 0 0 0 2.6 18.47 9.74 9.74 0 0 0 1.72-.17c6.86 16.52 20.41 26.81 33 23.87 14.79-3.43 22.68-23.8 17.62-45.46z" fill="#de8e68"/><path d="m393.55 243.21c3.78 0 4.44-5.22 4.44-9.85 0-6.2 5.89-11.8 9.52-12.86 6.57-1.9 9.92-2.34 13.9-4.5s8.72-5.41 8.72-5.41a55.65 55.65 0 0 1 4.79 6.73c3.65-1 22.77-5.56 22.77-19.26 0-9-7.56-10.18-11-13-3.66-3-2.09-12.07-12-12.07-8.88 0-13.25 9.33-18.93 12.92-6.87 4.35-20.35.85-29.23 10-4.31 4.44-5.32 15.37-8 19.37-3.66 5.42-10 7-10 15.27 0 6.07 5.15 16.32 11.35 17.82 0-6 2.19-11.74 6.63-11.74 4.83 0 1.49 6.58 7.04 6.58z" fill="#fd8369"/></svg>