<?xml version="1.0" encoding="utf-8"?>
<!DOCTYPE svg PUBLIC "-//W3C//DTD SVG 1.1//EN" "http://www.w3.org/Graphics/SVG/1.1/DTD/svg11.dtd">
<svg version="1.1" xmlns="http://www.w3.org/2000/svg" xmlns:xlink="http://www.w3.org/1999/xlink" 
	   xml:space="preserve" width="2560" height="100">
	<g transform="translate(0,0)"><path class="line" style="fill: none;stroke: #0092B9;stroke-width: 2px;" d="M0,77.52229317557067L134.73684210526315,49.382312004454434L269.4736842105263,38.12730953097343L404.2105263157895,67.03108998015523L538.9473684210526,78.29222081694752L673.6842105263157,11.52316767256707L808.421052631579,24.35724319890141L943.1578947368421,9.999999999999998L1077.8947368421052,78.81362246815115L1212.6315789473683,77.11423103231937L1347.3684210526314,41.75061823334545L1482.1052631578948,9.999999999999998L1616.842105263158,9.999999999999998L1751.578947368421,58.036459488794215L1886.3157894736842,13.893303819932045L2021.0526315789475,13.988777133636177L2155.7894736842104,9.999999999999998L2290.5263157894738,22.321101236157116L2425.2631578947367,9.999999999999998L2560,9.999999999999998"></path><path class="area" fill="#ecedf3 " d="M0,77.52229317557067L134.73684210526315,49.382312004454434L269.4736842105263,38.12730953097343L404.2105263157895,67.03108998015523L538.9473684210526,78.29222081694752L673.6842105263157,11.52316767256707L808.421052631579,24.35724319890141L943.1578947368421,9.999999999999998L1077.8947368421052,78.81362246815115L1212.6315789473683,77.11423103231937L1347.3684210526314,41.75061823334545L1482.1052631578948,9.999999999999998L1616.842105263158,9.999999999999998L1751.578947368421,58.036459488794215L1886.3157894736842,13.893303819932045L2021.0526315789475,13.988777133636177L2155.7894736842104,9.999999999999998L2290.5263157894738,22.321101236157116L2425.2631578947367,9.999999999999998L2560,9.999999999999998L2560,100L2425.2631578947367,100L2290.5263157894738,100L2155.7894736842104,100L2021.0526315789475,100L1886.3157894736842,100L1751.578947368421,100L1616.842105263158,100L1482.1052631578948,100L1347.3684210526314,100L1212.6315789473683,100L1077.8947368421052,100L943.1578947368421,100L808.421052631579,100L673.6842105263157,100L538.9473684210526,100L404.2105263157895,100L269.4736842105263,100L134.73684210526315,100L0,100Z"></path><circle class="dot" style="fill: white; stroke: #0282A5; stroke-width: 3px;" cx="0" cy="77.52229317557067" r="3.5"></circle><circle class="dot" style="fill: white; stroke: #0282A5; stroke-width: 3px;" cx="134.73684210526315" cy="49.382312004454434" r="3.5"></circle><circle class="dot" style="fill: white; stroke: #0282A5; stroke-width: 3px;" cx="269.4736842105263" cy="38.12730953097343" r="3.5"></circle><circle class="dot" style="fill: white; stroke: #0282A5; stroke-width: 3px;" cx="404.2105263157895" cy="67.03108998015523" r="3.5"></circle><circle class="dot" style="fill: white; stroke: #0282A5; stroke-width: 3px;" cx="538.9473684210526" cy="78.29222081694752" r="3.5"></circle><circle class="dot" style="fill: white; stroke: #0282A5; stroke-width: 3px;" cx="673.6842105263157" cy="11.52316767256707" r="3.5"></circle><circle class="dot" style="fill: white; stroke: #0282A5; stroke-width: 3px;" cx="808.421052631579" cy="24.35724319890141" r="3.5"></circle><circle class="dot" style="fill: white; stroke: #0282A5; stroke-width: 3px;" cx="943.1578947368421" cy="9.999999999999998" r="3.5"></circle><circle class="dot" style="fill: white; stroke: #0282A5; stroke-width: 3px;" cx="1077.8947368421052" cy="78.81362246815115" r="3.5"></circle><circle class="dot" style="fill: white; stroke: #0282A5; stroke-width: 3px;" cx="1212.6315789473683" cy="77.11423103231937" r="3.5"></circle><circle class="dot" style="fill: white; stroke: #0282A5; stroke-width: 3px;" cx="1347.3684210526314" cy="41.75061823334545" r="3.5"></circle><circle class="dot" style="fill: white; stroke: #0282A5; stroke-width: 3px;" cx="1482.1052631578948" cy="9.999999999999998" r="3.5"></circle><circle class="dot" style="fill: white; stroke: #0282A5; stroke-width: 3px;" cx="1616.842105263158" cy="9.999999999999998" r="3.5"></circle><circle class="dot" style="fill: white; stroke: #0282A5; stroke-width: 3px;" cx="1751.578947368421" cy="58.036459488794215" r="3.5"></circle><circle class="dot" style="fill: white; stroke: #0282A5; stroke-width: 3px;" cx="1886.3157894736842" cy="13.893303819932045" r="3.5"></circle><circle class="dot" style="fill: white; stroke: #0282A5; stroke-width: 3px;" cx="2021.0526315789475" cy="13.988777133636177" r="3.5"></circle><circle class="dot" style="fill: white; stroke: #0282A5; stroke-width: 3px;" cx="2155.7894736842104" cy="9.999999999999998" r="3.5"></circle><circle class="dot" style="fill: white; stroke: #0282A5; stroke-width: 3px;" cx="2290.5263157894738" cy="22.321101236157116" r="3.5"></circle><circle class="dot" style="fill: white; stroke: #0282A5; stroke-width: 3px;" cx="2425.2631578947367" cy="9.999999999999998" r="3.5"></circle><circle class="dot" style="fill: white; stroke: #0282A5; stroke-width: 3px;" cx="2560" cy="9.999999999999998" r="3.5"></circle></g>
</svg>
